M48
; DRILL file {KiCad 5.1.6} date Tue Jul 14 16:11:27 2020
; FORMAT={-:-/ absolute / inch / decimal}
; #@! TF.CreationDate,2020-07-14T16:11:27+02:00
; #@! TF.GenerationSoftware,Kicad,Pcbnew,5.1.6
FMAT,2
INCH
T1C0.0157
T2C0.0197
T3C0.0315
T4C0.0394
T5C0.1260
%
G90
G05
T1
X6.123Y-3.3996
X6.1742Y-5.063
X6.2126Y-4.2441
X6.8268Y-2.3504
X6.8268Y-3.2844
X6.8268Y-4.1033
X6.8268Y-4.8071
X6.8652Y-3.3228
X6.8652Y-4.1417
X6.8652Y-2.4656
X6.8652Y-4.9222
X6.9035Y-2.5167
X6.9035Y-3.3484
X6.9035Y-4.1673
X6.9035Y-4.9734
X6.9163Y-2.0817
X6.9163Y-2.9006
X6.9163Y-2.9006
X6.9163Y-3.7195
X6.9163Y-3.7195
X6.9163Y-4.5384
X6.9803Y-2.4656
X6.9803Y-3.2844
X6.9803Y-3.2844
X6.9803Y-4.1033
X6.9803Y-4.1033
X6.9803Y-4.9222
T2
X3.2185Y-1.6978
X3.2185Y-1.7746
X3.2185Y-2.6831
X3.2185Y-2.7215
X3.2305Y-4.637
X3.2305Y-4.687
X3.2697Y-1.6978
X3.2697Y-1.7746
X3.2697Y-2.6831
X3.2697Y-2.7215
X3.3055Y-4.637
X3.3055Y-4.687
X3.3055Y-4.737
X3.3465Y-1.8514
X3.3465Y-1.9281
X3.3465Y-2.4656
X3.3465Y-2.5039
X3.3805Y-4.487
X3.3805Y-4.537
X3.3976Y-1.8514
X3.3976Y-1.9281
X3.3976Y-2.4656
X3.3976Y-2.5039
X3.4555Y-4.487
X3.4555Y-4.537
X3.4555Y-4.587
X3.4744Y-2.5679
X3.4744Y-2.6063
X3.5055Y-2.862
X3.5055Y-2.912
X3.5256Y-2.5679
X3.5256Y-2.6063
X3.5555Y-2.862
X3.5555Y-2.912
X3.5555Y-3.362
X3.5805Y-4.312
X3.5805Y-4.387
X3.6055Y-3.362
X3.6305Y-4.312
X3.6305Y-4.387
X3.6555Y-3.362
X3.7555Y-2.987
X3.7555Y-3.037
X3.8055Y-2.987
X3.8055Y-3.037
X3.8555Y-2.987
X3.8555Y-3.037
X3.9555Y-3.637
X3.9555Y-3.687
X4.0055Y-3.637
X4.0055Y-3.687
X4.1055Y-3.562
X4.1555Y-3.512
X4.3305Y-3.287
X4.3305Y-3.362
X4.4305Y-3.637
X4.9055Y-5.437
X4.9555Y-5.387
X5.0055Y-5.337
X5.0205Y-3.237
X5.0555Y-2.937
X5.0555Y-5.287
X5.0555Y-6.162
X5.0705Y-2.7645
X5.0705Y-2.837
X5.0805Y-5.837
X5.1055Y-3.012
X5.1055Y-5.237
X5.1305Y-5.812
X5.1705Y-3.312
X5.2255Y-2.837
X5.2805Y-2.737
X5.2805Y-3.012
X5.2805Y-3.537
X5.2805Y-3.587
X5.3305Y-3.662
X5.3555Y-2.737
X5.3555Y-2.937
X5.3705Y-3.212
X5.4205Y-3.637
X5.4305Y-2.737
X5.5055Y-3.087
X5.5055Y-3.262
X5.5555Y-3.087
X5.5555Y-3.262
X5.6055Y-3.662
X5.6555Y-3.487
X5.6905Y-3.137
X5.7555Y-2.812
X5.7555Y-3.087
X5.7555Y-3.137
X5.8055Y-2.812
X5.8055Y-3.087
X5.8055Y-3.137
X5.8555Y-2.952
X5.9055Y-2.912
X5.9055Y-2.962
X5.9305Y-2.837
X5.9305Y-3.237
X6.0591Y-5.2805
X6.0805Y-2.837
X6.0805Y-3.237
X6.0846Y-2.1457
X6.0846Y-2.2224
X6.0846Y-2.2992
X6.0846Y-2.376
X6.0846Y-2.6447
X6.0974Y-3.7067
X6.0974Y-3.9626
X6.1102Y-4.3337
X6.1102Y-4.7559
X6.123Y-5.2805
X6.1486Y-1.877
X6.1742Y-2.5679
X6.1742Y-2.6063
X6.1742Y-2.6447
X6.1742Y-2.6831
X6.1742Y-2.9134
X6.1742Y-2.9518
X6.1742Y-3.4508
X6.1742Y-3.4892
X6.1742Y-3.7067
X6.1742Y-3.9626
X6.1805Y-5.887
X6.187Y-1.877
X6.2382Y-1.9409
X6.2382Y-2.0049
X6.2382Y-2.0689
X6.2382Y-2.747
X6.2382Y-2.7854
X6.2382Y-2.8238
X6.2382Y-3.0669
X6.2382Y-3.1053
X6.2382Y-3.5531
X6.2382Y-3.5915
X6.2766Y-1.9409
X6.2766Y-2.0049
X6.2766Y-2.0689
X6.2894Y-2.6063
X6.3055Y-5.887
X6.3386Y-5.4921
X6.3405Y-4.5128
X6.3406Y-2.0561
X6.3406Y-3.6939
X6.3406Y-3.8602
X6.3406Y-3.9114
X6.3406Y-3.9626
X6.3406Y-2.875
X6.3848Y-5.4921
X6.3917Y-1.9409
X6.4045Y-5.2165
X6.4301Y-1.9409
X6.4305Y-5.887
X6.4429Y-5.2165
X6.4429Y-5.2805
X6.4813Y-2.1201
X6.4813Y-2.2992
X6.4813Y-2.376
X6.4813Y-2.4656
X6.4813Y-2.5423
X6.4813Y-2.939
X6.4813Y-2.939
X6.4813Y-3.1181
X6.4813Y-3.2844
X6.4813Y-3.2844
X6.4813Y-3.7579
X6.4813Y-3.7579
X6.4813Y-3.937
X6.4813Y-3.937
X6.4813Y-4.1033
X6.4813Y-4.1033
X6.4813Y-4.5768
X6.4813Y-4.7559
X6.4813Y-4.9222
X6.4941Y-2.0049
X6.4941Y-2.8238
X6.4941Y-2.8238
X6.4941Y-3.6427
X6.4941Y-4.4616
X6.5325Y-3.1181
X6.5453Y-3.2205
X6.5453Y-5.2805
X6.5581Y-2.1073
X6.5581Y-2.2864
X6.5581Y-2.9262
X6.5581Y-2.9262
X6.5581Y-3.7451
X6.5581Y-3.7451
X6.5581Y-3.9242
X6.5581Y-3.9242
X6.5581Y-4.564
X6.5581Y-4.7431
X6.5709Y-2.3632
X6.5709Y-4.001
X6.5709Y-4.001
X6.5709Y-4.8199
X6.6476Y-2.5423
X6.6476Y-3.3612
X6.6476Y-3.3612
X6.6476Y-4.1801
X6.6476Y-4.1801
X6.6476Y-4.999
X6.6476Y-5.2805
X6.6604Y-2.2608
X6.6604Y-2.4656
X6.6604Y-3.0797
X6.6604Y-3.2844
X6.6604Y-3.2844
X6.6604Y-3.8986
X6.6604Y-3.8986
X6.6604Y-4.1033
X6.6604Y-4.1033
X6.6604Y-4.7175
X6.6604Y-4.9222
X6.6988Y-2.0049
X6.6988Y-2.8238
X6.6988Y-2.8238
X6.6988Y-3.6427
X6.6988Y-3.6427
X6.6988Y-4.4616
X6.75Y-5.2805
X6.7628Y-1.877
X6.7756Y-2.5935
X6.7756Y-2.6959
X6.7756Y-3.4124
X6.7756Y-3.5148
X6.7756Y-4.2313
X6.7756Y-4.3337
X6.7756Y-5.0502
X6.7756Y-5.1526
X6.8012Y-1.877
X6.8805Y-5.887
X6.9035Y-2.0049
X6.9547Y-2.0049
X6.9892Y-2.564
X6.9892Y-3.3829
X6.9892Y-3.3829
X6.9892Y-4.2018
X6.9892Y-4.2018
X6.9892Y-5.0207
X7.0059Y-5.2805
X7.0305Y-5.887
X7.0571Y-1.9409
X7.0571Y-2.3376
X7.0571Y-3.1565
X7.0571Y-3.1565
X7.0571Y-3.9754
X7.0571Y-3.9754
X7.0571Y-4.7943
X7.0699Y-2.7215
X7.0699Y-2.7598
X7.0699Y-3.5404
X7.0699Y-3.5787
X7.0699Y-4.3593
X7.0699Y-4.3976
X7.0699Y-5.2037
X7.0955Y-1.9409
X7.0994Y-2.2904
X7.0994Y-3.1093
X7.0994Y-3.1093
X7.0994Y-3.9281
X7.0994Y-3.9281
X7.0994Y-4.747
X7.1083Y-5.2805
X7.1211Y-5.2037
X7.1358Y-2.0837
X7.1358Y-2.9026
X7.1358Y-2.9026
X7.1358Y-3.7215
X7.1358Y-3.7215
X7.1358Y-4.5404
X7.1467Y-1.877
X7.1467Y-2.6319
X7.1467Y-2.6703
X7.1467Y-3.4508
X7.1467Y-3.4892
X7.1467Y-4.2697
X7.1467Y-4.3081
X7.1575Y-2.4892
X7.1575Y-3.3081
X7.1575Y-3.3081
X7.1575Y-4.127
X7.1575Y-4.127
X7.1575Y-4.9459
X7.1722Y-2.4016
X7.1722Y-3.2205
X7.1722Y-3.2205
X7.1722Y-4.0394
X7.1722Y-4.0394
X7.1722Y-4.8583
X7.1722Y-5.2037
X7.1805Y-5.887
X7.1978Y-1.877
X7.2106Y-5.2805
X7.249Y-1.877
X7.249Y-2.6319
X7.249Y-2.6703
X7.249Y-3.4508
X7.249Y-3.4892
X7.249Y-4.2697
X7.249Y-4.3081
X7.249Y-5.0886
X7.249Y-5.127
X7.3002Y-2.312
X7.3002Y-3.1309
X7.3002Y-3.1309
X7.3002Y-3.9498
X7.3002Y-3.9498
X7.3002Y-4.7687
X7.313Y-2.4911
X7.313Y-2.5679
X7.313Y-3.31
X7.313Y-3.31
X7.313Y-3.3868
X7.313Y-3.3868
X7.313Y-3.6427
X7.313Y-4.1289
X7.313Y-4.1289
X7.313Y-4.2057
X7.313Y-4.2057
X7.313Y-4.9478
X7.313Y-5.0246
X7.313Y-5.2805
X7.3305Y-5.887
X7.3386Y-2.0049
X7.3514Y-2.4656
X7.3514Y-2.5679
X7.3514Y-3.2844
X7.3514Y-3.2844
X7.3514Y-3.3868
X7.3514Y-3.3868
X7.3514Y-3.6427
X7.3514Y-4.1033
X7.3514Y-4.1033
X7.3514Y-4.2057
X7.3514Y-4.2057
X7.3514Y-4.9222
X7.3514Y-5.0246
X7.4154Y-1.877
X7.4154Y-2.6319
X7.4154Y-2.6703
X7.4154Y-3.4508
X7.4154Y-3.4892
X7.4154Y-4.2697
X7.4154Y-4.3081
X7.4154Y-5.0886
X7.4154Y-5.127
X7.4154Y-5.2805
X7.4665Y-1.877
X7.4805Y-5.887
X7.5157Y-2.0581
X7.5157Y-2.877
X7.5157Y-2.877
X7.5157Y-3.6959
X7.5157Y-3.6959
X7.5157Y-4.5148
X7.5177Y-1.877
X7.5177Y-2.6319
X7.5177Y-2.6703
X7.5177Y-3.4508
X7.5177Y-3.4892
X7.5177Y-4.2697
X7.5177Y-4.3081
X7.5177Y-5.0886
X7.5177Y-5.127
X7.5177Y-5.2805
X7.5433Y-5.2037
X7.5817Y-1.877
X7.5817Y-1.9409
X7.5817Y-2.747
X7.5817Y-3.5659
X7.5817Y-4.3848
X7.5817Y-5.2037
X7.6201Y-5.2805
X7.6457Y-1.877
X7.6457Y-1.9154
X7.6457Y-2.0305
X7.6457Y-2.1073
X7.6457Y-2.1841
X7.6457Y-2.9262
X7.6457Y-2.9262
X7.6457Y-3.003
X7.6457Y-3.003
X7.6457Y-3.7451
X7.6457Y-3.8219
X7.6457Y-4.564
X7.6457Y-4.6407
X7.6585Y-2.5551
X7.6585Y-3.374
X7.6585Y-4.1929
X7.6585Y-4.999
X7.6969Y-1.877
X7.6969Y-1.9154
X7.7096Y-2.1841
X7.7096Y-4.999
X7.7224Y-5.2805
X7.7352Y-2.5551
X7.7352Y-3.374
X7.7608Y-2.6191
X7.7608Y-3.0413
X7.7864Y-5.0886
X7.7992Y-2.1969
X7.7992Y-2.9902
X7.7992Y-3.438
X7.7992Y-3.7835
X7.812Y-5.127
X7.8346Y-4.2913
X7.8346Y-4.4685
X7.8346Y-4.6654
X7.8346Y-4.8228
X7.8504Y-2.0689
X7.8504Y-2.8878
X7.874Y-4.2323
X7.8839Y-3.7894
X7.8839Y-3.9567
X7.8839Y-4.1339
X7.9016Y-2.6447
X7.9016Y-2.7598
X7.9035Y-4.2913
X7.9272Y-2.0689
X7.9272Y-2.8878
X7.94Y-2.44
X7.94Y-3.2589
X7.9429Y-4.4685
X7.9528Y-2.312
X7.9528Y-3.1309
X7.9528Y-3.5531
X7.9626Y-4.9606
X7.9911Y-3.5531
X8.002Y-4.6358
X8.0413Y-4.9213
X8.061Y-3.7894
X8.061Y-4.8819
X8.0679Y-4.0266
X8.0929Y-2.3242
X8.0929Y-3.1431
X8.1201Y-4.8819
X8.1496Y-3.9764
X8.1575Y-3.1437
X8.1594Y-4.9213
X8.2087Y-2.3376
X8.2087Y-3.4646
X8.2087Y-3.7795
X8.2087Y-3.8986
X8.2087Y-4.9705
X8.2215Y-3.1437
X8.2382Y-4.4685
X8.248Y-4.9705
X8.2598Y-5.2165
X8.2776Y-4.439
X8.2854Y-2.3248
X8.2854Y-2.6447
X8.2854Y-2.7598
X8.2854Y-2.875
X8.2854Y-2.9902
X8.2854Y-3.1437
X8.2972Y-3.622
X8.2982Y-1.7874
X8.3268Y-4.5669
X8.3268Y-5.0591
X8.3268Y-5.128
X8.3366Y-2.4528
X8.3366Y-3.2717
X8.3465Y-3.622
X8.3465Y-4.1831
X8.3465Y-4.7047
X8.3465Y-4.7736
X8.3494Y-1.7874
X8.4006Y-1.7874
X8.4055Y-3.5433
X8.4055Y-4.2421
X8.435Y-4.4783
X8.4547Y-3.5433
X8.4902Y-4.628
X8.5122Y-3.9207
X8.5797Y-1.7362
X8.5797Y-1.8386
X8.8323Y-1.7018
X9.0059Y-1.6929
X9.0059Y-1.7717
X9.0059Y-1.8602
X9.0059Y-1.9882
X9.0059Y-3.0512
X9.0059Y-3.3563
X9.0059Y-4.5079
X9.0059Y-4.7244
X9.0059Y-5.8858
X9.0059Y-6.1811
T3
X7.7608Y-1.8898
X7.8986Y-1.8898
X5.8287Y-2.0177
X5.8287Y-2.1555
X5.8287Y-2.3632
X5.8287Y-2.501
X7.2305Y-5.612
X7.2305Y-5.7104
X3.6427Y-3.262
X3.7805Y-3.262
X7.4805Y-5.587
X7.4805Y-6.087
X7.5805Y-5.587
X7.5805Y-6.087
X7.6805Y-5.587
X7.6805Y-6.087
X7.7805Y-5.587
X7.7805Y-6.087
X7.8805Y-5.587
X7.8805Y-6.087
X7.9805Y-5.587
X7.9805Y-6.087
X8.0805Y-5.587
X8.0805Y-6.087
X8.1805Y-5.587
X8.1805Y-6.087
X3.6427Y-2.887
X3.7805Y-2.887
X3.6427Y-3.637
X3.7805Y-3.637
X8.1959Y-1.8898
X8.3337Y-1.8898
T4
X2.9689Y-2.2002
X2.9689Y-2.3093
X2.9689Y-2.4183
X2.9689Y-2.5274
X2.9689Y-2.6364
X2.9689Y-2.7455
X2.9689Y-2.8545
X2.9689Y-2.9636
X2.9689Y-3.0726
X2.9689Y-3.1817
X2.9689Y-3.2907
X2.9689Y-3.3998
X3.0807Y-2.1457
X3.0807Y-2.2547
X3.0807Y-2.3638
X3.0807Y-2.4728
X3.0807Y-2.5819
X3.0807Y-2.6909
X3.0807Y-2.8
X3.0807Y-2.9091
X3.0807Y-3.0181
X3.0807Y-3.1272
X3.0807Y-3.2362
X3.0807Y-3.3453
X3.0807Y-3.4543
X8.439Y-3.1844
X8.439Y-3.2844
X7.5817Y-4.7559
X7.6817Y-4.7559
X5.2305Y-3.437
X7.0305Y-5.587
X3.4055Y-3.012
X8.622Y-5.0969
X8.622Y-5.2059
X8.622Y-5.315
X8.622Y-5.424
X8.622Y-5.5331
X8.7339Y-5.1514
X8.7339Y-5.2604
X8.7339Y-5.3695
X8.7339Y-5.4785
X8.622Y-2.3409
X8.622Y-2.45
X8.622Y-2.5591
X8.622Y-2.6681
X8.622Y-2.7772
X8.7339Y-2.3955
X8.7339Y-2.5045
X8.7339Y-2.6136
X8.7339Y-2.7226
X4.1014Y-1.8898
X5.0905Y-3.352
X3.6055Y-4.062
X3.6055Y-4.162
X3.6055Y-5.962
X3.6055Y-6.062
X3.7055Y-4.062
X3.7055Y-4.162
X3.7055Y-5.962
X3.7055Y-6.062
X3.8055Y-4.062
X3.8055Y-4.162
X3.8055Y-5.962
X3.8055Y-6.062
X3.9055Y-4.062
X3.9055Y-4.162
X3.9055Y-5.962
X3.9055Y-6.062
X4.0055Y-4.062
X4.0055Y-4.162
X4.0055Y-5.962
X4.0055Y-6.062
X4.1055Y-4.062
X4.1055Y-4.162
X4.1055Y-5.962
X4.1055Y-6.062
X4.2055Y-4.062
X4.2055Y-4.162
X4.2055Y-5.962
X4.2055Y-6.062
X4.3055Y-4.062
X4.3055Y-4.162
X4.3055Y-5.962
X4.3055Y-6.062
X4.4055Y-4.062
X4.4055Y-4.162
X4.4055Y-5.962
X4.4055Y-6.062
X4.5055Y-4.062
X4.5055Y-4.162
X4.5055Y-5.962
X4.5055Y-6.062
X4.6055Y-4.062
X4.6055Y-4.162
X4.6055Y-5.962
X4.6055Y-6.062
X4.7055Y-4.062
X4.7055Y-4.162
X4.7055Y-5.962
X4.7055Y-6.062
X4.8055Y-4.062
X4.8055Y-4.162
X4.8055Y-5.962
X4.8055Y-6.062
X4.9055Y-4.062
X4.9055Y-4.162
X4.9055Y-5.962
X4.9055Y-6.062
X5.0055Y-4.062
X5.0055Y-4.162
X5.0055Y-5.962
X5.0055Y-6.062
X5.1055Y-4.062
X5.1055Y-4.162
X5.1055Y-5.962
X5.1055Y-6.062
X5.2055Y-4.062
X5.2055Y-4.162
X5.2055Y-5.962
X5.2055Y-6.062
X5.3055Y-4.062
X5.3055Y-4.162
X5.3055Y-5.962
X5.3055Y-6.062
X5.4055Y-4.062
X5.4055Y-4.162
X5.4055Y-5.962
X5.4055Y-6.062
X5.5055Y-4.062
X5.5055Y-4.162
X5.5055Y-5.962
X5.5055Y-6.062
X5.6055Y-4.062
X5.6055Y-4.162
X5.6055Y-5.962
X5.6055Y-6.062
X5.7055Y-4.062
X5.7055Y-4.162
X5.7055Y-5.962
X5.7055Y-6.062
X5.8055Y-4.062
X5.8055Y-4.162
X5.8055Y-5.962
X5.8055Y-6.062
X3.8199Y-1.7362
X7.5817Y-3.1181
X7.6817Y-3.1181
X8.622Y-3.7189
X8.622Y-3.828
X8.622Y-3.937
X8.622Y-4.0461
X8.622Y-4.1551
X8.7339Y-3.7734
X8.7339Y-3.8825
X8.7339Y-3.9915
X8.7339Y-4.1006
X8.439Y-2.8646
X8.439Y-2.9646
X3.8199Y-2.3504
X7.5817Y-3.937
X7.6817Y-3.937
X4.7305Y-3.837
X8.439Y-2.4807
X8.439Y-2.5807
X8.439Y-2.2224
X8.439Y-2.3224
X5.5305Y-3.622
X7.5817Y-2.2992
X7.6817Y-2.2992
X3.8199Y-2.0433
T5
X3.0689Y-1.8728
X3.0689Y-3.7272
X8.678Y-4.8228
X8.678Y-5.8071
X8.678Y-2.0669
X8.678Y-3.0512
X8.678Y-3.4449
X8.678Y-4.4291
T0
M30
