G04 #@! TF.GenerationSoftware,KiCad,Pcbnew,5.1.6*
G04 #@! TF.CreationDate,2020-07-14T16:13:17+02:00*
G04 #@! TF.ProjectId,Mainboard,4d61696e-626f-4617-9264-2e6b69636164,rev?*
G04 #@! TF.SameCoordinates,Original*
G04 #@! TF.FileFunction,Legend,Bot*
G04 #@! TF.FilePolarity,Positive*
%FSLAX46Y46*%
G04 Gerber Fmt 4.6, Leading zero omitted, Abs format (unit mm)*
G04 Created by KiCad (PCBNEW 5.1.6) date 2020-07-14 16:13:17*
%MOMM*%
%LPD*%
G01*
G04 APERTURE LIST*
%ADD10C,0.120000*%
%ADD11C,0.010000*%
%ADD12C,0.150000*%
G04 APERTURE END LIST*
D10*
X100150000Y-108890000D02*
G75*
G03*
X100150000Y-108890000I-950000J0D01*
G01*
D11*
G36*
X119636834Y-67661506D02*
G01*
X119450916Y-67754204D01*
X119286820Y-67924885D01*
X119241628Y-67988107D01*
X119192396Y-68070834D01*
X119160453Y-68160687D01*
X119142178Y-68280608D01*
X119133952Y-68453537D01*
X119132145Y-68681835D01*
X119140303Y-68994693D01*
X119168659Y-69229598D01*
X119223038Y-69404847D01*
X119309263Y-69538738D01*
X119433159Y-69649569D01*
X119442263Y-69656131D01*
X119564366Y-69723256D01*
X119711400Y-69756467D01*
X119898396Y-69764655D01*
X120202387Y-69764655D01*
X120202515Y-70059762D01*
X120205344Y-70224117D01*
X120222582Y-70320523D01*
X120267630Y-70378343D01*
X120353886Y-70426941D01*
X120374601Y-70436869D01*
X120471538Y-70483398D01*
X120546593Y-70512786D01*
X120602402Y-70515324D01*
X120641603Y-70481302D01*
X120666832Y-70401012D01*
X120680728Y-70264743D01*
X120685927Y-70062787D01*
X120685066Y-69785434D01*
X120680784Y-69422976D01*
X120679447Y-69314560D01*
X120674629Y-68940837D01*
X120670313Y-68696369D01*
X120202643Y-68696369D01*
X120200015Y-68903877D01*
X120188333Y-69039645D01*
X120161903Y-69129192D01*
X120115031Y-69198039D01*
X120083207Y-69231618D01*
X119953108Y-69329869D01*
X119837921Y-69337866D01*
X119719066Y-69256730D01*
X119716053Y-69253736D01*
X119667695Y-69191030D01*
X119638278Y-69105808D01*
X119623440Y-68974564D01*
X119618819Y-68773793D01*
X119618735Y-68729314D01*
X119629902Y-68452639D01*
X119666253Y-68260842D01*
X119732059Y-68143757D01*
X119831593Y-68091215D01*
X119889119Y-68085920D01*
X120025649Y-68110767D01*
X120119298Y-68192581D01*
X120175670Y-68342270D01*
X120200367Y-68570743D01*
X120202643Y-68696369D01*
X120670313Y-68696369D01*
X120669522Y-68651587D01*
X120662922Y-68433970D01*
X120653623Y-68275146D01*
X120640423Y-68162274D01*
X120622115Y-68082513D01*
X120597497Y-68023023D01*
X120565363Y-67970963D01*
X120551585Y-67951373D01*
X120368812Y-67766328D01*
X120137724Y-67661412D01*
X119870410Y-67632163D01*
X119636834Y-67661506D01*
G37*
X119636834Y-67661506D02*
X119450916Y-67754204D01*
X119286820Y-67924885D01*
X119241628Y-67988107D01*
X119192396Y-68070834D01*
X119160453Y-68160687D01*
X119142178Y-68280608D01*
X119133952Y-68453537D01*
X119132145Y-68681835D01*
X119140303Y-68994693D01*
X119168659Y-69229598D01*
X119223038Y-69404847D01*
X119309263Y-69538738D01*
X119433159Y-69649569D01*
X119442263Y-69656131D01*
X119564366Y-69723256D01*
X119711400Y-69756467D01*
X119898396Y-69764655D01*
X120202387Y-69764655D01*
X120202515Y-70059762D01*
X120205344Y-70224117D01*
X120222582Y-70320523D01*
X120267630Y-70378343D01*
X120353886Y-70426941D01*
X120374601Y-70436869D01*
X120471538Y-70483398D01*
X120546593Y-70512786D01*
X120602402Y-70515324D01*
X120641603Y-70481302D01*
X120666832Y-70401012D01*
X120680728Y-70264743D01*
X120685927Y-70062787D01*
X120685066Y-69785434D01*
X120680784Y-69422976D01*
X120679447Y-69314560D01*
X120674629Y-68940837D01*
X120670313Y-68696369D01*
X120202643Y-68696369D01*
X120200015Y-68903877D01*
X120188333Y-69039645D01*
X120161903Y-69129192D01*
X120115031Y-69198039D01*
X120083207Y-69231618D01*
X119953108Y-69329869D01*
X119837921Y-69337866D01*
X119719066Y-69256730D01*
X119716053Y-69253736D01*
X119667695Y-69191030D01*
X119638278Y-69105808D01*
X119623440Y-68974564D01*
X119618819Y-68773793D01*
X119618735Y-68729314D01*
X119629902Y-68452639D01*
X119666253Y-68260842D01*
X119732059Y-68143757D01*
X119831593Y-68091215D01*
X119889119Y-68085920D01*
X120025649Y-68110767D01*
X120119298Y-68192581D01*
X120175670Y-68342270D01*
X120200367Y-68570743D01*
X120202643Y-68696369D01*
X120670313Y-68696369D01*
X120669522Y-68651587D01*
X120662922Y-68433970D01*
X120653623Y-68275146D01*
X120640423Y-68162274D01*
X120622115Y-68082513D01*
X120597497Y-68023023D01*
X120565363Y-67970963D01*
X120551585Y-67951373D01*
X120368812Y-67766328D01*
X120137724Y-67661412D01*
X119870410Y-67632163D01*
X119636834Y-67661506D01*
G36*
X115894284Y-67687865D02*
G01*
X115738128Y-67778190D01*
X115629559Y-67867845D01*
X115550155Y-67961776D01*
X115495454Y-68076646D01*
X115460990Y-68229114D01*
X115442299Y-68435844D01*
X115434919Y-68713496D01*
X115434061Y-68913086D01*
X115434061Y-69647766D01*
X115640862Y-69740472D01*
X115847662Y-69833179D01*
X115871992Y-69028492D01*
X115882045Y-68727966D01*
X115892591Y-68509835D01*
X115905657Y-68359186D01*
X115923271Y-68261107D01*
X115947461Y-68200688D01*
X115980254Y-68163016D01*
X115990775Y-68154862D01*
X116150187Y-68091178D01*
X116311321Y-68116378D01*
X116407241Y-68183238D01*
X116446259Y-68230616D01*
X116473267Y-68292787D01*
X116490432Y-68387039D01*
X116499918Y-68530657D01*
X116503893Y-68740931D01*
X116504559Y-68960070D01*
X116504690Y-69234999D01*
X116509397Y-69429602D01*
X116525154Y-69560851D01*
X116558433Y-69645718D01*
X116615707Y-69701177D01*
X116703447Y-69744201D01*
X116820638Y-69788907D01*
X116948632Y-69837571D01*
X116933396Y-68973910D01*
X116927261Y-68662565D01*
X116920082Y-68432483D01*
X116909795Y-68267614D01*
X116894330Y-68151909D01*
X116871621Y-68069316D01*
X116839601Y-68003788D01*
X116800997Y-67945974D01*
X116614747Y-67761283D01*
X116387479Y-67654481D01*
X116140291Y-67628898D01*
X115894284Y-67687865D01*
G37*
X115894284Y-67687865D02*
X115738128Y-67778190D01*
X115629559Y-67867845D01*
X115550155Y-67961776D01*
X115495454Y-68076646D01*
X115460990Y-68229114D01*
X115442299Y-68435844D01*
X115434919Y-68713496D01*
X115434061Y-68913086D01*
X115434061Y-69647766D01*
X115640862Y-69740472D01*
X115847662Y-69833179D01*
X115871992Y-69028492D01*
X115882045Y-68727966D01*
X115892591Y-68509835D01*
X115905657Y-68359186D01*
X115923271Y-68261107D01*
X115947461Y-68200688D01*
X115980254Y-68163016D01*
X115990775Y-68154862D01*
X116150187Y-68091178D01*
X116311321Y-68116378D01*
X116407241Y-68183238D01*
X116446259Y-68230616D01*
X116473267Y-68292787D01*
X116490432Y-68387039D01*
X116499918Y-68530657D01*
X116503893Y-68740931D01*
X116504559Y-68960070D01*
X116504690Y-69234999D01*
X116509397Y-69429602D01*
X116525154Y-69560851D01*
X116558433Y-69645718D01*
X116615707Y-69701177D01*
X116703447Y-69744201D01*
X116820638Y-69788907D01*
X116948632Y-69837571D01*
X116933396Y-68973910D01*
X116927261Y-68662565D01*
X116920082Y-68432483D01*
X116909795Y-68267614D01*
X116894330Y-68151909D01*
X116871621Y-68069316D01*
X116839601Y-68003788D01*
X116800997Y-67945974D01*
X116614747Y-67761283D01*
X116387479Y-67654481D01*
X116140291Y-67628898D01*
X115894284Y-67687865D01*
G36*
X121509632Y-67668358D02*
G01*
X121281564Y-67788280D01*
X121113248Y-67981278D01*
X121053459Y-68105355D01*
X121006934Y-68291653D01*
X120983118Y-68527045D01*
X120980860Y-68783952D01*
X120999008Y-69034799D01*
X121036411Y-69252009D01*
X121091916Y-69408005D01*
X121108975Y-69434871D01*
X121311030Y-69635415D01*
X121551022Y-69755529D01*
X121811434Y-69790680D01*
X122074753Y-69736337D01*
X122148033Y-69703756D01*
X122290739Y-69603353D01*
X122415986Y-69470225D01*
X122427823Y-69453341D01*
X122475935Y-69371969D01*
X122507738Y-69284984D01*
X122526526Y-69170475D01*
X122535592Y-69006530D01*
X122538229Y-68771240D01*
X122538275Y-68718487D01*
X122538154Y-68701699D01*
X122051685Y-68701699D01*
X122048854Y-68923761D01*
X122037712Y-69071123D01*
X122014291Y-69166308D01*
X121974619Y-69231837D01*
X121954367Y-69253736D01*
X121837940Y-69336953D01*
X121724902Y-69333158D01*
X121610609Y-69260973D01*
X121542441Y-69183911D01*
X121502070Y-69071429D01*
X121479398Y-68894055D01*
X121477843Y-68873367D01*
X121473973Y-68551911D01*
X121514417Y-68313167D01*
X121598626Y-68158600D01*
X121726053Y-68089678D01*
X121771540Y-68085920D01*
X121890981Y-68104821D01*
X121972683Y-68170306D01*
X122022637Y-68295544D01*
X122046834Y-68493704D01*
X122051685Y-68701699D01*
X122538154Y-68701699D01*
X122536463Y-68467765D01*
X122528853Y-68292582D01*
X122512186Y-68171191D01*
X122483201Y-68081847D01*
X122438640Y-68002803D01*
X122428793Y-67988107D01*
X122263280Y-67790011D01*
X122082930Y-67675014D01*
X121863365Y-67629365D01*
X121788805Y-67627135D01*
X121509632Y-67668358D01*
G37*
X121509632Y-67668358D02*
X121281564Y-67788280D01*
X121113248Y-67981278D01*
X121053459Y-68105355D01*
X121006934Y-68291653D01*
X120983118Y-68527045D01*
X120980860Y-68783952D01*
X120999008Y-69034799D01*
X121036411Y-69252009D01*
X121091916Y-69408005D01*
X121108975Y-69434871D01*
X121311030Y-69635415D01*
X121551022Y-69755529D01*
X121811434Y-69790680D01*
X122074753Y-69736337D01*
X122148033Y-69703756D01*
X122290739Y-69603353D01*
X122415986Y-69470225D01*
X122427823Y-69453341D01*
X122475935Y-69371969D01*
X122507738Y-69284984D01*
X122526526Y-69170475D01*
X122535592Y-69006530D01*
X122538229Y-68771240D01*
X122538275Y-68718487D01*
X122538154Y-68701699D01*
X122051685Y-68701699D01*
X122048854Y-68923761D01*
X122037712Y-69071123D01*
X122014291Y-69166308D01*
X121974619Y-69231837D01*
X121954367Y-69253736D01*
X121837940Y-69336953D01*
X121724902Y-69333158D01*
X121610609Y-69260973D01*
X121542441Y-69183911D01*
X121502070Y-69071429D01*
X121479398Y-68894055D01*
X121477843Y-68873367D01*
X121473973Y-68551911D01*
X121514417Y-68313167D01*
X121598626Y-68158600D01*
X121726053Y-68089678D01*
X121771540Y-68085920D01*
X121890981Y-68104821D01*
X121972683Y-68170306D01*
X122022637Y-68295544D01*
X122046834Y-68493704D01*
X122051685Y-68701699D01*
X122538154Y-68701699D01*
X122536463Y-68467765D01*
X122528853Y-68292582D01*
X122512186Y-68171191D01*
X122483201Y-68081847D01*
X122438640Y-68002803D01*
X122428793Y-67988107D01*
X122263280Y-67790011D01*
X122082930Y-67675014D01*
X121863365Y-67629365D01*
X121788805Y-67627135D01*
X121509632Y-67668358D01*
G36*
X117730747Y-67699461D02*
G01*
X117538903Y-67828519D01*
X117390648Y-68014915D01*
X117302084Y-68252109D01*
X117284172Y-68426691D01*
X117286206Y-68499544D01*
X117303240Y-68555324D01*
X117350064Y-68605298D01*
X117441473Y-68660733D01*
X117592258Y-68732896D01*
X117817213Y-68833055D01*
X117818352Y-68833558D01*
X118025415Y-68928396D01*
X118195212Y-69012609D01*
X118310388Y-69077133D01*
X118353590Y-69112900D01*
X118353601Y-69113188D01*
X118315525Y-69191074D01*
X118226484Y-69276924D01*
X118124263Y-69338769D01*
X118072474Y-69351054D01*
X117931184Y-69308564D01*
X117809512Y-69202152D01*
X117750145Y-69085156D01*
X117693033Y-68998905D01*
X117581161Y-68900681D01*
X117449654Y-68815827D01*
X117333632Y-68769681D01*
X117309371Y-68767146D01*
X117282062Y-68808868D01*
X117280416Y-68915519D01*
X117300486Y-69059321D01*
X117338322Y-69212501D01*
X117389977Y-69347283D01*
X117392586Y-69352516D01*
X117548031Y-69569557D01*
X117749493Y-69717185D01*
X117978288Y-69789644D01*
X118215733Y-69781177D01*
X118443146Y-69686027D01*
X118453257Y-69679337D01*
X118632150Y-69517211D01*
X118749780Y-69305682D01*
X118814877Y-69027543D01*
X118823613Y-68949398D01*
X118839086Y-68580549D01*
X118820537Y-68408541D01*
X118353601Y-68408541D01*
X118347534Y-68515838D01*
X118314351Y-68547152D01*
X118231623Y-68523725D01*
X118101221Y-68468348D01*
X117955457Y-68398932D01*
X117951834Y-68397094D01*
X117828283Y-68332108D01*
X117778697Y-68288740D01*
X117790925Y-68243275D01*
X117842412Y-68183536D01*
X117973399Y-68097085D01*
X118114462Y-68090733D01*
X118240995Y-68153649D01*
X118328392Y-68275003D01*
X118353601Y-68408541D01*
X118820537Y-68408541D01*
X118807260Y-68285435D01*
X118725609Y-68051382D01*
X118611939Y-67887413D01*
X118406775Y-67721716D01*
X118180786Y-67639519D01*
X117950075Y-67634281D01*
X117730747Y-67699461D01*
G37*
X117730747Y-67699461D02*
X117538903Y-67828519D01*
X117390648Y-68014915D01*
X117302084Y-68252109D01*
X117284172Y-68426691D01*
X117286206Y-68499544D01*
X117303240Y-68555324D01*
X117350064Y-68605298D01*
X117441473Y-68660733D01*
X117592258Y-68732896D01*
X117817213Y-68833055D01*
X117818352Y-68833558D01*
X118025415Y-68928396D01*
X118195212Y-69012609D01*
X118310388Y-69077133D01*
X118353590Y-69112900D01*
X118353601Y-69113188D01*
X118315525Y-69191074D01*
X118226484Y-69276924D01*
X118124263Y-69338769D01*
X118072474Y-69351054D01*
X117931184Y-69308564D01*
X117809512Y-69202152D01*
X117750145Y-69085156D01*
X117693033Y-68998905D01*
X117581161Y-68900681D01*
X117449654Y-68815827D01*
X117333632Y-68769681D01*
X117309371Y-68767146D01*
X117282062Y-68808868D01*
X117280416Y-68915519D01*
X117300486Y-69059321D01*
X117338322Y-69212501D01*
X117389977Y-69347283D01*
X117392586Y-69352516D01*
X117548031Y-69569557D01*
X117749493Y-69717185D01*
X117978288Y-69789644D01*
X118215733Y-69781177D01*
X118443146Y-69686027D01*
X118453257Y-69679337D01*
X118632150Y-69517211D01*
X118749780Y-69305682D01*
X118814877Y-69027543D01*
X118823613Y-68949398D01*
X118839086Y-68580549D01*
X118820537Y-68408541D01*
X118353601Y-68408541D01*
X118347534Y-68515838D01*
X118314351Y-68547152D01*
X118231623Y-68523725D01*
X118101221Y-68468348D01*
X117955457Y-68398932D01*
X117951834Y-68397094D01*
X117828283Y-68332108D01*
X117778697Y-68288740D01*
X117790925Y-68243275D01*
X117842412Y-68183536D01*
X117973399Y-68097085D01*
X118114462Y-68090733D01*
X118240995Y-68153649D01*
X118328392Y-68275003D01*
X118353601Y-68408541D01*
X118820537Y-68408541D01*
X118807260Y-68285435D01*
X118725609Y-68051382D01*
X118611939Y-67887413D01*
X118406775Y-67721716D01*
X118180786Y-67639519D01*
X117950075Y-67634281D01*
X117730747Y-67699461D01*
G36*
X113682337Y-67431429D02*
G01*
X113668077Y-67630313D01*
X113651698Y-67747511D01*
X113629002Y-67798632D01*
X113595788Y-67799286D01*
X113585019Y-67793183D01*
X113441767Y-67748997D01*
X113255425Y-67751577D01*
X113065976Y-67796999D01*
X112947483Y-67855759D01*
X112825991Y-67949631D01*
X112737177Y-68055865D01*
X112676208Y-68190850D01*
X112638250Y-68370976D01*
X112618468Y-68612633D01*
X112612030Y-68932211D01*
X112611914Y-68993516D01*
X112611839Y-69682147D01*
X112765077Y-69735566D01*
X112873913Y-69771908D01*
X112933626Y-69788828D01*
X112935383Y-69788985D01*
X112941264Y-69743100D01*
X112946268Y-69616539D01*
X112950016Y-69425941D01*
X112952127Y-69187948D01*
X112952452Y-69043252D01*
X112953129Y-68757955D01*
X112956614Y-68553480D01*
X112965088Y-68413334D01*
X112980734Y-68321023D01*
X113005731Y-68260053D01*
X113042262Y-68213931D01*
X113065071Y-68191720D01*
X113221751Y-68102214D01*
X113392726Y-68095511D01*
X113547850Y-68171208D01*
X113576537Y-68198539D01*
X113618613Y-68249929D01*
X113647799Y-68310886D01*
X113666429Y-68399025D01*
X113676839Y-68531961D01*
X113681363Y-68727309D01*
X113682337Y-68996652D01*
X113682337Y-69682147D01*
X113835575Y-69735566D01*
X113944411Y-69771908D01*
X114004124Y-69788828D01*
X114005881Y-69788985D01*
X114010375Y-69742414D01*
X114014425Y-69611051D01*
X114017870Y-69407422D01*
X114020547Y-69144054D01*
X114022294Y-68833471D01*
X114022949Y-68488201D01*
X114022950Y-68472843D01*
X114022950Y-67156701D01*
X113706666Y-67023289D01*
X113682337Y-67431429D01*
G37*
X113682337Y-67431429D02*
X113668077Y-67630313D01*
X113651698Y-67747511D01*
X113629002Y-67798632D01*
X113595788Y-67799286D01*
X113585019Y-67793183D01*
X113441767Y-67748997D01*
X113255425Y-67751577D01*
X113065976Y-67796999D01*
X112947483Y-67855759D01*
X112825991Y-67949631D01*
X112737177Y-68055865D01*
X112676208Y-68190850D01*
X112638250Y-68370976D01*
X112618468Y-68612633D01*
X112612030Y-68932211D01*
X112611914Y-68993516D01*
X112611839Y-69682147D01*
X112765077Y-69735566D01*
X112873913Y-69771908D01*
X112933626Y-69788828D01*
X112935383Y-69788985D01*
X112941264Y-69743100D01*
X112946268Y-69616539D01*
X112950016Y-69425941D01*
X112952127Y-69187948D01*
X112952452Y-69043252D01*
X112953129Y-68757955D01*
X112956614Y-68553480D01*
X112965088Y-68413334D01*
X112980734Y-68321023D01*
X113005731Y-68260053D01*
X113042262Y-68213931D01*
X113065071Y-68191720D01*
X113221751Y-68102214D01*
X113392726Y-68095511D01*
X113547850Y-68171208D01*
X113576537Y-68198539D01*
X113618613Y-68249929D01*
X113647799Y-68310886D01*
X113666429Y-68399025D01*
X113676839Y-68531961D01*
X113681363Y-68727309D01*
X113682337Y-68996652D01*
X113682337Y-69682147D01*
X113835575Y-69735566D01*
X113944411Y-69771908D01*
X114004124Y-69788828D01*
X114005881Y-69788985D01*
X114010375Y-69742414D01*
X114014425Y-69611051D01*
X114017870Y-69407422D01*
X114020547Y-69144054D01*
X114022294Y-68833471D01*
X114022949Y-68488201D01*
X114022950Y-68472843D01*
X114022950Y-67156701D01*
X113706666Y-67023289D01*
X113682337Y-67431429D01*
G36*
X111456759Y-67765601D02*
G01*
X111266095Y-67836403D01*
X111263914Y-67837764D01*
X111145994Y-67924550D01*
X111058940Y-68025973D01*
X110997714Y-68158145D01*
X110957277Y-68337182D01*
X110932591Y-68579195D01*
X110918618Y-68900299D01*
X110917393Y-68946048D01*
X110899800Y-69635869D01*
X111047848Y-69712427D01*
X111154970Y-69764163D01*
X111219649Y-69788678D01*
X111222641Y-69788985D01*
X111233834Y-69743751D01*
X111242725Y-69621736D01*
X111248194Y-69443468D01*
X111249387Y-69299116D01*
X111249414Y-69065271D01*
X111260104Y-68918419D01*
X111297367Y-68848376D01*
X111377112Y-68844958D01*
X111515251Y-68897983D01*
X111723812Y-68995454D01*
X111877171Y-69076409D01*
X111956048Y-69146644D01*
X111979236Y-69223194D01*
X111979272Y-69226982D01*
X111941007Y-69358852D01*
X111827717Y-69430091D01*
X111654336Y-69440410D01*
X111529450Y-69438620D01*
X111463601Y-69474589D01*
X111422536Y-69560985D01*
X111398901Y-69671054D01*
X111432961Y-69733508D01*
X111445786Y-69742446D01*
X111566528Y-69778343D01*
X111735612Y-69783426D01*
X111909739Y-69759631D01*
X112033124Y-69716147D01*
X112203713Y-69571309D01*
X112300681Y-69369694D01*
X112319885Y-69212180D01*
X112305230Y-69070104D01*
X112252199Y-68954127D01*
X112147194Y-68851121D01*
X111976614Y-68747954D01*
X111726862Y-68631496D01*
X111711647Y-68624914D01*
X111486671Y-68520981D01*
X111347843Y-68435743D01*
X111288338Y-68359147D01*
X111301328Y-68281139D01*
X111379988Y-68191664D01*
X111403510Y-68171073D01*
X111561067Y-68091236D01*
X111724323Y-68094597D01*
X111866505Y-68172874D01*
X111960840Y-68317781D01*
X111969605Y-68346224D01*
X112054962Y-68484174D01*
X112163271Y-68550620D01*
X112319885Y-68616471D01*
X112319885Y-68446097D01*
X112272244Y-68198454D01*
X112130841Y-67971307D01*
X112057258Y-67895318D01*
X111889991Y-67797790D01*
X111677274Y-67753640D01*
X111456759Y-67765601D01*
G37*
X111456759Y-67765601D02*
X111266095Y-67836403D01*
X111263914Y-67837764D01*
X111145994Y-67924550D01*
X111058940Y-68025973D01*
X110997714Y-68158145D01*
X110957277Y-68337182D01*
X110932591Y-68579195D01*
X110918618Y-68900299D01*
X110917393Y-68946048D01*
X110899800Y-69635869D01*
X111047848Y-69712427D01*
X111154970Y-69764163D01*
X111219649Y-69788678D01*
X111222641Y-69788985D01*
X111233834Y-69743751D01*
X111242725Y-69621736D01*
X111248194Y-69443468D01*
X111249387Y-69299116D01*
X111249414Y-69065271D01*
X111260104Y-68918419D01*
X111297367Y-68848376D01*
X111377112Y-68844958D01*
X111515251Y-68897983D01*
X111723812Y-68995454D01*
X111877171Y-69076409D01*
X111956048Y-69146644D01*
X111979236Y-69223194D01*
X111979272Y-69226982D01*
X111941007Y-69358852D01*
X111827717Y-69430091D01*
X111654336Y-69440410D01*
X111529450Y-69438620D01*
X111463601Y-69474589D01*
X111422536Y-69560985D01*
X111398901Y-69671054D01*
X111432961Y-69733508D01*
X111445786Y-69742446D01*
X111566528Y-69778343D01*
X111735612Y-69783426D01*
X111909739Y-69759631D01*
X112033124Y-69716147D01*
X112203713Y-69571309D01*
X112300681Y-69369694D01*
X112319885Y-69212180D01*
X112305230Y-69070104D01*
X112252199Y-68954127D01*
X112147194Y-68851121D01*
X111976614Y-68747954D01*
X111726862Y-68631496D01*
X111711647Y-68624914D01*
X111486671Y-68520981D01*
X111347843Y-68435743D01*
X111288338Y-68359147D01*
X111301328Y-68281139D01*
X111379988Y-68191664D01*
X111403510Y-68171073D01*
X111561067Y-68091236D01*
X111724323Y-68094597D01*
X111866505Y-68172874D01*
X111960840Y-68317781D01*
X111969605Y-68346224D01*
X112054962Y-68484174D01*
X112163271Y-68550620D01*
X112319885Y-68616471D01*
X112319885Y-68446097D01*
X112272244Y-68198454D01*
X112130841Y-67971307D01*
X112057258Y-67895318D01*
X111889991Y-67797790D01*
X111677274Y-67753640D01*
X111456759Y-67765601D01*
G36*
X109813428Y-67761534D02*
G01*
X109592391Y-67843099D01*
X109413317Y-67987366D01*
X109343280Y-68088920D01*
X109266929Y-68275268D01*
X109268515Y-68410010D01*
X109348653Y-68500631D01*
X109378304Y-68516040D01*
X109506326Y-68564084D01*
X109571706Y-68551776D01*
X109593852Y-68471098D01*
X109594980Y-68426533D01*
X109635523Y-68262581D01*
X109741198Y-68147891D01*
X109888076Y-68092497D01*
X110052227Y-68106435D01*
X110185663Y-68178827D01*
X110230731Y-68220120D01*
X110262677Y-68270216D01*
X110284256Y-68345942D01*
X110298227Y-68464128D01*
X110307345Y-68641600D01*
X110314369Y-68895186D01*
X110316188Y-68975479D01*
X110322822Y-69250158D01*
X110330364Y-69443481D01*
X110341675Y-69571388D01*
X110359615Y-69649822D01*
X110387045Y-69694725D01*
X110426823Y-69722038D01*
X110452290Y-69734105D01*
X110560444Y-69775367D01*
X110624110Y-69788985D01*
X110645146Y-69743505D01*
X110657987Y-69606006D01*
X110662700Y-69374902D01*
X110659356Y-69048604D01*
X110658314Y-68998276D01*
X110650965Y-68700581D01*
X110642274Y-68483205D01*
X110629908Y-68329153D01*
X110611530Y-68221430D01*
X110584805Y-68143042D01*
X110547398Y-68076994D01*
X110527830Y-68048691D01*
X110415634Y-67923467D01*
X110290150Y-67826063D01*
X110274787Y-67817561D01*
X110049777Y-67750433D01*
X109813428Y-67761534D01*
G37*
X109813428Y-67761534D02*
X109592391Y-67843099D01*
X109413317Y-67987366D01*
X109343280Y-68088920D01*
X109266929Y-68275268D01*
X109268515Y-68410010D01*
X109348653Y-68500631D01*
X109378304Y-68516040D01*
X109506326Y-68564084D01*
X109571706Y-68551776D01*
X109593852Y-68471098D01*
X109594980Y-68426533D01*
X109635523Y-68262581D01*
X109741198Y-68147891D01*
X109888076Y-68092497D01*
X110052227Y-68106435D01*
X110185663Y-68178827D01*
X110230731Y-68220120D01*
X110262677Y-68270216D01*
X110284256Y-68345942D01*
X110298227Y-68464128D01*
X110307345Y-68641600D01*
X110314369Y-68895186D01*
X110316188Y-68975479D01*
X110322822Y-69250158D01*
X110330364Y-69443481D01*
X110341675Y-69571388D01*
X110359615Y-69649822D01*
X110387045Y-69694725D01*
X110426823Y-69722038D01*
X110452290Y-69734105D01*
X110560444Y-69775367D01*
X110624110Y-69788985D01*
X110645146Y-69743505D01*
X110657987Y-69606006D01*
X110662700Y-69374902D01*
X110659356Y-69048604D01*
X110658314Y-68998276D01*
X110650965Y-68700581D01*
X110642274Y-68483205D01*
X110629908Y-68329153D01*
X110611530Y-68221430D01*
X110584805Y-68143042D01*
X110547398Y-68076994D01*
X110527830Y-68048691D01*
X110415634Y-67923467D01*
X110290150Y-67826063D01*
X110274787Y-67817561D01*
X110049777Y-67750433D01*
X109813428Y-67761534D01*
G36*
X107600143Y-68149093D02*
G01*
X107600761Y-68512769D01*
X107603153Y-68792532D01*
X107608329Y-69001784D01*
X107617296Y-69153926D01*
X107631064Y-69262359D01*
X107650639Y-69340485D01*
X107677032Y-69401707D01*
X107697016Y-69436652D01*
X107862517Y-69626157D01*
X108072352Y-69744942D01*
X108304514Y-69787564D01*
X108536992Y-69748583D01*
X108675428Y-69678532D01*
X108820758Y-69557353D01*
X108919805Y-69409354D01*
X108979565Y-69215534D01*
X109007031Y-68956892D01*
X109010921Y-68767146D01*
X109010397Y-68753510D01*
X108670459Y-68753510D01*
X108668383Y-68971096D01*
X108658870Y-69115134D01*
X108636992Y-69209364D01*
X108597824Y-69277523D01*
X108551024Y-69328936D01*
X108393854Y-69428175D01*
X108225100Y-69436653D01*
X108065607Y-69353799D01*
X108053193Y-69342572D01*
X108000209Y-69284171D01*
X107966986Y-69214686D01*
X107949000Y-69111270D01*
X107941725Y-68951073D01*
X107940574Y-68773965D01*
X107943068Y-68551467D01*
X107953392Y-68403037D01*
X107975809Y-68305489D01*
X108014582Y-68235637D01*
X108046374Y-68198539D01*
X108194061Y-68104975D01*
X108364154Y-68093725D01*
X108526508Y-68165190D01*
X108557840Y-68191720D01*
X108611178Y-68250636D01*
X108644469Y-68320837D01*
X108662344Y-68425418D01*
X108669434Y-68587479D01*
X108670459Y-68753510D01*
X109010397Y-68753510D01*
X108999160Y-68461579D01*
X108959213Y-68231993D01*
X108884087Y-68059387D01*
X108766786Y-67924760D01*
X108675428Y-67855759D01*
X108509373Y-67781214D01*
X108316908Y-67746613D01*
X108138001Y-67755875D01*
X108037892Y-67793238D01*
X107998607Y-67803872D01*
X107972539Y-67764225D01*
X107954342Y-67657981D01*
X107940574Y-67496145D01*
X107925501Y-67315902D01*
X107904564Y-67207458D01*
X107866468Y-67145446D01*
X107799915Y-67104499D01*
X107758103Y-67086366D01*
X107599961Y-67020120D01*
X107600143Y-68149093D01*
G37*
X107600143Y-68149093D02*
X107600761Y-68512769D01*
X107603153Y-68792532D01*
X107608329Y-69001784D01*
X107617296Y-69153926D01*
X107631064Y-69262359D01*
X107650639Y-69340485D01*
X107677032Y-69401707D01*
X107697016Y-69436652D01*
X107862517Y-69626157D01*
X108072352Y-69744942D01*
X108304514Y-69787564D01*
X108536992Y-69748583D01*
X108675428Y-69678532D01*
X108820758Y-69557353D01*
X108919805Y-69409354D01*
X108979565Y-69215534D01*
X109007031Y-68956892D01*
X109010921Y-68767146D01*
X109010397Y-68753510D01*
X108670459Y-68753510D01*
X108668383Y-68971096D01*
X108658870Y-69115134D01*
X108636992Y-69209364D01*
X108597824Y-69277523D01*
X108551024Y-69328936D01*
X108393854Y-69428175D01*
X108225100Y-69436653D01*
X108065607Y-69353799D01*
X108053193Y-69342572D01*
X108000209Y-69284171D01*
X107966986Y-69214686D01*
X107949000Y-69111270D01*
X107941725Y-68951073D01*
X107940574Y-68773965D01*
X107943068Y-68551467D01*
X107953392Y-68403037D01*
X107975809Y-68305489D01*
X108014582Y-68235637D01*
X108046374Y-68198539D01*
X108194061Y-68104975D01*
X108364154Y-68093725D01*
X108526508Y-68165190D01*
X108557840Y-68191720D01*
X108611178Y-68250636D01*
X108644469Y-68320837D01*
X108662344Y-68425418D01*
X108669434Y-68587479D01*
X108670459Y-68753510D01*
X109010397Y-68753510D01*
X108999160Y-68461579D01*
X108959213Y-68231993D01*
X108884087Y-68059387D01*
X108766786Y-67924760D01*
X108675428Y-67855759D01*
X108509373Y-67781214D01*
X108316908Y-67746613D01*
X108138001Y-67755875D01*
X108037892Y-67793238D01*
X107998607Y-67803872D01*
X107972539Y-67764225D01*
X107954342Y-67657981D01*
X107940574Y-67496145D01*
X107925501Y-67315902D01*
X107904564Y-67207458D01*
X107866468Y-67145446D01*
X107799915Y-67104499D01*
X107758103Y-67086366D01*
X107599961Y-67020120D01*
X107600143Y-68149093D01*
G36*
X105623127Y-67791400D02*
G01*
X105615701Y-67919422D01*
X105609882Y-68113985D01*
X105606141Y-68359702D01*
X105604942Y-68617426D01*
X105604942Y-69489545D01*
X105758925Y-69643528D01*
X105865037Y-69738412D01*
X105958184Y-69776845D01*
X106085496Y-69774413D01*
X106136032Y-69768223D01*
X106293983Y-69750210D01*
X106424629Y-69739888D01*
X106456475Y-69738935D01*
X106563834Y-69745171D01*
X106717381Y-69760824D01*
X106776917Y-69768223D01*
X106923143Y-69779668D01*
X107021411Y-69754808D01*
X107118850Y-69678058D01*
X107154024Y-69643528D01*
X107308007Y-69489545D01*
X107308007Y-67858246D01*
X107184070Y-67801776D01*
X107077350Y-67759950D01*
X107014913Y-67745307D01*
X106998904Y-67791583D01*
X106983942Y-67920884D01*
X106971022Y-68118914D01*
X106961143Y-68371380D01*
X106956378Y-68584675D01*
X106943065Y-69424042D01*
X106826920Y-69440464D01*
X106721284Y-69428982D01*
X106669523Y-69391805D01*
X106655055Y-69322298D01*
X106642702Y-69174240D01*
X106633448Y-68966391D01*
X106628272Y-68717512D01*
X106627526Y-68589435D01*
X106626781Y-67852145D01*
X106473543Y-67798726D01*
X106365084Y-67762406D01*
X106306087Y-67745468D01*
X106304386Y-67745307D01*
X106298467Y-67791349D01*
X106291961Y-67919018D01*
X106285414Y-68112632D01*
X106279373Y-68356507D01*
X106275152Y-68584675D01*
X106261839Y-69424042D01*
X105969885Y-69424042D01*
X105956487Y-68658275D01*
X105943090Y-67892508D01*
X105800762Y-67818908D01*
X105695678Y-67768366D01*
X105633483Y-67745431D01*
X105631688Y-67745307D01*
X105623127Y-67791400D01*
G37*
X105623127Y-67791400D02*
X105615701Y-67919422D01*
X105609882Y-68113985D01*
X105606141Y-68359702D01*
X105604942Y-68617426D01*
X105604942Y-69489545D01*
X105758925Y-69643528D01*
X105865037Y-69738412D01*
X105958184Y-69776845D01*
X106085496Y-69774413D01*
X106136032Y-69768223D01*
X106293983Y-69750210D01*
X106424629Y-69739888D01*
X106456475Y-69738935D01*
X106563834Y-69745171D01*
X106717381Y-69760824D01*
X106776917Y-69768223D01*
X106923143Y-69779668D01*
X107021411Y-69754808D01*
X107118850Y-69678058D01*
X107154024Y-69643528D01*
X107308007Y-69489545D01*
X107308007Y-67858246D01*
X107184070Y-67801776D01*
X107077350Y-67759950D01*
X107014913Y-67745307D01*
X106998904Y-67791583D01*
X106983942Y-67920884D01*
X106971022Y-68118914D01*
X106961143Y-68371380D01*
X106956378Y-68584675D01*
X106943065Y-69424042D01*
X106826920Y-69440464D01*
X106721284Y-69428982D01*
X106669523Y-69391805D01*
X106655055Y-69322298D01*
X106642702Y-69174240D01*
X106633448Y-68966391D01*
X106628272Y-68717512D01*
X106627526Y-68589435D01*
X106626781Y-67852145D01*
X106473543Y-67798726D01*
X106365084Y-67762406D01*
X106306087Y-67745468D01*
X106304386Y-67745307D01*
X106298467Y-67791349D01*
X106291961Y-67919018D01*
X106285414Y-68112632D01*
X106279373Y-68356507D01*
X106275152Y-68584675D01*
X106261839Y-69424042D01*
X105969885Y-69424042D01*
X105956487Y-68658275D01*
X105943090Y-67892508D01*
X105800762Y-67818908D01*
X105695678Y-67768366D01*
X105633483Y-67745431D01*
X105631688Y-67745307D01*
X105623127Y-67791400D01*
G36*
X104399322Y-67783594D02*
G01*
X104259218Y-67847323D01*
X104149250Y-67924543D01*
X104068676Y-68010887D01*
X104013046Y-68122272D01*
X103977911Y-68274616D01*
X103958821Y-68483835D01*
X103951328Y-68765846D01*
X103950536Y-68951555D01*
X103950536Y-69676046D01*
X104074473Y-69732515D01*
X104172090Y-69773787D01*
X104220450Y-69788985D01*
X104229702Y-69743762D01*
X104237042Y-69621824D01*
X104241536Y-69443772D01*
X104242490Y-69302395D01*
X104246590Y-69098146D01*
X104257646Y-68936113D01*
X104273789Y-68836891D01*
X104286613Y-68815805D01*
X104372814Y-68837338D01*
X104508138Y-68892566D01*
X104664830Y-68967436D01*
X104815137Y-69047892D01*
X104931307Y-69119880D01*
X104985587Y-69169346D01*
X104985802Y-69169881D01*
X104981133Y-69261428D01*
X104939268Y-69348820D01*
X104865765Y-69419802D01*
X104758484Y-69443543D01*
X104666798Y-69440777D01*
X104536942Y-69438741D01*
X104468779Y-69469164D01*
X104427841Y-69549543D01*
X104422679Y-69564700D01*
X104404933Y-69679331D01*
X104452391Y-69748934D01*
X104576093Y-69782105D01*
X104709719Y-69788240D01*
X104950183Y-69742763D01*
X105074662Y-69677817D01*
X105228395Y-69525246D01*
X105309927Y-69337971D01*
X105317244Y-69140085D01*
X105248331Y-68955685D01*
X105144672Y-68840134D01*
X105041177Y-68775442D01*
X104878508Y-68693542D01*
X104688946Y-68610486D01*
X104657350Y-68597795D01*
X104449131Y-68505908D01*
X104329102Y-68424923D01*
X104290499Y-68344413D01*
X104326560Y-68253950D01*
X104388467Y-68183238D01*
X104534787Y-68096170D01*
X104695783Y-68089640D01*
X104843427Y-68156735D01*
X104949690Y-68290544D01*
X104963638Y-68325067D01*
X105044840Y-68452042D01*
X105163392Y-68546309D01*
X105312988Y-68623668D01*
X105312988Y-68404307D01*
X105304183Y-68270280D01*
X105266430Y-68164644D01*
X105182721Y-68051939D01*
X105102364Y-67965127D01*
X104977409Y-67842204D01*
X104880323Y-67776171D01*
X104776046Y-67749684D01*
X104658011Y-67745307D01*
X104399322Y-67783594D01*
G37*
X104399322Y-67783594D02*
X104259218Y-67847323D01*
X104149250Y-67924543D01*
X104068676Y-68010887D01*
X104013046Y-68122272D01*
X103977911Y-68274616D01*
X103958821Y-68483835D01*
X103951328Y-68765846D01*
X103950536Y-68951555D01*
X103950536Y-69676046D01*
X104074473Y-69732515D01*
X104172090Y-69773787D01*
X104220450Y-69788985D01*
X104229702Y-69743762D01*
X104237042Y-69621824D01*
X104241536Y-69443772D01*
X104242490Y-69302395D01*
X104246590Y-69098146D01*
X104257646Y-68936113D01*
X104273789Y-68836891D01*
X104286613Y-68815805D01*
X104372814Y-68837338D01*
X104508138Y-68892566D01*
X104664830Y-68967436D01*
X104815137Y-69047892D01*
X104931307Y-69119880D01*
X104985587Y-69169346D01*
X104985802Y-69169881D01*
X104981133Y-69261428D01*
X104939268Y-69348820D01*
X104865765Y-69419802D01*
X104758484Y-69443543D01*
X104666798Y-69440777D01*
X104536942Y-69438741D01*
X104468779Y-69469164D01*
X104427841Y-69549543D01*
X104422679Y-69564700D01*
X104404933Y-69679331D01*
X104452391Y-69748934D01*
X104576093Y-69782105D01*
X104709719Y-69788240D01*
X104950183Y-69742763D01*
X105074662Y-69677817D01*
X105228395Y-69525246D01*
X105309927Y-69337971D01*
X105317244Y-69140085D01*
X105248331Y-68955685D01*
X105144672Y-68840134D01*
X105041177Y-68775442D01*
X104878508Y-68693542D01*
X104688946Y-68610486D01*
X104657350Y-68597795D01*
X104449131Y-68505908D01*
X104329102Y-68424923D01*
X104290499Y-68344413D01*
X104326560Y-68253950D01*
X104388467Y-68183238D01*
X104534787Y-68096170D01*
X104695783Y-68089640D01*
X104843427Y-68156735D01*
X104949690Y-68290544D01*
X104963638Y-68325067D01*
X105044840Y-68452042D01*
X105163392Y-68546309D01*
X105312988Y-68623668D01*
X105312988Y-68404307D01*
X105304183Y-68270280D01*
X105266430Y-68164644D01*
X105182721Y-68051939D01*
X105102364Y-67965127D01*
X104977409Y-67842204D01*
X104880323Y-67776171D01*
X104776046Y-67749684D01*
X104658011Y-67745307D01*
X104399322Y-67783594D01*
G36*
X102697184Y-67791697D02*
G01*
X102639024Y-67817116D01*
X102500205Y-67927059D01*
X102381495Y-68086030D01*
X102308079Y-68255677D01*
X102296130Y-68339313D01*
X102336191Y-68456078D01*
X102424065Y-68517862D01*
X102518282Y-68555273D01*
X102561423Y-68562167D01*
X102582429Y-68512138D01*
X102623910Y-68403269D01*
X102642108Y-68354076D01*
X102744152Y-68183913D01*
X102891897Y-68099038D01*
X103081345Y-68101648D01*
X103095377Y-68104991D01*
X103196519Y-68152945D01*
X103270876Y-68246432D01*
X103321662Y-68396939D01*
X103352092Y-68615951D01*
X103365382Y-68914956D01*
X103366628Y-69074056D01*
X103367246Y-69324855D01*
X103371295Y-69495825D01*
X103382067Y-69604454D01*
X103402853Y-69668230D01*
X103436945Y-69704643D01*
X103487635Y-69731179D01*
X103490565Y-69732515D01*
X103588182Y-69773787D01*
X103636542Y-69788985D01*
X103643973Y-69743037D01*
X103650334Y-69616034D01*
X103655168Y-69424235D01*
X103658015Y-69183902D01*
X103658582Y-69008024D01*
X103655687Y-68667688D01*
X103644363Y-68409495D01*
X103620654Y-68218374D01*
X103580603Y-68079253D01*
X103520253Y-67977060D01*
X103435647Y-67896724D01*
X103352101Y-67840655D01*
X103151209Y-67766032D01*
X102917404Y-67749202D01*
X102697184Y-67791697D01*
G37*
X102697184Y-67791697D02*
X102639024Y-67817116D01*
X102500205Y-67927059D01*
X102381495Y-68086030D01*
X102308079Y-68255677D01*
X102296130Y-68339313D01*
X102336191Y-68456078D01*
X102424065Y-68517862D01*
X102518282Y-68555273D01*
X102561423Y-68562167D01*
X102582429Y-68512138D01*
X102623910Y-68403269D01*
X102642108Y-68354076D01*
X102744152Y-68183913D01*
X102891897Y-68099038D01*
X103081345Y-68101648D01*
X103095377Y-68104991D01*
X103196519Y-68152945D01*
X103270876Y-68246432D01*
X103321662Y-68396939D01*
X103352092Y-68615951D01*
X103365382Y-68914956D01*
X103366628Y-69074056D01*
X103367246Y-69324855D01*
X103371295Y-69495825D01*
X103382067Y-69604454D01*
X103402853Y-69668230D01*
X103436945Y-69704643D01*
X103487635Y-69731179D01*
X103490565Y-69732515D01*
X103588182Y-69773787D01*
X103636542Y-69788985D01*
X103643973Y-69743037D01*
X103650334Y-69616034D01*
X103655168Y-69424235D01*
X103658015Y-69183902D01*
X103658582Y-69008024D01*
X103655687Y-68667688D01*
X103644363Y-68409495D01*
X103620654Y-68218374D01*
X103580603Y-68079253D01*
X103520253Y-67977060D01*
X103435647Y-67896724D01*
X103352101Y-67840655D01*
X103151209Y-67766032D01*
X102917404Y-67749202D01*
X102697184Y-67791697D01*
G36*
X101017601Y-67819233D02*
G01*
X100825083Y-67945057D01*
X100732226Y-68057696D01*
X100658660Y-68262092D01*
X100652817Y-68423830D01*
X100666053Y-68640094D01*
X101164808Y-68858398D01*
X101407315Y-68969930D01*
X101565771Y-69059650D01*
X101648164Y-69137361D01*
X101662482Y-69212867D01*
X101616713Y-69295971D01*
X101566245Y-69351054D01*
X101419395Y-69439389D01*
X101259672Y-69445579D01*
X101112980Y-69376735D01*
X101005219Y-69239972D01*
X100985945Y-69191680D01*
X100893624Y-69040848D01*
X100787412Y-68976567D01*
X100641724Y-68921576D01*
X100641724Y-69130057D01*
X100654604Y-69271926D01*
X100705057Y-69391563D01*
X100810803Y-69528927D01*
X100826520Y-69546777D01*
X100944145Y-69668986D01*
X101045254Y-69734570D01*
X101171750Y-69764742D01*
X101276616Y-69774623D01*
X101464189Y-69777085D01*
X101597716Y-69745892D01*
X101681017Y-69699579D01*
X101811937Y-69597735D01*
X101902561Y-69487591D01*
X101959913Y-69349069D01*
X101991020Y-69162090D01*
X102002906Y-68906577D01*
X102003855Y-68776894D01*
X102000629Y-68621421D01*
X101706834Y-68621421D01*
X101703427Y-68704827D01*
X101694934Y-68718487D01*
X101638890Y-68699931D01*
X101518282Y-68650822D01*
X101357087Y-68581002D01*
X101323378Y-68565995D01*
X101119661Y-68462404D01*
X101007421Y-68371359D01*
X100982753Y-68286081D01*
X101041755Y-68199794D01*
X101090482Y-68161667D01*
X101266306Y-68085417D01*
X101430873Y-68098014D01*
X101568646Y-68191086D01*
X101664087Y-68356256D01*
X101694686Y-68487357D01*
X101706834Y-68621421D01*
X102000629Y-68621421D01*
X101997568Y-68473919D01*
X101974401Y-68249756D01*
X101928510Y-68086526D01*
X101854046Y-67966352D01*
X101745164Y-67871355D01*
X101697695Y-67840655D01*
X101482062Y-67760703D01*
X101245979Y-67755672D01*
X101017601Y-67819233D01*
G37*
X101017601Y-67819233D02*
X100825083Y-67945057D01*
X100732226Y-68057696D01*
X100658660Y-68262092D01*
X100652817Y-68423830D01*
X100666053Y-68640094D01*
X101164808Y-68858398D01*
X101407315Y-68969930D01*
X101565771Y-69059650D01*
X101648164Y-69137361D01*
X101662482Y-69212867D01*
X101616713Y-69295971D01*
X101566245Y-69351054D01*
X101419395Y-69439389D01*
X101259672Y-69445579D01*
X101112980Y-69376735D01*
X101005219Y-69239972D01*
X100985945Y-69191680D01*
X100893624Y-69040848D01*
X100787412Y-68976567D01*
X100641724Y-68921576D01*
X100641724Y-69130057D01*
X100654604Y-69271926D01*
X100705057Y-69391563D01*
X100810803Y-69528927D01*
X100826520Y-69546777D01*
X100944145Y-69668986D01*
X101045254Y-69734570D01*
X101171750Y-69764742D01*
X101276616Y-69774623D01*
X101464189Y-69777085D01*
X101597716Y-69745892D01*
X101681017Y-69699579D01*
X101811937Y-69597735D01*
X101902561Y-69487591D01*
X101959913Y-69349069D01*
X101991020Y-69162090D01*
X102002906Y-68906577D01*
X102003855Y-68776894D01*
X102000629Y-68621421D01*
X101706834Y-68621421D01*
X101703427Y-68704827D01*
X101694934Y-68718487D01*
X101638890Y-68699931D01*
X101518282Y-68650822D01*
X101357087Y-68581002D01*
X101323378Y-68565995D01*
X101119661Y-68462404D01*
X101007421Y-68371359D01*
X100982753Y-68286081D01*
X101041755Y-68199794D01*
X101090482Y-68161667D01*
X101266306Y-68085417D01*
X101430873Y-68098014D01*
X101568646Y-68191086D01*
X101664087Y-68356256D01*
X101694686Y-68487357D01*
X101706834Y-68621421D01*
X102000629Y-68621421D01*
X101997568Y-68473919D01*
X101974401Y-68249756D01*
X101928510Y-68086526D01*
X101854046Y-67966352D01*
X101745164Y-67871355D01*
X101697695Y-67840655D01*
X101482062Y-67760703D01*
X101245979Y-67755672D01*
X101017601Y-67819233D01*
G36*
X111241643Y-51979997D02*
G01*
X110978323Y-51981439D01*
X110787754Y-51985342D01*
X110657655Y-51992937D01*
X110575743Y-52005450D01*
X110529734Y-52024111D01*
X110507347Y-52050148D01*
X110496298Y-52084788D01*
X110495224Y-52089272D01*
X110478441Y-52170189D01*
X110447375Y-52329842D01*
X110405258Y-52551238D01*
X110355321Y-52817385D01*
X110300797Y-53111290D01*
X110298893Y-53121612D01*
X110244277Y-53409636D01*
X110193178Y-53664115D01*
X110148894Y-53869785D01*
X110114721Y-54011385D01*
X110093957Y-54073650D01*
X110092967Y-54074753D01*
X110031801Y-54105159D01*
X109905690Y-54155828D01*
X109741869Y-54215822D01*
X109740957Y-54216142D01*
X109534612Y-54293704D01*
X109291340Y-54392507D01*
X109062031Y-54491848D01*
X109051178Y-54496760D01*
X108677683Y-54666276D01*
X107850635Y-54101495D01*
X107596923Y-53929320D01*
X107367098Y-53775395D01*
X107174475Y-53648474D01*
X107032368Y-53557309D01*
X106954093Y-53510655D01*
X106946660Y-53507195D01*
X106889776Y-53522600D01*
X106783531Y-53596927D01*
X106623781Y-53733681D01*
X106406384Y-53936368D01*
X106184452Y-54152008D01*
X105970509Y-54364503D01*
X105779031Y-54558410D01*
X105621545Y-54721754D01*
X105509578Y-54842561D01*
X105454657Y-54908855D01*
X105452614Y-54912268D01*
X105446542Y-54957761D01*
X105469416Y-55032056D01*
X105526885Y-55145186D01*
X105624601Y-55307185D01*
X105768216Y-55528086D01*
X105959667Y-55812460D01*
X106129577Y-56062759D01*
X106281462Y-56287250D01*
X106406545Y-56472900D01*
X106496051Y-56606675D01*
X106541200Y-56675542D01*
X106544042Y-56680218D01*
X106538530Y-56746201D01*
X106496745Y-56874448D01*
X106427003Y-57040720D01*
X106402146Y-57093819D01*
X106293689Y-57330377D01*
X106177980Y-57598789D01*
X106083985Y-57831035D01*
X106016255Y-58003407D01*
X105962457Y-58134403D01*
X105931369Y-58202867D01*
X105927504Y-58208142D01*
X105870329Y-58216880D01*
X105735552Y-58240823D01*
X105541094Y-58276562D01*
X105304875Y-58320689D01*
X105044816Y-58369795D01*
X104778837Y-58420472D01*
X104524857Y-58469313D01*
X104300799Y-58512909D01*
X104124580Y-58547851D01*
X104014123Y-58570732D01*
X103987030Y-58577201D01*
X103959044Y-58593167D01*
X103937919Y-58629227D01*
X103922703Y-58697552D01*
X103912447Y-58810315D01*
X103906200Y-58979686D01*
X103903012Y-59217838D01*
X103901933Y-59536942D01*
X103901877Y-59667741D01*
X103901877Y-60731511D01*
X104157337Y-60781933D01*
X104299463Y-60809273D01*
X104511550Y-60849182D01*
X104767807Y-60896845D01*
X105042442Y-60947446D01*
X105118352Y-60961344D01*
X105371779Y-61010617D01*
X105592553Y-61059070D01*
X105762143Y-61102215D01*
X105862020Y-61135563D01*
X105878657Y-61145502D01*
X105919511Y-61215891D01*
X105978087Y-61352283D01*
X106043045Y-61527805D01*
X106055929Y-61565613D01*
X106141066Y-61800030D01*
X106246744Y-62064524D01*
X106350160Y-62302041D01*
X106350670Y-62303144D01*
X106522888Y-62675733D01*
X105956476Y-63508893D01*
X105390065Y-64342053D01*
X106117298Y-65070500D01*
X106337252Y-65287302D01*
X106537868Y-65478414D01*
X106707878Y-65633636D01*
X106836015Y-65742764D01*
X106911011Y-65795595D01*
X106921769Y-65798947D01*
X106984933Y-65772549D01*
X107113820Y-65699160D01*
X107294351Y-65587484D01*
X107512446Y-65446224D01*
X107748246Y-65288027D01*
X107987564Y-65126664D01*
X108200941Y-64986252D01*
X108374825Y-64875431D01*
X108495666Y-64802838D01*
X108549737Y-64777108D01*
X108615706Y-64798880D01*
X108740802Y-64856251D01*
X108899220Y-64937300D01*
X108916013Y-64946309D01*
X109129348Y-65053300D01*
X109275636Y-65105772D01*
X109366620Y-65106330D01*
X109414041Y-65057580D01*
X109414317Y-65056897D01*
X109438020Y-64999164D01*
X109494551Y-64862115D01*
X109579526Y-64656357D01*
X109688562Y-64392498D01*
X109817276Y-64081144D01*
X109961285Y-63732904D01*
X110100749Y-63395744D01*
X110254020Y-63023666D01*
X110394749Y-62678987D01*
X110518718Y-62372271D01*
X110621709Y-62114085D01*
X110699504Y-61914994D01*
X110747886Y-61785565D01*
X110762796Y-61737261D01*
X110725406Y-61681850D01*
X110627602Y-61593538D01*
X110497185Y-61496174D01*
X110125777Y-61188253D01*
X109835470Y-60835304D01*
X109629744Y-60444761D01*
X109512077Y-60024057D01*
X109485949Y-59580629D01*
X109504940Y-59375958D01*
X109608417Y-58951323D01*
X109786627Y-58576336D01*
X110028518Y-58254696D01*
X110323037Y-57990101D01*
X110659129Y-57786250D01*
X111025742Y-57646842D01*
X111411823Y-57575574D01*
X111806319Y-57576145D01*
X112198175Y-57652254D01*
X112576340Y-57807599D01*
X112929760Y-58045879D01*
X113077273Y-58180639D01*
X113360184Y-58526679D01*
X113557168Y-58904826D01*
X113669536Y-59304055D01*
X113698599Y-59713345D01*
X113645669Y-60121672D01*
X113512057Y-60518013D01*
X113299075Y-60891345D01*
X113008034Y-61230645D01*
X112682814Y-61496174D01*
X112547348Y-61597671D01*
X112451651Y-61685025D01*
X112417203Y-61737343D01*
X112435240Y-61794398D01*
X112486538Y-61930698D01*
X112566876Y-62135678D01*
X112672036Y-62398772D01*
X112797796Y-62709416D01*
X112939937Y-63057043D01*
X113079635Y-63395826D01*
X113233759Y-63768222D01*
X113376518Y-64113307D01*
X113503529Y-64420477D01*
X113610411Y-64679125D01*
X113692780Y-64878647D01*
X113746253Y-65008435D01*
X113766067Y-65056897D01*
X113812876Y-65106129D01*
X113903417Y-65105985D01*
X114049342Y-65053877D01*
X114262302Y-64947216D01*
X114263986Y-64946309D01*
X114424330Y-64863536D01*
X114553948Y-64803242D01*
X114627037Y-64777346D01*
X114630263Y-64777108D01*
X114685284Y-64803374D01*
X114806757Y-64876416D01*
X114981129Y-64987595D01*
X115194850Y-65128273D01*
X115431753Y-65288027D01*
X115672945Y-65449779D01*
X115890326Y-65590450D01*
X116069816Y-65701335D01*
X116197336Y-65773730D01*
X116258230Y-65798947D01*
X116314303Y-65765803D01*
X116427040Y-65673173D01*
X116585177Y-65531257D01*
X116777449Y-65350255D01*
X116992591Y-65140369D01*
X117062952Y-65070249D01*
X117790434Y-64341552D01*
X117236705Y-63528900D01*
X117068423Y-63279342D01*
X116920729Y-63055366D01*
X116801910Y-62869949D01*
X116720250Y-62736065D01*
X116684036Y-62666690D01*
X116682975Y-62661755D01*
X116702067Y-62596364D01*
X116753418Y-62464825D01*
X116828140Y-62289181D01*
X116880588Y-62171591D01*
X116978654Y-61946461D01*
X117071007Y-61719015D01*
X117142606Y-61526839D01*
X117162056Y-61468295D01*
X117217314Y-61311956D01*
X117271331Y-61191158D01*
X117301001Y-61145502D01*
X117366476Y-61117561D01*
X117509376Y-61077951D01*
X117711161Y-61031162D01*
X117953288Y-60981683D01*
X118061647Y-60961344D01*
X118336811Y-60910781D01*
X118600746Y-60861822D01*
X118827659Y-60819281D01*
X118991761Y-60787975D01*
X119022662Y-60781933D01*
X119278122Y-60731511D01*
X119278122Y-59667741D01*
X119277548Y-59317950D01*
X119275193Y-59053300D01*
X119270107Y-58861622D01*
X119261339Y-58730744D01*
X119247938Y-58648493D01*
X119228954Y-58602698D01*
X119203438Y-58581188D01*
X119192969Y-58577201D01*
X119129826Y-58563056D01*
X118990325Y-58534834D01*
X118792389Y-58495943D01*
X118553935Y-58449792D01*
X118292886Y-58399788D01*
X118027161Y-58349341D01*
X117774681Y-58301858D01*
X117553365Y-58260748D01*
X117381134Y-58229419D01*
X117275908Y-58211278D01*
X117252495Y-58208142D01*
X117231284Y-58166173D01*
X117184332Y-58054370D01*
X117120419Y-57893888D01*
X117096014Y-57831035D01*
X116997580Y-57588203D01*
X116881666Y-57319918D01*
X116777853Y-57093819D01*
X116701465Y-56920935D01*
X116650644Y-56778877D01*
X116633679Y-56691878D01*
X116636384Y-56680218D01*
X116672239Y-56625170D01*
X116754108Y-56502739D01*
X116873205Y-56325962D01*
X117020742Y-56107877D01*
X117187931Y-55861520D01*
X117220990Y-55812891D01*
X117414980Y-55524773D01*
X117557579Y-55305377D01*
X117654473Y-55144602D01*
X117711346Y-55032346D01*
X117733884Y-54958510D01*
X117727772Y-54912990D01*
X117727616Y-54912700D01*
X117679511Y-54852910D01*
X117573111Y-54737319D01*
X117419948Y-54577909D01*
X117231555Y-54386665D01*
X117019465Y-54175568D01*
X116995547Y-54152008D01*
X116728262Y-53893172D01*
X116521992Y-53703117D01*
X116372592Y-53578337D01*
X116275920Y-53515327D01*
X116233339Y-53507195D01*
X116171196Y-53542672D01*
X116042237Y-53624623D01*
X115859778Y-53744292D01*
X115637133Y-53892926D01*
X115387616Y-54061772D01*
X115329364Y-54101495D01*
X114502316Y-54666276D01*
X114128821Y-54496760D01*
X113901684Y-54397971D01*
X113657872Y-54298617D01*
X113448275Y-54219401D01*
X113439042Y-54216142D01*
X113275095Y-54156129D01*
X113148715Y-54105382D01*
X113087137Y-54074841D01*
X113087032Y-54074753D01*
X113067493Y-54019548D01*
X113034279Y-53883779D01*
X112990687Y-53682709D01*
X112940016Y-53431599D01*
X112885561Y-53145713D01*
X112881106Y-53121612D01*
X112826482Y-52827059D01*
X112776336Y-52559684D01*
X112733898Y-52336480D01*
X112702402Y-52174439D01*
X112685077Y-52090553D01*
X112684775Y-52089272D01*
X112674232Y-52053588D01*
X112653731Y-52026646D01*
X112610989Y-52007218D01*
X112533724Y-51994075D01*
X112409652Y-51985989D01*
X112226491Y-51981732D01*
X111971958Y-51980075D01*
X111633769Y-51979790D01*
X111590000Y-51979790D01*
X111241643Y-51979997D01*
G37*
X111241643Y-51979997D02*
X110978323Y-51981439D01*
X110787754Y-51985342D01*
X110657655Y-51992937D01*
X110575743Y-52005450D01*
X110529734Y-52024111D01*
X110507347Y-52050148D01*
X110496298Y-52084788D01*
X110495224Y-52089272D01*
X110478441Y-52170189D01*
X110447375Y-52329842D01*
X110405258Y-52551238D01*
X110355321Y-52817385D01*
X110300797Y-53111290D01*
X110298893Y-53121612D01*
X110244277Y-53409636D01*
X110193178Y-53664115D01*
X110148894Y-53869785D01*
X110114721Y-54011385D01*
X110093957Y-54073650D01*
X110092967Y-54074753D01*
X110031801Y-54105159D01*
X109905690Y-54155828D01*
X109741869Y-54215822D01*
X109740957Y-54216142D01*
X109534612Y-54293704D01*
X109291340Y-54392507D01*
X109062031Y-54491848D01*
X109051178Y-54496760D01*
X108677683Y-54666276D01*
X107850635Y-54101495D01*
X107596923Y-53929320D01*
X107367098Y-53775395D01*
X107174475Y-53648474D01*
X107032368Y-53557309D01*
X106954093Y-53510655D01*
X106946660Y-53507195D01*
X106889776Y-53522600D01*
X106783531Y-53596927D01*
X106623781Y-53733681D01*
X106406384Y-53936368D01*
X106184452Y-54152008D01*
X105970509Y-54364503D01*
X105779031Y-54558410D01*
X105621545Y-54721754D01*
X105509578Y-54842561D01*
X105454657Y-54908855D01*
X105452614Y-54912268D01*
X105446542Y-54957761D01*
X105469416Y-55032056D01*
X105526885Y-55145186D01*
X105624601Y-55307185D01*
X105768216Y-55528086D01*
X105959667Y-55812460D01*
X106129577Y-56062759D01*
X106281462Y-56287250D01*
X106406545Y-56472900D01*
X106496051Y-56606675D01*
X106541200Y-56675542D01*
X106544042Y-56680218D01*
X106538530Y-56746201D01*
X106496745Y-56874448D01*
X106427003Y-57040720D01*
X106402146Y-57093819D01*
X106293689Y-57330377D01*
X106177980Y-57598789D01*
X106083985Y-57831035D01*
X106016255Y-58003407D01*
X105962457Y-58134403D01*
X105931369Y-58202867D01*
X105927504Y-58208142D01*
X105870329Y-58216880D01*
X105735552Y-58240823D01*
X105541094Y-58276562D01*
X105304875Y-58320689D01*
X105044816Y-58369795D01*
X104778837Y-58420472D01*
X104524857Y-58469313D01*
X104300799Y-58512909D01*
X104124580Y-58547851D01*
X104014123Y-58570732D01*
X103987030Y-58577201D01*
X103959044Y-58593167D01*
X103937919Y-58629227D01*
X103922703Y-58697552D01*
X103912447Y-58810315D01*
X103906200Y-58979686D01*
X103903012Y-59217838D01*
X103901933Y-59536942D01*
X103901877Y-59667741D01*
X103901877Y-60731511D01*
X104157337Y-60781933D01*
X104299463Y-60809273D01*
X104511550Y-60849182D01*
X104767807Y-60896845D01*
X105042442Y-60947446D01*
X105118352Y-60961344D01*
X105371779Y-61010617D01*
X105592553Y-61059070D01*
X105762143Y-61102215D01*
X105862020Y-61135563D01*
X105878657Y-61145502D01*
X105919511Y-61215891D01*
X105978087Y-61352283D01*
X106043045Y-61527805D01*
X106055929Y-61565613D01*
X106141066Y-61800030D01*
X106246744Y-62064524D01*
X106350160Y-62302041D01*
X106350670Y-62303144D01*
X106522888Y-62675733D01*
X105956476Y-63508893D01*
X105390065Y-64342053D01*
X106117298Y-65070500D01*
X106337252Y-65287302D01*
X106537868Y-65478414D01*
X106707878Y-65633636D01*
X106836015Y-65742764D01*
X106911011Y-65795595D01*
X106921769Y-65798947D01*
X106984933Y-65772549D01*
X107113820Y-65699160D01*
X107294351Y-65587484D01*
X107512446Y-65446224D01*
X107748246Y-65288027D01*
X107987564Y-65126664D01*
X108200941Y-64986252D01*
X108374825Y-64875431D01*
X108495666Y-64802838D01*
X108549737Y-64777108D01*
X108615706Y-64798880D01*
X108740802Y-64856251D01*
X108899220Y-64937300D01*
X108916013Y-64946309D01*
X109129348Y-65053300D01*
X109275636Y-65105772D01*
X109366620Y-65106330D01*
X109414041Y-65057580D01*
X109414317Y-65056897D01*
X109438020Y-64999164D01*
X109494551Y-64862115D01*
X109579526Y-64656357D01*
X109688562Y-64392498D01*
X109817276Y-64081144D01*
X109961285Y-63732904D01*
X110100749Y-63395744D01*
X110254020Y-63023666D01*
X110394749Y-62678987D01*
X110518718Y-62372271D01*
X110621709Y-62114085D01*
X110699504Y-61914994D01*
X110747886Y-61785565D01*
X110762796Y-61737261D01*
X110725406Y-61681850D01*
X110627602Y-61593538D01*
X110497185Y-61496174D01*
X110125777Y-61188253D01*
X109835470Y-60835304D01*
X109629744Y-60444761D01*
X109512077Y-60024057D01*
X109485949Y-59580629D01*
X109504940Y-59375958D01*
X109608417Y-58951323D01*
X109786627Y-58576336D01*
X110028518Y-58254696D01*
X110323037Y-57990101D01*
X110659129Y-57786250D01*
X111025742Y-57646842D01*
X111411823Y-57575574D01*
X111806319Y-57576145D01*
X112198175Y-57652254D01*
X112576340Y-57807599D01*
X112929760Y-58045879D01*
X113077273Y-58180639D01*
X113360184Y-58526679D01*
X113557168Y-58904826D01*
X113669536Y-59304055D01*
X113698599Y-59713345D01*
X113645669Y-60121672D01*
X113512057Y-60518013D01*
X113299075Y-60891345D01*
X113008034Y-61230645D01*
X112682814Y-61496174D01*
X112547348Y-61597671D01*
X112451651Y-61685025D01*
X112417203Y-61737343D01*
X112435240Y-61794398D01*
X112486538Y-61930698D01*
X112566876Y-62135678D01*
X112672036Y-62398772D01*
X112797796Y-62709416D01*
X112939937Y-63057043D01*
X113079635Y-63395826D01*
X113233759Y-63768222D01*
X113376518Y-64113307D01*
X113503529Y-64420477D01*
X113610411Y-64679125D01*
X113692780Y-64878647D01*
X113746253Y-65008435D01*
X113766067Y-65056897D01*
X113812876Y-65106129D01*
X113903417Y-65105985D01*
X114049342Y-65053877D01*
X114262302Y-64947216D01*
X114263986Y-64946309D01*
X114424330Y-64863536D01*
X114553948Y-64803242D01*
X114627037Y-64777346D01*
X114630263Y-64777108D01*
X114685284Y-64803374D01*
X114806757Y-64876416D01*
X114981129Y-64987595D01*
X115194850Y-65128273D01*
X115431753Y-65288027D01*
X115672945Y-65449779D01*
X115890326Y-65590450D01*
X116069816Y-65701335D01*
X116197336Y-65773730D01*
X116258230Y-65798947D01*
X116314303Y-65765803D01*
X116427040Y-65673173D01*
X116585177Y-65531257D01*
X116777449Y-65350255D01*
X116992591Y-65140369D01*
X117062952Y-65070249D01*
X117790434Y-64341552D01*
X117236705Y-63528900D01*
X117068423Y-63279342D01*
X116920729Y-63055366D01*
X116801910Y-62869949D01*
X116720250Y-62736065D01*
X116684036Y-62666690D01*
X116682975Y-62661755D01*
X116702067Y-62596364D01*
X116753418Y-62464825D01*
X116828140Y-62289181D01*
X116880588Y-62171591D01*
X116978654Y-61946461D01*
X117071007Y-61719015D01*
X117142606Y-61526839D01*
X117162056Y-61468295D01*
X117217314Y-61311956D01*
X117271331Y-61191158D01*
X117301001Y-61145502D01*
X117366476Y-61117561D01*
X117509376Y-61077951D01*
X117711161Y-61031162D01*
X117953288Y-60981683D01*
X118061647Y-60961344D01*
X118336811Y-60910781D01*
X118600746Y-60861822D01*
X118827659Y-60819281D01*
X118991761Y-60787975D01*
X119022662Y-60781933D01*
X119278122Y-60731511D01*
X119278122Y-59667741D01*
X119277548Y-59317950D01*
X119275193Y-59053300D01*
X119270107Y-58861622D01*
X119261339Y-58730744D01*
X119247938Y-58648493D01*
X119228954Y-58602698D01*
X119203438Y-58581188D01*
X119192969Y-58577201D01*
X119129826Y-58563056D01*
X118990325Y-58534834D01*
X118792389Y-58495943D01*
X118553935Y-58449792D01*
X118292886Y-58399788D01*
X118027161Y-58349341D01*
X117774681Y-58301858D01*
X117553365Y-58260748D01*
X117381134Y-58229419D01*
X117275908Y-58211278D01*
X117252495Y-58208142D01*
X117231284Y-58166173D01*
X117184332Y-58054370D01*
X117120419Y-57893888D01*
X117096014Y-57831035D01*
X116997580Y-57588203D01*
X116881666Y-57319918D01*
X116777853Y-57093819D01*
X116701465Y-56920935D01*
X116650644Y-56778877D01*
X116633679Y-56691878D01*
X116636384Y-56680218D01*
X116672239Y-56625170D01*
X116754108Y-56502739D01*
X116873205Y-56325962D01*
X117020742Y-56107877D01*
X117187931Y-55861520D01*
X117220990Y-55812891D01*
X117414980Y-55524773D01*
X117557579Y-55305377D01*
X117654473Y-55144602D01*
X117711346Y-55032346D01*
X117733884Y-54958510D01*
X117727772Y-54912990D01*
X117727616Y-54912700D01*
X117679511Y-54852910D01*
X117573111Y-54737319D01*
X117419948Y-54577909D01*
X117231555Y-54386665D01*
X117019465Y-54175568D01*
X116995547Y-54152008D01*
X116728262Y-53893172D01*
X116521992Y-53703117D01*
X116372592Y-53578337D01*
X116275920Y-53515327D01*
X116233339Y-53507195D01*
X116171196Y-53542672D01*
X116042237Y-53624623D01*
X115859778Y-53744292D01*
X115637133Y-53892926D01*
X115387616Y-54061772D01*
X115329364Y-54101495D01*
X114502316Y-54666276D01*
X114128821Y-54496760D01*
X113901684Y-54397971D01*
X113657872Y-54298617D01*
X113448275Y-54219401D01*
X113439042Y-54216142D01*
X113275095Y-54156129D01*
X113148715Y-54105382D01*
X113087137Y-54074841D01*
X113087032Y-54074753D01*
X113067493Y-54019548D01*
X113034279Y-53883779D01*
X112990687Y-53682709D01*
X112940016Y-53431599D01*
X112885561Y-53145713D01*
X112881106Y-53121612D01*
X112826482Y-52827059D01*
X112776336Y-52559684D01*
X112733898Y-52336480D01*
X112702402Y-52174439D01*
X112685077Y-52090553D01*
X112684775Y-52089272D01*
X112674232Y-52053588D01*
X112653731Y-52026646D01*
X112610989Y-52007218D01*
X112533724Y-51994075D01*
X112409652Y-51985989D01*
X112226491Y-51981732D01*
X111971958Y-51980075D01*
X111633769Y-51979790D01*
X111590000Y-51979790D01*
X111241643Y-51979997D01*
D10*
X227490000Y-45725000D02*
X227490000Y-43725000D01*
X224690000Y-45725000D02*
X227490000Y-45725000D01*
X224690000Y-43725000D02*
X224690000Y-45725000D01*
X227490000Y-43725000D02*
X224690000Y-43725000D01*
D11*
G36*
X207195813Y-132557317D02*
G01*
X207130763Y-132582473D01*
X207031615Y-132632425D01*
X206889253Y-132710752D01*
X206878168Y-132716977D01*
X206747053Y-132791952D01*
X206636404Y-132857638D01*
X206557090Y-132907410D01*
X206519977Y-132934641D01*
X206518939Y-132935974D01*
X206527904Y-132973780D01*
X206569029Y-133058210D01*
X206639634Y-133184665D01*
X206737040Y-133348544D01*
X206858565Y-133545245D01*
X207001529Y-133770170D01*
X207037110Y-133825331D01*
X207129814Y-133978398D01*
X207197317Y-134110112D01*
X207233695Y-134208565D01*
X207237428Y-134228014D01*
X207235771Y-134313624D01*
X207217212Y-134449418D01*
X207184064Y-134626687D01*
X207138640Y-134836719D01*
X207083254Y-135070804D01*
X207020220Y-135320232D01*
X206951850Y-135576290D01*
X206880458Y-135830269D01*
X206808359Y-136073457D01*
X206737864Y-136297145D01*
X206671288Y-136492621D01*
X206610945Y-136651174D01*
X206568879Y-136745244D01*
X206519327Y-136845451D01*
X206472540Y-136941337D01*
X206470007Y-136946586D01*
X206392603Y-137043440D01*
X206279632Y-137108656D01*
X206148122Y-137139909D01*
X206015099Y-137134875D01*
X205897590Y-137091228D01*
X205831484Y-137033764D01*
X205736282Y-136876166D01*
X205666522Y-136679756D01*
X205628247Y-136464559D01*
X205622824Y-136342561D01*
X205644661Y-136114870D01*
X205708753Y-135926320D01*
X205818549Y-135767759D01*
X205852787Y-135732467D01*
X205954678Y-135633470D01*
X205968672Y-134233978D01*
X205790365Y-133964062D01*
X205706693Y-133841891D01*
X205626111Y-133731987D01*
X205560115Y-133649673D01*
X205531748Y-133619384D01*
X205451438Y-133544621D01*
X205342670Y-133603196D01*
X205273923Y-133645168D01*
X205236308Y-133677756D01*
X205233903Y-133683615D01*
X205208194Y-133708456D01*
X205164208Y-133726954D01*
X205121701Y-133743626D01*
X205056613Y-133775299D01*
X204963356Y-133825066D01*
X204836342Y-133896018D01*
X204669984Y-133991247D01*
X204458695Y-134113844D01*
X204343876Y-134180864D01*
X204208813Y-134261143D01*
X204120230Y-134318319D01*
X204070290Y-134359078D01*
X204051154Y-134390107D01*
X204054984Y-134418092D01*
X204058178Y-134424593D01*
X204089248Y-134465533D01*
X204155729Y-134542330D01*
X204249876Y-134646393D01*
X204363944Y-134769132D01*
X204462600Y-134873180D01*
X204689941Y-135120134D01*
X204867790Y-135334183D01*
X204997733Y-135517480D01*
X205081358Y-135672176D01*
X205109566Y-135750732D01*
X205121217Y-135819498D01*
X205133251Y-135936799D01*
X205144609Y-136089234D01*
X205154233Y-136263404D01*
X205158762Y-136373537D01*
X205165082Y-136563929D01*
X205167863Y-136703124D01*
X205166285Y-136801819D01*
X205159531Y-136870708D01*
X205146784Y-136920487D01*
X205127227Y-136961850D01*
X205111866Y-136987106D01*
X205023158Y-137084453D01*
X204908853Y-137152291D01*
X204788584Y-137181876D01*
X204698455Y-137171172D01*
X204616848Y-137124861D01*
X204514553Y-137041924D01*
X204405917Y-136936825D01*
X204305287Y-136824032D01*
X204227012Y-136718010D01*
X204198191Y-136666778D01*
X204155018Y-136596628D01*
X204076495Y-136489778D01*
X203969797Y-136354578D01*
X203842097Y-136199381D01*
X203700571Y-136032536D01*
X203552393Y-135862396D01*
X203404737Y-135697311D01*
X203264778Y-135545633D01*
X203139690Y-135415713D01*
X203041480Y-135320339D01*
X202932443Y-135225065D01*
X202840716Y-135154817D01*
X202776379Y-135116898D01*
X202755022Y-135112729D01*
X202722294Y-135129548D01*
X202640659Y-135174692D01*
X202514828Y-135245449D01*
X202349512Y-135339109D01*
X202149422Y-135452962D01*
X201919268Y-135584298D01*
X201663762Y-135730406D01*
X201387613Y-135888576D01*
X201095533Y-136056097D01*
X200792232Y-136230259D01*
X200482421Y-136408352D01*
X200170811Y-136587665D01*
X199862112Y-136765487D01*
X199561036Y-136939109D01*
X199272292Y-137105819D01*
X199000592Y-137262908D01*
X198750646Y-137407666D01*
X198527166Y-137537380D01*
X198334861Y-137649342D01*
X198178443Y-137740841D01*
X198062622Y-137809167D01*
X197992109Y-137851608D01*
X197971671Y-137864927D01*
X197999197Y-137867560D01*
X198085792Y-137870118D01*
X198228572Y-137872592D01*
X198424654Y-137874966D01*
X198671156Y-137877231D01*
X198965194Y-137879373D01*
X199303886Y-137881379D01*
X199684348Y-137883238D01*
X200103699Y-137884937D01*
X200559054Y-137886464D01*
X201047531Y-137887807D01*
X201566247Y-137888952D01*
X202112319Y-137889889D01*
X202682864Y-137890604D01*
X203275000Y-137891085D01*
X203885843Y-137891319D01*
X204142152Y-137891342D01*
X210342061Y-137891342D01*
X209899894Y-137124695D01*
X209806289Y-136962360D01*
X209685796Y-136753332D01*
X209542444Y-136504603D01*
X209380262Y-136223164D01*
X209203277Y-135916007D01*
X209015520Y-135590125D01*
X208821018Y-135252509D01*
X208623800Y-134910151D01*
X208427895Y-134570043D01*
X208378351Y-134484025D01*
X208197696Y-134170715D01*
X208025422Y-133872606D01*
X207864116Y-133594136D01*
X207716368Y-133339743D01*
X207584767Y-133113864D01*
X207471901Y-132920937D01*
X207380359Y-132765401D01*
X207312730Y-132651692D01*
X207271604Y-132584250D01*
X207260095Y-132567080D01*
X207235885Y-132553379D01*
X207195813Y-132557317D01*
G37*
X207195813Y-132557317D02*
X207130763Y-132582473D01*
X207031615Y-132632425D01*
X206889253Y-132710752D01*
X206878168Y-132716977D01*
X206747053Y-132791952D01*
X206636404Y-132857638D01*
X206557090Y-132907410D01*
X206519977Y-132934641D01*
X206518939Y-132935974D01*
X206527904Y-132973780D01*
X206569029Y-133058210D01*
X206639634Y-133184665D01*
X206737040Y-133348544D01*
X206858565Y-133545245D01*
X207001529Y-133770170D01*
X207037110Y-133825331D01*
X207129814Y-133978398D01*
X207197317Y-134110112D01*
X207233695Y-134208565D01*
X207237428Y-134228014D01*
X207235771Y-134313624D01*
X207217212Y-134449418D01*
X207184064Y-134626687D01*
X207138640Y-134836719D01*
X207083254Y-135070804D01*
X207020220Y-135320232D01*
X206951850Y-135576290D01*
X206880458Y-135830269D01*
X206808359Y-136073457D01*
X206737864Y-136297145D01*
X206671288Y-136492621D01*
X206610945Y-136651174D01*
X206568879Y-136745244D01*
X206519327Y-136845451D01*
X206472540Y-136941337D01*
X206470007Y-136946586D01*
X206392603Y-137043440D01*
X206279632Y-137108656D01*
X206148122Y-137139909D01*
X206015099Y-137134875D01*
X205897590Y-137091228D01*
X205831484Y-137033764D01*
X205736282Y-136876166D01*
X205666522Y-136679756D01*
X205628247Y-136464559D01*
X205622824Y-136342561D01*
X205644661Y-136114870D01*
X205708753Y-135926320D01*
X205818549Y-135767759D01*
X205852787Y-135732467D01*
X205954678Y-135633470D01*
X205968672Y-134233978D01*
X205790365Y-133964062D01*
X205706693Y-133841891D01*
X205626111Y-133731987D01*
X205560115Y-133649673D01*
X205531748Y-133619384D01*
X205451438Y-133544621D01*
X205342670Y-133603196D01*
X205273923Y-133645168D01*
X205236308Y-133677756D01*
X205233903Y-133683615D01*
X205208194Y-133708456D01*
X205164208Y-133726954D01*
X205121701Y-133743626D01*
X205056613Y-133775299D01*
X204963356Y-133825066D01*
X204836342Y-133896018D01*
X204669984Y-133991247D01*
X204458695Y-134113844D01*
X204343876Y-134180864D01*
X204208813Y-134261143D01*
X204120230Y-134318319D01*
X204070290Y-134359078D01*
X204051154Y-134390107D01*
X204054984Y-134418092D01*
X204058178Y-134424593D01*
X204089248Y-134465533D01*
X204155729Y-134542330D01*
X204249876Y-134646393D01*
X204363944Y-134769132D01*
X204462600Y-134873180D01*
X204689941Y-135120134D01*
X204867790Y-135334183D01*
X204997733Y-135517480D01*
X205081358Y-135672176D01*
X205109566Y-135750732D01*
X205121217Y-135819498D01*
X205133251Y-135936799D01*
X205144609Y-136089234D01*
X205154233Y-136263404D01*
X205158762Y-136373537D01*
X205165082Y-136563929D01*
X205167863Y-136703124D01*
X205166285Y-136801819D01*
X205159531Y-136870708D01*
X205146784Y-136920487D01*
X205127227Y-136961850D01*
X205111866Y-136987106D01*
X205023158Y-137084453D01*
X204908853Y-137152291D01*
X204788584Y-137181876D01*
X204698455Y-137171172D01*
X204616848Y-137124861D01*
X204514553Y-137041924D01*
X204405917Y-136936825D01*
X204305287Y-136824032D01*
X204227012Y-136718010D01*
X204198191Y-136666778D01*
X204155018Y-136596628D01*
X204076495Y-136489778D01*
X203969797Y-136354578D01*
X203842097Y-136199381D01*
X203700571Y-136032536D01*
X203552393Y-135862396D01*
X203404737Y-135697311D01*
X203264778Y-135545633D01*
X203139690Y-135415713D01*
X203041480Y-135320339D01*
X202932443Y-135225065D01*
X202840716Y-135154817D01*
X202776379Y-135116898D01*
X202755022Y-135112729D01*
X202722294Y-135129548D01*
X202640659Y-135174692D01*
X202514828Y-135245449D01*
X202349512Y-135339109D01*
X202149422Y-135452962D01*
X201919268Y-135584298D01*
X201663762Y-135730406D01*
X201387613Y-135888576D01*
X201095533Y-136056097D01*
X200792232Y-136230259D01*
X200482421Y-136408352D01*
X200170811Y-136587665D01*
X199862112Y-136765487D01*
X199561036Y-136939109D01*
X199272292Y-137105819D01*
X199000592Y-137262908D01*
X198750646Y-137407666D01*
X198527166Y-137537380D01*
X198334861Y-137649342D01*
X198178443Y-137740841D01*
X198062622Y-137809167D01*
X197992109Y-137851608D01*
X197971671Y-137864927D01*
X197999197Y-137867560D01*
X198085792Y-137870118D01*
X198228572Y-137872592D01*
X198424654Y-137874966D01*
X198671156Y-137877231D01*
X198965194Y-137879373D01*
X199303886Y-137881379D01*
X199684348Y-137883238D01*
X200103699Y-137884937D01*
X200559054Y-137886464D01*
X201047531Y-137887807D01*
X201566247Y-137888952D01*
X202112319Y-137889889D01*
X202682864Y-137890604D01*
X203275000Y-137891085D01*
X203885843Y-137891319D01*
X204142152Y-137891342D01*
X210342061Y-137891342D01*
X209899894Y-137124695D01*
X209806289Y-136962360D01*
X209685796Y-136753332D01*
X209542444Y-136504603D01*
X209380262Y-136223164D01*
X209203277Y-135916007D01*
X209015520Y-135590125D01*
X208821018Y-135252509D01*
X208623800Y-134910151D01*
X208427895Y-134570043D01*
X208378351Y-134484025D01*
X208197696Y-134170715D01*
X208025422Y-133872606D01*
X207864116Y-133594136D01*
X207716368Y-133339743D01*
X207584767Y-133113864D01*
X207471901Y-132920937D01*
X207380359Y-132765401D01*
X207312730Y-132651692D01*
X207271604Y-132584250D01*
X207260095Y-132567080D01*
X207235885Y-132553379D01*
X207195813Y-132557317D01*
G36*
X199864944Y-132444238D02*
G01*
X199842184Y-132482386D01*
X199791025Y-132569843D01*
X199713996Y-132702238D01*
X199613628Y-132875204D01*
X199492451Y-133084370D01*
X199352994Y-133325367D01*
X199197787Y-133593824D01*
X199029360Y-133885374D01*
X198850243Y-134195646D01*
X198666005Y-134515000D01*
X198477848Y-134841235D01*
X198297197Y-135154418D01*
X198126670Y-135450012D01*
X197968886Y-135723480D01*
X197826462Y-135970284D01*
X197702019Y-136185889D01*
X197598174Y-136365755D01*
X197517545Y-136505347D01*
X197462752Y-136600128D01*
X197436987Y-136644573D01*
X197394986Y-136719661D01*
X197372150Y-136766663D01*
X197370898Y-136774841D01*
X197398728Y-136759484D01*
X197476119Y-136715407D01*
X197599027Y-136644942D01*
X197763405Y-136550422D01*
X197965208Y-136434178D01*
X198200391Y-136298542D01*
X198464909Y-136145848D01*
X198754716Y-135978428D01*
X199065767Y-135798613D01*
X199394016Y-135608735D01*
X199518903Y-135536464D01*
X199853026Y-135343167D01*
X200171853Y-135158877D01*
X200471291Y-134985950D01*
X200747248Y-134826743D01*
X200995630Y-134683610D01*
X201212347Y-134558910D01*
X201393304Y-134454996D01*
X201534409Y-134374227D01*
X201631570Y-134318957D01*
X201680693Y-134291544D01*
X201685830Y-134288948D01*
X201670862Y-134265441D01*
X201618773Y-134202591D01*
X201534883Y-134106188D01*
X201424508Y-133982020D01*
X201292966Y-133835879D01*
X201145576Y-133673553D01*
X200987655Y-133500832D01*
X200824521Y-133323506D01*
X200661492Y-133147365D01*
X200503886Y-132978198D01*
X200357021Y-132821795D01*
X200226214Y-132683945D01*
X200116784Y-132570439D01*
X200034047Y-132487065D01*
X200005672Y-132459726D01*
X199911641Y-132371403D01*
X199864944Y-132444238D01*
G37*
X199864944Y-132444238D02*
X199842184Y-132482386D01*
X199791025Y-132569843D01*
X199713996Y-132702238D01*
X199613628Y-132875204D01*
X199492451Y-133084370D01*
X199352994Y-133325367D01*
X199197787Y-133593824D01*
X199029360Y-133885374D01*
X198850243Y-134195646D01*
X198666005Y-134515000D01*
X198477848Y-134841235D01*
X198297197Y-135154418D01*
X198126670Y-135450012D01*
X197968886Y-135723480D01*
X197826462Y-135970284D01*
X197702019Y-136185889D01*
X197598174Y-136365755D01*
X197517545Y-136505347D01*
X197462752Y-136600128D01*
X197436987Y-136644573D01*
X197394986Y-136719661D01*
X197372150Y-136766663D01*
X197370898Y-136774841D01*
X197398728Y-136759484D01*
X197476119Y-136715407D01*
X197599027Y-136644942D01*
X197763405Y-136550422D01*
X197965208Y-136434178D01*
X198200391Y-136298542D01*
X198464909Y-136145848D01*
X198754716Y-135978428D01*
X199065767Y-135798613D01*
X199394016Y-135608735D01*
X199518903Y-135536464D01*
X199853026Y-135343167D01*
X200171853Y-135158877D01*
X200471291Y-134985950D01*
X200747248Y-134826743D01*
X200995630Y-134683610D01*
X201212347Y-134558910D01*
X201393304Y-134454996D01*
X201534409Y-134374227D01*
X201631570Y-134318957D01*
X201680693Y-134291544D01*
X201685830Y-134288948D01*
X201670862Y-134265441D01*
X201618773Y-134202591D01*
X201534883Y-134106188D01*
X201424508Y-133982020D01*
X201292966Y-133835879D01*
X201145576Y-133673553D01*
X200987655Y-133500832D01*
X200824521Y-133323506D01*
X200661492Y-133147365D01*
X200503886Y-132978198D01*
X200357021Y-132821795D01*
X200226214Y-132683945D01*
X200116784Y-132570439D01*
X200034047Y-132487065D01*
X200005672Y-132459726D01*
X199911641Y-132371403D01*
X199864944Y-132444238D01*
G36*
X203511915Y-126146671D02*
G01*
X203465871Y-126221491D01*
X203394933Y-126340028D01*
X203302009Y-126497237D01*
X203190008Y-126688076D01*
X203061838Y-126907501D01*
X202920408Y-127150469D01*
X202768627Y-127411937D01*
X202609403Y-127686860D01*
X202445644Y-127970197D01*
X202280260Y-128256902D01*
X202116158Y-128541934D01*
X201956248Y-128820248D01*
X201803438Y-129086802D01*
X201660637Y-129336552D01*
X201530753Y-129564455D01*
X201416695Y-129765466D01*
X201321371Y-129934544D01*
X201247690Y-130066645D01*
X201198561Y-130156724D01*
X201176892Y-130199740D01*
X201176098Y-130202429D01*
X201202998Y-130238930D01*
X201277773Y-130294764D01*
X201391530Y-130364450D01*
X201535377Y-130442509D01*
X201685971Y-130516687D01*
X201890881Y-130606635D01*
X202106367Y-130687453D01*
X202339854Y-130760938D01*
X202598764Y-130828884D01*
X202890521Y-130893088D01*
X203222549Y-130955346D01*
X203602269Y-131017454D01*
X203995063Y-131075290D01*
X204336332Y-131126600D01*
X204622910Y-131177397D01*
X204861985Y-131230204D01*
X205060741Y-131287546D01*
X205226365Y-131351947D01*
X205366044Y-131425931D01*
X205486964Y-131512024D01*
X205596311Y-131612750D01*
X205631572Y-131650167D01*
X205708000Y-131737279D01*
X205764537Y-131808364D01*
X205790765Y-131850167D01*
X205791464Y-131853594D01*
X205800640Y-131874612D01*
X205832485Y-131874849D01*
X205893469Y-131851509D01*
X205990065Y-131801793D01*
X206128746Y-131722905D01*
X206225122Y-131666175D01*
X206368834Y-131577494D01*
X206480517Y-131501559D01*
X206552666Y-131443832D01*
X206577774Y-131409776D01*
X206577759Y-131409529D01*
X206562189Y-131377075D01*
X206518217Y-131295800D01*
X206448395Y-131170134D01*
X206355275Y-131004505D01*
X206241411Y-130803344D01*
X206109354Y-130571080D01*
X205961657Y-130312143D01*
X205800872Y-130030961D01*
X205629552Y-129731965D01*
X205450249Y-129419584D01*
X205265515Y-129098248D01*
X205077902Y-128772386D01*
X204889964Y-128446427D01*
X204704253Y-128124801D01*
X204523320Y-127811937D01*
X204349719Y-127512266D01*
X204186001Y-127230216D01*
X204034719Y-126970218D01*
X203898426Y-126736699D01*
X203779674Y-126534091D01*
X203681015Y-126366823D01*
X203605001Y-126239324D01*
X203554186Y-126156023D01*
X203531121Y-126121350D01*
X203530155Y-126120610D01*
X203511915Y-126146671D01*
G37*
X203511915Y-126146671D02*
X203465871Y-126221491D01*
X203394933Y-126340028D01*
X203302009Y-126497237D01*
X203190008Y-126688076D01*
X203061838Y-126907501D01*
X202920408Y-127150469D01*
X202768627Y-127411937D01*
X202609403Y-127686860D01*
X202445644Y-127970197D01*
X202280260Y-128256902D01*
X202116158Y-128541934D01*
X201956248Y-128820248D01*
X201803438Y-129086802D01*
X201660637Y-129336552D01*
X201530753Y-129564455D01*
X201416695Y-129765466D01*
X201321371Y-129934544D01*
X201247690Y-130066645D01*
X201198561Y-130156724D01*
X201176892Y-130199740D01*
X201176098Y-130202429D01*
X201202998Y-130238930D01*
X201277773Y-130294764D01*
X201391530Y-130364450D01*
X201535377Y-130442509D01*
X201685971Y-130516687D01*
X201890881Y-130606635D01*
X202106367Y-130687453D01*
X202339854Y-130760938D01*
X202598764Y-130828884D01*
X202890521Y-130893088D01*
X203222549Y-130955346D01*
X203602269Y-131017454D01*
X203995063Y-131075290D01*
X204336332Y-131126600D01*
X204622910Y-131177397D01*
X204861985Y-131230204D01*
X205060741Y-131287546D01*
X205226365Y-131351947D01*
X205366044Y-131425931D01*
X205486964Y-131512024D01*
X205596311Y-131612750D01*
X205631572Y-131650167D01*
X205708000Y-131737279D01*
X205764537Y-131808364D01*
X205790765Y-131850167D01*
X205791464Y-131853594D01*
X205800640Y-131874612D01*
X205832485Y-131874849D01*
X205893469Y-131851509D01*
X205990065Y-131801793D01*
X206128746Y-131722905D01*
X206225122Y-131666175D01*
X206368834Y-131577494D01*
X206480517Y-131501559D01*
X206552666Y-131443832D01*
X206577774Y-131409776D01*
X206577759Y-131409529D01*
X206562189Y-131377075D01*
X206518217Y-131295800D01*
X206448395Y-131170134D01*
X206355275Y-131004505D01*
X206241411Y-130803344D01*
X206109354Y-130571080D01*
X205961657Y-130312143D01*
X205800872Y-130030961D01*
X205629552Y-129731965D01*
X205450249Y-129419584D01*
X205265515Y-129098248D01*
X205077902Y-128772386D01*
X204889964Y-128446427D01*
X204704253Y-128124801D01*
X204523320Y-127811937D01*
X204349719Y-127512266D01*
X204186001Y-127230216D01*
X204034719Y-126970218D01*
X203898426Y-126736699D01*
X203779674Y-126534091D01*
X203681015Y-126366823D01*
X203605001Y-126239324D01*
X203554186Y-126156023D01*
X203531121Y-126121350D01*
X203530155Y-126120610D01*
X203511915Y-126146671D01*
D10*
X138885000Y-156515000D02*
G75*
G03*
X138885000Y-156515000I-950000J0D01*
G01*
X136345000Y-156515000D02*
G75*
G03*
X136345000Y-156515000I-950000J0D01*
G01*
X133805000Y-156515000D02*
G75*
G03*
X133805000Y-156515000I-950000J0D01*
G01*
X131265000Y-156515000D02*
G75*
G03*
X131265000Y-156515000I-950000J0D01*
G01*
X121740000Y-155880000D02*
G75*
G03*
X121740000Y-155880000I-950000J0D01*
G01*
X119200000Y-155880000D02*
G75*
G03*
X119200000Y-155880000I-950000J0D01*
G01*
X116660000Y-155880000D02*
G75*
G03*
X116660000Y-155880000I-950000J0D01*
G01*
X114120000Y-155880000D02*
G75*
G03*
X114120000Y-155880000I-950000J0D01*
G01*
X111580000Y-155880000D02*
G75*
G03*
X111580000Y-155880000I-950000J0D01*
G01*
X109040000Y-155880000D02*
G75*
G03*
X109040000Y-155880000I-950000J0D01*
G01*
X106500000Y-155880000D02*
G75*
G03*
X106500000Y-155880000I-950000J0D01*
G01*
X103960000Y-155880000D02*
G75*
G03*
X103960000Y-155880000I-950000J0D01*
G01*
X101420000Y-155880000D02*
G75*
G03*
X101420000Y-155880000I-950000J0D01*
G01*
X98880000Y-155880000D02*
G75*
G03*
X98880000Y-155880000I-950000J0D01*
G01*
X96340000Y-155880000D02*
G75*
G03*
X96340000Y-155880000I-950000J0D01*
G01*
X93800000Y-155880000D02*
G75*
G03*
X93800000Y-155880000I-950000J0D01*
G01*
X138250000Y-148895000D02*
G75*
G03*
X138250000Y-148895000I-950000J0D01*
G01*
X135710000Y-148895000D02*
G75*
G03*
X135710000Y-148895000I-950000J0D01*
G01*
X133170000Y-148895000D02*
G75*
G03*
X133170000Y-148895000I-950000J0D01*
G01*
X123010000Y-148895000D02*
G75*
G03*
X123010000Y-148895000I-950000J0D01*
G01*
X120470000Y-148895000D02*
G75*
G03*
X120470000Y-148895000I-950000J0D01*
G01*
X117930000Y-148895000D02*
G75*
G03*
X117930000Y-148895000I-950000J0D01*
G01*
X115390000Y-148895000D02*
G75*
G03*
X115390000Y-148895000I-950000J0D01*
G01*
X112850000Y-148895000D02*
G75*
G03*
X112850000Y-148895000I-950000J0D01*
G01*
X110310000Y-148895000D02*
G75*
G03*
X110310000Y-148895000I-950000J0D01*
G01*
X107770000Y-148895000D02*
G75*
G03*
X107770000Y-148895000I-950000J0D01*
G01*
X105230000Y-148895000D02*
G75*
G03*
X105230000Y-148895000I-950000J0D01*
G01*
X102690000Y-148895000D02*
G75*
G03*
X102690000Y-148895000I-950000J0D01*
G01*
X100150000Y-148895000D02*
G75*
G03*
X100150000Y-148895000I-950000J0D01*
G01*
X97610000Y-148895000D02*
G75*
G03*
X97610000Y-148895000I-950000J0D01*
G01*
X95070000Y-148895000D02*
G75*
G03*
X95070000Y-148895000I-950000J0D01*
G01*
X145235000Y-108890000D02*
G75*
G03*
X145235000Y-108890000I-950000J0D01*
G01*
X142695000Y-108890000D02*
G75*
G03*
X142695000Y-108890000I-950000J0D01*
G01*
X140155000Y-108890000D02*
G75*
G03*
X140155000Y-108890000I-950000J0D01*
G01*
X137615000Y-108890000D02*
G75*
G03*
X137615000Y-108890000I-950000J0D01*
G01*
X135075000Y-108890000D02*
G75*
G03*
X135075000Y-108890000I-950000J0D01*
G01*
X131265000Y-109144000D02*
G75*
G03*
X131265000Y-109144000I-950000J0D01*
G01*
X124915000Y-109144000D02*
G75*
G03*
X124915000Y-109144000I-950000J0D01*
G01*
X121105000Y-108890000D02*
G75*
G03*
X121105000Y-108890000I-950000J0D01*
G01*
X118565000Y-108890000D02*
G75*
G03*
X118565000Y-108890000I-950000J0D01*
G01*
X116025000Y-108890000D02*
G75*
G03*
X116025000Y-108890000I-950000J0D01*
G01*
X112850000Y-108890000D02*
G75*
G03*
X112850000Y-108890000I-950000J0D01*
G01*
X110310000Y-108890000D02*
G75*
G03*
X110310000Y-108890000I-950000J0D01*
G01*
X107770000Y-108890000D02*
G75*
G03*
X107770000Y-108890000I-950000J0D01*
G01*
X105230000Y-108890000D02*
G75*
G03*
X105230000Y-108890000I-950000J0D01*
G01*
X102690000Y-108890000D02*
G75*
G03*
X102690000Y-108890000I-950000J0D01*
G01*
X143330000Y-100635000D02*
G75*
G03*
X143330000Y-100635000I-950000J0D01*
G01*
X140790000Y-100635000D02*
G75*
G03*
X140790000Y-100635000I-950000J0D01*
G01*
X138250000Y-100635000D02*
G75*
G03*
X138250000Y-100635000I-950000J0D01*
G01*
X135710000Y-100635000D02*
G75*
G03*
X135710000Y-100635000I-950000J0D01*
G01*
X133170000Y-100635000D02*
G75*
G03*
X133170000Y-100635000I-950000J0D01*
G01*
X121740000Y-100635000D02*
G75*
G03*
X121740000Y-100635000I-950000J0D01*
G01*
X119200000Y-100635000D02*
G75*
G03*
X119200000Y-100635000I-950000J0D01*
G01*
X111580000Y-100635000D02*
G75*
G03*
X111580000Y-100635000I-950000J0D01*
G01*
X109040000Y-100635000D02*
G75*
G03*
X109040000Y-100635000I-950000J0D01*
G01*
X106500000Y-100635000D02*
G75*
G03*
X106500000Y-100635000I-950000J0D01*
G01*
X103960000Y-100635000D02*
G75*
G03*
X103960000Y-100635000I-950000J0D01*
G01*
X112835000Y-99495000D02*
G75*
G03*
X113535000Y-98795000I0J700000D01*
G01*
X111535000Y-98795000D02*
G75*
G03*
X112235000Y-99495000I700000J0D01*
G01*
X112235000Y-96695000D02*
G75*
G03*
X111535000Y-97395000I0J-700000D01*
G01*
X113535000Y-97395000D02*
G75*
G03*
X112835000Y-96695000I-700000J0D01*
G01*
X112235000Y-99495000D02*
X112835000Y-99495000D01*
X111535000Y-97395000D02*
X111535000Y-98795000D01*
X112835000Y-96695000D02*
X112235000Y-96695000D01*
X113535000Y-98795000D02*
X113535000Y-97395000D01*
X114775000Y-96695000D02*
G75*
G03*
X114075000Y-97395000I0J-700000D01*
G01*
X116075000Y-97395000D02*
G75*
G03*
X115375000Y-96695000I-700000J0D01*
G01*
X115375000Y-99495000D02*
G75*
G03*
X116075000Y-98795000I0J700000D01*
G01*
X114075000Y-98795000D02*
G75*
G03*
X114775000Y-99495000I700000J0D01*
G01*
X115375000Y-96695000D02*
X114775000Y-96695000D01*
X116075000Y-98795000D02*
X116075000Y-97395000D01*
X114775000Y-99495000D02*
X115375000Y-99495000D01*
X114075000Y-97395000D02*
X114075000Y-98795000D01*
X101420000Y-100635000D02*
G75*
G03*
X101420000Y-100635000I-950000J0D01*
G01*
X153045000Y-154275000D02*
G75*
G03*
X153745000Y-154975000I700000J0D01*
G01*
X153745000Y-152975000D02*
G75*
G03*
X153045000Y-153675000I0J-700000D01*
G01*
X155845000Y-153675000D02*
G75*
G03*
X155145000Y-152975000I-700000J0D01*
G01*
X155145000Y-154975000D02*
G75*
G03*
X155845000Y-154275000I0J700000D01*
G01*
X153045000Y-153675000D02*
X153045000Y-154275000D01*
X155145000Y-152975000D02*
X153745000Y-152975000D01*
X155845000Y-154275000D02*
X155845000Y-153675000D01*
X153745000Y-154975000D02*
X155145000Y-154975000D01*
X149235000Y-152370000D02*
G75*
G03*
X149935000Y-153070000I700000J0D01*
G01*
X149935000Y-151070000D02*
G75*
G03*
X149235000Y-151770000I0J-700000D01*
G01*
X152035000Y-151770000D02*
G75*
G03*
X151335000Y-151070000I-700000J0D01*
G01*
X151335000Y-153070000D02*
G75*
G03*
X152035000Y-152370000I0J700000D01*
G01*
X149235000Y-151770000D02*
X149235000Y-152370000D01*
X151335000Y-151070000D02*
X149935000Y-151070000D01*
X152035000Y-152370000D02*
X152035000Y-151770000D01*
X149935000Y-153070000D02*
X151335000Y-153070000D01*
X149235000Y-156180000D02*
G75*
G03*
X149935000Y-156880000I700000J0D01*
G01*
X149935000Y-154880000D02*
G75*
G03*
X149235000Y-155580000I0J-700000D01*
G01*
X152035000Y-155580000D02*
G75*
G03*
X151335000Y-154880000I-700000J0D01*
G01*
X151335000Y-156880000D02*
G75*
G03*
X152035000Y-156180000I0J700000D01*
G01*
X149235000Y-155580000D02*
X149235000Y-156180000D01*
X151335000Y-154880000D02*
X149935000Y-154880000D01*
X152035000Y-156180000D02*
X152035000Y-155580000D01*
X149935000Y-156880000D02*
X151335000Y-156880000D01*
X139710000Y-156815000D02*
G75*
G03*
X140410000Y-157515000I700000J0D01*
G01*
X140410000Y-155515000D02*
G75*
G03*
X139710000Y-156215000I0J-700000D01*
G01*
X142510000Y-156215000D02*
G75*
G03*
X141810000Y-155515000I-700000J0D01*
G01*
X141810000Y-157515000D02*
G75*
G03*
X142510000Y-156815000I0J700000D01*
G01*
X139710000Y-156215000D02*
X139710000Y-156815000D01*
X141810000Y-155515000D02*
X140410000Y-155515000D01*
X142510000Y-156815000D02*
X142510000Y-156215000D01*
X140410000Y-157515000D02*
X141810000Y-157515000D01*
X124470000Y-156815000D02*
G75*
G03*
X125170000Y-157515000I700000J0D01*
G01*
X125170000Y-155515000D02*
G75*
G03*
X124470000Y-156215000I0J-700000D01*
G01*
X127270000Y-156215000D02*
G75*
G03*
X126570000Y-155515000I-700000J0D01*
G01*
X126570000Y-157515000D02*
G75*
G03*
X127270000Y-156815000I0J700000D01*
G01*
X124470000Y-156215000D02*
X124470000Y-156815000D01*
X126570000Y-155515000D02*
X125170000Y-155515000D01*
X127270000Y-156815000D02*
X127270000Y-156215000D01*
X125170000Y-157515000D02*
X126570000Y-157515000D01*
X147160000Y-146860000D02*
G75*
G03*
X146460000Y-147560000I0J-700000D01*
G01*
X148460000Y-147560000D02*
G75*
G03*
X147760000Y-146860000I-700000J0D01*
G01*
X147760000Y-149660000D02*
G75*
G03*
X148460000Y-148960000I0J700000D01*
G01*
X146460000Y-148960000D02*
G75*
G03*
X147160000Y-149660000I700000J0D01*
G01*
X147760000Y-146860000D02*
X147160000Y-146860000D01*
X148460000Y-148960000D02*
X148460000Y-147560000D01*
X147160000Y-149660000D02*
X147760000Y-149660000D01*
X146460000Y-147560000D02*
X146460000Y-148960000D01*
X144620000Y-146860000D02*
G75*
G03*
X143920000Y-147560000I0J-700000D01*
G01*
X145920000Y-147560000D02*
G75*
G03*
X145220000Y-146860000I-700000J0D01*
G01*
X145220000Y-149660000D02*
G75*
G03*
X145920000Y-148960000I0J700000D01*
G01*
X143920000Y-148960000D02*
G75*
G03*
X144620000Y-149660000I700000J0D01*
G01*
X145220000Y-146860000D02*
X144620000Y-146860000D01*
X145920000Y-148960000D02*
X145920000Y-147560000D01*
X144620000Y-149660000D02*
X145220000Y-149660000D01*
X143920000Y-147560000D02*
X143920000Y-148960000D01*
X142080000Y-146860000D02*
G75*
G03*
X141380000Y-147560000I0J-700000D01*
G01*
X143380000Y-147560000D02*
G75*
G03*
X142680000Y-146860000I-700000J0D01*
G01*
X142680000Y-149660000D02*
G75*
G03*
X143380000Y-148960000I0J700000D01*
G01*
X141380000Y-148960000D02*
G75*
G03*
X142080000Y-149660000I700000J0D01*
G01*
X142680000Y-146860000D02*
X142080000Y-146860000D01*
X143380000Y-148960000D02*
X143380000Y-147560000D01*
X142080000Y-149660000D02*
X142680000Y-149660000D01*
X141380000Y-147560000D02*
X141380000Y-148960000D01*
X139540000Y-146860000D02*
G75*
G03*
X138840000Y-147560000I0J-700000D01*
G01*
X140840000Y-147560000D02*
G75*
G03*
X140140000Y-146860000I-700000J0D01*
G01*
X140140000Y-149660000D02*
G75*
G03*
X140840000Y-148960000I0J700000D01*
G01*
X138840000Y-148960000D02*
G75*
G03*
X139540000Y-149660000I700000J0D01*
G01*
X140140000Y-146860000D02*
X139540000Y-146860000D01*
X140840000Y-148960000D02*
X140840000Y-147560000D01*
X139540000Y-149660000D02*
X140140000Y-149660000D01*
X138840000Y-147560000D02*
X138840000Y-148960000D01*
X126840000Y-146860000D02*
G75*
G03*
X126140000Y-147560000I0J-700000D01*
G01*
X128140000Y-147560000D02*
G75*
G03*
X127440000Y-146860000I-700000J0D01*
G01*
X127440000Y-149660000D02*
G75*
G03*
X128140000Y-148960000I0J700000D01*
G01*
X126140000Y-148960000D02*
G75*
G03*
X126840000Y-149660000I700000J0D01*
G01*
X127440000Y-146860000D02*
X126840000Y-146860000D01*
X128140000Y-148960000D02*
X128140000Y-147560000D01*
X126840000Y-149660000D02*
X127440000Y-149660000D01*
X126140000Y-147560000D02*
X126140000Y-148960000D01*
X124300000Y-146860000D02*
G75*
G03*
X123600000Y-147560000I0J-700000D01*
G01*
X125600000Y-147560000D02*
G75*
G03*
X124900000Y-146860000I-700000J0D01*
G01*
X124900000Y-149660000D02*
G75*
G03*
X125600000Y-148960000I0J700000D01*
G01*
X123600000Y-148960000D02*
G75*
G03*
X124300000Y-149660000I700000J0D01*
G01*
X124900000Y-146860000D02*
X124300000Y-146860000D01*
X125600000Y-148960000D02*
X125600000Y-147560000D01*
X124300000Y-149660000D02*
X124900000Y-149660000D01*
X123600000Y-147560000D02*
X123600000Y-148960000D01*
X126840000Y-110665000D02*
G75*
G03*
X126140000Y-111365000I0J-700000D01*
G01*
X128140000Y-111365000D02*
G75*
G03*
X127440000Y-110665000I-700000J0D01*
G01*
X127440000Y-113465000D02*
G75*
G03*
X128140000Y-112765000I0J700000D01*
G01*
X126140000Y-112765000D02*
G75*
G03*
X126840000Y-113465000I700000J0D01*
G01*
X127440000Y-110665000D02*
X126840000Y-110665000D01*
X128140000Y-112765000D02*
X128140000Y-111365000D01*
X126840000Y-113465000D02*
X127440000Y-113465000D01*
X126140000Y-111365000D02*
X126140000Y-112765000D01*
X132520000Y-113465000D02*
G75*
G03*
X133220000Y-112765000I0J700000D01*
G01*
X131220000Y-112765000D02*
G75*
G03*
X131920000Y-113465000I700000J0D01*
G01*
X131920000Y-110665000D02*
G75*
G03*
X131220000Y-111365000I0J-700000D01*
G01*
X133220000Y-111365000D02*
G75*
G03*
X132520000Y-110665000I-700000J0D01*
G01*
X131920000Y-113465000D02*
X132520000Y-113465000D01*
X131220000Y-111365000D02*
X131220000Y-112765000D01*
X132520000Y-110665000D02*
X131920000Y-110665000D01*
X133220000Y-112765000D02*
X133220000Y-111365000D01*
X129980000Y-113465000D02*
G75*
G03*
X130680000Y-112765000I0J700000D01*
G01*
X128680000Y-112765000D02*
G75*
G03*
X129380000Y-113465000I700000J0D01*
G01*
X129380000Y-110665000D02*
G75*
G03*
X128680000Y-111365000I0J-700000D01*
G01*
X130680000Y-111365000D02*
G75*
G03*
X129980000Y-110665000I-700000J0D01*
G01*
X129380000Y-113465000D02*
X129980000Y-113465000D01*
X128680000Y-111365000D02*
X128680000Y-112765000D01*
X129980000Y-110665000D02*
X129380000Y-110665000D01*
X130680000Y-112765000D02*
X130680000Y-111365000D01*
X124900000Y-113465000D02*
G75*
G03*
X125600000Y-112765000I0J700000D01*
G01*
X123600000Y-112765000D02*
G75*
G03*
X124300000Y-113465000I700000J0D01*
G01*
X124300000Y-110665000D02*
G75*
G03*
X123600000Y-111365000I0J-700000D01*
G01*
X125600000Y-111365000D02*
G75*
G03*
X124900000Y-110665000I-700000J0D01*
G01*
X124300000Y-113465000D02*
X124900000Y-113465000D01*
X123600000Y-111365000D02*
X123600000Y-112765000D01*
X124900000Y-110665000D02*
X124300000Y-110665000D01*
X125600000Y-112765000D02*
X125600000Y-111365000D01*
X122360000Y-113465000D02*
G75*
G03*
X123060000Y-112765000I0J700000D01*
G01*
X121060000Y-112765000D02*
G75*
G03*
X121760000Y-113465000I700000J0D01*
G01*
X121760000Y-110665000D02*
G75*
G03*
X121060000Y-111365000I0J-700000D01*
G01*
X123060000Y-111365000D02*
G75*
G03*
X122360000Y-110665000I-700000J0D01*
G01*
X121760000Y-113465000D02*
X122360000Y-113465000D01*
X121060000Y-111365000D02*
X121060000Y-112765000D01*
X122360000Y-110665000D02*
X121760000Y-110665000D01*
X123060000Y-112765000D02*
X123060000Y-111365000D01*
X212647936Y-112910000D02*
X213852064Y-112910000D01*
X212647936Y-111090000D02*
X213852064Y-111090000D01*
X203252064Y-118915000D02*
X202047936Y-118915000D01*
X203252064Y-120735000D02*
X202047936Y-120735000D01*
X140185000Y-74277064D02*
X140185000Y-73072936D01*
X138365000Y-74277064D02*
X138365000Y-73072936D01*
X210602064Y-100340000D02*
X209397936Y-100340000D01*
X210602064Y-102160000D02*
X209397936Y-102160000D01*
X193597936Y-124960000D02*
X194802064Y-124960000D01*
X193597936Y-123140000D02*
X194802064Y-123140000D01*
X179852064Y-128990000D02*
X178647936Y-128990000D01*
X179852064Y-130810000D02*
X178647936Y-130810000D01*
X187097936Y-74260000D02*
X188302064Y-74260000D01*
X187097936Y-72440000D02*
X188302064Y-72440000D01*
X193597936Y-83685000D02*
X194802064Y-83685000D01*
X193597936Y-81865000D02*
X194802064Y-81865000D01*
X174327064Y-49040000D02*
X173122936Y-49040000D01*
X174327064Y-50860000D02*
X173122936Y-50860000D01*
X135652064Y-83165000D02*
X134447936Y-83165000D01*
X135652064Y-84985000D02*
X134447936Y-84985000D01*
X187097936Y-123985000D02*
X188302064Y-123985000D01*
X187097936Y-122165000D02*
X188302064Y-122165000D01*
X180177064Y-75690000D02*
X178972936Y-75690000D01*
X180177064Y-77510000D02*
X178972936Y-77510000D01*
X185052064Y-110790000D02*
X183847936Y-110790000D01*
X185052064Y-112610000D02*
X183847936Y-112610000D01*
X163697936Y-129185000D02*
X164902064Y-129185000D01*
X163697936Y-127365000D02*
X164902064Y-127365000D01*
X154922936Y-63535000D02*
X156127064Y-63535000D01*
X154922936Y-61715000D02*
X156127064Y-61715000D01*
X164022936Y-56710000D02*
X165227064Y-56710000D01*
X164022936Y-54890000D02*
X165227064Y-54890000D01*
D12*
X227149523Y-46177380D02*
X227149523Y-46891666D01*
X227197142Y-47034523D01*
X227292380Y-47129761D01*
X227435238Y-47177380D01*
X227530476Y-47177380D01*
X226673333Y-47177380D02*
X226673333Y-46177380D01*
X226292380Y-46177380D01*
X226197142Y-46225000D01*
X226149523Y-46272619D01*
X226101904Y-46367857D01*
X226101904Y-46510714D01*
X226149523Y-46605952D01*
X226197142Y-46653571D01*
X226292380Y-46701190D01*
X226673333Y-46701190D01*
X225720952Y-46272619D02*
X225673333Y-46225000D01*
X225578095Y-46177380D01*
X225340000Y-46177380D01*
X225244761Y-46225000D01*
X225197142Y-46272619D01*
X225149523Y-46367857D01*
X225149523Y-46463095D01*
X225197142Y-46605952D01*
X225768571Y-47177380D01*
X225149523Y-47177380D01*
X224673333Y-47177380D02*
X224482857Y-47177380D01*
X224387619Y-47129761D01*
X224340000Y-47082142D01*
X224244761Y-46939285D01*
X224197142Y-46748809D01*
X224197142Y-46367857D01*
X224244761Y-46272619D01*
X224292380Y-46225000D01*
X224387619Y-46177380D01*
X224578095Y-46177380D01*
X224673333Y-46225000D01*
X224720952Y-46272619D01*
X224768571Y-46367857D01*
X224768571Y-46605952D01*
X224720952Y-46701190D01*
X224673333Y-46748809D01*
X224578095Y-46796428D01*
X224387619Y-46796428D01*
X224292380Y-46748809D01*
X224244761Y-46701190D01*
X224197142Y-46605952D01*
X110082380Y-94245476D02*
X110796666Y-94245476D01*
X110939523Y-94197857D01*
X111034761Y-94102619D01*
X111082380Y-93959761D01*
X111082380Y-93864523D01*
X111082380Y-94721666D02*
X110082380Y-94721666D01*
X110082380Y-95102619D01*
X110130000Y-95197857D01*
X110177619Y-95245476D01*
X110272857Y-95293095D01*
X110415714Y-95293095D01*
X110510952Y-95245476D01*
X110558571Y-95197857D01*
X110606190Y-95102619D01*
X110606190Y-94721666D01*
X110177619Y-95674047D02*
X110130000Y-95721666D01*
X110082380Y-95816904D01*
X110082380Y-96055000D01*
X110130000Y-96150238D01*
X110177619Y-96197857D01*
X110272857Y-96245476D01*
X110368095Y-96245476D01*
X110510952Y-96197857D01*
X111082380Y-95626428D01*
X111082380Y-96245476D01*
X110510952Y-96816904D02*
X110463333Y-96721666D01*
X110415714Y-96674047D01*
X110320476Y-96626428D01*
X110272857Y-96626428D01*
X110177619Y-96674047D01*
X110130000Y-96721666D01*
X110082380Y-96816904D01*
X110082380Y-97007380D01*
X110130000Y-97102619D01*
X110177619Y-97150238D01*
X110272857Y-97197857D01*
X110320476Y-97197857D01*
X110415714Y-97150238D01*
X110463333Y-97102619D01*
X110510952Y-97007380D01*
X110510952Y-96816904D01*
X110558571Y-96721666D01*
X110606190Y-96674047D01*
X110701428Y-96626428D01*
X110891904Y-96626428D01*
X110987142Y-96674047D01*
X111034761Y-96721666D01*
X111082380Y-96816904D01*
X111082380Y-97007380D01*
X111034761Y-97102619D01*
X110987142Y-97150238D01*
X110891904Y-97197857D01*
X110701428Y-97197857D01*
X110606190Y-97150238D01*
X110558571Y-97102619D01*
X110510952Y-97007380D01*
X116432380Y-94245476D02*
X117146666Y-94245476D01*
X117289523Y-94197857D01*
X117384761Y-94102619D01*
X117432380Y-93959761D01*
X117432380Y-93864523D01*
X117432380Y-94721666D02*
X116432380Y-94721666D01*
X116432380Y-95102619D01*
X116480000Y-95197857D01*
X116527619Y-95245476D01*
X116622857Y-95293095D01*
X116765714Y-95293095D01*
X116860952Y-95245476D01*
X116908571Y-95197857D01*
X116956190Y-95102619D01*
X116956190Y-94721666D01*
X116527619Y-95674047D02*
X116480000Y-95721666D01*
X116432380Y-95816904D01*
X116432380Y-96055000D01*
X116480000Y-96150238D01*
X116527619Y-96197857D01*
X116622857Y-96245476D01*
X116718095Y-96245476D01*
X116860952Y-96197857D01*
X117432380Y-95626428D01*
X117432380Y-96245476D01*
X116432380Y-96578809D02*
X116432380Y-97245476D01*
X117432380Y-96816904D01*
X159564523Y-153427380D02*
X159564523Y-154141666D01*
X159612142Y-154284523D01*
X159707380Y-154379761D01*
X159850238Y-154427380D01*
X159945476Y-154427380D01*
X159088333Y-154427380D02*
X159088333Y-153427380D01*
X158707380Y-153427380D01*
X158612142Y-153475000D01*
X158564523Y-153522619D01*
X158516904Y-153617857D01*
X158516904Y-153760714D01*
X158564523Y-153855952D01*
X158612142Y-153903571D01*
X158707380Y-153951190D01*
X159088333Y-153951190D01*
X158135952Y-153522619D02*
X158088333Y-153475000D01*
X157993095Y-153427380D01*
X157755000Y-153427380D01*
X157659761Y-153475000D01*
X157612142Y-153522619D01*
X157564523Y-153617857D01*
X157564523Y-153713095D01*
X157612142Y-153855952D01*
X158183571Y-154427380D01*
X157564523Y-154427380D01*
X156707380Y-153427380D02*
X156897857Y-153427380D01*
X156993095Y-153475000D01*
X157040714Y-153522619D01*
X157135952Y-153665476D01*
X157183571Y-153855952D01*
X157183571Y-154236904D01*
X157135952Y-154332142D01*
X157088333Y-154379761D01*
X156993095Y-154427380D01*
X156802619Y-154427380D01*
X156707380Y-154379761D01*
X156659761Y-154332142D01*
X156612142Y-154236904D01*
X156612142Y-153998809D01*
X156659761Y-153903571D01*
X156707380Y-153855952D01*
X156802619Y-153808333D01*
X156993095Y-153808333D01*
X157088333Y-153855952D01*
X157135952Y-153903571D01*
X157183571Y-153998809D01*
X155754523Y-150887380D02*
X155754523Y-151601666D01*
X155802142Y-151744523D01*
X155897380Y-151839761D01*
X156040238Y-151887380D01*
X156135476Y-151887380D01*
X155278333Y-151887380D02*
X155278333Y-150887380D01*
X154897380Y-150887380D01*
X154802142Y-150935000D01*
X154754523Y-150982619D01*
X154706904Y-151077857D01*
X154706904Y-151220714D01*
X154754523Y-151315952D01*
X154802142Y-151363571D01*
X154897380Y-151411190D01*
X155278333Y-151411190D01*
X154325952Y-150982619D02*
X154278333Y-150935000D01*
X154183095Y-150887380D01*
X153945000Y-150887380D01*
X153849761Y-150935000D01*
X153802142Y-150982619D01*
X153754523Y-151077857D01*
X153754523Y-151173095D01*
X153802142Y-151315952D01*
X154373571Y-151887380D01*
X153754523Y-151887380D01*
X152849761Y-150887380D02*
X153325952Y-150887380D01*
X153373571Y-151363571D01*
X153325952Y-151315952D01*
X153230714Y-151268333D01*
X152992619Y-151268333D01*
X152897380Y-151315952D01*
X152849761Y-151363571D01*
X152802142Y-151458809D01*
X152802142Y-151696904D01*
X152849761Y-151792142D01*
X152897380Y-151839761D01*
X152992619Y-151887380D01*
X153230714Y-151887380D01*
X153325952Y-151839761D01*
X153373571Y-151792142D01*
X155754523Y-155967380D02*
X155754523Y-156681666D01*
X155802142Y-156824523D01*
X155897380Y-156919761D01*
X156040238Y-156967380D01*
X156135476Y-156967380D01*
X155278333Y-156967380D02*
X155278333Y-155967380D01*
X154897380Y-155967380D01*
X154802142Y-156015000D01*
X154754523Y-156062619D01*
X154706904Y-156157857D01*
X154706904Y-156300714D01*
X154754523Y-156395952D01*
X154802142Y-156443571D01*
X154897380Y-156491190D01*
X155278333Y-156491190D01*
X154325952Y-156062619D02*
X154278333Y-156015000D01*
X154183095Y-155967380D01*
X153945000Y-155967380D01*
X153849761Y-156015000D01*
X153802142Y-156062619D01*
X153754523Y-156157857D01*
X153754523Y-156253095D01*
X153802142Y-156395952D01*
X154373571Y-156967380D01*
X153754523Y-156967380D01*
X152897380Y-156300714D02*
X152897380Y-156967380D01*
X153135476Y-155919761D02*
X153373571Y-156634047D01*
X152754523Y-156634047D01*
X146229523Y-155967380D02*
X146229523Y-156681666D01*
X146277142Y-156824523D01*
X146372380Y-156919761D01*
X146515238Y-156967380D01*
X146610476Y-156967380D01*
X145753333Y-156967380D02*
X145753333Y-155967380D01*
X145372380Y-155967380D01*
X145277142Y-156015000D01*
X145229523Y-156062619D01*
X145181904Y-156157857D01*
X145181904Y-156300714D01*
X145229523Y-156395952D01*
X145277142Y-156443571D01*
X145372380Y-156491190D01*
X145753333Y-156491190D01*
X144800952Y-156062619D02*
X144753333Y-156015000D01*
X144658095Y-155967380D01*
X144420000Y-155967380D01*
X144324761Y-156015000D01*
X144277142Y-156062619D01*
X144229523Y-156157857D01*
X144229523Y-156253095D01*
X144277142Y-156395952D01*
X144848571Y-156967380D01*
X144229523Y-156967380D01*
X143896190Y-155967380D02*
X143277142Y-155967380D01*
X143610476Y-156348333D01*
X143467619Y-156348333D01*
X143372380Y-156395952D01*
X143324761Y-156443571D01*
X143277142Y-156538809D01*
X143277142Y-156776904D01*
X143324761Y-156872142D01*
X143372380Y-156919761D01*
X143467619Y-156967380D01*
X143753333Y-156967380D01*
X143848571Y-156919761D01*
X143896190Y-156872142D01*
X122655380Y-154951476D02*
X123369666Y-154951476D01*
X123512523Y-154903857D01*
X123607761Y-154808619D01*
X123655380Y-154665761D01*
X123655380Y-154570523D01*
X123655380Y-155427666D02*
X122655380Y-155427666D01*
X122655380Y-155808619D01*
X122703000Y-155903857D01*
X122750619Y-155951476D01*
X122845857Y-155999095D01*
X122988714Y-155999095D01*
X123083952Y-155951476D01*
X123131571Y-155903857D01*
X123179190Y-155808619D01*
X123179190Y-155427666D01*
X122750619Y-156380047D02*
X122703000Y-156427666D01*
X122655380Y-156522904D01*
X122655380Y-156761000D01*
X122703000Y-156856238D01*
X122750619Y-156903857D01*
X122845857Y-156951476D01*
X122941095Y-156951476D01*
X123083952Y-156903857D01*
X123655380Y-156332428D01*
X123655380Y-156951476D01*
X122750619Y-157332428D02*
X122703000Y-157380047D01*
X122655380Y-157475285D01*
X122655380Y-157713380D01*
X122703000Y-157808619D01*
X122750619Y-157856238D01*
X122845857Y-157903857D01*
X122941095Y-157903857D01*
X123083952Y-157856238D01*
X123655380Y-157284809D01*
X123655380Y-157903857D01*
X146912380Y-143140476D02*
X147626666Y-143140476D01*
X147769523Y-143092857D01*
X147864761Y-142997619D01*
X147912380Y-142854761D01*
X147912380Y-142759523D01*
X147912380Y-143616666D02*
X146912380Y-143616666D01*
X146912380Y-143997619D01*
X146960000Y-144092857D01*
X147007619Y-144140476D01*
X147102857Y-144188095D01*
X147245714Y-144188095D01*
X147340952Y-144140476D01*
X147388571Y-144092857D01*
X147436190Y-143997619D01*
X147436190Y-143616666D01*
X147007619Y-144569047D02*
X146960000Y-144616666D01*
X146912380Y-144711904D01*
X146912380Y-144950000D01*
X146960000Y-145045238D01*
X147007619Y-145092857D01*
X147102857Y-145140476D01*
X147198095Y-145140476D01*
X147340952Y-145092857D01*
X147912380Y-144521428D01*
X147912380Y-145140476D01*
X147912380Y-146092857D02*
X147912380Y-145521428D01*
X147912380Y-145807142D02*
X146912380Y-145807142D01*
X147055238Y-145711904D01*
X147150476Y-145616666D01*
X147198095Y-145521428D01*
X144372380Y-143140476D02*
X145086666Y-143140476D01*
X145229523Y-143092857D01*
X145324761Y-142997619D01*
X145372380Y-142854761D01*
X145372380Y-142759523D01*
X145372380Y-143616666D02*
X144372380Y-143616666D01*
X144372380Y-143997619D01*
X144420000Y-144092857D01*
X144467619Y-144140476D01*
X144562857Y-144188095D01*
X144705714Y-144188095D01*
X144800952Y-144140476D01*
X144848571Y-144092857D01*
X144896190Y-143997619D01*
X144896190Y-143616666D01*
X144467619Y-144569047D02*
X144420000Y-144616666D01*
X144372380Y-144711904D01*
X144372380Y-144950000D01*
X144420000Y-145045238D01*
X144467619Y-145092857D01*
X144562857Y-145140476D01*
X144658095Y-145140476D01*
X144800952Y-145092857D01*
X145372380Y-144521428D01*
X145372380Y-145140476D01*
X144372380Y-145759523D02*
X144372380Y-145854761D01*
X144420000Y-145950000D01*
X144467619Y-145997619D01*
X144562857Y-146045238D01*
X144753333Y-146092857D01*
X144991428Y-146092857D01*
X145181904Y-146045238D01*
X145277142Y-145997619D01*
X145324761Y-145950000D01*
X145372380Y-145854761D01*
X145372380Y-145759523D01*
X145324761Y-145664285D01*
X145277142Y-145616666D01*
X145181904Y-145569047D01*
X144991428Y-145521428D01*
X144753333Y-145521428D01*
X144562857Y-145569047D01*
X144467619Y-145616666D01*
X144420000Y-145664285D01*
X144372380Y-145759523D01*
X141832380Y-143140476D02*
X142546666Y-143140476D01*
X142689523Y-143092857D01*
X142784761Y-142997619D01*
X142832380Y-142854761D01*
X142832380Y-142759523D01*
X142832380Y-143616666D02*
X141832380Y-143616666D01*
X141832380Y-143997619D01*
X141880000Y-144092857D01*
X141927619Y-144140476D01*
X142022857Y-144188095D01*
X142165714Y-144188095D01*
X142260952Y-144140476D01*
X142308571Y-144092857D01*
X142356190Y-143997619D01*
X142356190Y-143616666D01*
X142832380Y-145140476D02*
X142832380Y-144569047D01*
X142832380Y-144854761D02*
X141832380Y-144854761D01*
X141975238Y-144759523D01*
X142070476Y-144664285D01*
X142118095Y-144569047D01*
X142832380Y-145616666D02*
X142832380Y-145807142D01*
X142784761Y-145902380D01*
X142737142Y-145950000D01*
X142594285Y-146045238D01*
X142403809Y-146092857D01*
X142022857Y-146092857D01*
X141927619Y-146045238D01*
X141880000Y-145997619D01*
X141832380Y-145902380D01*
X141832380Y-145711904D01*
X141880000Y-145616666D01*
X141927619Y-145569047D01*
X142022857Y-145521428D01*
X142260952Y-145521428D01*
X142356190Y-145569047D01*
X142403809Y-145616666D01*
X142451428Y-145711904D01*
X142451428Y-145902380D01*
X142403809Y-145997619D01*
X142356190Y-146045238D01*
X142260952Y-146092857D01*
X139292380Y-143140476D02*
X140006666Y-143140476D01*
X140149523Y-143092857D01*
X140244761Y-142997619D01*
X140292380Y-142854761D01*
X140292380Y-142759523D01*
X140292380Y-143616666D02*
X139292380Y-143616666D01*
X139292380Y-143997619D01*
X139340000Y-144092857D01*
X139387619Y-144140476D01*
X139482857Y-144188095D01*
X139625714Y-144188095D01*
X139720952Y-144140476D01*
X139768571Y-144092857D01*
X139816190Y-143997619D01*
X139816190Y-143616666D01*
X140292380Y-145140476D02*
X140292380Y-144569047D01*
X140292380Y-144854761D02*
X139292380Y-144854761D01*
X139435238Y-144759523D01*
X139530476Y-144664285D01*
X139578095Y-144569047D01*
X139720952Y-145711904D02*
X139673333Y-145616666D01*
X139625714Y-145569047D01*
X139530476Y-145521428D01*
X139482857Y-145521428D01*
X139387619Y-145569047D01*
X139340000Y-145616666D01*
X139292380Y-145711904D01*
X139292380Y-145902380D01*
X139340000Y-145997619D01*
X139387619Y-146045238D01*
X139482857Y-146092857D01*
X139530476Y-146092857D01*
X139625714Y-146045238D01*
X139673333Y-145997619D01*
X139720952Y-145902380D01*
X139720952Y-145711904D01*
X139768571Y-145616666D01*
X139816190Y-145569047D01*
X139911428Y-145521428D01*
X140101904Y-145521428D01*
X140197142Y-145569047D01*
X140244761Y-145616666D01*
X140292380Y-145711904D01*
X140292380Y-145902380D01*
X140244761Y-145997619D01*
X140197142Y-146045238D01*
X140101904Y-146092857D01*
X139911428Y-146092857D01*
X139816190Y-146045238D01*
X139768571Y-145997619D01*
X139720952Y-145902380D01*
X126592380Y-143140476D02*
X127306666Y-143140476D01*
X127449523Y-143092857D01*
X127544761Y-142997619D01*
X127592380Y-142854761D01*
X127592380Y-142759523D01*
X127592380Y-143616666D02*
X126592380Y-143616666D01*
X126592380Y-143997619D01*
X126640000Y-144092857D01*
X126687619Y-144140476D01*
X126782857Y-144188095D01*
X126925714Y-144188095D01*
X127020952Y-144140476D01*
X127068571Y-144092857D01*
X127116190Y-143997619D01*
X127116190Y-143616666D01*
X127592380Y-145140476D02*
X127592380Y-144569047D01*
X127592380Y-144854761D02*
X126592380Y-144854761D01*
X126735238Y-144759523D01*
X126830476Y-144664285D01*
X126878095Y-144569047D01*
X126592380Y-145473809D02*
X126592380Y-146140476D01*
X127592380Y-145711904D01*
X124052380Y-143140476D02*
X124766666Y-143140476D01*
X124909523Y-143092857D01*
X125004761Y-142997619D01*
X125052380Y-142854761D01*
X125052380Y-142759523D01*
X125052380Y-143616666D02*
X124052380Y-143616666D01*
X124052380Y-143997619D01*
X124100000Y-144092857D01*
X124147619Y-144140476D01*
X124242857Y-144188095D01*
X124385714Y-144188095D01*
X124480952Y-144140476D01*
X124528571Y-144092857D01*
X124576190Y-143997619D01*
X124576190Y-143616666D01*
X125052380Y-145140476D02*
X125052380Y-144569047D01*
X125052380Y-144854761D02*
X124052380Y-144854761D01*
X124195238Y-144759523D01*
X124290476Y-144664285D01*
X124338095Y-144569047D01*
X124052380Y-145997619D02*
X124052380Y-145807142D01*
X124100000Y-145711904D01*
X124147619Y-145664285D01*
X124290476Y-145569047D01*
X124480952Y-145521428D01*
X124861904Y-145521428D01*
X124957142Y-145569047D01*
X125004761Y-145616666D01*
X125052380Y-145711904D01*
X125052380Y-145902380D01*
X125004761Y-145997619D01*
X124957142Y-146045238D01*
X124861904Y-146092857D01*
X124623809Y-146092857D01*
X124528571Y-146045238D01*
X124480952Y-145997619D01*
X124433333Y-145902380D01*
X124433333Y-145711904D01*
X124480952Y-145616666D01*
X124528571Y-145569047D01*
X124623809Y-145521428D01*
X126592380Y-114565476D02*
X127306666Y-114565476D01*
X127449523Y-114517857D01*
X127544761Y-114422619D01*
X127592380Y-114279761D01*
X127592380Y-114184523D01*
X127592380Y-115041666D02*
X126592380Y-115041666D01*
X126592380Y-115422619D01*
X126640000Y-115517857D01*
X126687619Y-115565476D01*
X126782857Y-115613095D01*
X126925714Y-115613095D01*
X127020952Y-115565476D01*
X127068571Y-115517857D01*
X127116190Y-115422619D01*
X127116190Y-115041666D01*
X127592380Y-116565476D02*
X127592380Y-115994047D01*
X127592380Y-116279761D02*
X126592380Y-116279761D01*
X126735238Y-116184523D01*
X126830476Y-116089285D01*
X126878095Y-115994047D01*
X126592380Y-117470238D02*
X126592380Y-116994047D01*
X127068571Y-116946428D01*
X127020952Y-116994047D01*
X126973333Y-117089285D01*
X126973333Y-117327380D01*
X127020952Y-117422619D01*
X127068571Y-117470238D01*
X127163809Y-117517857D01*
X127401904Y-117517857D01*
X127497142Y-117470238D01*
X127544761Y-117422619D01*
X127592380Y-117327380D01*
X127592380Y-117089285D01*
X127544761Y-116994047D01*
X127497142Y-116946428D01*
X131672380Y-114565476D02*
X132386666Y-114565476D01*
X132529523Y-114517857D01*
X132624761Y-114422619D01*
X132672380Y-114279761D01*
X132672380Y-114184523D01*
X132672380Y-115041666D02*
X131672380Y-115041666D01*
X131672380Y-115422619D01*
X131720000Y-115517857D01*
X131767619Y-115565476D01*
X131862857Y-115613095D01*
X132005714Y-115613095D01*
X132100952Y-115565476D01*
X132148571Y-115517857D01*
X132196190Y-115422619D01*
X132196190Y-115041666D01*
X132672380Y-116565476D02*
X132672380Y-115994047D01*
X132672380Y-116279761D02*
X131672380Y-116279761D01*
X131815238Y-116184523D01*
X131910476Y-116089285D01*
X131958095Y-115994047D01*
X132005714Y-117422619D02*
X132672380Y-117422619D01*
X131624761Y-117184523D02*
X132339047Y-116946428D01*
X132339047Y-117565476D01*
X129132380Y-114565476D02*
X129846666Y-114565476D01*
X129989523Y-114517857D01*
X130084761Y-114422619D01*
X130132380Y-114279761D01*
X130132380Y-114184523D01*
X130132380Y-115041666D02*
X129132380Y-115041666D01*
X129132380Y-115422619D01*
X129180000Y-115517857D01*
X129227619Y-115565476D01*
X129322857Y-115613095D01*
X129465714Y-115613095D01*
X129560952Y-115565476D01*
X129608571Y-115517857D01*
X129656190Y-115422619D01*
X129656190Y-115041666D01*
X130132380Y-116565476D02*
X130132380Y-115994047D01*
X130132380Y-116279761D02*
X129132380Y-116279761D01*
X129275238Y-116184523D01*
X129370476Y-116089285D01*
X129418095Y-115994047D01*
X129132380Y-116898809D02*
X129132380Y-117517857D01*
X129513333Y-117184523D01*
X129513333Y-117327380D01*
X129560952Y-117422619D01*
X129608571Y-117470238D01*
X129703809Y-117517857D01*
X129941904Y-117517857D01*
X130037142Y-117470238D01*
X130084761Y-117422619D01*
X130132380Y-117327380D01*
X130132380Y-117041666D01*
X130084761Y-116946428D01*
X130037142Y-116898809D01*
X124052380Y-115041666D02*
X124766666Y-115041666D01*
X124909523Y-114994047D01*
X125004761Y-114898809D01*
X125052380Y-114755952D01*
X125052380Y-114660714D01*
X125052380Y-115517857D02*
X124052380Y-115517857D01*
X124052380Y-115898809D01*
X124100000Y-115994047D01*
X124147619Y-116041666D01*
X124242857Y-116089285D01*
X124385714Y-116089285D01*
X124480952Y-116041666D01*
X124528571Y-115994047D01*
X124576190Y-115898809D01*
X124576190Y-115517857D01*
X124147619Y-116470238D02*
X124100000Y-116517857D01*
X124052380Y-116613095D01*
X124052380Y-116851190D01*
X124100000Y-116946428D01*
X124147619Y-116994047D01*
X124242857Y-117041666D01*
X124338095Y-117041666D01*
X124480952Y-116994047D01*
X125052380Y-116422619D01*
X125052380Y-117041666D01*
X121512380Y-115041666D02*
X122226666Y-115041666D01*
X122369523Y-114994047D01*
X122464761Y-114898809D01*
X122512380Y-114755952D01*
X122512380Y-114660714D01*
X122512380Y-115517857D02*
X121512380Y-115517857D01*
X121512380Y-115898809D01*
X121560000Y-115994047D01*
X121607619Y-116041666D01*
X121702857Y-116089285D01*
X121845714Y-116089285D01*
X121940952Y-116041666D01*
X121988571Y-115994047D01*
X122036190Y-115898809D01*
X122036190Y-115517857D01*
X122512380Y-117041666D02*
X122512380Y-116470238D01*
X122512380Y-116755952D02*
X121512380Y-116755952D01*
X121655238Y-116660714D01*
X121750476Y-116565476D01*
X121798095Y-116470238D01*
X213603047Y-114708142D02*
X213650666Y-114755761D01*
X213793523Y-114803380D01*
X213888761Y-114803380D01*
X214031619Y-114755761D01*
X214126857Y-114660523D01*
X214174476Y-114565285D01*
X214222095Y-114374809D01*
X214222095Y-114231952D01*
X214174476Y-114041476D01*
X214126857Y-113946238D01*
X214031619Y-113851000D01*
X213888761Y-113803380D01*
X213793523Y-113803380D01*
X213650666Y-113851000D01*
X213603047Y-113898619D01*
X212650666Y-114803380D02*
X213222095Y-114803380D01*
X212936380Y-114803380D02*
X212936380Y-113803380D01*
X213031619Y-113946238D01*
X213126857Y-114041476D01*
X213222095Y-114089095D01*
X212317333Y-113803380D02*
X211698285Y-113803380D01*
X212031619Y-114184333D01*
X211888761Y-114184333D01*
X211793523Y-114231952D01*
X211745904Y-114279571D01*
X211698285Y-114374809D01*
X211698285Y-114612904D01*
X211745904Y-114708142D01*
X211793523Y-114755761D01*
X211888761Y-114803380D01*
X212174476Y-114803380D01*
X212269714Y-114755761D01*
X212317333Y-114708142D01*
X211364952Y-113803380D02*
X210698285Y-113803380D01*
X211126857Y-114803380D01*
X206999047Y-118362142D02*
X207046666Y-118409761D01*
X207189523Y-118457380D01*
X207284761Y-118457380D01*
X207427619Y-118409761D01*
X207522857Y-118314523D01*
X207570476Y-118219285D01*
X207618095Y-118028809D01*
X207618095Y-117885952D01*
X207570476Y-117695476D01*
X207522857Y-117600238D01*
X207427619Y-117505000D01*
X207284761Y-117457380D01*
X207189523Y-117457380D01*
X207046666Y-117505000D01*
X206999047Y-117552619D01*
X206046666Y-118457380D02*
X206618095Y-118457380D01*
X206332380Y-118457380D02*
X206332380Y-117457380D01*
X206427619Y-117600238D01*
X206522857Y-117695476D01*
X206618095Y-117743095D01*
X205713333Y-117457380D02*
X205094285Y-117457380D01*
X205427619Y-117838333D01*
X205284761Y-117838333D01*
X205189523Y-117885952D01*
X205141904Y-117933571D01*
X205094285Y-118028809D01*
X205094285Y-118266904D01*
X205141904Y-118362142D01*
X205189523Y-118409761D01*
X205284761Y-118457380D01*
X205570476Y-118457380D01*
X205665714Y-118409761D01*
X205713333Y-118362142D01*
X204237142Y-117457380D02*
X204427619Y-117457380D01*
X204522857Y-117505000D01*
X204570476Y-117552619D01*
X204665714Y-117695476D01*
X204713333Y-117885952D01*
X204713333Y-118266904D01*
X204665714Y-118362142D01*
X204618095Y-118409761D01*
X204522857Y-118457380D01*
X204332380Y-118457380D01*
X204237142Y-118409761D01*
X204189523Y-118362142D01*
X204141904Y-118266904D01*
X204141904Y-118028809D01*
X204189523Y-117933571D01*
X204237142Y-117885952D01*
X204332380Y-117838333D01*
X204522857Y-117838333D01*
X204618095Y-117885952D01*
X204665714Y-117933571D01*
X204713333Y-118028809D01*
X141467142Y-72210952D02*
X141514761Y-72163333D01*
X141562380Y-72020476D01*
X141562380Y-71925238D01*
X141514761Y-71782380D01*
X141419523Y-71687142D01*
X141324285Y-71639523D01*
X141133809Y-71591904D01*
X140990952Y-71591904D01*
X140800476Y-71639523D01*
X140705238Y-71687142D01*
X140610000Y-71782380D01*
X140562380Y-71925238D01*
X140562380Y-72020476D01*
X140610000Y-72163333D01*
X140657619Y-72210952D01*
X141562380Y-73163333D02*
X141562380Y-72591904D01*
X141562380Y-72877619D02*
X140562380Y-72877619D01*
X140705238Y-72782380D01*
X140800476Y-72687142D01*
X140848095Y-72591904D01*
X140562380Y-73496666D02*
X140562380Y-74115714D01*
X140943333Y-73782380D01*
X140943333Y-73925238D01*
X140990952Y-74020476D01*
X141038571Y-74068095D01*
X141133809Y-74115714D01*
X141371904Y-74115714D01*
X141467142Y-74068095D01*
X141514761Y-74020476D01*
X141562380Y-73925238D01*
X141562380Y-73639523D01*
X141514761Y-73544285D01*
X141467142Y-73496666D01*
X140562380Y-75020476D02*
X140562380Y-74544285D01*
X141038571Y-74496666D01*
X140990952Y-74544285D01*
X140943333Y-74639523D01*
X140943333Y-74877619D01*
X140990952Y-74972857D01*
X141038571Y-75020476D01*
X141133809Y-75068095D01*
X141371904Y-75068095D01*
X141467142Y-75020476D01*
X141514761Y-74972857D01*
X141562380Y-74877619D01*
X141562380Y-74639523D01*
X141514761Y-74544285D01*
X141467142Y-74496666D01*
X212587047Y-99787142D02*
X212634666Y-99834761D01*
X212777523Y-99882380D01*
X212872761Y-99882380D01*
X213015619Y-99834761D01*
X213110857Y-99739523D01*
X213158476Y-99644285D01*
X213206095Y-99453809D01*
X213206095Y-99310952D01*
X213158476Y-99120476D01*
X213110857Y-99025238D01*
X213015619Y-98930000D01*
X212872761Y-98882380D01*
X212777523Y-98882380D01*
X212634666Y-98930000D01*
X212587047Y-98977619D01*
X211634666Y-99882380D02*
X212206095Y-99882380D01*
X211920380Y-99882380D02*
X211920380Y-98882380D01*
X212015619Y-99025238D01*
X212110857Y-99120476D01*
X212206095Y-99168095D01*
X211301333Y-98882380D02*
X210682285Y-98882380D01*
X211015619Y-99263333D01*
X210872761Y-99263333D01*
X210777523Y-99310952D01*
X210729904Y-99358571D01*
X210682285Y-99453809D01*
X210682285Y-99691904D01*
X210729904Y-99787142D01*
X210777523Y-99834761D01*
X210872761Y-99882380D01*
X211158476Y-99882380D01*
X211253714Y-99834761D01*
X211301333Y-99787142D01*
X209825142Y-99215714D02*
X209825142Y-99882380D01*
X210063238Y-98834761D02*
X210301333Y-99549047D01*
X209682285Y-99549047D01*
X194807047Y-126227142D02*
X194854666Y-126274761D01*
X194997523Y-126322380D01*
X195092761Y-126322380D01*
X195235619Y-126274761D01*
X195330857Y-126179523D01*
X195378476Y-126084285D01*
X195426095Y-125893809D01*
X195426095Y-125750952D01*
X195378476Y-125560476D01*
X195330857Y-125465238D01*
X195235619Y-125370000D01*
X195092761Y-125322380D01*
X194997523Y-125322380D01*
X194854666Y-125370000D01*
X194807047Y-125417619D01*
X193854666Y-126322380D02*
X194426095Y-126322380D01*
X194140380Y-126322380D02*
X194140380Y-125322380D01*
X194235619Y-125465238D01*
X194330857Y-125560476D01*
X194426095Y-125608095D01*
X193521333Y-125322380D02*
X192902285Y-125322380D01*
X193235619Y-125703333D01*
X193092761Y-125703333D01*
X192997523Y-125750952D01*
X192949904Y-125798571D01*
X192902285Y-125893809D01*
X192902285Y-126131904D01*
X192949904Y-126227142D01*
X192997523Y-126274761D01*
X193092761Y-126322380D01*
X193378476Y-126322380D01*
X193473714Y-126274761D01*
X193521333Y-126227142D01*
X192568952Y-125322380D02*
X191949904Y-125322380D01*
X192283238Y-125703333D01*
X192140380Y-125703333D01*
X192045142Y-125750952D01*
X191997523Y-125798571D01*
X191949904Y-125893809D01*
X191949904Y-126131904D01*
X191997523Y-126227142D01*
X192045142Y-126274761D01*
X192140380Y-126322380D01*
X192426095Y-126322380D01*
X192521333Y-126274761D01*
X192568952Y-126227142D01*
X182107047Y-128424142D02*
X182154666Y-128471761D01*
X182297523Y-128519380D01*
X182392761Y-128519380D01*
X182535619Y-128471761D01*
X182630857Y-128376523D01*
X182678476Y-128281285D01*
X182726095Y-128090809D01*
X182726095Y-127947952D01*
X182678476Y-127757476D01*
X182630857Y-127662238D01*
X182535619Y-127567000D01*
X182392761Y-127519380D01*
X182297523Y-127519380D01*
X182154666Y-127567000D01*
X182107047Y-127614619D01*
X181154666Y-128519380D02*
X181726095Y-128519380D01*
X181440380Y-128519380D02*
X181440380Y-127519380D01*
X181535619Y-127662238D01*
X181630857Y-127757476D01*
X181726095Y-127805095D01*
X180821333Y-127519380D02*
X180202285Y-127519380D01*
X180535619Y-127900333D01*
X180392761Y-127900333D01*
X180297523Y-127947952D01*
X180249904Y-127995571D01*
X180202285Y-128090809D01*
X180202285Y-128328904D01*
X180249904Y-128424142D01*
X180297523Y-128471761D01*
X180392761Y-128519380D01*
X180678476Y-128519380D01*
X180773714Y-128471761D01*
X180821333Y-128424142D01*
X179821333Y-127614619D02*
X179773714Y-127567000D01*
X179678476Y-127519380D01*
X179440380Y-127519380D01*
X179345142Y-127567000D01*
X179297523Y-127614619D01*
X179249904Y-127709857D01*
X179249904Y-127805095D01*
X179297523Y-127947952D01*
X179868952Y-128519380D01*
X179249904Y-128519380D01*
X188819047Y-75527142D02*
X188866666Y-75574761D01*
X189009523Y-75622380D01*
X189104761Y-75622380D01*
X189247619Y-75574761D01*
X189342857Y-75479523D01*
X189390476Y-75384285D01*
X189438095Y-75193809D01*
X189438095Y-75050952D01*
X189390476Y-74860476D01*
X189342857Y-74765238D01*
X189247619Y-74670000D01*
X189104761Y-74622380D01*
X189009523Y-74622380D01*
X188866666Y-74670000D01*
X188819047Y-74717619D01*
X187866666Y-75622380D02*
X188438095Y-75622380D01*
X188152380Y-75622380D02*
X188152380Y-74622380D01*
X188247619Y-74765238D01*
X188342857Y-74860476D01*
X188438095Y-74908095D01*
X187533333Y-74622380D02*
X186914285Y-74622380D01*
X187247619Y-75003333D01*
X187104761Y-75003333D01*
X187009523Y-75050952D01*
X186961904Y-75098571D01*
X186914285Y-75193809D01*
X186914285Y-75431904D01*
X186961904Y-75527142D01*
X187009523Y-75574761D01*
X187104761Y-75622380D01*
X187390476Y-75622380D01*
X187485714Y-75574761D01*
X187533333Y-75527142D01*
X185961904Y-75622380D02*
X186533333Y-75622380D01*
X186247619Y-75622380D02*
X186247619Y-74622380D01*
X186342857Y-74765238D01*
X186438095Y-74860476D01*
X186533333Y-74908095D01*
X195319047Y-84952142D02*
X195366666Y-84999761D01*
X195509523Y-85047380D01*
X195604761Y-85047380D01*
X195747619Y-84999761D01*
X195842857Y-84904523D01*
X195890476Y-84809285D01*
X195938095Y-84618809D01*
X195938095Y-84475952D01*
X195890476Y-84285476D01*
X195842857Y-84190238D01*
X195747619Y-84095000D01*
X195604761Y-84047380D01*
X195509523Y-84047380D01*
X195366666Y-84095000D01*
X195319047Y-84142619D01*
X194366666Y-85047380D02*
X194938095Y-85047380D01*
X194652380Y-85047380D02*
X194652380Y-84047380D01*
X194747619Y-84190238D01*
X194842857Y-84285476D01*
X194938095Y-84333095D01*
X194033333Y-84047380D02*
X193414285Y-84047380D01*
X193747619Y-84428333D01*
X193604761Y-84428333D01*
X193509523Y-84475952D01*
X193461904Y-84523571D01*
X193414285Y-84618809D01*
X193414285Y-84856904D01*
X193461904Y-84952142D01*
X193509523Y-84999761D01*
X193604761Y-85047380D01*
X193890476Y-85047380D01*
X193985714Y-84999761D01*
X194033333Y-84952142D01*
X192795238Y-84047380D02*
X192700000Y-84047380D01*
X192604761Y-84095000D01*
X192557142Y-84142619D01*
X192509523Y-84237857D01*
X192461904Y-84428333D01*
X192461904Y-84666428D01*
X192509523Y-84856904D01*
X192557142Y-84952142D01*
X192604761Y-84999761D01*
X192700000Y-85047380D01*
X192795238Y-85047380D01*
X192890476Y-84999761D01*
X192938095Y-84952142D01*
X192985714Y-84856904D01*
X193033333Y-84666428D01*
X193033333Y-84428333D01*
X192985714Y-84237857D01*
X192938095Y-84142619D01*
X192890476Y-84095000D01*
X192795238Y-84047380D01*
X177154047Y-48287142D02*
X177201666Y-48334761D01*
X177344523Y-48382380D01*
X177439761Y-48382380D01*
X177582619Y-48334761D01*
X177677857Y-48239523D01*
X177725476Y-48144285D01*
X177773095Y-47953809D01*
X177773095Y-47810952D01*
X177725476Y-47620476D01*
X177677857Y-47525238D01*
X177582619Y-47430000D01*
X177439761Y-47382380D01*
X177344523Y-47382380D01*
X177201666Y-47430000D01*
X177154047Y-47477619D01*
X176201666Y-48382380D02*
X176773095Y-48382380D01*
X176487380Y-48382380D02*
X176487380Y-47382380D01*
X176582619Y-47525238D01*
X176677857Y-47620476D01*
X176773095Y-47668095D01*
X175820714Y-47477619D02*
X175773095Y-47430000D01*
X175677857Y-47382380D01*
X175439761Y-47382380D01*
X175344523Y-47430000D01*
X175296904Y-47477619D01*
X175249285Y-47572857D01*
X175249285Y-47668095D01*
X175296904Y-47810952D01*
X175868333Y-48382380D01*
X175249285Y-48382380D01*
X174773095Y-48382380D02*
X174582619Y-48382380D01*
X174487380Y-48334761D01*
X174439761Y-48287142D01*
X174344523Y-48144285D01*
X174296904Y-47953809D01*
X174296904Y-47572857D01*
X174344523Y-47477619D01*
X174392142Y-47430000D01*
X174487380Y-47382380D01*
X174677857Y-47382380D01*
X174773095Y-47430000D01*
X174820714Y-47477619D01*
X174868333Y-47572857D01*
X174868333Y-47810952D01*
X174820714Y-47906190D01*
X174773095Y-47953809D01*
X174677857Y-48001428D01*
X174487380Y-48001428D01*
X174392142Y-47953809D01*
X174344523Y-47906190D01*
X174296904Y-47810952D01*
X134609047Y-82577142D02*
X134656666Y-82624761D01*
X134799523Y-82672380D01*
X134894761Y-82672380D01*
X135037619Y-82624761D01*
X135132857Y-82529523D01*
X135180476Y-82434285D01*
X135228095Y-82243809D01*
X135228095Y-82100952D01*
X135180476Y-81910476D01*
X135132857Y-81815238D01*
X135037619Y-81720000D01*
X134894761Y-81672380D01*
X134799523Y-81672380D01*
X134656666Y-81720000D01*
X134609047Y-81767619D01*
X133656666Y-82672380D02*
X134228095Y-82672380D01*
X133942380Y-82672380D02*
X133942380Y-81672380D01*
X134037619Y-81815238D01*
X134132857Y-81910476D01*
X134228095Y-81958095D01*
X133275714Y-81767619D02*
X133228095Y-81720000D01*
X133132857Y-81672380D01*
X132894761Y-81672380D01*
X132799523Y-81720000D01*
X132751904Y-81767619D01*
X132704285Y-81862857D01*
X132704285Y-81958095D01*
X132751904Y-82100952D01*
X133323333Y-82672380D01*
X132704285Y-82672380D01*
X132132857Y-82100952D02*
X132228095Y-82053333D01*
X132275714Y-82005714D01*
X132323333Y-81910476D01*
X132323333Y-81862857D01*
X132275714Y-81767619D01*
X132228095Y-81720000D01*
X132132857Y-81672380D01*
X131942380Y-81672380D01*
X131847142Y-81720000D01*
X131799523Y-81767619D01*
X131751904Y-81862857D01*
X131751904Y-81910476D01*
X131799523Y-82005714D01*
X131847142Y-82053333D01*
X131942380Y-82100952D01*
X132132857Y-82100952D01*
X132228095Y-82148571D01*
X132275714Y-82196190D01*
X132323333Y-82291428D01*
X132323333Y-82481904D01*
X132275714Y-82577142D01*
X132228095Y-82624761D01*
X132132857Y-82672380D01*
X131942380Y-82672380D01*
X131847142Y-82624761D01*
X131799523Y-82577142D01*
X131751904Y-82481904D01*
X131751904Y-82291428D01*
X131799523Y-82196190D01*
X131847142Y-82148571D01*
X131942380Y-82100952D01*
X189727047Y-125376142D02*
X189774666Y-125423761D01*
X189917523Y-125471380D01*
X190012761Y-125471380D01*
X190155619Y-125423761D01*
X190250857Y-125328523D01*
X190298476Y-125233285D01*
X190346095Y-125042809D01*
X190346095Y-124899952D01*
X190298476Y-124709476D01*
X190250857Y-124614238D01*
X190155619Y-124519000D01*
X190012761Y-124471380D01*
X189917523Y-124471380D01*
X189774666Y-124519000D01*
X189727047Y-124566619D01*
X188774666Y-125471380D02*
X189346095Y-125471380D01*
X189060380Y-125471380D02*
X189060380Y-124471380D01*
X189155619Y-124614238D01*
X189250857Y-124709476D01*
X189346095Y-124757095D01*
X188393714Y-124566619D02*
X188346095Y-124519000D01*
X188250857Y-124471380D01*
X188012761Y-124471380D01*
X187917523Y-124519000D01*
X187869904Y-124566619D01*
X187822285Y-124661857D01*
X187822285Y-124757095D01*
X187869904Y-124899952D01*
X188441333Y-125471380D01*
X187822285Y-125471380D01*
X187488952Y-124471380D02*
X186822285Y-124471380D01*
X187250857Y-125471380D01*
X180075047Y-75137142D02*
X180122666Y-75184761D01*
X180265523Y-75232380D01*
X180360761Y-75232380D01*
X180503619Y-75184761D01*
X180598857Y-75089523D01*
X180646476Y-74994285D01*
X180694095Y-74803809D01*
X180694095Y-74660952D01*
X180646476Y-74470476D01*
X180598857Y-74375238D01*
X180503619Y-74280000D01*
X180360761Y-74232380D01*
X180265523Y-74232380D01*
X180122666Y-74280000D01*
X180075047Y-74327619D01*
X179122666Y-75232380D02*
X179694095Y-75232380D01*
X179408380Y-75232380D02*
X179408380Y-74232380D01*
X179503619Y-74375238D01*
X179598857Y-74470476D01*
X179694095Y-74518095D01*
X178741714Y-74327619D02*
X178694095Y-74280000D01*
X178598857Y-74232380D01*
X178360761Y-74232380D01*
X178265523Y-74280000D01*
X178217904Y-74327619D01*
X178170285Y-74422857D01*
X178170285Y-74518095D01*
X178217904Y-74660952D01*
X178789333Y-75232380D01*
X178170285Y-75232380D01*
X177313142Y-74232380D02*
X177503619Y-74232380D01*
X177598857Y-74280000D01*
X177646476Y-74327619D01*
X177741714Y-74470476D01*
X177789333Y-74660952D01*
X177789333Y-75041904D01*
X177741714Y-75137142D01*
X177694095Y-75184761D01*
X177598857Y-75232380D01*
X177408380Y-75232380D01*
X177313142Y-75184761D01*
X177265523Y-75137142D01*
X177217904Y-75041904D01*
X177217904Y-74803809D01*
X177265523Y-74708571D01*
X177313142Y-74660952D01*
X177408380Y-74613333D01*
X177598857Y-74613333D01*
X177694095Y-74660952D01*
X177741714Y-74708571D01*
X177789333Y-74803809D01*
X190235047Y-112168142D02*
X190282666Y-112215761D01*
X190425523Y-112263380D01*
X190520761Y-112263380D01*
X190663619Y-112215761D01*
X190758857Y-112120523D01*
X190806476Y-112025285D01*
X190854095Y-111834809D01*
X190854095Y-111691952D01*
X190806476Y-111501476D01*
X190758857Y-111406238D01*
X190663619Y-111311000D01*
X190520761Y-111263380D01*
X190425523Y-111263380D01*
X190282666Y-111311000D01*
X190235047Y-111358619D01*
X189282666Y-112263380D02*
X189854095Y-112263380D01*
X189568380Y-112263380D02*
X189568380Y-111263380D01*
X189663619Y-111406238D01*
X189758857Y-111501476D01*
X189854095Y-111549095D01*
X188901714Y-111358619D02*
X188854095Y-111311000D01*
X188758857Y-111263380D01*
X188520761Y-111263380D01*
X188425523Y-111311000D01*
X188377904Y-111358619D01*
X188330285Y-111453857D01*
X188330285Y-111549095D01*
X188377904Y-111691952D01*
X188949333Y-112263380D01*
X188330285Y-112263380D01*
X187425523Y-111263380D02*
X187901714Y-111263380D01*
X187949333Y-111739571D01*
X187901714Y-111691952D01*
X187806476Y-111644333D01*
X187568380Y-111644333D01*
X187473142Y-111691952D01*
X187425523Y-111739571D01*
X187377904Y-111834809D01*
X187377904Y-112072904D01*
X187425523Y-112168142D01*
X187473142Y-112215761D01*
X187568380Y-112263380D01*
X187806476Y-112263380D01*
X187901714Y-112215761D01*
X187949333Y-112168142D01*
X165419047Y-130452142D02*
X165466666Y-130499761D01*
X165609523Y-130547380D01*
X165704761Y-130547380D01*
X165847619Y-130499761D01*
X165942857Y-130404523D01*
X165990476Y-130309285D01*
X166038095Y-130118809D01*
X166038095Y-129975952D01*
X165990476Y-129785476D01*
X165942857Y-129690238D01*
X165847619Y-129595000D01*
X165704761Y-129547380D01*
X165609523Y-129547380D01*
X165466666Y-129595000D01*
X165419047Y-129642619D01*
X164466666Y-130547380D02*
X165038095Y-130547380D01*
X164752380Y-130547380D02*
X164752380Y-129547380D01*
X164847619Y-129690238D01*
X164942857Y-129785476D01*
X165038095Y-129833095D01*
X164085714Y-129642619D02*
X164038095Y-129595000D01*
X163942857Y-129547380D01*
X163704761Y-129547380D01*
X163609523Y-129595000D01*
X163561904Y-129642619D01*
X163514285Y-129737857D01*
X163514285Y-129833095D01*
X163561904Y-129975952D01*
X164133333Y-130547380D01*
X163514285Y-130547380D01*
X162657142Y-129880714D02*
X162657142Y-130547380D01*
X162895238Y-129499761D02*
X163133333Y-130214047D01*
X162514285Y-130214047D01*
X158739047Y-60860142D02*
X158786666Y-60907761D01*
X158929523Y-60955380D01*
X159024761Y-60955380D01*
X159167619Y-60907761D01*
X159262857Y-60812523D01*
X159310476Y-60717285D01*
X159358095Y-60526809D01*
X159358095Y-60383952D01*
X159310476Y-60193476D01*
X159262857Y-60098238D01*
X159167619Y-60003000D01*
X159024761Y-59955380D01*
X158929523Y-59955380D01*
X158786666Y-60003000D01*
X158739047Y-60050619D01*
X157786666Y-60955380D02*
X158358095Y-60955380D01*
X158072380Y-60955380D02*
X158072380Y-59955380D01*
X158167619Y-60098238D01*
X158262857Y-60193476D01*
X158358095Y-60241095D01*
X157405714Y-60050619D02*
X157358095Y-60003000D01*
X157262857Y-59955380D01*
X157024761Y-59955380D01*
X156929523Y-60003000D01*
X156881904Y-60050619D01*
X156834285Y-60145857D01*
X156834285Y-60241095D01*
X156881904Y-60383952D01*
X157453333Y-60955380D01*
X156834285Y-60955380D01*
X156500952Y-59955380D02*
X155881904Y-59955380D01*
X156215238Y-60336333D01*
X156072380Y-60336333D01*
X155977142Y-60383952D01*
X155929523Y-60431571D01*
X155881904Y-60526809D01*
X155881904Y-60764904D01*
X155929523Y-60860142D01*
X155977142Y-60907761D01*
X156072380Y-60955380D01*
X156358095Y-60955380D01*
X156453333Y-60907761D01*
X156500952Y-60860142D01*
X162803047Y-54256142D02*
X162850666Y-54303761D01*
X162993523Y-54351380D01*
X163088761Y-54351380D01*
X163231619Y-54303761D01*
X163326857Y-54208523D01*
X163374476Y-54113285D01*
X163422095Y-53922809D01*
X163422095Y-53779952D01*
X163374476Y-53589476D01*
X163326857Y-53494238D01*
X163231619Y-53399000D01*
X163088761Y-53351380D01*
X162993523Y-53351380D01*
X162850666Y-53399000D01*
X162803047Y-53446619D01*
X161850666Y-54351380D02*
X162422095Y-54351380D01*
X162136380Y-54351380D02*
X162136380Y-53351380D01*
X162231619Y-53494238D01*
X162326857Y-53589476D01*
X162422095Y-53637095D01*
X161469714Y-53446619D02*
X161422095Y-53399000D01*
X161326857Y-53351380D01*
X161088761Y-53351380D01*
X160993523Y-53399000D01*
X160945904Y-53446619D01*
X160898285Y-53541857D01*
X160898285Y-53637095D01*
X160945904Y-53779952D01*
X161517333Y-54351380D01*
X160898285Y-54351380D01*
X160517333Y-53446619D02*
X160469714Y-53399000D01*
X160374476Y-53351380D01*
X160136380Y-53351380D01*
X160041142Y-53399000D01*
X159993523Y-53446619D01*
X159945904Y-53541857D01*
X159945904Y-53637095D01*
X159993523Y-53779952D01*
X160564952Y-54351380D01*
X159945904Y-54351380D01*
M02*
