M48
; DRILL file {KiCad 5.1.4} date Tue 17 Sep 2019 11:23:39 PM CEST
; FORMAT={-:-/ absolute / inch / decimal}
; #@! TF.CreationDate,2019-09-17T23:23:39+02:00
; #@! TF.GenerationSoftware,Kicad,Pcbnew,5.1.4
; #@! TF.FileFunction,Plated,1,2,PTH
FMAT,2
INCH
T1C0.0157
T2C0.0197
T3C0.1260
%
G90
G05
T1
X3.8752Y-5.1058
X3.8852Y-4.9508
X3.9102Y-5.1058
X3.9202Y-4.9508
X3.9652Y-4.6658
X3.9652Y-4.7008
X4.0502Y-4.9158
X4.0502Y-5.1058
X4.2652Y-4.8058
X4.2652Y-4.8408
X4.3002Y-4.8408
X4.3002Y-4.8758
X4.3002Y-4.9108
X4.5452Y-4.6958
X4.5452Y-4.7358
X4.5452Y-4.9158
X4.5452Y-4.9608
X4.6552Y-4.6958
X4.6552Y-4.7358
X4.6552Y-4.9158
X4.6552Y-4.9608
X4.8702Y-4.6958
X4.8702Y-4.7358
X4.8702Y-4.9158
X4.8702Y-4.9608
X4.9802Y-4.6958
X4.9802Y-4.7358
X4.9802Y-4.9158
X4.9802Y-4.9608
T2
X3.5Y-5.1659
X3.5277Y-5.0991
X3.5277Y-5.2328
X3.5945Y-5.0715
X3.5945Y-5.2604
X3.6613Y-5.0991
X3.6613Y-5.2328
X3.689Y-5.1659
X3.5Y-4.6856
X3.5277Y-4.6188
X3.5277Y-4.7524
X3.5945Y-4.5911
X3.5945Y-4.7801
X3.6613Y-4.6188
X3.6613Y-4.7524
X3.689Y-4.6856
X5.1614Y-5.1659
X5.1891Y-5.0991
X5.1891Y-5.2328
X5.2559Y-5.0715
X5.2559Y-5.2604
X5.3227Y-5.0991
X5.3227Y-5.2328
X5.3504Y-5.1659
X5.1614Y-4.6856
X5.1891Y-4.6188
X5.1891Y-4.7524
X5.2559Y-4.5911
X5.2559Y-4.7801
X5.3227Y-4.6188
X5.3227Y-4.7524
X5.3504Y-4.6856
T3
X3.5945Y-5.1659
X3.5945Y-4.6856
X5.2559Y-5.1659
X5.2559Y-4.6856
T0
M30
