G04 #@! TF.GenerationSoftware,KiCad,Pcbnew,5.1.4*
G04 #@! TF.CreationDate,2019-09-17T23:22:18+02:00*
G04 #@! TF.ProjectId,Tunnelling-Amp,54756e6e-656c-46c6-996e-672d416d702e,rev?*
G04 #@! TF.SameCoordinates,Original*
G04 #@! TF.FileFunction,Copper,L1,Top*
G04 #@! TF.FilePolarity,Positive*
%FSLAX46Y46*%
G04 Gerber Fmt 4.6, Leading zero omitted, Abs format (unit mm)*
G04 Created by KiCad (PCBNEW 5.1.4) date 2019-09-17 23:22:18*
%MOMM*%
%LPD*%
G04 APERTURE LIST*
%ADD10C,0.050000*%
%ADD11C,0.150000*%
%ADD12C,0.600000*%
%ADD13C,1.425000*%
%ADD14R,2.130000X1.000000*%
%ADD15R,3.800000X1.000000*%
%ADD16R,1.000000X1.650000*%
%ADD17R,1.000000X3.800000*%
%ADD18R,1.000000X1.000000*%
%ADD19R,2.500000X2.500000*%
%ADD20C,6.400000*%
%ADD21C,0.800000*%
%ADD22C,1.600000*%
%ADD23C,1.150000*%
%ADD24C,0.950000*%
%ADD25C,0.300000*%
%ADD26C,0.200000*%
%ADD27C,0.500000*%
%ADD28C,0.250000*%
G04 APERTURE END LIST*
D10*
X137300000Y-131215000D02*
X137300000Y-119115000D01*
X91300000Y-135015000D02*
X133500000Y-135015000D01*
X87500000Y-119015000D02*
X87500000Y-131215000D01*
X133500000Y-115213684D02*
X91300000Y-115215000D01*
X137300000Y-131215000D02*
G75*
G02X133500000Y-135015000I-3800000J0D01*
G01*
X133500000Y-115213684D02*
G75*
G02X137300000Y-119115000I0J-3801316D01*
G01*
X87500000Y-119015000D02*
G75*
G02X91300000Y-115215000I3800000J0D01*
G01*
X91300000Y-135015000D02*
G75*
G02X87500000Y-131215000I0J3800000D01*
G01*
D11*
G36*
X102120703Y-126720722D02*
G01*
X102135264Y-126722882D01*
X102149543Y-126726459D01*
X102163403Y-126731418D01*
X102176710Y-126737712D01*
X102189336Y-126745280D01*
X102201159Y-126754048D01*
X102212066Y-126763934D01*
X102221952Y-126774841D01*
X102230720Y-126786664D01*
X102238288Y-126799290D01*
X102244582Y-126812597D01*
X102249541Y-126826457D01*
X102253118Y-126840736D01*
X102255278Y-126855297D01*
X102256000Y-126870000D01*
X102256000Y-127170000D01*
X102255278Y-127184703D01*
X102253118Y-127199264D01*
X102249541Y-127213543D01*
X102244582Y-127227403D01*
X102238288Y-127240710D01*
X102230720Y-127253336D01*
X102221952Y-127265159D01*
X102212066Y-127276066D01*
X102201159Y-127285952D01*
X102189336Y-127294720D01*
X102176710Y-127302288D01*
X102163403Y-127308582D01*
X102149543Y-127313541D01*
X102135264Y-127317118D01*
X102120703Y-127319278D01*
X102106000Y-127320000D01*
X100456000Y-127320000D01*
X100441297Y-127319278D01*
X100426736Y-127317118D01*
X100412457Y-127313541D01*
X100398597Y-127308582D01*
X100385290Y-127302288D01*
X100372664Y-127294720D01*
X100360841Y-127285952D01*
X100349934Y-127276066D01*
X100340048Y-127265159D01*
X100331280Y-127253336D01*
X100323712Y-127240710D01*
X100317418Y-127227403D01*
X100312459Y-127213543D01*
X100308882Y-127199264D01*
X100306722Y-127184703D01*
X100306000Y-127170000D01*
X100306000Y-126870000D01*
X100306722Y-126855297D01*
X100308882Y-126840736D01*
X100312459Y-126826457D01*
X100317418Y-126812597D01*
X100323712Y-126799290D01*
X100331280Y-126786664D01*
X100340048Y-126774841D01*
X100349934Y-126763934D01*
X100360841Y-126754048D01*
X100372664Y-126745280D01*
X100385290Y-126737712D01*
X100398597Y-126731418D01*
X100412457Y-126726459D01*
X100426736Y-126722882D01*
X100441297Y-126720722D01*
X100456000Y-126720000D01*
X102106000Y-126720000D01*
X102120703Y-126720722D01*
X102120703Y-126720722D01*
G37*
D12*
X101281000Y-127020000D03*
D11*
G36*
X102120703Y-125450722D02*
G01*
X102135264Y-125452882D01*
X102149543Y-125456459D01*
X102163403Y-125461418D01*
X102176710Y-125467712D01*
X102189336Y-125475280D01*
X102201159Y-125484048D01*
X102212066Y-125493934D01*
X102221952Y-125504841D01*
X102230720Y-125516664D01*
X102238288Y-125529290D01*
X102244582Y-125542597D01*
X102249541Y-125556457D01*
X102253118Y-125570736D01*
X102255278Y-125585297D01*
X102256000Y-125600000D01*
X102256000Y-125900000D01*
X102255278Y-125914703D01*
X102253118Y-125929264D01*
X102249541Y-125943543D01*
X102244582Y-125957403D01*
X102238288Y-125970710D01*
X102230720Y-125983336D01*
X102221952Y-125995159D01*
X102212066Y-126006066D01*
X102201159Y-126015952D01*
X102189336Y-126024720D01*
X102176710Y-126032288D01*
X102163403Y-126038582D01*
X102149543Y-126043541D01*
X102135264Y-126047118D01*
X102120703Y-126049278D01*
X102106000Y-126050000D01*
X100456000Y-126050000D01*
X100441297Y-126049278D01*
X100426736Y-126047118D01*
X100412457Y-126043541D01*
X100398597Y-126038582D01*
X100385290Y-126032288D01*
X100372664Y-126024720D01*
X100360841Y-126015952D01*
X100349934Y-126006066D01*
X100340048Y-125995159D01*
X100331280Y-125983336D01*
X100323712Y-125970710D01*
X100317418Y-125957403D01*
X100312459Y-125943543D01*
X100308882Y-125929264D01*
X100306722Y-125914703D01*
X100306000Y-125900000D01*
X100306000Y-125600000D01*
X100306722Y-125585297D01*
X100308882Y-125570736D01*
X100312459Y-125556457D01*
X100317418Y-125542597D01*
X100323712Y-125529290D01*
X100331280Y-125516664D01*
X100340048Y-125504841D01*
X100349934Y-125493934D01*
X100360841Y-125484048D01*
X100372664Y-125475280D01*
X100385290Y-125467712D01*
X100398597Y-125461418D01*
X100412457Y-125456459D01*
X100426736Y-125452882D01*
X100441297Y-125450722D01*
X100456000Y-125450000D01*
X102106000Y-125450000D01*
X102120703Y-125450722D01*
X102120703Y-125450722D01*
G37*
D12*
X101281000Y-125750000D03*
D11*
G36*
X102120703Y-124180722D02*
G01*
X102135264Y-124182882D01*
X102149543Y-124186459D01*
X102163403Y-124191418D01*
X102176710Y-124197712D01*
X102189336Y-124205280D01*
X102201159Y-124214048D01*
X102212066Y-124223934D01*
X102221952Y-124234841D01*
X102230720Y-124246664D01*
X102238288Y-124259290D01*
X102244582Y-124272597D01*
X102249541Y-124286457D01*
X102253118Y-124300736D01*
X102255278Y-124315297D01*
X102256000Y-124330000D01*
X102256000Y-124630000D01*
X102255278Y-124644703D01*
X102253118Y-124659264D01*
X102249541Y-124673543D01*
X102244582Y-124687403D01*
X102238288Y-124700710D01*
X102230720Y-124713336D01*
X102221952Y-124725159D01*
X102212066Y-124736066D01*
X102201159Y-124745952D01*
X102189336Y-124754720D01*
X102176710Y-124762288D01*
X102163403Y-124768582D01*
X102149543Y-124773541D01*
X102135264Y-124777118D01*
X102120703Y-124779278D01*
X102106000Y-124780000D01*
X100456000Y-124780000D01*
X100441297Y-124779278D01*
X100426736Y-124777118D01*
X100412457Y-124773541D01*
X100398597Y-124768582D01*
X100385290Y-124762288D01*
X100372664Y-124754720D01*
X100360841Y-124745952D01*
X100349934Y-124736066D01*
X100340048Y-124725159D01*
X100331280Y-124713336D01*
X100323712Y-124700710D01*
X100317418Y-124687403D01*
X100312459Y-124673543D01*
X100308882Y-124659264D01*
X100306722Y-124644703D01*
X100306000Y-124630000D01*
X100306000Y-124330000D01*
X100306722Y-124315297D01*
X100308882Y-124300736D01*
X100312459Y-124286457D01*
X100317418Y-124272597D01*
X100323712Y-124259290D01*
X100331280Y-124246664D01*
X100340048Y-124234841D01*
X100349934Y-124223934D01*
X100360841Y-124214048D01*
X100372664Y-124205280D01*
X100385290Y-124197712D01*
X100398597Y-124191418D01*
X100412457Y-124186459D01*
X100426736Y-124182882D01*
X100441297Y-124180722D01*
X100456000Y-124180000D01*
X102106000Y-124180000D01*
X102120703Y-124180722D01*
X102120703Y-124180722D01*
G37*
D12*
X101281000Y-124480000D03*
D11*
G36*
X102120703Y-122910722D02*
G01*
X102135264Y-122912882D01*
X102149543Y-122916459D01*
X102163403Y-122921418D01*
X102176710Y-122927712D01*
X102189336Y-122935280D01*
X102201159Y-122944048D01*
X102212066Y-122953934D01*
X102221952Y-122964841D01*
X102230720Y-122976664D01*
X102238288Y-122989290D01*
X102244582Y-123002597D01*
X102249541Y-123016457D01*
X102253118Y-123030736D01*
X102255278Y-123045297D01*
X102256000Y-123060000D01*
X102256000Y-123360000D01*
X102255278Y-123374703D01*
X102253118Y-123389264D01*
X102249541Y-123403543D01*
X102244582Y-123417403D01*
X102238288Y-123430710D01*
X102230720Y-123443336D01*
X102221952Y-123455159D01*
X102212066Y-123466066D01*
X102201159Y-123475952D01*
X102189336Y-123484720D01*
X102176710Y-123492288D01*
X102163403Y-123498582D01*
X102149543Y-123503541D01*
X102135264Y-123507118D01*
X102120703Y-123509278D01*
X102106000Y-123510000D01*
X100456000Y-123510000D01*
X100441297Y-123509278D01*
X100426736Y-123507118D01*
X100412457Y-123503541D01*
X100398597Y-123498582D01*
X100385290Y-123492288D01*
X100372664Y-123484720D01*
X100360841Y-123475952D01*
X100349934Y-123466066D01*
X100340048Y-123455159D01*
X100331280Y-123443336D01*
X100323712Y-123430710D01*
X100317418Y-123417403D01*
X100312459Y-123403543D01*
X100308882Y-123389264D01*
X100306722Y-123374703D01*
X100306000Y-123360000D01*
X100306000Y-123060000D01*
X100306722Y-123045297D01*
X100308882Y-123030736D01*
X100312459Y-123016457D01*
X100317418Y-123002597D01*
X100323712Y-122989290D01*
X100331280Y-122976664D01*
X100340048Y-122964841D01*
X100349934Y-122953934D01*
X100360841Y-122944048D01*
X100372664Y-122935280D01*
X100385290Y-122927712D01*
X100398597Y-122921418D01*
X100412457Y-122916459D01*
X100426736Y-122912882D01*
X100441297Y-122910722D01*
X100456000Y-122910000D01*
X102106000Y-122910000D01*
X102120703Y-122910722D01*
X102120703Y-122910722D01*
G37*
D12*
X101281000Y-123210000D03*
D11*
G36*
X107070703Y-122910722D02*
G01*
X107085264Y-122912882D01*
X107099543Y-122916459D01*
X107113403Y-122921418D01*
X107126710Y-122927712D01*
X107139336Y-122935280D01*
X107151159Y-122944048D01*
X107162066Y-122953934D01*
X107171952Y-122964841D01*
X107180720Y-122976664D01*
X107188288Y-122989290D01*
X107194582Y-123002597D01*
X107199541Y-123016457D01*
X107203118Y-123030736D01*
X107205278Y-123045297D01*
X107206000Y-123060000D01*
X107206000Y-123360000D01*
X107205278Y-123374703D01*
X107203118Y-123389264D01*
X107199541Y-123403543D01*
X107194582Y-123417403D01*
X107188288Y-123430710D01*
X107180720Y-123443336D01*
X107171952Y-123455159D01*
X107162066Y-123466066D01*
X107151159Y-123475952D01*
X107139336Y-123484720D01*
X107126710Y-123492288D01*
X107113403Y-123498582D01*
X107099543Y-123503541D01*
X107085264Y-123507118D01*
X107070703Y-123509278D01*
X107056000Y-123510000D01*
X105406000Y-123510000D01*
X105391297Y-123509278D01*
X105376736Y-123507118D01*
X105362457Y-123503541D01*
X105348597Y-123498582D01*
X105335290Y-123492288D01*
X105322664Y-123484720D01*
X105310841Y-123475952D01*
X105299934Y-123466066D01*
X105290048Y-123455159D01*
X105281280Y-123443336D01*
X105273712Y-123430710D01*
X105267418Y-123417403D01*
X105262459Y-123403543D01*
X105258882Y-123389264D01*
X105256722Y-123374703D01*
X105256000Y-123360000D01*
X105256000Y-123060000D01*
X105256722Y-123045297D01*
X105258882Y-123030736D01*
X105262459Y-123016457D01*
X105267418Y-123002597D01*
X105273712Y-122989290D01*
X105281280Y-122976664D01*
X105290048Y-122964841D01*
X105299934Y-122953934D01*
X105310841Y-122944048D01*
X105322664Y-122935280D01*
X105335290Y-122927712D01*
X105348597Y-122921418D01*
X105362457Y-122916459D01*
X105376736Y-122912882D01*
X105391297Y-122910722D01*
X105406000Y-122910000D01*
X107056000Y-122910000D01*
X107070703Y-122910722D01*
X107070703Y-122910722D01*
G37*
D12*
X106231000Y-123210000D03*
D11*
G36*
X107070703Y-124180722D02*
G01*
X107085264Y-124182882D01*
X107099543Y-124186459D01*
X107113403Y-124191418D01*
X107126710Y-124197712D01*
X107139336Y-124205280D01*
X107151159Y-124214048D01*
X107162066Y-124223934D01*
X107171952Y-124234841D01*
X107180720Y-124246664D01*
X107188288Y-124259290D01*
X107194582Y-124272597D01*
X107199541Y-124286457D01*
X107203118Y-124300736D01*
X107205278Y-124315297D01*
X107206000Y-124330000D01*
X107206000Y-124630000D01*
X107205278Y-124644703D01*
X107203118Y-124659264D01*
X107199541Y-124673543D01*
X107194582Y-124687403D01*
X107188288Y-124700710D01*
X107180720Y-124713336D01*
X107171952Y-124725159D01*
X107162066Y-124736066D01*
X107151159Y-124745952D01*
X107139336Y-124754720D01*
X107126710Y-124762288D01*
X107113403Y-124768582D01*
X107099543Y-124773541D01*
X107085264Y-124777118D01*
X107070703Y-124779278D01*
X107056000Y-124780000D01*
X105406000Y-124780000D01*
X105391297Y-124779278D01*
X105376736Y-124777118D01*
X105362457Y-124773541D01*
X105348597Y-124768582D01*
X105335290Y-124762288D01*
X105322664Y-124754720D01*
X105310841Y-124745952D01*
X105299934Y-124736066D01*
X105290048Y-124725159D01*
X105281280Y-124713336D01*
X105273712Y-124700710D01*
X105267418Y-124687403D01*
X105262459Y-124673543D01*
X105258882Y-124659264D01*
X105256722Y-124644703D01*
X105256000Y-124630000D01*
X105256000Y-124330000D01*
X105256722Y-124315297D01*
X105258882Y-124300736D01*
X105262459Y-124286457D01*
X105267418Y-124272597D01*
X105273712Y-124259290D01*
X105281280Y-124246664D01*
X105290048Y-124234841D01*
X105299934Y-124223934D01*
X105310841Y-124214048D01*
X105322664Y-124205280D01*
X105335290Y-124197712D01*
X105348597Y-124191418D01*
X105362457Y-124186459D01*
X105376736Y-124182882D01*
X105391297Y-124180722D01*
X105406000Y-124180000D01*
X107056000Y-124180000D01*
X107070703Y-124180722D01*
X107070703Y-124180722D01*
G37*
D12*
X106231000Y-124480000D03*
D11*
G36*
X107070703Y-125450722D02*
G01*
X107085264Y-125452882D01*
X107099543Y-125456459D01*
X107113403Y-125461418D01*
X107126710Y-125467712D01*
X107139336Y-125475280D01*
X107151159Y-125484048D01*
X107162066Y-125493934D01*
X107171952Y-125504841D01*
X107180720Y-125516664D01*
X107188288Y-125529290D01*
X107194582Y-125542597D01*
X107199541Y-125556457D01*
X107203118Y-125570736D01*
X107205278Y-125585297D01*
X107206000Y-125600000D01*
X107206000Y-125900000D01*
X107205278Y-125914703D01*
X107203118Y-125929264D01*
X107199541Y-125943543D01*
X107194582Y-125957403D01*
X107188288Y-125970710D01*
X107180720Y-125983336D01*
X107171952Y-125995159D01*
X107162066Y-126006066D01*
X107151159Y-126015952D01*
X107139336Y-126024720D01*
X107126710Y-126032288D01*
X107113403Y-126038582D01*
X107099543Y-126043541D01*
X107085264Y-126047118D01*
X107070703Y-126049278D01*
X107056000Y-126050000D01*
X105406000Y-126050000D01*
X105391297Y-126049278D01*
X105376736Y-126047118D01*
X105362457Y-126043541D01*
X105348597Y-126038582D01*
X105335290Y-126032288D01*
X105322664Y-126024720D01*
X105310841Y-126015952D01*
X105299934Y-126006066D01*
X105290048Y-125995159D01*
X105281280Y-125983336D01*
X105273712Y-125970710D01*
X105267418Y-125957403D01*
X105262459Y-125943543D01*
X105258882Y-125929264D01*
X105256722Y-125914703D01*
X105256000Y-125900000D01*
X105256000Y-125600000D01*
X105256722Y-125585297D01*
X105258882Y-125570736D01*
X105262459Y-125556457D01*
X105267418Y-125542597D01*
X105273712Y-125529290D01*
X105281280Y-125516664D01*
X105290048Y-125504841D01*
X105299934Y-125493934D01*
X105310841Y-125484048D01*
X105322664Y-125475280D01*
X105335290Y-125467712D01*
X105348597Y-125461418D01*
X105362457Y-125456459D01*
X105376736Y-125452882D01*
X105391297Y-125450722D01*
X105406000Y-125450000D01*
X107056000Y-125450000D01*
X107070703Y-125450722D01*
X107070703Y-125450722D01*
G37*
D12*
X106231000Y-125750000D03*
D11*
G36*
X108270504Y-128305204D02*
G01*
X108294773Y-128308804D01*
X108318571Y-128314765D01*
X108341671Y-128323030D01*
X108363849Y-128333520D01*
X108384893Y-128346133D01*
X108404598Y-128360747D01*
X108422777Y-128377223D01*
X108439253Y-128395402D01*
X108453867Y-128415107D01*
X108466480Y-128436151D01*
X108476970Y-128458329D01*
X108485235Y-128481429D01*
X108491196Y-128505227D01*
X108494796Y-128529496D01*
X108496000Y-128554000D01*
X108496000Y-129804000D01*
X108494796Y-129828504D01*
X108491196Y-129852773D01*
X108485235Y-129876571D01*
X108476970Y-129899671D01*
X108466480Y-129921849D01*
X108453867Y-129942893D01*
X108439253Y-129962598D01*
X108422777Y-129980777D01*
X108404598Y-129997253D01*
X108384893Y-130011867D01*
X108363849Y-130024480D01*
X108341671Y-130034970D01*
X108318571Y-130043235D01*
X108294773Y-130049196D01*
X108270504Y-130052796D01*
X108246000Y-130054000D01*
X107321000Y-130054000D01*
X107296496Y-130052796D01*
X107272227Y-130049196D01*
X107248429Y-130043235D01*
X107225329Y-130034970D01*
X107203151Y-130024480D01*
X107182107Y-130011867D01*
X107162402Y-129997253D01*
X107144223Y-129980777D01*
X107127747Y-129962598D01*
X107113133Y-129942893D01*
X107100520Y-129921849D01*
X107090030Y-129899671D01*
X107081765Y-129876571D01*
X107075804Y-129852773D01*
X107072204Y-129828504D01*
X107071000Y-129804000D01*
X107071000Y-128554000D01*
X107072204Y-128529496D01*
X107075804Y-128505227D01*
X107081765Y-128481429D01*
X107090030Y-128458329D01*
X107100520Y-128436151D01*
X107113133Y-128415107D01*
X107127747Y-128395402D01*
X107144223Y-128377223D01*
X107162402Y-128360747D01*
X107182107Y-128346133D01*
X107203151Y-128333520D01*
X107225329Y-128323030D01*
X107248429Y-128314765D01*
X107272227Y-128308804D01*
X107296496Y-128305204D01*
X107321000Y-128304000D01*
X108246000Y-128304000D01*
X108270504Y-128305204D01*
X108270504Y-128305204D01*
G37*
D13*
X107783500Y-129179000D03*
D11*
G36*
X105295504Y-128305204D02*
G01*
X105319773Y-128308804D01*
X105343571Y-128314765D01*
X105366671Y-128323030D01*
X105388849Y-128333520D01*
X105409893Y-128346133D01*
X105429598Y-128360747D01*
X105447777Y-128377223D01*
X105464253Y-128395402D01*
X105478867Y-128415107D01*
X105491480Y-128436151D01*
X105501970Y-128458329D01*
X105510235Y-128481429D01*
X105516196Y-128505227D01*
X105519796Y-128529496D01*
X105521000Y-128554000D01*
X105521000Y-129804000D01*
X105519796Y-129828504D01*
X105516196Y-129852773D01*
X105510235Y-129876571D01*
X105501970Y-129899671D01*
X105491480Y-129921849D01*
X105478867Y-129942893D01*
X105464253Y-129962598D01*
X105447777Y-129980777D01*
X105429598Y-129997253D01*
X105409893Y-130011867D01*
X105388849Y-130024480D01*
X105366671Y-130034970D01*
X105343571Y-130043235D01*
X105319773Y-130049196D01*
X105295504Y-130052796D01*
X105271000Y-130054000D01*
X104346000Y-130054000D01*
X104321496Y-130052796D01*
X104297227Y-130049196D01*
X104273429Y-130043235D01*
X104250329Y-130034970D01*
X104228151Y-130024480D01*
X104207107Y-130011867D01*
X104187402Y-129997253D01*
X104169223Y-129980777D01*
X104152747Y-129962598D01*
X104138133Y-129942893D01*
X104125520Y-129921849D01*
X104115030Y-129899671D01*
X104106765Y-129876571D01*
X104100804Y-129852773D01*
X104097204Y-129828504D01*
X104096000Y-129804000D01*
X104096000Y-128554000D01*
X104097204Y-128529496D01*
X104100804Y-128505227D01*
X104106765Y-128481429D01*
X104115030Y-128458329D01*
X104125520Y-128436151D01*
X104138133Y-128415107D01*
X104152747Y-128395402D01*
X104169223Y-128377223D01*
X104187402Y-128360747D01*
X104207107Y-128346133D01*
X104228151Y-128333520D01*
X104250329Y-128323030D01*
X104273429Y-128314765D01*
X104297227Y-128308804D01*
X104321496Y-128305204D01*
X104346000Y-128304000D01*
X105271000Y-128304000D01*
X105295504Y-128305204D01*
X105295504Y-128305204D01*
G37*
D13*
X104808500Y-129179000D03*
D14*
X108921000Y-118865000D03*
X108921000Y-131365000D03*
D15*
X103756000Y-118865000D03*
X103756000Y-131365000D03*
D14*
X98591000Y-118865000D03*
X98591000Y-131365000D03*
D16*
X110486000Y-120190000D03*
X97026000Y-120190000D03*
D17*
X110486000Y-125115000D03*
X97026000Y-125115000D03*
D16*
X110486000Y-130040000D03*
X97026000Y-130040000D03*
D18*
X110486000Y-131365000D03*
X110486000Y-118865000D03*
X97026000Y-118865000D03*
X97026000Y-131365000D03*
D19*
X116210000Y-131465000D03*
D20*
X133500000Y-119015000D03*
D21*
X135900000Y-119015000D03*
X135197056Y-120712056D03*
X133500000Y-121415000D03*
X131802944Y-120712056D03*
X131100000Y-119015000D03*
X131802944Y-117317944D03*
X133500000Y-116615000D03*
X135197056Y-117317944D03*
X135197056Y-129517944D03*
X133500000Y-128815000D03*
X131802944Y-129517944D03*
X131100000Y-131215000D03*
X131802944Y-132912056D03*
X133500000Y-133615000D03*
X135197056Y-132912056D03*
X135900000Y-131215000D03*
D20*
X133500000Y-131215000D03*
X91300000Y-131215000D03*
D21*
X93700000Y-131215000D03*
X92997056Y-132912056D03*
X91300000Y-133615000D03*
X89602944Y-132912056D03*
X88900000Y-131215000D03*
X89602944Y-129517944D03*
X91300000Y-128815000D03*
X92997056Y-129517944D03*
X92997056Y-117317944D03*
X91300000Y-116615000D03*
X89602944Y-117317944D03*
X88900000Y-119015000D03*
X89602944Y-120712056D03*
X91300000Y-121415000D03*
X92997056Y-120712056D03*
X93700000Y-119015000D03*
D20*
X91300000Y-119015000D03*
D11*
G36*
X125674504Y-118026204D02*
G01*
X125698773Y-118029804D01*
X125722571Y-118035765D01*
X125745671Y-118044030D01*
X125767849Y-118054520D01*
X125788893Y-118067133D01*
X125808598Y-118081747D01*
X125826777Y-118098223D01*
X125843253Y-118116402D01*
X125857867Y-118136107D01*
X125870480Y-118157151D01*
X125880970Y-118179329D01*
X125889235Y-118202429D01*
X125895196Y-118226227D01*
X125898796Y-118250496D01*
X125900000Y-118275000D01*
X125900000Y-121275000D01*
X125898796Y-121299504D01*
X125895196Y-121323773D01*
X125889235Y-121347571D01*
X125880970Y-121370671D01*
X125870480Y-121392849D01*
X125857867Y-121413893D01*
X125843253Y-121433598D01*
X125826777Y-121451777D01*
X125808598Y-121468253D01*
X125788893Y-121482867D01*
X125767849Y-121495480D01*
X125745671Y-121505970D01*
X125722571Y-121514235D01*
X125698773Y-121520196D01*
X125674504Y-121523796D01*
X125650000Y-121525000D01*
X124550000Y-121525000D01*
X124525496Y-121523796D01*
X124501227Y-121520196D01*
X124477429Y-121514235D01*
X124454329Y-121505970D01*
X124432151Y-121495480D01*
X124411107Y-121482867D01*
X124391402Y-121468253D01*
X124373223Y-121451777D01*
X124356747Y-121433598D01*
X124342133Y-121413893D01*
X124329520Y-121392849D01*
X124319030Y-121370671D01*
X124310765Y-121347571D01*
X124304804Y-121323773D01*
X124301204Y-121299504D01*
X124300000Y-121275000D01*
X124300000Y-118275000D01*
X124301204Y-118250496D01*
X124304804Y-118226227D01*
X124310765Y-118202429D01*
X124319030Y-118179329D01*
X124329520Y-118157151D01*
X124342133Y-118136107D01*
X124356747Y-118116402D01*
X124373223Y-118098223D01*
X124391402Y-118081747D01*
X124411107Y-118067133D01*
X124432151Y-118054520D01*
X124454329Y-118044030D01*
X124477429Y-118035765D01*
X124501227Y-118029804D01*
X124525496Y-118026204D01*
X124550000Y-118025000D01*
X125650000Y-118025000D01*
X125674504Y-118026204D01*
X125674504Y-118026204D01*
G37*
D22*
X125100000Y-119775000D03*
D11*
G36*
X125674504Y-123626204D02*
G01*
X125698773Y-123629804D01*
X125722571Y-123635765D01*
X125745671Y-123644030D01*
X125767849Y-123654520D01*
X125788893Y-123667133D01*
X125808598Y-123681747D01*
X125826777Y-123698223D01*
X125843253Y-123716402D01*
X125857867Y-123736107D01*
X125870480Y-123757151D01*
X125880970Y-123779329D01*
X125889235Y-123802429D01*
X125895196Y-123826227D01*
X125898796Y-123850496D01*
X125900000Y-123875000D01*
X125900000Y-126875000D01*
X125898796Y-126899504D01*
X125895196Y-126923773D01*
X125889235Y-126947571D01*
X125880970Y-126970671D01*
X125870480Y-126992849D01*
X125857867Y-127013893D01*
X125843253Y-127033598D01*
X125826777Y-127051777D01*
X125808598Y-127068253D01*
X125788893Y-127082867D01*
X125767849Y-127095480D01*
X125745671Y-127105970D01*
X125722571Y-127114235D01*
X125698773Y-127120196D01*
X125674504Y-127123796D01*
X125650000Y-127125000D01*
X124550000Y-127125000D01*
X124525496Y-127123796D01*
X124501227Y-127120196D01*
X124477429Y-127114235D01*
X124454329Y-127105970D01*
X124432151Y-127095480D01*
X124411107Y-127082867D01*
X124391402Y-127068253D01*
X124373223Y-127051777D01*
X124356747Y-127033598D01*
X124342133Y-127013893D01*
X124329520Y-126992849D01*
X124319030Y-126970671D01*
X124310765Y-126947571D01*
X124304804Y-126923773D01*
X124301204Y-126899504D01*
X124300000Y-126875000D01*
X124300000Y-123875000D01*
X124301204Y-123850496D01*
X124304804Y-123826227D01*
X124310765Y-123802429D01*
X124319030Y-123779329D01*
X124329520Y-123757151D01*
X124342133Y-123736107D01*
X124356747Y-123716402D01*
X124373223Y-123698223D01*
X124391402Y-123681747D01*
X124411107Y-123667133D01*
X124432151Y-123654520D01*
X124454329Y-123644030D01*
X124477429Y-123635765D01*
X124501227Y-123629804D01*
X124525496Y-123626204D01*
X124550000Y-123625000D01*
X125650000Y-123625000D01*
X125674504Y-123626204D01*
X125674504Y-123626204D01*
G37*
D22*
X125100000Y-125375000D03*
D11*
G36*
X117419504Y-123626204D02*
G01*
X117443773Y-123629804D01*
X117467571Y-123635765D01*
X117490671Y-123644030D01*
X117512849Y-123654520D01*
X117533893Y-123667133D01*
X117553598Y-123681747D01*
X117571777Y-123698223D01*
X117588253Y-123716402D01*
X117602867Y-123736107D01*
X117615480Y-123757151D01*
X117625970Y-123779329D01*
X117634235Y-123802429D01*
X117640196Y-123826227D01*
X117643796Y-123850496D01*
X117645000Y-123875000D01*
X117645000Y-126875000D01*
X117643796Y-126899504D01*
X117640196Y-126923773D01*
X117634235Y-126947571D01*
X117625970Y-126970671D01*
X117615480Y-126992849D01*
X117602867Y-127013893D01*
X117588253Y-127033598D01*
X117571777Y-127051777D01*
X117553598Y-127068253D01*
X117533893Y-127082867D01*
X117512849Y-127095480D01*
X117490671Y-127105970D01*
X117467571Y-127114235D01*
X117443773Y-127120196D01*
X117419504Y-127123796D01*
X117395000Y-127125000D01*
X116295000Y-127125000D01*
X116270496Y-127123796D01*
X116246227Y-127120196D01*
X116222429Y-127114235D01*
X116199329Y-127105970D01*
X116177151Y-127095480D01*
X116156107Y-127082867D01*
X116136402Y-127068253D01*
X116118223Y-127051777D01*
X116101747Y-127033598D01*
X116087133Y-127013893D01*
X116074520Y-126992849D01*
X116064030Y-126970671D01*
X116055765Y-126947571D01*
X116049804Y-126923773D01*
X116046204Y-126899504D01*
X116045000Y-126875000D01*
X116045000Y-123875000D01*
X116046204Y-123850496D01*
X116049804Y-123826227D01*
X116055765Y-123802429D01*
X116064030Y-123779329D01*
X116074520Y-123757151D01*
X116087133Y-123736107D01*
X116101747Y-123716402D01*
X116118223Y-123698223D01*
X116136402Y-123681747D01*
X116156107Y-123667133D01*
X116177151Y-123654520D01*
X116199329Y-123644030D01*
X116222429Y-123635765D01*
X116246227Y-123629804D01*
X116270496Y-123626204D01*
X116295000Y-123625000D01*
X117395000Y-123625000D01*
X117419504Y-123626204D01*
X117419504Y-123626204D01*
G37*
D22*
X116845000Y-125375000D03*
D11*
G36*
X117419504Y-118026204D02*
G01*
X117443773Y-118029804D01*
X117467571Y-118035765D01*
X117490671Y-118044030D01*
X117512849Y-118054520D01*
X117533893Y-118067133D01*
X117553598Y-118081747D01*
X117571777Y-118098223D01*
X117588253Y-118116402D01*
X117602867Y-118136107D01*
X117615480Y-118157151D01*
X117625970Y-118179329D01*
X117634235Y-118202429D01*
X117640196Y-118226227D01*
X117643796Y-118250496D01*
X117645000Y-118275000D01*
X117645000Y-121275000D01*
X117643796Y-121299504D01*
X117640196Y-121323773D01*
X117634235Y-121347571D01*
X117625970Y-121370671D01*
X117615480Y-121392849D01*
X117602867Y-121413893D01*
X117588253Y-121433598D01*
X117571777Y-121451777D01*
X117553598Y-121468253D01*
X117533893Y-121482867D01*
X117512849Y-121495480D01*
X117490671Y-121505970D01*
X117467571Y-121514235D01*
X117443773Y-121520196D01*
X117419504Y-121523796D01*
X117395000Y-121525000D01*
X116295000Y-121525000D01*
X116270496Y-121523796D01*
X116246227Y-121520196D01*
X116222429Y-121514235D01*
X116199329Y-121505970D01*
X116177151Y-121495480D01*
X116156107Y-121482867D01*
X116136402Y-121468253D01*
X116118223Y-121451777D01*
X116101747Y-121433598D01*
X116087133Y-121413893D01*
X116074520Y-121392849D01*
X116064030Y-121370671D01*
X116055765Y-121347571D01*
X116049804Y-121323773D01*
X116046204Y-121299504D01*
X116045000Y-121275000D01*
X116045000Y-118275000D01*
X116046204Y-118250496D01*
X116049804Y-118226227D01*
X116055765Y-118202429D01*
X116064030Y-118179329D01*
X116074520Y-118157151D01*
X116087133Y-118136107D01*
X116101747Y-118116402D01*
X116118223Y-118098223D01*
X116136402Y-118081747D01*
X116156107Y-118067133D01*
X116177151Y-118054520D01*
X116199329Y-118044030D01*
X116222429Y-118035765D01*
X116246227Y-118029804D01*
X116270496Y-118026204D01*
X116295000Y-118025000D01*
X117395000Y-118025000D01*
X117419504Y-118026204D01*
X117419504Y-118026204D01*
G37*
D22*
X116845000Y-119775000D03*
D11*
G36*
X104757505Y-120352204D02*
G01*
X104781773Y-120355804D01*
X104805572Y-120361765D01*
X104828671Y-120370030D01*
X104850850Y-120380520D01*
X104871893Y-120393132D01*
X104891599Y-120407747D01*
X104909777Y-120424223D01*
X104926253Y-120442401D01*
X104940868Y-120462107D01*
X104953480Y-120483150D01*
X104963970Y-120505329D01*
X104972235Y-120528428D01*
X104978196Y-120552227D01*
X104981796Y-120576495D01*
X104983000Y-120600999D01*
X104983000Y-121501001D01*
X104981796Y-121525505D01*
X104978196Y-121549773D01*
X104972235Y-121573572D01*
X104963970Y-121596671D01*
X104953480Y-121618850D01*
X104940868Y-121639893D01*
X104926253Y-121659599D01*
X104909777Y-121677777D01*
X104891599Y-121694253D01*
X104871893Y-121708868D01*
X104850850Y-121721480D01*
X104828671Y-121731970D01*
X104805572Y-121740235D01*
X104781773Y-121746196D01*
X104757505Y-121749796D01*
X104733001Y-121751000D01*
X104082999Y-121751000D01*
X104058495Y-121749796D01*
X104034227Y-121746196D01*
X104010428Y-121740235D01*
X103987329Y-121731970D01*
X103965150Y-121721480D01*
X103944107Y-121708868D01*
X103924401Y-121694253D01*
X103906223Y-121677777D01*
X103889747Y-121659599D01*
X103875132Y-121639893D01*
X103862520Y-121618850D01*
X103852030Y-121596671D01*
X103843765Y-121573572D01*
X103837804Y-121549773D01*
X103834204Y-121525505D01*
X103833000Y-121501001D01*
X103833000Y-120600999D01*
X103834204Y-120576495D01*
X103837804Y-120552227D01*
X103843765Y-120528428D01*
X103852030Y-120505329D01*
X103862520Y-120483150D01*
X103875132Y-120462107D01*
X103889747Y-120442401D01*
X103906223Y-120424223D01*
X103924401Y-120407747D01*
X103944107Y-120393132D01*
X103965150Y-120380520D01*
X103987329Y-120370030D01*
X104010428Y-120361765D01*
X104034227Y-120355804D01*
X104058495Y-120352204D01*
X104082999Y-120351000D01*
X104733001Y-120351000D01*
X104757505Y-120352204D01*
X104757505Y-120352204D01*
G37*
D23*
X104408000Y-121051000D03*
D11*
G36*
X102707505Y-120352204D02*
G01*
X102731773Y-120355804D01*
X102755572Y-120361765D01*
X102778671Y-120370030D01*
X102800850Y-120380520D01*
X102821893Y-120393132D01*
X102841599Y-120407747D01*
X102859777Y-120424223D01*
X102876253Y-120442401D01*
X102890868Y-120462107D01*
X102903480Y-120483150D01*
X102913970Y-120505329D01*
X102922235Y-120528428D01*
X102928196Y-120552227D01*
X102931796Y-120576495D01*
X102933000Y-120600999D01*
X102933000Y-121501001D01*
X102931796Y-121525505D01*
X102928196Y-121549773D01*
X102922235Y-121573572D01*
X102913970Y-121596671D01*
X102903480Y-121618850D01*
X102890868Y-121639893D01*
X102876253Y-121659599D01*
X102859777Y-121677777D01*
X102841599Y-121694253D01*
X102821893Y-121708868D01*
X102800850Y-121721480D01*
X102778671Y-121731970D01*
X102755572Y-121740235D01*
X102731773Y-121746196D01*
X102707505Y-121749796D01*
X102683001Y-121751000D01*
X102032999Y-121751000D01*
X102008495Y-121749796D01*
X101984227Y-121746196D01*
X101960428Y-121740235D01*
X101937329Y-121731970D01*
X101915150Y-121721480D01*
X101894107Y-121708868D01*
X101874401Y-121694253D01*
X101856223Y-121677777D01*
X101839747Y-121659599D01*
X101825132Y-121639893D01*
X101812520Y-121618850D01*
X101802030Y-121596671D01*
X101793765Y-121573572D01*
X101787804Y-121549773D01*
X101784204Y-121525505D01*
X101783000Y-121501001D01*
X101783000Y-120600999D01*
X101784204Y-120576495D01*
X101787804Y-120552227D01*
X101793765Y-120528428D01*
X101802030Y-120505329D01*
X101812520Y-120483150D01*
X101825132Y-120462107D01*
X101839747Y-120442401D01*
X101856223Y-120424223D01*
X101874401Y-120407747D01*
X101894107Y-120393132D01*
X101915150Y-120380520D01*
X101937329Y-120370030D01*
X101960428Y-120361765D01*
X101984227Y-120355804D01*
X102008495Y-120352204D01*
X102032999Y-120351000D01*
X102683001Y-120351000D01*
X102707505Y-120352204D01*
X102707505Y-120352204D01*
G37*
D23*
X102358000Y-121051000D03*
D11*
G36*
X99404505Y-121992204D02*
G01*
X99428773Y-121995804D01*
X99452572Y-122001765D01*
X99475671Y-122010030D01*
X99497850Y-122020520D01*
X99518893Y-122033132D01*
X99538599Y-122047747D01*
X99556777Y-122064223D01*
X99573253Y-122082401D01*
X99587868Y-122102107D01*
X99600480Y-122123150D01*
X99610970Y-122145329D01*
X99619235Y-122168428D01*
X99625196Y-122192227D01*
X99628796Y-122216495D01*
X99630000Y-122240999D01*
X99630000Y-122891001D01*
X99628796Y-122915505D01*
X99625196Y-122939773D01*
X99619235Y-122963572D01*
X99610970Y-122986671D01*
X99600480Y-123008850D01*
X99587868Y-123029893D01*
X99573253Y-123049599D01*
X99556777Y-123067777D01*
X99538599Y-123084253D01*
X99518893Y-123098868D01*
X99497850Y-123111480D01*
X99475671Y-123121970D01*
X99452572Y-123130235D01*
X99428773Y-123136196D01*
X99404505Y-123139796D01*
X99380001Y-123141000D01*
X98479999Y-123141000D01*
X98455495Y-123139796D01*
X98431227Y-123136196D01*
X98407428Y-123130235D01*
X98384329Y-123121970D01*
X98362150Y-123111480D01*
X98341107Y-123098868D01*
X98321401Y-123084253D01*
X98303223Y-123067777D01*
X98286747Y-123049599D01*
X98272132Y-123029893D01*
X98259520Y-123008850D01*
X98249030Y-122986671D01*
X98240765Y-122963572D01*
X98234804Y-122939773D01*
X98231204Y-122915505D01*
X98230000Y-122891001D01*
X98230000Y-122240999D01*
X98231204Y-122216495D01*
X98234804Y-122192227D01*
X98240765Y-122168428D01*
X98249030Y-122145329D01*
X98259520Y-122123150D01*
X98272132Y-122102107D01*
X98286747Y-122082401D01*
X98303223Y-122064223D01*
X98321401Y-122047747D01*
X98341107Y-122033132D01*
X98362150Y-122020520D01*
X98384329Y-122010030D01*
X98407428Y-122001765D01*
X98431227Y-121995804D01*
X98455495Y-121992204D01*
X98479999Y-121991000D01*
X99380001Y-121991000D01*
X99404505Y-121992204D01*
X99404505Y-121992204D01*
G37*
D23*
X98930000Y-122566000D03*
D11*
G36*
X99404505Y-124042204D02*
G01*
X99428773Y-124045804D01*
X99452572Y-124051765D01*
X99475671Y-124060030D01*
X99497850Y-124070520D01*
X99518893Y-124083132D01*
X99538599Y-124097747D01*
X99556777Y-124114223D01*
X99573253Y-124132401D01*
X99587868Y-124152107D01*
X99600480Y-124173150D01*
X99610970Y-124195329D01*
X99619235Y-124218428D01*
X99625196Y-124242227D01*
X99628796Y-124266495D01*
X99630000Y-124290999D01*
X99630000Y-124941001D01*
X99628796Y-124965505D01*
X99625196Y-124989773D01*
X99619235Y-125013572D01*
X99610970Y-125036671D01*
X99600480Y-125058850D01*
X99587868Y-125079893D01*
X99573253Y-125099599D01*
X99556777Y-125117777D01*
X99538599Y-125134253D01*
X99518893Y-125148868D01*
X99497850Y-125161480D01*
X99475671Y-125171970D01*
X99452572Y-125180235D01*
X99428773Y-125186196D01*
X99404505Y-125189796D01*
X99380001Y-125191000D01*
X98479999Y-125191000D01*
X98455495Y-125189796D01*
X98431227Y-125186196D01*
X98407428Y-125180235D01*
X98384329Y-125171970D01*
X98362150Y-125161480D01*
X98341107Y-125148868D01*
X98321401Y-125134253D01*
X98303223Y-125117777D01*
X98286747Y-125099599D01*
X98272132Y-125079893D01*
X98259520Y-125058850D01*
X98249030Y-125036671D01*
X98240765Y-125013572D01*
X98234804Y-124989773D01*
X98231204Y-124965505D01*
X98230000Y-124941001D01*
X98230000Y-124290999D01*
X98231204Y-124266495D01*
X98234804Y-124242227D01*
X98240765Y-124218428D01*
X98249030Y-124195329D01*
X98259520Y-124173150D01*
X98272132Y-124152107D01*
X98286747Y-124132401D01*
X98303223Y-124114223D01*
X98321401Y-124097747D01*
X98341107Y-124083132D01*
X98362150Y-124070520D01*
X98384329Y-124060030D01*
X98407428Y-124051765D01*
X98431227Y-124045804D01*
X98455495Y-124042204D01*
X98479999Y-124041000D01*
X99380001Y-124041000D01*
X99404505Y-124042204D01*
X99404505Y-124042204D01*
G37*
D23*
X98930000Y-124616000D03*
D11*
G36*
X107001779Y-120577144D02*
G01*
X107024834Y-120580563D01*
X107047443Y-120586227D01*
X107069387Y-120594079D01*
X107090457Y-120604044D01*
X107110448Y-120616026D01*
X107129168Y-120629910D01*
X107146438Y-120645562D01*
X107162090Y-120662832D01*
X107175974Y-120681552D01*
X107187956Y-120701543D01*
X107197921Y-120722613D01*
X107205773Y-120744557D01*
X107211437Y-120767166D01*
X107214856Y-120790221D01*
X107216000Y-120813500D01*
X107216000Y-121288500D01*
X107214856Y-121311779D01*
X107211437Y-121334834D01*
X107205773Y-121357443D01*
X107197921Y-121379387D01*
X107187956Y-121400457D01*
X107175974Y-121420448D01*
X107162090Y-121439168D01*
X107146438Y-121456438D01*
X107129168Y-121472090D01*
X107110448Y-121485974D01*
X107090457Y-121497956D01*
X107069387Y-121507921D01*
X107047443Y-121515773D01*
X107024834Y-121521437D01*
X107001779Y-121524856D01*
X106978500Y-121526000D01*
X106403500Y-121526000D01*
X106380221Y-121524856D01*
X106357166Y-121521437D01*
X106334557Y-121515773D01*
X106312613Y-121507921D01*
X106291543Y-121497956D01*
X106271552Y-121485974D01*
X106252832Y-121472090D01*
X106235562Y-121456438D01*
X106219910Y-121439168D01*
X106206026Y-121420448D01*
X106194044Y-121400457D01*
X106184079Y-121379387D01*
X106176227Y-121357443D01*
X106170563Y-121334834D01*
X106167144Y-121311779D01*
X106166000Y-121288500D01*
X106166000Y-120813500D01*
X106167144Y-120790221D01*
X106170563Y-120767166D01*
X106176227Y-120744557D01*
X106184079Y-120722613D01*
X106194044Y-120701543D01*
X106206026Y-120681552D01*
X106219910Y-120662832D01*
X106235562Y-120645562D01*
X106252832Y-120629910D01*
X106271552Y-120616026D01*
X106291543Y-120604044D01*
X106312613Y-120594079D01*
X106334557Y-120586227D01*
X106357166Y-120580563D01*
X106380221Y-120577144D01*
X106403500Y-120576000D01*
X106978500Y-120576000D01*
X107001779Y-120577144D01*
X107001779Y-120577144D01*
G37*
D24*
X106691000Y-121051000D03*
D11*
G36*
X108751779Y-120577144D02*
G01*
X108774834Y-120580563D01*
X108797443Y-120586227D01*
X108819387Y-120594079D01*
X108840457Y-120604044D01*
X108860448Y-120616026D01*
X108879168Y-120629910D01*
X108896438Y-120645562D01*
X108912090Y-120662832D01*
X108925974Y-120681552D01*
X108937956Y-120701543D01*
X108947921Y-120722613D01*
X108955773Y-120744557D01*
X108961437Y-120767166D01*
X108964856Y-120790221D01*
X108966000Y-120813500D01*
X108966000Y-121288500D01*
X108964856Y-121311779D01*
X108961437Y-121334834D01*
X108955773Y-121357443D01*
X108947921Y-121379387D01*
X108937956Y-121400457D01*
X108925974Y-121420448D01*
X108912090Y-121439168D01*
X108896438Y-121456438D01*
X108879168Y-121472090D01*
X108860448Y-121485974D01*
X108840457Y-121497956D01*
X108819387Y-121507921D01*
X108797443Y-121515773D01*
X108774834Y-121521437D01*
X108751779Y-121524856D01*
X108728500Y-121526000D01*
X108153500Y-121526000D01*
X108130221Y-121524856D01*
X108107166Y-121521437D01*
X108084557Y-121515773D01*
X108062613Y-121507921D01*
X108041543Y-121497956D01*
X108021552Y-121485974D01*
X108002832Y-121472090D01*
X107985562Y-121456438D01*
X107969910Y-121439168D01*
X107956026Y-121420448D01*
X107944044Y-121400457D01*
X107934079Y-121379387D01*
X107926227Y-121357443D01*
X107920563Y-121334834D01*
X107917144Y-121311779D01*
X107916000Y-121288500D01*
X107916000Y-120813500D01*
X107917144Y-120790221D01*
X107920563Y-120767166D01*
X107926227Y-120744557D01*
X107934079Y-120722613D01*
X107944044Y-120701543D01*
X107956026Y-120681552D01*
X107969910Y-120662832D01*
X107985562Y-120645562D01*
X108002832Y-120629910D01*
X108021552Y-120616026D01*
X108041543Y-120604044D01*
X108062613Y-120594079D01*
X108084557Y-120586227D01*
X108107166Y-120580563D01*
X108130221Y-120577144D01*
X108153500Y-120576000D01*
X108728500Y-120576000D01*
X108751779Y-120577144D01*
X108751779Y-120577144D01*
G37*
D24*
X108441000Y-121051000D03*
D11*
G36*
X99190779Y-128133144D02*
G01*
X99213834Y-128136563D01*
X99236443Y-128142227D01*
X99258387Y-128150079D01*
X99279457Y-128160044D01*
X99299448Y-128172026D01*
X99318168Y-128185910D01*
X99335438Y-128201562D01*
X99351090Y-128218832D01*
X99364974Y-128237552D01*
X99376956Y-128257543D01*
X99386921Y-128278613D01*
X99394773Y-128300557D01*
X99400437Y-128323166D01*
X99403856Y-128346221D01*
X99405000Y-128369500D01*
X99405000Y-128944500D01*
X99403856Y-128967779D01*
X99400437Y-128990834D01*
X99394773Y-129013443D01*
X99386921Y-129035387D01*
X99376956Y-129056457D01*
X99364974Y-129076448D01*
X99351090Y-129095168D01*
X99335438Y-129112438D01*
X99318168Y-129128090D01*
X99299448Y-129141974D01*
X99279457Y-129153956D01*
X99258387Y-129163921D01*
X99236443Y-129171773D01*
X99213834Y-129177437D01*
X99190779Y-129180856D01*
X99167500Y-129182000D01*
X98692500Y-129182000D01*
X98669221Y-129180856D01*
X98646166Y-129177437D01*
X98623557Y-129171773D01*
X98601613Y-129163921D01*
X98580543Y-129153956D01*
X98560552Y-129141974D01*
X98541832Y-129128090D01*
X98524562Y-129112438D01*
X98508910Y-129095168D01*
X98495026Y-129076448D01*
X98483044Y-129056457D01*
X98473079Y-129035387D01*
X98465227Y-129013443D01*
X98459563Y-128990834D01*
X98456144Y-128967779D01*
X98455000Y-128944500D01*
X98455000Y-128369500D01*
X98456144Y-128346221D01*
X98459563Y-128323166D01*
X98465227Y-128300557D01*
X98473079Y-128278613D01*
X98483044Y-128257543D01*
X98495026Y-128237552D01*
X98508910Y-128218832D01*
X98524562Y-128201562D01*
X98541832Y-128185910D01*
X98560552Y-128172026D01*
X98580543Y-128160044D01*
X98601613Y-128150079D01*
X98623557Y-128142227D01*
X98646166Y-128136563D01*
X98669221Y-128133144D01*
X98692500Y-128132000D01*
X99167500Y-128132000D01*
X99190779Y-128133144D01*
X99190779Y-128133144D01*
G37*
D24*
X98930000Y-128657000D03*
D11*
G36*
X99190779Y-126383144D02*
G01*
X99213834Y-126386563D01*
X99236443Y-126392227D01*
X99258387Y-126400079D01*
X99279457Y-126410044D01*
X99299448Y-126422026D01*
X99318168Y-126435910D01*
X99335438Y-126451562D01*
X99351090Y-126468832D01*
X99364974Y-126487552D01*
X99376956Y-126507543D01*
X99386921Y-126528613D01*
X99394773Y-126550557D01*
X99400437Y-126573166D01*
X99403856Y-126596221D01*
X99405000Y-126619500D01*
X99405000Y-127194500D01*
X99403856Y-127217779D01*
X99400437Y-127240834D01*
X99394773Y-127263443D01*
X99386921Y-127285387D01*
X99376956Y-127306457D01*
X99364974Y-127326448D01*
X99351090Y-127345168D01*
X99335438Y-127362438D01*
X99318168Y-127378090D01*
X99299448Y-127391974D01*
X99279457Y-127403956D01*
X99258387Y-127413921D01*
X99236443Y-127421773D01*
X99213834Y-127427437D01*
X99190779Y-127430856D01*
X99167500Y-127432000D01*
X98692500Y-127432000D01*
X98669221Y-127430856D01*
X98646166Y-127427437D01*
X98623557Y-127421773D01*
X98601613Y-127413921D01*
X98580543Y-127403956D01*
X98560552Y-127391974D01*
X98541832Y-127378090D01*
X98524562Y-127362438D01*
X98508910Y-127345168D01*
X98495026Y-127326448D01*
X98483044Y-127306457D01*
X98473079Y-127285387D01*
X98465227Y-127263443D01*
X98459563Y-127240834D01*
X98456144Y-127217779D01*
X98455000Y-127194500D01*
X98455000Y-126619500D01*
X98456144Y-126596221D01*
X98459563Y-126573166D01*
X98465227Y-126550557D01*
X98473079Y-126528613D01*
X98483044Y-126507543D01*
X98495026Y-126487552D01*
X98508910Y-126468832D01*
X98524562Y-126451562D01*
X98541832Y-126435910D01*
X98560552Y-126422026D01*
X98580543Y-126410044D01*
X98601613Y-126400079D01*
X98623557Y-126392227D01*
X98646166Y-126386563D01*
X98669221Y-126383144D01*
X98692500Y-126382000D01*
X99167500Y-126382000D01*
X99190779Y-126383144D01*
X99190779Y-126383144D01*
G37*
D24*
X98930000Y-126907000D03*
D21*
X99319000Y-129687000D03*
X98430000Y-129687000D03*
X109225000Y-123845000D03*
X108336000Y-122956000D03*
X109225000Y-122956000D03*
X109225000Y-124734000D03*
X102875000Y-129687000D03*
X123703000Y-124861000D03*
X123703000Y-126004000D03*
X126497000Y-126004000D03*
X126497000Y-124861000D03*
X115448000Y-124861000D03*
X115448000Y-126004000D03*
X118242000Y-126004000D03*
X118242000Y-124861000D03*
X108336000Y-122067000D03*
X99573000Y-125750000D03*
X98684000Y-125750000D03*
X100716000Y-119400000D03*
X100716000Y-118511000D03*
X118242000Y-120289000D03*
X115448000Y-120289000D03*
X115448000Y-119273000D03*
X118242000Y-119273000D03*
X126497000Y-120289000D03*
X126497000Y-119273000D03*
X123703000Y-119273000D03*
X123703000Y-120289000D03*
X102875000Y-124861000D03*
D25*
X114940000Y-128925000D02*
X113289000Y-127274000D01*
X118750000Y-129560000D02*
X118432500Y-129242500D01*
X113289000Y-127274000D02*
X113289000Y-127274000D01*
X112400000Y-128925000D02*
X113670000Y-130195000D01*
X118115000Y-128925000D02*
X116210000Y-128925000D01*
X111257000Y-128925000D02*
X112400000Y-128925000D01*
X110486000Y-129696000D02*
X111257000Y-128925000D01*
X118115000Y-134005000D02*
X118432500Y-133687500D01*
X110486000Y-130040000D02*
X110486000Y-129696000D01*
X113670000Y-133370000D02*
X113987500Y-133687500D01*
X114305000Y-134005000D02*
X116210000Y-134005000D01*
X113670000Y-130195000D02*
X113670000Y-131465000D01*
X118750000Y-133370000D02*
X118750000Y-131465000D01*
X106431000Y-126893000D02*
X105288000Y-126893000D01*
X104526000Y-125369000D02*
X105415000Y-124480000D01*
X104526000Y-126131000D02*
X104526000Y-125369000D01*
X106812000Y-127274000D02*
X106431000Y-126893000D01*
X106304000Y-128163000D02*
X106812000Y-127655000D01*
X107556000Y-131365000D02*
X107103000Y-130912000D01*
X108921000Y-131365000D02*
X107556000Y-131365000D01*
X105415000Y-124480000D02*
X106231000Y-124480000D01*
X106304000Y-130113000D02*
X106304000Y-128163000D01*
X105288000Y-126893000D02*
X104526000Y-126131000D01*
X106812000Y-127655000D02*
X106812000Y-127453000D01*
X110486000Y-126503000D02*
X110486000Y-125115000D01*
X110241000Y-126258000D02*
X110939500Y-126956500D01*
X110939500Y-126956500D02*
X110486000Y-126503000D01*
X111257000Y-127274000D02*
X111249000Y-127266000D01*
X109606000Y-126258000D02*
X110241000Y-126258000D01*
X106231000Y-124480000D02*
X107828000Y-124480000D01*
X107828000Y-124480000D02*
X109606000Y-126258000D01*
X118432500Y-133687500D02*
X118750000Y-133370000D01*
X113987500Y-133687500D02*
X114305000Y-134005000D01*
X118432500Y-129242500D02*
X118115000Y-128925000D01*
X118750000Y-131465000D02*
X118750000Y-129560000D01*
X116210000Y-134005000D02*
X116210000Y-134005000D01*
X113670000Y-131465000D02*
X113670000Y-133370000D01*
X116210000Y-128925000D02*
X114940000Y-128925000D01*
X116210000Y-134005000D02*
X118115000Y-134005000D01*
X116210000Y-128925000D02*
X116210000Y-128925000D01*
X113289000Y-127274000D02*
X111257000Y-127274000D01*
X112400000Y-128925000D02*
X112400000Y-128925000D01*
X107103000Y-130912000D02*
X106304000Y-130113000D01*
X106812000Y-127453000D02*
X106812000Y-127274000D01*
X111249000Y-127266000D02*
X110939500Y-126956500D01*
D26*
X108926500Y-128036000D02*
X107783500Y-129179000D01*
X116210000Y-131465000D02*
X112781000Y-128036000D01*
X112781000Y-128036000D02*
X108926500Y-128036000D01*
X108926500Y-128036000D02*
X108926500Y-126975500D01*
X107701000Y-125750000D02*
X106231000Y-125750000D01*
X108926500Y-126975500D02*
X107701000Y-125750000D01*
D27*
X103510000Y-125496000D02*
X103510000Y-127880500D01*
X102875000Y-124861000D02*
X103510000Y-125496000D01*
X103510000Y-127880500D02*
X104808500Y-129179000D01*
X102875000Y-124861000D02*
X102494000Y-124480000D01*
X102494000Y-124480000D02*
X101281000Y-124480000D01*
D25*
G36*
X99550000Y-124861000D02*
G01*
X99552882Y-124890264D01*
X99561418Y-124918403D01*
X99575280Y-124944336D01*
X99593934Y-124967066D01*
X100101934Y-125475066D01*
X100124664Y-125493720D01*
X100150597Y-125507582D01*
X100178736Y-125516118D01*
X100208000Y-125519000D01*
X101358182Y-125519000D01*
X101724091Y-125884909D01*
X101807436Y-125953308D01*
X101859244Y-125981000D01*
X100208000Y-125981000D01*
X100178736Y-125983882D01*
X100150597Y-125992418D01*
X100124664Y-126006280D01*
X100101934Y-126024934D01*
X99593934Y-126532934D01*
X99575280Y-126555664D01*
X99561418Y-126581597D01*
X99552882Y-126609736D01*
X99550000Y-126639000D01*
X99550000Y-127378000D01*
X98326000Y-127378000D01*
X98326000Y-124122000D01*
X99550000Y-124122000D01*
X99550000Y-124861000D01*
X99550000Y-124861000D01*
G37*
X99550000Y-124861000D02*
X99552882Y-124890264D01*
X99561418Y-124918403D01*
X99575280Y-124944336D01*
X99593934Y-124967066D01*
X100101934Y-125475066D01*
X100124664Y-125493720D01*
X100150597Y-125507582D01*
X100178736Y-125516118D01*
X100208000Y-125519000D01*
X101358182Y-125519000D01*
X101724091Y-125884909D01*
X101807436Y-125953308D01*
X101859244Y-125981000D01*
X100208000Y-125981000D01*
X100178736Y-125983882D01*
X100150597Y-125992418D01*
X100124664Y-126006280D01*
X100101934Y-126024934D01*
X99593934Y-126532934D01*
X99575280Y-126555664D01*
X99561418Y-126581597D01*
X99552882Y-126609736D01*
X99550000Y-126639000D01*
X99550000Y-127378000D01*
X98326000Y-127378000D01*
X98326000Y-124122000D01*
X99550000Y-124122000D01*
X99550000Y-124861000D01*
G36*
X102767321Y-128188127D02*
G01*
X102841607Y-128327106D01*
X102916531Y-128418401D01*
X102941579Y-128448922D01*
X102972098Y-128473968D01*
X103543339Y-129045209D01*
X103543339Y-129804000D01*
X103558762Y-129960591D01*
X103604438Y-130111165D01*
X103636955Y-130172000D01*
X98199000Y-130172000D01*
X98199000Y-128059000D01*
X102728151Y-128059000D01*
X102767321Y-128188127D01*
X102767321Y-128188127D01*
G37*
X102767321Y-128188127D02*
X102841607Y-128327106D01*
X102916531Y-128418401D01*
X102941579Y-128448922D01*
X102972098Y-128473968D01*
X103543339Y-129045209D01*
X103543339Y-129804000D01*
X103558762Y-129960591D01*
X103604438Y-130111165D01*
X103636955Y-130172000D01*
X98199000Y-130172000D01*
X98199000Y-128059000D01*
X102728151Y-128059000D01*
X102767321Y-128188127D01*
G36*
X100438895Y-120313492D02*
G01*
X100622433Y-120350000D01*
X100809567Y-120350000D01*
X100993105Y-120313492D01*
X100996707Y-120312000D01*
X103214000Y-120312000D01*
X103214000Y-121813000D01*
X103224568Y-121920300D01*
X103255866Y-122023476D01*
X103306692Y-122118564D01*
X103375091Y-122201909D01*
X104737121Y-123563939D01*
X104756826Y-123628897D01*
X104821759Y-123750378D01*
X104909144Y-123856856D01*
X105015622Y-123944241D01*
X105137103Y-124009174D01*
X105219036Y-124034028D01*
X105236436Y-124048308D01*
X105328254Y-124097386D01*
X105435934Y-124205066D01*
X105458664Y-124223720D01*
X105484597Y-124237582D01*
X105512736Y-124246118D01*
X105542000Y-124249000D01*
X106154000Y-124249000D01*
X106154000Y-124584000D01*
X105288000Y-124584000D01*
X105258736Y-124586882D01*
X105230597Y-124595418D01*
X105204664Y-124609280D01*
X105181934Y-124627934D01*
X104463868Y-125346000D01*
X104299096Y-125346000D01*
X104298424Y-125339173D01*
X104252679Y-125188372D01*
X104229181Y-125144410D01*
X104178393Y-125049393D01*
X104103470Y-124958099D01*
X104103469Y-124958098D01*
X104078422Y-124927578D01*
X104047903Y-124902532D01*
X103803198Y-124657828D01*
X103788492Y-124583895D01*
X103716879Y-124411006D01*
X103612913Y-124255410D01*
X103480590Y-124123087D01*
X103324994Y-124019121D01*
X103152105Y-123947508D01*
X103080165Y-123933198D01*
X103062422Y-123911578D01*
X102940606Y-123811607D01*
X102801628Y-123737321D01*
X102711787Y-123710068D01*
X102755174Y-123628897D01*
X102795160Y-123497082D01*
X102808661Y-123360000D01*
X102808661Y-123060000D01*
X102795160Y-122922918D01*
X102755174Y-122791103D01*
X102690241Y-122669622D01*
X102602856Y-122563144D01*
X102496378Y-122475759D01*
X102374897Y-122410826D01*
X102243082Y-122370840D01*
X102106000Y-122357339D01*
X100456000Y-122357339D01*
X100318918Y-122370840D01*
X100187103Y-122410826D01*
X100065622Y-122475759D01*
X99959144Y-122563144D01*
X99871759Y-122669622D01*
X99806826Y-122791103D01*
X99766840Y-122922918D01*
X99753339Y-123060000D01*
X98326000Y-123060000D01*
X98326000Y-120312000D01*
X100435293Y-120312000D01*
X100438895Y-120313492D01*
X100438895Y-120313492D01*
G37*
X100438895Y-120313492D02*
X100622433Y-120350000D01*
X100809567Y-120350000D01*
X100993105Y-120313492D01*
X100996707Y-120312000D01*
X103214000Y-120312000D01*
X103214000Y-121813000D01*
X103224568Y-121920300D01*
X103255866Y-122023476D01*
X103306692Y-122118564D01*
X103375091Y-122201909D01*
X104737121Y-123563939D01*
X104756826Y-123628897D01*
X104821759Y-123750378D01*
X104909144Y-123856856D01*
X105015622Y-123944241D01*
X105137103Y-124009174D01*
X105219036Y-124034028D01*
X105236436Y-124048308D01*
X105328254Y-124097386D01*
X105435934Y-124205066D01*
X105458664Y-124223720D01*
X105484597Y-124237582D01*
X105512736Y-124246118D01*
X105542000Y-124249000D01*
X106154000Y-124249000D01*
X106154000Y-124584000D01*
X105288000Y-124584000D01*
X105258736Y-124586882D01*
X105230597Y-124595418D01*
X105204664Y-124609280D01*
X105181934Y-124627934D01*
X104463868Y-125346000D01*
X104299096Y-125346000D01*
X104298424Y-125339173D01*
X104252679Y-125188372D01*
X104229181Y-125144410D01*
X104178393Y-125049393D01*
X104103470Y-124958099D01*
X104103469Y-124958098D01*
X104078422Y-124927578D01*
X104047903Y-124902532D01*
X103803198Y-124657828D01*
X103788492Y-124583895D01*
X103716879Y-124411006D01*
X103612913Y-124255410D01*
X103480590Y-124123087D01*
X103324994Y-124019121D01*
X103152105Y-123947508D01*
X103080165Y-123933198D01*
X103062422Y-123911578D01*
X102940606Y-123811607D01*
X102801628Y-123737321D01*
X102711787Y-123710068D01*
X102755174Y-123628897D01*
X102795160Y-123497082D01*
X102808661Y-123360000D01*
X102808661Y-123060000D01*
X102795160Y-122922918D01*
X102755174Y-122791103D01*
X102690241Y-122669622D01*
X102602856Y-122563144D01*
X102496378Y-122475759D01*
X102374897Y-122410826D01*
X102243082Y-122370840D01*
X102106000Y-122357339D01*
X100456000Y-122357339D01*
X100318918Y-122370840D01*
X100187103Y-122410826D01*
X100065622Y-122475759D01*
X99959144Y-122563144D01*
X99871759Y-122669622D01*
X99806826Y-122791103D01*
X99766840Y-122922918D01*
X99753339Y-123060000D01*
X98326000Y-123060000D01*
X98326000Y-120312000D01*
X100435293Y-120312000D01*
X100438895Y-120313492D01*
G36*
X108948000Y-121813000D02*
G01*
X108950882Y-121842264D01*
X108959418Y-121870403D01*
X108973280Y-121896336D01*
X108991934Y-121919066D01*
X110472000Y-123399132D01*
X110472000Y-126108000D01*
X109541132Y-126108000D01*
X107934066Y-124500934D01*
X107911336Y-124482280D01*
X107885403Y-124468418D01*
X107857264Y-124459882D01*
X107828000Y-124457000D01*
X105438000Y-124457000D01*
X105438000Y-124249000D01*
X107447000Y-124249000D01*
X107476264Y-124246118D01*
X107504403Y-124237582D01*
X107530336Y-124223720D01*
X107553066Y-124205066D01*
X107621844Y-124136288D01*
X107681300Y-124130432D01*
X107784476Y-124099134D01*
X107879564Y-124048308D01*
X107962909Y-123979909D01*
X108031308Y-123896564D01*
X108082134Y-123801476D01*
X108113432Y-123698300D01*
X108124000Y-123591000D01*
X108124000Y-120439000D01*
X108948000Y-120439000D01*
X108948000Y-121813000D01*
X108948000Y-121813000D01*
G37*
X108948000Y-121813000D02*
X108950882Y-121842264D01*
X108959418Y-121870403D01*
X108973280Y-121896336D01*
X108991934Y-121919066D01*
X110472000Y-123399132D01*
X110472000Y-126108000D01*
X109541132Y-126108000D01*
X107934066Y-124500934D01*
X107911336Y-124482280D01*
X107885403Y-124468418D01*
X107857264Y-124459882D01*
X107828000Y-124457000D01*
X105438000Y-124457000D01*
X105438000Y-124249000D01*
X107447000Y-124249000D01*
X107476264Y-124246118D01*
X107504403Y-124237582D01*
X107530336Y-124223720D01*
X107553066Y-124205066D01*
X107621844Y-124136288D01*
X107681300Y-124130432D01*
X107784476Y-124099134D01*
X107879564Y-124048308D01*
X107962909Y-123979909D01*
X108031308Y-123896564D01*
X108082134Y-123801476D01*
X108113432Y-123698300D01*
X108124000Y-123591000D01*
X108124000Y-120439000D01*
X108948000Y-120439000D01*
X108948000Y-121813000D01*
D28*
G36*
X118481241Y-121288000D02*
G01*
X115792462Y-121288000D01*
X115299462Y-120795000D01*
X118468600Y-120795000D01*
X118481241Y-121288000D01*
X118481241Y-121288000D01*
G37*
X118481241Y-121288000D02*
X115792462Y-121288000D01*
X115299462Y-120795000D01*
X118468600Y-120795000D01*
X118481241Y-121288000D01*
G36*
X118372320Y-117040096D02*
G01*
X118416600Y-118767000D01*
X115084000Y-118767000D01*
X115084000Y-118638000D01*
X115073912Y-118535578D01*
X115044037Y-118437091D01*
X114995522Y-118346326D01*
X114930231Y-118266769D01*
X113533231Y-116869769D01*
X113453674Y-116804478D01*
X113362909Y-116755963D01*
X113264422Y-116726088D01*
X113162000Y-116716000D01*
X106685000Y-116716000D01*
X106582578Y-116726088D01*
X106484091Y-116755963D01*
X106393326Y-116804478D01*
X106313769Y-116869769D01*
X105551769Y-117631769D01*
X105486478Y-117711326D01*
X105465272Y-117751000D01*
X101732000Y-117751000D01*
X101707614Y-117753402D01*
X101684165Y-117760515D01*
X101662554Y-117772066D01*
X101643612Y-117787612D01*
X101262612Y-118168612D01*
X101247066Y-118187554D01*
X101235515Y-118209165D01*
X101228402Y-118232614D01*
X101226000Y-118257000D01*
X101226000Y-119656000D01*
X100333000Y-119656000D01*
X100333000Y-117927776D01*
X102496126Y-115764650D01*
X117096419Y-115764195D01*
X118372320Y-117040096D01*
X118372320Y-117040096D01*
G37*
X118372320Y-117040096D02*
X118416600Y-118767000D01*
X115084000Y-118767000D01*
X115084000Y-118638000D01*
X115073912Y-118535578D01*
X115044037Y-118437091D01*
X114995522Y-118346326D01*
X114930231Y-118266769D01*
X113533231Y-116869769D01*
X113453674Y-116804478D01*
X113362909Y-116755963D01*
X113264422Y-116726088D01*
X113162000Y-116716000D01*
X106685000Y-116716000D01*
X106582578Y-116726088D01*
X106484091Y-116755963D01*
X106393326Y-116804478D01*
X106313769Y-116869769D01*
X105551769Y-117631769D01*
X105486478Y-117711326D01*
X105465272Y-117751000D01*
X101732000Y-117751000D01*
X101707614Y-117753402D01*
X101684165Y-117760515D01*
X101662554Y-117772066D01*
X101643612Y-117787612D01*
X101262612Y-118168612D01*
X101247066Y-118187554D01*
X101235515Y-118209165D01*
X101228402Y-118232614D01*
X101226000Y-118257000D01*
X101226000Y-119656000D01*
X100333000Y-119656000D01*
X100333000Y-117927776D01*
X102496126Y-115764650D01*
X117096419Y-115764195D01*
X118372320Y-117040096D01*
D25*
G36*
X126728000Y-126235000D02*
G01*
X123472000Y-126235000D01*
X123472000Y-124630000D01*
X126728000Y-124630000D01*
X126728000Y-126235000D01*
X126728000Y-126235000D01*
G37*
X126728000Y-126235000D02*
X123472000Y-126235000D01*
X123472000Y-124630000D01*
X126728000Y-124630000D01*
X126728000Y-126235000D01*
G36*
X118473000Y-126235000D02*
G01*
X115217000Y-126235000D01*
X115217000Y-124630000D01*
X118473000Y-124630000D01*
X118473000Y-126235000D01*
X118473000Y-126235000D01*
G37*
X118473000Y-126235000D02*
X115217000Y-126235000D01*
X115217000Y-124630000D01*
X118473000Y-124630000D01*
X118473000Y-126235000D01*
G36*
X118473000Y-120520000D02*
G01*
X115217000Y-120520000D01*
X115217000Y-119042000D01*
X118473000Y-119042000D01*
X118473000Y-120520000D01*
X118473000Y-120520000D01*
G37*
X118473000Y-120520000D02*
X115217000Y-120520000D01*
X115217000Y-119042000D01*
X118473000Y-119042000D01*
X118473000Y-120520000D01*
G36*
X114409000Y-118700132D02*
G01*
X114409000Y-120797000D01*
X114411882Y-120826264D01*
X114420418Y-120854403D01*
X114434280Y-120880336D01*
X114452934Y-120903066D01*
X115468934Y-121919066D01*
X115491664Y-121937720D01*
X115517597Y-121951582D01*
X115545736Y-121960118D01*
X115575000Y-121963000D01*
X115887627Y-121963000D01*
X115987835Y-122016562D01*
X116138409Y-122062238D01*
X116295000Y-122077661D01*
X117395000Y-122077661D01*
X117551591Y-122062238D01*
X117702165Y-122016562D01*
X117802373Y-121963000D01*
X120274000Y-121963000D01*
X120303264Y-121960118D01*
X120331403Y-121951582D01*
X120357336Y-121937720D01*
X120380066Y-121919066D01*
X124273132Y-118026000D01*
X126728000Y-118026000D01*
X126728000Y-120607868D01*
X124156034Y-123179834D01*
X124142627Y-123187000D01*
X117802373Y-123187000D01*
X117702165Y-123133438D01*
X117551591Y-123087762D01*
X117395000Y-123072339D01*
X116295000Y-123072339D01*
X116138409Y-123087762D01*
X115987835Y-123133438D01*
X115887627Y-123187000D01*
X112335132Y-123187000D01*
X111408838Y-122260706D01*
X111436108Y-121333511D01*
X111445521Y-121322042D01*
X111496592Y-121226494D01*
X111528042Y-121122819D01*
X111538661Y-121015000D01*
X111538661Y-118365000D01*
X111528042Y-118257181D01*
X111526717Y-118252814D01*
X111533935Y-118007410D01*
X111531915Y-117978074D01*
X111524210Y-117949696D01*
X111511117Y-117923367D01*
X111493138Y-117900098D01*
X111470966Y-117880783D01*
X111445452Y-117866166D01*
X111417576Y-117856806D01*
X111384000Y-117853000D01*
X111192853Y-117853000D01*
X111093819Y-117822958D01*
X110986000Y-117812339D01*
X107856000Y-117812339D01*
X107748181Y-117822958D01*
X107649147Y-117853000D01*
X107574000Y-117853000D01*
X107544736Y-117855882D01*
X107516597Y-117864418D01*
X107490664Y-117878280D01*
X107467934Y-117896934D01*
X107449280Y-117919664D01*
X107435418Y-117945597D01*
X107426882Y-117973736D01*
X107424000Y-118003000D01*
X107424000Y-118024424D01*
X107396479Y-118057958D01*
X107345408Y-118153506D01*
X107313958Y-118257181D01*
X107303339Y-118365000D01*
X107303339Y-119365000D01*
X107313958Y-119472819D01*
X107345408Y-119576494D01*
X107396479Y-119672042D01*
X107424000Y-119705576D01*
X107424000Y-120510156D01*
X107423486Y-120511118D01*
X107378522Y-120659347D01*
X107363339Y-120813500D01*
X107363339Y-121288500D01*
X107378522Y-121442653D01*
X107423486Y-121590882D01*
X107424000Y-121591844D01*
X107424000Y-121786293D01*
X107422508Y-121789895D01*
X107386000Y-121973433D01*
X107386000Y-122160567D01*
X107422508Y-122344105D01*
X107424000Y-122347707D01*
X107424000Y-122675293D01*
X107422508Y-122678895D01*
X107386000Y-122862433D01*
X107386000Y-123049567D01*
X107422508Y-123233105D01*
X107424000Y-123236707D01*
X107424000Y-123441000D01*
X105604132Y-123441000D01*
X103914000Y-121750868D01*
X103914000Y-120312000D01*
X105923000Y-120312000D01*
X105952264Y-120309118D01*
X105980403Y-120300582D01*
X106006336Y-120286720D01*
X106029066Y-120268066D01*
X106047720Y-120245336D01*
X106061582Y-120219403D01*
X106070118Y-120191264D01*
X106073000Y-120162000D01*
X106073000Y-119723853D01*
X106115521Y-119672042D01*
X106166592Y-119576494D01*
X106198042Y-119472819D01*
X106208661Y-119365000D01*
X106208661Y-118365000D01*
X106198042Y-118257181D01*
X106166592Y-118153506D01*
X106115521Y-118057958D01*
X106099588Y-118038544D01*
X106747132Y-117391000D01*
X113099868Y-117391000D01*
X114409000Y-118700132D01*
X114409000Y-118700132D01*
G37*
X114409000Y-118700132D02*
X114409000Y-120797000D01*
X114411882Y-120826264D01*
X114420418Y-120854403D01*
X114434280Y-120880336D01*
X114452934Y-120903066D01*
X115468934Y-121919066D01*
X115491664Y-121937720D01*
X115517597Y-121951582D01*
X115545736Y-121960118D01*
X115575000Y-121963000D01*
X115887627Y-121963000D01*
X115987835Y-122016562D01*
X116138409Y-122062238D01*
X116295000Y-122077661D01*
X117395000Y-122077661D01*
X117551591Y-122062238D01*
X117702165Y-122016562D01*
X117802373Y-121963000D01*
X120274000Y-121963000D01*
X120303264Y-121960118D01*
X120331403Y-121951582D01*
X120357336Y-121937720D01*
X120380066Y-121919066D01*
X124273132Y-118026000D01*
X126728000Y-118026000D01*
X126728000Y-120607868D01*
X124156034Y-123179834D01*
X124142627Y-123187000D01*
X117802373Y-123187000D01*
X117702165Y-123133438D01*
X117551591Y-123087762D01*
X117395000Y-123072339D01*
X116295000Y-123072339D01*
X116138409Y-123087762D01*
X115987835Y-123133438D01*
X115887627Y-123187000D01*
X112335132Y-123187000D01*
X111408838Y-122260706D01*
X111436108Y-121333511D01*
X111445521Y-121322042D01*
X111496592Y-121226494D01*
X111528042Y-121122819D01*
X111538661Y-121015000D01*
X111538661Y-118365000D01*
X111528042Y-118257181D01*
X111526717Y-118252814D01*
X111533935Y-118007410D01*
X111531915Y-117978074D01*
X111524210Y-117949696D01*
X111511117Y-117923367D01*
X111493138Y-117900098D01*
X111470966Y-117880783D01*
X111445452Y-117866166D01*
X111417576Y-117856806D01*
X111384000Y-117853000D01*
X111192853Y-117853000D01*
X111093819Y-117822958D01*
X110986000Y-117812339D01*
X107856000Y-117812339D01*
X107748181Y-117822958D01*
X107649147Y-117853000D01*
X107574000Y-117853000D01*
X107544736Y-117855882D01*
X107516597Y-117864418D01*
X107490664Y-117878280D01*
X107467934Y-117896934D01*
X107449280Y-117919664D01*
X107435418Y-117945597D01*
X107426882Y-117973736D01*
X107424000Y-118003000D01*
X107424000Y-118024424D01*
X107396479Y-118057958D01*
X107345408Y-118153506D01*
X107313958Y-118257181D01*
X107303339Y-118365000D01*
X107303339Y-119365000D01*
X107313958Y-119472819D01*
X107345408Y-119576494D01*
X107396479Y-119672042D01*
X107424000Y-119705576D01*
X107424000Y-120510156D01*
X107423486Y-120511118D01*
X107378522Y-120659347D01*
X107363339Y-120813500D01*
X107363339Y-121288500D01*
X107378522Y-121442653D01*
X107423486Y-121590882D01*
X107424000Y-121591844D01*
X107424000Y-121786293D01*
X107422508Y-121789895D01*
X107386000Y-121973433D01*
X107386000Y-122160567D01*
X107422508Y-122344105D01*
X107424000Y-122347707D01*
X107424000Y-122675293D01*
X107422508Y-122678895D01*
X107386000Y-122862433D01*
X107386000Y-123049567D01*
X107422508Y-123233105D01*
X107424000Y-123236707D01*
X107424000Y-123441000D01*
X105604132Y-123441000D01*
X103914000Y-121750868D01*
X103914000Y-120312000D01*
X105923000Y-120312000D01*
X105952264Y-120309118D01*
X105980403Y-120300582D01*
X106006336Y-120286720D01*
X106029066Y-120268066D01*
X106047720Y-120245336D01*
X106061582Y-120219403D01*
X106070118Y-120191264D01*
X106073000Y-120162000D01*
X106073000Y-119723853D01*
X106115521Y-119672042D01*
X106166592Y-119576494D01*
X106198042Y-119472819D01*
X106208661Y-119365000D01*
X106208661Y-118365000D01*
X106198042Y-118257181D01*
X106166592Y-118153506D01*
X106115521Y-118057958D01*
X106099588Y-118038544D01*
X106747132Y-117391000D01*
X113099868Y-117391000D01*
X114409000Y-118700132D01*
M02*
