G04 #@! TF.GenerationSoftware,KiCad,Pcbnew,5.1.4*
G04 #@! TF.CreationDate,2019-09-17T23:22:18+02:00*
G04 #@! TF.ProjectId,Tunnelling-Amp,54756e6e-656c-46c6-996e-672d416d702e,rev?*
G04 #@! TF.SameCoordinates,Original*
G04 #@! TF.FileFunction,Soldermask,Top*
G04 #@! TF.FilePolarity,Negative*
%FSLAX46Y46*%
G04 Gerber Fmt 4.6, Leading zero omitted, Abs format (unit mm)*
G04 Created by KiCad (PCBNEW 5.1.4) date 2019-09-17 23:22:18*
%MOMM*%
%LPD*%
G04 APERTURE LIST*
%ADD10C,0.400000*%
%ADD11C,0.050000*%
%ADD12C,0.150000*%
G04 APERTURE END LIST*
D10*
G36*
X109606000Y-126258000D02*
G01*
X110241000Y-126258000D01*
X111257000Y-127274000D01*
X113289000Y-127274000D01*
X114940000Y-128925000D01*
X118115000Y-128925000D01*
X118750000Y-129560000D01*
X118750000Y-133370000D01*
X118115000Y-134005000D01*
X114305000Y-134005000D01*
X113670000Y-133370000D01*
X113670000Y-130195000D01*
X112400000Y-128925000D01*
X111257000Y-128925000D01*
X110495000Y-129687000D01*
X110495000Y-131338000D01*
X107574000Y-131338000D01*
X106304000Y-130068000D01*
X106304000Y-128163000D01*
X106812000Y-127655000D01*
X106812000Y-127274000D01*
X106431000Y-126893000D01*
X105288000Y-126893000D01*
X104526000Y-126131000D01*
X104526000Y-125369000D01*
X105415000Y-124480000D01*
X107828000Y-124480000D01*
X109606000Y-126258000D01*
G37*
X109606000Y-126258000D02*
X110241000Y-126258000D01*
X111257000Y-127274000D01*
X113289000Y-127274000D01*
X114940000Y-128925000D01*
X118115000Y-128925000D01*
X118750000Y-129560000D01*
X118750000Y-133370000D01*
X118115000Y-134005000D01*
X114305000Y-134005000D01*
X113670000Y-133370000D01*
X113670000Y-130195000D01*
X112400000Y-128925000D01*
X111257000Y-128925000D01*
X110495000Y-129687000D01*
X110495000Y-131338000D01*
X107574000Y-131338000D01*
X106304000Y-130068000D01*
X106304000Y-128163000D01*
X106812000Y-127655000D01*
X106812000Y-127274000D01*
X106431000Y-126893000D01*
X105288000Y-126893000D01*
X104526000Y-126131000D01*
X104526000Y-125369000D01*
X105415000Y-124480000D01*
X107828000Y-124480000D01*
X109606000Y-126258000D01*
D11*
X137300000Y-131215000D02*
X137300000Y-119115000D01*
X91300000Y-135015000D02*
X133500000Y-135015000D01*
X87500000Y-119015000D02*
X87500000Y-131215000D01*
X133500000Y-115213684D02*
X91300000Y-115215000D01*
X137300000Y-131215000D02*
G75*
G02X133500000Y-135015000I-3800000J0D01*
G01*
X133500000Y-115213684D02*
G75*
G02X137300000Y-119115000I0J-3801316D01*
G01*
X87500000Y-119015000D02*
G75*
G02X91300000Y-115215000I3800000J0D01*
G01*
X91300000Y-135015000D02*
G75*
G02X87500000Y-131215000I0J3800000D01*
G01*
D12*
G36*
X134134239Y-128026467D02*
G01*
X134448282Y-128088934D01*
X135039926Y-128334001D01*
X135329523Y-128527504D01*
X135572391Y-128689783D01*
X136025217Y-129142609D01*
X136062701Y-129198708D01*
X136380999Y-129675074D01*
X136626066Y-130266718D01*
X136626066Y-130266719D01*
X136751000Y-130894803D01*
X136751000Y-131535197D01*
X136688533Y-131849239D01*
X136626066Y-132163282D01*
X136380999Y-132754926D01*
X136025216Y-133287392D01*
X135572392Y-133740216D01*
X135039926Y-134095999D01*
X134448282Y-134341066D01*
X134134239Y-134403533D01*
X133820197Y-134466000D01*
X133179803Y-134466000D01*
X132865761Y-134403533D01*
X132551718Y-134341066D01*
X131960074Y-134095999D01*
X131427608Y-133740216D01*
X130974784Y-133287392D01*
X130619001Y-132754926D01*
X130373934Y-132163282D01*
X130311467Y-131849239D01*
X130249000Y-131535197D01*
X130249000Y-130894803D01*
X130373934Y-130266719D01*
X130373934Y-130266718D01*
X130619001Y-129675074D01*
X130937299Y-129198708D01*
X130974783Y-129142609D01*
X131427609Y-128689783D01*
X131670477Y-128527504D01*
X131960074Y-128334001D01*
X132551718Y-128088934D01*
X132865761Y-128026467D01*
X133179803Y-127964000D01*
X133820197Y-127964000D01*
X134134239Y-128026467D01*
X134134239Y-128026467D01*
G37*
G36*
X91934239Y-128026467D02*
G01*
X92248282Y-128088934D01*
X92839926Y-128334001D01*
X93129523Y-128527504D01*
X93372391Y-128689783D01*
X93825217Y-129142609D01*
X93862701Y-129198708D01*
X94180999Y-129675074D01*
X94426066Y-130266718D01*
X94426066Y-130266719D01*
X94551000Y-130894803D01*
X94551000Y-131535197D01*
X94488533Y-131849239D01*
X94426066Y-132163282D01*
X94180999Y-132754926D01*
X93825216Y-133287392D01*
X93372392Y-133740216D01*
X92839926Y-134095999D01*
X92248282Y-134341066D01*
X91934239Y-134403533D01*
X91620197Y-134466000D01*
X90979803Y-134466000D01*
X90665761Y-134403533D01*
X90351718Y-134341066D01*
X89760074Y-134095999D01*
X89227608Y-133740216D01*
X88774784Y-133287392D01*
X88419001Y-132754926D01*
X88173934Y-132163282D01*
X88111467Y-131849239D01*
X88049000Y-131535197D01*
X88049000Y-130894803D01*
X88173934Y-130266719D01*
X88173934Y-130266718D01*
X88419001Y-129675074D01*
X88737299Y-129198708D01*
X88774783Y-129142609D01*
X89227609Y-128689783D01*
X89470477Y-128527504D01*
X89760074Y-128334001D01*
X90351718Y-128088934D01*
X90665761Y-128026467D01*
X90979803Y-127964000D01*
X91620197Y-127964000D01*
X91934239Y-128026467D01*
X91934239Y-128026467D01*
G37*
G36*
X117511000Y-132766000D02*
G01*
X114909000Y-132766000D01*
X114909000Y-130164000D01*
X117511000Y-130164000D01*
X117511000Y-132766000D01*
X117511000Y-132766000D01*
G37*
G36*
X111037000Y-131916000D02*
G01*
X107805000Y-131916000D01*
X107805000Y-130814000D01*
X109810001Y-130814000D01*
X109834387Y-130811598D01*
X109857836Y-130804485D01*
X109879447Y-130792934D01*
X109898389Y-130777389D01*
X109913934Y-130758447D01*
X109925485Y-130736836D01*
X109932598Y-130713387D01*
X109935000Y-130689001D01*
X109935000Y-129164000D01*
X111037000Y-129164000D01*
X111037000Y-131916000D01*
X111037000Y-131916000D01*
G37*
G36*
X97577000Y-130689001D02*
G01*
X97579402Y-130713387D01*
X97586515Y-130736836D01*
X97598066Y-130758447D01*
X97613611Y-130777389D01*
X97632553Y-130792934D01*
X97654164Y-130804485D01*
X97677613Y-130811598D01*
X97701999Y-130814000D01*
X99707000Y-130814000D01*
X99707000Y-131916000D01*
X96475000Y-131916000D01*
X96475000Y-129164000D01*
X97577000Y-129164000D01*
X97577000Y-130689001D01*
X97577000Y-130689001D01*
G37*
G36*
X105707000Y-131916000D02*
G01*
X101805000Y-131916000D01*
X101805000Y-130814000D01*
X105707000Y-130814000D01*
X105707000Y-131916000D01*
X105707000Y-131916000D01*
G37*
G36*
X108396562Y-128257181D02*
G01*
X108431481Y-128267774D01*
X108463663Y-128284976D01*
X108491873Y-128308127D01*
X108515024Y-128336337D01*
X108532226Y-128368519D01*
X108542819Y-128403438D01*
X108547000Y-128445895D01*
X108547000Y-129912105D01*
X108542819Y-129954562D01*
X108532226Y-129989481D01*
X108515024Y-130021663D01*
X108491873Y-130049873D01*
X108463663Y-130073024D01*
X108431481Y-130090226D01*
X108396562Y-130100819D01*
X108354105Y-130105000D01*
X107212895Y-130105000D01*
X107170438Y-130100819D01*
X107135519Y-130090226D01*
X107103337Y-130073024D01*
X107075127Y-130049873D01*
X107051976Y-130021663D01*
X107034774Y-129989481D01*
X107024181Y-129954562D01*
X107020000Y-129912105D01*
X107020000Y-128445895D01*
X107024181Y-128403438D01*
X107034774Y-128368519D01*
X107051976Y-128336337D01*
X107075127Y-128308127D01*
X107103337Y-128284976D01*
X107135519Y-128267774D01*
X107170438Y-128257181D01*
X107212895Y-128253000D01*
X108354105Y-128253000D01*
X108396562Y-128257181D01*
X108396562Y-128257181D01*
G37*
G36*
X105421562Y-128257181D02*
G01*
X105456481Y-128267774D01*
X105488663Y-128284976D01*
X105516873Y-128308127D01*
X105540024Y-128336337D01*
X105557226Y-128368519D01*
X105567819Y-128403438D01*
X105572000Y-128445895D01*
X105572000Y-129912105D01*
X105567819Y-129954562D01*
X105557226Y-129989481D01*
X105540024Y-130021663D01*
X105516873Y-130049873D01*
X105488663Y-130073024D01*
X105456481Y-130090226D01*
X105421562Y-130100819D01*
X105379105Y-130105000D01*
X104237895Y-130105000D01*
X104195438Y-130100819D01*
X104160519Y-130090226D01*
X104128337Y-130073024D01*
X104100127Y-130049873D01*
X104076976Y-130021663D01*
X104059774Y-129989481D01*
X104049181Y-129954562D01*
X104045000Y-129912105D01*
X104045000Y-128445895D01*
X104049181Y-128403438D01*
X104059774Y-128368519D01*
X104076976Y-128336337D01*
X104100127Y-128308127D01*
X104128337Y-128284976D01*
X104160519Y-128267774D01*
X104195438Y-128257181D01*
X104237895Y-128253000D01*
X105379105Y-128253000D01*
X105421562Y-128257181D01*
X105421562Y-128257181D01*
G37*
G36*
X99294499Y-128085445D02*
G01*
X99331995Y-128096820D01*
X99366554Y-128115292D01*
X99396847Y-128140153D01*
X99421708Y-128170446D01*
X99440180Y-128205005D01*
X99451555Y-128242501D01*
X99456000Y-128287638D01*
X99456000Y-129026362D01*
X99451555Y-129071499D01*
X99440180Y-129108995D01*
X99421708Y-129143554D01*
X99396847Y-129173847D01*
X99366554Y-129198708D01*
X99331995Y-129217180D01*
X99294499Y-129228555D01*
X99249362Y-129233000D01*
X98610638Y-129233000D01*
X98565501Y-129228555D01*
X98528005Y-129217180D01*
X98493446Y-129198708D01*
X98463153Y-129173847D01*
X98438292Y-129143554D01*
X98419820Y-129108995D01*
X98408445Y-129071499D01*
X98404000Y-129026362D01*
X98404000Y-128287638D01*
X98408445Y-128242501D01*
X98419820Y-128205005D01*
X98438292Y-128170446D01*
X98463153Y-128140153D01*
X98493446Y-128115292D01*
X98528005Y-128096820D01*
X98565501Y-128085445D01*
X98610638Y-128081000D01*
X99249362Y-128081000D01*
X99294499Y-128085445D01*
X99294499Y-128085445D01*
G37*
G36*
X99294499Y-126335445D02*
G01*
X99331995Y-126346820D01*
X99366554Y-126365292D01*
X99396847Y-126390153D01*
X99421708Y-126420446D01*
X99440180Y-126455005D01*
X99451555Y-126492501D01*
X99456000Y-126537638D01*
X99456000Y-127276362D01*
X99451555Y-127321499D01*
X99440180Y-127358995D01*
X99421708Y-127393554D01*
X99396847Y-127423847D01*
X99366554Y-127448708D01*
X99331995Y-127467180D01*
X99294499Y-127478555D01*
X99249362Y-127483000D01*
X98610638Y-127483000D01*
X98565501Y-127478555D01*
X98528005Y-127467180D01*
X98493446Y-127448708D01*
X98463153Y-127423847D01*
X98438292Y-127393554D01*
X98419820Y-127358995D01*
X98408445Y-127321499D01*
X98404000Y-127276362D01*
X98404000Y-126537638D01*
X98408445Y-126492501D01*
X98419820Y-126455005D01*
X98438292Y-126420446D01*
X98463153Y-126390153D01*
X98493446Y-126365292D01*
X98528005Y-126346820D01*
X98565501Y-126335445D01*
X98610638Y-126331000D01*
X99249362Y-126331000D01*
X99294499Y-126335445D01*
X99294499Y-126335445D01*
G37*
G36*
X102215928Y-126671764D02*
G01*
X102237009Y-126678160D01*
X102256445Y-126688548D01*
X102273476Y-126702524D01*
X102287452Y-126719555D01*
X102297840Y-126738991D01*
X102304236Y-126760072D01*
X102307000Y-126788140D01*
X102307000Y-127251860D01*
X102304236Y-127279928D01*
X102297840Y-127301009D01*
X102287452Y-127320445D01*
X102273476Y-127337476D01*
X102256445Y-127351452D01*
X102237009Y-127361840D01*
X102215928Y-127368236D01*
X102187860Y-127371000D01*
X100374140Y-127371000D01*
X100346072Y-127368236D01*
X100324991Y-127361840D01*
X100305555Y-127351452D01*
X100288524Y-127337476D01*
X100274548Y-127320445D01*
X100264160Y-127301009D01*
X100257764Y-127279928D01*
X100255000Y-127251860D01*
X100255000Y-126788140D01*
X100257764Y-126760072D01*
X100264160Y-126738991D01*
X100274548Y-126719555D01*
X100288524Y-126702524D01*
X100305555Y-126688548D01*
X100324991Y-126678160D01*
X100346072Y-126671764D01*
X100374140Y-126669000D01*
X102187860Y-126669000D01*
X102215928Y-126671764D01*
X102215928Y-126671764D01*
G37*
G36*
X125805997Y-123578051D02*
G01*
X125839652Y-123588261D01*
X125870665Y-123604838D01*
X125897851Y-123627149D01*
X125920162Y-123654335D01*
X125936739Y-123685348D01*
X125946949Y-123719003D01*
X125951000Y-123760138D01*
X125951000Y-126989862D01*
X125946949Y-127030997D01*
X125936739Y-127064652D01*
X125920162Y-127095665D01*
X125897851Y-127122851D01*
X125870665Y-127145162D01*
X125839652Y-127161739D01*
X125805997Y-127171949D01*
X125764862Y-127176000D01*
X124435138Y-127176000D01*
X124394003Y-127171949D01*
X124360348Y-127161739D01*
X124329335Y-127145162D01*
X124302149Y-127122851D01*
X124279838Y-127095665D01*
X124263261Y-127064652D01*
X124253051Y-127030997D01*
X124249000Y-126989862D01*
X124249000Y-123760138D01*
X124253051Y-123719003D01*
X124263261Y-123685348D01*
X124279838Y-123654335D01*
X124302149Y-123627149D01*
X124329335Y-123604838D01*
X124360348Y-123588261D01*
X124394003Y-123578051D01*
X124435138Y-123574000D01*
X125764862Y-123574000D01*
X125805997Y-123578051D01*
X125805997Y-123578051D01*
G37*
G36*
X117550997Y-123578051D02*
G01*
X117584652Y-123588261D01*
X117615665Y-123604838D01*
X117642851Y-123627149D01*
X117665162Y-123654335D01*
X117681739Y-123685348D01*
X117691949Y-123719003D01*
X117696000Y-123760138D01*
X117696000Y-126989862D01*
X117691949Y-127030997D01*
X117681739Y-127064652D01*
X117665162Y-127095665D01*
X117642851Y-127122851D01*
X117615665Y-127145162D01*
X117584652Y-127161739D01*
X117550997Y-127171949D01*
X117509862Y-127176000D01*
X116180138Y-127176000D01*
X116139003Y-127171949D01*
X116105348Y-127161739D01*
X116074335Y-127145162D01*
X116047149Y-127122851D01*
X116024838Y-127095665D01*
X116008261Y-127064652D01*
X115998051Y-127030997D01*
X115994000Y-126989862D01*
X115994000Y-123760138D01*
X115998051Y-123719003D01*
X116008261Y-123685348D01*
X116024838Y-123654335D01*
X116047149Y-123627149D01*
X116074335Y-123604838D01*
X116105348Y-123588261D01*
X116139003Y-123578051D01*
X116180138Y-123574000D01*
X117509862Y-123574000D01*
X117550997Y-123578051D01*
X117550997Y-123578051D01*
G37*
G36*
X97577000Y-127066000D02*
G01*
X96475000Y-127066000D01*
X96475000Y-123164000D01*
X97577000Y-123164000D01*
X97577000Y-127066000D01*
X97577000Y-127066000D01*
G37*
G36*
X111037000Y-127066000D02*
G01*
X109935000Y-127066000D01*
X109935000Y-123164000D01*
X111037000Y-123164000D01*
X111037000Y-127066000D01*
X111037000Y-127066000D01*
G37*
G36*
X102215928Y-125401764D02*
G01*
X102237009Y-125408160D01*
X102256445Y-125418548D01*
X102273476Y-125432524D01*
X102287452Y-125449555D01*
X102297840Y-125468991D01*
X102304236Y-125490072D01*
X102307000Y-125518140D01*
X102307000Y-125981860D01*
X102304236Y-126009928D01*
X102297840Y-126031009D01*
X102287452Y-126050445D01*
X102273476Y-126067476D01*
X102256445Y-126081452D01*
X102237009Y-126091840D01*
X102215928Y-126098236D01*
X102187860Y-126101000D01*
X100374140Y-126101000D01*
X100346072Y-126098236D01*
X100324991Y-126091840D01*
X100305555Y-126081452D01*
X100288524Y-126067476D01*
X100274548Y-126050445D01*
X100264160Y-126031009D01*
X100257764Y-126009928D01*
X100255000Y-125981860D01*
X100255000Y-125518140D01*
X100257764Y-125490072D01*
X100264160Y-125468991D01*
X100274548Y-125449555D01*
X100288524Y-125432524D01*
X100305555Y-125418548D01*
X100324991Y-125408160D01*
X100346072Y-125401764D01*
X100374140Y-125399000D01*
X102187860Y-125399000D01*
X102215928Y-125401764D01*
X102215928Y-125401764D01*
G37*
G36*
X107165928Y-125401764D02*
G01*
X107187009Y-125408160D01*
X107206445Y-125418548D01*
X107223476Y-125432524D01*
X107237452Y-125449555D01*
X107247840Y-125468991D01*
X107254236Y-125490072D01*
X107257000Y-125518140D01*
X107257000Y-125981860D01*
X107254236Y-126009928D01*
X107247840Y-126031009D01*
X107237452Y-126050445D01*
X107223476Y-126067476D01*
X107206445Y-126081452D01*
X107187009Y-126091840D01*
X107165928Y-126098236D01*
X107137860Y-126101000D01*
X105324140Y-126101000D01*
X105296072Y-126098236D01*
X105274991Y-126091840D01*
X105255555Y-126081452D01*
X105238524Y-126067476D01*
X105224548Y-126050445D01*
X105214160Y-126031009D01*
X105207764Y-126009928D01*
X105205000Y-125981860D01*
X105205000Y-125518140D01*
X105207764Y-125490072D01*
X105214160Y-125468991D01*
X105224548Y-125449555D01*
X105238524Y-125432524D01*
X105255555Y-125418548D01*
X105274991Y-125408160D01*
X105296072Y-125401764D01*
X105324140Y-125399000D01*
X107137860Y-125399000D01*
X107165928Y-125401764D01*
X107165928Y-125401764D01*
G37*
G36*
X99518674Y-123994465D02*
G01*
X99556367Y-124005899D01*
X99591103Y-124024466D01*
X99621548Y-124049452D01*
X99646534Y-124079897D01*
X99665101Y-124114633D01*
X99676535Y-124152326D01*
X99681000Y-124197661D01*
X99681000Y-125034339D01*
X99676535Y-125079674D01*
X99665101Y-125117367D01*
X99646534Y-125152103D01*
X99621548Y-125182548D01*
X99591103Y-125207534D01*
X99556367Y-125226101D01*
X99518674Y-125237535D01*
X99473339Y-125242000D01*
X98386661Y-125242000D01*
X98341326Y-125237535D01*
X98303633Y-125226101D01*
X98268897Y-125207534D01*
X98238452Y-125182548D01*
X98213466Y-125152103D01*
X98194899Y-125117367D01*
X98183465Y-125079674D01*
X98179000Y-125034339D01*
X98179000Y-124197661D01*
X98183465Y-124152326D01*
X98194899Y-124114633D01*
X98213466Y-124079897D01*
X98238452Y-124049452D01*
X98268897Y-124024466D01*
X98303633Y-124005899D01*
X98341326Y-123994465D01*
X98386661Y-123990000D01*
X99473339Y-123990000D01*
X99518674Y-123994465D01*
X99518674Y-123994465D01*
G37*
G36*
X102215928Y-124131764D02*
G01*
X102237009Y-124138160D01*
X102256445Y-124148548D01*
X102273476Y-124162524D01*
X102287452Y-124179555D01*
X102297840Y-124198991D01*
X102304236Y-124220072D01*
X102307000Y-124248140D01*
X102307000Y-124711860D01*
X102304236Y-124739928D01*
X102297840Y-124761009D01*
X102287452Y-124780445D01*
X102273476Y-124797476D01*
X102256445Y-124811452D01*
X102237009Y-124821840D01*
X102215928Y-124828236D01*
X102187860Y-124831000D01*
X100374140Y-124831000D01*
X100346072Y-124828236D01*
X100324991Y-124821840D01*
X100305555Y-124811452D01*
X100288524Y-124797476D01*
X100274548Y-124780445D01*
X100264160Y-124761009D01*
X100257764Y-124739928D01*
X100255000Y-124711860D01*
X100255000Y-124248140D01*
X100257764Y-124220072D01*
X100264160Y-124198991D01*
X100274548Y-124179555D01*
X100288524Y-124162524D01*
X100305555Y-124148548D01*
X100324991Y-124138160D01*
X100346072Y-124131764D01*
X100374140Y-124129000D01*
X102187860Y-124129000D01*
X102215928Y-124131764D01*
X102215928Y-124131764D01*
G37*
G36*
X107165928Y-124131764D02*
G01*
X107187009Y-124138160D01*
X107206445Y-124148548D01*
X107223476Y-124162524D01*
X107237452Y-124179555D01*
X107247840Y-124198991D01*
X107254236Y-124220072D01*
X107257000Y-124248140D01*
X107257000Y-124711860D01*
X107254236Y-124739928D01*
X107247840Y-124761009D01*
X107237452Y-124780445D01*
X107223476Y-124797476D01*
X107206445Y-124811452D01*
X107187009Y-124821840D01*
X107165928Y-124828236D01*
X107137860Y-124831000D01*
X105324140Y-124831000D01*
X105296072Y-124828236D01*
X105274991Y-124821840D01*
X105255555Y-124811452D01*
X105238524Y-124797476D01*
X105224548Y-124780445D01*
X105214160Y-124761009D01*
X105207764Y-124739928D01*
X105205000Y-124711860D01*
X105205000Y-124248140D01*
X105207764Y-124220072D01*
X105214160Y-124198991D01*
X105224548Y-124179555D01*
X105238524Y-124162524D01*
X105255555Y-124148548D01*
X105274991Y-124138160D01*
X105296072Y-124131764D01*
X105324140Y-124129000D01*
X107137860Y-124129000D01*
X107165928Y-124131764D01*
X107165928Y-124131764D01*
G37*
G36*
X107165928Y-122861764D02*
G01*
X107187009Y-122868160D01*
X107206445Y-122878548D01*
X107223476Y-122892524D01*
X107237452Y-122909555D01*
X107247840Y-122928991D01*
X107254236Y-122950072D01*
X107257000Y-122978140D01*
X107257000Y-123441860D01*
X107254236Y-123469928D01*
X107247840Y-123491009D01*
X107237452Y-123510445D01*
X107223476Y-123527476D01*
X107206445Y-123541452D01*
X107187009Y-123551840D01*
X107165928Y-123558236D01*
X107137860Y-123561000D01*
X105324140Y-123561000D01*
X105296072Y-123558236D01*
X105274991Y-123551840D01*
X105255555Y-123541452D01*
X105238524Y-123527476D01*
X105224548Y-123510445D01*
X105214160Y-123491009D01*
X105207764Y-123469928D01*
X105205000Y-123441860D01*
X105205000Y-122978140D01*
X105207764Y-122950072D01*
X105214160Y-122928991D01*
X105224548Y-122909555D01*
X105238524Y-122892524D01*
X105255555Y-122878548D01*
X105274991Y-122868160D01*
X105296072Y-122861764D01*
X105324140Y-122859000D01*
X107137860Y-122859000D01*
X107165928Y-122861764D01*
X107165928Y-122861764D01*
G37*
G36*
X102215928Y-122861764D02*
G01*
X102237009Y-122868160D01*
X102256445Y-122878548D01*
X102273476Y-122892524D01*
X102287452Y-122909555D01*
X102297840Y-122928991D01*
X102304236Y-122950072D01*
X102307000Y-122978140D01*
X102307000Y-123441860D01*
X102304236Y-123469928D01*
X102297840Y-123491009D01*
X102287452Y-123510445D01*
X102273476Y-123527476D01*
X102256445Y-123541452D01*
X102237009Y-123551840D01*
X102215928Y-123558236D01*
X102187860Y-123561000D01*
X100374140Y-123561000D01*
X100346072Y-123558236D01*
X100324991Y-123551840D01*
X100305555Y-123541452D01*
X100288524Y-123527476D01*
X100274548Y-123510445D01*
X100264160Y-123491009D01*
X100257764Y-123469928D01*
X100255000Y-123441860D01*
X100255000Y-122978140D01*
X100257764Y-122950072D01*
X100264160Y-122928991D01*
X100274548Y-122909555D01*
X100288524Y-122892524D01*
X100305555Y-122878548D01*
X100324991Y-122868160D01*
X100346072Y-122861764D01*
X100374140Y-122859000D01*
X102187860Y-122859000D01*
X102215928Y-122861764D01*
X102215928Y-122861764D01*
G37*
G36*
X99518674Y-121944465D02*
G01*
X99556367Y-121955899D01*
X99591103Y-121974466D01*
X99621548Y-121999452D01*
X99646534Y-122029897D01*
X99665101Y-122064633D01*
X99676535Y-122102326D01*
X99681000Y-122147661D01*
X99681000Y-122984339D01*
X99676535Y-123029674D01*
X99665101Y-123067367D01*
X99646534Y-123102103D01*
X99621548Y-123132548D01*
X99591103Y-123157534D01*
X99556367Y-123176101D01*
X99518674Y-123187535D01*
X99473339Y-123192000D01*
X98386661Y-123192000D01*
X98341326Y-123187535D01*
X98303633Y-123176101D01*
X98268897Y-123157534D01*
X98238452Y-123132548D01*
X98213466Y-123102103D01*
X98194899Y-123067367D01*
X98183465Y-123029674D01*
X98179000Y-122984339D01*
X98179000Y-122147661D01*
X98183465Y-122102326D01*
X98194899Y-122064633D01*
X98213466Y-122029897D01*
X98238452Y-121999452D01*
X98268897Y-121974466D01*
X98303633Y-121955899D01*
X98341326Y-121944465D01*
X98386661Y-121940000D01*
X99473339Y-121940000D01*
X99518674Y-121944465D01*
X99518674Y-121944465D01*
G37*
G36*
X134134239Y-115826467D02*
G01*
X134448282Y-115888934D01*
X135039926Y-116134001D01*
X135572392Y-116489784D01*
X136025216Y-116942608D01*
X136380999Y-117475074D01*
X136626066Y-118066718D01*
X136626066Y-118066719D01*
X136751000Y-118694803D01*
X136751000Y-119335197D01*
X136723877Y-119471553D01*
X136626066Y-119963282D01*
X136380999Y-120554926D01*
X136133265Y-120925685D01*
X136025217Y-121087391D01*
X135572391Y-121540217D01*
X135518838Y-121576000D01*
X135039926Y-121895999D01*
X134448282Y-122141066D01*
X134134239Y-122203533D01*
X133820197Y-122266000D01*
X133179803Y-122266000D01*
X132865761Y-122203533D01*
X132551718Y-122141066D01*
X131960074Y-121895999D01*
X131481162Y-121576000D01*
X131427609Y-121540217D01*
X130974783Y-121087391D01*
X130866735Y-120925685D01*
X130619001Y-120554926D01*
X130373934Y-119963282D01*
X130276123Y-119471553D01*
X130249000Y-119335197D01*
X130249000Y-118694803D01*
X130373934Y-118066719D01*
X130373934Y-118066718D01*
X130619001Y-117475074D01*
X130974784Y-116942608D01*
X131427608Y-116489784D01*
X131960074Y-116134001D01*
X132551718Y-115888934D01*
X132865761Y-115826467D01*
X133179803Y-115764000D01*
X133820197Y-115764000D01*
X134134239Y-115826467D01*
X134134239Y-115826467D01*
G37*
G36*
X91934239Y-115826467D02*
G01*
X92248282Y-115888934D01*
X92839926Y-116134001D01*
X93372392Y-116489784D01*
X93825216Y-116942608D01*
X94180999Y-117475074D01*
X94426066Y-118066718D01*
X94426066Y-118066719D01*
X94551000Y-118694803D01*
X94551000Y-119335197D01*
X94523877Y-119471553D01*
X94426066Y-119963282D01*
X94180999Y-120554926D01*
X93933265Y-120925685D01*
X93825217Y-121087391D01*
X93372391Y-121540217D01*
X93318838Y-121576000D01*
X92839926Y-121895999D01*
X92248282Y-122141066D01*
X91934239Y-122203533D01*
X91620197Y-122266000D01*
X90979803Y-122266000D01*
X90665761Y-122203533D01*
X90351718Y-122141066D01*
X89760074Y-121895999D01*
X89281162Y-121576000D01*
X89227609Y-121540217D01*
X88774783Y-121087391D01*
X88666735Y-120925685D01*
X88419001Y-120554926D01*
X88173934Y-119963282D01*
X88076123Y-119471553D01*
X88049000Y-119335197D01*
X88049000Y-118694803D01*
X88173934Y-118066719D01*
X88173934Y-118066718D01*
X88419001Y-117475074D01*
X88774784Y-116942608D01*
X89227608Y-116489784D01*
X89760074Y-116134001D01*
X90351718Y-115888934D01*
X90665761Y-115826467D01*
X90979803Y-115764000D01*
X91620197Y-115764000D01*
X91934239Y-115826467D01*
X91934239Y-115826467D01*
G37*
G36*
X102821674Y-120304465D02*
G01*
X102859367Y-120315899D01*
X102894103Y-120334466D01*
X102924548Y-120359452D01*
X102949534Y-120389897D01*
X102968101Y-120424633D01*
X102979535Y-120462326D01*
X102984000Y-120507661D01*
X102984000Y-121594339D01*
X102979535Y-121639674D01*
X102968101Y-121677367D01*
X102949534Y-121712103D01*
X102924548Y-121742548D01*
X102894103Y-121767534D01*
X102859367Y-121786101D01*
X102821674Y-121797535D01*
X102776339Y-121802000D01*
X101939661Y-121802000D01*
X101894326Y-121797535D01*
X101856633Y-121786101D01*
X101821897Y-121767534D01*
X101791452Y-121742548D01*
X101766466Y-121712103D01*
X101747899Y-121677367D01*
X101736465Y-121639674D01*
X101732000Y-121594339D01*
X101732000Y-120507661D01*
X101736465Y-120462326D01*
X101747899Y-120424633D01*
X101766466Y-120389897D01*
X101791452Y-120359452D01*
X101821897Y-120334466D01*
X101856633Y-120315899D01*
X101894326Y-120304465D01*
X101939661Y-120300000D01*
X102776339Y-120300000D01*
X102821674Y-120304465D01*
X102821674Y-120304465D01*
G37*
G36*
X104871674Y-120304465D02*
G01*
X104909367Y-120315899D01*
X104944103Y-120334466D01*
X104974548Y-120359452D01*
X104999534Y-120389897D01*
X105018101Y-120424633D01*
X105029535Y-120462326D01*
X105034000Y-120507661D01*
X105034000Y-121594339D01*
X105029535Y-121639674D01*
X105018101Y-121677367D01*
X104999534Y-121712103D01*
X104974548Y-121742548D01*
X104944103Y-121767534D01*
X104909367Y-121786101D01*
X104871674Y-121797535D01*
X104826339Y-121802000D01*
X103989661Y-121802000D01*
X103944326Y-121797535D01*
X103906633Y-121786101D01*
X103871897Y-121767534D01*
X103841452Y-121742548D01*
X103816466Y-121712103D01*
X103797899Y-121677367D01*
X103786465Y-121639674D01*
X103782000Y-121594339D01*
X103782000Y-120507661D01*
X103786465Y-120462326D01*
X103797899Y-120424633D01*
X103816466Y-120389897D01*
X103841452Y-120359452D01*
X103871897Y-120334466D01*
X103906633Y-120315899D01*
X103944326Y-120304465D01*
X103989661Y-120300000D01*
X104826339Y-120300000D01*
X104871674Y-120304465D01*
X104871674Y-120304465D01*
G37*
G36*
X107105499Y-120529445D02*
G01*
X107142995Y-120540820D01*
X107177554Y-120559292D01*
X107207847Y-120584153D01*
X107232708Y-120614446D01*
X107251180Y-120649005D01*
X107262555Y-120686501D01*
X107267000Y-120731638D01*
X107267000Y-121370362D01*
X107262555Y-121415499D01*
X107251180Y-121452995D01*
X107232708Y-121487554D01*
X107207847Y-121517847D01*
X107177554Y-121542708D01*
X107142995Y-121561180D01*
X107105499Y-121572555D01*
X107060362Y-121577000D01*
X106321638Y-121577000D01*
X106276501Y-121572555D01*
X106239005Y-121561180D01*
X106204446Y-121542708D01*
X106174153Y-121517847D01*
X106149292Y-121487554D01*
X106130820Y-121452995D01*
X106119445Y-121415499D01*
X106115000Y-121370362D01*
X106115000Y-120731638D01*
X106119445Y-120686501D01*
X106130820Y-120649005D01*
X106149292Y-120614446D01*
X106174153Y-120584153D01*
X106204446Y-120559292D01*
X106239005Y-120540820D01*
X106276501Y-120529445D01*
X106321638Y-120525000D01*
X107060362Y-120525000D01*
X107105499Y-120529445D01*
X107105499Y-120529445D01*
G37*
G36*
X108855499Y-120529445D02*
G01*
X108892995Y-120540820D01*
X108927554Y-120559292D01*
X108957847Y-120584153D01*
X108982708Y-120614446D01*
X109001180Y-120649005D01*
X109012555Y-120686501D01*
X109017000Y-120731638D01*
X109017000Y-121370362D01*
X109012555Y-121415499D01*
X109001180Y-121452995D01*
X108982708Y-121487554D01*
X108957847Y-121517847D01*
X108927554Y-121542708D01*
X108892995Y-121561180D01*
X108855499Y-121572555D01*
X108810362Y-121577000D01*
X108071638Y-121577000D01*
X108026501Y-121572555D01*
X107989005Y-121561180D01*
X107954446Y-121542708D01*
X107924153Y-121517847D01*
X107899292Y-121487554D01*
X107880820Y-121452995D01*
X107869445Y-121415499D01*
X107865000Y-121370362D01*
X107865000Y-120731638D01*
X107869445Y-120686501D01*
X107880820Y-120649005D01*
X107899292Y-120614446D01*
X107924153Y-120584153D01*
X107954446Y-120559292D01*
X107989005Y-120540820D01*
X108026501Y-120529445D01*
X108071638Y-120525000D01*
X108810362Y-120525000D01*
X108855499Y-120529445D01*
X108855499Y-120529445D01*
G37*
G36*
X125805997Y-117978051D02*
G01*
X125839652Y-117988261D01*
X125870665Y-118004838D01*
X125897851Y-118027149D01*
X125920162Y-118054335D01*
X125936739Y-118085348D01*
X125946949Y-118119003D01*
X125951000Y-118160138D01*
X125951000Y-121389862D01*
X125946949Y-121430997D01*
X125936739Y-121464652D01*
X125920162Y-121495665D01*
X125897851Y-121522851D01*
X125870665Y-121545162D01*
X125839652Y-121561739D01*
X125805997Y-121571949D01*
X125764862Y-121576000D01*
X124435138Y-121576000D01*
X124394003Y-121571949D01*
X124360348Y-121561739D01*
X124329335Y-121545162D01*
X124302149Y-121522851D01*
X124279838Y-121495665D01*
X124263261Y-121464652D01*
X124253051Y-121430997D01*
X124249000Y-121389862D01*
X124249000Y-118160138D01*
X124253051Y-118119003D01*
X124263261Y-118085348D01*
X124279838Y-118054335D01*
X124302149Y-118027149D01*
X124329335Y-118004838D01*
X124360348Y-117988261D01*
X124394003Y-117978051D01*
X124435138Y-117974000D01*
X125764862Y-117974000D01*
X125805997Y-117978051D01*
X125805997Y-117978051D01*
G37*
G36*
X117550997Y-117978051D02*
G01*
X117584652Y-117988261D01*
X117615665Y-118004838D01*
X117642851Y-118027149D01*
X117665162Y-118054335D01*
X117681739Y-118085348D01*
X117691949Y-118119003D01*
X117696000Y-118160138D01*
X117696000Y-121389862D01*
X117691949Y-121430997D01*
X117681739Y-121464652D01*
X117665162Y-121495665D01*
X117642851Y-121522851D01*
X117615665Y-121545162D01*
X117584652Y-121561739D01*
X117550997Y-121571949D01*
X117509862Y-121576000D01*
X116180138Y-121576000D01*
X116139003Y-121571949D01*
X116105348Y-121561739D01*
X116074335Y-121545162D01*
X116047149Y-121522851D01*
X116024838Y-121495665D01*
X116008261Y-121464652D01*
X115998051Y-121430997D01*
X115994000Y-121389862D01*
X115994000Y-118160138D01*
X115998051Y-118119003D01*
X116008261Y-118085348D01*
X116024838Y-118054335D01*
X116047149Y-118027149D01*
X116074335Y-118004838D01*
X116105348Y-117988261D01*
X116139003Y-117978051D01*
X116180138Y-117974000D01*
X117509862Y-117974000D01*
X117550997Y-117978051D01*
X117550997Y-117978051D01*
G37*
G36*
X99707000Y-119416000D02*
G01*
X97701999Y-119416000D01*
X97677613Y-119418402D01*
X97654164Y-119425515D01*
X97632553Y-119437066D01*
X97613611Y-119452611D01*
X97598066Y-119471553D01*
X97586515Y-119493164D01*
X97579402Y-119516613D01*
X97577000Y-119540999D01*
X97577000Y-121066000D01*
X96475000Y-121066000D01*
X96475000Y-118314000D01*
X99707000Y-118314000D01*
X99707000Y-119416000D01*
X99707000Y-119416000D01*
G37*
G36*
X111037000Y-121066000D02*
G01*
X109935000Y-121066000D01*
X109935000Y-119540999D01*
X109932598Y-119516613D01*
X109925485Y-119493164D01*
X109913934Y-119471553D01*
X109898389Y-119452611D01*
X109879447Y-119437066D01*
X109857836Y-119425515D01*
X109834387Y-119418402D01*
X109810001Y-119416000D01*
X107805000Y-119416000D01*
X107805000Y-118314000D01*
X111037000Y-118314000D01*
X111037000Y-121066000D01*
X111037000Y-121066000D01*
G37*
G36*
X105707000Y-119416000D02*
G01*
X101805000Y-119416000D01*
X101805000Y-118314000D01*
X105707000Y-118314000D01*
X105707000Y-119416000D01*
X105707000Y-119416000D01*
G37*
M02*
