G04 #@! TF.GenerationSoftware,KiCad,Pcbnew,5.1.4*
G04 #@! TF.CreationDate,2019-09-17T23:22:18+02:00*
G04 #@! TF.ProjectId,Tunnelling-Amp,54756e6e-656c-46c6-996e-672d416d702e,rev?*
G04 #@! TF.SameCoordinates,Original*
G04 #@! TF.FileFunction,Legend,Top*
G04 #@! TF.FilePolarity,Positive*
%FSLAX46Y46*%
G04 Gerber Fmt 4.6, Leading zero omitted, Abs format (unit mm)*
G04 Created by KiCad (PCBNEW 5.1.4) date 2019-09-17 23:22:18*
%MOMM*%
%LPD*%
G04 APERTURE LIST*
%ADD10C,0.150000*%
%ADD11C,0.050000*%
%ADD12C,0.120000*%
G04 APERTURE END LIST*
D10*
X121992976Y-130567380D02*
X121992976Y-131281666D01*
X121945357Y-131424523D01*
X121850119Y-131519761D01*
X121707261Y-131567380D01*
X121612023Y-131567380D01*
X122469166Y-131472142D02*
X122516785Y-131519761D01*
X122469166Y-131567380D01*
X122421547Y-131519761D01*
X122469166Y-131472142D01*
X122469166Y-131567380D01*
X122945357Y-131567380D02*
X122945357Y-130567380D01*
X122945357Y-131043571D02*
X123516785Y-131043571D01*
X123516785Y-131567380D02*
X123516785Y-130567380D01*
X123992976Y-131472142D02*
X124040595Y-131519761D01*
X123992976Y-131567380D01*
X123945357Y-131519761D01*
X123992976Y-131472142D01*
X123992976Y-131567380D01*
X125183452Y-130662619D02*
X125231071Y-130615000D01*
X125326309Y-130567380D01*
X125564404Y-130567380D01*
X125659642Y-130615000D01*
X125707261Y-130662619D01*
X125754880Y-130757857D01*
X125754880Y-130853095D01*
X125707261Y-130995952D01*
X125135833Y-131567380D01*
X125754880Y-131567380D01*
X126373928Y-130567380D02*
X126469166Y-130567380D01*
X126564404Y-130615000D01*
X126612023Y-130662619D01*
X126659642Y-130757857D01*
X126707261Y-130948333D01*
X126707261Y-131186428D01*
X126659642Y-131376904D01*
X126612023Y-131472142D01*
X126564404Y-131519761D01*
X126469166Y-131567380D01*
X126373928Y-131567380D01*
X126278690Y-131519761D01*
X126231071Y-131472142D01*
X126183452Y-131376904D01*
X126135833Y-131186428D01*
X126135833Y-130948333D01*
X126183452Y-130757857D01*
X126231071Y-130662619D01*
X126278690Y-130615000D01*
X126373928Y-130567380D01*
X127659642Y-131567380D02*
X127088214Y-131567380D01*
X127373928Y-131567380D02*
X127373928Y-130567380D01*
X127278690Y-130710238D01*
X127183452Y-130805476D01*
X127088214Y-130853095D01*
X128135833Y-131567380D02*
X128326309Y-131567380D01*
X128421547Y-131519761D01*
X128469166Y-131472142D01*
X128564404Y-131329285D01*
X128612023Y-131138809D01*
X128612023Y-130757857D01*
X128564404Y-130662619D01*
X128516785Y-130615000D01*
X128421547Y-130567380D01*
X128231071Y-130567380D01*
X128135833Y-130615000D01*
X128088214Y-130662619D01*
X128040595Y-130757857D01*
X128040595Y-130995952D01*
X128088214Y-131091190D01*
X128135833Y-131138809D01*
X128231071Y-131186428D01*
X128421547Y-131186428D01*
X128516785Y-131138809D01*
X128564404Y-131091190D01*
X128612023Y-130995952D01*
X119707261Y-129519761D02*
X119850119Y-129567380D01*
X120088214Y-129567380D01*
X120183452Y-129519761D01*
X120231071Y-129472142D01*
X120278690Y-129376904D01*
X120278690Y-129281666D01*
X120231071Y-129186428D01*
X120183452Y-129138809D01*
X120088214Y-129091190D01*
X119897738Y-129043571D01*
X119802500Y-128995952D01*
X119754880Y-128948333D01*
X119707261Y-128853095D01*
X119707261Y-128757857D01*
X119754880Y-128662619D01*
X119802500Y-128615000D01*
X119897738Y-128567380D01*
X120135833Y-128567380D01*
X120278690Y-128615000D01*
X120564404Y-128567380D02*
X121135833Y-128567380D01*
X120850119Y-129567380D02*
X120850119Y-128567380D01*
X121469166Y-129567380D02*
X121469166Y-128567380D01*
X121802500Y-129281666D01*
X122135833Y-128567380D01*
X122135833Y-129567380D01*
X123326309Y-129281666D02*
X123802500Y-129281666D01*
X123231071Y-129567380D02*
X123564404Y-128567380D01*
X123897738Y-129567380D01*
X124231071Y-129567380D02*
X124231071Y-128900714D01*
X124231071Y-128995952D02*
X124278690Y-128948333D01*
X124373928Y-128900714D01*
X124516785Y-128900714D01*
X124612023Y-128948333D01*
X124659642Y-129043571D01*
X124659642Y-129567380D01*
X124659642Y-129043571D02*
X124707261Y-128948333D01*
X124802500Y-128900714D01*
X124945357Y-128900714D01*
X125040595Y-128948333D01*
X125088214Y-129043571D01*
X125088214Y-129567380D01*
X125564404Y-128900714D02*
X125564404Y-129900714D01*
X125564404Y-128948333D02*
X125659642Y-128900714D01*
X125850119Y-128900714D01*
X125945357Y-128948333D01*
X125992976Y-128995952D01*
X126040595Y-129091190D01*
X126040595Y-129376904D01*
X125992976Y-129472142D01*
X125945357Y-129519761D01*
X125850119Y-129567380D01*
X125659642Y-129567380D01*
X125564404Y-129519761D01*
X127088214Y-128567380D02*
X127421547Y-129567380D01*
X127754880Y-128567380D01*
X128612023Y-129567380D02*
X128040595Y-129567380D01*
X128326309Y-129567380D02*
X128326309Y-128567380D01*
X128231071Y-128710238D01*
X128135833Y-128805476D01*
X128040595Y-128853095D01*
D11*
X137300000Y-131215000D02*
X137300000Y-119115000D01*
X91300000Y-135015000D02*
X133500000Y-135015000D01*
X87500000Y-119015000D02*
X87500000Y-131215000D01*
X133500000Y-115213684D02*
X91300000Y-115215000D01*
X137300000Y-131215000D02*
G75*
G02X133500000Y-135015000I-3800000J0D01*
G01*
X133500000Y-115213684D02*
G75*
G02X137300000Y-119115000I0J-3801316D01*
G01*
X87500000Y-119015000D02*
G75*
G02X91300000Y-115215000I3800000J0D01*
G01*
X91300000Y-135015000D02*
G75*
G02X87500000Y-131215000I0J3800000D01*
G01*
D12*
X101830000Y-127675000D02*
X105788000Y-127675000D01*
X103756000Y-122555000D02*
X105706000Y-122555000D01*
X103756000Y-122555000D02*
X101806000Y-122555000D01*
X105956000Y-118615000D02*
X107556000Y-118615000D01*
X105956000Y-131615000D02*
X107556000Y-131615000D01*
X99956000Y-118615000D02*
X101556000Y-118615000D01*
X99956000Y-131615000D02*
X101556000Y-131615000D01*
X110736000Y-122915000D02*
X110736000Y-121315000D01*
X96776000Y-122915000D02*
X96776000Y-121315000D01*
X96776000Y-128915000D02*
X96776000Y-127315000D01*
X122858750Y-126618750D02*
X123646250Y-126618750D01*
X123252500Y-127012500D02*
X123252500Y-126225000D01*
X127445563Y-125985000D02*
X128510000Y-124920563D01*
X122754437Y-125985000D02*
X121690000Y-124920563D01*
X122754437Y-125985000D02*
X124040000Y-125985000D01*
X127445563Y-125985000D02*
X126160000Y-125985000D01*
X128510000Y-124920563D02*
X128510000Y-119165000D01*
X121690000Y-124920563D02*
X121690000Y-119165000D01*
X121690000Y-119165000D02*
X124040000Y-119165000D01*
X128510000Y-119165000D02*
X126160000Y-119165000D01*
X119086250Y-118531250D02*
X118298750Y-118531250D01*
X118692500Y-118137500D02*
X118692500Y-118925000D01*
X114499437Y-119165000D02*
X113435000Y-120229437D01*
X119190563Y-119165000D02*
X120255000Y-120229437D01*
X119190563Y-119165000D02*
X117905000Y-119165000D01*
X114499437Y-119165000D02*
X115785000Y-119165000D01*
X113435000Y-120229437D02*
X113435000Y-125985000D01*
X120255000Y-120229437D02*
X120255000Y-125985000D01*
X120255000Y-125985000D02*
X117905000Y-125985000D01*
X113435000Y-125985000D02*
X115785000Y-125985000D01*
X103121748Y-121761000D02*
X103644252Y-121761000D01*
X103121748Y-120341000D02*
X103644252Y-120341000D01*
X99640000Y-123852252D02*
X99640000Y-123329748D01*
X98220000Y-123852252D02*
X98220000Y-123329748D01*
X107737267Y-120541000D02*
X107394733Y-120541000D01*
X107737267Y-121561000D02*
X107394733Y-121561000D01*
X98420000Y-127610733D02*
X98420000Y-127953267D01*
X99440000Y-127610733D02*
X99440000Y-127953267D01*
D10*
X121758333Y-118487142D02*
X121710714Y-118534761D01*
X121567857Y-118582380D01*
X121472619Y-118582380D01*
X121329761Y-118534761D01*
X121234523Y-118439523D01*
X121186904Y-118344285D01*
X121139285Y-118153809D01*
X121139285Y-118010952D01*
X121186904Y-117820476D01*
X121234523Y-117725238D01*
X121329761Y-117630000D01*
X121472619Y-117582380D01*
X121567857Y-117582380D01*
X121710714Y-117630000D01*
X121758333Y-117677619D01*
X122615476Y-117582380D02*
X122425000Y-117582380D01*
X122329761Y-117630000D01*
X122282142Y-117677619D01*
X122186904Y-117820476D01*
X122139285Y-118010952D01*
X122139285Y-118391904D01*
X122186904Y-118487142D01*
X122234523Y-118534761D01*
X122329761Y-118582380D01*
X122520238Y-118582380D01*
X122615476Y-118534761D01*
X122663095Y-118487142D01*
X122710714Y-118391904D01*
X122710714Y-118153809D01*
X122663095Y-118058571D01*
X122615476Y-118010952D01*
X122520238Y-117963333D01*
X122329761Y-117963333D01*
X122234523Y-118010952D01*
X122186904Y-118058571D01*
X122139285Y-118153809D01*
X113503333Y-118487142D02*
X113455714Y-118534761D01*
X113312857Y-118582380D01*
X113217619Y-118582380D01*
X113074761Y-118534761D01*
X112979523Y-118439523D01*
X112931904Y-118344285D01*
X112884285Y-118153809D01*
X112884285Y-118010952D01*
X112931904Y-117820476D01*
X112979523Y-117725238D01*
X113074761Y-117630000D01*
X113217619Y-117582380D01*
X113312857Y-117582380D01*
X113455714Y-117630000D01*
X113503333Y-117677619D01*
X114408095Y-117582380D02*
X113931904Y-117582380D01*
X113884285Y-118058571D01*
X113931904Y-118010952D01*
X114027142Y-117963333D01*
X114265238Y-117963333D01*
X114360476Y-118010952D01*
X114408095Y-118058571D01*
X114455714Y-118153809D01*
X114455714Y-118391904D01*
X114408095Y-118487142D01*
X114360476Y-118534761D01*
X114265238Y-118582380D01*
X114027142Y-118582380D01*
X113931904Y-118534761D01*
X113884285Y-118487142D01*
M02*
