%TF.GenerationSoftware,KiCad,Pcbnew,5.1.6*%
%TF.CreationDate,2020-08-18T09:51:56+02:00*%
%TF.ProjectId,Sample-Bias-Interconnect,53616d70-6c65-42d4-9269-61732d496e74,rev?*%
%TF.SameCoordinates,Original*%
%TF.FileFunction,Legend,Top*%
%TF.FilePolarity,Positive*%
%FSLAX46Y46*%
G04 Gerber Fmt 4.6, Leading zero omitted, Abs format (unit mm)*
G04 Created by KiCad (PCBNEW 5.1.6) date 2020-08-18 09:51:56*
%MOMM*%
%LPD*%
G01*
G04 APERTURE LIST*
%ADD10C,0.150000*%
%TA.AperFunction,Profile*%
%ADD11C,0.200000*%
%TD*%
%ADD12C,0.120000*%
G04 APERTURE END LIST*
D10*
X141988095Y-84500000D02*
X141892857Y-84452380D01*
X141750000Y-84452380D01*
X141607142Y-84500000D01*
X141511904Y-84595238D01*
X141464285Y-84690476D01*
X141416666Y-84880952D01*
X141416666Y-85023809D01*
X141464285Y-85214285D01*
X141511904Y-85309523D01*
X141607142Y-85404761D01*
X141750000Y-85452380D01*
X141845238Y-85452380D01*
X141988095Y-85404761D01*
X142035714Y-85357142D01*
X142035714Y-85023809D01*
X141845238Y-85023809D01*
X142464285Y-85452380D02*
X142464285Y-84452380D01*
X143035714Y-85452380D01*
X143035714Y-84452380D01*
X143511904Y-85452380D02*
X143511904Y-84452380D01*
X143750000Y-84452380D01*
X143892857Y-84500000D01*
X143988095Y-84595238D01*
X144035714Y-84690476D01*
X144083333Y-84880952D01*
X144083333Y-85023809D01*
X144035714Y-85214285D01*
X143988095Y-85309523D01*
X143892857Y-85404761D01*
X143750000Y-85452380D01*
X143511904Y-85452380D01*
X147428571Y-95023809D02*
X147476190Y-94880952D01*
X147523809Y-94833333D01*
X147619047Y-94785714D01*
X147761904Y-94785714D01*
X147857142Y-94833333D01*
X147904761Y-94880952D01*
X147952380Y-94976190D01*
X147952380Y-95357142D01*
X146952380Y-95357142D01*
X146952380Y-95023809D01*
X147000000Y-94928571D01*
X147047619Y-94880952D01*
X147142857Y-94833333D01*
X147238095Y-94833333D01*
X147333333Y-94880952D01*
X147380952Y-94928571D01*
X147428571Y-95023809D01*
X147428571Y-95357142D01*
X147952380Y-94357142D02*
X147285714Y-94357142D01*
X146952380Y-94357142D02*
X147000000Y-94404761D01*
X147047619Y-94357142D01*
X147000000Y-94309523D01*
X146952380Y-94357142D01*
X147047619Y-94357142D01*
X147952380Y-93452380D02*
X147428571Y-93452380D01*
X147333333Y-93500000D01*
X147285714Y-93595238D01*
X147285714Y-93785714D01*
X147333333Y-93880952D01*
X147904761Y-93452380D02*
X147952380Y-93547619D01*
X147952380Y-93785714D01*
X147904761Y-93880952D01*
X147809523Y-93928571D01*
X147714285Y-93928571D01*
X147619047Y-93880952D01*
X147571428Y-93785714D01*
X147571428Y-93547619D01*
X147523809Y-93452380D01*
X147904761Y-93023809D02*
X147952380Y-92928571D01*
X147952380Y-92738095D01*
X147904761Y-92642857D01*
X147809523Y-92595238D01*
X147761904Y-92595238D01*
X147666666Y-92642857D01*
X147619047Y-92738095D01*
X147619047Y-92880952D01*
X147571428Y-92976190D01*
X147476190Y-93023809D01*
X147428571Y-93023809D01*
X147333333Y-92976190D01*
X147285714Y-92880952D01*
X147285714Y-92738095D01*
X147333333Y-92642857D01*
X148840855Y-83971412D02*
X148739839Y-84005083D01*
X148605152Y-84139770D01*
X148571481Y-84240786D01*
X148571481Y-84375473D01*
X148605152Y-84476488D01*
X148739839Y-84611175D01*
X148840855Y-84644847D01*
X148975542Y-84644847D01*
X149076557Y-84611175D01*
X149211244Y-84476488D01*
X149244916Y-84375473D01*
X148436794Y-83836725D02*
X148302107Y-84038755D01*
X148234763Y-84308129D01*
X148302107Y-84577503D01*
X148436794Y-84779534D01*
X148638824Y-84914221D01*
X148908198Y-84981564D01*
X149177572Y-84914221D01*
X149379603Y-84779534D01*
X149514290Y-84577503D01*
X149581633Y-84308129D01*
X149514290Y-84038755D01*
X149379603Y-83836725D01*
X149177572Y-83702038D01*
X148908198Y-83634694D01*
X148638824Y-83702038D01*
X148436794Y-83836725D01*
X150019366Y-83870396D02*
X149547961Y-83398992D01*
X149615305Y-83466335D02*
X149615305Y-83398992D01*
X149648977Y-83297977D01*
X149749992Y-83196961D01*
X149851007Y-83163290D01*
X149952022Y-83196961D01*
X150322412Y-83567351D01*
X149952022Y-83196961D02*
X149918351Y-83095946D01*
X149952022Y-82994931D01*
X150053038Y-82893916D01*
X150154053Y-82860244D01*
X150255068Y-82893916D01*
X150625457Y-83264305D01*
X150962175Y-82927587D02*
X150490770Y-82456183D01*
X150625457Y-82590870D02*
X150591786Y-82489855D01*
X150591786Y-82422511D01*
X150625457Y-82321496D01*
X150692801Y-82254152D01*
X151399908Y-82489855D02*
X150692801Y-81782748D01*
X151197877Y-82153137D02*
X151669282Y-82220481D01*
X151197877Y-81749076D02*
X151197877Y-82287824D01*
X152208030Y-81614389D02*
X152174358Y-81715404D01*
X152039671Y-81850091D01*
X151938656Y-81883763D01*
X151837640Y-81850091D01*
X151568266Y-81580717D01*
X151534595Y-81479702D01*
X151568266Y-81378687D01*
X151702953Y-81244000D01*
X151803969Y-81210328D01*
X151904984Y-81244000D01*
X151972327Y-81311343D01*
X151702953Y-81715404D01*
X152107014Y-80839939D02*
X152578419Y-81311343D01*
X152174358Y-80907282D02*
X152174358Y-80839939D01*
X152208030Y-80738924D01*
X152309045Y-80637908D01*
X152410060Y-80604237D01*
X152511075Y-80637908D01*
X152881465Y-81008298D01*
X153218182Y-80671580D02*
X152511075Y-79964473D01*
X153521228Y-80368534D02*
X153150839Y-79998145D01*
X153049823Y-79964473D01*
X152948808Y-79998145D01*
X152847793Y-80099160D01*
X152814121Y-80200176D01*
X152814121Y-80267519D01*
X153958961Y-79930801D02*
X153857946Y-79964473D01*
X153790602Y-79964473D01*
X153689587Y-79930801D01*
X153487556Y-79728771D01*
X153453885Y-79627756D01*
X153453885Y-79560412D01*
X153487556Y-79459397D01*
X153588572Y-79358382D01*
X153689587Y-79324710D01*
X153756930Y-79324710D01*
X153857946Y-79358382D01*
X154059976Y-79560412D01*
X154093648Y-79661427D01*
X154093648Y-79728771D01*
X154059976Y-79829786D01*
X153958961Y-79930801D01*
X153925289Y-79021664D02*
X154194663Y-78752290D01*
X154497709Y-79392053D02*
X153891617Y-78785962D01*
X153857946Y-78684947D01*
X153891617Y-78583931D01*
X153958961Y-78516588D01*
X154329350Y-78617603D02*
X154598724Y-78348229D01*
X154901770Y-78987992D02*
X154295678Y-78381901D01*
X154262007Y-78280886D01*
X154295678Y-78179870D01*
X154363022Y-78112527D01*
X155171144Y-77439092D02*
X155171144Y-77371748D01*
X155204816Y-77270733D01*
X155373174Y-77102374D01*
X155474190Y-77068703D01*
X155541533Y-77068703D01*
X155642548Y-77102374D01*
X155709892Y-77169718D01*
X155777235Y-77304405D01*
X155777235Y-78112527D01*
X156214968Y-77674794D01*
X155945594Y-76529955D02*
X156012938Y-76462611D01*
X156113953Y-76428939D01*
X156181296Y-76428939D01*
X156282312Y-76462611D01*
X156450670Y-76563626D01*
X156619029Y-76731985D01*
X156720044Y-76900344D01*
X156753716Y-77001359D01*
X156753716Y-77068703D01*
X156720044Y-77169718D01*
X156652701Y-77237061D01*
X156551686Y-77270733D01*
X156484342Y-77270733D01*
X156383327Y-77237061D01*
X156214968Y-77136046D01*
X156046609Y-76967687D01*
X155945594Y-76799329D01*
X155911922Y-76698313D01*
X155911922Y-76630970D01*
X155945594Y-76529955D01*
X156518014Y-76092222D02*
X156518014Y-76024878D01*
X156551686Y-75923863D01*
X156720044Y-75755504D01*
X156821060Y-75721833D01*
X156888403Y-75721833D01*
X156989418Y-75755504D01*
X157056762Y-75822848D01*
X157124105Y-75957535D01*
X157124105Y-76765657D01*
X157561838Y-76327924D01*
X157292464Y-75183085D02*
X157359808Y-75115741D01*
X157460823Y-75082069D01*
X157528166Y-75082069D01*
X157629182Y-75115741D01*
X157797540Y-75216756D01*
X157965899Y-75385115D01*
X158066914Y-75553474D01*
X158100586Y-75654489D01*
X158100586Y-75721833D01*
X158066914Y-75822848D01*
X157999571Y-75890191D01*
X157898556Y-75923863D01*
X157831212Y-75923863D01*
X157730197Y-75890191D01*
X157561838Y-75789176D01*
X157393479Y-75620817D01*
X157292464Y-75452459D01*
X157258792Y-75351443D01*
X157258792Y-75284100D01*
X157292464Y-75183085D01*
X147489839Y-83582579D02*
X147624526Y-83515236D01*
X147792885Y-83346877D01*
X147826557Y-83245862D01*
X147826557Y-83178518D01*
X147792885Y-83077503D01*
X147725542Y-83010160D01*
X147624526Y-82976488D01*
X147557183Y-82976488D01*
X147456168Y-83010160D01*
X147287809Y-83111175D01*
X147186794Y-83144847D01*
X147119450Y-83144847D01*
X147018435Y-83111175D01*
X146951091Y-83043831D01*
X146917420Y-82942816D01*
X146917420Y-82875473D01*
X146951091Y-82774457D01*
X147119450Y-82606099D01*
X147254137Y-82538755D01*
X148533664Y-82606099D02*
X148163274Y-82235709D01*
X148062259Y-82202038D01*
X147961244Y-82235709D01*
X147826557Y-82370396D01*
X147792885Y-82471412D01*
X148499992Y-82572427D02*
X148466320Y-82673442D01*
X148297961Y-82841801D01*
X148196946Y-82875473D01*
X148095931Y-82841801D01*
X148028587Y-82774457D01*
X147994916Y-82673442D01*
X148028587Y-82572427D01*
X148196946Y-82404068D01*
X148230618Y-82303053D01*
X148870381Y-82269381D02*
X148398977Y-81797977D01*
X148466320Y-81865320D02*
X148466320Y-81797977D01*
X148499992Y-81696961D01*
X148601007Y-81595946D01*
X148702022Y-81562274D01*
X148803038Y-81595946D01*
X149173427Y-81966335D01*
X148803038Y-81595946D02*
X148769366Y-81494931D01*
X148803038Y-81393916D01*
X148904053Y-81292900D01*
X149005068Y-81259229D01*
X149106083Y-81292900D01*
X149476473Y-81663290D01*
X149341786Y-80855168D02*
X150048892Y-81562274D01*
X149375457Y-80888839D02*
X149409129Y-80787824D01*
X149543816Y-80653137D01*
X149644831Y-80619465D01*
X149712175Y-80619465D01*
X149813190Y-80653137D01*
X150015221Y-80855168D01*
X150048892Y-80956183D01*
X150048892Y-81023526D01*
X150015221Y-81124542D01*
X149880534Y-81259229D01*
X149779518Y-81292900D01*
X150553969Y-80585794D02*
X150452953Y-80619465D01*
X150351938Y-80585794D01*
X149745847Y-79979702D01*
X151059045Y-80013374D02*
X151025373Y-80114389D01*
X150890686Y-80249076D01*
X150789671Y-80282748D01*
X150688656Y-80249076D01*
X150419282Y-79979702D01*
X150385610Y-79878687D01*
X150419282Y-79777672D01*
X150553969Y-79642985D01*
X150654984Y-79609313D01*
X150755999Y-79642985D01*
X150823343Y-79710328D01*
X150553969Y-80114389D01*
X151833495Y-78565488D02*
X151968182Y-78498145D01*
X152035526Y-78498145D01*
X152136541Y-78531817D01*
X152237556Y-78632832D01*
X152271228Y-78733847D01*
X152271228Y-78801191D01*
X152237556Y-78902206D01*
X151968182Y-79171580D01*
X151261075Y-78464473D01*
X151496778Y-78228771D01*
X151597793Y-78195099D01*
X151665136Y-78195099D01*
X151766152Y-78228771D01*
X151833495Y-78296114D01*
X151867167Y-78397130D01*
X151867167Y-78464473D01*
X151833495Y-78565488D01*
X151597793Y-78801191D01*
X152675289Y-78464473D02*
X152203885Y-77993069D01*
X151968182Y-77757366D02*
X151968182Y-77824710D01*
X152035526Y-77824710D01*
X152035526Y-77757366D01*
X151968182Y-77757366D01*
X152035526Y-77824710D01*
X153315052Y-77824710D02*
X152944663Y-77454321D01*
X152843648Y-77420649D01*
X152742633Y-77454321D01*
X152607946Y-77589008D01*
X152574274Y-77690023D01*
X153281381Y-77791038D02*
X153247709Y-77892053D01*
X153079350Y-78060412D01*
X152978335Y-78094084D01*
X152877320Y-78060412D01*
X152809976Y-77993069D01*
X152776304Y-77892053D01*
X152809976Y-77791038D01*
X152978335Y-77622679D01*
X153012007Y-77521664D01*
X153584426Y-77487992D02*
X153685442Y-77454321D01*
X153820129Y-77319634D01*
X153853800Y-77218618D01*
X153820129Y-77117603D01*
X153786457Y-77083931D01*
X153685442Y-77050260D01*
X153584426Y-77083931D01*
X153483411Y-77184947D01*
X153382396Y-77218618D01*
X153281381Y-77184947D01*
X153247709Y-77151275D01*
X153214037Y-77050260D01*
X153247709Y-76949244D01*
X153348724Y-76848229D01*
X153449739Y-76814557D01*
X154762938Y-76376825D02*
X154055831Y-75669718D01*
X154628251Y-75568703D02*
X155099655Y-76040107D01*
X154695594Y-75636046D02*
X154695594Y-75568703D01*
X154729266Y-75467687D01*
X154830281Y-75366672D01*
X154931296Y-75333000D01*
X155032312Y-75366672D01*
X155402701Y-75737061D01*
X155166999Y-75029955D02*
X155436373Y-74760581D01*
X155032312Y-74693237D02*
X155638403Y-75299329D01*
X155739418Y-75333000D01*
X155840434Y-75299329D01*
X155907777Y-75231985D01*
X156379182Y-74693237D02*
X156345510Y-74794252D01*
X156210823Y-74928939D01*
X156109808Y-74962611D01*
X156008792Y-74928939D01*
X155739418Y-74659565D01*
X155705747Y-74558550D01*
X155739418Y-74457535D01*
X155874105Y-74322848D01*
X155975121Y-74289176D01*
X156076136Y-74322848D01*
X156143479Y-74390191D01*
X155874105Y-74794252D01*
X156749571Y-74390191D02*
X156278166Y-73918787D01*
X156412853Y-74053474D02*
X156379182Y-73952459D01*
X156379182Y-73885115D01*
X156412853Y-73784100D01*
X156480197Y-73716756D01*
X157456678Y-73615741D02*
X157423006Y-73716756D01*
X157288319Y-73851443D01*
X157187304Y-73885115D01*
X157119960Y-73885115D01*
X157018945Y-73851443D01*
X156816914Y-73649413D01*
X156783243Y-73548398D01*
X156783243Y-73481054D01*
X156816914Y-73380039D01*
X156951601Y-73245352D01*
X157052617Y-73211680D01*
X157894411Y-73245352D02*
X157793395Y-73279024D01*
X157726052Y-73279024D01*
X157625037Y-73245352D01*
X157423006Y-73043321D01*
X157389334Y-72942306D01*
X157389334Y-72874962D01*
X157423006Y-72773947D01*
X157524021Y-72672932D01*
X157625037Y-72639260D01*
X157692380Y-72639260D01*
X157793395Y-72672932D01*
X157995426Y-72874962D01*
X158029098Y-72975978D01*
X158029098Y-73043321D01*
X157995426Y-73144337D01*
X157894411Y-73245352D01*
X157961754Y-72235199D02*
X158433159Y-72706604D01*
X158029098Y-72302543D02*
X158029098Y-72235199D01*
X158062769Y-72134184D01*
X158163785Y-72033169D01*
X158264800Y-71999497D01*
X158365815Y-72033169D01*
X158736204Y-72403558D01*
X158601517Y-71595436D02*
X159072922Y-72066840D01*
X158668861Y-71662779D02*
X158668861Y-71595436D01*
X158702533Y-71494421D01*
X158803548Y-71393405D01*
X158904563Y-71359734D01*
X159005578Y-71393405D01*
X159375968Y-71763795D01*
X159948387Y-71124031D02*
X159914716Y-71225047D01*
X159780029Y-71359734D01*
X159679013Y-71393405D01*
X159577998Y-71359734D01*
X159308624Y-71090360D01*
X159274952Y-70989344D01*
X159308624Y-70888329D01*
X159443311Y-70753642D01*
X159544326Y-70719970D01*
X159645342Y-70753642D01*
X159712685Y-70820986D01*
X159443311Y-71225047D01*
X160588151Y-70484268D02*
X160554479Y-70585283D01*
X160419792Y-70719970D01*
X160318777Y-70753642D01*
X160251433Y-70753642D01*
X160150418Y-70719970D01*
X159948387Y-70517940D01*
X159914716Y-70416925D01*
X159914716Y-70349581D01*
X159948387Y-70248566D01*
X160083074Y-70113879D01*
X160184090Y-70080207D01*
X160352448Y-69844505D02*
X160621822Y-69575131D01*
X160217761Y-69507787D02*
X160823853Y-70113879D01*
X160924868Y-70147551D01*
X161025883Y-70113879D01*
X161093227Y-70046535D01*
D11*
X169070900Y-58824800D02*
X179000000Y-83000000D01*
X136500000Y-88287700D02*
X149794962Y-74992700D01*
X155492750Y-69295000D02*
X163300600Y-61487100D01*
X179000000Y-87290100D02*
X169500000Y-87290100D01*
X179000000Y-83000000D02*
X179000000Y-87290100D01*
X162500000Y-94290100D02*
G75*
G02*
X169500000Y-87290100I7000000J0D01*
G01*
X163300626Y-61487027D02*
G75*
G02*
X164445764Y-60724339I2474874J-2474873D01*
G01*
X136500000Y-102500000D02*
X136500000Y-88287700D01*
X169070900Y-58824800D02*
X164445800Y-60724400D01*
X162500000Y-94290100D02*
X162500000Y-102500000D01*
X162500000Y-102500000D02*
X136500000Y-102500000D01*
X155492746Y-69294963D02*
G75*
G02*
X149794960Y-74992746I-5992746J294963D01*
G01*
D12*
%TO.C,TP3*%
X145000000Y-88250000D02*
G75*
G03*
X145000000Y-88250000I-2250000J0D01*
G01*
%TO.C,R1*%
X154117313Y-86913221D02*
X154486779Y-87282687D01*
X153113221Y-87917313D02*
X153482687Y-88286779D01*
%TO.C,TP2*%
X152250000Y-90000000D02*
G75*
G03*
X152250000Y-90000000I-2250000J0D01*
G01*
%TO.C,TP1*%
X152250000Y-98000000D02*
G75*
G03*
X152250000Y-98000000I-2250000J0D01*
G01*
%TO.C,J1*%
X171416785Y-69071181D02*
X171916399Y-68866275D01*
X171916399Y-68866275D02*
X171527456Y-67917935D01*
X171527456Y-67917935D02*
X172554439Y-67496738D01*
X172554439Y-67496738D02*
X177161037Y-78728784D01*
X177161037Y-78728784D02*
X176134054Y-79149981D01*
X176134054Y-79149981D02*
X175745111Y-78201641D01*
X175745111Y-78201641D02*
X175245498Y-78406547D01*
X170754687Y-77919161D02*
X170441636Y-77155863D01*
X170441636Y-77155863D02*
X168776259Y-77838884D01*
X168874482Y-73334747D02*
X168561431Y-72571449D01*
%TD*%
M02*
