%TF.GenerationSoftware,KiCad,Pcbnew,5.1.6*%
%TF.CreationDate,2020-08-18T09:51:56+02:00*%
%TF.ProjectId,Sample-Bias-Interconnect,53616d70-6c65-42d4-9269-61732d496e74,rev?*%
%TF.SameCoordinates,Original*%
%TF.FileFunction,Copper,L1,Top*%
%TF.FilePolarity,Positive*%
%FSLAX46Y46*%
G04 Gerber Fmt 4.6, Leading zero omitted, Abs format (unit mm)*
G04 Created by KiCad (PCBNEW 5.1.6) date 2020-08-18 09:51:56*
%MOMM*%
%LPD*%
G01*
G04 APERTURE LIST*
%TA.AperFunction,Profile*%
%ADD10C,0.200000*%
%TD*%
%TA.AperFunction,SMDPad,CuDef*%
%ADD11C,4.000000*%
%TD*%
%TA.AperFunction,SMDPad,CuDef*%
%ADD12C,0.100000*%
%TD*%
%TA.AperFunction,Conductor*%
%ADD13C,1.000000*%
%TD*%
%TA.AperFunction,Conductor*%
%ADD14C,0.500000*%
%TD*%
%TA.AperFunction,Conductor*%
%ADD15C,0.300000*%
%TD*%
G04 APERTURE END LIST*
D10*
X169070900Y-58824800D02*
X179000000Y-83000000D01*
X136500000Y-88287700D02*
X149794962Y-74992700D01*
X155492750Y-69295000D02*
X163300600Y-61487100D01*
X179000000Y-87290100D02*
X169500000Y-87290100D01*
X179000000Y-83000000D02*
X179000000Y-87290100D01*
X162500000Y-94290100D02*
G75*
G02*
X169500000Y-87290100I7000000J0D01*
G01*
X163300626Y-61487027D02*
G75*
G02*
X164445764Y-60724339I2474874J-2474873D01*
G01*
X136500000Y-102500000D02*
X136500000Y-88287700D01*
X169070900Y-58824800D02*
X164445800Y-60724400D01*
X162500000Y-94290100D02*
X162500000Y-102500000D01*
X162500000Y-102500000D02*
X136500000Y-102500000D01*
X155492746Y-69294963D02*
G75*
G02*
X149794960Y-74992746I-5992746J294963D01*
G01*
D11*
%TO.P,TP3,1*%
%TO.N,/gnd*%
X142750000Y-88250000D03*
%TD*%
%TO.P,R1,2*%
%TO.N,/gnd*%
%TA.AperFunction,SMDPad,CuDef*%
G36*
G01*
X153799681Y-88236714D02*
X154436714Y-87599682D01*
G75*
G02*
X154789630Y-87599682I176458J-176458D01*
G01*
X155249886Y-88059938D01*
G75*
G02*
X155249886Y-88412854I-176458J-176458D01*
G01*
X154612854Y-89049886D01*
G75*
G02*
X154259938Y-89049886I-176458J176458D01*
G01*
X153799682Y-88589630D01*
G75*
G02*
X153799682Y-88236714I176458J176458D01*
G01*
G37*
%TD.AperFunction*%
%TO.P,R1,1*%
%TO.N,/bias*%
%TA.AperFunction,SMDPad,CuDef*%
G36*
G01*
X152350431Y-86786828D02*
X152986828Y-86150431D01*
G75*
G02*
X153340380Y-86150431I176776J-176776D01*
G01*
X153800001Y-86610052D01*
G75*
G02*
X153800001Y-86963604I-176776J-176776D01*
G01*
X153163604Y-87600001D01*
G75*
G02*
X152810052Y-87600001I-176776J176776D01*
G01*
X152350431Y-87140380D01*
G75*
G02*
X152350431Y-86786828I176776J176776D01*
G01*
G37*
%TD.AperFunction*%
%TD*%
%TO.P,TP2,1*%
%TO.N,/bias*%
X150000000Y-90000000D03*
%TD*%
%TO.P,TP1,1*%
%TO.N,/bias*%
X150000000Y-98000000D03*
%TD*%
%TA.AperFunction,SMDPad,CuDef*%
D12*
%TO.P,J1,MP*%
%TO.N,Net-(J1-PadMP)*%
G36*
X171895301Y-70923112D02*
G01*
X168564546Y-72289154D01*
X167547603Y-69809592D01*
X170878358Y-68443550D01*
X171895301Y-70923112D01*
G37*
%TD.AperFunction*%
%TA.AperFunction,SMDPad,CuDef*%
G36*
X175302817Y-79231495D02*
G01*
X171972062Y-80597537D01*
X170955119Y-78117975D01*
X174285874Y-76751933D01*
X175302817Y-79231495D01*
G37*
%TD.AperFunction*%
%TA.AperFunction,SMDPad,CuDef*%
%TO.P,J1,4*%
%TO.N,/gnd*%
G36*
X169306382Y-74097940D02*
G01*
X167455962Y-74856852D01*
X167224494Y-74292474D01*
X169074914Y-73533562D01*
X169306382Y-74097940D01*
G37*
%TD.AperFunction*%
%TA.AperFunction,SMDPad,CuDef*%
%TO.P,J1,3*%
G36*
X169685838Y-75023149D02*
G01*
X167835418Y-75782061D01*
X167603950Y-75217683D01*
X169454370Y-74458771D01*
X169685838Y-75023149D01*
G37*
%TD.AperFunction*%
%TA.AperFunction,SMDPad,CuDef*%
%TO.P,J1,2*%
%TO.N,/bias*%
G36*
X170065295Y-75948359D02*
G01*
X168214875Y-76707271D01*
X167983407Y-76142893D01*
X169833827Y-75383981D01*
X170065295Y-75948359D01*
G37*
%TD.AperFunction*%
%TA.AperFunction,SMDPad,CuDef*%
%TO.P,J1,1*%
%TO.N,/gnd*%
G36*
X170444751Y-76873569D02*
G01*
X168594331Y-77632481D01*
X168362863Y-77068103D01*
X170213283Y-76309191D01*
X170444751Y-76873569D01*
G37*
%TD.AperFunction*%
%TD*%
D13*
%TO.N,/bias*%
X150000000Y-98000000D02*
X150000000Y-90000000D01*
X157000000Y-83000000D02*
X160400000Y-79600000D01*
X150000000Y-90000000D02*
X157000000Y-83000000D01*
X160400000Y-79600000D02*
X166700000Y-77000000D01*
D14*
X169024351Y-76045626D02*
X166700000Y-77000000D01*
%TD*%
D15*
%TO.N,/gnd*%
G36*
X178150000Y-83167755D02*
G01*
X178150001Y-86440100D01*
X169458251Y-86440100D01*
X169439777Y-86441920D01*
X168852834Y-86467546D01*
X168814165Y-86472123D01*
X168775286Y-86474501D01*
X168753279Y-86477790D01*
X167729250Y-86644564D01*
X167678802Y-86656676D01*
X167628027Y-86667468D01*
X167606747Y-86673975D01*
X166618620Y-86990277D01*
X166570555Y-87009697D01*
X166521892Y-87027891D01*
X166501808Y-87037471D01*
X165571286Y-87496354D01*
X165526580Y-87522688D01*
X165481181Y-87547853D01*
X165462734Y-87560296D01*
X164610260Y-88151678D01*
X164569937Y-88184331D01*
X164528757Y-88215930D01*
X164512351Y-88230963D01*
X163756653Y-88941854D01*
X163721595Y-88980114D01*
X163685543Y-89017446D01*
X163671540Y-89034739D01*
X163029218Y-89849520D01*
X163000218Y-89892514D01*
X162970061Y-89934793D01*
X162958768Y-89953966D01*
X162443934Y-90854738D01*
X162421603Y-90901557D01*
X162398032Y-90947818D01*
X162389696Y-90968450D01*
X162013660Y-91935426D01*
X161998493Y-91985036D01*
X161982020Y-92034268D01*
X161976826Y-92055905D01*
X161747848Y-93067841D01*
X161740183Y-93119130D01*
X161731165Y-93170274D01*
X161729226Y-93192442D01*
X161653089Y-94216994D01*
X161650000Y-94248352D01*
X161650001Y-101650000D01*
X137350000Y-101650000D01*
X137350000Y-96768545D01*
X139650000Y-96768545D01*
X139650000Y-97231455D01*
X139740309Y-97685470D01*
X139917457Y-98113143D01*
X140174636Y-98498038D01*
X140501962Y-98825364D01*
X140886857Y-99082543D01*
X141314530Y-99259691D01*
X141768545Y-99350000D01*
X142231455Y-99350000D01*
X142685470Y-99259691D01*
X143113143Y-99082543D01*
X143498038Y-98825364D01*
X143825364Y-98498038D01*
X144082543Y-98113143D01*
X144259691Y-97685470D01*
X144350000Y-97231455D01*
X144350000Y-96768545D01*
X144259691Y-96314530D01*
X144082543Y-95886857D01*
X143825364Y-95501962D01*
X143498038Y-95174636D01*
X143113143Y-94917457D01*
X142685470Y-94740309D01*
X142231455Y-94650000D01*
X141768545Y-94650000D01*
X141314530Y-94740309D01*
X140886857Y-94917457D01*
X140501962Y-95174636D01*
X140174636Y-95501962D01*
X139917457Y-95886857D01*
X139740309Y-96314530D01*
X139650000Y-96768545D01*
X137350000Y-96768545D01*
X137350000Y-90094277D01*
X141052801Y-90094277D01*
X141265436Y-90470262D01*
X141727113Y-90717225D01*
X142228099Y-90869373D01*
X142749142Y-90920860D01*
X143270218Y-90869708D01*
X143771301Y-90717882D01*
X144233137Y-90471216D01*
X144234564Y-90470262D01*
X144447199Y-90094277D01*
X142750000Y-88397078D01*
X141052801Y-90094277D01*
X137350000Y-90094277D01*
X137350000Y-88639779D01*
X137740635Y-88249142D01*
X140079140Y-88249142D01*
X140130292Y-88770218D01*
X140282118Y-89271301D01*
X140528784Y-89733137D01*
X140529738Y-89734564D01*
X140905723Y-89947199D01*
X142602922Y-88250000D01*
X142897078Y-88250000D01*
X144594277Y-89947199D01*
X144970262Y-89734564D01*
X144973158Y-89729149D01*
X147250000Y-89729149D01*
X147250000Y-90270851D01*
X147355681Y-90802145D01*
X147562982Y-91302613D01*
X147863936Y-91753023D01*
X148246977Y-92136064D01*
X148697387Y-92437018D01*
X148750001Y-92458811D01*
X148750000Y-95541189D01*
X148697387Y-95562982D01*
X148246977Y-95863936D01*
X147863936Y-96246977D01*
X147562982Y-96697387D01*
X147355681Y-97197855D01*
X147250000Y-97729149D01*
X147250000Y-98270851D01*
X147355681Y-98802145D01*
X147562982Y-99302613D01*
X147863936Y-99753023D01*
X148246977Y-100136064D01*
X148697387Y-100437018D01*
X149197855Y-100644319D01*
X149729149Y-100750000D01*
X150270851Y-100750000D01*
X150802145Y-100644319D01*
X151302613Y-100437018D01*
X151753023Y-100136064D01*
X152136064Y-99753023D01*
X152437018Y-99302613D01*
X152644319Y-98802145D01*
X152750000Y-98270851D01*
X152750000Y-97729149D01*
X152644319Y-97197855D01*
X152466493Y-96768545D01*
X154650000Y-96768545D01*
X154650000Y-97231455D01*
X154740309Y-97685470D01*
X154917457Y-98113143D01*
X155174636Y-98498038D01*
X155501962Y-98825364D01*
X155886857Y-99082543D01*
X156314530Y-99259691D01*
X156768545Y-99350000D01*
X157231455Y-99350000D01*
X157685470Y-99259691D01*
X158113143Y-99082543D01*
X158498038Y-98825364D01*
X158825364Y-98498038D01*
X159082543Y-98113143D01*
X159259691Y-97685470D01*
X159350000Y-97231455D01*
X159350000Y-96768545D01*
X159259691Y-96314530D01*
X159082543Y-95886857D01*
X158825364Y-95501962D01*
X158498038Y-95174636D01*
X158113143Y-94917457D01*
X157685470Y-94740309D01*
X157231455Y-94650000D01*
X156768545Y-94650000D01*
X156314530Y-94740309D01*
X155886857Y-94917457D01*
X155501962Y-95174636D01*
X155174636Y-95501962D01*
X154917457Y-95886857D01*
X154740309Y-96314530D01*
X154650000Y-96768545D01*
X152466493Y-96768545D01*
X152437018Y-96697387D01*
X152136064Y-96246977D01*
X151753023Y-95863936D01*
X151302613Y-95562982D01*
X151250000Y-95541189D01*
X151250000Y-92458811D01*
X151302613Y-92437018D01*
X151753023Y-92136064D01*
X152136064Y-91753023D01*
X152437018Y-91302613D01*
X152644319Y-90802145D01*
X152750000Y-90270851D01*
X152750000Y-89729149D01*
X152644319Y-89197855D01*
X152622525Y-89145241D01*
X152638648Y-89129118D01*
X153861871Y-89129118D01*
X153861871Y-89288217D01*
X154116658Y-89546083D01*
X154185179Y-89602317D01*
X154263355Y-89644102D01*
X154348181Y-89669833D01*
X154436396Y-89678522D01*
X154524611Y-89669833D01*
X154609436Y-89644102D01*
X154687612Y-89602317D01*
X154756133Y-89546083D01*
X155099308Y-89199829D01*
X155099308Y-89040730D01*
X154524784Y-88466205D01*
X153861871Y-89129118D01*
X152638648Y-89129118D01*
X153199901Y-88567866D01*
X153205466Y-88586213D01*
X153247251Y-88664389D01*
X153303485Y-88732910D01*
X153561351Y-88987697D01*
X153720450Y-88987697D01*
X154383363Y-88324784D01*
X154666205Y-88324784D01*
X155240730Y-88899308D01*
X155399829Y-88899308D01*
X155746083Y-88556133D01*
X155802317Y-88487612D01*
X155844102Y-88409436D01*
X155869833Y-88324611D01*
X155878522Y-88236396D01*
X155869833Y-88148181D01*
X155844102Y-88063355D01*
X155802317Y-87985179D01*
X155746083Y-87916658D01*
X155488217Y-87661871D01*
X155329118Y-87661871D01*
X154666205Y-88324784D01*
X154383363Y-88324784D01*
X154369221Y-88310642D01*
X154510642Y-88169221D01*
X154524784Y-88183363D01*
X155187697Y-87520450D01*
X155187697Y-87361351D01*
X154932910Y-87103485D01*
X154864389Y-87047251D01*
X154786213Y-87005466D01*
X154767866Y-86999901D01*
X157927303Y-83840464D01*
X157927307Y-83840459D01*
X161107475Y-80660292D01*
X167233621Y-78132043D01*
X167396471Y-78045268D01*
X167587010Y-77889309D01*
X167743462Y-77699174D01*
X167775504Y-77639413D01*
X167969967Y-77559567D01*
X167988706Y-77605255D01*
X168115920Y-77553081D01*
X168040880Y-77732470D01*
X168083004Y-77842192D01*
X168133741Y-77937917D01*
X168202179Y-78021905D01*
X168285687Y-78090927D01*
X168381056Y-78142332D01*
X168484621Y-78174143D01*
X168592402Y-78185139D01*
X168700257Y-78174896D01*
X168804042Y-78143808D01*
X168872802Y-78115344D01*
X170201496Y-78115344D01*
X170215463Y-78262420D01*
X170257855Y-78403944D01*
X171274798Y-80883506D01*
X171343986Y-81014040D01*
X171437310Y-81128569D01*
X171551184Y-81222690D01*
X171681232Y-81292788D01*
X171822457Y-81336167D01*
X171969431Y-81351160D01*
X172116506Y-81337193D01*
X172258031Y-81294801D01*
X175588786Y-79928759D01*
X175719321Y-79859571D01*
X175833849Y-79766247D01*
X175927971Y-79652373D01*
X175998068Y-79522324D01*
X176041447Y-79381100D01*
X176056440Y-79234126D01*
X176042473Y-79087050D01*
X176000081Y-78945526D01*
X174983138Y-76465964D01*
X174913950Y-76335430D01*
X174820626Y-76220901D01*
X174706752Y-76126780D01*
X174576704Y-76056682D01*
X174435479Y-76013303D01*
X174288505Y-75998310D01*
X174141430Y-76012277D01*
X173999905Y-76054669D01*
X170669150Y-77420711D01*
X170538615Y-77489899D01*
X170424087Y-77583223D01*
X170329965Y-77697097D01*
X170259868Y-77827146D01*
X170216489Y-77968370D01*
X170201496Y-78115344D01*
X168872802Y-78115344D01*
X169554765Y-77833038D01*
X169629806Y-77653647D01*
X169379793Y-77044052D01*
X169472314Y-77006106D01*
X169722327Y-77615701D01*
X169901719Y-77690742D01*
X170654461Y-77384896D01*
X170750187Y-77334159D01*
X170834174Y-77265721D01*
X170903197Y-77182213D01*
X170954601Y-77086844D01*
X170986413Y-76983279D01*
X170997408Y-76875498D01*
X170987166Y-76767643D01*
X170956078Y-76663858D01*
X170909030Y-76556156D01*
X170729639Y-76481115D01*
X170429038Y-76604400D01*
X170481798Y-76576436D01*
X170596327Y-76483112D01*
X170665606Y-76399293D01*
X170691693Y-76388594D01*
X170732167Y-76291838D01*
X170760545Y-76239189D01*
X170803924Y-76097964D01*
X170818918Y-75950990D01*
X170804951Y-75803915D01*
X170762559Y-75662391D01*
X170531091Y-75098013D01*
X170461904Y-74967478D01*
X170368580Y-74852949D01*
X170254705Y-74758828D01*
X170124657Y-74688731D01*
X169983432Y-74645352D01*
X169836458Y-74630358D01*
X169689383Y-74644325D01*
X169632174Y-74661461D01*
X169863389Y-74566633D01*
X169924786Y-74419858D01*
X169872728Y-74287190D01*
X169831216Y-74208869D01*
X169775221Y-74140151D01*
X169756029Y-74124288D01*
X169758556Y-74099519D01*
X169750176Y-74011273D01*
X169724740Y-73926358D01*
X169668654Y-73795342D01*
X169521879Y-73733945D01*
X168330671Y-74222495D01*
X168550638Y-74758828D01*
X168668908Y-75047200D01*
X168576387Y-75085146D01*
X168354833Y-74544942D01*
X168238150Y-74260440D01*
X167046943Y-74748990D01*
X166985546Y-74895765D01*
X167037604Y-75028433D01*
X167079116Y-75106754D01*
X167135111Y-75175472D01*
X167154303Y-75191335D01*
X167151776Y-75216104D01*
X167160156Y-75304350D01*
X167185592Y-75389265D01*
X167241678Y-75520281D01*
X167388453Y-75581678D01*
X167619665Y-75486851D01*
X167566904Y-75514816D01*
X167452375Y-75608140D01*
X167449969Y-75611051D01*
X167015572Y-75789414D01*
X166946636Y-75768405D01*
X166701625Y-75743953D01*
X166456552Y-75767771D01*
X166279901Y-75821108D01*
X159979157Y-78421415D01*
X159919331Y-78439563D01*
X159811089Y-78497420D01*
X159703530Y-78554733D01*
X159702900Y-78555248D01*
X159702177Y-78555635D01*
X159607289Y-78633507D01*
X159512990Y-78710692D01*
X159473272Y-78758961D01*
X156159541Y-82072693D01*
X156159536Y-82072697D01*
X152855215Y-85377019D01*
X152779533Y-85399977D01*
X152606019Y-85492722D01*
X152453933Y-85617536D01*
X151817536Y-86253933D01*
X151692722Y-86406019D01*
X151599977Y-86579533D01*
X151577019Y-86655215D01*
X150854759Y-87377475D01*
X150802145Y-87355681D01*
X150270851Y-87250000D01*
X149729149Y-87250000D01*
X149197855Y-87355681D01*
X148697387Y-87562982D01*
X148246977Y-87863936D01*
X147863936Y-88246977D01*
X147562982Y-88697387D01*
X147355681Y-89197855D01*
X147250000Y-89729149D01*
X144973158Y-89729149D01*
X145217225Y-89272887D01*
X145369373Y-88771901D01*
X145420860Y-88250858D01*
X145369708Y-87729782D01*
X145217882Y-87228699D01*
X144971216Y-86766863D01*
X144970262Y-86765436D01*
X144594277Y-86552801D01*
X142897078Y-88250000D01*
X142602922Y-88250000D01*
X140905723Y-86552801D01*
X140529738Y-86765436D01*
X140282775Y-87227113D01*
X140130627Y-87728099D01*
X140079140Y-88249142D01*
X137740635Y-88249142D01*
X139584049Y-86405723D01*
X141052801Y-86405723D01*
X142750000Y-88102922D01*
X144447199Y-86405723D01*
X144234564Y-86029738D01*
X143772887Y-85782775D01*
X143271901Y-85630627D01*
X142750858Y-85579140D01*
X142229782Y-85630292D01*
X141728699Y-85782118D01*
X141266863Y-86028784D01*
X141265436Y-86029738D01*
X141052801Y-86405723D01*
X139584049Y-86405723D01*
X150191340Y-75798404D01*
X150855120Y-75712194D01*
X150912247Y-75699947D01*
X150969681Y-75689217D01*
X150989647Y-75683499D01*
X151931526Y-75401241D01*
X151986744Y-75379621D01*
X152042470Y-75359358D01*
X152061234Y-75350456D01*
X152944365Y-74918155D01*
X152995325Y-74887798D01*
X153046978Y-74858714D01*
X153064036Y-74846867D01*
X153843993Y-74290895D01*
X166772320Y-74290895D01*
X166780700Y-74379141D01*
X166806136Y-74464056D01*
X166862222Y-74595072D01*
X167008997Y-74656469D01*
X168200205Y-74167919D01*
X167975377Y-73619733D01*
X167884666Y-73581787D01*
X168067898Y-73581787D01*
X168292726Y-74129974D01*
X169483933Y-73641424D01*
X169545330Y-73494649D01*
X169493272Y-73361981D01*
X169451760Y-73283660D01*
X169395765Y-73214942D01*
X169327440Y-73158470D01*
X169249411Y-73116412D01*
X169164677Y-73090384D01*
X169076492Y-73081388D01*
X168988246Y-73089768D01*
X168903332Y-73115203D01*
X168129295Y-73435012D01*
X168067898Y-73581787D01*
X167884666Y-73581787D01*
X167828602Y-73558335D01*
X167052913Y-73874116D01*
X166974592Y-73915628D01*
X166905874Y-73971623D01*
X166849402Y-74039948D01*
X166807344Y-74117977D01*
X166781317Y-74202711D01*
X166772320Y-74290895D01*
X153843993Y-74290895D01*
X153864703Y-74276133D01*
X153910013Y-74237867D01*
X153956231Y-74200731D01*
X153971125Y-74186256D01*
X154667824Y-73492416D01*
X154706280Y-73447259D01*
X154745806Y-73403079D01*
X154758136Y-73386366D01*
X155332159Y-72588054D01*
X155362714Y-72537238D01*
X155394505Y-72487178D01*
X155403936Y-72468683D01*
X155403939Y-72468677D01*
X155403941Y-72468672D01*
X155839868Y-71587331D01*
X155861714Y-71532204D01*
X155884900Y-71477627D01*
X155891187Y-71457833D01*
X156177316Y-70517123D01*
X156189867Y-70459160D01*
X156203826Y-70401538D01*
X156206795Y-70380983D01*
X156282548Y-69806961D01*
X166793980Y-69806961D01*
X166807947Y-69954037D01*
X166850339Y-70095561D01*
X167867282Y-72575123D01*
X167936470Y-72705657D01*
X168029794Y-72820186D01*
X168143668Y-72914307D01*
X168273716Y-72984405D01*
X168414941Y-73027784D01*
X168561915Y-73042777D01*
X168708990Y-73028810D01*
X168850515Y-72986418D01*
X172181270Y-71620376D01*
X172311805Y-71551188D01*
X172426333Y-71457864D01*
X172520455Y-71343990D01*
X172590552Y-71213941D01*
X172633931Y-71072717D01*
X172648924Y-70925743D01*
X172634957Y-70778667D01*
X172592565Y-70637143D01*
X171575622Y-68157581D01*
X171506434Y-68027047D01*
X171413110Y-67912518D01*
X171299236Y-67818397D01*
X171169188Y-67748299D01*
X171027963Y-67704920D01*
X170880989Y-67689927D01*
X170733914Y-67703894D01*
X170592389Y-67746286D01*
X167261634Y-69112328D01*
X167131099Y-69181516D01*
X167016571Y-69274840D01*
X166922449Y-69388714D01*
X166852352Y-69518763D01*
X166808973Y-69659987D01*
X166793980Y-69806961D01*
X156282548Y-69806961D01*
X156297703Y-69692125D01*
X162221247Y-63768545D01*
X163400000Y-63768545D01*
X163400000Y-64231455D01*
X163490309Y-64685470D01*
X163667457Y-65113143D01*
X163924636Y-65498038D01*
X164251962Y-65825364D01*
X164636857Y-66082543D01*
X165064530Y-66259691D01*
X165518545Y-66350000D01*
X165981455Y-66350000D01*
X166435470Y-66259691D01*
X166863143Y-66082543D01*
X167248038Y-65825364D01*
X167575364Y-65498038D01*
X167832543Y-65113143D01*
X168009691Y-64685470D01*
X168100000Y-64231455D01*
X168100000Y-63768545D01*
X168009691Y-63314530D01*
X167832543Y-62886857D01*
X167575364Y-62501962D01*
X167248038Y-62174636D01*
X166863143Y-61917457D01*
X166435470Y-61740309D01*
X165981455Y-61650000D01*
X165518545Y-61650000D01*
X165064530Y-61740309D01*
X164636857Y-61917457D01*
X164251962Y-62174636D01*
X163924636Y-62501962D01*
X163667457Y-62886857D01*
X163490309Y-63314530D01*
X163400000Y-63768545D01*
X162221247Y-63768545D01*
X163872536Y-62117246D01*
X164303585Y-61763178D01*
X164793463Y-61500508D01*
X168607565Y-59933999D01*
X178150000Y-83167755D01*
G37*
X178150000Y-83167755D02*
X178150001Y-86440100D01*
X169458251Y-86440100D01*
X169439777Y-86441920D01*
X168852834Y-86467546D01*
X168814165Y-86472123D01*
X168775286Y-86474501D01*
X168753279Y-86477790D01*
X167729250Y-86644564D01*
X167678802Y-86656676D01*
X167628027Y-86667468D01*
X167606747Y-86673975D01*
X166618620Y-86990277D01*
X166570555Y-87009697D01*
X166521892Y-87027891D01*
X166501808Y-87037471D01*
X165571286Y-87496354D01*
X165526580Y-87522688D01*
X165481181Y-87547853D01*
X165462734Y-87560296D01*
X164610260Y-88151678D01*
X164569937Y-88184331D01*
X164528757Y-88215930D01*
X164512351Y-88230963D01*
X163756653Y-88941854D01*
X163721595Y-88980114D01*
X163685543Y-89017446D01*
X163671540Y-89034739D01*
X163029218Y-89849520D01*
X163000218Y-89892514D01*
X162970061Y-89934793D01*
X162958768Y-89953966D01*
X162443934Y-90854738D01*
X162421603Y-90901557D01*
X162398032Y-90947818D01*
X162389696Y-90968450D01*
X162013660Y-91935426D01*
X161998493Y-91985036D01*
X161982020Y-92034268D01*
X161976826Y-92055905D01*
X161747848Y-93067841D01*
X161740183Y-93119130D01*
X161731165Y-93170274D01*
X161729226Y-93192442D01*
X161653089Y-94216994D01*
X161650000Y-94248352D01*
X161650001Y-101650000D01*
X137350000Y-101650000D01*
X137350000Y-96768545D01*
X139650000Y-96768545D01*
X139650000Y-97231455D01*
X139740309Y-97685470D01*
X139917457Y-98113143D01*
X140174636Y-98498038D01*
X140501962Y-98825364D01*
X140886857Y-99082543D01*
X141314530Y-99259691D01*
X141768545Y-99350000D01*
X142231455Y-99350000D01*
X142685470Y-99259691D01*
X143113143Y-99082543D01*
X143498038Y-98825364D01*
X143825364Y-98498038D01*
X144082543Y-98113143D01*
X144259691Y-97685470D01*
X144350000Y-97231455D01*
X144350000Y-96768545D01*
X144259691Y-96314530D01*
X144082543Y-95886857D01*
X143825364Y-95501962D01*
X143498038Y-95174636D01*
X143113143Y-94917457D01*
X142685470Y-94740309D01*
X142231455Y-94650000D01*
X141768545Y-94650000D01*
X141314530Y-94740309D01*
X140886857Y-94917457D01*
X140501962Y-95174636D01*
X140174636Y-95501962D01*
X139917457Y-95886857D01*
X139740309Y-96314530D01*
X139650000Y-96768545D01*
X137350000Y-96768545D01*
X137350000Y-90094277D01*
X141052801Y-90094277D01*
X141265436Y-90470262D01*
X141727113Y-90717225D01*
X142228099Y-90869373D01*
X142749142Y-90920860D01*
X143270218Y-90869708D01*
X143771301Y-90717882D01*
X144233137Y-90471216D01*
X144234564Y-90470262D01*
X144447199Y-90094277D01*
X142750000Y-88397078D01*
X141052801Y-90094277D01*
X137350000Y-90094277D01*
X137350000Y-88639779D01*
X137740635Y-88249142D01*
X140079140Y-88249142D01*
X140130292Y-88770218D01*
X140282118Y-89271301D01*
X140528784Y-89733137D01*
X140529738Y-89734564D01*
X140905723Y-89947199D01*
X142602922Y-88250000D01*
X142897078Y-88250000D01*
X144594277Y-89947199D01*
X144970262Y-89734564D01*
X144973158Y-89729149D01*
X147250000Y-89729149D01*
X147250000Y-90270851D01*
X147355681Y-90802145D01*
X147562982Y-91302613D01*
X147863936Y-91753023D01*
X148246977Y-92136064D01*
X148697387Y-92437018D01*
X148750001Y-92458811D01*
X148750000Y-95541189D01*
X148697387Y-95562982D01*
X148246977Y-95863936D01*
X147863936Y-96246977D01*
X147562982Y-96697387D01*
X147355681Y-97197855D01*
X147250000Y-97729149D01*
X147250000Y-98270851D01*
X147355681Y-98802145D01*
X147562982Y-99302613D01*
X147863936Y-99753023D01*
X148246977Y-100136064D01*
X148697387Y-100437018D01*
X149197855Y-100644319D01*
X149729149Y-100750000D01*
X150270851Y-100750000D01*
X150802145Y-100644319D01*
X151302613Y-100437018D01*
X151753023Y-100136064D01*
X152136064Y-99753023D01*
X152437018Y-99302613D01*
X152644319Y-98802145D01*
X152750000Y-98270851D01*
X152750000Y-97729149D01*
X152644319Y-97197855D01*
X152466493Y-96768545D01*
X154650000Y-96768545D01*
X154650000Y-97231455D01*
X154740309Y-97685470D01*
X154917457Y-98113143D01*
X155174636Y-98498038D01*
X155501962Y-98825364D01*
X155886857Y-99082543D01*
X156314530Y-99259691D01*
X156768545Y-99350000D01*
X157231455Y-99350000D01*
X157685470Y-99259691D01*
X158113143Y-99082543D01*
X158498038Y-98825364D01*
X158825364Y-98498038D01*
X159082543Y-98113143D01*
X159259691Y-97685470D01*
X159350000Y-97231455D01*
X159350000Y-96768545D01*
X159259691Y-96314530D01*
X159082543Y-95886857D01*
X158825364Y-95501962D01*
X158498038Y-95174636D01*
X158113143Y-94917457D01*
X157685470Y-94740309D01*
X157231455Y-94650000D01*
X156768545Y-94650000D01*
X156314530Y-94740309D01*
X155886857Y-94917457D01*
X155501962Y-95174636D01*
X155174636Y-95501962D01*
X154917457Y-95886857D01*
X154740309Y-96314530D01*
X154650000Y-96768545D01*
X152466493Y-96768545D01*
X152437018Y-96697387D01*
X152136064Y-96246977D01*
X151753023Y-95863936D01*
X151302613Y-95562982D01*
X151250000Y-95541189D01*
X151250000Y-92458811D01*
X151302613Y-92437018D01*
X151753023Y-92136064D01*
X152136064Y-91753023D01*
X152437018Y-91302613D01*
X152644319Y-90802145D01*
X152750000Y-90270851D01*
X152750000Y-89729149D01*
X152644319Y-89197855D01*
X152622525Y-89145241D01*
X152638648Y-89129118D01*
X153861871Y-89129118D01*
X153861871Y-89288217D01*
X154116658Y-89546083D01*
X154185179Y-89602317D01*
X154263355Y-89644102D01*
X154348181Y-89669833D01*
X154436396Y-89678522D01*
X154524611Y-89669833D01*
X154609436Y-89644102D01*
X154687612Y-89602317D01*
X154756133Y-89546083D01*
X155099308Y-89199829D01*
X155099308Y-89040730D01*
X154524784Y-88466205D01*
X153861871Y-89129118D01*
X152638648Y-89129118D01*
X153199901Y-88567866D01*
X153205466Y-88586213D01*
X153247251Y-88664389D01*
X153303485Y-88732910D01*
X153561351Y-88987697D01*
X153720450Y-88987697D01*
X154383363Y-88324784D01*
X154666205Y-88324784D01*
X155240730Y-88899308D01*
X155399829Y-88899308D01*
X155746083Y-88556133D01*
X155802317Y-88487612D01*
X155844102Y-88409436D01*
X155869833Y-88324611D01*
X155878522Y-88236396D01*
X155869833Y-88148181D01*
X155844102Y-88063355D01*
X155802317Y-87985179D01*
X155746083Y-87916658D01*
X155488217Y-87661871D01*
X155329118Y-87661871D01*
X154666205Y-88324784D01*
X154383363Y-88324784D01*
X154369221Y-88310642D01*
X154510642Y-88169221D01*
X154524784Y-88183363D01*
X155187697Y-87520450D01*
X155187697Y-87361351D01*
X154932910Y-87103485D01*
X154864389Y-87047251D01*
X154786213Y-87005466D01*
X154767866Y-86999901D01*
X157927303Y-83840464D01*
X157927307Y-83840459D01*
X161107475Y-80660292D01*
X167233621Y-78132043D01*
X167396471Y-78045268D01*
X167587010Y-77889309D01*
X167743462Y-77699174D01*
X167775504Y-77639413D01*
X167969967Y-77559567D01*
X167988706Y-77605255D01*
X168115920Y-77553081D01*
X168040880Y-77732470D01*
X168083004Y-77842192D01*
X168133741Y-77937917D01*
X168202179Y-78021905D01*
X168285687Y-78090927D01*
X168381056Y-78142332D01*
X168484621Y-78174143D01*
X168592402Y-78185139D01*
X168700257Y-78174896D01*
X168804042Y-78143808D01*
X168872802Y-78115344D01*
X170201496Y-78115344D01*
X170215463Y-78262420D01*
X170257855Y-78403944D01*
X171274798Y-80883506D01*
X171343986Y-81014040D01*
X171437310Y-81128569D01*
X171551184Y-81222690D01*
X171681232Y-81292788D01*
X171822457Y-81336167D01*
X171969431Y-81351160D01*
X172116506Y-81337193D01*
X172258031Y-81294801D01*
X175588786Y-79928759D01*
X175719321Y-79859571D01*
X175833849Y-79766247D01*
X175927971Y-79652373D01*
X175998068Y-79522324D01*
X176041447Y-79381100D01*
X176056440Y-79234126D01*
X176042473Y-79087050D01*
X176000081Y-78945526D01*
X174983138Y-76465964D01*
X174913950Y-76335430D01*
X174820626Y-76220901D01*
X174706752Y-76126780D01*
X174576704Y-76056682D01*
X174435479Y-76013303D01*
X174288505Y-75998310D01*
X174141430Y-76012277D01*
X173999905Y-76054669D01*
X170669150Y-77420711D01*
X170538615Y-77489899D01*
X170424087Y-77583223D01*
X170329965Y-77697097D01*
X170259868Y-77827146D01*
X170216489Y-77968370D01*
X170201496Y-78115344D01*
X168872802Y-78115344D01*
X169554765Y-77833038D01*
X169629806Y-77653647D01*
X169379793Y-77044052D01*
X169472314Y-77006106D01*
X169722327Y-77615701D01*
X169901719Y-77690742D01*
X170654461Y-77384896D01*
X170750187Y-77334159D01*
X170834174Y-77265721D01*
X170903197Y-77182213D01*
X170954601Y-77086844D01*
X170986413Y-76983279D01*
X170997408Y-76875498D01*
X170987166Y-76767643D01*
X170956078Y-76663858D01*
X170909030Y-76556156D01*
X170729639Y-76481115D01*
X170429038Y-76604400D01*
X170481798Y-76576436D01*
X170596327Y-76483112D01*
X170665606Y-76399293D01*
X170691693Y-76388594D01*
X170732167Y-76291838D01*
X170760545Y-76239189D01*
X170803924Y-76097964D01*
X170818918Y-75950990D01*
X170804951Y-75803915D01*
X170762559Y-75662391D01*
X170531091Y-75098013D01*
X170461904Y-74967478D01*
X170368580Y-74852949D01*
X170254705Y-74758828D01*
X170124657Y-74688731D01*
X169983432Y-74645352D01*
X169836458Y-74630358D01*
X169689383Y-74644325D01*
X169632174Y-74661461D01*
X169863389Y-74566633D01*
X169924786Y-74419858D01*
X169872728Y-74287190D01*
X169831216Y-74208869D01*
X169775221Y-74140151D01*
X169756029Y-74124288D01*
X169758556Y-74099519D01*
X169750176Y-74011273D01*
X169724740Y-73926358D01*
X169668654Y-73795342D01*
X169521879Y-73733945D01*
X168330671Y-74222495D01*
X168550638Y-74758828D01*
X168668908Y-75047200D01*
X168576387Y-75085146D01*
X168354833Y-74544942D01*
X168238150Y-74260440D01*
X167046943Y-74748990D01*
X166985546Y-74895765D01*
X167037604Y-75028433D01*
X167079116Y-75106754D01*
X167135111Y-75175472D01*
X167154303Y-75191335D01*
X167151776Y-75216104D01*
X167160156Y-75304350D01*
X167185592Y-75389265D01*
X167241678Y-75520281D01*
X167388453Y-75581678D01*
X167619665Y-75486851D01*
X167566904Y-75514816D01*
X167452375Y-75608140D01*
X167449969Y-75611051D01*
X167015572Y-75789414D01*
X166946636Y-75768405D01*
X166701625Y-75743953D01*
X166456552Y-75767771D01*
X166279901Y-75821108D01*
X159979157Y-78421415D01*
X159919331Y-78439563D01*
X159811089Y-78497420D01*
X159703530Y-78554733D01*
X159702900Y-78555248D01*
X159702177Y-78555635D01*
X159607289Y-78633507D01*
X159512990Y-78710692D01*
X159473272Y-78758961D01*
X156159541Y-82072693D01*
X156159536Y-82072697D01*
X152855215Y-85377019D01*
X152779533Y-85399977D01*
X152606019Y-85492722D01*
X152453933Y-85617536D01*
X151817536Y-86253933D01*
X151692722Y-86406019D01*
X151599977Y-86579533D01*
X151577019Y-86655215D01*
X150854759Y-87377475D01*
X150802145Y-87355681D01*
X150270851Y-87250000D01*
X149729149Y-87250000D01*
X149197855Y-87355681D01*
X148697387Y-87562982D01*
X148246977Y-87863936D01*
X147863936Y-88246977D01*
X147562982Y-88697387D01*
X147355681Y-89197855D01*
X147250000Y-89729149D01*
X144973158Y-89729149D01*
X145217225Y-89272887D01*
X145369373Y-88771901D01*
X145420860Y-88250858D01*
X145369708Y-87729782D01*
X145217882Y-87228699D01*
X144971216Y-86766863D01*
X144970262Y-86765436D01*
X144594277Y-86552801D01*
X142897078Y-88250000D01*
X142602922Y-88250000D01*
X140905723Y-86552801D01*
X140529738Y-86765436D01*
X140282775Y-87227113D01*
X140130627Y-87728099D01*
X140079140Y-88249142D01*
X137740635Y-88249142D01*
X139584049Y-86405723D01*
X141052801Y-86405723D01*
X142750000Y-88102922D01*
X144447199Y-86405723D01*
X144234564Y-86029738D01*
X143772887Y-85782775D01*
X143271901Y-85630627D01*
X142750858Y-85579140D01*
X142229782Y-85630292D01*
X141728699Y-85782118D01*
X141266863Y-86028784D01*
X141265436Y-86029738D01*
X141052801Y-86405723D01*
X139584049Y-86405723D01*
X150191340Y-75798404D01*
X150855120Y-75712194D01*
X150912247Y-75699947D01*
X150969681Y-75689217D01*
X150989647Y-75683499D01*
X151931526Y-75401241D01*
X151986744Y-75379621D01*
X152042470Y-75359358D01*
X152061234Y-75350456D01*
X152944365Y-74918155D01*
X152995325Y-74887798D01*
X153046978Y-74858714D01*
X153064036Y-74846867D01*
X153843993Y-74290895D01*
X166772320Y-74290895D01*
X166780700Y-74379141D01*
X166806136Y-74464056D01*
X166862222Y-74595072D01*
X167008997Y-74656469D01*
X168200205Y-74167919D01*
X167975377Y-73619733D01*
X167884666Y-73581787D01*
X168067898Y-73581787D01*
X168292726Y-74129974D01*
X169483933Y-73641424D01*
X169545330Y-73494649D01*
X169493272Y-73361981D01*
X169451760Y-73283660D01*
X169395765Y-73214942D01*
X169327440Y-73158470D01*
X169249411Y-73116412D01*
X169164677Y-73090384D01*
X169076492Y-73081388D01*
X168988246Y-73089768D01*
X168903332Y-73115203D01*
X168129295Y-73435012D01*
X168067898Y-73581787D01*
X167884666Y-73581787D01*
X167828602Y-73558335D01*
X167052913Y-73874116D01*
X166974592Y-73915628D01*
X166905874Y-73971623D01*
X166849402Y-74039948D01*
X166807344Y-74117977D01*
X166781317Y-74202711D01*
X166772320Y-74290895D01*
X153843993Y-74290895D01*
X153864703Y-74276133D01*
X153910013Y-74237867D01*
X153956231Y-74200731D01*
X153971125Y-74186256D01*
X154667824Y-73492416D01*
X154706280Y-73447259D01*
X154745806Y-73403079D01*
X154758136Y-73386366D01*
X155332159Y-72588054D01*
X155362714Y-72537238D01*
X155394505Y-72487178D01*
X155403936Y-72468683D01*
X155403939Y-72468677D01*
X155403941Y-72468672D01*
X155839868Y-71587331D01*
X155861714Y-71532204D01*
X155884900Y-71477627D01*
X155891187Y-71457833D01*
X156177316Y-70517123D01*
X156189867Y-70459160D01*
X156203826Y-70401538D01*
X156206795Y-70380983D01*
X156282548Y-69806961D01*
X166793980Y-69806961D01*
X166807947Y-69954037D01*
X166850339Y-70095561D01*
X167867282Y-72575123D01*
X167936470Y-72705657D01*
X168029794Y-72820186D01*
X168143668Y-72914307D01*
X168273716Y-72984405D01*
X168414941Y-73027784D01*
X168561915Y-73042777D01*
X168708990Y-73028810D01*
X168850515Y-72986418D01*
X172181270Y-71620376D01*
X172311805Y-71551188D01*
X172426333Y-71457864D01*
X172520455Y-71343990D01*
X172590552Y-71213941D01*
X172633931Y-71072717D01*
X172648924Y-70925743D01*
X172634957Y-70778667D01*
X172592565Y-70637143D01*
X171575622Y-68157581D01*
X171506434Y-68027047D01*
X171413110Y-67912518D01*
X171299236Y-67818397D01*
X171169188Y-67748299D01*
X171027963Y-67704920D01*
X170880989Y-67689927D01*
X170733914Y-67703894D01*
X170592389Y-67746286D01*
X167261634Y-69112328D01*
X167131099Y-69181516D01*
X167016571Y-69274840D01*
X166922449Y-69388714D01*
X166852352Y-69518763D01*
X166808973Y-69659987D01*
X166793980Y-69806961D01*
X156282548Y-69806961D01*
X156297703Y-69692125D01*
X162221247Y-63768545D01*
X163400000Y-63768545D01*
X163400000Y-64231455D01*
X163490309Y-64685470D01*
X163667457Y-65113143D01*
X163924636Y-65498038D01*
X164251962Y-65825364D01*
X164636857Y-66082543D01*
X165064530Y-66259691D01*
X165518545Y-66350000D01*
X165981455Y-66350000D01*
X166435470Y-66259691D01*
X166863143Y-66082543D01*
X167248038Y-65825364D01*
X167575364Y-65498038D01*
X167832543Y-65113143D01*
X168009691Y-64685470D01*
X168100000Y-64231455D01*
X168100000Y-63768545D01*
X168009691Y-63314530D01*
X167832543Y-62886857D01*
X167575364Y-62501962D01*
X167248038Y-62174636D01*
X166863143Y-61917457D01*
X166435470Y-61740309D01*
X165981455Y-61650000D01*
X165518545Y-61650000D01*
X165064530Y-61740309D01*
X164636857Y-61917457D01*
X164251962Y-62174636D01*
X163924636Y-62501962D01*
X163667457Y-62886857D01*
X163490309Y-63314530D01*
X163400000Y-63768545D01*
X162221247Y-63768545D01*
X163872536Y-62117246D01*
X164303585Y-61763178D01*
X164793463Y-61500508D01*
X168607565Y-59933999D01*
X178150000Y-83167755D01*
%TD*%
M02*
