G04 #@! TF.GenerationSoftware,KiCad,Pcbnew,5.1.4*
G04 #@! TF.CreationDate,2019-09-17T23:30:44+02:00*
G04 #@! TF.ProjectId,Supply-Board,53757070-6c79-42d4-926f-6172642e6b69,rev?*
G04 #@! TF.SameCoordinates,Original*
G04 #@! TF.FileFunction,Copper,L2,Bot*
G04 #@! TF.FilePolarity,Positive*
%FSLAX46Y46*%
G04 Gerber Fmt 4.6, Leading zero omitted, Abs format (unit mm)*
G04 Created by KiCad (PCBNEW 5.1.4) date 2019-09-17 23:30:44*
%MOMM*%
%LPD*%
G04 APERTURE LIST*
%ADD10C,2.000000*%
%ADD11C,4.000000*%
%ADD12C,1.600000*%
%ADD13R,1.600000X1.600000*%
%ADD14C,2.600000*%
%ADD15C,1.800000*%
%ADD16C,2.300000*%
%ADD17R,2.000000X2.300000*%
%ADD18R,3.000000X3.000000*%
%ADD19C,3.000000*%
%ADD20C,2.400000*%
%ADD21R,2.400000X2.400000*%
%ADD22C,0.800000*%
%ADD23C,1.500000*%
%ADD24C,0.600000*%
%ADD25C,1.000000*%
%ADD26C,0.254000*%
%ADD27C,0.300000*%
G04 APERTURE END LIST*
D10*
X163000000Y-80500000D03*
X163000000Y-87500000D03*
X163000000Y-56750000D03*
X163000000Y-60000000D03*
X163000000Y-63750000D03*
X163000000Y-67000000D03*
X163000000Y-70250000D03*
X163000000Y-74000000D03*
X163000000Y-77250000D03*
X163000000Y-53500000D03*
X163000000Y-84250000D03*
D11*
X226800000Y-55570000D03*
X226800000Y-102670000D03*
D12*
X229340000Y-94355000D03*
X229340000Y-91585000D03*
X229340000Y-88815000D03*
X229340000Y-86045000D03*
X229340000Y-83275000D03*
X229340000Y-80505000D03*
X229340000Y-77735000D03*
X229340000Y-74965000D03*
X229340000Y-72195000D03*
X229340000Y-69425000D03*
X229340000Y-66655000D03*
X229340000Y-63885000D03*
X226500000Y-95740000D03*
X226500000Y-92970000D03*
X226500000Y-90200000D03*
X226500000Y-87430000D03*
X226500000Y-84660000D03*
X226500000Y-81890000D03*
X226500000Y-79120000D03*
X226500000Y-76350000D03*
X226500000Y-73580000D03*
X226500000Y-70810000D03*
X226500000Y-68040000D03*
X226500000Y-65270000D03*
D13*
X226500000Y-62500000D03*
D14*
X200000000Y-122500000D03*
X200000000Y-130500000D03*
X200000000Y-138500000D03*
D12*
X188040000Y-77000000D03*
X185500000Y-77000000D03*
D13*
X182960000Y-77000000D03*
D15*
X157500000Y-111000000D03*
X152500000Y-111000000D03*
X137500000Y-111000000D03*
X132500000Y-111000000D03*
X157500000Y-136000000D03*
X132500000Y-136000000D03*
X111500000Y-111000000D03*
X106500000Y-111000000D03*
X91500000Y-111000000D03*
X86500000Y-111000000D03*
X111500000Y-136000000D03*
X86500000Y-136000000D03*
D16*
X209600000Y-84500000D03*
X217200000Y-112500000D03*
D17*
X202000000Y-112500000D03*
D16*
X202000000Y-84500000D03*
D18*
X181000000Y-138500000D03*
D19*
X183750000Y-100000000D03*
X191750000Y-138500000D03*
X191750000Y-100000000D03*
D20*
X126500000Y-96500000D03*
D21*
X131500000Y-96500000D03*
D20*
X140500000Y-96500000D03*
D21*
X145500000Y-96500000D03*
D20*
X126500000Y-82500000D03*
D21*
X131500000Y-82500000D03*
D20*
X140500000Y-82500000D03*
D21*
X145500000Y-82500000D03*
D20*
X98500000Y-96500000D03*
D21*
X103500000Y-96500000D03*
D20*
X112500000Y-82500000D03*
D21*
X117500000Y-82500000D03*
D20*
X98500000Y-82500000D03*
D21*
X103500000Y-82500000D03*
D20*
X112500000Y-96500000D03*
D21*
X117500000Y-96500000D03*
D12*
X103250000Y-56250000D03*
X105000000Y-56250000D03*
X106750000Y-56250000D03*
X105875000Y-57700000D03*
D22*
X81848000Y-60416000D03*
D12*
X84000000Y-94000000D03*
X86000000Y-94000000D03*
X86000000Y-90000000D03*
X84000000Y-90000000D03*
X184500000Y-83500000D03*
X186250000Y-83500000D03*
X188000000Y-83500000D03*
D22*
X80070000Y-71846000D03*
D12*
X184500000Y-86500000D03*
X182750000Y-86500000D03*
X184500000Y-88250000D03*
X182750000Y-88250000D03*
D22*
X88706000Y-74386000D03*
X82102000Y-78704000D03*
D12*
X200750000Y-94250000D03*
D22*
X88706000Y-76926000D03*
D12*
X208750000Y-94250000D03*
X120000000Y-60000000D03*
X120000000Y-61750000D03*
X121475000Y-60875000D03*
D22*
X88706000Y-64226000D03*
D12*
X94250000Y-53000000D03*
X99500000Y-53000000D03*
X99500000Y-54750000D03*
X137750000Y-66250000D03*
X137750000Y-68000000D03*
X136000000Y-68000000D03*
D22*
X80070000Y-66766000D03*
D12*
X158000000Y-90000000D03*
X160000000Y-94000000D03*
X158000000Y-94000000D03*
X162000000Y-94000000D03*
X156375000Y-70800000D03*
X155500000Y-69250000D03*
X157250000Y-69250000D03*
D22*
X88706000Y-69306000D03*
D12*
X130500000Y-62500000D03*
X124000000Y-64750000D03*
X125750000Y-64750000D03*
D22*
X88706000Y-66766000D03*
D12*
X190500000Y-77000000D03*
X190500000Y-78750000D03*
X192250000Y-78750000D03*
X192250000Y-77000000D03*
D22*
X88706000Y-71846000D03*
D12*
X99000000Y-58000000D03*
X93500000Y-55000000D03*
X131250000Y-55250000D03*
X125000000Y-55250000D03*
D23*
X229340000Y-66655000D02*
X226500000Y-65270000D01*
D24*
X81848000Y-60416000D02*
X100390000Y-60416000D01*
X103250000Y-57556000D02*
X103250000Y-56250000D01*
X100390000Y-60416000D02*
X103250000Y-57556000D01*
D23*
X209875000Y-56625000D02*
X209750000Y-56500000D01*
X217375000Y-56625000D02*
X209875000Y-56625000D01*
X226500000Y-65270000D02*
X226020000Y-65270000D01*
X226020000Y-65270000D02*
X217375000Y-56625000D01*
X229340000Y-83275000D02*
X226500000Y-81890000D01*
X213125000Y-77125000D02*
X207625000Y-77125000D01*
X207625000Y-77125000D02*
X207500000Y-77000000D01*
X226500000Y-81890000D02*
X217890000Y-81890000D01*
X217890000Y-81890000D02*
X213125000Y-77125000D01*
D24*
X181924000Y-81752000D02*
X184502000Y-81752000D01*
X184502000Y-81752000D02*
X186250000Y-83500000D01*
X85150000Y-71846000D02*
X86420000Y-73116000D01*
X177422000Y-77250000D02*
X181924000Y-81752000D01*
X80070000Y-71846000D02*
X85150000Y-71846000D01*
X151866000Y-73116000D02*
X156000000Y-77250000D01*
X86420000Y-73116000D02*
X151866000Y-73116000D01*
X156000000Y-77250000D02*
X177422000Y-77250000D01*
D23*
X226500000Y-84660000D02*
X229340000Y-86045000D01*
X206375000Y-80375000D02*
X206250000Y-80250000D01*
X226500000Y-84660000D02*
X216910000Y-84660000D01*
X212625000Y-80375000D02*
X206375000Y-80375000D01*
X216910000Y-84660000D02*
X212625000Y-80375000D01*
D24*
X182750000Y-85936000D02*
X182750000Y-86500000D01*
X157250000Y-80500000D02*
X177314000Y-80500000D01*
X88706000Y-74386000D02*
X151136000Y-74386000D01*
X177314000Y-80500000D02*
X182750000Y-85936000D01*
X151136000Y-74386000D02*
X157250000Y-80500000D01*
D23*
X229340000Y-91585000D02*
X226500000Y-90200000D01*
X207700000Y-90200000D02*
X202000000Y-84500000D01*
X226500000Y-90200000D02*
X207700000Y-90200000D01*
D24*
X92625000Y-78704000D02*
X82102000Y-78704000D01*
X198500000Y-92000000D02*
X175500000Y-92000000D01*
X200750000Y-94250000D02*
X198500000Y-92000000D01*
X93579000Y-77750000D02*
X92625000Y-78704000D01*
X149250000Y-77750000D02*
X93579000Y-77750000D01*
X171000000Y-87500000D02*
X159000000Y-87500000D01*
X175500000Y-92000000D02*
X171000000Y-87500000D01*
X159000000Y-87500000D02*
X149250000Y-77750000D01*
D23*
X229340000Y-88815000D02*
X226500000Y-87430000D01*
X212530000Y-87430000D02*
X209600000Y-84500000D01*
X226500000Y-87430000D02*
X212530000Y-87430000D01*
D24*
X206500000Y-94250000D02*
X208750000Y-94250000D01*
X203000000Y-90750000D02*
X206500000Y-94250000D01*
X92324000Y-76926000D02*
X92750000Y-76500000D01*
X88706000Y-76926000D02*
X92324000Y-76926000D01*
X176250000Y-90750000D02*
X203000000Y-90750000D01*
X169750000Y-84250000D02*
X176250000Y-90750000D01*
X92750000Y-76500000D02*
X150000000Y-76500000D01*
X150000000Y-76500000D02*
X157750000Y-84250000D01*
X157750000Y-84250000D02*
X169750000Y-84250000D01*
D23*
X229340000Y-69425000D02*
X226500000Y-68040000D01*
D24*
X120000000Y-61888000D02*
X120000000Y-60000000D01*
X88706000Y-64226000D02*
X117662000Y-64226000D01*
X117662000Y-64226000D02*
X120000000Y-61888000D01*
D23*
X216875000Y-59875000D02*
X209625000Y-59875000D01*
X209625000Y-59875000D02*
X209500000Y-60000000D01*
X226500000Y-68040000D02*
X225040000Y-68040000D01*
X225040000Y-68040000D02*
X216875000Y-59875000D01*
X229340000Y-63885000D02*
X226500000Y-62500000D01*
X209625000Y-53375000D02*
X209500000Y-53250000D01*
X217875000Y-53375000D02*
X209625000Y-53375000D01*
X226500000Y-62500000D02*
X226500000Y-62000000D01*
X226500000Y-62000000D02*
X217875000Y-53375000D01*
X226500000Y-73580000D02*
X229340000Y-74965000D01*
D24*
X80070000Y-66766000D02*
X83880000Y-66766000D01*
X83880000Y-66766000D02*
X85150000Y-68036000D01*
X135964000Y-68036000D02*
X136000000Y-68000000D01*
X85150000Y-68036000D02*
X135964000Y-68036000D01*
D23*
X210125000Y-66875000D02*
X210000000Y-67000000D01*
X215125000Y-66875000D02*
X210125000Y-66875000D01*
X226500000Y-73580000D02*
X221830000Y-73580000D01*
X221830000Y-73580000D02*
X215125000Y-66875000D01*
X229340000Y-77735000D02*
X226500000Y-76350000D01*
D24*
X133918000Y-70322000D02*
X155897000Y-70322000D01*
X88706000Y-69306000D02*
X132902000Y-69306000D01*
X155897000Y-70322000D02*
X156375000Y-70800000D01*
X132902000Y-69306000D02*
X133918000Y-70322000D01*
D23*
X208625000Y-70125000D02*
X208500000Y-70250000D01*
X226500000Y-76350000D02*
X220850000Y-76350000D01*
X214625000Y-70125000D02*
X208625000Y-70125000D01*
X220850000Y-76350000D02*
X214625000Y-70125000D01*
X229340000Y-72195000D02*
X226500000Y-70810000D01*
D24*
X124000000Y-65000000D02*
X124000000Y-64750000D01*
X88706000Y-66766000D02*
X122234000Y-66766000D01*
X122234000Y-66766000D02*
X124000000Y-65000000D01*
D23*
X210375000Y-63625000D02*
X210250000Y-63500000D01*
X215625000Y-63625000D02*
X210375000Y-63625000D01*
X226500000Y-70810000D02*
X222810000Y-70810000D01*
X222810000Y-70810000D02*
X215625000Y-63625000D01*
X226500000Y-79120000D02*
X229340000Y-80505000D01*
X207875000Y-73875000D02*
X207750000Y-73750000D01*
X213625000Y-73875000D02*
X207875000Y-73875000D01*
X226500000Y-79120000D02*
X218870000Y-79120000D01*
X218870000Y-79120000D02*
X213625000Y-73875000D01*
D24*
X187632000Y-74132000D02*
X190500000Y-77000000D01*
X154804000Y-74132000D02*
X187632000Y-74132000D01*
X88706000Y-71846000D02*
X152518000Y-71846000D01*
X152518000Y-71846000D02*
X154804000Y-74132000D01*
D25*
X96500000Y-58000000D02*
X93500000Y-55000000D01*
X99000000Y-58000000D02*
X96500000Y-58000000D01*
X131250000Y-55250000D02*
X125000000Y-55250000D01*
D26*
G36*
X219844758Y-110580848D02*
G01*
X219844758Y-117475636D01*
X203919152Y-133401242D01*
X196971758Y-133401242D01*
X196946982Y-133403682D01*
X196923157Y-133410909D01*
X196901201Y-133422645D01*
X196881955Y-133438439D01*
X194881955Y-135438439D01*
X194866161Y-135457685D01*
X194854425Y-135479641D01*
X194847198Y-135503466D01*
X194844758Y-135528242D01*
X194844758Y-140475636D01*
X193919152Y-141401242D01*
X184489703Y-141401242D01*
X184527741Y-141354893D01*
X184753105Y-140933267D01*
X184891883Y-140475775D01*
X184933893Y-140049234D01*
X190516135Y-140049234D01*
X190680999Y-140350745D01*
X191062602Y-140523735D01*
X191470621Y-140618954D01*
X191889376Y-140632743D01*
X192302776Y-140564571D01*
X192694932Y-140417060D01*
X192819001Y-140350745D01*
X192983865Y-140049234D01*
X191750000Y-138815370D01*
X190516135Y-140049234D01*
X184933893Y-140049234D01*
X184938743Y-140000000D01*
X184938743Y-138639376D01*
X189617257Y-138639376D01*
X189685429Y-139052776D01*
X189832940Y-139444932D01*
X189899255Y-139569001D01*
X190200766Y-139733865D01*
X191434630Y-138500000D01*
X192065370Y-138500000D01*
X193299234Y-139733865D01*
X193600745Y-139569001D01*
X193773735Y-139187398D01*
X193868954Y-138779379D01*
X193882743Y-138360624D01*
X193814571Y-137947224D01*
X193667060Y-137555068D01*
X193600745Y-137430999D01*
X193299234Y-137266135D01*
X192065370Y-138500000D01*
X191434630Y-138500000D01*
X190200766Y-137266135D01*
X189899255Y-137430999D01*
X189726265Y-137812602D01*
X189631046Y-138220621D01*
X189617257Y-138639376D01*
X184938743Y-138639376D01*
X184938743Y-137000000D01*
X184933894Y-136950766D01*
X190516135Y-136950766D01*
X191750000Y-138184630D01*
X192983865Y-136950766D01*
X192819001Y-136649255D01*
X192437398Y-136476265D01*
X192029379Y-136381046D01*
X191610624Y-136367257D01*
X191197224Y-136435429D01*
X190805068Y-136582940D01*
X190680999Y-136649255D01*
X190516135Y-136950766D01*
X184933894Y-136950766D01*
X184891883Y-136524225D01*
X184753105Y-136066733D01*
X184527741Y-135645107D01*
X184224452Y-135275548D01*
X183854893Y-134972259D01*
X183433267Y-134746895D01*
X182975775Y-134608117D01*
X182500000Y-134561257D01*
X179500000Y-134561257D01*
X179024225Y-134608117D01*
X178566733Y-134746895D01*
X178145107Y-134972259D01*
X177775548Y-135275548D01*
X177472259Y-135645107D01*
X177246895Y-136066733D01*
X177108117Y-136524225D01*
X177061257Y-137000000D01*
X177061257Y-140000000D01*
X177108117Y-140475775D01*
X177246895Y-140933267D01*
X177472259Y-141354893D01*
X177510297Y-141401242D01*
X110024364Y-141401242D01*
X109098758Y-140475636D01*
X109098758Y-137118976D01*
X110696394Y-137118976D01*
X110788095Y-137359243D01*
X111066949Y-137472012D01*
X111362445Y-137528212D01*
X111663227Y-137525683D01*
X111957736Y-137464524D01*
X112211905Y-137359243D01*
X112303606Y-137118976D01*
X111500000Y-136315370D01*
X110696394Y-137118976D01*
X109098758Y-137118976D01*
X109098758Y-135862445D01*
X109971788Y-135862445D01*
X109974317Y-136163227D01*
X110035476Y-136457736D01*
X110140757Y-136711905D01*
X110381024Y-136803606D01*
X111184630Y-136000000D01*
X111815370Y-136000000D01*
X112618976Y-136803606D01*
X112859243Y-136711905D01*
X112972012Y-136433051D01*
X113028212Y-136137555D01*
X113025683Y-135836773D01*
X112991532Y-135672319D01*
X129173000Y-135672319D01*
X129173000Y-136327681D01*
X129300855Y-136970450D01*
X129551651Y-137575925D01*
X129915750Y-138120839D01*
X130379161Y-138584250D01*
X130924075Y-138948349D01*
X131529550Y-139199145D01*
X132172319Y-139327000D01*
X132827681Y-139327000D01*
X133470450Y-139199145D01*
X134075925Y-138948349D01*
X134620839Y-138584250D01*
X135084250Y-138120839D01*
X135448349Y-137575925D01*
X135637623Y-137118976D01*
X156696394Y-137118976D01*
X156788095Y-137359243D01*
X157066949Y-137472012D01*
X157362445Y-137528212D01*
X157663227Y-137525683D01*
X157957736Y-137464524D01*
X158211905Y-137359243D01*
X158303606Y-137118976D01*
X157500000Y-136315370D01*
X156696394Y-137118976D01*
X135637623Y-137118976D01*
X135699145Y-136970450D01*
X135827000Y-136327681D01*
X135827000Y-135862445D01*
X155971788Y-135862445D01*
X155974317Y-136163227D01*
X156035476Y-136457736D01*
X156140757Y-136711905D01*
X156381024Y-136803606D01*
X157184630Y-136000000D01*
X157815370Y-136000000D01*
X158618976Y-136803606D01*
X158859243Y-136711905D01*
X158972012Y-136433051D01*
X159028212Y-136137555D01*
X159025683Y-135836773D01*
X158964524Y-135542264D01*
X158859243Y-135288095D01*
X158618976Y-135196394D01*
X157815370Y-136000000D01*
X157184630Y-136000000D01*
X156381024Y-135196394D01*
X156140757Y-135288095D01*
X156027988Y-135566949D01*
X155971788Y-135862445D01*
X135827000Y-135862445D01*
X135827000Y-135672319D01*
X135699145Y-135029550D01*
X135637624Y-134881024D01*
X156696394Y-134881024D01*
X157500000Y-135684630D01*
X158303606Y-134881024D01*
X158211905Y-134640757D01*
X157933051Y-134527988D01*
X157637555Y-134471788D01*
X157336773Y-134474317D01*
X157042264Y-134535476D01*
X156788095Y-134640757D01*
X156696394Y-134881024D01*
X135637624Y-134881024D01*
X135448349Y-134424075D01*
X135084250Y-133879161D01*
X134620839Y-133415750D01*
X134075925Y-133051651D01*
X133470450Y-132800855D01*
X132827681Y-132673000D01*
X132172319Y-132673000D01*
X131529550Y-132800855D01*
X130924075Y-133051651D01*
X130379161Y-133415750D01*
X129915750Y-133879161D01*
X129551651Y-134424075D01*
X129300855Y-135029550D01*
X129173000Y-135672319D01*
X112991532Y-135672319D01*
X112964524Y-135542264D01*
X112859243Y-135288095D01*
X112618976Y-135196394D01*
X111815370Y-136000000D01*
X111184630Y-136000000D01*
X110381024Y-135196394D01*
X110140757Y-135288095D01*
X110027988Y-135566949D01*
X109971788Y-135862445D01*
X109098758Y-135862445D01*
X109098758Y-134881024D01*
X110696394Y-134881024D01*
X111500000Y-135684630D01*
X112303606Y-134881024D01*
X112211905Y-134640757D01*
X111933051Y-134527988D01*
X111637555Y-134471788D01*
X111336773Y-134474317D01*
X111042264Y-134535476D01*
X110788095Y-134640757D01*
X110696394Y-134881024D01*
X109098758Y-134881024D01*
X109098758Y-131906115D01*
X198909255Y-131906115D01*
X199049842Y-132187172D01*
X199397249Y-132340120D01*
X199767821Y-132422353D01*
X200147314Y-132430711D01*
X200521147Y-132364873D01*
X200874952Y-132227369D01*
X200950158Y-132187172D01*
X201090745Y-131906115D01*
X200000000Y-130815370D01*
X198909255Y-131906115D01*
X109098758Y-131906115D01*
X109098758Y-131580848D01*
X110032292Y-130647314D01*
X198069289Y-130647314D01*
X198135127Y-131021147D01*
X198272631Y-131374952D01*
X198312828Y-131450158D01*
X198593885Y-131590745D01*
X199684630Y-130500000D01*
X200315370Y-130500000D01*
X201406115Y-131590745D01*
X201687172Y-131450158D01*
X201840120Y-131102751D01*
X201922353Y-130732179D01*
X201930711Y-130352686D01*
X201864873Y-129978853D01*
X201727369Y-129625048D01*
X201687172Y-129549842D01*
X201406115Y-129409255D01*
X200315370Y-130500000D01*
X199684630Y-130500000D01*
X198593885Y-129409255D01*
X198312828Y-129549842D01*
X198159880Y-129897249D01*
X198077647Y-130267821D01*
X198069289Y-130647314D01*
X110032292Y-130647314D01*
X111024364Y-129655242D01*
X176471758Y-129655242D01*
X176496534Y-129652802D01*
X176520359Y-129645575D01*
X176542315Y-129633839D01*
X176561561Y-129618045D01*
X177085721Y-129093885D01*
X198909255Y-129093885D01*
X200000000Y-130184630D01*
X201090745Y-129093885D01*
X200950158Y-128812828D01*
X200602751Y-128659880D01*
X200232179Y-128577647D01*
X199852686Y-128569289D01*
X199478853Y-128635127D01*
X199125048Y-128772631D01*
X199049842Y-128812828D01*
X198909255Y-129093885D01*
X177085721Y-129093885D01*
X179524364Y-126655242D01*
X201971758Y-126655242D01*
X201996534Y-126652802D01*
X202020359Y-126645575D01*
X202042315Y-126633839D01*
X202061561Y-126618045D01*
X206061561Y-122618045D01*
X206077355Y-122598799D01*
X206089091Y-122576843D01*
X206096318Y-122553018D01*
X206098758Y-122528242D01*
X206098758Y-118580848D01*
X210880997Y-113798609D01*
X216216760Y-113798609D01*
X216339080Y-114064346D01*
X216660811Y-114202244D01*
X217003262Y-114274727D01*
X217353275Y-114279008D01*
X217697397Y-114214923D01*
X218022404Y-114084934D01*
X218060920Y-114064346D01*
X218183240Y-113798609D01*
X217200000Y-112815370D01*
X216216760Y-113798609D01*
X210880997Y-113798609D01*
X212026331Y-112653275D01*
X215420992Y-112653275D01*
X215485077Y-112997397D01*
X215615066Y-113322404D01*
X215635654Y-113360920D01*
X215901391Y-113483240D01*
X216884630Y-112500000D01*
X217515370Y-112500000D01*
X218498609Y-113483240D01*
X218764346Y-113360920D01*
X218902244Y-113039189D01*
X218974727Y-112696738D01*
X218979008Y-112346725D01*
X218914923Y-112002603D01*
X218784934Y-111677596D01*
X218764346Y-111639080D01*
X218498609Y-111516760D01*
X217515370Y-112500000D01*
X216884630Y-112500000D01*
X215901391Y-111516760D01*
X215635654Y-111639080D01*
X215497756Y-111960811D01*
X215425273Y-112303262D01*
X215420992Y-112653275D01*
X212026331Y-112653275D01*
X213478215Y-111201391D01*
X216216760Y-111201391D01*
X217200000Y-112184630D01*
X218183240Y-111201391D01*
X218060920Y-110935654D01*
X217739189Y-110797756D01*
X217396738Y-110725273D01*
X217046725Y-110720992D01*
X216702603Y-110785077D01*
X216377596Y-110915066D01*
X216339080Y-110935654D01*
X216216760Y-111201391D01*
X213478215Y-111201391D01*
X215024364Y-109655242D01*
X218919152Y-109655242D01*
X219844758Y-110580848D01*
X219844758Y-110580848D01*
G37*
X219844758Y-110580848D02*
X219844758Y-117475636D01*
X203919152Y-133401242D01*
X196971758Y-133401242D01*
X196946982Y-133403682D01*
X196923157Y-133410909D01*
X196901201Y-133422645D01*
X196881955Y-133438439D01*
X194881955Y-135438439D01*
X194866161Y-135457685D01*
X194854425Y-135479641D01*
X194847198Y-135503466D01*
X194844758Y-135528242D01*
X194844758Y-140475636D01*
X193919152Y-141401242D01*
X184489703Y-141401242D01*
X184527741Y-141354893D01*
X184753105Y-140933267D01*
X184891883Y-140475775D01*
X184933893Y-140049234D01*
X190516135Y-140049234D01*
X190680999Y-140350745D01*
X191062602Y-140523735D01*
X191470621Y-140618954D01*
X191889376Y-140632743D01*
X192302776Y-140564571D01*
X192694932Y-140417060D01*
X192819001Y-140350745D01*
X192983865Y-140049234D01*
X191750000Y-138815370D01*
X190516135Y-140049234D01*
X184933893Y-140049234D01*
X184938743Y-140000000D01*
X184938743Y-138639376D01*
X189617257Y-138639376D01*
X189685429Y-139052776D01*
X189832940Y-139444932D01*
X189899255Y-139569001D01*
X190200766Y-139733865D01*
X191434630Y-138500000D01*
X192065370Y-138500000D01*
X193299234Y-139733865D01*
X193600745Y-139569001D01*
X193773735Y-139187398D01*
X193868954Y-138779379D01*
X193882743Y-138360624D01*
X193814571Y-137947224D01*
X193667060Y-137555068D01*
X193600745Y-137430999D01*
X193299234Y-137266135D01*
X192065370Y-138500000D01*
X191434630Y-138500000D01*
X190200766Y-137266135D01*
X189899255Y-137430999D01*
X189726265Y-137812602D01*
X189631046Y-138220621D01*
X189617257Y-138639376D01*
X184938743Y-138639376D01*
X184938743Y-137000000D01*
X184933894Y-136950766D01*
X190516135Y-136950766D01*
X191750000Y-138184630D01*
X192983865Y-136950766D01*
X192819001Y-136649255D01*
X192437398Y-136476265D01*
X192029379Y-136381046D01*
X191610624Y-136367257D01*
X191197224Y-136435429D01*
X190805068Y-136582940D01*
X190680999Y-136649255D01*
X190516135Y-136950766D01*
X184933894Y-136950766D01*
X184891883Y-136524225D01*
X184753105Y-136066733D01*
X184527741Y-135645107D01*
X184224452Y-135275548D01*
X183854893Y-134972259D01*
X183433267Y-134746895D01*
X182975775Y-134608117D01*
X182500000Y-134561257D01*
X179500000Y-134561257D01*
X179024225Y-134608117D01*
X178566733Y-134746895D01*
X178145107Y-134972259D01*
X177775548Y-135275548D01*
X177472259Y-135645107D01*
X177246895Y-136066733D01*
X177108117Y-136524225D01*
X177061257Y-137000000D01*
X177061257Y-140000000D01*
X177108117Y-140475775D01*
X177246895Y-140933267D01*
X177472259Y-141354893D01*
X177510297Y-141401242D01*
X110024364Y-141401242D01*
X109098758Y-140475636D01*
X109098758Y-137118976D01*
X110696394Y-137118976D01*
X110788095Y-137359243D01*
X111066949Y-137472012D01*
X111362445Y-137528212D01*
X111663227Y-137525683D01*
X111957736Y-137464524D01*
X112211905Y-137359243D01*
X112303606Y-137118976D01*
X111500000Y-136315370D01*
X110696394Y-137118976D01*
X109098758Y-137118976D01*
X109098758Y-135862445D01*
X109971788Y-135862445D01*
X109974317Y-136163227D01*
X110035476Y-136457736D01*
X110140757Y-136711905D01*
X110381024Y-136803606D01*
X111184630Y-136000000D01*
X111815370Y-136000000D01*
X112618976Y-136803606D01*
X112859243Y-136711905D01*
X112972012Y-136433051D01*
X113028212Y-136137555D01*
X113025683Y-135836773D01*
X112991532Y-135672319D01*
X129173000Y-135672319D01*
X129173000Y-136327681D01*
X129300855Y-136970450D01*
X129551651Y-137575925D01*
X129915750Y-138120839D01*
X130379161Y-138584250D01*
X130924075Y-138948349D01*
X131529550Y-139199145D01*
X132172319Y-139327000D01*
X132827681Y-139327000D01*
X133470450Y-139199145D01*
X134075925Y-138948349D01*
X134620839Y-138584250D01*
X135084250Y-138120839D01*
X135448349Y-137575925D01*
X135637623Y-137118976D01*
X156696394Y-137118976D01*
X156788095Y-137359243D01*
X157066949Y-137472012D01*
X157362445Y-137528212D01*
X157663227Y-137525683D01*
X157957736Y-137464524D01*
X158211905Y-137359243D01*
X158303606Y-137118976D01*
X157500000Y-136315370D01*
X156696394Y-137118976D01*
X135637623Y-137118976D01*
X135699145Y-136970450D01*
X135827000Y-136327681D01*
X135827000Y-135862445D01*
X155971788Y-135862445D01*
X155974317Y-136163227D01*
X156035476Y-136457736D01*
X156140757Y-136711905D01*
X156381024Y-136803606D01*
X157184630Y-136000000D01*
X157815370Y-136000000D01*
X158618976Y-136803606D01*
X158859243Y-136711905D01*
X158972012Y-136433051D01*
X159028212Y-136137555D01*
X159025683Y-135836773D01*
X158964524Y-135542264D01*
X158859243Y-135288095D01*
X158618976Y-135196394D01*
X157815370Y-136000000D01*
X157184630Y-136000000D01*
X156381024Y-135196394D01*
X156140757Y-135288095D01*
X156027988Y-135566949D01*
X155971788Y-135862445D01*
X135827000Y-135862445D01*
X135827000Y-135672319D01*
X135699145Y-135029550D01*
X135637624Y-134881024D01*
X156696394Y-134881024D01*
X157500000Y-135684630D01*
X158303606Y-134881024D01*
X158211905Y-134640757D01*
X157933051Y-134527988D01*
X157637555Y-134471788D01*
X157336773Y-134474317D01*
X157042264Y-134535476D01*
X156788095Y-134640757D01*
X156696394Y-134881024D01*
X135637624Y-134881024D01*
X135448349Y-134424075D01*
X135084250Y-133879161D01*
X134620839Y-133415750D01*
X134075925Y-133051651D01*
X133470450Y-132800855D01*
X132827681Y-132673000D01*
X132172319Y-132673000D01*
X131529550Y-132800855D01*
X130924075Y-133051651D01*
X130379161Y-133415750D01*
X129915750Y-133879161D01*
X129551651Y-134424075D01*
X129300855Y-135029550D01*
X129173000Y-135672319D01*
X112991532Y-135672319D01*
X112964524Y-135542264D01*
X112859243Y-135288095D01*
X112618976Y-135196394D01*
X111815370Y-136000000D01*
X111184630Y-136000000D01*
X110381024Y-135196394D01*
X110140757Y-135288095D01*
X110027988Y-135566949D01*
X109971788Y-135862445D01*
X109098758Y-135862445D01*
X109098758Y-134881024D01*
X110696394Y-134881024D01*
X111500000Y-135684630D01*
X112303606Y-134881024D01*
X112211905Y-134640757D01*
X111933051Y-134527988D01*
X111637555Y-134471788D01*
X111336773Y-134474317D01*
X111042264Y-134535476D01*
X110788095Y-134640757D01*
X110696394Y-134881024D01*
X109098758Y-134881024D01*
X109098758Y-131906115D01*
X198909255Y-131906115D01*
X199049842Y-132187172D01*
X199397249Y-132340120D01*
X199767821Y-132422353D01*
X200147314Y-132430711D01*
X200521147Y-132364873D01*
X200874952Y-132227369D01*
X200950158Y-132187172D01*
X201090745Y-131906115D01*
X200000000Y-130815370D01*
X198909255Y-131906115D01*
X109098758Y-131906115D01*
X109098758Y-131580848D01*
X110032292Y-130647314D01*
X198069289Y-130647314D01*
X198135127Y-131021147D01*
X198272631Y-131374952D01*
X198312828Y-131450158D01*
X198593885Y-131590745D01*
X199684630Y-130500000D01*
X200315370Y-130500000D01*
X201406115Y-131590745D01*
X201687172Y-131450158D01*
X201840120Y-131102751D01*
X201922353Y-130732179D01*
X201930711Y-130352686D01*
X201864873Y-129978853D01*
X201727369Y-129625048D01*
X201687172Y-129549842D01*
X201406115Y-129409255D01*
X200315370Y-130500000D01*
X199684630Y-130500000D01*
X198593885Y-129409255D01*
X198312828Y-129549842D01*
X198159880Y-129897249D01*
X198077647Y-130267821D01*
X198069289Y-130647314D01*
X110032292Y-130647314D01*
X111024364Y-129655242D01*
X176471758Y-129655242D01*
X176496534Y-129652802D01*
X176520359Y-129645575D01*
X176542315Y-129633839D01*
X176561561Y-129618045D01*
X177085721Y-129093885D01*
X198909255Y-129093885D01*
X200000000Y-130184630D01*
X201090745Y-129093885D01*
X200950158Y-128812828D01*
X200602751Y-128659880D01*
X200232179Y-128577647D01*
X199852686Y-128569289D01*
X199478853Y-128635127D01*
X199125048Y-128772631D01*
X199049842Y-128812828D01*
X198909255Y-129093885D01*
X177085721Y-129093885D01*
X179524364Y-126655242D01*
X201971758Y-126655242D01*
X201996534Y-126652802D01*
X202020359Y-126645575D01*
X202042315Y-126633839D01*
X202061561Y-126618045D01*
X206061561Y-122618045D01*
X206077355Y-122598799D01*
X206089091Y-122576843D01*
X206096318Y-122553018D01*
X206098758Y-122528242D01*
X206098758Y-118580848D01*
X210880997Y-113798609D01*
X216216760Y-113798609D01*
X216339080Y-114064346D01*
X216660811Y-114202244D01*
X217003262Y-114274727D01*
X217353275Y-114279008D01*
X217697397Y-114214923D01*
X218022404Y-114084934D01*
X218060920Y-114064346D01*
X218183240Y-113798609D01*
X217200000Y-112815370D01*
X216216760Y-113798609D01*
X210880997Y-113798609D01*
X212026331Y-112653275D01*
X215420992Y-112653275D01*
X215485077Y-112997397D01*
X215615066Y-113322404D01*
X215635654Y-113360920D01*
X215901391Y-113483240D01*
X216884630Y-112500000D01*
X217515370Y-112500000D01*
X218498609Y-113483240D01*
X218764346Y-113360920D01*
X218902244Y-113039189D01*
X218974727Y-112696738D01*
X218979008Y-112346725D01*
X218914923Y-112002603D01*
X218784934Y-111677596D01*
X218764346Y-111639080D01*
X218498609Y-111516760D01*
X217515370Y-112500000D01*
X216884630Y-112500000D01*
X215901391Y-111516760D01*
X215635654Y-111639080D01*
X215497756Y-111960811D01*
X215425273Y-112303262D01*
X215420992Y-112653275D01*
X212026331Y-112653275D01*
X213478215Y-111201391D01*
X216216760Y-111201391D01*
X217200000Y-112184630D01*
X218183240Y-111201391D01*
X218060920Y-110935654D01*
X217739189Y-110797756D01*
X217396738Y-110725273D01*
X217046725Y-110720992D01*
X216702603Y-110785077D01*
X216377596Y-110915066D01*
X216339080Y-110935654D01*
X216216760Y-111201391D01*
X213478215Y-111201391D01*
X215024364Y-109655242D01*
X218919152Y-109655242D01*
X219844758Y-110580848D01*
G36*
X114373000Y-97947394D02*
G01*
X107410197Y-104910197D01*
X107394403Y-104929443D01*
X107382667Y-104951399D01*
X107375440Y-104975224D01*
X107373000Y-105000000D01*
X107373000Y-109811628D01*
X107303605Y-109881023D01*
X107211905Y-109640757D01*
X106933051Y-109527988D01*
X106637555Y-109471788D01*
X106336773Y-109474317D01*
X106042264Y-109535476D01*
X105788095Y-109640757D01*
X105696394Y-109881024D01*
X106500000Y-110684630D01*
X106514142Y-110670488D01*
X106829512Y-110985858D01*
X106815370Y-111000000D01*
X106829512Y-111014142D01*
X106514142Y-111329512D01*
X106500000Y-111315370D01*
X105696394Y-112118976D01*
X105788095Y-112359243D01*
X106066949Y-112472012D01*
X106362445Y-112528212D01*
X106663227Y-112525683D01*
X106957736Y-112464524D01*
X107211905Y-112359243D01*
X107303605Y-112118977D01*
X107373000Y-112188372D01*
X107373000Y-112873000D01*
X90627000Y-112873000D01*
X90627000Y-112188372D01*
X90696395Y-112118977D01*
X90788095Y-112359243D01*
X91066949Y-112472012D01*
X91362445Y-112528212D01*
X91663227Y-112525683D01*
X91957736Y-112464524D01*
X92211905Y-112359243D01*
X92303606Y-112118976D01*
X91500000Y-111315370D01*
X91485858Y-111329512D01*
X91170488Y-111014142D01*
X91184630Y-111000000D01*
X91815370Y-111000000D01*
X92618976Y-111803606D01*
X92859243Y-111711905D01*
X92972012Y-111433051D01*
X93028212Y-111137555D01*
X93025899Y-110862445D01*
X104971788Y-110862445D01*
X104974317Y-111163227D01*
X105035476Y-111457736D01*
X105140757Y-111711905D01*
X105381024Y-111803606D01*
X106184630Y-111000000D01*
X105381024Y-110196394D01*
X105140757Y-110288095D01*
X105027988Y-110566949D01*
X104971788Y-110862445D01*
X93025899Y-110862445D01*
X93025683Y-110836773D01*
X92964524Y-110542264D01*
X92859243Y-110288095D01*
X92618976Y-110196394D01*
X91815370Y-111000000D01*
X91184630Y-111000000D01*
X91170488Y-110985858D01*
X91485858Y-110670488D01*
X91500000Y-110684630D01*
X92303606Y-109881024D01*
X92211905Y-109640757D01*
X91933051Y-109527988D01*
X91637555Y-109471788D01*
X91336773Y-109474317D01*
X91042264Y-109535476D01*
X90788095Y-109640757D01*
X90696395Y-109881023D01*
X90627000Y-109811628D01*
X90627000Y-101127000D01*
X99000000Y-101127000D01*
X99024776Y-101124560D01*
X99048601Y-101117333D01*
X99070557Y-101105597D01*
X99089803Y-101089803D01*
X101589803Y-98589803D01*
X101605597Y-98570557D01*
X101617333Y-98548601D01*
X101624560Y-98524776D01*
X101627000Y-98500000D01*
X101627000Y-97700000D01*
X101669966Y-97700000D01*
X101682072Y-97822914D01*
X101717924Y-97941104D01*
X101776146Y-98050028D01*
X101854499Y-98145501D01*
X101949972Y-98223854D01*
X102058896Y-98282076D01*
X102177086Y-98317928D01*
X102300000Y-98330034D01*
X103120250Y-98327000D01*
X103277000Y-98170250D01*
X103277000Y-96723000D01*
X103723000Y-96723000D01*
X103723000Y-98170250D01*
X103879750Y-98327000D01*
X104700000Y-98330034D01*
X104822914Y-98317928D01*
X104941104Y-98282076D01*
X105050028Y-98223854D01*
X105145501Y-98145501D01*
X105223854Y-98050028D01*
X105282076Y-97941104D01*
X105314424Y-97834463D01*
X111480906Y-97834463D01*
X111609322Y-98105304D01*
X111939615Y-98248221D01*
X112291444Y-98323956D01*
X112651287Y-98329596D01*
X113005316Y-98264927D01*
X113339926Y-98132432D01*
X113390678Y-98105304D01*
X113519094Y-97834463D01*
X112500000Y-96815370D01*
X111480906Y-97834463D01*
X105314424Y-97834463D01*
X105317928Y-97822914D01*
X105330034Y-97700000D01*
X105327000Y-96879750D01*
X105170250Y-96723000D01*
X103723000Y-96723000D01*
X103277000Y-96723000D01*
X101829750Y-96723000D01*
X101673000Y-96879750D01*
X101669966Y-97700000D01*
X101627000Y-97700000D01*
X101627000Y-96651287D01*
X110670404Y-96651287D01*
X110735073Y-97005316D01*
X110867568Y-97339926D01*
X110894696Y-97390678D01*
X111165537Y-97519094D01*
X112184630Y-96500000D01*
X112815370Y-96500000D01*
X113834463Y-97519094D01*
X114105304Y-97390678D01*
X114248221Y-97060385D01*
X114323956Y-96708556D01*
X114329596Y-96348713D01*
X114264927Y-95994684D01*
X114132432Y-95660074D01*
X114105304Y-95609322D01*
X113834463Y-95480906D01*
X112815370Y-96500000D01*
X112184630Y-96500000D01*
X111165537Y-95480906D01*
X110894696Y-95609322D01*
X110751779Y-95939615D01*
X110676044Y-96291444D01*
X110670404Y-96651287D01*
X101627000Y-96651287D01*
X101627000Y-95300000D01*
X101669966Y-95300000D01*
X101673000Y-96120250D01*
X101829750Y-96277000D01*
X103277000Y-96277000D01*
X103277000Y-94829750D01*
X103723000Y-94829750D01*
X103723000Y-96277000D01*
X105170250Y-96277000D01*
X105327000Y-96120250D01*
X105330034Y-95300000D01*
X105317928Y-95177086D01*
X105314425Y-95165537D01*
X111480906Y-95165537D01*
X112500000Y-96184630D01*
X113519094Y-95165537D01*
X113390678Y-94894696D01*
X113060385Y-94751779D01*
X112708556Y-94676044D01*
X112348713Y-94670404D01*
X111994684Y-94735073D01*
X111660074Y-94867568D01*
X111609322Y-94894696D01*
X111480906Y-95165537D01*
X105314425Y-95165537D01*
X105282076Y-95058896D01*
X105223854Y-94949972D01*
X105145501Y-94854499D01*
X105050028Y-94776146D01*
X104941104Y-94717924D01*
X104822914Y-94682072D01*
X104700000Y-94669966D01*
X103879750Y-94673000D01*
X103723000Y-94829750D01*
X103277000Y-94829750D01*
X103120250Y-94673000D01*
X102300000Y-94669966D01*
X102177086Y-94682072D01*
X102058896Y-94717924D01*
X101949972Y-94776146D01*
X101854499Y-94854499D01*
X101776146Y-94949972D01*
X101717924Y-95058896D01*
X101682072Y-95177086D01*
X101669966Y-95300000D01*
X101627000Y-95300000D01*
X101627000Y-83700000D01*
X101669966Y-83700000D01*
X101682072Y-83822914D01*
X101717924Y-83941104D01*
X101776146Y-84050028D01*
X101854499Y-84145501D01*
X101949972Y-84223854D01*
X102058896Y-84282076D01*
X102177086Y-84317928D01*
X102300000Y-84330034D01*
X103120250Y-84327000D01*
X103277000Y-84170250D01*
X103277000Y-82723000D01*
X103723000Y-82723000D01*
X103723000Y-84170250D01*
X103879750Y-84327000D01*
X104700000Y-84330034D01*
X104822914Y-84317928D01*
X104941104Y-84282076D01*
X105050028Y-84223854D01*
X105145501Y-84145501D01*
X105223854Y-84050028D01*
X105282076Y-83941104D01*
X105314424Y-83834463D01*
X111480906Y-83834463D01*
X111609322Y-84105304D01*
X111939615Y-84248221D01*
X112291444Y-84323956D01*
X112651287Y-84329596D01*
X113005316Y-84264927D01*
X113339926Y-84132432D01*
X113390678Y-84105304D01*
X113519094Y-83834463D01*
X112500000Y-82815370D01*
X111480906Y-83834463D01*
X105314424Y-83834463D01*
X105317928Y-83822914D01*
X105330034Y-83700000D01*
X105327000Y-82879750D01*
X105170250Y-82723000D01*
X103723000Y-82723000D01*
X103277000Y-82723000D01*
X101829750Y-82723000D01*
X101673000Y-82879750D01*
X101669966Y-83700000D01*
X101627000Y-83700000D01*
X101627000Y-82651287D01*
X110670404Y-82651287D01*
X110735073Y-83005316D01*
X110867568Y-83339926D01*
X110894696Y-83390678D01*
X111165537Y-83519094D01*
X112184630Y-82500000D01*
X112815370Y-82500000D01*
X113834463Y-83519094D01*
X114105304Y-83390678D01*
X114248221Y-83060385D01*
X114323956Y-82708556D01*
X114329596Y-82348713D01*
X114264927Y-81994684D01*
X114132432Y-81660074D01*
X114105304Y-81609322D01*
X113834463Y-81480906D01*
X112815370Y-82500000D01*
X112184630Y-82500000D01*
X111165537Y-81480906D01*
X110894696Y-81609322D01*
X110751779Y-81939615D01*
X110676044Y-82291444D01*
X110670404Y-82651287D01*
X101627000Y-82651287D01*
X101627000Y-81300000D01*
X101669966Y-81300000D01*
X101673000Y-82120250D01*
X101829750Y-82277000D01*
X103277000Y-82277000D01*
X103277000Y-80829750D01*
X103723000Y-80829750D01*
X103723000Y-82277000D01*
X105170250Y-82277000D01*
X105327000Y-82120250D01*
X105330034Y-81300000D01*
X105317928Y-81177086D01*
X105314425Y-81165537D01*
X111480906Y-81165537D01*
X112500000Y-82184630D01*
X113519094Y-81165537D01*
X113390678Y-80894696D01*
X113060385Y-80751779D01*
X112708556Y-80676044D01*
X112348713Y-80670404D01*
X111994684Y-80735073D01*
X111660074Y-80867568D01*
X111609322Y-80894696D01*
X111480906Y-81165537D01*
X105314425Y-81165537D01*
X105282076Y-81058896D01*
X105223854Y-80949972D01*
X105145501Y-80854499D01*
X105050028Y-80776146D01*
X104941104Y-80717924D01*
X104822914Y-80682072D01*
X104700000Y-80669966D01*
X103879750Y-80673000D01*
X103723000Y-80829750D01*
X103277000Y-80829750D01*
X103120250Y-80673000D01*
X102300000Y-80669966D01*
X102177086Y-80682072D01*
X102058896Y-80717924D01*
X101949972Y-80776146D01*
X101854499Y-80854499D01*
X101776146Y-80949972D01*
X101717924Y-81058896D01*
X101682072Y-81177086D01*
X101669966Y-81300000D01*
X101627000Y-81300000D01*
X101627000Y-80127000D01*
X114373000Y-80127000D01*
X114373000Y-97947394D01*
X114373000Y-97947394D01*
G37*
X114373000Y-97947394D02*
X107410197Y-104910197D01*
X107394403Y-104929443D01*
X107382667Y-104951399D01*
X107375440Y-104975224D01*
X107373000Y-105000000D01*
X107373000Y-109811628D01*
X107303605Y-109881023D01*
X107211905Y-109640757D01*
X106933051Y-109527988D01*
X106637555Y-109471788D01*
X106336773Y-109474317D01*
X106042264Y-109535476D01*
X105788095Y-109640757D01*
X105696394Y-109881024D01*
X106500000Y-110684630D01*
X106514142Y-110670488D01*
X106829512Y-110985858D01*
X106815370Y-111000000D01*
X106829512Y-111014142D01*
X106514142Y-111329512D01*
X106500000Y-111315370D01*
X105696394Y-112118976D01*
X105788095Y-112359243D01*
X106066949Y-112472012D01*
X106362445Y-112528212D01*
X106663227Y-112525683D01*
X106957736Y-112464524D01*
X107211905Y-112359243D01*
X107303605Y-112118977D01*
X107373000Y-112188372D01*
X107373000Y-112873000D01*
X90627000Y-112873000D01*
X90627000Y-112188372D01*
X90696395Y-112118977D01*
X90788095Y-112359243D01*
X91066949Y-112472012D01*
X91362445Y-112528212D01*
X91663227Y-112525683D01*
X91957736Y-112464524D01*
X92211905Y-112359243D01*
X92303606Y-112118976D01*
X91500000Y-111315370D01*
X91485858Y-111329512D01*
X91170488Y-111014142D01*
X91184630Y-111000000D01*
X91815370Y-111000000D01*
X92618976Y-111803606D01*
X92859243Y-111711905D01*
X92972012Y-111433051D01*
X93028212Y-111137555D01*
X93025899Y-110862445D01*
X104971788Y-110862445D01*
X104974317Y-111163227D01*
X105035476Y-111457736D01*
X105140757Y-111711905D01*
X105381024Y-111803606D01*
X106184630Y-111000000D01*
X105381024Y-110196394D01*
X105140757Y-110288095D01*
X105027988Y-110566949D01*
X104971788Y-110862445D01*
X93025899Y-110862445D01*
X93025683Y-110836773D01*
X92964524Y-110542264D01*
X92859243Y-110288095D01*
X92618976Y-110196394D01*
X91815370Y-111000000D01*
X91184630Y-111000000D01*
X91170488Y-110985858D01*
X91485858Y-110670488D01*
X91500000Y-110684630D01*
X92303606Y-109881024D01*
X92211905Y-109640757D01*
X91933051Y-109527988D01*
X91637555Y-109471788D01*
X91336773Y-109474317D01*
X91042264Y-109535476D01*
X90788095Y-109640757D01*
X90696395Y-109881023D01*
X90627000Y-109811628D01*
X90627000Y-101127000D01*
X99000000Y-101127000D01*
X99024776Y-101124560D01*
X99048601Y-101117333D01*
X99070557Y-101105597D01*
X99089803Y-101089803D01*
X101589803Y-98589803D01*
X101605597Y-98570557D01*
X101617333Y-98548601D01*
X101624560Y-98524776D01*
X101627000Y-98500000D01*
X101627000Y-97700000D01*
X101669966Y-97700000D01*
X101682072Y-97822914D01*
X101717924Y-97941104D01*
X101776146Y-98050028D01*
X101854499Y-98145501D01*
X101949972Y-98223854D01*
X102058896Y-98282076D01*
X102177086Y-98317928D01*
X102300000Y-98330034D01*
X103120250Y-98327000D01*
X103277000Y-98170250D01*
X103277000Y-96723000D01*
X103723000Y-96723000D01*
X103723000Y-98170250D01*
X103879750Y-98327000D01*
X104700000Y-98330034D01*
X104822914Y-98317928D01*
X104941104Y-98282076D01*
X105050028Y-98223854D01*
X105145501Y-98145501D01*
X105223854Y-98050028D01*
X105282076Y-97941104D01*
X105314424Y-97834463D01*
X111480906Y-97834463D01*
X111609322Y-98105304D01*
X111939615Y-98248221D01*
X112291444Y-98323956D01*
X112651287Y-98329596D01*
X113005316Y-98264927D01*
X113339926Y-98132432D01*
X113390678Y-98105304D01*
X113519094Y-97834463D01*
X112500000Y-96815370D01*
X111480906Y-97834463D01*
X105314424Y-97834463D01*
X105317928Y-97822914D01*
X105330034Y-97700000D01*
X105327000Y-96879750D01*
X105170250Y-96723000D01*
X103723000Y-96723000D01*
X103277000Y-96723000D01*
X101829750Y-96723000D01*
X101673000Y-96879750D01*
X101669966Y-97700000D01*
X101627000Y-97700000D01*
X101627000Y-96651287D01*
X110670404Y-96651287D01*
X110735073Y-97005316D01*
X110867568Y-97339926D01*
X110894696Y-97390678D01*
X111165537Y-97519094D01*
X112184630Y-96500000D01*
X112815370Y-96500000D01*
X113834463Y-97519094D01*
X114105304Y-97390678D01*
X114248221Y-97060385D01*
X114323956Y-96708556D01*
X114329596Y-96348713D01*
X114264927Y-95994684D01*
X114132432Y-95660074D01*
X114105304Y-95609322D01*
X113834463Y-95480906D01*
X112815370Y-96500000D01*
X112184630Y-96500000D01*
X111165537Y-95480906D01*
X110894696Y-95609322D01*
X110751779Y-95939615D01*
X110676044Y-96291444D01*
X110670404Y-96651287D01*
X101627000Y-96651287D01*
X101627000Y-95300000D01*
X101669966Y-95300000D01*
X101673000Y-96120250D01*
X101829750Y-96277000D01*
X103277000Y-96277000D01*
X103277000Y-94829750D01*
X103723000Y-94829750D01*
X103723000Y-96277000D01*
X105170250Y-96277000D01*
X105327000Y-96120250D01*
X105330034Y-95300000D01*
X105317928Y-95177086D01*
X105314425Y-95165537D01*
X111480906Y-95165537D01*
X112500000Y-96184630D01*
X113519094Y-95165537D01*
X113390678Y-94894696D01*
X113060385Y-94751779D01*
X112708556Y-94676044D01*
X112348713Y-94670404D01*
X111994684Y-94735073D01*
X111660074Y-94867568D01*
X111609322Y-94894696D01*
X111480906Y-95165537D01*
X105314425Y-95165537D01*
X105282076Y-95058896D01*
X105223854Y-94949972D01*
X105145501Y-94854499D01*
X105050028Y-94776146D01*
X104941104Y-94717924D01*
X104822914Y-94682072D01*
X104700000Y-94669966D01*
X103879750Y-94673000D01*
X103723000Y-94829750D01*
X103277000Y-94829750D01*
X103120250Y-94673000D01*
X102300000Y-94669966D01*
X102177086Y-94682072D01*
X102058896Y-94717924D01*
X101949972Y-94776146D01*
X101854499Y-94854499D01*
X101776146Y-94949972D01*
X101717924Y-95058896D01*
X101682072Y-95177086D01*
X101669966Y-95300000D01*
X101627000Y-95300000D01*
X101627000Y-83700000D01*
X101669966Y-83700000D01*
X101682072Y-83822914D01*
X101717924Y-83941104D01*
X101776146Y-84050028D01*
X101854499Y-84145501D01*
X101949972Y-84223854D01*
X102058896Y-84282076D01*
X102177086Y-84317928D01*
X102300000Y-84330034D01*
X103120250Y-84327000D01*
X103277000Y-84170250D01*
X103277000Y-82723000D01*
X103723000Y-82723000D01*
X103723000Y-84170250D01*
X103879750Y-84327000D01*
X104700000Y-84330034D01*
X104822914Y-84317928D01*
X104941104Y-84282076D01*
X105050028Y-84223854D01*
X105145501Y-84145501D01*
X105223854Y-84050028D01*
X105282076Y-83941104D01*
X105314424Y-83834463D01*
X111480906Y-83834463D01*
X111609322Y-84105304D01*
X111939615Y-84248221D01*
X112291444Y-84323956D01*
X112651287Y-84329596D01*
X113005316Y-84264927D01*
X113339926Y-84132432D01*
X113390678Y-84105304D01*
X113519094Y-83834463D01*
X112500000Y-82815370D01*
X111480906Y-83834463D01*
X105314424Y-83834463D01*
X105317928Y-83822914D01*
X105330034Y-83700000D01*
X105327000Y-82879750D01*
X105170250Y-82723000D01*
X103723000Y-82723000D01*
X103277000Y-82723000D01*
X101829750Y-82723000D01*
X101673000Y-82879750D01*
X101669966Y-83700000D01*
X101627000Y-83700000D01*
X101627000Y-82651287D01*
X110670404Y-82651287D01*
X110735073Y-83005316D01*
X110867568Y-83339926D01*
X110894696Y-83390678D01*
X111165537Y-83519094D01*
X112184630Y-82500000D01*
X112815370Y-82500000D01*
X113834463Y-83519094D01*
X114105304Y-83390678D01*
X114248221Y-83060385D01*
X114323956Y-82708556D01*
X114329596Y-82348713D01*
X114264927Y-81994684D01*
X114132432Y-81660074D01*
X114105304Y-81609322D01*
X113834463Y-81480906D01*
X112815370Y-82500000D01*
X112184630Y-82500000D01*
X111165537Y-81480906D01*
X110894696Y-81609322D01*
X110751779Y-81939615D01*
X110676044Y-82291444D01*
X110670404Y-82651287D01*
X101627000Y-82651287D01*
X101627000Y-81300000D01*
X101669966Y-81300000D01*
X101673000Y-82120250D01*
X101829750Y-82277000D01*
X103277000Y-82277000D01*
X103277000Y-80829750D01*
X103723000Y-80829750D01*
X103723000Y-82277000D01*
X105170250Y-82277000D01*
X105327000Y-82120250D01*
X105330034Y-81300000D01*
X105317928Y-81177086D01*
X105314425Y-81165537D01*
X111480906Y-81165537D01*
X112500000Y-82184630D01*
X113519094Y-81165537D01*
X113390678Y-80894696D01*
X113060385Y-80751779D01*
X112708556Y-80676044D01*
X112348713Y-80670404D01*
X111994684Y-80735073D01*
X111660074Y-80867568D01*
X111609322Y-80894696D01*
X111480906Y-81165537D01*
X105314425Y-81165537D01*
X105282076Y-81058896D01*
X105223854Y-80949972D01*
X105145501Y-80854499D01*
X105050028Y-80776146D01*
X104941104Y-80717924D01*
X104822914Y-80682072D01*
X104700000Y-80669966D01*
X103879750Y-80673000D01*
X103723000Y-80829750D01*
X103277000Y-80829750D01*
X103120250Y-80673000D01*
X102300000Y-80669966D01*
X102177086Y-80682072D01*
X102058896Y-80717924D01*
X101949972Y-80776146D01*
X101854499Y-80854499D01*
X101776146Y-80949972D01*
X101717924Y-81058896D01*
X101682072Y-81177086D01*
X101669966Y-81300000D01*
X101627000Y-81300000D01*
X101627000Y-80127000D01*
X114373000Y-80127000D01*
X114373000Y-97947394D01*
G36*
X142373000Y-98500000D02*
G01*
X142375440Y-98524776D01*
X142382667Y-98548601D01*
X142394403Y-98570557D01*
X142410197Y-98589803D01*
X144910197Y-101089803D01*
X144929443Y-101105597D01*
X144951399Y-101117333D01*
X144975224Y-101124560D01*
X145000000Y-101127000D01*
X153373000Y-101127000D01*
X153373000Y-109811628D01*
X153303605Y-109881023D01*
X153211905Y-109640757D01*
X152933051Y-109527988D01*
X152637555Y-109471788D01*
X152336773Y-109474317D01*
X152042264Y-109535476D01*
X151788095Y-109640757D01*
X151696394Y-109881024D01*
X152500000Y-110684630D01*
X152514142Y-110670488D01*
X152829512Y-110985858D01*
X152815370Y-111000000D01*
X152829512Y-111014142D01*
X152514142Y-111329512D01*
X152500000Y-111315370D01*
X151696394Y-112118976D01*
X151788095Y-112359243D01*
X152066949Y-112472012D01*
X152362445Y-112528212D01*
X152663227Y-112525683D01*
X152957736Y-112464524D01*
X153211905Y-112359243D01*
X153303605Y-112118977D01*
X153373000Y-112188372D01*
X153373000Y-112873000D01*
X136627000Y-112873000D01*
X136627000Y-112188372D01*
X136696395Y-112118977D01*
X136788095Y-112359243D01*
X137066949Y-112472012D01*
X137362445Y-112528212D01*
X137663227Y-112525683D01*
X137957736Y-112464524D01*
X138211905Y-112359243D01*
X138303606Y-112118976D01*
X137500000Y-111315370D01*
X137485858Y-111329512D01*
X137170488Y-111014142D01*
X137184630Y-111000000D01*
X137815370Y-111000000D01*
X138618976Y-111803606D01*
X138859243Y-111711905D01*
X138972012Y-111433051D01*
X139028212Y-111137555D01*
X139025899Y-110862445D01*
X150971788Y-110862445D01*
X150974317Y-111163227D01*
X151035476Y-111457736D01*
X151140757Y-111711905D01*
X151381024Y-111803606D01*
X152184630Y-111000000D01*
X151381024Y-110196394D01*
X151140757Y-110288095D01*
X151027988Y-110566949D01*
X150971788Y-110862445D01*
X139025899Y-110862445D01*
X139025683Y-110836773D01*
X138964524Y-110542264D01*
X138859243Y-110288095D01*
X138618976Y-110196394D01*
X137815370Y-111000000D01*
X137184630Y-111000000D01*
X137170488Y-110985858D01*
X137485858Y-110670488D01*
X137500000Y-110684630D01*
X138303606Y-109881024D01*
X138211905Y-109640757D01*
X137933051Y-109527988D01*
X137637555Y-109471788D01*
X137336773Y-109474317D01*
X137042264Y-109535476D01*
X136788095Y-109640757D01*
X136696395Y-109881023D01*
X136627000Y-109811628D01*
X136627000Y-105000000D01*
X136624560Y-104975224D01*
X136617333Y-104951399D01*
X136605597Y-104929443D01*
X136589803Y-104910197D01*
X129627000Y-97947394D01*
X129627000Y-97700000D01*
X129669966Y-97700000D01*
X129682072Y-97822914D01*
X129717924Y-97941104D01*
X129776146Y-98050028D01*
X129854499Y-98145501D01*
X129949972Y-98223854D01*
X130058896Y-98282076D01*
X130177086Y-98317928D01*
X130300000Y-98330034D01*
X131120250Y-98327000D01*
X131277000Y-98170250D01*
X131277000Y-96723000D01*
X131723000Y-96723000D01*
X131723000Y-98170250D01*
X131879750Y-98327000D01*
X132700000Y-98330034D01*
X132822914Y-98317928D01*
X132941104Y-98282076D01*
X133050028Y-98223854D01*
X133145501Y-98145501D01*
X133223854Y-98050028D01*
X133282076Y-97941104D01*
X133314424Y-97834463D01*
X139480906Y-97834463D01*
X139609322Y-98105304D01*
X139939615Y-98248221D01*
X140291444Y-98323956D01*
X140651287Y-98329596D01*
X141005316Y-98264927D01*
X141339926Y-98132432D01*
X141390678Y-98105304D01*
X141519094Y-97834463D01*
X140500000Y-96815370D01*
X139480906Y-97834463D01*
X133314424Y-97834463D01*
X133317928Y-97822914D01*
X133330034Y-97700000D01*
X133327000Y-96879750D01*
X133170250Y-96723000D01*
X131723000Y-96723000D01*
X131277000Y-96723000D01*
X129829750Y-96723000D01*
X129673000Y-96879750D01*
X129669966Y-97700000D01*
X129627000Y-97700000D01*
X129627000Y-96651287D01*
X138670404Y-96651287D01*
X138735073Y-97005316D01*
X138867568Y-97339926D01*
X138894696Y-97390678D01*
X139165537Y-97519094D01*
X140184630Y-96500000D01*
X140815370Y-96500000D01*
X141834463Y-97519094D01*
X142105304Y-97390678D01*
X142248221Y-97060385D01*
X142323956Y-96708556D01*
X142329596Y-96348713D01*
X142264927Y-95994684D01*
X142132432Y-95660074D01*
X142105304Y-95609322D01*
X141834463Y-95480906D01*
X140815370Y-96500000D01*
X140184630Y-96500000D01*
X139165537Y-95480906D01*
X138894696Y-95609322D01*
X138751779Y-95939615D01*
X138676044Y-96291444D01*
X138670404Y-96651287D01*
X129627000Y-96651287D01*
X129627000Y-95300000D01*
X129669966Y-95300000D01*
X129673000Y-96120250D01*
X129829750Y-96277000D01*
X131277000Y-96277000D01*
X131277000Y-94829750D01*
X131723000Y-94829750D01*
X131723000Y-96277000D01*
X133170250Y-96277000D01*
X133327000Y-96120250D01*
X133330034Y-95300000D01*
X133317928Y-95177086D01*
X133314425Y-95165537D01*
X139480906Y-95165537D01*
X140500000Y-96184630D01*
X141519094Y-95165537D01*
X141390678Y-94894696D01*
X141060385Y-94751779D01*
X140708556Y-94676044D01*
X140348713Y-94670404D01*
X139994684Y-94735073D01*
X139660074Y-94867568D01*
X139609322Y-94894696D01*
X139480906Y-95165537D01*
X133314425Y-95165537D01*
X133282076Y-95058896D01*
X133223854Y-94949972D01*
X133145501Y-94854499D01*
X133050028Y-94776146D01*
X132941104Y-94717924D01*
X132822914Y-94682072D01*
X132700000Y-94669966D01*
X131879750Y-94673000D01*
X131723000Y-94829750D01*
X131277000Y-94829750D01*
X131120250Y-94673000D01*
X130300000Y-94669966D01*
X130177086Y-94682072D01*
X130058896Y-94717924D01*
X129949972Y-94776146D01*
X129854499Y-94854499D01*
X129776146Y-94949972D01*
X129717924Y-95058896D01*
X129682072Y-95177086D01*
X129669966Y-95300000D01*
X129627000Y-95300000D01*
X129627000Y-83700000D01*
X129669966Y-83700000D01*
X129682072Y-83822914D01*
X129717924Y-83941104D01*
X129776146Y-84050028D01*
X129854499Y-84145501D01*
X129949972Y-84223854D01*
X130058896Y-84282076D01*
X130177086Y-84317928D01*
X130300000Y-84330034D01*
X131120250Y-84327000D01*
X131277000Y-84170250D01*
X131277000Y-82723000D01*
X131723000Y-82723000D01*
X131723000Y-84170250D01*
X131879750Y-84327000D01*
X132700000Y-84330034D01*
X132822914Y-84317928D01*
X132941104Y-84282076D01*
X133050028Y-84223854D01*
X133145501Y-84145501D01*
X133223854Y-84050028D01*
X133282076Y-83941104D01*
X133314424Y-83834463D01*
X139480906Y-83834463D01*
X139609322Y-84105304D01*
X139939615Y-84248221D01*
X140291444Y-84323956D01*
X140651287Y-84329596D01*
X141005316Y-84264927D01*
X141339926Y-84132432D01*
X141390678Y-84105304D01*
X141519094Y-83834463D01*
X140500000Y-82815370D01*
X139480906Y-83834463D01*
X133314424Y-83834463D01*
X133317928Y-83822914D01*
X133330034Y-83700000D01*
X133327000Y-82879750D01*
X133170250Y-82723000D01*
X131723000Y-82723000D01*
X131277000Y-82723000D01*
X129829750Y-82723000D01*
X129673000Y-82879750D01*
X129669966Y-83700000D01*
X129627000Y-83700000D01*
X129627000Y-82651287D01*
X138670404Y-82651287D01*
X138735073Y-83005316D01*
X138867568Y-83339926D01*
X138894696Y-83390678D01*
X139165537Y-83519094D01*
X140184630Y-82500000D01*
X140815370Y-82500000D01*
X141834463Y-83519094D01*
X142105304Y-83390678D01*
X142248221Y-83060385D01*
X142323956Y-82708556D01*
X142329596Y-82348713D01*
X142264927Y-81994684D01*
X142132432Y-81660074D01*
X142105304Y-81609322D01*
X141834463Y-81480906D01*
X140815370Y-82500000D01*
X140184630Y-82500000D01*
X139165537Y-81480906D01*
X138894696Y-81609322D01*
X138751779Y-81939615D01*
X138676044Y-82291444D01*
X138670404Y-82651287D01*
X129627000Y-82651287D01*
X129627000Y-81300000D01*
X129669966Y-81300000D01*
X129673000Y-82120250D01*
X129829750Y-82277000D01*
X131277000Y-82277000D01*
X131277000Y-80829750D01*
X131723000Y-80829750D01*
X131723000Y-82277000D01*
X133170250Y-82277000D01*
X133327000Y-82120250D01*
X133330034Y-81300000D01*
X133317928Y-81177086D01*
X133314425Y-81165537D01*
X139480906Y-81165537D01*
X140500000Y-82184630D01*
X141519094Y-81165537D01*
X141390678Y-80894696D01*
X141060385Y-80751779D01*
X140708556Y-80676044D01*
X140348713Y-80670404D01*
X139994684Y-80735073D01*
X139660074Y-80867568D01*
X139609322Y-80894696D01*
X139480906Y-81165537D01*
X133314425Y-81165537D01*
X133282076Y-81058896D01*
X133223854Y-80949972D01*
X133145501Y-80854499D01*
X133050028Y-80776146D01*
X132941104Y-80717924D01*
X132822914Y-80682072D01*
X132700000Y-80669966D01*
X131879750Y-80673000D01*
X131723000Y-80829750D01*
X131277000Y-80829750D01*
X131120250Y-80673000D01*
X130300000Y-80669966D01*
X130177086Y-80682072D01*
X130058896Y-80717924D01*
X129949972Y-80776146D01*
X129854499Y-80854499D01*
X129776146Y-80949972D01*
X129717924Y-81058896D01*
X129682072Y-81177086D01*
X129669966Y-81300000D01*
X129627000Y-81300000D01*
X129627000Y-80127000D01*
X142373000Y-80127000D01*
X142373000Y-98500000D01*
X142373000Y-98500000D01*
G37*
X142373000Y-98500000D02*
X142375440Y-98524776D01*
X142382667Y-98548601D01*
X142394403Y-98570557D01*
X142410197Y-98589803D01*
X144910197Y-101089803D01*
X144929443Y-101105597D01*
X144951399Y-101117333D01*
X144975224Y-101124560D01*
X145000000Y-101127000D01*
X153373000Y-101127000D01*
X153373000Y-109811628D01*
X153303605Y-109881023D01*
X153211905Y-109640757D01*
X152933051Y-109527988D01*
X152637555Y-109471788D01*
X152336773Y-109474317D01*
X152042264Y-109535476D01*
X151788095Y-109640757D01*
X151696394Y-109881024D01*
X152500000Y-110684630D01*
X152514142Y-110670488D01*
X152829512Y-110985858D01*
X152815370Y-111000000D01*
X152829512Y-111014142D01*
X152514142Y-111329512D01*
X152500000Y-111315370D01*
X151696394Y-112118976D01*
X151788095Y-112359243D01*
X152066949Y-112472012D01*
X152362445Y-112528212D01*
X152663227Y-112525683D01*
X152957736Y-112464524D01*
X153211905Y-112359243D01*
X153303605Y-112118977D01*
X153373000Y-112188372D01*
X153373000Y-112873000D01*
X136627000Y-112873000D01*
X136627000Y-112188372D01*
X136696395Y-112118977D01*
X136788095Y-112359243D01*
X137066949Y-112472012D01*
X137362445Y-112528212D01*
X137663227Y-112525683D01*
X137957736Y-112464524D01*
X138211905Y-112359243D01*
X138303606Y-112118976D01*
X137500000Y-111315370D01*
X137485858Y-111329512D01*
X137170488Y-111014142D01*
X137184630Y-111000000D01*
X137815370Y-111000000D01*
X138618976Y-111803606D01*
X138859243Y-111711905D01*
X138972012Y-111433051D01*
X139028212Y-111137555D01*
X139025899Y-110862445D01*
X150971788Y-110862445D01*
X150974317Y-111163227D01*
X151035476Y-111457736D01*
X151140757Y-111711905D01*
X151381024Y-111803606D01*
X152184630Y-111000000D01*
X151381024Y-110196394D01*
X151140757Y-110288095D01*
X151027988Y-110566949D01*
X150971788Y-110862445D01*
X139025899Y-110862445D01*
X139025683Y-110836773D01*
X138964524Y-110542264D01*
X138859243Y-110288095D01*
X138618976Y-110196394D01*
X137815370Y-111000000D01*
X137184630Y-111000000D01*
X137170488Y-110985858D01*
X137485858Y-110670488D01*
X137500000Y-110684630D01*
X138303606Y-109881024D01*
X138211905Y-109640757D01*
X137933051Y-109527988D01*
X137637555Y-109471788D01*
X137336773Y-109474317D01*
X137042264Y-109535476D01*
X136788095Y-109640757D01*
X136696395Y-109881023D01*
X136627000Y-109811628D01*
X136627000Y-105000000D01*
X136624560Y-104975224D01*
X136617333Y-104951399D01*
X136605597Y-104929443D01*
X136589803Y-104910197D01*
X129627000Y-97947394D01*
X129627000Y-97700000D01*
X129669966Y-97700000D01*
X129682072Y-97822914D01*
X129717924Y-97941104D01*
X129776146Y-98050028D01*
X129854499Y-98145501D01*
X129949972Y-98223854D01*
X130058896Y-98282076D01*
X130177086Y-98317928D01*
X130300000Y-98330034D01*
X131120250Y-98327000D01*
X131277000Y-98170250D01*
X131277000Y-96723000D01*
X131723000Y-96723000D01*
X131723000Y-98170250D01*
X131879750Y-98327000D01*
X132700000Y-98330034D01*
X132822914Y-98317928D01*
X132941104Y-98282076D01*
X133050028Y-98223854D01*
X133145501Y-98145501D01*
X133223854Y-98050028D01*
X133282076Y-97941104D01*
X133314424Y-97834463D01*
X139480906Y-97834463D01*
X139609322Y-98105304D01*
X139939615Y-98248221D01*
X140291444Y-98323956D01*
X140651287Y-98329596D01*
X141005316Y-98264927D01*
X141339926Y-98132432D01*
X141390678Y-98105304D01*
X141519094Y-97834463D01*
X140500000Y-96815370D01*
X139480906Y-97834463D01*
X133314424Y-97834463D01*
X133317928Y-97822914D01*
X133330034Y-97700000D01*
X133327000Y-96879750D01*
X133170250Y-96723000D01*
X131723000Y-96723000D01*
X131277000Y-96723000D01*
X129829750Y-96723000D01*
X129673000Y-96879750D01*
X129669966Y-97700000D01*
X129627000Y-97700000D01*
X129627000Y-96651287D01*
X138670404Y-96651287D01*
X138735073Y-97005316D01*
X138867568Y-97339926D01*
X138894696Y-97390678D01*
X139165537Y-97519094D01*
X140184630Y-96500000D01*
X140815370Y-96500000D01*
X141834463Y-97519094D01*
X142105304Y-97390678D01*
X142248221Y-97060385D01*
X142323956Y-96708556D01*
X142329596Y-96348713D01*
X142264927Y-95994684D01*
X142132432Y-95660074D01*
X142105304Y-95609322D01*
X141834463Y-95480906D01*
X140815370Y-96500000D01*
X140184630Y-96500000D01*
X139165537Y-95480906D01*
X138894696Y-95609322D01*
X138751779Y-95939615D01*
X138676044Y-96291444D01*
X138670404Y-96651287D01*
X129627000Y-96651287D01*
X129627000Y-95300000D01*
X129669966Y-95300000D01*
X129673000Y-96120250D01*
X129829750Y-96277000D01*
X131277000Y-96277000D01*
X131277000Y-94829750D01*
X131723000Y-94829750D01*
X131723000Y-96277000D01*
X133170250Y-96277000D01*
X133327000Y-96120250D01*
X133330034Y-95300000D01*
X133317928Y-95177086D01*
X133314425Y-95165537D01*
X139480906Y-95165537D01*
X140500000Y-96184630D01*
X141519094Y-95165537D01*
X141390678Y-94894696D01*
X141060385Y-94751779D01*
X140708556Y-94676044D01*
X140348713Y-94670404D01*
X139994684Y-94735073D01*
X139660074Y-94867568D01*
X139609322Y-94894696D01*
X139480906Y-95165537D01*
X133314425Y-95165537D01*
X133282076Y-95058896D01*
X133223854Y-94949972D01*
X133145501Y-94854499D01*
X133050028Y-94776146D01*
X132941104Y-94717924D01*
X132822914Y-94682072D01*
X132700000Y-94669966D01*
X131879750Y-94673000D01*
X131723000Y-94829750D01*
X131277000Y-94829750D01*
X131120250Y-94673000D01*
X130300000Y-94669966D01*
X130177086Y-94682072D01*
X130058896Y-94717924D01*
X129949972Y-94776146D01*
X129854499Y-94854499D01*
X129776146Y-94949972D01*
X129717924Y-95058896D01*
X129682072Y-95177086D01*
X129669966Y-95300000D01*
X129627000Y-95300000D01*
X129627000Y-83700000D01*
X129669966Y-83700000D01*
X129682072Y-83822914D01*
X129717924Y-83941104D01*
X129776146Y-84050028D01*
X129854499Y-84145501D01*
X129949972Y-84223854D01*
X130058896Y-84282076D01*
X130177086Y-84317928D01*
X130300000Y-84330034D01*
X131120250Y-84327000D01*
X131277000Y-84170250D01*
X131277000Y-82723000D01*
X131723000Y-82723000D01*
X131723000Y-84170250D01*
X131879750Y-84327000D01*
X132700000Y-84330034D01*
X132822914Y-84317928D01*
X132941104Y-84282076D01*
X133050028Y-84223854D01*
X133145501Y-84145501D01*
X133223854Y-84050028D01*
X133282076Y-83941104D01*
X133314424Y-83834463D01*
X139480906Y-83834463D01*
X139609322Y-84105304D01*
X139939615Y-84248221D01*
X140291444Y-84323956D01*
X140651287Y-84329596D01*
X141005316Y-84264927D01*
X141339926Y-84132432D01*
X141390678Y-84105304D01*
X141519094Y-83834463D01*
X140500000Y-82815370D01*
X139480906Y-83834463D01*
X133314424Y-83834463D01*
X133317928Y-83822914D01*
X133330034Y-83700000D01*
X133327000Y-82879750D01*
X133170250Y-82723000D01*
X131723000Y-82723000D01*
X131277000Y-82723000D01*
X129829750Y-82723000D01*
X129673000Y-82879750D01*
X129669966Y-83700000D01*
X129627000Y-83700000D01*
X129627000Y-82651287D01*
X138670404Y-82651287D01*
X138735073Y-83005316D01*
X138867568Y-83339926D01*
X138894696Y-83390678D01*
X139165537Y-83519094D01*
X140184630Y-82500000D01*
X140815370Y-82500000D01*
X141834463Y-83519094D01*
X142105304Y-83390678D01*
X142248221Y-83060385D01*
X142323956Y-82708556D01*
X142329596Y-82348713D01*
X142264927Y-81994684D01*
X142132432Y-81660074D01*
X142105304Y-81609322D01*
X141834463Y-81480906D01*
X140815370Y-82500000D01*
X140184630Y-82500000D01*
X139165537Y-81480906D01*
X138894696Y-81609322D01*
X138751779Y-81939615D01*
X138676044Y-82291444D01*
X138670404Y-82651287D01*
X129627000Y-82651287D01*
X129627000Y-81300000D01*
X129669966Y-81300000D01*
X129673000Y-82120250D01*
X129829750Y-82277000D01*
X131277000Y-82277000D01*
X131277000Y-80829750D01*
X131723000Y-80829750D01*
X131723000Y-82277000D01*
X133170250Y-82277000D01*
X133327000Y-82120250D01*
X133330034Y-81300000D01*
X133317928Y-81177086D01*
X133314425Y-81165537D01*
X139480906Y-81165537D01*
X140500000Y-82184630D01*
X141519094Y-81165537D01*
X141390678Y-80894696D01*
X141060385Y-80751779D01*
X140708556Y-80676044D01*
X140348713Y-80670404D01*
X139994684Y-80735073D01*
X139660074Y-80867568D01*
X139609322Y-80894696D01*
X139480906Y-81165537D01*
X133314425Y-81165537D01*
X133282076Y-81058896D01*
X133223854Y-80949972D01*
X133145501Y-80854499D01*
X133050028Y-80776146D01*
X132941104Y-80717924D01*
X132822914Y-80682072D01*
X132700000Y-80669966D01*
X131879750Y-80673000D01*
X131723000Y-80829750D01*
X131277000Y-80829750D01*
X131120250Y-80673000D01*
X130300000Y-80669966D01*
X130177086Y-80682072D01*
X130058896Y-80717924D01*
X129949972Y-80776146D01*
X129854499Y-80854499D01*
X129776146Y-80949972D01*
X129717924Y-81058896D01*
X129682072Y-81177086D01*
X129669966Y-81300000D01*
X129627000Y-81300000D01*
X129627000Y-80127000D01*
X142373000Y-80127000D01*
X142373000Y-98500000D01*
G36*
X100373000Y-97947394D02*
G01*
X98447394Y-99873000D01*
X83127000Y-99873000D01*
X83127000Y-97834463D01*
X97480906Y-97834463D01*
X97609322Y-98105304D01*
X97939615Y-98248221D01*
X98291444Y-98323956D01*
X98651287Y-98329596D01*
X99005316Y-98264927D01*
X99339926Y-98132432D01*
X99390678Y-98105304D01*
X99519094Y-97834463D01*
X98500000Y-96815370D01*
X97480906Y-97834463D01*
X83127000Y-97834463D01*
X83127000Y-96651287D01*
X96670404Y-96651287D01*
X96735073Y-97005316D01*
X96867568Y-97339926D01*
X96894696Y-97390678D01*
X97165537Y-97519094D01*
X98184630Y-96500000D01*
X98815370Y-96500000D01*
X99834463Y-97519094D01*
X100105304Y-97390678D01*
X100248221Y-97060385D01*
X100323956Y-96708556D01*
X100329596Y-96348713D01*
X100264927Y-95994684D01*
X100132432Y-95660074D01*
X100105304Y-95609322D01*
X99834463Y-95480906D01*
X98815370Y-96500000D01*
X98184630Y-96500000D01*
X97165537Y-95480906D01*
X96894696Y-95609322D01*
X96751779Y-95939615D01*
X96676044Y-96291444D01*
X96670404Y-96651287D01*
X83127000Y-96651287D01*
X83127000Y-95165537D01*
X97480906Y-95165537D01*
X98500000Y-96184630D01*
X99519094Y-95165537D01*
X99390678Y-94894696D01*
X99060385Y-94751779D01*
X98708556Y-94676044D01*
X98348713Y-94670404D01*
X97994684Y-94735073D01*
X97660074Y-94867568D01*
X97609322Y-94894696D01*
X97480906Y-95165537D01*
X83127000Y-95165537D01*
X83127000Y-89127000D01*
X94000000Y-89127000D01*
X94024776Y-89124560D01*
X94048601Y-89117333D01*
X94070557Y-89105597D01*
X94089803Y-89089803D01*
X95589803Y-87589803D01*
X95605597Y-87570557D01*
X95617333Y-87548601D01*
X95624560Y-87524776D01*
X95627000Y-87500000D01*
X95627000Y-83834463D01*
X97480906Y-83834463D01*
X97609322Y-84105304D01*
X97939615Y-84248221D01*
X98291444Y-84323956D01*
X98651287Y-84329596D01*
X99005316Y-84264927D01*
X99339926Y-84132432D01*
X99390678Y-84105304D01*
X99519094Y-83834463D01*
X98500000Y-82815370D01*
X97480906Y-83834463D01*
X95627000Y-83834463D01*
X95627000Y-82651287D01*
X96670404Y-82651287D01*
X96735073Y-83005316D01*
X96867568Y-83339926D01*
X96894696Y-83390678D01*
X97165537Y-83519094D01*
X98184630Y-82500000D01*
X98815370Y-82500000D01*
X99834463Y-83519094D01*
X100105304Y-83390678D01*
X100248221Y-83060385D01*
X100323956Y-82708556D01*
X100329596Y-82348713D01*
X100264927Y-81994684D01*
X100132432Y-81660074D01*
X100105304Y-81609322D01*
X99834463Y-81480906D01*
X98815370Y-82500000D01*
X98184630Y-82500000D01*
X97165537Y-81480906D01*
X96894696Y-81609322D01*
X96751779Y-81939615D01*
X96676044Y-82291444D01*
X96670404Y-82651287D01*
X95627000Y-82651287D01*
X95627000Y-81165537D01*
X97480906Y-81165537D01*
X98500000Y-82184630D01*
X99519094Y-81165537D01*
X99390678Y-80894696D01*
X99060385Y-80751779D01*
X98708556Y-80676044D01*
X98348713Y-80670404D01*
X97994684Y-80735073D01*
X97660074Y-80867568D01*
X97609322Y-80894696D01*
X97480906Y-81165537D01*
X95627000Y-81165537D01*
X95627000Y-80127000D01*
X100373000Y-80127000D01*
X100373000Y-97947394D01*
X100373000Y-97947394D01*
G37*
X100373000Y-97947394D02*
X98447394Y-99873000D01*
X83127000Y-99873000D01*
X83127000Y-97834463D01*
X97480906Y-97834463D01*
X97609322Y-98105304D01*
X97939615Y-98248221D01*
X98291444Y-98323956D01*
X98651287Y-98329596D01*
X99005316Y-98264927D01*
X99339926Y-98132432D01*
X99390678Y-98105304D01*
X99519094Y-97834463D01*
X98500000Y-96815370D01*
X97480906Y-97834463D01*
X83127000Y-97834463D01*
X83127000Y-96651287D01*
X96670404Y-96651287D01*
X96735073Y-97005316D01*
X96867568Y-97339926D01*
X96894696Y-97390678D01*
X97165537Y-97519094D01*
X98184630Y-96500000D01*
X98815370Y-96500000D01*
X99834463Y-97519094D01*
X100105304Y-97390678D01*
X100248221Y-97060385D01*
X100323956Y-96708556D01*
X100329596Y-96348713D01*
X100264927Y-95994684D01*
X100132432Y-95660074D01*
X100105304Y-95609322D01*
X99834463Y-95480906D01*
X98815370Y-96500000D01*
X98184630Y-96500000D01*
X97165537Y-95480906D01*
X96894696Y-95609322D01*
X96751779Y-95939615D01*
X96676044Y-96291444D01*
X96670404Y-96651287D01*
X83127000Y-96651287D01*
X83127000Y-95165537D01*
X97480906Y-95165537D01*
X98500000Y-96184630D01*
X99519094Y-95165537D01*
X99390678Y-94894696D01*
X99060385Y-94751779D01*
X98708556Y-94676044D01*
X98348713Y-94670404D01*
X97994684Y-94735073D01*
X97660074Y-94867568D01*
X97609322Y-94894696D01*
X97480906Y-95165537D01*
X83127000Y-95165537D01*
X83127000Y-89127000D01*
X94000000Y-89127000D01*
X94024776Y-89124560D01*
X94048601Y-89117333D01*
X94070557Y-89105597D01*
X94089803Y-89089803D01*
X95589803Y-87589803D01*
X95605597Y-87570557D01*
X95617333Y-87548601D01*
X95624560Y-87524776D01*
X95627000Y-87500000D01*
X95627000Y-83834463D01*
X97480906Y-83834463D01*
X97609322Y-84105304D01*
X97939615Y-84248221D01*
X98291444Y-84323956D01*
X98651287Y-84329596D01*
X99005316Y-84264927D01*
X99339926Y-84132432D01*
X99390678Y-84105304D01*
X99519094Y-83834463D01*
X98500000Y-82815370D01*
X97480906Y-83834463D01*
X95627000Y-83834463D01*
X95627000Y-82651287D01*
X96670404Y-82651287D01*
X96735073Y-83005316D01*
X96867568Y-83339926D01*
X96894696Y-83390678D01*
X97165537Y-83519094D01*
X98184630Y-82500000D01*
X98815370Y-82500000D01*
X99834463Y-83519094D01*
X100105304Y-83390678D01*
X100248221Y-83060385D01*
X100323956Y-82708556D01*
X100329596Y-82348713D01*
X100264927Y-81994684D01*
X100132432Y-81660074D01*
X100105304Y-81609322D01*
X99834463Y-81480906D01*
X98815370Y-82500000D01*
X98184630Y-82500000D01*
X97165537Y-81480906D01*
X96894696Y-81609322D01*
X96751779Y-81939615D01*
X96676044Y-82291444D01*
X96670404Y-82651287D01*
X95627000Y-82651287D01*
X95627000Y-81165537D01*
X97480906Y-81165537D01*
X98500000Y-82184630D01*
X99519094Y-81165537D01*
X99390678Y-80894696D01*
X99060385Y-80751779D01*
X98708556Y-80676044D01*
X98348713Y-80670404D01*
X97994684Y-80735073D01*
X97660074Y-80867568D01*
X97609322Y-80894696D01*
X97480906Y-81165537D01*
X95627000Y-81165537D01*
X95627000Y-80127000D01*
X100373000Y-80127000D01*
X100373000Y-97947394D01*
G36*
X148373000Y-87500000D02*
G01*
X148375440Y-87524776D01*
X148382667Y-87548601D01*
X148394403Y-87570557D01*
X148410197Y-87589803D01*
X149910197Y-89089803D01*
X149929443Y-89105597D01*
X149951399Y-89117333D01*
X149975224Y-89124560D01*
X150000000Y-89127000D01*
X158447394Y-89127000D01*
X162873000Y-93552606D01*
X162873000Y-99873000D01*
X145552606Y-99873000D01*
X143627000Y-97947394D01*
X143627000Y-97700000D01*
X143669966Y-97700000D01*
X143682072Y-97822914D01*
X143717924Y-97941104D01*
X143776146Y-98050028D01*
X143854499Y-98145501D01*
X143949972Y-98223854D01*
X144058896Y-98282076D01*
X144177086Y-98317928D01*
X144300000Y-98330034D01*
X145120250Y-98327000D01*
X145277000Y-98170250D01*
X145277000Y-96723000D01*
X145723000Y-96723000D01*
X145723000Y-98170250D01*
X145879750Y-98327000D01*
X146700000Y-98330034D01*
X146822914Y-98317928D01*
X146941104Y-98282076D01*
X147050028Y-98223854D01*
X147145501Y-98145501D01*
X147223854Y-98050028D01*
X147282076Y-97941104D01*
X147317928Y-97822914D01*
X147330034Y-97700000D01*
X147327000Y-96879750D01*
X147170250Y-96723000D01*
X145723000Y-96723000D01*
X145277000Y-96723000D01*
X143829750Y-96723000D01*
X143673000Y-96879750D01*
X143669966Y-97700000D01*
X143627000Y-97700000D01*
X143627000Y-95300000D01*
X143669966Y-95300000D01*
X143673000Y-96120250D01*
X143829750Y-96277000D01*
X145277000Y-96277000D01*
X145277000Y-94829750D01*
X145723000Y-94829750D01*
X145723000Y-96277000D01*
X147170250Y-96277000D01*
X147327000Y-96120250D01*
X147330034Y-95300000D01*
X147317928Y-95177086D01*
X147282076Y-95058896D01*
X147223854Y-94949972D01*
X147145501Y-94854499D01*
X147050028Y-94776146D01*
X146941104Y-94717924D01*
X146822914Y-94682072D01*
X146700000Y-94669966D01*
X145879750Y-94673000D01*
X145723000Y-94829750D01*
X145277000Y-94829750D01*
X145120250Y-94673000D01*
X144300000Y-94669966D01*
X144177086Y-94682072D01*
X144058896Y-94717924D01*
X143949972Y-94776146D01*
X143854499Y-94854499D01*
X143776146Y-94949972D01*
X143717924Y-95058896D01*
X143682072Y-95177086D01*
X143669966Y-95300000D01*
X143627000Y-95300000D01*
X143627000Y-83700000D01*
X143669966Y-83700000D01*
X143682072Y-83822914D01*
X143717924Y-83941104D01*
X143776146Y-84050028D01*
X143854499Y-84145501D01*
X143949972Y-84223854D01*
X144058896Y-84282076D01*
X144177086Y-84317928D01*
X144300000Y-84330034D01*
X145120250Y-84327000D01*
X145277000Y-84170250D01*
X145277000Y-82723000D01*
X145723000Y-82723000D01*
X145723000Y-84170250D01*
X145879750Y-84327000D01*
X146700000Y-84330034D01*
X146822914Y-84317928D01*
X146941104Y-84282076D01*
X147050028Y-84223854D01*
X147145501Y-84145501D01*
X147223854Y-84050028D01*
X147282076Y-83941104D01*
X147317928Y-83822914D01*
X147330034Y-83700000D01*
X147327000Y-82879750D01*
X147170250Y-82723000D01*
X145723000Y-82723000D01*
X145277000Y-82723000D01*
X143829750Y-82723000D01*
X143673000Y-82879750D01*
X143669966Y-83700000D01*
X143627000Y-83700000D01*
X143627000Y-81300000D01*
X143669966Y-81300000D01*
X143673000Y-82120250D01*
X143829750Y-82277000D01*
X145277000Y-82277000D01*
X145277000Y-80829750D01*
X145723000Y-80829750D01*
X145723000Y-82277000D01*
X147170250Y-82277000D01*
X147327000Y-82120250D01*
X147330034Y-81300000D01*
X147317928Y-81177086D01*
X147282076Y-81058896D01*
X147223854Y-80949972D01*
X147145501Y-80854499D01*
X147050028Y-80776146D01*
X146941104Y-80717924D01*
X146822914Y-80682072D01*
X146700000Y-80669966D01*
X145879750Y-80673000D01*
X145723000Y-80829750D01*
X145277000Y-80829750D01*
X145120250Y-80673000D01*
X144300000Y-80669966D01*
X144177086Y-80682072D01*
X144058896Y-80717924D01*
X143949972Y-80776146D01*
X143854499Y-80854499D01*
X143776146Y-80949972D01*
X143717924Y-81058896D01*
X143682072Y-81177086D01*
X143669966Y-81300000D01*
X143627000Y-81300000D01*
X143627000Y-80127000D01*
X148373000Y-80127000D01*
X148373000Y-87500000D01*
X148373000Y-87500000D01*
G37*
X148373000Y-87500000D02*
X148375440Y-87524776D01*
X148382667Y-87548601D01*
X148394403Y-87570557D01*
X148410197Y-87589803D01*
X149910197Y-89089803D01*
X149929443Y-89105597D01*
X149951399Y-89117333D01*
X149975224Y-89124560D01*
X150000000Y-89127000D01*
X158447394Y-89127000D01*
X162873000Y-93552606D01*
X162873000Y-99873000D01*
X145552606Y-99873000D01*
X143627000Y-97947394D01*
X143627000Y-97700000D01*
X143669966Y-97700000D01*
X143682072Y-97822914D01*
X143717924Y-97941104D01*
X143776146Y-98050028D01*
X143854499Y-98145501D01*
X143949972Y-98223854D01*
X144058896Y-98282076D01*
X144177086Y-98317928D01*
X144300000Y-98330034D01*
X145120250Y-98327000D01*
X145277000Y-98170250D01*
X145277000Y-96723000D01*
X145723000Y-96723000D01*
X145723000Y-98170250D01*
X145879750Y-98327000D01*
X146700000Y-98330034D01*
X146822914Y-98317928D01*
X146941104Y-98282076D01*
X147050028Y-98223854D01*
X147145501Y-98145501D01*
X147223854Y-98050028D01*
X147282076Y-97941104D01*
X147317928Y-97822914D01*
X147330034Y-97700000D01*
X147327000Y-96879750D01*
X147170250Y-96723000D01*
X145723000Y-96723000D01*
X145277000Y-96723000D01*
X143829750Y-96723000D01*
X143673000Y-96879750D01*
X143669966Y-97700000D01*
X143627000Y-97700000D01*
X143627000Y-95300000D01*
X143669966Y-95300000D01*
X143673000Y-96120250D01*
X143829750Y-96277000D01*
X145277000Y-96277000D01*
X145277000Y-94829750D01*
X145723000Y-94829750D01*
X145723000Y-96277000D01*
X147170250Y-96277000D01*
X147327000Y-96120250D01*
X147330034Y-95300000D01*
X147317928Y-95177086D01*
X147282076Y-95058896D01*
X147223854Y-94949972D01*
X147145501Y-94854499D01*
X147050028Y-94776146D01*
X146941104Y-94717924D01*
X146822914Y-94682072D01*
X146700000Y-94669966D01*
X145879750Y-94673000D01*
X145723000Y-94829750D01*
X145277000Y-94829750D01*
X145120250Y-94673000D01*
X144300000Y-94669966D01*
X144177086Y-94682072D01*
X144058896Y-94717924D01*
X143949972Y-94776146D01*
X143854499Y-94854499D01*
X143776146Y-94949972D01*
X143717924Y-95058896D01*
X143682072Y-95177086D01*
X143669966Y-95300000D01*
X143627000Y-95300000D01*
X143627000Y-83700000D01*
X143669966Y-83700000D01*
X143682072Y-83822914D01*
X143717924Y-83941104D01*
X143776146Y-84050028D01*
X143854499Y-84145501D01*
X143949972Y-84223854D01*
X144058896Y-84282076D01*
X144177086Y-84317928D01*
X144300000Y-84330034D01*
X145120250Y-84327000D01*
X145277000Y-84170250D01*
X145277000Y-82723000D01*
X145723000Y-82723000D01*
X145723000Y-84170250D01*
X145879750Y-84327000D01*
X146700000Y-84330034D01*
X146822914Y-84317928D01*
X146941104Y-84282076D01*
X147050028Y-84223854D01*
X147145501Y-84145501D01*
X147223854Y-84050028D01*
X147282076Y-83941104D01*
X147317928Y-83822914D01*
X147330034Y-83700000D01*
X147327000Y-82879750D01*
X147170250Y-82723000D01*
X145723000Y-82723000D01*
X145277000Y-82723000D01*
X143829750Y-82723000D01*
X143673000Y-82879750D01*
X143669966Y-83700000D01*
X143627000Y-83700000D01*
X143627000Y-81300000D01*
X143669966Y-81300000D01*
X143673000Y-82120250D01*
X143829750Y-82277000D01*
X145277000Y-82277000D01*
X145277000Y-80829750D01*
X145723000Y-80829750D01*
X145723000Y-82277000D01*
X147170250Y-82277000D01*
X147327000Y-82120250D01*
X147330034Y-81300000D01*
X147317928Y-81177086D01*
X147282076Y-81058896D01*
X147223854Y-80949972D01*
X147145501Y-80854499D01*
X147050028Y-80776146D01*
X146941104Y-80717924D01*
X146822914Y-80682072D01*
X146700000Y-80669966D01*
X145879750Y-80673000D01*
X145723000Y-80829750D01*
X145277000Y-80829750D01*
X145120250Y-80673000D01*
X144300000Y-80669966D01*
X144177086Y-80682072D01*
X144058896Y-80717924D01*
X143949972Y-80776146D01*
X143854499Y-80854499D01*
X143776146Y-80949972D01*
X143717924Y-81058896D01*
X143682072Y-81177086D01*
X143669966Y-81300000D01*
X143627000Y-81300000D01*
X143627000Y-80127000D01*
X148373000Y-80127000D01*
X148373000Y-87500000D01*
D27*
G36*
X162093454Y-52310611D02*
G01*
X163000000Y-53217157D01*
X163906546Y-52310611D01*
X163844131Y-52150000D01*
X211187868Y-52150000D01*
X212412868Y-53375000D01*
X211187868Y-54600000D01*
X164243717Y-54600000D01*
X164313281Y-54530436D01*
X164189390Y-54406545D01*
X164449100Y-54305619D01*
X164578424Y-54007433D01*
X164647091Y-53689748D01*
X164652460Y-53364770D01*
X164594326Y-53044990D01*
X164474924Y-52742695D01*
X164449100Y-52694381D01*
X164189389Y-52593454D01*
X163282843Y-53500000D01*
X163296985Y-53514142D01*
X163014142Y-53796985D01*
X163000000Y-53782843D01*
X162985858Y-53796985D01*
X162703015Y-53514142D01*
X162717157Y-53500000D01*
X161810611Y-52593454D01*
X161550900Y-52694381D01*
X161421576Y-52992567D01*
X161352909Y-53310252D01*
X161347540Y-53635230D01*
X161405674Y-53955010D01*
X161525076Y-54257305D01*
X161550900Y-54305619D01*
X161810610Y-54406545D01*
X161686719Y-54530436D01*
X161756283Y-54600000D01*
X132550230Y-54600000D01*
X132534973Y-54563167D01*
X132376289Y-54325679D01*
X132174321Y-54123711D01*
X131936833Y-53965027D01*
X131672949Y-53855723D01*
X131392813Y-53800000D01*
X131107187Y-53800000D01*
X130827051Y-53855723D01*
X130563167Y-53965027D01*
X130361165Y-54100000D01*
X125888835Y-54100000D01*
X125686833Y-53965027D01*
X125422949Y-53855723D01*
X125142813Y-53800000D01*
X124857187Y-53800000D01*
X124577051Y-53855723D01*
X124313167Y-53965027D01*
X124075679Y-54123711D01*
X123873711Y-54325679D01*
X123715027Y-54563167D01*
X123699770Y-54600000D01*
X101750000Y-54600000D01*
X101720736Y-54602882D01*
X101692597Y-54611418D01*
X101666664Y-54625280D01*
X101643934Y-54643934D01*
X100687868Y-55600000D01*
X95726344Y-55600000D01*
X94941674Y-54815330D01*
X94894277Y-54577051D01*
X94784973Y-54313167D01*
X94626289Y-54075679D01*
X94424321Y-53873711D01*
X94186833Y-53715027D01*
X93922949Y-53605723D01*
X93642813Y-53550000D01*
X93400000Y-53550000D01*
X93400000Y-52150000D01*
X162155869Y-52150000D01*
X162093454Y-52310611D01*
X162093454Y-52310611D01*
G37*
X162093454Y-52310611D02*
X163000000Y-53217157D01*
X163906546Y-52310611D01*
X163844131Y-52150000D01*
X211187868Y-52150000D01*
X212412868Y-53375000D01*
X211187868Y-54600000D01*
X164243717Y-54600000D01*
X164313281Y-54530436D01*
X164189390Y-54406545D01*
X164449100Y-54305619D01*
X164578424Y-54007433D01*
X164647091Y-53689748D01*
X164652460Y-53364770D01*
X164594326Y-53044990D01*
X164474924Y-52742695D01*
X164449100Y-52694381D01*
X164189389Y-52593454D01*
X163282843Y-53500000D01*
X163296985Y-53514142D01*
X163014142Y-53796985D01*
X163000000Y-53782843D01*
X162985858Y-53796985D01*
X162703015Y-53514142D01*
X162717157Y-53500000D01*
X161810611Y-52593454D01*
X161550900Y-52694381D01*
X161421576Y-52992567D01*
X161352909Y-53310252D01*
X161347540Y-53635230D01*
X161405674Y-53955010D01*
X161525076Y-54257305D01*
X161550900Y-54305619D01*
X161810610Y-54406545D01*
X161686719Y-54530436D01*
X161756283Y-54600000D01*
X132550230Y-54600000D01*
X132534973Y-54563167D01*
X132376289Y-54325679D01*
X132174321Y-54123711D01*
X131936833Y-53965027D01*
X131672949Y-53855723D01*
X131392813Y-53800000D01*
X131107187Y-53800000D01*
X130827051Y-53855723D01*
X130563167Y-53965027D01*
X130361165Y-54100000D01*
X125888835Y-54100000D01*
X125686833Y-53965027D01*
X125422949Y-53855723D01*
X125142813Y-53800000D01*
X124857187Y-53800000D01*
X124577051Y-53855723D01*
X124313167Y-53965027D01*
X124075679Y-54123711D01*
X123873711Y-54325679D01*
X123715027Y-54563167D01*
X123699770Y-54600000D01*
X101750000Y-54600000D01*
X101720736Y-54602882D01*
X101692597Y-54611418D01*
X101666664Y-54625280D01*
X101643934Y-54643934D01*
X100687868Y-55600000D01*
X95726344Y-55600000D01*
X94941674Y-54815330D01*
X94894277Y-54577051D01*
X94784973Y-54313167D01*
X94626289Y-54075679D01*
X94424321Y-53873711D01*
X94186833Y-53715027D01*
X93922949Y-53605723D01*
X93642813Y-53550000D01*
X93400000Y-53550000D01*
X93400000Y-52150000D01*
X162155869Y-52150000D01*
X162093454Y-52310611D01*
G36*
X123605723Y-55672949D02*
G01*
X123715027Y-55936833D01*
X123873711Y-56174321D01*
X124075679Y-56376289D01*
X124313167Y-56534973D01*
X124577051Y-56644277D01*
X124857187Y-56700000D01*
X125142813Y-56700000D01*
X125422949Y-56644277D01*
X125686833Y-56534973D01*
X125888835Y-56400000D01*
X130361165Y-56400000D01*
X130563167Y-56534973D01*
X130827051Y-56644277D01*
X131107187Y-56700000D01*
X131392813Y-56700000D01*
X131672949Y-56644277D01*
X131936833Y-56534973D01*
X132174321Y-56376289D01*
X132376289Y-56174321D01*
X132534973Y-55936833D01*
X132644277Y-55672949D01*
X132698570Y-55400000D01*
X162155869Y-55400000D01*
X162093454Y-55560611D01*
X163000000Y-56467157D01*
X163906546Y-55560611D01*
X163844131Y-55400000D01*
X211187868Y-55400000D01*
X212412868Y-56625000D01*
X211187868Y-57850000D01*
X164243717Y-57850000D01*
X164313281Y-57780436D01*
X164189390Y-57656545D01*
X164449100Y-57555619D01*
X164578424Y-57257433D01*
X164647091Y-56939748D01*
X164652460Y-56614770D01*
X164594326Y-56294990D01*
X164474924Y-55992695D01*
X164449100Y-55944381D01*
X164189389Y-55843454D01*
X163282843Y-56750000D01*
X163296985Y-56764142D01*
X163014142Y-57046985D01*
X163000000Y-57032843D01*
X162985858Y-57046985D01*
X162703015Y-56764142D01*
X162717157Y-56750000D01*
X161810611Y-55843454D01*
X161550900Y-55944381D01*
X161421576Y-56242567D01*
X161352909Y-56560252D01*
X161347540Y-56885230D01*
X161405674Y-57205010D01*
X161525076Y-57507305D01*
X161550900Y-57555619D01*
X161810610Y-57656545D01*
X161686719Y-57780436D01*
X161756283Y-57850000D01*
X119000000Y-57850000D01*
X118970736Y-57852882D01*
X118942597Y-57861418D01*
X118916664Y-57875280D01*
X118893934Y-57893934D01*
X118437868Y-58350000D01*
X102400000Y-58350000D01*
X102400000Y-55400000D01*
X123551430Y-55400000D01*
X123605723Y-55672949D01*
X123605723Y-55672949D01*
G37*
X123605723Y-55672949D02*
X123715027Y-55936833D01*
X123873711Y-56174321D01*
X124075679Y-56376289D01*
X124313167Y-56534973D01*
X124577051Y-56644277D01*
X124857187Y-56700000D01*
X125142813Y-56700000D01*
X125422949Y-56644277D01*
X125686833Y-56534973D01*
X125888835Y-56400000D01*
X130361165Y-56400000D01*
X130563167Y-56534973D01*
X130827051Y-56644277D01*
X131107187Y-56700000D01*
X131392813Y-56700000D01*
X131672949Y-56644277D01*
X131936833Y-56534973D01*
X132174321Y-56376289D01*
X132376289Y-56174321D01*
X132534973Y-55936833D01*
X132644277Y-55672949D01*
X132698570Y-55400000D01*
X162155869Y-55400000D01*
X162093454Y-55560611D01*
X163000000Y-56467157D01*
X163906546Y-55560611D01*
X163844131Y-55400000D01*
X211187868Y-55400000D01*
X212412868Y-56625000D01*
X211187868Y-57850000D01*
X164243717Y-57850000D01*
X164313281Y-57780436D01*
X164189390Y-57656545D01*
X164449100Y-57555619D01*
X164578424Y-57257433D01*
X164647091Y-56939748D01*
X164652460Y-56614770D01*
X164594326Y-56294990D01*
X164474924Y-55992695D01*
X164449100Y-55944381D01*
X164189389Y-55843454D01*
X163282843Y-56750000D01*
X163296985Y-56764142D01*
X163014142Y-57046985D01*
X163000000Y-57032843D01*
X162985858Y-57046985D01*
X162703015Y-56764142D01*
X162717157Y-56750000D01*
X161810611Y-55843454D01*
X161550900Y-55944381D01*
X161421576Y-56242567D01*
X161352909Y-56560252D01*
X161347540Y-56885230D01*
X161405674Y-57205010D01*
X161525076Y-57507305D01*
X161550900Y-57555619D01*
X161810610Y-57656545D01*
X161686719Y-57780436D01*
X161756283Y-57850000D01*
X119000000Y-57850000D01*
X118970736Y-57852882D01*
X118942597Y-57861418D01*
X118916664Y-57875280D01*
X118893934Y-57893934D01*
X118437868Y-58350000D01*
X102400000Y-58350000D01*
X102400000Y-55400000D01*
X123551430Y-55400000D01*
X123605723Y-55672949D01*
G36*
X162093454Y-58810611D02*
G01*
X163000000Y-59717157D01*
X163906546Y-58810611D01*
X163844131Y-58650000D01*
X211187868Y-58650000D01*
X212412868Y-59875000D01*
X211187868Y-61100000D01*
X164243717Y-61100000D01*
X164313281Y-61030436D01*
X164189390Y-60906545D01*
X164449100Y-60805619D01*
X164578424Y-60507433D01*
X164647091Y-60189748D01*
X164652460Y-59864770D01*
X164594326Y-59544990D01*
X164474924Y-59242695D01*
X164449100Y-59194381D01*
X164189389Y-59093454D01*
X163282843Y-60000000D01*
X163296985Y-60014142D01*
X163014142Y-60296985D01*
X163000000Y-60282843D01*
X162985858Y-60296985D01*
X162703015Y-60014142D01*
X162717157Y-60000000D01*
X161810611Y-59093454D01*
X161550900Y-59194381D01*
X161421576Y-59492567D01*
X161352909Y-59810252D01*
X161347540Y-60135230D01*
X161405674Y-60455010D01*
X161525076Y-60757305D01*
X161550900Y-60805619D01*
X161810610Y-60906545D01*
X161686719Y-61030436D01*
X161756283Y-61100000D01*
X130894178Y-61100000D01*
X130642813Y-61050000D01*
X130357187Y-61050000D01*
X130105822Y-61100000D01*
X124000000Y-61100000D01*
X123970736Y-61102882D01*
X123942597Y-61111418D01*
X123916664Y-61125280D01*
X123893934Y-61143934D01*
X122437868Y-62600000D01*
X119150000Y-62600000D01*
X119150000Y-59062132D01*
X119562132Y-58650000D01*
X162155869Y-58650000D01*
X162093454Y-58810611D01*
X162093454Y-58810611D01*
G37*
X162093454Y-58810611D02*
X163000000Y-59717157D01*
X163906546Y-58810611D01*
X163844131Y-58650000D01*
X211187868Y-58650000D01*
X212412868Y-59875000D01*
X211187868Y-61100000D01*
X164243717Y-61100000D01*
X164313281Y-61030436D01*
X164189390Y-60906545D01*
X164449100Y-60805619D01*
X164578424Y-60507433D01*
X164647091Y-60189748D01*
X164652460Y-59864770D01*
X164594326Y-59544990D01*
X164474924Y-59242695D01*
X164449100Y-59194381D01*
X164189389Y-59093454D01*
X163282843Y-60000000D01*
X163296985Y-60014142D01*
X163014142Y-60296985D01*
X163000000Y-60282843D01*
X162985858Y-60296985D01*
X162703015Y-60014142D01*
X162717157Y-60000000D01*
X161810611Y-59093454D01*
X161550900Y-59194381D01*
X161421576Y-59492567D01*
X161352909Y-59810252D01*
X161347540Y-60135230D01*
X161405674Y-60455010D01*
X161525076Y-60757305D01*
X161550900Y-60805619D01*
X161810610Y-60906545D01*
X161686719Y-61030436D01*
X161756283Y-61100000D01*
X130894178Y-61100000D01*
X130642813Y-61050000D01*
X130357187Y-61050000D01*
X130105822Y-61100000D01*
X124000000Y-61100000D01*
X123970736Y-61102882D01*
X123942597Y-61111418D01*
X123916664Y-61125280D01*
X123893934Y-61143934D01*
X122437868Y-62600000D01*
X119150000Y-62600000D01*
X119150000Y-59062132D01*
X119562132Y-58650000D01*
X162155869Y-58650000D01*
X162093454Y-58810611D01*
G36*
X212412868Y-63625000D02*
G01*
X211187868Y-64850000D01*
X138144178Y-64850000D01*
X137892813Y-64800000D01*
X137607187Y-64800000D01*
X137355822Y-64850000D01*
X127000000Y-64850000D01*
X126970736Y-64852882D01*
X126942597Y-64861418D01*
X126916664Y-64875280D01*
X126893934Y-64893934D01*
X126437868Y-65350000D01*
X123400000Y-65350000D01*
X123400000Y-63312132D01*
X124312132Y-62400000D01*
X211187868Y-62400000D01*
X212412868Y-63625000D01*
X212412868Y-63625000D01*
G37*
X212412868Y-63625000D02*
X211187868Y-64850000D01*
X138144178Y-64850000D01*
X137892813Y-64800000D01*
X137607187Y-64800000D01*
X137355822Y-64850000D01*
X127000000Y-64850000D01*
X126970736Y-64852882D01*
X126942597Y-64861418D01*
X126916664Y-64875280D01*
X126893934Y-64893934D01*
X126437868Y-65350000D01*
X123400000Y-65350000D01*
X123400000Y-63312132D01*
X124312132Y-62400000D01*
X211187868Y-62400000D01*
X212412868Y-63625000D01*
G36*
X212412868Y-66875000D02*
G01*
X211187868Y-68100000D01*
X158138835Y-68100000D01*
X157936833Y-67965027D01*
X157672949Y-67855723D01*
X157392813Y-67800000D01*
X157107187Y-67800000D01*
X156827051Y-67855723D01*
X156563167Y-67965027D01*
X156375000Y-68090756D01*
X156186833Y-67965027D01*
X155922949Y-67855723D01*
X155642813Y-67800000D01*
X155357187Y-67800000D01*
X155077051Y-67855723D01*
X154813167Y-67965027D01*
X154611165Y-68100000D01*
X139500000Y-68100000D01*
X139470736Y-68102882D01*
X139442597Y-68111418D01*
X139416664Y-68125280D01*
X139393934Y-68143934D01*
X138687868Y-68850000D01*
X135150000Y-68850000D01*
X135150000Y-67562132D01*
X137062132Y-65650000D01*
X211187868Y-65650000D01*
X212412868Y-66875000D01*
X212412868Y-66875000D01*
G37*
X212412868Y-66875000D02*
X211187868Y-68100000D01*
X158138835Y-68100000D01*
X157936833Y-67965027D01*
X157672949Y-67855723D01*
X157392813Y-67800000D01*
X157107187Y-67800000D01*
X156827051Y-67855723D01*
X156563167Y-67965027D01*
X156375000Y-68090756D01*
X156186833Y-67965027D01*
X155922949Y-67855723D01*
X155642813Y-67800000D01*
X155357187Y-67800000D01*
X155077051Y-67855723D01*
X154813167Y-67965027D01*
X154611165Y-68100000D01*
X139500000Y-68100000D01*
X139470736Y-68102882D01*
X139442597Y-68111418D01*
X139416664Y-68125280D01*
X139393934Y-68143934D01*
X138687868Y-68850000D01*
X135150000Y-68850000D01*
X135150000Y-67562132D01*
X137062132Y-65650000D01*
X211187868Y-65650000D01*
X212412868Y-66875000D01*
G36*
X212412868Y-70125000D02*
G01*
X211187868Y-71350000D01*
X154650000Y-71350000D01*
X154650000Y-68900000D01*
X211187868Y-68900000D01*
X212412868Y-70125000D01*
X212412868Y-70125000D01*
G37*
X212412868Y-70125000D02*
X211187868Y-71350000D01*
X154650000Y-71350000D01*
X154650000Y-68900000D01*
X211187868Y-68900000D01*
X212412868Y-70125000D01*
D26*
G36*
X234448000Y-50373000D02*
G01*
X77500000Y-50373000D01*
X77475224Y-50375440D01*
X77451399Y-50382667D01*
X77429443Y-50394403D01*
X77410197Y-50410197D01*
X77394403Y-50429443D01*
X77382667Y-50451399D01*
X77375440Y-50475224D01*
X77373000Y-50500000D01*
X77373000Y-144500000D01*
X77375440Y-144524776D01*
X77382667Y-144548601D01*
X77394403Y-144570557D01*
X77410197Y-144589803D01*
X77429443Y-144605597D01*
X77451399Y-144617333D01*
X77475224Y-144624560D01*
X77500000Y-144627000D01*
X197000000Y-144627000D01*
X197024776Y-144624560D01*
X197048601Y-144617333D01*
X197070557Y-144605597D01*
X197089803Y-144589803D01*
X198089803Y-143589803D01*
X198105597Y-143570557D01*
X198117333Y-143548601D01*
X198124560Y-143524776D01*
X198127000Y-143500000D01*
X198127000Y-137552606D01*
X199052606Y-136627000D01*
X200947394Y-136627000D01*
X201873000Y-137552606D01*
X201873000Y-143500000D01*
X201875440Y-143524776D01*
X201882667Y-143548601D01*
X201894403Y-143570557D01*
X201910197Y-143589803D01*
X202910197Y-144589803D01*
X202929443Y-144605597D01*
X202951399Y-144617333D01*
X202975224Y-144624560D01*
X203000000Y-144627000D01*
X222500000Y-144627000D01*
X222524776Y-144624560D01*
X222548601Y-144617333D01*
X222570557Y-144605597D01*
X222589803Y-144589803D01*
X222605597Y-144570557D01*
X222617333Y-144548601D01*
X222624560Y-144524776D01*
X222627000Y-144500000D01*
X222627000Y-104576308D01*
X225209061Y-104576308D01*
X225434374Y-104929013D01*
X225901326Y-105152028D01*
X226402813Y-105279659D01*
X226919564Y-105307003D01*
X227431721Y-105233008D01*
X227919600Y-105060517D01*
X228165626Y-104929013D01*
X228390939Y-104576308D01*
X226800000Y-102985370D01*
X225209061Y-104576308D01*
X222627000Y-104576308D01*
X222627000Y-102789564D01*
X224162997Y-102789564D01*
X224236992Y-103301721D01*
X224409483Y-103789600D01*
X224540987Y-104035626D01*
X224893692Y-104260939D01*
X226484630Y-102670000D01*
X227115370Y-102670000D01*
X228706308Y-104260939D01*
X229059013Y-104035626D01*
X229282028Y-103568674D01*
X229409659Y-103067187D01*
X229437003Y-102550436D01*
X229363008Y-102038279D01*
X229190517Y-101550400D01*
X229059013Y-101304374D01*
X228706308Y-101079061D01*
X227115370Y-102670000D01*
X226484630Y-102670000D01*
X224893692Y-101079061D01*
X224540987Y-101304374D01*
X224317972Y-101771326D01*
X224190341Y-102272813D01*
X224162997Y-102789564D01*
X222627000Y-102789564D01*
X222627000Y-101802606D01*
X223665914Y-100763692D01*
X225209061Y-100763692D01*
X226800000Y-102354630D01*
X228390939Y-100763692D01*
X228165626Y-100410987D01*
X227698674Y-100187972D01*
X227197187Y-100060341D01*
X226680436Y-100032997D01*
X226168279Y-100106992D01*
X225680400Y-100279483D01*
X225434374Y-100410987D01*
X225209061Y-100763692D01*
X223665914Y-100763692D01*
X225052606Y-99377000D01*
X234448001Y-99377000D01*
X234448001Y-146698000D01*
X75552000Y-146698000D01*
X75552000Y-48302000D01*
X234448000Y-48302000D01*
X234448000Y-50373000D01*
X234448000Y-50373000D01*
G37*
X234448000Y-50373000D02*
X77500000Y-50373000D01*
X77475224Y-50375440D01*
X77451399Y-50382667D01*
X77429443Y-50394403D01*
X77410197Y-50410197D01*
X77394403Y-50429443D01*
X77382667Y-50451399D01*
X77375440Y-50475224D01*
X77373000Y-50500000D01*
X77373000Y-144500000D01*
X77375440Y-144524776D01*
X77382667Y-144548601D01*
X77394403Y-144570557D01*
X77410197Y-144589803D01*
X77429443Y-144605597D01*
X77451399Y-144617333D01*
X77475224Y-144624560D01*
X77500000Y-144627000D01*
X197000000Y-144627000D01*
X197024776Y-144624560D01*
X197048601Y-144617333D01*
X197070557Y-144605597D01*
X197089803Y-144589803D01*
X198089803Y-143589803D01*
X198105597Y-143570557D01*
X198117333Y-143548601D01*
X198124560Y-143524776D01*
X198127000Y-143500000D01*
X198127000Y-137552606D01*
X199052606Y-136627000D01*
X200947394Y-136627000D01*
X201873000Y-137552606D01*
X201873000Y-143500000D01*
X201875440Y-143524776D01*
X201882667Y-143548601D01*
X201894403Y-143570557D01*
X201910197Y-143589803D01*
X202910197Y-144589803D01*
X202929443Y-144605597D01*
X202951399Y-144617333D01*
X202975224Y-144624560D01*
X203000000Y-144627000D01*
X222500000Y-144627000D01*
X222524776Y-144624560D01*
X222548601Y-144617333D01*
X222570557Y-144605597D01*
X222589803Y-144589803D01*
X222605597Y-144570557D01*
X222617333Y-144548601D01*
X222624560Y-144524776D01*
X222627000Y-144500000D01*
X222627000Y-104576308D01*
X225209061Y-104576308D01*
X225434374Y-104929013D01*
X225901326Y-105152028D01*
X226402813Y-105279659D01*
X226919564Y-105307003D01*
X227431721Y-105233008D01*
X227919600Y-105060517D01*
X228165626Y-104929013D01*
X228390939Y-104576308D01*
X226800000Y-102985370D01*
X225209061Y-104576308D01*
X222627000Y-104576308D01*
X222627000Y-102789564D01*
X224162997Y-102789564D01*
X224236992Y-103301721D01*
X224409483Y-103789600D01*
X224540987Y-104035626D01*
X224893692Y-104260939D01*
X226484630Y-102670000D01*
X227115370Y-102670000D01*
X228706308Y-104260939D01*
X229059013Y-104035626D01*
X229282028Y-103568674D01*
X229409659Y-103067187D01*
X229437003Y-102550436D01*
X229363008Y-102038279D01*
X229190517Y-101550400D01*
X229059013Y-101304374D01*
X228706308Y-101079061D01*
X227115370Y-102670000D01*
X226484630Y-102670000D01*
X224893692Y-101079061D01*
X224540987Y-101304374D01*
X224317972Y-101771326D01*
X224190341Y-102272813D01*
X224162997Y-102789564D01*
X222627000Y-102789564D01*
X222627000Y-101802606D01*
X223665914Y-100763692D01*
X225209061Y-100763692D01*
X226800000Y-102354630D01*
X228390939Y-100763692D01*
X228165626Y-100410987D01*
X227698674Y-100187972D01*
X227197187Y-100060341D01*
X226680436Y-100032997D01*
X226168279Y-100106992D01*
X225680400Y-100279483D01*
X225434374Y-100410987D01*
X225209061Y-100763692D01*
X223665914Y-100763692D01*
X225052606Y-99377000D01*
X234448001Y-99377000D01*
X234448001Y-146698000D01*
X75552000Y-146698000D01*
X75552000Y-48302000D01*
X234448000Y-48302000D01*
X234448000Y-50373000D01*
G36*
X212445394Y-73875000D02*
G01*
X211197394Y-75123000D01*
X197250000Y-75123000D01*
X197225224Y-75125440D01*
X197201399Y-75132667D01*
X197179443Y-75144403D01*
X197160197Y-75160197D01*
X192447394Y-79873000D01*
X187127000Y-79873000D01*
X187127000Y-72627000D01*
X211197394Y-72627000D01*
X212445394Y-73875000D01*
X212445394Y-73875000D01*
G37*
X212445394Y-73875000D02*
X211197394Y-75123000D01*
X197250000Y-75123000D01*
X197225224Y-75125440D01*
X197201399Y-75132667D01*
X197179443Y-75144403D01*
X197160197Y-75160197D01*
X192447394Y-79873000D01*
X187127000Y-79873000D01*
X187127000Y-72627000D01*
X211197394Y-72627000D01*
X212445394Y-73875000D01*
G36*
X212445394Y-77125000D02*
G01*
X211197394Y-78373000D01*
X198500000Y-78373000D01*
X198475224Y-78375440D01*
X198451399Y-78382667D01*
X198429443Y-78394403D01*
X198410197Y-78410197D01*
X192447394Y-84373000D01*
X183627000Y-84373000D01*
X183627000Y-80627000D01*
X192750000Y-80627000D01*
X192774776Y-80624560D01*
X192798601Y-80617333D01*
X192820557Y-80605597D01*
X192839803Y-80589803D01*
X197552606Y-75877000D01*
X211197394Y-75877000D01*
X212445394Y-77125000D01*
X212445394Y-77125000D01*
G37*
X212445394Y-77125000D02*
X211197394Y-78373000D01*
X198500000Y-78373000D01*
X198475224Y-78375440D01*
X198451399Y-78382667D01*
X198429443Y-78394403D01*
X198410197Y-78410197D01*
X192447394Y-84373000D01*
X183627000Y-84373000D01*
X183627000Y-80627000D01*
X192750000Y-80627000D01*
X192774776Y-80624560D01*
X192798601Y-80617333D01*
X192820557Y-80605597D01*
X192839803Y-80589803D01*
X197552606Y-75877000D01*
X211197394Y-75877000D01*
X212445394Y-77125000D01*
G36*
X212445394Y-80375000D02*
G01*
X211197394Y-81623000D01*
X199750000Y-81623000D01*
X199725224Y-81625440D01*
X199701399Y-81632667D01*
X199679443Y-81644403D01*
X199660197Y-81660197D01*
X193697394Y-87623000D01*
X187500000Y-87623000D01*
X187475224Y-87625440D01*
X187451399Y-87632667D01*
X187429443Y-87644403D01*
X187410197Y-87660197D01*
X186197394Y-88873000D01*
X181877000Y-88873000D01*
X181877000Y-85127000D01*
X192750000Y-85127000D01*
X192774776Y-85124560D01*
X192798601Y-85117333D01*
X192820557Y-85105597D01*
X192839803Y-85089803D01*
X198802606Y-79127000D01*
X211197394Y-79127000D01*
X212445394Y-80375000D01*
X212445394Y-80375000D01*
G37*
X212445394Y-80375000D02*
X211197394Y-81623000D01*
X199750000Y-81623000D01*
X199725224Y-81625440D01*
X199701399Y-81632667D01*
X199679443Y-81644403D01*
X199660197Y-81660197D01*
X193697394Y-87623000D01*
X187500000Y-87623000D01*
X187475224Y-87625440D01*
X187451399Y-87632667D01*
X187429443Y-87644403D01*
X187410197Y-87660197D01*
X186197394Y-88873000D01*
X181877000Y-88873000D01*
X181877000Y-85127000D01*
X192750000Y-85127000D01*
X192774776Y-85124560D01*
X192798601Y-85117333D01*
X192820557Y-85105597D01*
X192839803Y-85089803D01*
X198802606Y-79127000D01*
X211197394Y-79127000D01*
X212445394Y-80375000D01*
M02*
