G04 #@! TF.GenerationSoftware,KiCad,Pcbnew,5.1.4*
G04 #@! TF.CreationDate,2019-09-17T23:30:44+02:00*
G04 #@! TF.ProjectId,Supply-Board,53757070-6c79-42d4-926f-6172642e6b69,rev?*
G04 #@! TF.SameCoordinates,Original*
G04 #@! TF.FileFunction,Soldermask,Bot*
G04 #@! TF.FilePolarity,Negative*
%FSLAX46Y46*%
G04 Gerber Fmt 4.6, Leading zero omitted, Abs format (unit mm)*
G04 Created by KiCad (PCBNEW 5.1.4) date 2019-09-17 23:30:44*
%MOMM*%
%LPD*%
G04 APERTURE LIST*
%ADD10C,0.100000*%
G04 APERTURE END LIST*
D10*
G36*
X236000000Y-50500000D02*
G01*
X74000000Y-50500000D01*
X74000000Y-46500000D01*
X236000000Y-46500000D01*
X236000000Y-50500000D01*
G37*
X236000000Y-50500000D02*
X74000000Y-50500000D01*
X74000000Y-46500000D01*
X236000000Y-46500000D01*
X236000000Y-50500000D01*
G36*
X236000000Y-148500000D02*
G01*
X74000000Y-148500000D01*
X74000000Y-144500000D01*
X236000000Y-144500000D01*
X236000000Y-148500000D01*
G37*
X236000000Y-148500000D02*
X74000000Y-148500000D01*
X74000000Y-144500000D01*
X236000000Y-144500000D01*
X236000000Y-148500000D01*
G36*
X192052585Y-136978802D02*
G01*
X192202410Y-137008604D01*
X192484674Y-137125521D01*
X192738705Y-137295259D01*
X192954741Y-137511295D01*
X193124479Y-137765326D01*
X193241396Y-138047590D01*
X193301000Y-138347240D01*
X193301000Y-138652760D01*
X193241396Y-138952410D01*
X193124479Y-139234674D01*
X192954741Y-139488705D01*
X192738705Y-139704741D01*
X192484674Y-139874479D01*
X192202410Y-139991396D01*
X192052585Y-140021198D01*
X191902761Y-140051000D01*
X191597239Y-140051000D01*
X191447415Y-140021198D01*
X191297590Y-139991396D01*
X191015326Y-139874479D01*
X190761295Y-139704741D01*
X190545259Y-139488705D01*
X190375521Y-139234674D01*
X190258604Y-138952410D01*
X190199000Y-138652760D01*
X190199000Y-138347240D01*
X190258604Y-138047590D01*
X190375521Y-137765326D01*
X190545259Y-137511295D01*
X190761295Y-137295259D01*
X191015326Y-137125521D01*
X191297590Y-137008604D01*
X191447415Y-136978802D01*
X191597239Y-136949000D01*
X191902761Y-136949000D01*
X192052585Y-136978802D01*
X192052585Y-136978802D01*
G37*
G36*
X182551000Y-140051000D02*
G01*
X179449000Y-140051000D01*
X179449000Y-136949000D01*
X182551000Y-136949000D01*
X182551000Y-140051000D01*
X182551000Y-140051000D01*
G37*
G36*
X200394072Y-137200918D02*
G01*
X200621833Y-137295259D01*
X200639939Y-137302759D01*
X200861212Y-137450610D01*
X201049390Y-137638788D01*
X201197241Y-137860061D01*
X201299082Y-138105928D01*
X201351000Y-138366938D01*
X201351000Y-138633062D01*
X201299082Y-138894072D01*
X201197241Y-139139939D01*
X201049390Y-139361212D01*
X200861212Y-139549390D01*
X200639939Y-139697241D01*
X200639938Y-139697242D01*
X200639937Y-139697242D01*
X200394072Y-139799082D01*
X200133063Y-139851000D01*
X199866937Y-139851000D01*
X199605928Y-139799082D01*
X199360063Y-139697242D01*
X199360062Y-139697242D01*
X199360061Y-139697241D01*
X199138788Y-139549390D01*
X198950610Y-139361212D01*
X198802759Y-139139939D01*
X198700918Y-138894072D01*
X198649000Y-138633062D01*
X198649000Y-138366938D01*
X198700918Y-138105928D01*
X198802759Y-137860061D01*
X198950610Y-137638788D01*
X199138788Y-137450610D01*
X199360061Y-137302759D01*
X199378168Y-137295259D01*
X199605928Y-137200918D01*
X199866937Y-137149000D01*
X200133063Y-137149000D01*
X200394072Y-137200918D01*
X200394072Y-137200918D01*
G37*
G36*
X111777395Y-135085546D02*
G01*
X111950466Y-135157234D01*
X111950467Y-135157235D01*
X112106227Y-135261310D01*
X112238690Y-135393773D01*
X112238691Y-135393775D01*
X112342766Y-135549534D01*
X112414454Y-135722605D01*
X112451000Y-135906333D01*
X112451000Y-136093667D01*
X112414454Y-136277395D01*
X112342766Y-136450466D01*
X112342765Y-136450467D01*
X112238690Y-136606227D01*
X112106227Y-136738690D01*
X112027818Y-136791081D01*
X111950466Y-136842766D01*
X111777395Y-136914454D01*
X111593667Y-136951000D01*
X111406333Y-136951000D01*
X111222605Y-136914454D01*
X111049534Y-136842766D01*
X110972182Y-136791081D01*
X110893773Y-136738690D01*
X110761310Y-136606227D01*
X110657235Y-136450467D01*
X110657234Y-136450466D01*
X110585546Y-136277395D01*
X110549000Y-136093667D01*
X110549000Y-135906333D01*
X110585546Y-135722605D01*
X110657234Y-135549534D01*
X110761309Y-135393775D01*
X110761310Y-135393773D01*
X110893773Y-135261310D01*
X111049533Y-135157235D01*
X111049534Y-135157234D01*
X111222605Y-135085546D01*
X111406333Y-135049000D01*
X111593667Y-135049000D01*
X111777395Y-135085546D01*
X111777395Y-135085546D01*
G37*
G36*
X157777395Y-135085546D02*
G01*
X157950466Y-135157234D01*
X157950467Y-135157235D01*
X158106227Y-135261310D01*
X158238690Y-135393773D01*
X158238691Y-135393775D01*
X158342766Y-135549534D01*
X158414454Y-135722605D01*
X158451000Y-135906333D01*
X158451000Y-136093667D01*
X158414454Y-136277395D01*
X158342766Y-136450466D01*
X158342765Y-136450467D01*
X158238690Y-136606227D01*
X158106227Y-136738690D01*
X158027818Y-136791081D01*
X157950466Y-136842766D01*
X157777395Y-136914454D01*
X157593667Y-136951000D01*
X157406333Y-136951000D01*
X157222605Y-136914454D01*
X157049534Y-136842766D01*
X156972182Y-136791081D01*
X156893773Y-136738690D01*
X156761310Y-136606227D01*
X156657235Y-136450467D01*
X156657234Y-136450466D01*
X156585546Y-136277395D01*
X156549000Y-136093667D01*
X156549000Y-135906333D01*
X156585546Y-135722605D01*
X156657234Y-135549534D01*
X156761309Y-135393775D01*
X156761310Y-135393773D01*
X156893773Y-135261310D01*
X157049533Y-135157235D01*
X157049534Y-135157234D01*
X157222605Y-135085546D01*
X157406333Y-135049000D01*
X157593667Y-135049000D01*
X157777395Y-135085546D01*
X157777395Y-135085546D01*
G37*
G36*
X132777395Y-135085546D02*
G01*
X132950466Y-135157234D01*
X132950467Y-135157235D01*
X133106227Y-135261310D01*
X133238690Y-135393773D01*
X133238691Y-135393775D01*
X133342766Y-135549534D01*
X133414454Y-135722605D01*
X133451000Y-135906333D01*
X133451000Y-136093667D01*
X133414454Y-136277395D01*
X133342766Y-136450466D01*
X133342765Y-136450467D01*
X133238690Y-136606227D01*
X133106227Y-136738690D01*
X133027818Y-136791081D01*
X132950466Y-136842766D01*
X132777395Y-136914454D01*
X132593667Y-136951000D01*
X132406333Y-136951000D01*
X132222605Y-136914454D01*
X132049534Y-136842766D01*
X131972182Y-136791081D01*
X131893773Y-136738690D01*
X131761310Y-136606227D01*
X131657235Y-136450467D01*
X131657234Y-136450466D01*
X131585546Y-136277395D01*
X131549000Y-136093667D01*
X131549000Y-135906333D01*
X131585546Y-135722605D01*
X131657234Y-135549534D01*
X131761309Y-135393775D01*
X131761310Y-135393773D01*
X131893773Y-135261310D01*
X132049533Y-135157235D01*
X132049534Y-135157234D01*
X132222605Y-135085546D01*
X132406333Y-135049000D01*
X132593667Y-135049000D01*
X132777395Y-135085546D01*
X132777395Y-135085546D01*
G37*
G36*
X86777395Y-135085546D02*
G01*
X86950466Y-135157234D01*
X86950467Y-135157235D01*
X87106227Y-135261310D01*
X87238690Y-135393773D01*
X87238691Y-135393775D01*
X87342766Y-135549534D01*
X87414454Y-135722605D01*
X87451000Y-135906333D01*
X87451000Y-136093667D01*
X87414454Y-136277395D01*
X87342766Y-136450466D01*
X87342765Y-136450467D01*
X87238690Y-136606227D01*
X87106227Y-136738690D01*
X87027818Y-136791081D01*
X86950466Y-136842766D01*
X86777395Y-136914454D01*
X86593667Y-136951000D01*
X86406333Y-136951000D01*
X86222605Y-136914454D01*
X86049534Y-136842766D01*
X85972182Y-136791081D01*
X85893773Y-136738690D01*
X85761310Y-136606227D01*
X85657235Y-136450467D01*
X85657234Y-136450466D01*
X85585546Y-136277395D01*
X85549000Y-136093667D01*
X85549000Y-135906333D01*
X85585546Y-135722605D01*
X85657234Y-135549534D01*
X85761309Y-135393775D01*
X85761310Y-135393773D01*
X85893773Y-135261310D01*
X86049533Y-135157235D01*
X86049534Y-135157234D01*
X86222605Y-135085546D01*
X86406333Y-135049000D01*
X86593667Y-135049000D01*
X86777395Y-135085546D01*
X86777395Y-135085546D01*
G37*
G36*
X200394072Y-129200918D02*
G01*
X200639939Y-129302759D01*
X200861212Y-129450610D01*
X201049390Y-129638788D01*
X201197241Y-129860061D01*
X201299082Y-130105928D01*
X201351000Y-130366938D01*
X201351000Y-130633062D01*
X201299082Y-130894072D01*
X201197241Y-131139939D01*
X201049390Y-131361212D01*
X200861212Y-131549390D01*
X200639939Y-131697241D01*
X200639938Y-131697242D01*
X200639937Y-131697242D01*
X200394072Y-131799082D01*
X200133063Y-131851000D01*
X199866937Y-131851000D01*
X199605928Y-131799082D01*
X199360063Y-131697242D01*
X199360062Y-131697242D01*
X199360061Y-131697241D01*
X199138788Y-131549390D01*
X198950610Y-131361212D01*
X198802759Y-131139939D01*
X198700918Y-130894072D01*
X198649000Y-130633062D01*
X198649000Y-130366938D01*
X198700918Y-130105928D01*
X198802759Y-129860061D01*
X198950610Y-129638788D01*
X199138788Y-129450610D01*
X199360061Y-129302759D01*
X199605928Y-129200918D01*
X199866937Y-129149000D01*
X200133063Y-129149000D01*
X200394072Y-129200918D01*
X200394072Y-129200918D01*
G37*
G36*
X200394072Y-121200918D02*
G01*
X200639939Y-121302759D01*
X200861212Y-121450610D01*
X201049390Y-121638788D01*
X201197241Y-121860061D01*
X201299082Y-122105928D01*
X201351000Y-122366938D01*
X201351000Y-122633062D01*
X201299082Y-122894072D01*
X201197241Y-123139939D01*
X201049390Y-123361212D01*
X200861212Y-123549390D01*
X200639939Y-123697241D01*
X200639938Y-123697242D01*
X200639937Y-123697242D01*
X200394072Y-123799082D01*
X200133063Y-123851000D01*
X199866937Y-123851000D01*
X199605928Y-123799082D01*
X199360063Y-123697242D01*
X199360062Y-123697242D01*
X199360061Y-123697241D01*
X199138788Y-123549390D01*
X198950610Y-123361212D01*
X198802759Y-123139939D01*
X198700918Y-122894072D01*
X198649000Y-122633062D01*
X198649000Y-122366938D01*
X198700918Y-122105928D01*
X198802759Y-121860061D01*
X198950610Y-121638788D01*
X199138788Y-121450610D01*
X199360061Y-121302759D01*
X199605928Y-121200918D01*
X199866937Y-121149000D01*
X200133063Y-121149000D01*
X200394072Y-121200918D01*
X200394072Y-121200918D01*
G37*
G36*
X217550318Y-111345153D02*
G01*
X217768885Y-111435687D01*
X217768887Y-111435688D01*
X217965593Y-111567122D01*
X218132878Y-111734407D01*
X218253180Y-111914453D01*
X218264313Y-111931115D01*
X218354847Y-112149682D01*
X218401000Y-112381710D01*
X218401000Y-112618290D01*
X218354847Y-112850318D01*
X218264313Y-113068885D01*
X218264312Y-113068887D01*
X218132878Y-113265593D01*
X217965593Y-113432878D01*
X217768887Y-113564312D01*
X217768886Y-113564313D01*
X217768885Y-113564313D01*
X217550318Y-113654847D01*
X217318290Y-113701000D01*
X217081710Y-113701000D01*
X216849682Y-113654847D01*
X216631115Y-113564313D01*
X216631114Y-113564313D01*
X216631113Y-113564312D01*
X216434407Y-113432878D01*
X216267122Y-113265593D01*
X216135688Y-113068887D01*
X216135687Y-113068885D01*
X216045153Y-112850318D01*
X215999000Y-112618290D01*
X215999000Y-112381710D01*
X216045153Y-112149682D01*
X216135687Y-111931115D01*
X216146820Y-111914453D01*
X216267122Y-111734407D01*
X216434407Y-111567122D01*
X216631113Y-111435688D01*
X216631115Y-111435687D01*
X216849682Y-111345153D01*
X217081710Y-111299000D01*
X217318290Y-111299000D01*
X217550318Y-111345153D01*
X217550318Y-111345153D01*
G37*
G36*
X203051000Y-113701000D02*
G01*
X200949000Y-113701000D01*
X200949000Y-111299000D01*
X203051000Y-111299000D01*
X203051000Y-113701000D01*
X203051000Y-113701000D01*
G37*
G36*
X157777395Y-110085546D02*
G01*
X157950466Y-110157234D01*
X157950467Y-110157235D01*
X158106227Y-110261310D01*
X158238690Y-110393773D01*
X158238691Y-110393775D01*
X158342766Y-110549534D01*
X158414454Y-110722605D01*
X158451000Y-110906333D01*
X158451000Y-111093667D01*
X158414454Y-111277395D01*
X158342766Y-111450466D01*
X158342765Y-111450467D01*
X158238690Y-111606227D01*
X158106227Y-111738690D01*
X158027818Y-111791081D01*
X157950466Y-111842766D01*
X157777395Y-111914454D01*
X157593667Y-111951000D01*
X157406333Y-111951000D01*
X157222605Y-111914454D01*
X157049534Y-111842766D01*
X156972182Y-111791081D01*
X156893773Y-111738690D01*
X156761310Y-111606227D01*
X156657235Y-111450467D01*
X156657234Y-111450466D01*
X156585546Y-111277395D01*
X156549000Y-111093667D01*
X156549000Y-110906333D01*
X156585546Y-110722605D01*
X156657234Y-110549534D01*
X156761309Y-110393775D01*
X156761310Y-110393773D01*
X156893773Y-110261310D01*
X157049533Y-110157235D01*
X157049534Y-110157234D01*
X157222605Y-110085546D01*
X157406333Y-110049000D01*
X157593667Y-110049000D01*
X157777395Y-110085546D01*
X157777395Y-110085546D01*
G37*
G36*
X132777395Y-110085546D02*
G01*
X132950466Y-110157234D01*
X132950467Y-110157235D01*
X133106227Y-110261310D01*
X133238690Y-110393773D01*
X133238691Y-110393775D01*
X133342766Y-110549534D01*
X133414454Y-110722605D01*
X133451000Y-110906333D01*
X133451000Y-111093667D01*
X133414454Y-111277395D01*
X133342766Y-111450466D01*
X133342765Y-111450467D01*
X133238690Y-111606227D01*
X133106227Y-111738690D01*
X133027818Y-111791081D01*
X132950466Y-111842766D01*
X132777395Y-111914454D01*
X132593667Y-111951000D01*
X132406333Y-111951000D01*
X132222605Y-111914454D01*
X132049534Y-111842766D01*
X131972182Y-111791081D01*
X131893773Y-111738690D01*
X131761310Y-111606227D01*
X131657235Y-111450467D01*
X131657234Y-111450466D01*
X131585546Y-111277395D01*
X131549000Y-111093667D01*
X131549000Y-110906333D01*
X131585546Y-110722605D01*
X131657234Y-110549534D01*
X131761309Y-110393775D01*
X131761310Y-110393773D01*
X131893773Y-110261310D01*
X132049533Y-110157235D01*
X132049534Y-110157234D01*
X132222605Y-110085546D01*
X132406333Y-110049000D01*
X132593667Y-110049000D01*
X132777395Y-110085546D01*
X132777395Y-110085546D01*
G37*
G36*
X137777395Y-110085546D02*
G01*
X137950466Y-110157234D01*
X137950467Y-110157235D01*
X138106227Y-110261310D01*
X138238690Y-110393773D01*
X138238691Y-110393775D01*
X138342766Y-110549534D01*
X138414454Y-110722605D01*
X138451000Y-110906333D01*
X138451000Y-111093667D01*
X138414454Y-111277395D01*
X138342766Y-111450466D01*
X138342765Y-111450467D01*
X138238690Y-111606227D01*
X138106227Y-111738690D01*
X138027818Y-111791081D01*
X137950466Y-111842766D01*
X137777395Y-111914454D01*
X137593667Y-111951000D01*
X137406333Y-111951000D01*
X137222605Y-111914454D01*
X137049534Y-111842766D01*
X136972182Y-111791081D01*
X136893773Y-111738690D01*
X136761310Y-111606227D01*
X136657235Y-111450467D01*
X136657234Y-111450466D01*
X136585546Y-111277395D01*
X136549000Y-111093667D01*
X136549000Y-110906333D01*
X136585546Y-110722605D01*
X136657234Y-110549534D01*
X136761309Y-110393775D01*
X136761310Y-110393773D01*
X136893773Y-110261310D01*
X137049533Y-110157235D01*
X137049534Y-110157234D01*
X137222605Y-110085546D01*
X137406333Y-110049000D01*
X137593667Y-110049000D01*
X137777395Y-110085546D01*
X137777395Y-110085546D01*
G37*
G36*
X111777395Y-110085546D02*
G01*
X111950466Y-110157234D01*
X111950467Y-110157235D01*
X112106227Y-110261310D01*
X112238690Y-110393773D01*
X112238691Y-110393775D01*
X112342766Y-110549534D01*
X112414454Y-110722605D01*
X112451000Y-110906333D01*
X112451000Y-111093667D01*
X112414454Y-111277395D01*
X112342766Y-111450466D01*
X112342765Y-111450467D01*
X112238690Y-111606227D01*
X112106227Y-111738690D01*
X112027818Y-111791081D01*
X111950466Y-111842766D01*
X111777395Y-111914454D01*
X111593667Y-111951000D01*
X111406333Y-111951000D01*
X111222605Y-111914454D01*
X111049534Y-111842766D01*
X110972182Y-111791081D01*
X110893773Y-111738690D01*
X110761310Y-111606227D01*
X110657235Y-111450467D01*
X110657234Y-111450466D01*
X110585546Y-111277395D01*
X110549000Y-111093667D01*
X110549000Y-110906333D01*
X110585546Y-110722605D01*
X110657234Y-110549534D01*
X110761309Y-110393775D01*
X110761310Y-110393773D01*
X110893773Y-110261310D01*
X111049533Y-110157235D01*
X111049534Y-110157234D01*
X111222605Y-110085546D01*
X111406333Y-110049000D01*
X111593667Y-110049000D01*
X111777395Y-110085546D01*
X111777395Y-110085546D01*
G37*
G36*
X106777395Y-110085546D02*
G01*
X106950466Y-110157234D01*
X106950467Y-110157235D01*
X107106227Y-110261310D01*
X107238690Y-110393773D01*
X107238691Y-110393775D01*
X107342766Y-110549534D01*
X107414454Y-110722605D01*
X107451000Y-110906333D01*
X107451000Y-111093667D01*
X107414454Y-111277395D01*
X107342766Y-111450466D01*
X107342765Y-111450467D01*
X107238690Y-111606227D01*
X107106227Y-111738690D01*
X107027818Y-111791081D01*
X106950466Y-111842766D01*
X106777395Y-111914454D01*
X106593667Y-111951000D01*
X106406333Y-111951000D01*
X106222605Y-111914454D01*
X106049534Y-111842766D01*
X105972182Y-111791081D01*
X105893773Y-111738690D01*
X105761310Y-111606227D01*
X105657235Y-111450467D01*
X105657234Y-111450466D01*
X105585546Y-111277395D01*
X105549000Y-111093667D01*
X105549000Y-110906333D01*
X105585546Y-110722605D01*
X105657234Y-110549534D01*
X105761309Y-110393775D01*
X105761310Y-110393773D01*
X105893773Y-110261310D01*
X106049533Y-110157235D01*
X106049534Y-110157234D01*
X106222605Y-110085546D01*
X106406333Y-110049000D01*
X106593667Y-110049000D01*
X106777395Y-110085546D01*
X106777395Y-110085546D01*
G37*
G36*
X91777395Y-110085546D02*
G01*
X91950466Y-110157234D01*
X91950467Y-110157235D01*
X92106227Y-110261310D01*
X92238690Y-110393773D01*
X92238691Y-110393775D01*
X92342766Y-110549534D01*
X92414454Y-110722605D01*
X92451000Y-110906333D01*
X92451000Y-111093667D01*
X92414454Y-111277395D01*
X92342766Y-111450466D01*
X92342765Y-111450467D01*
X92238690Y-111606227D01*
X92106227Y-111738690D01*
X92027818Y-111791081D01*
X91950466Y-111842766D01*
X91777395Y-111914454D01*
X91593667Y-111951000D01*
X91406333Y-111951000D01*
X91222605Y-111914454D01*
X91049534Y-111842766D01*
X90972182Y-111791081D01*
X90893773Y-111738690D01*
X90761310Y-111606227D01*
X90657235Y-111450467D01*
X90657234Y-111450466D01*
X90585546Y-111277395D01*
X90549000Y-111093667D01*
X90549000Y-110906333D01*
X90585546Y-110722605D01*
X90657234Y-110549534D01*
X90761309Y-110393775D01*
X90761310Y-110393773D01*
X90893773Y-110261310D01*
X91049533Y-110157235D01*
X91049534Y-110157234D01*
X91222605Y-110085546D01*
X91406333Y-110049000D01*
X91593667Y-110049000D01*
X91777395Y-110085546D01*
X91777395Y-110085546D01*
G37*
G36*
X86777395Y-110085546D02*
G01*
X86950466Y-110157234D01*
X86950467Y-110157235D01*
X87106227Y-110261310D01*
X87238690Y-110393773D01*
X87238691Y-110393775D01*
X87342766Y-110549534D01*
X87414454Y-110722605D01*
X87451000Y-110906333D01*
X87451000Y-111093667D01*
X87414454Y-111277395D01*
X87342766Y-111450466D01*
X87342765Y-111450467D01*
X87238690Y-111606227D01*
X87106227Y-111738690D01*
X87027818Y-111791081D01*
X86950466Y-111842766D01*
X86777395Y-111914454D01*
X86593667Y-111951000D01*
X86406333Y-111951000D01*
X86222605Y-111914454D01*
X86049534Y-111842766D01*
X85972182Y-111791081D01*
X85893773Y-111738690D01*
X85761310Y-111606227D01*
X85657235Y-111450467D01*
X85657234Y-111450466D01*
X85585546Y-111277395D01*
X85549000Y-111093667D01*
X85549000Y-110906333D01*
X85585546Y-110722605D01*
X85657234Y-110549534D01*
X85761309Y-110393775D01*
X85761310Y-110393773D01*
X85893773Y-110261310D01*
X86049533Y-110157235D01*
X86049534Y-110157234D01*
X86222605Y-110085546D01*
X86406333Y-110049000D01*
X86593667Y-110049000D01*
X86777395Y-110085546D01*
X86777395Y-110085546D01*
G37*
G36*
X152777395Y-110085546D02*
G01*
X152950466Y-110157234D01*
X152950467Y-110157235D01*
X153106227Y-110261310D01*
X153238690Y-110393773D01*
X153238691Y-110393775D01*
X153342766Y-110549534D01*
X153414454Y-110722605D01*
X153451000Y-110906333D01*
X153451000Y-111093667D01*
X153414454Y-111277395D01*
X153342766Y-111450466D01*
X153342765Y-111450467D01*
X153238690Y-111606227D01*
X153106227Y-111738690D01*
X153027818Y-111791081D01*
X152950466Y-111842766D01*
X152777395Y-111914454D01*
X152593667Y-111951000D01*
X152406333Y-111951000D01*
X152222605Y-111914454D01*
X152049534Y-111842766D01*
X151972182Y-111791081D01*
X151893773Y-111738690D01*
X151761310Y-111606227D01*
X151657235Y-111450467D01*
X151657234Y-111450466D01*
X151585546Y-111277395D01*
X151549000Y-111093667D01*
X151549000Y-110906333D01*
X151585546Y-110722605D01*
X151657234Y-110549534D01*
X151761309Y-110393775D01*
X151761310Y-110393773D01*
X151893773Y-110261310D01*
X152049533Y-110157235D01*
X152049534Y-110157234D01*
X152222605Y-110085546D01*
X152406333Y-110049000D01*
X152593667Y-110049000D01*
X152777395Y-110085546D01*
X152777395Y-110085546D01*
G37*
G36*
X227398254Y-100697818D02*
G01*
X227771511Y-100852426D01*
X227771513Y-100852427D01*
X227975467Y-100988705D01*
X228107436Y-101076884D01*
X228393116Y-101362564D01*
X228617574Y-101698489D01*
X228772182Y-102071746D01*
X228851000Y-102467993D01*
X228851000Y-102872007D01*
X228772182Y-103268254D01*
X228617574Y-103641511D01*
X228617573Y-103641513D01*
X228393116Y-103977436D01*
X228107436Y-104263116D01*
X227771513Y-104487573D01*
X227771512Y-104487574D01*
X227771511Y-104487574D01*
X227398254Y-104642182D01*
X227002007Y-104721000D01*
X226597993Y-104721000D01*
X226201746Y-104642182D01*
X225828489Y-104487574D01*
X225828488Y-104487574D01*
X225828487Y-104487573D01*
X225492564Y-104263116D01*
X225206884Y-103977436D01*
X224982427Y-103641513D01*
X224982426Y-103641511D01*
X224827818Y-103268254D01*
X224749000Y-102872007D01*
X224749000Y-102467993D01*
X224827818Y-102071746D01*
X224982426Y-101698489D01*
X225206884Y-101362564D01*
X225492564Y-101076884D01*
X225624533Y-100988705D01*
X225828487Y-100852427D01*
X225828489Y-100852426D01*
X226201746Y-100697818D01*
X226597993Y-100619000D01*
X227002007Y-100619000D01*
X227398254Y-100697818D01*
X227398254Y-100697818D01*
G37*
G36*
X184052585Y-98478802D02*
G01*
X184202410Y-98508604D01*
X184484674Y-98625521D01*
X184738705Y-98795259D01*
X184954741Y-99011295D01*
X185124479Y-99265326D01*
X185241396Y-99547590D01*
X185301000Y-99847240D01*
X185301000Y-100152760D01*
X185241396Y-100452410D01*
X185124479Y-100734674D01*
X184954741Y-100988705D01*
X184738705Y-101204741D01*
X184484674Y-101374479D01*
X184202410Y-101491396D01*
X184052585Y-101521198D01*
X183902761Y-101551000D01*
X183597239Y-101551000D01*
X183447415Y-101521198D01*
X183297590Y-101491396D01*
X183015326Y-101374479D01*
X182761295Y-101204741D01*
X182545259Y-100988705D01*
X182375521Y-100734674D01*
X182258604Y-100452410D01*
X182199000Y-100152760D01*
X182199000Y-99847240D01*
X182258604Y-99547590D01*
X182375521Y-99265326D01*
X182545259Y-99011295D01*
X182761295Y-98795259D01*
X183015326Y-98625521D01*
X183297590Y-98508604D01*
X183447415Y-98478802D01*
X183597239Y-98449000D01*
X183902761Y-98449000D01*
X184052585Y-98478802D01*
X184052585Y-98478802D01*
G37*
G36*
X192052585Y-98478802D02*
G01*
X192202410Y-98508604D01*
X192484674Y-98625521D01*
X192738705Y-98795259D01*
X192954741Y-99011295D01*
X193124479Y-99265326D01*
X193241396Y-99547590D01*
X193301000Y-99847240D01*
X193301000Y-100152760D01*
X193241396Y-100452410D01*
X193124479Y-100734674D01*
X192954741Y-100988705D01*
X192738705Y-101204741D01*
X192484674Y-101374479D01*
X192202410Y-101491396D01*
X192052585Y-101521198D01*
X191902761Y-101551000D01*
X191597239Y-101551000D01*
X191447415Y-101521198D01*
X191297590Y-101491396D01*
X191015326Y-101374479D01*
X190761295Y-101204741D01*
X190545259Y-100988705D01*
X190375521Y-100734674D01*
X190258604Y-100452410D01*
X190199000Y-100152760D01*
X190199000Y-99847240D01*
X190258604Y-99547590D01*
X190375521Y-99265326D01*
X190545259Y-99011295D01*
X190761295Y-98795259D01*
X191015326Y-98625521D01*
X191297590Y-98508604D01*
X191447415Y-98478802D01*
X191597239Y-98449000D01*
X191902761Y-98449000D01*
X192052585Y-98478802D01*
X192052585Y-98478802D01*
G37*
G36*
X126864903Y-95297075D02*
G01*
X126961057Y-95336903D01*
X127092571Y-95391378D01*
X127297466Y-95528285D01*
X127471715Y-95702534D01*
X127552753Y-95823816D01*
X127608623Y-95907431D01*
X127702925Y-96135097D01*
X127732242Y-96282481D01*
X127751000Y-96376787D01*
X127751000Y-96623213D01*
X127702925Y-96864903D01*
X127608622Y-97092571D01*
X127471715Y-97297466D01*
X127297466Y-97471715D01*
X127092571Y-97608622D01*
X127092570Y-97608623D01*
X127092569Y-97608623D01*
X126864903Y-97702925D01*
X126623214Y-97751000D01*
X126376786Y-97751000D01*
X126135097Y-97702925D01*
X125907431Y-97608623D01*
X125907430Y-97608623D01*
X125907429Y-97608622D01*
X125702534Y-97471715D01*
X125528285Y-97297466D01*
X125391378Y-97092571D01*
X125297075Y-96864903D01*
X125249000Y-96623213D01*
X125249000Y-96376787D01*
X125267759Y-96282481D01*
X125297075Y-96135097D01*
X125391377Y-95907431D01*
X125447247Y-95823816D01*
X125528285Y-95702534D01*
X125702534Y-95528285D01*
X125907429Y-95391378D01*
X126038944Y-95336903D01*
X126135097Y-95297075D01*
X126376786Y-95249000D01*
X126623214Y-95249000D01*
X126864903Y-95297075D01*
X126864903Y-95297075D01*
G37*
G36*
X118751000Y-97751000D02*
G01*
X116249000Y-97751000D01*
X116249000Y-95249000D01*
X118751000Y-95249000D01*
X118751000Y-97751000D01*
X118751000Y-97751000D01*
G37*
G36*
X112864903Y-95297075D02*
G01*
X112961057Y-95336903D01*
X113092571Y-95391378D01*
X113297466Y-95528285D01*
X113471715Y-95702534D01*
X113552753Y-95823816D01*
X113608623Y-95907431D01*
X113702925Y-96135097D01*
X113732242Y-96282481D01*
X113751000Y-96376787D01*
X113751000Y-96623213D01*
X113702925Y-96864903D01*
X113608622Y-97092571D01*
X113471715Y-97297466D01*
X113297466Y-97471715D01*
X113092571Y-97608622D01*
X113092570Y-97608623D01*
X113092569Y-97608623D01*
X112864903Y-97702925D01*
X112623214Y-97751000D01*
X112376786Y-97751000D01*
X112135097Y-97702925D01*
X111907431Y-97608623D01*
X111907430Y-97608623D01*
X111907429Y-97608622D01*
X111702534Y-97471715D01*
X111528285Y-97297466D01*
X111391378Y-97092571D01*
X111297075Y-96864903D01*
X111249000Y-96623213D01*
X111249000Y-96376787D01*
X111267759Y-96282481D01*
X111297075Y-96135097D01*
X111391377Y-95907431D01*
X111447247Y-95823816D01*
X111528285Y-95702534D01*
X111702534Y-95528285D01*
X111907429Y-95391378D01*
X112038944Y-95336903D01*
X112135097Y-95297075D01*
X112376786Y-95249000D01*
X112623214Y-95249000D01*
X112864903Y-95297075D01*
X112864903Y-95297075D01*
G37*
G36*
X104751000Y-97751000D02*
G01*
X102249000Y-97751000D01*
X102249000Y-95249000D01*
X104751000Y-95249000D01*
X104751000Y-97751000D01*
X104751000Y-97751000D01*
G37*
G36*
X98864903Y-95297075D02*
G01*
X98961057Y-95336903D01*
X99092571Y-95391378D01*
X99297466Y-95528285D01*
X99471715Y-95702534D01*
X99552753Y-95823816D01*
X99608623Y-95907431D01*
X99702925Y-96135097D01*
X99732242Y-96282481D01*
X99751000Y-96376787D01*
X99751000Y-96623213D01*
X99702925Y-96864903D01*
X99608622Y-97092571D01*
X99471715Y-97297466D01*
X99297466Y-97471715D01*
X99092571Y-97608622D01*
X99092570Y-97608623D01*
X99092569Y-97608623D01*
X98864903Y-97702925D01*
X98623214Y-97751000D01*
X98376786Y-97751000D01*
X98135097Y-97702925D01*
X97907431Y-97608623D01*
X97907430Y-97608623D01*
X97907429Y-97608622D01*
X97702534Y-97471715D01*
X97528285Y-97297466D01*
X97391378Y-97092571D01*
X97297075Y-96864903D01*
X97249000Y-96623213D01*
X97249000Y-96376787D01*
X97267759Y-96282481D01*
X97297075Y-96135097D01*
X97391377Y-95907431D01*
X97447247Y-95823816D01*
X97528285Y-95702534D01*
X97702534Y-95528285D01*
X97907429Y-95391378D01*
X98038944Y-95336903D01*
X98135097Y-95297075D01*
X98376786Y-95249000D01*
X98623214Y-95249000D01*
X98864903Y-95297075D01*
X98864903Y-95297075D01*
G37*
G36*
X146751000Y-97751000D02*
G01*
X144249000Y-97751000D01*
X144249000Y-95249000D01*
X146751000Y-95249000D01*
X146751000Y-97751000D01*
X146751000Y-97751000D01*
G37*
G36*
X140864903Y-95297075D02*
G01*
X140961057Y-95336903D01*
X141092571Y-95391378D01*
X141297466Y-95528285D01*
X141471715Y-95702534D01*
X141552753Y-95823816D01*
X141608623Y-95907431D01*
X141702925Y-96135097D01*
X141732242Y-96282481D01*
X141751000Y-96376787D01*
X141751000Y-96623213D01*
X141702925Y-96864903D01*
X141608622Y-97092571D01*
X141471715Y-97297466D01*
X141297466Y-97471715D01*
X141092571Y-97608622D01*
X141092570Y-97608623D01*
X141092569Y-97608623D01*
X140864903Y-97702925D01*
X140623214Y-97751000D01*
X140376786Y-97751000D01*
X140135097Y-97702925D01*
X139907431Y-97608623D01*
X139907430Y-97608623D01*
X139907429Y-97608622D01*
X139702534Y-97471715D01*
X139528285Y-97297466D01*
X139391378Y-97092571D01*
X139297075Y-96864903D01*
X139249000Y-96623213D01*
X139249000Y-96376787D01*
X139267759Y-96282481D01*
X139297075Y-96135097D01*
X139391377Y-95907431D01*
X139447247Y-95823816D01*
X139528285Y-95702534D01*
X139702534Y-95528285D01*
X139907429Y-95391378D01*
X140038944Y-95336903D01*
X140135097Y-95297075D01*
X140376786Y-95249000D01*
X140623214Y-95249000D01*
X140864903Y-95297075D01*
X140864903Y-95297075D01*
G37*
G36*
X132751000Y-97751000D02*
G01*
X130249000Y-97751000D01*
X130249000Y-95249000D01*
X132751000Y-95249000D01*
X132751000Y-97751000D01*
X132751000Y-97751000D01*
G37*
G36*
X226748228Y-94921703D02*
G01*
X226903100Y-94985853D01*
X227042481Y-95078985D01*
X227161015Y-95197519D01*
X227254147Y-95336900D01*
X227318297Y-95491772D01*
X227351000Y-95656184D01*
X227351000Y-95823816D01*
X227318297Y-95988228D01*
X227254147Y-96143100D01*
X227161015Y-96282481D01*
X227042481Y-96401015D01*
X226903100Y-96494147D01*
X226748228Y-96558297D01*
X226583816Y-96591000D01*
X226416184Y-96591000D01*
X226251772Y-96558297D01*
X226096900Y-96494147D01*
X225957519Y-96401015D01*
X225838985Y-96282481D01*
X225745853Y-96143100D01*
X225681703Y-95988228D01*
X225649000Y-95823816D01*
X225649000Y-95656184D01*
X225681703Y-95491772D01*
X225745853Y-95336900D01*
X225838985Y-95197519D01*
X225957519Y-95078985D01*
X226096900Y-94985853D01*
X226251772Y-94921703D01*
X226416184Y-94889000D01*
X226583816Y-94889000D01*
X226748228Y-94921703D01*
X226748228Y-94921703D01*
G37*
G36*
X229588228Y-93536703D02*
G01*
X229743100Y-93600853D01*
X229882481Y-93693985D01*
X230001015Y-93812519D01*
X230094147Y-93951900D01*
X230158297Y-94106772D01*
X230191000Y-94271184D01*
X230191000Y-94438816D01*
X230158297Y-94603228D01*
X230094147Y-94758100D01*
X230001015Y-94897481D01*
X229882481Y-95016015D01*
X229743100Y-95109147D01*
X229588228Y-95173297D01*
X229423816Y-95206000D01*
X229256184Y-95206000D01*
X229091772Y-95173297D01*
X228936900Y-95109147D01*
X228797519Y-95016015D01*
X228678985Y-94897481D01*
X228585853Y-94758100D01*
X228521703Y-94603228D01*
X228489000Y-94438816D01*
X228489000Y-94271184D01*
X228521703Y-94106772D01*
X228585853Y-93951900D01*
X228678985Y-93812519D01*
X228797519Y-93693985D01*
X228936900Y-93600853D01*
X229091772Y-93536703D01*
X229256184Y-93504000D01*
X229423816Y-93504000D01*
X229588228Y-93536703D01*
X229588228Y-93536703D01*
G37*
G36*
X226748228Y-92151703D02*
G01*
X226903100Y-92215853D01*
X227042481Y-92308985D01*
X227161015Y-92427519D01*
X227254147Y-92566900D01*
X227318297Y-92721772D01*
X227351000Y-92886184D01*
X227351000Y-93053816D01*
X227318297Y-93218228D01*
X227254147Y-93373100D01*
X227161015Y-93512481D01*
X227042481Y-93631015D01*
X226903100Y-93724147D01*
X226748228Y-93788297D01*
X226583816Y-93821000D01*
X226416184Y-93821000D01*
X226251772Y-93788297D01*
X226096900Y-93724147D01*
X225957519Y-93631015D01*
X225838985Y-93512481D01*
X225745853Y-93373100D01*
X225681703Y-93218228D01*
X225649000Y-93053816D01*
X225649000Y-92886184D01*
X225681703Y-92721772D01*
X225745853Y-92566900D01*
X225838985Y-92427519D01*
X225957519Y-92308985D01*
X226096900Y-92215853D01*
X226251772Y-92151703D01*
X226416184Y-92119000D01*
X226583816Y-92119000D01*
X226748228Y-92151703D01*
X226748228Y-92151703D01*
G37*
G36*
X229588228Y-90766703D02*
G01*
X229743100Y-90830853D01*
X229882481Y-90923985D01*
X230001015Y-91042519D01*
X230094147Y-91181900D01*
X230158297Y-91336772D01*
X230191000Y-91501184D01*
X230191000Y-91668816D01*
X230158297Y-91833228D01*
X230094147Y-91988100D01*
X230001015Y-92127481D01*
X229882481Y-92246015D01*
X229743100Y-92339147D01*
X229588228Y-92403297D01*
X229423816Y-92436000D01*
X229256184Y-92436000D01*
X229091772Y-92403297D01*
X228936900Y-92339147D01*
X228797519Y-92246015D01*
X228678985Y-92127481D01*
X228585853Y-91988100D01*
X228521703Y-91833228D01*
X228489000Y-91668816D01*
X228489000Y-91501184D01*
X228521703Y-91336772D01*
X228585853Y-91181900D01*
X228678985Y-91042519D01*
X228797519Y-90923985D01*
X228936900Y-90830853D01*
X229091772Y-90766703D01*
X229256184Y-90734000D01*
X229423816Y-90734000D01*
X229588228Y-90766703D01*
X229588228Y-90766703D01*
G37*
G36*
X226748228Y-89381703D02*
G01*
X226903100Y-89445853D01*
X227042481Y-89538985D01*
X227161015Y-89657519D01*
X227254147Y-89796900D01*
X227318297Y-89951772D01*
X227351000Y-90116184D01*
X227351000Y-90283816D01*
X227318297Y-90448228D01*
X227254147Y-90603100D01*
X227161015Y-90742481D01*
X227042481Y-90861015D01*
X226903100Y-90954147D01*
X226748228Y-91018297D01*
X226583816Y-91051000D01*
X226416184Y-91051000D01*
X226251772Y-91018297D01*
X226096900Y-90954147D01*
X225957519Y-90861015D01*
X225838985Y-90742481D01*
X225745853Y-90603100D01*
X225681703Y-90448228D01*
X225649000Y-90283816D01*
X225649000Y-90116184D01*
X225681703Y-89951772D01*
X225745853Y-89796900D01*
X225838985Y-89657519D01*
X225957519Y-89538985D01*
X226096900Y-89445853D01*
X226251772Y-89381703D01*
X226416184Y-89349000D01*
X226583816Y-89349000D01*
X226748228Y-89381703D01*
X226748228Y-89381703D01*
G37*
G36*
X229588228Y-87996703D02*
G01*
X229743100Y-88060853D01*
X229882481Y-88153985D01*
X230001015Y-88272519D01*
X230094147Y-88411900D01*
X230158297Y-88566772D01*
X230191000Y-88731184D01*
X230191000Y-88898816D01*
X230158297Y-89063228D01*
X230094147Y-89218100D01*
X230001015Y-89357481D01*
X229882481Y-89476015D01*
X229743100Y-89569147D01*
X229588228Y-89633297D01*
X229423816Y-89666000D01*
X229256184Y-89666000D01*
X229091772Y-89633297D01*
X228936900Y-89569147D01*
X228797519Y-89476015D01*
X228678985Y-89357481D01*
X228585853Y-89218100D01*
X228521703Y-89063228D01*
X228489000Y-88898816D01*
X228489000Y-88731184D01*
X228521703Y-88566772D01*
X228585853Y-88411900D01*
X228678985Y-88272519D01*
X228797519Y-88153985D01*
X228936900Y-88060853D01*
X229091772Y-87996703D01*
X229256184Y-87964000D01*
X229423816Y-87964000D01*
X229588228Y-87996703D01*
X229588228Y-87996703D01*
G37*
G36*
X163306564Y-86489389D02*
G01*
X163497833Y-86568615D01*
X163497835Y-86568616D01*
X163526067Y-86587480D01*
X163669973Y-86683635D01*
X163816365Y-86830027D01*
X163931385Y-87002167D01*
X164010611Y-87193436D01*
X164051000Y-87396484D01*
X164051000Y-87603516D01*
X164010611Y-87806564D01*
X163941886Y-87972481D01*
X163931384Y-87997835D01*
X163816365Y-88169973D01*
X163669973Y-88316365D01*
X163497835Y-88431384D01*
X163497834Y-88431385D01*
X163497833Y-88431385D01*
X163306564Y-88510611D01*
X163103516Y-88551000D01*
X162896484Y-88551000D01*
X162693436Y-88510611D01*
X162502167Y-88431385D01*
X162502166Y-88431385D01*
X162502165Y-88431384D01*
X162330027Y-88316365D01*
X162183635Y-88169973D01*
X162068616Y-87997835D01*
X162058114Y-87972481D01*
X161989389Y-87806564D01*
X161949000Y-87603516D01*
X161949000Y-87396484D01*
X161989389Y-87193436D01*
X162068615Y-87002167D01*
X162183635Y-86830027D01*
X162330027Y-86683635D01*
X162473933Y-86587480D01*
X162502165Y-86568616D01*
X162502167Y-86568615D01*
X162693436Y-86489389D01*
X162896484Y-86449000D01*
X163103516Y-86449000D01*
X163306564Y-86489389D01*
X163306564Y-86489389D01*
G37*
G36*
X226748228Y-86611703D02*
G01*
X226903100Y-86675853D01*
X227042481Y-86768985D01*
X227161015Y-86887519D01*
X227254147Y-87026900D01*
X227318297Y-87181772D01*
X227351000Y-87346184D01*
X227351000Y-87513816D01*
X227318297Y-87678228D01*
X227254147Y-87833100D01*
X227161015Y-87972481D01*
X227042481Y-88091015D01*
X226903100Y-88184147D01*
X226748228Y-88248297D01*
X226583816Y-88281000D01*
X226416184Y-88281000D01*
X226251772Y-88248297D01*
X226096900Y-88184147D01*
X225957519Y-88091015D01*
X225838985Y-87972481D01*
X225745853Y-87833100D01*
X225681703Y-87678228D01*
X225649000Y-87513816D01*
X225649000Y-87346184D01*
X225681703Y-87181772D01*
X225745853Y-87026900D01*
X225838985Y-86887519D01*
X225957519Y-86768985D01*
X226096900Y-86675853D01*
X226251772Y-86611703D01*
X226416184Y-86579000D01*
X226583816Y-86579000D01*
X226748228Y-86611703D01*
X226748228Y-86611703D01*
G37*
G36*
X229588228Y-85226703D02*
G01*
X229743100Y-85290853D01*
X229882481Y-85383985D01*
X230001015Y-85502519D01*
X230094147Y-85641900D01*
X230158297Y-85796772D01*
X230191000Y-85961184D01*
X230191000Y-86128816D01*
X230158297Y-86293228D01*
X230094147Y-86448100D01*
X230001015Y-86587481D01*
X229882481Y-86706015D01*
X229743100Y-86799147D01*
X229588228Y-86863297D01*
X229423816Y-86896000D01*
X229256184Y-86896000D01*
X229091772Y-86863297D01*
X228936900Y-86799147D01*
X228797519Y-86706015D01*
X228678985Y-86587481D01*
X228585853Y-86448100D01*
X228521703Y-86293228D01*
X228489000Y-86128816D01*
X228489000Y-85961184D01*
X228521703Y-85796772D01*
X228585853Y-85641900D01*
X228678985Y-85502519D01*
X228797519Y-85383985D01*
X228936900Y-85290853D01*
X229091772Y-85226703D01*
X229256184Y-85194000D01*
X229423816Y-85194000D01*
X229588228Y-85226703D01*
X229588228Y-85226703D01*
G37*
G36*
X209950318Y-83345153D02*
G01*
X210163931Y-83433635D01*
X210168887Y-83435688D01*
X210365593Y-83567122D01*
X210532878Y-83734407D01*
X210647433Y-83905852D01*
X210664313Y-83931115D01*
X210754847Y-84149682D01*
X210801000Y-84381710D01*
X210801000Y-84618290D01*
X210754847Y-84850318D01*
X210666710Y-85063097D01*
X210664312Y-85068887D01*
X210532878Y-85265593D01*
X210365593Y-85432878D01*
X210168887Y-85564312D01*
X210168886Y-85564313D01*
X210168885Y-85564313D01*
X209950318Y-85654847D01*
X209718290Y-85701000D01*
X209481710Y-85701000D01*
X209249682Y-85654847D01*
X209031115Y-85564313D01*
X209031114Y-85564313D01*
X209031113Y-85564312D01*
X208834407Y-85432878D01*
X208667122Y-85265593D01*
X208535688Y-85068887D01*
X208533290Y-85063097D01*
X208445153Y-84850318D01*
X208399000Y-84618290D01*
X208399000Y-84381710D01*
X208445153Y-84149682D01*
X208535687Y-83931115D01*
X208552567Y-83905852D01*
X208667122Y-83734407D01*
X208834407Y-83567122D01*
X209031113Y-83435688D01*
X209036069Y-83433635D01*
X209249682Y-83345153D01*
X209481710Y-83299000D01*
X209718290Y-83299000D01*
X209950318Y-83345153D01*
X209950318Y-83345153D01*
G37*
G36*
X202350318Y-83345153D02*
G01*
X202563931Y-83433635D01*
X202568887Y-83435688D01*
X202765593Y-83567122D01*
X202932878Y-83734407D01*
X203047433Y-83905852D01*
X203064313Y-83931115D01*
X203154847Y-84149682D01*
X203201000Y-84381710D01*
X203201000Y-84618290D01*
X203154847Y-84850318D01*
X203066710Y-85063097D01*
X203064312Y-85068887D01*
X202932878Y-85265593D01*
X202765593Y-85432878D01*
X202568887Y-85564312D01*
X202568886Y-85564313D01*
X202568885Y-85564313D01*
X202350318Y-85654847D01*
X202118290Y-85701000D01*
X201881710Y-85701000D01*
X201649682Y-85654847D01*
X201431115Y-85564313D01*
X201431114Y-85564313D01*
X201431113Y-85564312D01*
X201234407Y-85432878D01*
X201067122Y-85265593D01*
X200935688Y-85068887D01*
X200933290Y-85063097D01*
X200845153Y-84850318D01*
X200799000Y-84618290D01*
X200799000Y-84381710D01*
X200845153Y-84149682D01*
X200935687Y-83931115D01*
X200952567Y-83905852D01*
X201067122Y-83734407D01*
X201234407Y-83567122D01*
X201431113Y-83435688D01*
X201436069Y-83433635D01*
X201649682Y-83345153D01*
X201881710Y-83299000D01*
X202118290Y-83299000D01*
X202350318Y-83345153D01*
X202350318Y-83345153D01*
G37*
G36*
X226748228Y-83841703D02*
G01*
X226903100Y-83905853D01*
X227042481Y-83998985D01*
X227161015Y-84117519D01*
X227254147Y-84256900D01*
X227318297Y-84411772D01*
X227351000Y-84576184D01*
X227351000Y-84743816D01*
X227318297Y-84908228D01*
X227254147Y-85063100D01*
X227161015Y-85202481D01*
X227042481Y-85321015D01*
X226903100Y-85414147D01*
X226748228Y-85478297D01*
X226583816Y-85511000D01*
X226416184Y-85511000D01*
X226251772Y-85478297D01*
X226096900Y-85414147D01*
X225957519Y-85321015D01*
X225838985Y-85202481D01*
X225745853Y-85063100D01*
X225681703Y-84908228D01*
X225649000Y-84743816D01*
X225649000Y-84576184D01*
X225681703Y-84411772D01*
X225745853Y-84256900D01*
X225838985Y-84117519D01*
X225957519Y-83998985D01*
X226096900Y-83905853D01*
X226251772Y-83841703D01*
X226416184Y-83809000D01*
X226583816Y-83809000D01*
X226748228Y-83841703D01*
X226748228Y-83841703D01*
G37*
G36*
X163306564Y-83239389D02*
G01*
X163497833Y-83318615D01*
X163497835Y-83318616D01*
X163669973Y-83433635D01*
X163816365Y-83580027D01*
X163930606Y-83751000D01*
X163931385Y-83752167D01*
X164010611Y-83943436D01*
X164051000Y-84146484D01*
X164051000Y-84353516D01*
X164010611Y-84556564D01*
X163985044Y-84618288D01*
X163931384Y-84747835D01*
X163816365Y-84919973D01*
X163669973Y-85066365D01*
X163497835Y-85181384D01*
X163497834Y-85181385D01*
X163497833Y-85181385D01*
X163306564Y-85260611D01*
X163103516Y-85301000D01*
X162896484Y-85301000D01*
X162693436Y-85260611D01*
X162502167Y-85181385D01*
X162502166Y-85181385D01*
X162502165Y-85181384D01*
X162330027Y-85066365D01*
X162183635Y-84919973D01*
X162068616Y-84747835D01*
X162014956Y-84618288D01*
X161989389Y-84556564D01*
X161949000Y-84353516D01*
X161949000Y-84146484D01*
X161989389Y-83943436D01*
X162068615Y-83752167D01*
X162069395Y-83751000D01*
X162183635Y-83580027D01*
X162330027Y-83433635D01*
X162502165Y-83318616D01*
X162502167Y-83318615D01*
X162693436Y-83239389D01*
X162896484Y-83199000D01*
X163103516Y-83199000D01*
X163306564Y-83239389D01*
X163306564Y-83239389D01*
G37*
G36*
X229588228Y-82456703D02*
G01*
X229743100Y-82520853D01*
X229882481Y-82613985D01*
X230001015Y-82732519D01*
X230094147Y-82871900D01*
X230158297Y-83026772D01*
X230191000Y-83191184D01*
X230191000Y-83358816D01*
X230158297Y-83523228D01*
X230094147Y-83678100D01*
X230001015Y-83817481D01*
X229882481Y-83936015D01*
X229743100Y-84029147D01*
X229588228Y-84093297D01*
X229423816Y-84126000D01*
X229256184Y-84126000D01*
X229091772Y-84093297D01*
X228936900Y-84029147D01*
X228797519Y-83936015D01*
X228678985Y-83817481D01*
X228585853Y-83678100D01*
X228521703Y-83523228D01*
X228489000Y-83358816D01*
X228489000Y-83191184D01*
X228521703Y-83026772D01*
X228585853Y-82871900D01*
X228678985Y-82732519D01*
X228797519Y-82613985D01*
X228936900Y-82520853D01*
X229091772Y-82456703D01*
X229256184Y-82424000D01*
X229423816Y-82424000D01*
X229588228Y-82456703D01*
X229588228Y-82456703D01*
G37*
G36*
X118751000Y-83751000D02*
G01*
X116249000Y-83751000D01*
X116249000Y-81249000D01*
X118751000Y-81249000D01*
X118751000Y-83751000D01*
X118751000Y-83751000D01*
G37*
G36*
X112674226Y-81259147D02*
G01*
X112864903Y-81297075D01*
X113092571Y-81391378D01*
X113297466Y-81528285D01*
X113471715Y-81702534D01*
X113608622Y-81907429D01*
X113702925Y-82135097D01*
X113751000Y-82376787D01*
X113751000Y-82623213D01*
X113702925Y-82864903D01*
X113608622Y-83092571D01*
X113471715Y-83297466D01*
X113297466Y-83471715D01*
X113092571Y-83608622D01*
X113092570Y-83608623D01*
X113092569Y-83608623D01*
X112864903Y-83702925D01*
X112623214Y-83751000D01*
X112376786Y-83751000D01*
X112135097Y-83702925D01*
X111907431Y-83608623D01*
X111907430Y-83608623D01*
X111907429Y-83608622D01*
X111702534Y-83471715D01*
X111528285Y-83297466D01*
X111391378Y-83092571D01*
X111297075Y-82864903D01*
X111249000Y-82623213D01*
X111249000Y-82376787D01*
X111297075Y-82135097D01*
X111391378Y-81907429D01*
X111528285Y-81702534D01*
X111702534Y-81528285D01*
X111907429Y-81391378D01*
X112135097Y-81297075D01*
X112325774Y-81259147D01*
X112376786Y-81249000D01*
X112623214Y-81249000D01*
X112674226Y-81259147D01*
X112674226Y-81259147D01*
G37*
G36*
X104751000Y-83751000D02*
G01*
X102249000Y-83751000D01*
X102249000Y-81249000D01*
X104751000Y-81249000D01*
X104751000Y-83751000D01*
X104751000Y-83751000D01*
G37*
G36*
X146751000Y-83751000D02*
G01*
X144249000Y-83751000D01*
X144249000Y-81249000D01*
X146751000Y-81249000D01*
X146751000Y-83751000D01*
X146751000Y-83751000D01*
G37*
G36*
X140674226Y-81259147D02*
G01*
X140864903Y-81297075D01*
X141092571Y-81391378D01*
X141297466Y-81528285D01*
X141471715Y-81702534D01*
X141608622Y-81907429D01*
X141702925Y-82135097D01*
X141751000Y-82376787D01*
X141751000Y-82623213D01*
X141702925Y-82864903D01*
X141608622Y-83092571D01*
X141471715Y-83297466D01*
X141297466Y-83471715D01*
X141092571Y-83608622D01*
X141092570Y-83608623D01*
X141092569Y-83608623D01*
X140864903Y-83702925D01*
X140623214Y-83751000D01*
X140376786Y-83751000D01*
X140135097Y-83702925D01*
X139907431Y-83608623D01*
X139907430Y-83608623D01*
X139907429Y-83608622D01*
X139702534Y-83471715D01*
X139528285Y-83297466D01*
X139391378Y-83092571D01*
X139297075Y-82864903D01*
X139249000Y-82623213D01*
X139249000Y-82376787D01*
X139297075Y-82135097D01*
X139391378Y-81907429D01*
X139528285Y-81702534D01*
X139702534Y-81528285D01*
X139907429Y-81391378D01*
X140135097Y-81297075D01*
X140325774Y-81259147D01*
X140376786Y-81249000D01*
X140623214Y-81249000D01*
X140674226Y-81259147D01*
X140674226Y-81259147D01*
G37*
G36*
X126674226Y-81259147D02*
G01*
X126864903Y-81297075D01*
X127092571Y-81391378D01*
X127297466Y-81528285D01*
X127471715Y-81702534D01*
X127608622Y-81907429D01*
X127702925Y-82135097D01*
X127751000Y-82376787D01*
X127751000Y-82623213D01*
X127702925Y-82864903D01*
X127608622Y-83092571D01*
X127471715Y-83297466D01*
X127297466Y-83471715D01*
X127092571Y-83608622D01*
X127092570Y-83608623D01*
X127092569Y-83608623D01*
X126864903Y-83702925D01*
X126623214Y-83751000D01*
X126376786Y-83751000D01*
X126135097Y-83702925D01*
X125907431Y-83608623D01*
X125907430Y-83608623D01*
X125907429Y-83608622D01*
X125702534Y-83471715D01*
X125528285Y-83297466D01*
X125391378Y-83092571D01*
X125297075Y-82864903D01*
X125249000Y-82623213D01*
X125249000Y-82376787D01*
X125297075Y-82135097D01*
X125391378Y-81907429D01*
X125528285Y-81702534D01*
X125702534Y-81528285D01*
X125907429Y-81391378D01*
X126135097Y-81297075D01*
X126325774Y-81259147D01*
X126376786Y-81249000D01*
X126623214Y-81249000D01*
X126674226Y-81259147D01*
X126674226Y-81259147D01*
G37*
G36*
X132751000Y-83751000D02*
G01*
X130249000Y-83751000D01*
X130249000Y-81249000D01*
X132751000Y-81249000D01*
X132751000Y-83751000D01*
X132751000Y-83751000D01*
G37*
G36*
X98674226Y-81259147D02*
G01*
X98864903Y-81297075D01*
X99092571Y-81391378D01*
X99297466Y-81528285D01*
X99471715Y-81702534D01*
X99608622Y-81907429D01*
X99702925Y-82135097D01*
X99751000Y-82376787D01*
X99751000Y-82623213D01*
X99702925Y-82864903D01*
X99608622Y-83092571D01*
X99471715Y-83297466D01*
X99297466Y-83471715D01*
X99092571Y-83608622D01*
X99092570Y-83608623D01*
X99092569Y-83608623D01*
X98864903Y-83702925D01*
X98623214Y-83751000D01*
X98376786Y-83751000D01*
X98135097Y-83702925D01*
X97907431Y-83608623D01*
X97907430Y-83608623D01*
X97907429Y-83608622D01*
X97702534Y-83471715D01*
X97528285Y-83297466D01*
X97391378Y-83092571D01*
X97297075Y-82864903D01*
X97249000Y-82623213D01*
X97249000Y-82376787D01*
X97297075Y-82135097D01*
X97391378Y-81907429D01*
X97528285Y-81702534D01*
X97702534Y-81528285D01*
X97907429Y-81391378D01*
X98135097Y-81297075D01*
X98325774Y-81259147D01*
X98376786Y-81249000D01*
X98623214Y-81249000D01*
X98674226Y-81259147D01*
X98674226Y-81259147D01*
G37*
G36*
X226748228Y-81071703D02*
G01*
X226903100Y-81135853D01*
X227042481Y-81228985D01*
X227161015Y-81347519D01*
X227254147Y-81486900D01*
X227318297Y-81641772D01*
X227351000Y-81806184D01*
X227351000Y-81973816D01*
X227318297Y-82138228D01*
X227254147Y-82293100D01*
X227161015Y-82432481D01*
X227042481Y-82551015D01*
X226903100Y-82644147D01*
X226748228Y-82708297D01*
X226583816Y-82741000D01*
X226416184Y-82741000D01*
X226251772Y-82708297D01*
X226096900Y-82644147D01*
X225957519Y-82551015D01*
X225838985Y-82432481D01*
X225745853Y-82293100D01*
X225681703Y-82138228D01*
X225649000Y-81973816D01*
X225649000Y-81806184D01*
X225681703Y-81641772D01*
X225745853Y-81486900D01*
X225838985Y-81347519D01*
X225957519Y-81228985D01*
X226096900Y-81135853D01*
X226251772Y-81071703D01*
X226416184Y-81039000D01*
X226583816Y-81039000D01*
X226748228Y-81071703D01*
X226748228Y-81071703D01*
G37*
G36*
X163306564Y-79489389D02*
G01*
X163497833Y-79568615D01*
X163497835Y-79568616D01*
X163625621Y-79654000D01*
X163669973Y-79683635D01*
X163816365Y-79830027D01*
X163931385Y-80002167D01*
X164010611Y-80193436D01*
X164051000Y-80396484D01*
X164051000Y-80603516D01*
X164010611Y-80806564D01*
X163931385Y-80997833D01*
X163931384Y-80997835D01*
X163816365Y-81169973D01*
X163669973Y-81316365D01*
X163497835Y-81431384D01*
X163497834Y-81431385D01*
X163497833Y-81431385D01*
X163306564Y-81510611D01*
X163103516Y-81551000D01*
X162896484Y-81551000D01*
X162693436Y-81510611D01*
X162502167Y-81431385D01*
X162502166Y-81431385D01*
X162502165Y-81431384D01*
X162330027Y-81316365D01*
X162183635Y-81169973D01*
X162068616Y-80997835D01*
X162068615Y-80997833D01*
X161989389Y-80806564D01*
X161949000Y-80603516D01*
X161949000Y-80396484D01*
X161989389Y-80193436D01*
X162068615Y-80002167D01*
X162183635Y-79830027D01*
X162330027Y-79683635D01*
X162374379Y-79654000D01*
X162502165Y-79568616D01*
X162502167Y-79568615D01*
X162693436Y-79489389D01*
X162896484Y-79449000D01*
X163103516Y-79449000D01*
X163306564Y-79489389D01*
X163306564Y-79489389D01*
G37*
G36*
X229588228Y-79686703D02*
G01*
X229743100Y-79750853D01*
X229882481Y-79843985D01*
X230001015Y-79962519D01*
X230094147Y-80101900D01*
X230158297Y-80256772D01*
X230191000Y-80421184D01*
X230191000Y-80588816D01*
X230158297Y-80753228D01*
X230094147Y-80908100D01*
X230001015Y-81047481D01*
X229882481Y-81166015D01*
X229743100Y-81259147D01*
X229588228Y-81323297D01*
X229423816Y-81356000D01*
X229256184Y-81356000D01*
X229091772Y-81323297D01*
X228936900Y-81259147D01*
X228797519Y-81166015D01*
X228678985Y-81047481D01*
X228585853Y-80908100D01*
X228521703Y-80753228D01*
X228489000Y-80588816D01*
X228489000Y-80421184D01*
X228521703Y-80256772D01*
X228585853Y-80101900D01*
X228678985Y-79962519D01*
X228797519Y-79843985D01*
X228936900Y-79750853D01*
X229091772Y-79686703D01*
X229256184Y-79654000D01*
X229423816Y-79654000D01*
X229588228Y-79686703D01*
X229588228Y-79686703D01*
G37*
G36*
X226748228Y-78301703D02*
G01*
X226903100Y-78365853D01*
X227042481Y-78458985D01*
X227161015Y-78577519D01*
X227254147Y-78716900D01*
X227318297Y-78871772D01*
X227351000Y-79036184D01*
X227351000Y-79203816D01*
X227318297Y-79368228D01*
X227254147Y-79523100D01*
X227161015Y-79662481D01*
X227042481Y-79781015D01*
X226903100Y-79874147D01*
X226748228Y-79938297D01*
X226583816Y-79971000D01*
X226416184Y-79971000D01*
X226251772Y-79938297D01*
X226096900Y-79874147D01*
X225957519Y-79781015D01*
X225838985Y-79662481D01*
X225745853Y-79523100D01*
X225681703Y-79368228D01*
X225649000Y-79203816D01*
X225649000Y-79036184D01*
X225681703Y-78871772D01*
X225745853Y-78716900D01*
X225838985Y-78577519D01*
X225957519Y-78458985D01*
X226096900Y-78365853D01*
X226251772Y-78301703D01*
X226416184Y-78269000D01*
X226583816Y-78269000D01*
X226748228Y-78301703D01*
X226748228Y-78301703D01*
G37*
G36*
X229588228Y-76916703D02*
G01*
X229743100Y-76980853D01*
X229882481Y-77073985D01*
X230001015Y-77192519D01*
X230094147Y-77331900D01*
X230158297Y-77486772D01*
X230191000Y-77651184D01*
X230191000Y-77818816D01*
X230158297Y-77983228D01*
X230094147Y-78138100D01*
X230001015Y-78277481D01*
X229882481Y-78396015D01*
X229743100Y-78489147D01*
X229588228Y-78553297D01*
X229423816Y-78586000D01*
X229256184Y-78586000D01*
X229091772Y-78553297D01*
X228936900Y-78489147D01*
X228797519Y-78396015D01*
X228678985Y-78277481D01*
X228585853Y-78138100D01*
X228521703Y-77983228D01*
X228489000Y-77818816D01*
X228489000Y-77651184D01*
X228521703Y-77486772D01*
X228585853Y-77331900D01*
X228678985Y-77192519D01*
X228797519Y-77073985D01*
X228936900Y-76980853D01*
X229091772Y-76916703D01*
X229256184Y-76884000D01*
X229423816Y-76884000D01*
X229588228Y-76916703D01*
X229588228Y-76916703D01*
G37*
G36*
X163306564Y-76239389D02*
G01*
X163497833Y-76318615D01*
X163497835Y-76318616D01*
X163669973Y-76433635D01*
X163816365Y-76580027D01*
X163931121Y-76751771D01*
X163931385Y-76752167D01*
X164010611Y-76943436D01*
X164051000Y-77146484D01*
X164051000Y-77353516D01*
X164010611Y-77556564D01*
X163967346Y-77661015D01*
X163931384Y-77747835D01*
X163816365Y-77919973D01*
X163669973Y-78066365D01*
X163497835Y-78181384D01*
X163497834Y-78181385D01*
X163497833Y-78181385D01*
X163306564Y-78260611D01*
X163103516Y-78301000D01*
X162896484Y-78301000D01*
X162693436Y-78260611D01*
X162502167Y-78181385D01*
X162502166Y-78181385D01*
X162502165Y-78181384D01*
X162330027Y-78066365D01*
X162183635Y-77919973D01*
X162068616Y-77747835D01*
X162032654Y-77661015D01*
X161989389Y-77556564D01*
X161949000Y-77353516D01*
X161949000Y-77146484D01*
X161989389Y-76943436D01*
X162068615Y-76752167D01*
X162068880Y-76751771D01*
X162183635Y-76580027D01*
X162330027Y-76433635D01*
X162502165Y-76318616D01*
X162502167Y-76318615D01*
X162693436Y-76239389D01*
X162896484Y-76199000D01*
X163103516Y-76199000D01*
X163306564Y-76239389D01*
X163306564Y-76239389D01*
G37*
G36*
X183811000Y-77851000D02*
G01*
X182109000Y-77851000D01*
X182109000Y-76149000D01*
X183811000Y-76149000D01*
X183811000Y-77851000D01*
X183811000Y-77851000D01*
G37*
G36*
X185748228Y-76181703D02*
G01*
X185903100Y-76245853D01*
X186042481Y-76338985D01*
X186161015Y-76457519D01*
X186254147Y-76596900D01*
X186318297Y-76751772D01*
X186351000Y-76916184D01*
X186351000Y-77083816D01*
X186318297Y-77248228D01*
X186254147Y-77403100D01*
X186161015Y-77542481D01*
X186042481Y-77661015D01*
X185903100Y-77754147D01*
X185748228Y-77818297D01*
X185583816Y-77851000D01*
X185416184Y-77851000D01*
X185251772Y-77818297D01*
X185096900Y-77754147D01*
X184957519Y-77661015D01*
X184838985Y-77542481D01*
X184745853Y-77403100D01*
X184681703Y-77248228D01*
X184649000Y-77083816D01*
X184649000Y-76916184D01*
X184681703Y-76751772D01*
X184745853Y-76596900D01*
X184838985Y-76457519D01*
X184957519Y-76338985D01*
X185096900Y-76245853D01*
X185251772Y-76181703D01*
X185416184Y-76149000D01*
X185583816Y-76149000D01*
X185748228Y-76181703D01*
X185748228Y-76181703D01*
G37*
G36*
X188288228Y-76181703D02*
G01*
X188443100Y-76245853D01*
X188582481Y-76338985D01*
X188701015Y-76457519D01*
X188794147Y-76596900D01*
X188858297Y-76751772D01*
X188891000Y-76916184D01*
X188891000Y-77083816D01*
X188858297Y-77248228D01*
X188794147Y-77403100D01*
X188701015Y-77542481D01*
X188582481Y-77661015D01*
X188443100Y-77754147D01*
X188288228Y-77818297D01*
X188123816Y-77851000D01*
X187956184Y-77851000D01*
X187791772Y-77818297D01*
X187636900Y-77754147D01*
X187497519Y-77661015D01*
X187378985Y-77542481D01*
X187285853Y-77403100D01*
X187221703Y-77248228D01*
X187189000Y-77083816D01*
X187189000Y-76916184D01*
X187221703Y-76751772D01*
X187285853Y-76596900D01*
X187378985Y-76457519D01*
X187497519Y-76338985D01*
X187636900Y-76245853D01*
X187791772Y-76181703D01*
X187956184Y-76149000D01*
X188123816Y-76149000D01*
X188288228Y-76181703D01*
X188288228Y-76181703D01*
G37*
G36*
X79945501Y-76338985D02*
G01*
X79991305Y-76348096D01*
X80023340Y-76361365D01*
X80100680Y-76393400D01*
X80199115Y-76459173D01*
X80282827Y-76542885D01*
X80348600Y-76641320D01*
X80380635Y-76718660D01*
X80393904Y-76750695D01*
X80417000Y-76866807D01*
X80417000Y-76985193D01*
X80393904Y-77101305D01*
X80392726Y-77104148D01*
X80348600Y-77210680D01*
X80282827Y-77309115D01*
X80199115Y-77392827D01*
X80100680Y-77458600D01*
X80032665Y-77486772D01*
X79991305Y-77503904D01*
X79952601Y-77511603D01*
X79875195Y-77527000D01*
X79756805Y-77527000D01*
X79679399Y-77511603D01*
X79640695Y-77503904D01*
X79599335Y-77486772D01*
X79531320Y-77458600D01*
X79432885Y-77392827D01*
X79349173Y-77309115D01*
X79283400Y-77210680D01*
X79239274Y-77104148D01*
X79238096Y-77101305D01*
X79215000Y-76985193D01*
X79215000Y-76866807D01*
X79238096Y-76750695D01*
X79251365Y-76718660D01*
X79283400Y-76641320D01*
X79349173Y-76542885D01*
X79432885Y-76459173D01*
X79531320Y-76393400D01*
X79608660Y-76361365D01*
X79640695Y-76348096D01*
X79686499Y-76338985D01*
X79756805Y-76325000D01*
X79875195Y-76325000D01*
X79945501Y-76338985D01*
X79945501Y-76338985D01*
G37*
G36*
X226748228Y-75531703D02*
G01*
X226903100Y-75595853D01*
X227042481Y-75688985D01*
X227161015Y-75807519D01*
X227254147Y-75946900D01*
X227318297Y-76101772D01*
X227351000Y-76266184D01*
X227351000Y-76433816D01*
X227318297Y-76598228D01*
X227254147Y-76753100D01*
X227161015Y-76892481D01*
X227042481Y-77011015D01*
X226903100Y-77104147D01*
X226748228Y-77168297D01*
X226583816Y-77201000D01*
X226416184Y-77201000D01*
X226251772Y-77168297D01*
X226096900Y-77104147D01*
X225957519Y-77011015D01*
X225838985Y-76892481D01*
X225745853Y-76753100D01*
X225681703Y-76598228D01*
X225649000Y-76433816D01*
X225649000Y-76266184D01*
X225681703Y-76101772D01*
X225745853Y-75946900D01*
X225838985Y-75807519D01*
X225957519Y-75688985D01*
X226096900Y-75595853D01*
X226251772Y-75531703D01*
X226416184Y-75499000D01*
X226583816Y-75499000D01*
X226748228Y-75531703D01*
X226748228Y-75531703D01*
G37*
G36*
X229588228Y-74146703D02*
G01*
X229743100Y-74210853D01*
X229882481Y-74303985D01*
X230001015Y-74422519D01*
X230094147Y-74561900D01*
X230158297Y-74716772D01*
X230191000Y-74881184D01*
X230191000Y-75048816D01*
X230158297Y-75213228D01*
X230094147Y-75368100D01*
X230001015Y-75507481D01*
X229882481Y-75626015D01*
X229743100Y-75719147D01*
X229588228Y-75783297D01*
X229423816Y-75816000D01*
X229256184Y-75816000D01*
X229091772Y-75783297D01*
X228936900Y-75719147D01*
X228797519Y-75626015D01*
X228678985Y-75507481D01*
X228585853Y-75368100D01*
X228521703Y-75213228D01*
X228489000Y-75048816D01*
X228489000Y-74881184D01*
X228521703Y-74716772D01*
X228585853Y-74561900D01*
X228678985Y-74422519D01*
X228797519Y-74303985D01*
X228936900Y-74210853D01*
X229091772Y-74146703D01*
X229256184Y-74114000D01*
X229423816Y-74114000D01*
X229588228Y-74146703D01*
X229588228Y-74146703D01*
G37*
G36*
X163306564Y-72989389D02*
G01*
X163443235Y-73046000D01*
X163497835Y-73068616D01*
X163669973Y-73183635D01*
X163816365Y-73330027D01*
X163927388Y-73496184D01*
X163931385Y-73502167D01*
X164010611Y-73693436D01*
X164051000Y-73896484D01*
X164051000Y-74103516D01*
X164010611Y-74306564D01*
X163959068Y-74431000D01*
X163931384Y-74497835D01*
X163816365Y-74669973D01*
X163669973Y-74816365D01*
X163497835Y-74931384D01*
X163497834Y-74931385D01*
X163497833Y-74931385D01*
X163306564Y-75010611D01*
X163103516Y-75051000D01*
X162896484Y-75051000D01*
X162693436Y-75010611D01*
X162502167Y-74931385D01*
X162502166Y-74931385D01*
X162502165Y-74931384D01*
X162330027Y-74816365D01*
X162183635Y-74669973D01*
X162068616Y-74497835D01*
X162040932Y-74431000D01*
X161989389Y-74306564D01*
X161949000Y-74103516D01*
X161949000Y-73896484D01*
X161989389Y-73693436D01*
X162068615Y-73502167D01*
X162072613Y-73496184D01*
X162183635Y-73330027D01*
X162330027Y-73183635D01*
X162502165Y-73068616D01*
X162556765Y-73046000D01*
X162693436Y-72989389D01*
X162896484Y-72949000D01*
X163103516Y-72949000D01*
X163306564Y-72989389D01*
X163306564Y-72989389D01*
G37*
G36*
X226748228Y-72761703D02*
G01*
X226903100Y-72825853D01*
X227042481Y-72918985D01*
X227161015Y-73037519D01*
X227254147Y-73176900D01*
X227318297Y-73331772D01*
X227351000Y-73496184D01*
X227351000Y-73663816D01*
X227318297Y-73828228D01*
X227254147Y-73983100D01*
X227161015Y-74122481D01*
X227042481Y-74241015D01*
X226903100Y-74334147D01*
X226748228Y-74398297D01*
X226583816Y-74431000D01*
X226416184Y-74431000D01*
X226251772Y-74398297D01*
X226096900Y-74334147D01*
X225957519Y-74241015D01*
X225838985Y-74122481D01*
X225745853Y-73983100D01*
X225681703Y-73828228D01*
X225649000Y-73663816D01*
X225649000Y-73496184D01*
X225681703Y-73331772D01*
X225745853Y-73176900D01*
X225838985Y-73037519D01*
X225957519Y-72918985D01*
X226096900Y-72825853D01*
X226251772Y-72761703D01*
X226416184Y-72729000D01*
X226583816Y-72729000D01*
X226748228Y-72761703D01*
X226748228Y-72761703D01*
G37*
G36*
X229588228Y-71376703D02*
G01*
X229743100Y-71440853D01*
X229882481Y-71533985D01*
X230001015Y-71652519D01*
X230094147Y-71791900D01*
X230158297Y-71946772D01*
X230191000Y-72111184D01*
X230191000Y-72278816D01*
X230158297Y-72443228D01*
X230094147Y-72598100D01*
X230001015Y-72737481D01*
X229882481Y-72856015D01*
X229743100Y-72949147D01*
X229588228Y-73013297D01*
X229423816Y-73046000D01*
X229256184Y-73046000D01*
X229091772Y-73013297D01*
X228936900Y-72949147D01*
X228797519Y-72856015D01*
X228678985Y-72737481D01*
X228585853Y-72598100D01*
X228521703Y-72443228D01*
X228489000Y-72278816D01*
X228489000Y-72111184D01*
X228521703Y-71946772D01*
X228585853Y-71791900D01*
X228678985Y-71652519D01*
X228797519Y-71533985D01*
X228936900Y-71440853D01*
X229091772Y-71376703D01*
X229256184Y-71344000D01*
X229423816Y-71344000D01*
X229588228Y-71376703D01*
X229588228Y-71376703D01*
G37*
G36*
X226748228Y-69991703D02*
G01*
X226903100Y-70055853D01*
X227042481Y-70148985D01*
X227161015Y-70267519D01*
X227254147Y-70406900D01*
X227318297Y-70561772D01*
X227351000Y-70726184D01*
X227351000Y-70893816D01*
X227318297Y-71058228D01*
X227254147Y-71213100D01*
X227161015Y-71352481D01*
X227042481Y-71471015D01*
X226903100Y-71564147D01*
X226748228Y-71628297D01*
X226583816Y-71661000D01*
X226416184Y-71661000D01*
X226251772Y-71628297D01*
X226096900Y-71564147D01*
X225957519Y-71471015D01*
X225838985Y-71352481D01*
X225745853Y-71213100D01*
X225681703Y-71058228D01*
X225649000Y-70893816D01*
X225649000Y-70726184D01*
X225681703Y-70561772D01*
X225745853Y-70406900D01*
X225838985Y-70267519D01*
X225957519Y-70148985D01*
X226096900Y-70055853D01*
X226251772Y-69991703D01*
X226416184Y-69959000D01*
X226583816Y-69959000D01*
X226748228Y-69991703D01*
X226748228Y-69991703D01*
G37*
G36*
X163306564Y-69239389D02*
G01*
X163497833Y-69318615D01*
X163497835Y-69318616D01*
X163669973Y-69433635D01*
X163816365Y-69580027D01*
X163878641Y-69673229D01*
X163931385Y-69752167D01*
X164010611Y-69943436D01*
X164051000Y-70146484D01*
X164051000Y-70353516D01*
X164010611Y-70556564D01*
X163940352Y-70726184D01*
X163931384Y-70747835D01*
X163816365Y-70919973D01*
X163669973Y-71066365D01*
X163497835Y-71181384D01*
X163497834Y-71181385D01*
X163497833Y-71181385D01*
X163306564Y-71260611D01*
X163103516Y-71301000D01*
X162896484Y-71301000D01*
X162693436Y-71260611D01*
X162502167Y-71181385D01*
X162502166Y-71181385D01*
X162502165Y-71181384D01*
X162330027Y-71066365D01*
X162183635Y-70919973D01*
X162068616Y-70747835D01*
X162059648Y-70726184D01*
X161989389Y-70556564D01*
X161949000Y-70353516D01*
X161949000Y-70146484D01*
X161989389Y-69943436D01*
X162068615Y-69752167D01*
X162121360Y-69673229D01*
X162183635Y-69580027D01*
X162330027Y-69433635D01*
X162502165Y-69318616D01*
X162502167Y-69318615D01*
X162693436Y-69239389D01*
X162896484Y-69199000D01*
X163103516Y-69199000D01*
X163306564Y-69239389D01*
X163306564Y-69239389D01*
G37*
G36*
X229588228Y-68606703D02*
G01*
X229743100Y-68670853D01*
X229882481Y-68763985D01*
X230001015Y-68882519D01*
X230094147Y-69021900D01*
X230158297Y-69176772D01*
X230191000Y-69341184D01*
X230191000Y-69508816D01*
X230158297Y-69673228D01*
X230094147Y-69828100D01*
X230001015Y-69967481D01*
X229882481Y-70086015D01*
X229743100Y-70179147D01*
X229588228Y-70243297D01*
X229423816Y-70276000D01*
X229256184Y-70276000D01*
X229091772Y-70243297D01*
X228936900Y-70179147D01*
X228797519Y-70086015D01*
X228678985Y-69967481D01*
X228585853Y-69828100D01*
X228521703Y-69673228D01*
X228489000Y-69508816D01*
X228489000Y-69341184D01*
X228521703Y-69176772D01*
X228585853Y-69021900D01*
X228678985Y-68882519D01*
X228797519Y-68763985D01*
X228936900Y-68670853D01*
X229091772Y-68606703D01*
X229256184Y-68574000D01*
X229423816Y-68574000D01*
X229588228Y-68606703D01*
X229588228Y-68606703D01*
G37*
G36*
X79952601Y-68720397D02*
G01*
X79991305Y-68728096D01*
X80023340Y-68741365D01*
X80100680Y-68773400D01*
X80199115Y-68839173D01*
X80282827Y-68922885D01*
X80348600Y-69021320D01*
X80393904Y-69130696D01*
X80417000Y-69246805D01*
X80417000Y-69365195D01*
X80393904Y-69481304D01*
X80348600Y-69590680D01*
X80282827Y-69689115D01*
X80199115Y-69772827D01*
X80100680Y-69838600D01*
X80023340Y-69870635D01*
X79991305Y-69883904D01*
X79952601Y-69891603D01*
X79875195Y-69907000D01*
X79756805Y-69907000D01*
X79679399Y-69891603D01*
X79640695Y-69883904D01*
X79608660Y-69870635D01*
X79531320Y-69838600D01*
X79432885Y-69772827D01*
X79349173Y-69689115D01*
X79283400Y-69590680D01*
X79238096Y-69481304D01*
X79215000Y-69365195D01*
X79215000Y-69246805D01*
X79238096Y-69130696D01*
X79283400Y-69021320D01*
X79349173Y-68922885D01*
X79432885Y-68839173D01*
X79531320Y-68773400D01*
X79608660Y-68741365D01*
X79640695Y-68728096D01*
X79679399Y-68720397D01*
X79756805Y-68705000D01*
X79875195Y-68705000D01*
X79952601Y-68720397D01*
X79952601Y-68720397D01*
G37*
G36*
X226748228Y-67221703D02*
G01*
X226903100Y-67285853D01*
X227042481Y-67378985D01*
X227161015Y-67497519D01*
X227254147Y-67636900D01*
X227318297Y-67791772D01*
X227351000Y-67956184D01*
X227351000Y-68123816D01*
X227318297Y-68288228D01*
X227254147Y-68443100D01*
X227161015Y-68582481D01*
X227042481Y-68701015D01*
X226903100Y-68794147D01*
X226748228Y-68858297D01*
X226583816Y-68891000D01*
X226416184Y-68891000D01*
X226251772Y-68858297D01*
X226096900Y-68794147D01*
X225957519Y-68701015D01*
X225838985Y-68582481D01*
X225745853Y-68443100D01*
X225681703Y-68288228D01*
X225649000Y-68123816D01*
X225649000Y-67956184D01*
X225681703Y-67791772D01*
X225745853Y-67636900D01*
X225838985Y-67497519D01*
X225957519Y-67378985D01*
X226096900Y-67285853D01*
X226251772Y-67221703D01*
X226416184Y-67189000D01*
X226583816Y-67189000D01*
X226748228Y-67221703D01*
X226748228Y-67221703D01*
G37*
G36*
X163306564Y-65989389D02*
G01*
X163497833Y-66068615D01*
X163497835Y-66068616D01*
X163563540Y-66112519D01*
X163669973Y-66183635D01*
X163816365Y-66330027D01*
X163931385Y-66502167D01*
X164010611Y-66693436D01*
X164051000Y-66896484D01*
X164051000Y-67103516D01*
X164010611Y-67306564D01*
X163931385Y-67497833D01*
X163931384Y-67497835D01*
X163816365Y-67669973D01*
X163669973Y-67816365D01*
X163497835Y-67931384D01*
X163497834Y-67931385D01*
X163497833Y-67931385D01*
X163306564Y-68010611D01*
X163103516Y-68051000D01*
X162896484Y-68051000D01*
X162693436Y-68010611D01*
X162502167Y-67931385D01*
X162502166Y-67931385D01*
X162502165Y-67931384D01*
X162330027Y-67816365D01*
X162183635Y-67669973D01*
X162068616Y-67497835D01*
X162068615Y-67497833D01*
X161989389Y-67306564D01*
X161949000Y-67103516D01*
X161949000Y-66896484D01*
X161989389Y-66693436D01*
X162068615Y-66502167D01*
X162183635Y-66330027D01*
X162330027Y-66183635D01*
X162436460Y-66112519D01*
X162502165Y-66068616D01*
X162502167Y-66068615D01*
X162693436Y-65989389D01*
X162896484Y-65949000D01*
X163103516Y-65949000D01*
X163306564Y-65989389D01*
X163306564Y-65989389D01*
G37*
G36*
X229588228Y-65836703D02*
G01*
X229743100Y-65900853D01*
X229882481Y-65993985D01*
X230001015Y-66112519D01*
X230094147Y-66251900D01*
X230158297Y-66406772D01*
X230191000Y-66571184D01*
X230191000Y-66738816D01*
X230158297Y-66903228D01*
X230094147Y-67058100D01*
X230001015Y-67197481D01*
X229882481Y-67316015D01*
X229743100Y-67409147D01*
X229588228Y-67473297D01*
X229423816Y-67506000D01*
X229256184Y-67506000D01*
X229091772Y-67473297D01*
X228936900Y-67409147D01*
X228797519Y-67316015D01*
X228678985Y-67197481D01*
X228585853Y-67058100D01*
X228521703Y-66903228D01*
X228489000Y-66738816D01*
X228489000Y-66571184D01*
X228521703Y-66406772D01*
X228585853Y-66251900D01*
X228678985Y-66112519D01*
X228797519Y-65993985D01*
X228936900Y-65900853D01*
X229091772Y-65836703D01*
X229256184Y-65804000D01*
X229423816Y-65804000D01*
X229588228Y-65836703D01*
X229588228Y-65836703D01*
G37*
G36*
X226748228Y-64451703D02*
G01*
X226903100Y-64515853D01*
X227042481Y-64608985D01*
X227161015Y-64727519D01*
X227254147Y-64866900D01*
X227318297Y-65021772D01*
X227351000Y-65186184D01*
X227351000Y-65353816D01*
X227318297Y-65518228D01*
X227254147Y-65673100D01*
X227161015Y-65812481D01*
X227042481Y-65931015D01*
X226903100Y-66024147D01*
X226748228Y-66088297D01*
X226583816Y-66121000D01*
X226416184Y-66121000D01*
X226251772Y-66088297D01*
X226096900Y-66024147D01*
X225957519Y-65931015D01*
X225838985Y-65812481D01*
X225745853Y-65673100D01*
X225681703Y-65518228D01*
X225649000Y-65353816D01*
X225649000Y-65186184D01*
X225681703Y-65021772D01*
X225745853Y-64866900D01*
X225838985Y-64727519D01*
X225957519Y-64608985D01*
X226096900Y-64515853D01*
X226251772Y-64451703D01*
X226416184Y-64419000D01*
X226583816Y-64419000D01*
X226748228Y-64451703D01*
X226748228Y-64451703D01*
G37*
G36*
X163306564Y-62739389D02*
G01*
X163497833Y-62818615D01*
X163497835Y-62818616D01*
X163669973Y-62933635D01*
X163816365Y-63080027D01*
X163912555Y-63223985D01*
X163931385Y-63252167D01*
X164010611Y-63443436D01*
X164051000Y-63646484D01*
X164051000Y-63853516D01*
X164010611Y-64056564D01*
X163978855Y-64133229D01*
X163931384Y-64247835D01*
X163816365Y-64419973D01*
X163669973Y-64566365D01*
X163497835Y-64681384D01*
X163497834Y-64681385D01*
X163497833Y-64681385D01*
X163306564Y-64760611D01*
X163103516Y-64801000D01*
X162896484Y-64801000D01*
X162693436Y-64760611D01*
X162502167Y-64681385D01*
X162502166Y-64681385D01*
X162502165Y-64681384D01*
X162330027Y-64566365D01*
X162183635Y-64419973D01*
X162068616Y-64247835D01*
X162021145Y-64133229D01*
X161989389Y-64056564D01*
X161949000Y-63853516D01*
X161949000Y-63646484D01*
X161989389Y-63443436D01*
X162068615Y-63252167D01*
X162087446Y-63223985D01*
X162183635Y-63080027D01*
X162330027Y-62933635D01*
X162502165Y-62818616D01*
X162502167Y-62818615D01*
X162693436Y-62739389D01*
X162896484Y-62699000D01*
X163103516Y-62699000D01*
X163306564Y-62739389D01*
X163306564Y-62739389D01*
G37*
G36*
X229588228Y-63066703D02*
G01*
X229743100Y-63130853D01*
X229882481Y-63223985D01*
X230001015Y-63342519D01*
X230094147Y-63481900D01*
X230158297Y-63636772D01*
X230191000Y-63801184D01*
X230191000Y-63968816D01*
X230158297Y-64133228D01*
X230094147Y-64288100D01*
X230001015Y-64427481D01*
X229882481Y-64546015D01*
X229743100Y-64639147D01*
X229588228Y-64703297D01*
X229423816Y-64736000D01*
X229256184Y-64736000D01*
X229091772Y-64703297D01*
X228936900Y-64639147D01*
X228797519Y-64546015D01*
X228678985Y-64427481D01*
X228585853Y-64288100D01*
X228521703Y-64133228D01*
X228489000Y-63968816D01*
X228489000Y-63801184D01*
X228521703Y-63636772D01*
X228585853Y-63481900D01*
X228678985Y-63342519D01*
X228797519Y-63223985D01*
X228936900Y-63130853D01*
X229091772Y-63066703D01*
X229256184Y-63034000D01*
X229423816Y-63034000D01*
X229588228Y-63066703D01*
X229588228Y-63066703D01*
G37*
G36*
X227351000Y-63351000D02*
G01*
X225649000Y-63351000D01*
X225649000Y-61649000D01*
X227351000Y-61649000D01*
X227351000Y-63351000D01*
X227351000Y-63351000D01*
G37*
G36*
X79952601Y-61100397D02*
G01*
X79991305Y-61108096D01*
X80023340Y-61121365D01*
X80100680Y-61153400D01*
X80199115Y-61219173D01*
X80282827Y-61302885D01*
X80348600Y-61401320D01*
X80393904Y-61510696D01*
X80417000Y-61626805D01*
X80417000Y-61745195D01*
X80393904Y-61861304D01*
X80348600Y-61970680D01*
X80282827Y-62069115D01*
X80199115Y-62152827D01*
X80100680Y-62218600D01*
X80023340Y-62250635D01*
X79991305Y-62263904D01*
X79952601Y-62271603D01*
X79875195Y-62287000D01*
X79756805Y-62287000D01*
X79679399Y-62271603D01*
X79640695Y-62263904D01*
X79608660Y-62250635D01*
X79531320Y-62218600D01*
X79432885Y-62152827D01*
X79349173Y-62069115D01*
X79283400Y-61970680D01*
X79238096Y-61861304D01*
X79215000Y-61745195D01*
X79215000Y-61626805D01*
X79238096Y-61510696D01*
X79283400Y-61401320D01*
X79349173Y-61302885D01*
X79432885Y-61219173D01*
X79531320Y-61153400D01*
X79608660Y-61121365D01*
X79640695Y-61108096D01*
X79679399Y-61100397D01*
X79756805Y-61085000D01*
X79875195Y-61085000D01*
X79952601Y-61100397D01*
X79952601Y-61100397D01*
G37*
G36*
X163306564Y-58989389D02*
G01*
X163497833Y-59068615D01*
X163497835Y-59068616D01*
X163669973Y-59183635D01*
X163816365Y-59330027D01*
X163931385Y-59502167D01*
X164010611Y-59693436D01*
X164051000Y-59896484D01*
X164051000Y-60103516D01*
X164010611Y-60306564D01*
X163931385Y-60497833D01*
X163931384Y-60497835D01*
X163816365Y-60669973D01*
X163669973Y-60816365D01*
X163497835Y-60931384D01*
X163497834Y-60931385D01*
X163497833Y-60931385D01*
X163306564Y-61010611D01*
X163103516Y-61051000D01*
X162896484Y-61051000D01*
X162693436Y-61010611D01*
X162502167Y-60931385D01*
X162502166Y-60931385D01*
X162502165Y-60931384D01*
X162330027Y-60816365D01*
X162183635Y-60669973D01*
X162068616Y-60497835D01*
X162068615Y-60497833D01*
X161989389Y-60306564D01*
X161949000Y-60103516D01*
X161949000Y-59896484D01*
X161989389Y-59693436D01*
X162068615Y-59502167D01*
X162183635Y-59330027D01*
X162330027Y-59183635D01*
X162502165Y-59068616D01*
X162502167Y-59068615D01*
X162693436Y-58989389D01*
X162896484Y-58949000D01*
X163103516Y-58949000D01*
X163306564Y-58989389D01*
X163306564Y-58989389D01*
G37*
G36*
X163306564Y-55739389D02*
G01*
X163497833Y-55818615D01*
X163497835Y-55818616D01*
X163669973Y-55933635D01*
X163816365Y-56080027D01*
X163931385Y-56252167D01*
X164010611Y-56443436D01*
X164051000Y-56646484D01*
X164051000Y-56853516D01*
X164010611Y-57056564D01*
X163931385Y-57247833D01*
X163931384Y-57247835D01*
X163816365Y-57419973D01*
X163669973Y-57566365D01*
X163497835Y-57681384D01*
X163497834Y-57681385D01*
X163497833Y-57681385D01*
X163306564Y-57760611D01*
X163103516Y-57801000D01*
X162896484Y-57801000D01*
X162693436Y-57760611D01*
X162502167Y-57681385D01*
X162502166Y-57681385D01*
X162502165Y-57681384D01*
X162330027Y-57566365D01*
X162183635Y-57419973D01*
X162068616Y-57247835D01*
X162068615Y-57247833D01*
X161989389Y-57056564D01*
X161949000Y-56853516D01*
X161949000Y-56646484D01*
X161989389Y-56443436D01*
X162068615Y-56252167D01*
X162183635Y-56080027D01*
X162330027Y-55933635D01*
X162502165Y-55818616D01*
X162502167Y-55818615D01*
X162693436Y-55739389D01*
X162896484Y-55699000D01*
X163103516Y-55699000D01*
X163306564Y-55739389D01*
X163306564Y-55739389D01*
G37*
G36*
X227398254Y-53597818D02*
G01*
X227771511Y-53752426D01*
X227771513Y-53752427D01*
X227852536Y-53806565D01*
X228107436Y-53976884D01*
X228393116Y-54262564D01*
X228617574Y-54598489D01*
X228772182Y-54971746D01*
X228851000Y-55367993D01*
X228851000Y-55772007D01*
X228772182Y-56168254D01*
X228737424Y-56252167D01*
X228617573Y-56541513D01*
X228393116Y-56877436D01*
X228107436Y-57163116D01*
X227771513Y-57387573D01*
X227771512Y-57387574D01*
X227771511Y-57387574D01*
X227398254Y-57542182D01*
X227002007Y-57621000D01*
X226597993Y-57621000D01*
X226201746Y-57542182D01*
X225828489Y-57387574D01*
X225828488Y-57387574D01*
X225828487Y-57387573D01*
X225492564Y-57163116D01*
X225206884Y-56877436D01*
X224982427Y-56541513D01*
X224862576Y-56252167D01*
X224827818Y-56168254D01*
X224749000Y-55772007D01*
X224749000Y-55367993D01*
X224827818Y-54971746D01*
X224982426Y-54598489D01*
X225206884Y-54262564D01*
X225492564Y-53976884D01*
X225747464Y-53806565D01*
X225828487Y-53752427D01*
X225828489Y-53752426D01*
X226201746Y-53597818D01*
X226597993Y-53519000D01*
X227002007Y-53519000D01*
X227398254Y-53597818D01*
X227398254Y-53597818D01*
G37*
G36*
X163306564Y-52489389D02*
G01*
X163497833Y-52568615D01*
X163497835Y-52568616D01*
X163669973Y-52683635D01*
X163816365Y-52830027D01*
X163931385Y-53002167D01*
X164010611Y-53193436D01*
X164051000Y-53396484D01*
X164051000Y-53603516D01*
X164010611Y-53806564D01*
X163940062Y-53976884D01*
X163931384Y-53997835D01*
X163816365Y-54169973D01*
X163669973Y-54316365D01*
X163497835Y-54431384D01*
X163497834Y-54431385D01*
X163497833Y-54431385D01*
X163306564Y-54510611D01*
X163103516Y-54551000D01*
X162896484Y-54551000D01*
X162693436Y-54510611D01*
X162502167Y-54431385D01*
X162502166Y-54431385D01*
X162502165Y-54431384D01*
X162330027Y-54316365D01*
X162183635Y-54169973D01*
X162068616Y-53997835D01*
X162059938Y-53976884D01*
X161989389Y-53806564D01*
X161949000Y-53603516D01*
X161949000Y-53396484D01*
X161989389Y-53193436D01*
X162068615Y-53002167D01*
X162183635Y-52830027D01*
X162330027Y-52683635D01*
X162502165Y-52568616D01*
X162502167Y-52568615D01*
X162693436Y-52489389D01*
X162896484Y-52449000D01*
X163103516Y-52449000D01*
X163306564Y-52489389D01*
X163306564Y-52489389D01*
G37*
M02*
