M48
; DRILL file {KiCad 5.1.4} date Tue 17 Sep 2019 11:30:53 PM CEST
; FORMAT={-:-/ absolute / inch / decimal}
; #@! TF.CreationDate,2019-09-17T23:30:53+02:00
; #@! TF.GenerationSoftware,Kicad,Pcbnew,5.1.4
; #@! TF.FileFunction,Plated,1,2,PTH
FMAT,2
INCH
T1C0.0157
T2C0.0276
T3C0.0299
T4C0.0315
T5C0.0394
T6C0.0472
T7C0.0512
T8C0.0591
T9C0.1260
%
G90
G05
T1
X3.1524Y-2.6286
X3.1524Y-2.8286
X3.2224Y-2.3786
X3.2324Y-3.0986
X3.4924Y-2.5286
X3.4924Y-2.6286
X3.4924Y-2.7286
X3.4924Y-2.8286
X3.4924Y-2.9286
X3.4924Y-3.0286
T2
X3.4055Y-4.3701
X3.4055Y-5.3543
X3.6024Y-4.3701
X4.1929Y-4.3701
X4.3898Y-4.3701
X4.3898Y-5.3543
X5.2165Y-4.3701
X5.2165Y-5.3543
X5.4134Y-4.3701
X6.0039Y-4.3701
X6.2008Y-4.3701
X6.2008Y-5.3543
T3
X7.9528Y-3.3268
X8.252Y-3.3268
T4
X3.3071Y-3.5433
X3.3071Y-3.7008
X3.3858Y-3.5433
X3.3858Y-3.7008
X3.6811Y-2.1654
X3.7106Y-2.0866
X3.8976Y-2.2835
X3.9173Y-2.0866
X3.9173Y-2.1555
X4.065Y-2.2146
X4.1339Y-2.2146
X4.1683Y-2.2717
X4.2028Y-2.2146
X4.7244Y-2.3622
X4.7244Y-2.4311
X4.7825Y-2.3967
X4.8819Y-2.5492
X4.9213Y-2.1752
X4.9508Y-2.5492
X5.1378Y-2.4606
X5.1673Y-2.1752
X5.3543Y-2.6772
X5.4232Y-2.6083
X5.4232Y-2.6772
X6.122Y-2.7264
X6.1565Y-2.7874
X6.1909Y-2.7264
X6.2205Y-3.5433
X6.2205Y-3.7008
X6.2992Y-3.7008
X6.378Y-3.7008
X7.1949Y-3.4055
X7.1949Y-3.4744
X7.2638Y-3.2874
X7.2638Y-3.4055
X7.2638Y-3.4744
X7.3327Y-3.2874
X7.4016Y-3.2874
X7.5Y-3.0315
X7.5Y-3.1004
X7.5689Y-3.0315
X7.5689Y-3.1004
X7.9035Y-3.7106
X8.2185Y-3.7106
X7.2031Y-3.0315
X7.3031Y-3.0315
X7.4031Y-3.0315
X7.9528Y-4.4291
X8.5512Y-4.4291
T5
X6.4173Y-2.3622
X6.4173Y-2.1063
X6.4173Y-3.1693
X6.4173Y-3.4449
X6.4173Y-3.0413
X6.4173Y-2.7657
X8.9173Y-2.4606
X8.9173Y-2.5697
X8.9173Y-2.6787
X8.9173Y-2.7878
X8.9173Y-2.8969
X8.9173Y-3.0059
X8.9173Y-3.115
X8.9173Y-3.224
X8.9173Y-3.3331
X8.9173Y-3.4421
X8.9173Y-3.5512
X8.9173Y-3.6602
X8.9173Y-3.7693
X9.0291Y-2.5152
X9.0291Y-2.6242
X9.0291Y-2.7333
X9.0291Y-2.8423
X9.0291Y-2.9514
X9.0291Y-3.0604
X9.0291Y-3.1695
X9.0291Y-3.2785
X9.0291Y-3.3876
X9.0291Y-3.4967
X9.0291Y-3.6057
X9.0291Y-3.7148
X6.4173Y-2.2343
X6.4173Y-2.5098
X6.4173Y-2.9134
X6.4173Y-3.3169
X6.4173Y-2.6378
T6
X4.4291Y-3.7992
X4.626Y-3.7992
X4.9803Y-3.7992
X5.1772Y-3.7992
X5.5315Y-3.7992
X5.7283Y-3.7992
X5.5315Y-3.248
X5.7283Y-3.248
X3.878Y-3.7992
X4.0748Y-3.7992
X3.878Y-3.248
X4.0748Y-3.248
X4.4291Y-3.248
X4.626Y-3.248
X4.9803Y-3.248
X5.1772Y-3.248
T7
X7.874Y-4.8228
X7.874Y-5.4528
X7.874Y-5.1378
T8
X7.126Y-5.4528
X7.2343Y-3.937
X7.5492Y-3.937
X7.5492Y-5.4528
T9
X8.9291Y-2.1878
X8.9291Y-4.0421
T0
M30
