%TF.GenerationSoftware,KiCad,Pcbnew,5.1.6*%
%TF.CreationDate,2020-09-25T18:31:25+02:00*%
%TF.ProjectId,Base-Interconnect,42617365-2d49-46e7-9465-72636f6e6e65,rev?*%
%TF.SameCoordinates,Original*%
%TF.FileFunction,Copper,L1,Top*%
%TF.FilePolarity,Positive*%
%FSLAX46Y46*%
G04 Gerber Fmt 4.6, Leading zero omitted, Abs format (unit mm)*
G04 Created by KiCad (PCBNEW 5.1.6) date 2020-09-25 18:31:25*
%MOMM*%
%LPD*%
G01*
G04 APERTURE LIST*
%TA.AperFunction,SMDPad,CuDef*%
%ADD10R,1.650000X0.600000*%
%TD*%
%TA.AperFunction,ComponentPad*%
%ADD11C,0.800000*%
%TD*%
%TA.AperFunction,ComponentPad*%
%ADD12C,6.400000*%
%TD*%
%TA.AperFunction,ComponentPad*%
%ADD13C,4.000000*%
%TD*%
%TA.AperFunction,ComponentPad*%
%ADD14C,1.600000*%
%TD*%
%TA.AperFunction,ComponentPad*%
%ADD15C,0.100000*%
%TD*%
%TA.AperFunction,ViaPad*%
%ADD16C,1.000000*%
%TD*%
%TA.AperFunction,Conductor*%
%ADD17C,0.500000*%
%TD*%
%TA.AperFunction,Conductor*%
%ADD18C,0.400000*%
%TD*%
%TA.AperFunction,Conductor*%
%ADD19C,0.800000*%
%TD*%
%TA.AperFunction,Conductor*%
%ADD20C,0.300000*%
%TD*%
G04 APERTURE END LIST*
D10*
%TO.P,J4,16*%
%TO.N,/stepper_A-*%
X208225000Y-95100000D03*
%TO.P,J4,2*%
%TO.N,/piezo_x+*%
X208225000Y-109100000D03*
%TO.P,J4,18*%
%TO.N,/bias_gnd*%
X208225000Y-93100000D03*
%TO.P,J4,7*%
%TO.N,/tunnel_gnd*%
X208225000Y-104100000D03*
%TO.P,J4,14*%
%TO.N,/stepper_A+*%
X208225000Y-97100000D03*
%TO.P,J4,8*%
%TO.N,/tunnel_signal*%
X208225000Y-103100000D03*
%TO.P,J4,12*%
%TO.N,/analog_-15V*%
X208225000Y-99100000D03*
%TO.P,J4,20*%
%TO.N,/bias_gnd*%
X208225000Y-91100000D03*
%TO.P,J4,15*%
%TO.N,/stepper_B-*%
X208225000Y-96100000D03*
%TO.P,J4,1*%
%TO.N,/piezo_x-*%
X208225000Y-110100000D03*
%TO.P,J4,3*%
%TO.N,/piezo_y-*%
X208225000Y-108100000D03*
%TO.P,J4,17*%
%TO.N,/stepper_B+*%
X208225000Y-94100000D03*
%TO.P,J4,4*%
%TO.N,/piezo_y+*%
X208225000Y-107100000D03*
%TO.P,J4,10*%
%TO.N,/analog_gnd*%
X208225000Y-101100000D03*
%TO.P,J4,19*%
%TO.N,/bias*%
X208225000Y-92100000D03*
%TO.P,J4,9*%
%TO.N,/tunnel_gnd*%
X208225000Y-102100000D03*
%TO.P,J4,5*%
%TO.N,/piezo_gnd*%
X208225000Y-106100000D03*
%TO.P,J4,11*%
%TO.N,/analog_+15V*%
X208225000Y-100100000D03*
%TO.P,J4,6*%
%TO.N,/analog_gnd*%
X208225000Y-105100000D03*
%TO.P,J4,13*%
X208225000Y-98100000D03*
%TO.P,J4,20*%
%TO.N,/bias_gnd*%
X204375000Y-91100000D03*
%TO.P,J4,19*%
%TO.N,/bias*%
X204375000Y-92100000D03*
%TO.P,J4,18*%
%TO.N,/bias_gnd*%
X204375000Y-93100000D03*
%TO.P,J4,17*%
%TO.N,/stepper_B+*%
X204375000Y-94100000D03*
%TO.P,J4,16*%
%TO.N,/stepper_A-*%
X204375000Y-95100000D03*
%TO.P,J4,15*%
%TO.N,/stepper_B-*%
X204375000Y-96100000D03*
%TO.P,J4,14*%
%TO.N,/stepper_A+*%
X204375000Y-97100000D03*
%TO.P,J4,13*%
%TO.N,/analog_gnd*%
X204375000Y-98100000D03*
%TO.P,J4,12*%
%TO.N,/analog_-15V*%
X204375000Y-99100000D03*
%TO.P,J4,11*%
%TO.N,/analog_+15V*%
X204375000Y-100100000D03*
%TO.P,J4,10*%
%TO.N,/analog_gnd*%
X204375000Y-101100000D03*
%TO.P,J4,9*%
%TO.N,/tunnel_gnd*%
X204375000Y-102100000D03*
%TO.P,J4,8*%
%TO.N,/tunnel_signal*%
X204375000Y-103100000D03*
%TO.P,J4,7*%
%TO.N,/tunnel_gnd*%
X204375000Y-104100000D03*
%TO.P,J4,6*%
%TO.N,/analog_gnd*%
X204375000Y-105100000D03*
%TO.P,J4,5*%
%TO.N,/piezo_gnd*%
X204375000Y-106100000D03*
%TO.P,J4,4*%
%TO.N,/piezo_y+*%
X204375000Y-107100000D03*
%TO.P,J4,3*%
%TO.N,/piezo_y-*%
X204375000Y-108100000D03*
%TO.P,J4,2*%
%TO.N,/piezo_x+*%
X204375000Y-109100000D03*
%TO.P,J4,1*%
%TO.N,/piezo_x-*%
X204375000Y-110100000D03*
%TD*%
D11*
%TO.P,H4,1*%
%TO.N,/analog_gnd*%
X204984156Y-115521744D03*
X203287100Y-114818800D03*
X201590044Y-115521744D03*
X200887100Y-117218800D03*
X201590044Y-118915856D03*
X203287100Y-119618800D03*
X204984156Y-118915856D03*
X205687100Y-117218800D03*
D12*
X203287100Y-117218800D03*
%TD*%
D11*
%TO.P,H3,1*%
%TO.N,/analog_gnd*%
X220250856Y-82682844D03*
X218553800Y-81979900D03*
X216856744Y-82682844D03*
X216153800Y-84379900D03*
X216856744Y-86076956D03*
X218553800Y-86779900D03*
X220250856Y-86076956D03*
X220953800Y-84379900D03*
D12*
X218553800Y-84379900D03*
%TD*%
D11*
%TO.P,H2,1*%
%TO.N,/analog_gnd*%
X199501356Y-46743644D03*
X197804300Y-46040700D03*
X196107244Y-46743644D03*
X195404300Y-48440700D03*
X196107244Y-50137756D03*
X197804300Y-50840700D03*
X199501356Y-50137756D03*
X200204300Y-48440700D03*
D12*
X197804300Y-48440700D03*
%TD*%
D13*
%TO.P,J3,0*%
%TO.N,Net-(J3-Pad0)*%
X214947293Y-92384639D03*
X213072825Y-117314267D03*
D14*
%TO.P,J3,9*%
%TO.N,/piezo_x+*%
X215114525Y-109099227D03*
%TO.P,J3,8*%
%TO.N,/piezo_x-*%
X215322216Y-106337024D03*
%TO.P,J3,7*%
%TO.N,/piezo_y+*%
X215529907Y-103574822D03*
%TO.P,J3,6*%
%TO.N,/piezo_y-*%
X215737598Y-100812619D03*
%TO.P,J3,5*%
%TO.N,/piezo_gnd*%
X212178674Y-110267389D03*
%TO.P,J3,4*%
X212386365Y-107505186D03*
%TO.P,J3,3*%
X212594056Y-104742983D03*
%TO.P,J3,2*%
X212801747Y-101980781D03*
%TA.AperFunction,ComponentPad*%
D15*
%TO.P,J3,1*%
G36*
X213747203Y-100076309D02*
G01*
X212151707Y-99956343D01*
X212271673Y-98360847D01*
X213867169Y-98480813D01*
X213747203Y-100076309D01*
G37*
%TD.AperFunction*%
%TD*%
D13*
%TO.P,J2,0*%
%TO.N,Net-(J2-Pad0)*%
X199343189Y-57077982D03*
X211843189Y-78728618D03*
D14*
%TO.P,J2,9*%
%TO.N,/analog_+15V*%
X208900445Y-70791636D03*
%TO.P,J2,8*%
%TO.N,/bias*%
X207515445Y-68392745D03*
%TO.P,J2,7*%
%TO.N,/tunnel_gnd*%
X206130445Y-65993855D03*
%TO.P,J2,6*%
%TO.N,/tunnel_signal*%
X204745445Y-63594964D03*
%TO.P,J2,5*%
%TO.N,/analog_-15V*%
X207133433Y-73411081D03*
%TO.P,J2,4*%
%TO.N,/bias_gnd*%
X205748433Y-71012190D03*
%TO.P,J2,3*%
X204363433Y-68613300D03*
%TO.P,J2,2*%
%TO.N,/analog_gnd*%
X202978433Y-66214410D03*
%TA.AperFunction,ComponentPad*%
D15*
%TO.P,J2,1*%
G36*
X202686253Y-64108339D02*
G01*
X201300613Y-64908339D01*
X200500613Y-63522699D01*
X201886253Y-62722699D01*
X202686253Y-64108339D01*
G37*
%TD.AperFunction*%
%TD*%
D13*
%TO.P,J1,0*%
%TO.N,Net-(J1-Pad0)*%
X166541813Y-36720241D03*
X189068738Y-47561718D03*
D14*
%TO.P,J1,9*%
%TO.N,/stepper_A+*%
X182165046Y-42663303D03*
%TO.P,J1,8*%
%TO.N,/stepper_A-*%
X179669063Y-41462068D03*
%TO.P,J1,7*%
%TO.N,/stepper_B+*%
X177173080Y-40260832D03*
%TO.P,J1,6*%
%TO.N,/stepper_B-*%
X174677096Y-39059596D03*
%TO.P,J1,5*%
%TO.N,Net-(J1-Pad5)*%
X182181446Y-45822980D03*
%TO.P,J1,4*%
%TO.N,Net-(J1-Pad4)*%
X179685463Y-44621744D03*
%TO.P,J1,3*%
%TO.N,Net-(J1-Pad3)*%
X177189480Y-43420509D03*
%TO.P,J1,2*%
%TO.N,Net-(J1-Pad2)*%
X174693496Y-42219273D03*
%TA.AperFunction,ComponentPad*%
D15*
%TO.P,J1,1*%
%TO.N,Net-(J1-Pad1)*%
G36*
X173265302Y-40644103D02*
G01*
X172571447Y-42085826D01*
X171129724Y-41391971D01*
X171823579Y-39950248D01*
X173265302Y-40644103D01*
G37*
%TD.AperFunction*%
%TD*%
D11*
%TO.P,H1,1*%
%TO.N,/analog_gnd*%
X163428656Y-43545544D03*
X161731600Y-42842600D03*
X160034544Y-43545544D03*
X159331600Y-45242600D03*
X160034544Y-46939656D03*
X161731600Y-47642600D03*
X163428656Y-46939656D03*
X164131600Y-45242600D03*
D12*
X161731600Y-45242600D03*
%TD*%
D16*
%TO.N,/piezo_x-*%
X206600000Y-110100000D03*
%TO.N,/piezo_y-*%
X206600000Y-108100000D03*
%TO.N,/tunnel_signal*%
X206590000Y-103100000D03*
%TO.N,/analog_gnd*%
X205800000Y-98100000D03*
X202100000Y-85600000D03*
X190800000Y-64400000D03*
X186200000Y-58500000D03*
X174000000Y-51200000D03*
X168600000Y-46600000D03*
X161900000Y-38500000D03*
X164200000Y-29800000D03*
X173500000Y-34000000D03*
X187800000Y-41100000D03*
X206600000Y-58200000D03*
X220900000Y-97000000D03*
X219700000Y-113400000D03*
X216900000Y-122500000D03*
X211900000Y-75300000D03*
X206300000Y-101100000D03*
X206515000Y-75235000D03*
X213246000Y-67869000D03*
X206261000Y-105080000D03*
%TO.N,/analog_-15V*%
X206800000Y-99100000D03*
%TO.N,/stepper_A+*%
X206800000Y-97100000D03*
%TO.N,/stepper_A-*%
X206800000Y-95100000D03*
%TO.N,/stepper_B+*%
X205100000Y-89400000D03*
%TO.N,/stepper_B-*%
X205800000Y-96100000D03*
%TO.N,/bias_gnd*%
X206017000Y-91100000D03*
X206007000Y-93142000D03*
%TO.N,/piezo_gnd*%
X209817000Y-105334000D03*
X208293000Y-111557000D03*
X217691000Y-105080000D03*
%TD*%
D17*
%TO.N,/piezo_x+*%
X204375000Y-109100000D02*
X208225000Y-109100000D01*
D18*
X215114525Y-109099227D02*
X211000000Y-108800000D01*
X210700000Y-109100000D02*
X208225000Y-109100000D01*
X211000000Y-108800000D02*
X210700000Y-109100000D01*
D17*
%TO.N,/piezo_x-*%
X204375000Y-110100000D02*
X206600000Y-110100000D01*
X206600000Y-110100000D02*
X208225000Y-110100000D01*
D18*
X217300000Y-107100000D02*
X217300000Y-110000000D01*
X216537024Y-106337024D02*
X217300000Y-107100000D01*
X211000000Y-112200000D02*
X208900000Y-110100000D01*
X208900000Y-110100000D02*
X208225000Y-110100000D01*
X215100000Y-112200000D02*
X211000000Y-112200000D01*
X217300000Y-110000000D02*
X215100000Y-112200000D01*
X215322216Y-106337024D02*
X216537024Y-106337024D01*
D17*
%TO.N,/piezo_y+*%
X208225000Y-107100000D02*
X204375000Y-107100000D01*
%TO.N,/piezo_y-*%
X204375000Y-108100000D02*
X206600000Y-108100000D01*
X206600000Y-108100000D02*
X208225000Y-108100000D01*
D18*
%TO.N,/piezo_y+*%
X210100000Y-107100000D02*
X208225000Y-107100000D01*
X210100000Y-107100000D02*
X211214000Y-105969000D01*
X211214000Y-105969000D02*
X211341000Y-104064000D01*
X211341000Y-104064000D02*
X212208633Y-103323367D01*
X215529907Y-103574822D02*
X212208633Y-103323367D01*
D17*
%TO.N,/tunnel_signal*%
X204375000Y-103100000D02*
X206200000Y-103100000D01*
X206200000Y-103100000D02*
X208225000Y-103100000D01*
%TO.N,/tunnel_gnd*%
X204375000Y-104100000D02*
X208225000Y-104100000D01*
X208225000Y-102100000D02*
X204375000Y-102100000D01*
X208754611Y-66391389D02*
X206130445Y-65993855D01*
X215786000Y-76886000D02*
X208754611Y-66391389D01*
X215786000Y-80061000D02*
X215786000Y-76886000D01*
X212103000Y-83744000D02*
X215786000Y-80061000D01*
X211214000Y-95047000D02*
X212103000Y-94158000D01*
X211214000Y-100508000D02*
X211214000Y-95047000D01*
X212103000Y-94158000D02*
X212103000Y-83744000D01*
X209622000Y-102100000D02*
X211214000Y-100508000D01*
X208225000Y-102100000D02*
X209622000Y-102100000D01*
D18*
X208225000Y-104100000D02*
X209019000Y-104100000D01*
X209622000Y-103497000D02*
X209622000Y-102100000D01*
X209019000Y-104100000D02*
X209622000Y-103497000D01*
D17*
%TO.N,/bias*%
X204375000Y-92100000D02*
X208225000Y-92100000D01*
D18*
X207515445Y-68392745D02*
X203594000Y-70663000D01*
D17*
X209400000Y-92100000D02*
X208225000Y-92100000D01*
X209800000Y-89900000D02*
X209800000Y-91700000D01*
X208350000Y-84182000D02*
X208350000Y-88450000D01*
X206388000Y-77902000D02*
X206388000Y-82220000D01*
X206388000Y-82220000D02*
X208350000Y-84182000D01*
X203213000Y-72441000D02*
X206388000Y-77902000D01*
X209800000Y-91700000D02*
X209400000Y-92100000D01*
X208350000Y-88450000D02*
X209800000Y-89900000D01*
X203594000Y-70663000D02*
X203213000Y-72441000D01*
%TO.N,/analog_+15V*%
X204375000Y-100100000D02*
X208225000Y-100100000D01*
D19*
X209944000Y-71835191D02*
X208900445Y-70791636D01*
X209944000Y-74219000D02*
X209944000Y-71835191D01*
X208674000Y-75489000D02*
X209944000Y-74219000D01*
X208674000Y-81374000D02*
X208674000Y-75489000D01*
X210900000Y-83600000D02*
X208674000Y-81374000D01*
X210900000Y-93075000D02*
X210900000Y-83600000D01*
X210000000Y-93975000D02*
X210900000Y-93075000D01*
D17*
X209575000Y-100100000D02*
X210000000Y-99675000D01*
X208225000Y-100100000D02*
X209575000Y-100100000D01*
D19*
X210000000Y-93975000D02*
X210000000Y-99675000D01*
D17*
%TO.N,/analog_gnd*%
X208225000Y-105100000D02*
X206622000Y-105100000D01*
X205800000Y-98100000D02*
X204375000Y-98100000D01*
D18*
X208225000Y-98100000D02*
X205800000Y-98100000D01*
D17*
X206300000Y-105100000D02*
X204375000Y-105100000D01*
%TO.N,/bias_gnd*%
X208225000Y-91100000D02*
X206300000Y-91100000D01*
X206300000Y-91100000D02*
X206017000Y-91100000D01*
X208225000Y-93100000D02*
X206300000Y-93100000D01*
X206300000Y-93100000D02*
X206300000Y-93100000D01*
%TO.N,/analog_gnd*%
X208225000Y-101100000D02*
X206300000Y-101100000D01*
X206300000Y-101100000D02*
X204375000Y-101100000D01*
X206622000Y-105100000D02*
X206300000Y-105100000D01*
%TO.N,/analog_-15V*%
X208225000Y-99100000D02*
X206800000Y-99100000D01*
D18*
X206800000Y-99100000D02*
X204375000Y-99100000D01*
D17*
%TO.N,/stepper_A+*%
X206800000Y-97100000D02*
X208225000Y-97100000D01*
D18*
X206800000Y-97100000D02*
X204375000Y-97100000D01*
D17*
%TO.N,/stepper_A-*%
X206800000Y-95100000D02*
X208225000Y-95100000D01*
D18*
X206800000Y-95100000D02*
X204375000Y-95100000D01*
%TO.N,/stepper_B+*%
X204375000Y-94100000D02*
X208225000Y-94100000D01*
D17*
X204375000Y-94100000D02*
X203300000Y-94100000D01*
X203300000Y-94100000D02*
X202900000Y-93700000D01*
X202900000Y-93700000D02*
X202900000Y-90300000D01*
X203800000Y-89400000D02*
X205100000Y-89400000D01*
X202900000Y-90300000D02*
X203800000Y-89400000D01*
%TO.N,/stepper_B-*%
X205800000Y-96100000D02*
X204375000Y-96100000D01*
D18*
X205800000Y-96100000D02*
X208225000Y-96100000D01*
D17*
%TO.N,/bias_gnd*%
X206017000Y-91100000D02*
X204375000Y-91100000D01*
X206017000Y-91100000D02*
X206017000Y-90465000D01*
X206017000Y-90465000D02*
X207404000Y-89078000D01*
X207404000Y-89078000D02*
X207404000Y-85014000D01*
X207404000Y-85014000D02*
X205372000Y-82982000D01*
X205372000Y-82982000D02*
X205372000Y-78537000D01*
X205372000Y-78537000D02*
X201943000Y-72568000D01*
X201943000Y-72568000D02*
X202610475Y-69552475D01*
X204363433Y-68613300D02*
X202610475Y-69552475D01*
X206300000Y-93100000D02*
X204375000Y-93100000D01*
%TD*%
D20*
%TO.N,/analog_gnd*%
G36*
X164383540Y-27054708D02*
G01*
X167109547Y-27646769D01*
X195804822Y-41437158D01*
X198367470Y-43533337D01*
X200879190Y-45785572D01*
X203287553Y-48150799D01*
X204931598Y-49897389D01*
X220852222Y-77468716D01*
X221786390Y-80644941D01*
X222590497Y-83921318D01*
X223245529Y-87232723D01*
X223618227Y-89602096D01*
X221197970Y-121413488D01*
X220175091Y-124563331D01*
X219407392Y-126628644D01*
X199689085Y-118865071D01*
X200318687Y-117063114D01*
X210522825Y-117063114D01*
X210522825Y-117565420D01*
X210620820Y-118058074D01*
X210813045Y-118522145D01*
X211092111Y-118939797D01*
X211447295Y-119294981D01*
X211864947Y-119574047D01*
X212329018Y-119766272D01*
X212821672Y-119864267D01*
X213323978Y-119864267D01*
X213816632Y-119766272D01*
X214280703Y-119574047D01*
X214698355Y-119294981D01*
X215053539Y-118939797D01*
X215332605Y-118522145D01*
X215524830Y-118058074D01*
X215622825Y-117565420D01*
X215622825Y-117063114D01*
X215524830Y-116570460D01*
X215332605Y-116106389D01*
X215053539Y-115688737D01*
X214698355Y-115333553D01*
X214280703Y-115054487D01*
X213816632Y-114862262D01*
X213323978Y-114764267D01*
X212821672Y-114764267D01*
X212329018Y-114862262D01*
X211864947Y-115054487D01*
X211447295Y-115333553D01*
X211092111Y-115688737D01*
X210813045Y-116106389D01*
X210620820Y-116570460D01*
X210522825Y-117063114D01*
X200318687Y-117063114D01*
X200625731Y-116184340D01*
X200630757Y-116168599D01*
X200635792Y-116153020D01*
X200636427Y-116150842D01*
X201426879Y-113422878D01*
X201431047Y-113406890D01*
X201435232Y-113391060D01*
X201435749Y-113388851D01*
X201695041Y-112271023D01*
X210207878Y-114126385D01*
X210325000Y-114139000D01*
X215913000Y-114139000D01*
X216020300Y-114128432D01*
X216123476Y-114097134D01*
X216218564Y-114046308D01*
X216301909Y-113977909D01*
X219349909Y-110929909D01*
X219418308Y-110846564D01*
X219469134Y-110751476D01*
X219500432Y-110648300D01*
X219511000Y-110541000D01*
X219511000Y-100254000D01*
X219500432Y-100146700D01*
X219469134Y-100043524D01*
X219418308Y-99948436D01*
X219349909Y-99865091D01*
X216809909Y-97325091D01*
X216726564Y-97256692D01*
X216631476Y-97205866D01*
X216528300Y-97174568D01*
X216421000Y-97164000D01*
X212014000Y-97164000D01*
X212014000Y-95378370D01*
X212640898Y-94751472D01*
X212671422Y-94726422D01*
X212748177Y-94632895D01*
X212771393Y-94604607D01*
X212845679Y-94465628D01*
X212845679Y-94465627D01*
X212891424Y-94314827D01*
X212903000Y-94197293D01*
X212903000Y-94197291D01*
X212906870Y-94158000D01*
X212903000Y-94118709D01*
X212903000Y-93915016D01*
X212966579Y-94010169D01*
X213321763Y-94365353D01*
X213739415Y-94644419D01*
X214203486Y-94836644D01*
X214696140Y-94934639D01*
X215198446Y-94934639D01*
X215691100Y-94836644D01*
X216155171Y-94644419D01*
X216572823Y-94365353D01*
X216928007Y-94010169D01*
X217207073Y-93592517D01*
X217399298Y-93128446D01*
X217497293Y-92635792D01*
X217497293Y-92133486D01*
X217399298Y-91640832D01*
X217207073Y-91176761D01*
X216928007Y-90759109D01*
X216572823Y-90403925D01*
X216155171Y-90124859D01*
X215691100Y-89932634D01*
X215198446Y-89834639D01*
X214696140Y-89834639D01*
X214203486Y-89932634D01*
X213739415Y-90124859D01*
X213321763Y-90403925D01*
X212966579Y-90759109D01*
X212903000Y-90854262D01*
X212903000Y-84075370D01*
X216323904Y-80654467D01*
X216354422Y-80629422D01*
X216409934Y-80561780D01*
X216454393Y-80507607D01*
X216528679Y-80368628D01*
X216539921Y-80331568D01*
X216574424Y-80217827D01*
X216586000Y-80100293D01*
X216586000Y-80100291D01*
X216589870Y-80061000D01*
X216586000Y-80021709D01*
X216586000Y-76924784D01*
X216589869Y-76884989D01*
X216582115Y-76807262D01*
X216574424Y-76729173D01*
X216574276Y-76728687D01*
X216574226Y-76728181D01*
X216551453Y-76653446D01*
X216528679Y-76578372D01*
X216528439Y-76577922D01*
X216528291Y-76577438D01*
X216491299Y-76508439D01*
X216454393Y-76439394D01*
X216429026Y-76408485D01*
X209431118Y-65963846D01*
X209401759Y-65914518D01*
X209361002Y-65869271D01*
X209322317Y-65822253D01*
X209308361Y-65810829D01*
X209296291Y-65797429D01*
X209247497Y-65761007D01*
X209200375Y-65722434D01*
X209184459Y-65713952D01*
X209170007Y-65703165D01*
X209115038Y-65676959D01*
X209061303Y-65648324D01*
X209044041Y-65643111D01*
X209027759Y-65635349D01*
X208968732Y-65620370D01*
X208910446Y-65602769D01*
X208853326Y-65597216D01*
X207331914Y-65366738D01*
X207326799Y-65354390D01*
X207179058Y-65133280D01*
X206991020Y-64945242D01*
X206769910Y-64797501D01*
X206524225Y-64695735D01*
X206263408Y-64643855D01*
X205997482Y-64643855D01*
X205736665Y-64695735D01*
X205490980Y-64797501D01*
X205269870Y-64945242D01*
X205081832Y-65133280D01*
X204934091Y-65354390D01*
X204832325Y-65600075D01*
X204780445Y-65860892D01*
X204780445Y-66126818D01*
X204832325Y-66387635D01*
X204934091Y-66633320D01*
X205081832Y-66854430D01*
X205269870Y-67042468D01*
X205490980Y-67190209D01*
X205736665Y-67291975D01*
X205997482Y-67343855D01*
X206263408Y-67343855D01*
X206524225Y-67291975D01*
X206769910Y-67190209D01*
X206991020Y-67042468D01*
X207085782Y-66947706D01*
X208286224Y-67129560D01*
X208539556Y-67507668D01*
X208376020Y-67344132D01*
X208154910Y-67196391D01*
X207909225Y-67094625D01*
X207648408Y-67042745D01*
X207382482Y-67042745D01*
X207121665Y-67094625D01*
X206875980Y-67196391D01*
X206654870Y-67344132D01*
X206466832Y-67532170D01*
X206319091Y-67753280D01*
X206217325Y-67998965D01*
X206165445Y-68259782D01*
X206165445Y-68307686D01*
X205713433Y-68569370D01*
X205713433Y-68480337D01*
X205661553Y-68219520D01*
X205559787Y-67973835D01*
X205412046Y-67752725D01*
X205224008Y-67564687D01*
X205002898Y-67416946D01*
X204757213Y-67315180D01*
X204496396Y-67263300D01*
X204230470Y-67263300D01*
X203969653Y-67315180D01*
X203723968Y-67416946D01*
X203502858Y-67564687D01*
X203314820Y-67752725D01*
X203167079Y-67973835D01*
X203065313Y-68219520D01*
X203024863Y-68422877D01*
X202240559Y-68843080D01*
X202178330Y-68874642D01*
X202140189Y-68904596D01*
X202099900Y-68931573D01*
X202078368Y-68953147D01*
X202054395Y-68971974D01*
X202022832Y-69008791D01*
X201988578Y-69043112D01*
X201971671Y-69068469D01*
X201951830Y-69091613D01*
X201928050Y-69133892D01*
X201901157Y-69174226D01*
X201889524Y-69202387D01*
X201874576Y-69228964D01*
X201859502Y-69275066D01*
X201840993Y-69319875D01*
X201827451Y-69388305D01*
X201174400Y-72338663D01*
X201166974Y-72358264D01*
X201157412Y-72415409D01*
X201153414Y-72433473D01*
X201150922Y-72454196D01*
X201140968Y-72513689D01*
X201141536Y-72532268D01*
X201139316Y-72550731D01*
X201143939Y-72610895D01*
X201145782Y-72671200D01*
X201149965Y-72689315D01*
X201151389Y-72707853D01*
X201167658Y-72765947D01*
X201181234Y-72824747D01*
X201188873Y-72841705D01*
X201193885Y-72859601D01*
X201221170Y-72913396D01*
X201229743Y-72932428D01*
X201238957Y-72948468D01*
X201265167Y-73000144D01*
X201278115Y-73016631D01*
X204572001Y-78750433D01*
X204572000Y-82942709D01*
X204568130Y-82982000D01*
X204572000Y-83021291D01*
X204572000Y-83021292D01*
X204583576Y-83138826D01*
X204616010Y-83245745D01*
X204629321Y-83289627D01*
X204703607Y-83428606D01*
X204730793Y-83461732D01*
X204803578Y-83550422D01*
X204834103Y-83575473D01*
X206604001Y-85345372D01*
X206604000Y-88746629D01*
X206134080Y-89216549D01*
X206109650Y-89093726D01*
X206030498Y-88902638D01*
X205915589Y-88730664D01*
X205769336Y-88584411D01*
X205597362Y-88469502D01*
X205406274Y-88390350D01*
X205203416Y-88350000D01*
X204996584Y-88350000D01*
X204793726Y-88390350D01*
X204602638Y-88469502D01*
X204430664Y-88584411D01*
X204415075Y-88600000D01*
X203839282Y-88600000D01*
X203799999Y-88596131D01*
X203760716Y-88600000D01*
X203760707Y-88600000D01*
X203643173Y-88611576D01*
X203492372Y-88657321D01*
X203353393Y-88731607D01*
X203306157Y-88770373D01*
X203231578Y-88831578D01*
X203206531Y-88862098D01*
X202362098Y-89706532D01*
X202331579Y-89731578D01*
X202306532Y-89762098D01*
X202306531Y-89762099D01*
X202231607Y-89853394D01*
X202178130Y-89953441D01*
X201730272Y-87798508D01*
X201726486Y-87782481D01*
X201722766Y-87766480D01*
X201722198Y-87764323D01*
X201722189Y-87764286D01*
X201722179Y-87764252D01*
X200994732Y-85018851D01*
X200990115Y-85003153D01*
X200985505Y-84987276D01*
X200984810Y-84985116D01*
X200109947Y-82283039D01*
X200104453Y-82267518D01*
X200099025Y-82252009D01*
X200098214Y-82249890D01*
X199078507Y-79599078D01*
X199072192Y-79583899D01*
X199065924Y-79568685D01*
X199064999Y-79566612D01*
X197903432Y-76974824D01*
X197896288Y-76959975D01*
X197889223Y-76945155D01*
X197888188Y-76943136D01*
X196588159Y-74417957D01*
X196580170Y-74403418D01*
X196572366Y-74389100D01*
X196571234Y-74387157D01*
X196571224Y-74387139D01*
X196571214Y-74387123D01*
X195136539Y-71935959D01*
X195127775Y-71921875D01*
X195119209Y-71907999D01*
X195117973Y-71906121D01*
X195117962Y-71906103D01*
X195117950Y-71906086D01*
X193552819Y-69536096D01*
X193543331Y-69522540D01*
X193534002Y-69509113D01*
X193532655Y-69507288D01*
X191981271Y-67413817D01*
X202760580Y-67413817D01*
X202936475Y-67570293D01*
X203201801Y-67552426D01*
X203458543Y-67483140D01*
X203696834Y-67365097D01*
X203907518Y-67202834D01*
X204082498Y-67002586D01*
X204173641Y-66856015D01*
X204126077Y-66625448D01*
X203049144Y-66336884D01*
X202760580Y-67413817D01*
X191981271Y-67413817D01*
X191841635Y-67225390D01*
X191831476Y-67212430D01*
X191821386Y-67199464D01*
X191819942Y-67197715D01*
X190970547Y-66172452D01*
X201622550Y-66172452D01*
X201640417Y-66437778D01*
X201709703Y-66694520D01*
X201827746Y-66932811D01*
X201990009Y-67143495D01*
X202190257Y-67318475D01*
X202336828Y-67409618D01*
X202567395Y-67362054D01*
X202855959Y-66285121D01*
X202328167Y-66143699D01*
X203100907Y-66143699D01*
X204177840Y-66432263D01*
X204334316Y-66256368D01*
X204316449Y-65991042D01*
X204247163Y-65734300D01*
X204129120Y-65496009D01*
X203966857Y-65285325D01*
X203766609Y-65110345D01*
X203620038Y-65019202D01*
X203389471Y-65066766D01*
X203100907Y-66143699D01*
X202328167Y-66143699D01*
X201779026Y-65996557D01*
X201622550Y-66172452D01*
X190970547Y-66172452D01*
X190473760Y-65572805D01*
X201783225Y-65572805D01*
X201830789Y-65803372D01*
X202907722Y-66091936D01*
X203196286Y-65015003D01*
X203020391Y-64858527D01*
X202755065Y-64876394D01*
X202498323Y-64945680D01*
X202260032Y-65063723D01*
X202049348Y-65225986D01*
X201874368Y-65426234D01*
X201783225Y-65572805D01*
X190473760Y-65572805D01*
X190007995Y-65010604D01*
X189997191Y-64998259D01*
X189986374Y-64985811D01*
X189984837Y-64984142D01*
X189718754Y-64696200D01*
X200543049Y-64696200D01*
X200821994Y-65184670D01*
X200885100Y-65272734D01*
X200964174Y-65346794D01*
X201056177Y-65404006D01*
X201157574Y-65442168D01*
X201264467Y-65459817D01*
X201372750Y-65456272D01*
X201478260Y-65431671D01*
X201576943Y-65386958D01*
X202062752Y-65103403D01*
X202113080Y-64915575D01*
X201556830Y-63952122D01*
X200593377Y-64508372D01*
X200543049Y-64696200D01*
X189718754Y-64696200D01*
X188600936Y-63486553D01*
X199949135Y-63486553D01*
X199952680Y-63594836D01*
X199977281Y-63700346D01*
X200021994Y-63799029D01*
X200305549Y-64284838D01*
X200493377Y-64335166D01*
X201330033Y-63852122D01*
X201730036Y-63852122D01*
X202286286Y-64815575D01*
X202474114Y-64865903D01*
X202962584Y-64586958D01*
X203050648Y-64523852D01*
X203124708Y-64444778D01*
X203181920Y-64352775D01*
X203220082Y-64251378D01*
X203237731Y-64144485D01*
X203234186Y-64036202D01*
X203209585Y-63930692D01*
X203164872Y-63832009D01*
X202948908Y-63462001D01*
X203395445Y-63462001D01*
X203395445Y-63727927D01*
X203447325Y-63988744D01*
X203549091Y-64234429D01*
X203696832Y-64455539D01*
X203884870Y-64643577D01*
X204105980Y-64791318D01*
X204351665Y-64893084D01*
X204612482Y-64944964D01*
X204878408Y-64944964D01*
X205139225Y-64893084D01*
X205384910Y-64791318D01*
X205606020Y-64643577D01*
X205794058Y-64455539D01*
X205941799Y-64234429D01*
X206043565Y-63988744D01*
X206095445Y-63727927D01*
X206095445Y-63462001D01*
X206043565Y-63201184D01*
X205941799Y-62955499D01*
X205794058Y-62734389D01*
X205606020Y-62546351D01*
X205384910Y-62398610D01*
X205139225Y-62296844D01*
X204878408Y-62244964D01*
X204612482Y-62244964D01*
X204351665Y-62296844D01*
X204105980Y-62398610D01*
X203884870Y-62546351D01*
X203696832Y-62734389D01*
X203549091Y-62955499D01*
X203447325Y-63201184D01*
X203395445Y-63462001D01*
X202948908Y-63462001D01*
X202881317Y-63346200D01*
X202693489Y-63295872D01*
X201730036Y-63852122D01*
X201330033Y-63852122D01*
X201456830Y-63778916D01*
X200900580Y-62815463D01*
X200712752Y-62765135D01*
X200224282Y-63044080D01*
X200136218Y-63107186D01*
X200062158Y-63186260D01*
X200004946Y-63278263D01*
X199966784Y-63379660D01*
X199949135Y-63486553D01*
X188600936Y-63486553D01*
X188057265Y-62898220D01*
X188045688Y-62886353D01*
X188034335Y-62874633D01*
X188032710Y-62873049D01*
X187870431Y-62715463D01*
X201073786Y-62715463D01*
X201630036Y-63678916D01*
X202593489Y-63122666D01*
X202643817Y-62934838D01*
X202364872Y-62446368D01*
X202301766Y-62358304D01*
X202222692Y-62284244D01*
X202130689Y-62227032D01*
X202029292Y-62188870D01*
X201922399Y-62171221D01*
X201814116Y-62174766D01*
X201708606Y-62199367D01*
X201609923Y-62244080D01*
X201124114Y-62527635D01*
X201073786Y-62715463D01*
X187870431Y-62715463D01*
X185995155Y-60894420D01*
X185983026Y-60883263D01*
X185970983Y-60872107D01*
X185969275Y-60870614D01*
X183827699Y-59005069D01*
X183814961Y-58994566D01*
X183802355Y-58984096D01*
X183800569Y-58982697D01*
X181561240Y-57235697D01*
X181548009Y-57225939D01*
X181534799Y-57216125D01*
X181532940Y-57214825D01*
X180975920Y-56826829D01*
X196793189Y-56826829D01*
X196793189Y-57329135D01*
X196891184Y-57821789D01*
X197083409Y-58285860D01*
X197362475Y-58703512D01*
X197717659Y-59058696D01*
X198135311Y-59337762D01*
X198599382Y-59529987D01*
X199092036Y-59627982D01*
X199594342Y-59627982D01*
X200086996Y-59529987D01*
X200551067Y-59337762D01*
X200968719Y-59058696D01*
X201323903Y-58703512D01*
X201602969Y-58285860D01*
X201795194Y-57821789D01*
X201893189Y-57329135D01*
X201893189Y-56826829D01*
X201795194Y-56334175D01*
X201602969Y-55870104D01*
X201323903Y-55452452D01*
X200968719Y-55097268D01*
X200551067Y-54818202D01*
X200086996Y-54625977D01*
X199594342Y-54527982D01*
X199092036Y-54527982D01*
X198599382Y-54625977D01*
X198135311Y-54818202D01*
X197717659Y-55097268D01*
X197362475Y-55452452D01*
X197083409Y-55870104D01*
X196891184Y-56334175D01*
X196793189Y-56826829D01*
X180975920Y-56826829D01*
X179202413Y-55591481D01*
X179188602Y-55582405D01*
X179174953Y-55573368D01*
X179173043Y-55572181D01*
X179173026Y-55572170D01*
X179173009Y-55572160D01*
X176758120Y-54077233D01*
X176743812Y-54068903D01*
X176729720Y-54060632D01*
X176727731Y-54059540D01*
X174235515Y-52697386D01*
X174220707Y-52689805D01*
X174206259Y-52682345D01*
X174204230Y-52681370D01*
X174204215Y-52681362D01*
X174204200Y-52681356D01*
X171641981Y-51455977D01*
X171626861Y-51449242D01*
X171611955Y-51442540D01*
X171609860Y-51441669D01*
X168985110Y-50356640D01*
X168969640Y-50350729D01*
X168954401Y-50344846D01*
X168952274Y-50344095D01*
X168952262Y-50344090D01*
X168952250Y-50344086D01*
X166272674Y-49402592D01*
X166256733Y-49397471D01*
X166241372Y-49392477D01*
X166239207Y-49391840D01*
X166239196Y-49391837D01*
X166239186Y-49391834D01*
X163512614Y-48596626D01*
X163496651Y-48592436D01*
X163480811Y-48588218D01*
X163478603Y-48587698D01*
X160713006Y-47941101D01*
X160696848Y-47937781D01*
X160680795Y-47934425D01*
X160678569Y-47934025D01*
X160678562Y-47934024D01*
X160678556Y-47934023D01*
X158506580Y-47548723D01*
X158542841Y-47310565D01*
X186518738Y-47310565D01*
X186518738Y-47812871D01*
X186616733Y-48305525D01*
X186808958Y-48769596D01*
X187088024Y-49187248D01*
X187443208Y-49542432D01*
X187860860Y-49821498D01*
X188324931Y-50013723D01*
X188817585Y-50111718D01*
X189319891Y-50111718D01*
X189812545Y-50013723D01*
X190276616Y-49821498D01*
X190694268Y-49542432D01*
X191049452Y-49187248D01*
X191328518Y-48769596D01*
X191520743Y-48305525D01*
X191618738Y-47812871D01*
X191618738Y-47310565D01*
X191520743Y-46817911D01*
X191328518Y-46353840D01*
X191049452Y-45936188D01*
X190694268Y-45581004D01*
X190276616Y-45301938D01*
X189812545Y-45109713D01*
X189319891Y-45011718D01*
X188817585Y-45011718D01*
X188324931Y-45109713D01*
X187860860Y-45301938D01*
X187443208Y-45581004D01*
X187088024Y-45936188D01*
X186808958Y-46353840D01*
X186616733Y-46817911D01*
X186518738Y-47310565D01*
X158542841Y-47310565D01*
X159448691Y-41361120D01*
X170577925Y-41361120D01*
X170582509Y-41469364D01*
X170608122Y-41574633D01*
X170653780Y-41672883D01*
X170717728Y-41760337D01*
X170797509Y-41833636D01*
X170890057Y-41889961D01*
X172331780Y-42583816D01*
X172433539Y-42621004D01*
X172540596Y-42637625D01*
X172648840Y-42633041D01*
X172754109Y-42607428D01*
X172852359Y-42561770D01*
X172939813Y-42497822D01*
X173013112Y-42418041D01*
X173069437Y-42325493D01*
X173184548Y-42086310D01*
X173343496Y-42086310D01*
X173343496Y-42352236D01*
X173395376Y-42613053D01*
X173497142Y-42858738D01*
X173644883Y-43079848D01*
X173832921Y-43267886D01*
X174054031Y-43415627D01*
X174299716Y-43517393D01*
X174560533Y-43569273D01*
X174826459Y-43569273D01*
X175087276Y-43517393D01*
X175332961Y-43415627D01*
X175524647Y-43287546D01*
X175839480Y-43287546D01*
X175839480Y-43553472D01*
X175891360Y-43814289D01*
X175993126Y-44059974D01*
X176140867Y-44281084D01*
X176328905Y-44469122D01*
X176550015Y-44616863D01*
X176795700Y-44718629D01*
X177056517Y-44770509D01*
X177322443Y-44770509D01*
X177583260Y-44718629D01*
X177828945Y-44616863D01*
X178020633Y-44488781D01*
X178335463Y-44488781D01*
X178335463Y-44754707D01*
X178387343Y-45015524D01*
X178489109Y-45261209D01*
X178636850Y-45482319D01*
X178824888Y-45670357D01*
X179045998Y-45818098D01*
X179291683Y-45919864D01*
X179552500Y-45971744D01*
X179818426Y-45971744D01*
X180079243Y-45919864D01*
X180324928Y-45818098D01*
X180516614Y-45690017D01*
X180831446Y-45690017D01*
X180831446Y-45955943D01*
X180883326Y-46216760D01*
X180985092Y-46462445D01*
X181132833Y-46683555D01*
X181320871Y-46871593D01*
X181541981Y-47019334D01*
X181787666Y-47121100D01*
X182048483Y-47172980D01*
X182314409Y-47172980D01*
X182575226Y-47121100D01*
X182820911Y-47019334D01*
X183042021Y-46871593D01*
X183230059Y-46683555D01*
X183377800Y-46462445D01*
X183479566Y-46216760D01*
X183531446Y-45955943D01*
X183531446Y-45690017D01*
X183479566Y-45429200D01*
X183377800Y-45183515D01*
X183230059Y-44962405D01*
X183042021Y-44774367D01*
X182820911Y-44626626D01*
X182575226Y-44524860D01*
X182314409Y-44472980D01*
X182048483Y-44472980D01*
X181787666Y-44524860D01*
X181541981Y-44626626D01*
X181320871Y-44774367D01*
X181132833Y-44962405D01*
X180985092Y-45183515D01*
X180883326Y-45429200D01*
X180831446Y-45690017D01*
X180516614Y-45690017D01*
X180546038Y-45670357D01*
X180734076Y-45482319D01*
X180881817Y-45261209D01*
X180983583Y-45015524D01*
X181035463Y-44754707D01*
X181035463Y-44488781D01*
X180983583Y-44227964D01*
X180881817Y-43982279D01*
X180734076Y-43761169D01*
X180546038Y-43573131D01*
X180324928Y-43425390D01*
X180079243Y-43323624D01*
X179818426Y-43271744D01*
X179552500Y-43271744D01*
X179291683Y-43323624D01*
X179045998Y-43425390D01*
X178824888Y-43573131D01*
X178636850Y-43761169D01*
X178489109Y-43982279D01*
X178387343Y-44227964D01*
X178335463Y-44488781D01*
X178020633Y-44488781D01*
X178050055Y-44469122D01*
X178238093Y-44281084D01*
X178385834Y-44059974D01*
X178487600Y-43814289D01*
X178539480Y-43553472D01*
X178539480Y-43287546D01*
X178487600Y-43026729D01*
X178385834Y-42781044D01*
X178238093Y-42559934D01*
X178050055Y-42371896D01*
X177828945Y-42224155D01*
X177583260Y-42122389D01*
X177322443Y-42070509D01*
X177056517Y-42070509D01*
X176795700Y-42122389D01*
X176550015Y-42224155D01*
X176328905Y-42371896D01*
X176140867Y-42559934D01*
X175993126Y-42781044D01*
X175891360Y-43026729D01*
X175839480Y-43287546D01*
X175524647Y-43287546D01*
X175554071Y-43267886D01*
X175742109Y-43079848D01*
X175889850Y-42858738D01*
X175991616Y-42613053D01*
X176043496Y-42352236D01*
X176043496Y-42086310D01*
X175991616Y-41825493D01*
X175889850Y-41579808D01*
X175742109Y-41358698D01*
X175554071Y-41170660D01*
X175332961Y-41022919D01*
X175087276Y-40921153D01*
X174826459Y-40869273D01*
X174560533Y-40869273D01*
X174299716Y-40921153D01*
X174054031Y-41022919D01*
X173832921Y-41170660D01*
X173644883Y-41358698D01*
X173497142Y-41579808D01*
X173395376Y-41825493D01*
X173343496Y-42086310D01*
X173184548Y-42086310D01*
X173763292Y-40883770D01*
X173800480Y-40782011D01*
X173817101Y-40674954D01*
X173812517Y-40566710D01*
X173786904Y-40461441D01*
X173741246Y-40363191D01*
X173677298Y-40275737D01*
X173597517Y-40202438D01*
X173504969Y-40146113D01*
X172063246Y-39452258D01*
X171961487Y-39415070D01*
X171854430Y-39398449D01*
X171746186Y-39403033D01*
X171640917Y-39428646D01*
X171542667Y-39474304D01*
X171455213Y-39538252D01*
X171381914Y-39618033D01*
X171325589Y-39710581D01*
X170631734Y-41152304D01*
X170594546Y-41254063D01*
X170577925Y-41361120D01*
X159448691Y-41361120D01*
X160193542Y-36469088D01*
X163991813Y-36469088D01*
X163991813Y-36971394D01*
X164089808Y-37464048D01*
X164282033Y-37928119D01*
X164561099Y-38345771D01*
X164916283Y-38700955D01*
X165333935Y-38980021D01*
X165798006Y-39172246D01*
X166290660Y-39270241D01*
X166792966Y-39270241D01*
X167285620Y-39172246D01*
X167749691Y-38980021D01*
X167829591Y-38926633D01*
X173327096Y-38926633D01*
X173327096Y-39192559D01*
X173378976Y-39453376D01*
X173480742Y-39699061D01*
X173628483Y-39920171D01*
X173816521Y-40108209D01*
X174037631Y-40255950D01*
X174283316Y-40357716D01*
X174544133Y-40409596D01*
X174810059Y-40409596D01*
X175070876Y-40357716D01*
X175316561Y-40255950D01*
X175508247Y-40127869D01*
X175823080Y-40127869D01*
X175823080Y-40393795D01*
X175874960Y-40654612D01*
X175976726Y-40900297D01*
X176124467Y-41121407D01*
X176312505Y-41309445D01*
X176533615Y-41457186D01*
X176779300Y-41558952D01*
X177040117Y-41610832D01*
X177306043Y-41610832D01*
X177566860Y-41558952D01*
X177812545Y-41457186D01*
X178004231Y-41329105D01*
X178319063Y-41329105D01*
X178319063Y-41595031D01*
X178370943Y-41855848D01*
X178472709Y-42101533D01*
X178620450Y-42322643D01*
X178808488Y-42510681D01*
X179029598Y-42658422D01*
X179275283Y-42760188D01*
X179536100Y-42812068D01*
X179802026Y-42812068D01*
X180062843Y-42760188D01*
X180308528Y-42658422D01*
X180500216Y-42530340D01*
X180815046Y-42530340D01*
X180815046Y-42796266D01*
X180866926Y-43057083D01*
X180968692Y-43302768D01*
X181116433Y-43523878D01*
X181304471Y-43711916D01*
X181525581Y-43859657D01*
X181771266Y-43961423D01*
X182032083Y-44013303D01*
X182298009Y-44013303D01*
X182558826Y-43961423D01*
X182804511Y-43859657D01*
X183025621Y-43711916D01*
X183213659Y-43523878D01*
X183361400Y-43302768D01*
X183463166Y-43057083D01*
X183515046Y-42796266D01*
X183515046Y-42530340D01*
X183463166Y-42269523D01*
X183361400Y-42023838D01*
X183213659Y-41802728D01*
X183025621Y-41614690D01*
X182804511Y-41466949D01*
X182558826Y-41365183D01*
X182298009Y-41313303D01*
X182032083Y-41313303D01*
X181771266Y-41365183D01*
X181525581Y-41466949D01*
X181304471Y-41614690D01*
X181116433Y-41802728D01*
X180968692Y-42023838D01*
X180866926Y-42269523D01*
X180815046Y-42530340D01*
X180500216Y-42530340D01*
X180529638Y-42510681D01*
X180717676Y-42322643D01*
X180865417Y-42101533D01*
X180967183Y-41855848D01*
X181019063Y-41595031D01*
X181019063Y-41329105D01*
X180967183Y-41068288D01*
X180865417Y-40822603D01*
X180717676Y-40601493D01*
X180529638Y-40413455D01*
X180308528Y-40265714D01*
X180062843Y-40163948D01*
X179802026Y-40112068D01*
X179536100Y-40112068D01*
X179275283Y-40163948D01*
X179029598Y-40265714D01*
X178808488Y-40413455D01*
X178620450Y-40601493D01*
X178472709Y-40822603D01*
X178370943Y-41068288D01*
X178319063Y-41329105D01*
X178004231Y-41329105D01*
X178033655Y-41309445D01*
X178221693Y-41121407D01*
X178369434Y-40900297D01*
X178471200Y-40654612D01*
X178523080Y-40393795D01*
X178523080Y-40127869D01*
X178471200Y-39867052D01*
X178369434Y-39621367D01*
X178221693Y-39400257D01*
X178033655Y-39212219D01*
X177812545Y-39064478D01*
X177566860Y-38962712D01*
X177306043Y-38910832D01*
X177040117Y-38910832D01*
X176779300Y-38962712D01*
X176533615Y-39064478D01*
X176312505Y-39212219D01*
X176124467Y-39400257D01*
X175976726Y-39621367D01*
X175874960Y-39867052D01*
X175823080Y-40127869D01*
X175508247Y-40127869D01*
X175537671Y-40108209D01*
X175725709Y-39920171D01*
X175873450Y-39699061D01*
X175975216Y-39453376D01*
X176027096Y-39192559D01*
X176027096Y-38926633D01*
X175975216Y-38665816D01*
X175873450Y-38420131D01*
X175725709Y-38199021D01*
X175537671Y-38010983D01*
X175316561Y-37863242D01*
X175070876Y-37761476D01*
X174810059Y-37709596D01*
X174544133Y-37709596D01*
X174283316Y-37761476D01*
X174037631Y-37863242D01*
X173816521Y-38010983D01*
X173628483Y-38199021D01*
X173480742Y-38420131D01*
X173378976Y-38665816D01*
X173327096Y-38926633D01*
X167829591Y-38926633D01*
X168167343Y-38700955D01*
X168522527Y-38345771D01*
X168801593Y-37928119D01*
X168993818Y-37464048D01*
X169091813Y-36971394D01*
X169091813Y-36469088D01*
X168993818Y-35976434D01*
X168801593Y-35512363D01*
X168522527Y-35094711D01*
X168167343Y-34739527D01*
X167749691Y-34460461D01*
X167285620Y-34268236D01*
X166792966Y-34170241D01*
X166290660Y-34170241D01*
X165798006Y-34268236D01*
X165333935Y-34460461D01*
X164916283Y-34739527D01*
X164561099Y-35094711D01*
X164282033Y-35512363D01*
X164089808Y-35976434D01*
X163991813Y-36469088D01*
X160193542Y-36469088D01*
X161697980Y-26588237D01*
X164383540Y-27054708D01*
G37*
X164383540Y-27054708D02*
X167109547Y-27646769D01*
X195804822Y-41437158D01*
X198367470Y-43533337D01*
X200879190Y-45785572D01*
X203287553Y-48150799D01*
X204931598Y-49897389D01*
X220852222Y-77468716D01*
X221786390Y-80644941D01*
X222590497Y-83921318D01*
X223245529Y-87232723D01*
X223618227Y-89602096D01*
X221197970Y-121413488D01*
X220175091Y-124563331D01*
X219407392Y-126628644D01*
X199689085Y-118865071D01*
X200318687Y-117063114D01*
X210522825Y-117063114D01*
X210522825Y-117565420D01*
X210620820Y-118058074D01*
X210813045Y-118522145D01*
X211092111Y-118939797D01*
X211447295Y-119294981D01*
X211864947Y-119574047D01*
X212329018Y-119766272D01*
X212821672Y-119864267D01*
X213323978Y-119864267D01*
X213816632Y-119766272D01*
X214280703Y-119574047D01*
X214698355Y-119294981D01*
X215053539Y-118939797D01*
X215332605Y-118522145D01*
X215524830Y-118058074D01*
X215622825Y-117565420D01*
X215622825Y-117063114D01*
X215524830Y-116570460D01*
X215332605Y-116106389D01*
X215053539Y-115688737D01*
X214698355Y-115333553D01*
X214280703Y-115054487D01*
X213816632Y-114862262D01*
X213323978Y-114764267D01*
X212821672Y-114764267D01*
X212329018Y-114862262D01*
X211864947Y-115054487D01*
X211447295Y-115333553D01*
X211092111Y-115688737D01*
X210813045Y-116106389D01*
X210620820Y-116570460D01*
X210522825Y-117063114D01*
X200318687Y-117063114D01*
X200625731Y-116184340D01*
X200630757Y-116168599D01*
X200635792Y-116153020D01*
X200636427Y-116150842D01*
X201426879Y-113422878D01*
X201431047Y-113406890D01*
X201435232Y-113391060D01*
X201435749Y-113388851D01*
X201695041Y-112271023D01*
X210207878Y-114126385D01*
X210325000Y-114139000D01*
X215913000Y-114139000D01*
X216020300Y-114128432D01*
X216123476Y-114097134D01*
X216218564Y-114046308D01*
X216301909Y-113977909D01*
X219349909Y-110929909D01*
X219418308Y-110846564D01*
X219469134Y-110751476D01*
X219500432Y-110648300D01*
X219511000Y-110541000D01*
X219511000Y-100254000D01*
X219500432Y-100146700D01*
X219469134Y-100043524D01*
X219418308Y-99948436D01*
X219349909Y-99865091D01*
X216809909Y-97325091D01*
X216726564Y-97256692D01*
X216631476Y-97205866D01*
X216528300Y-97174568D01*
X216421000Y-97164000D01*
X212014000Y-97164000D01*
X212014000Y-95378370D01*
X212640898Y-94751472D01*
X212671422Y-94726422D01*
X212748177Y-94632895D01*
X212771393Y-94604607D01*
X212845679Y-94465628D01*
X212845679Y-94465627D01*
X212891424Y-94314827D01*
X212903000Y-94197293D01*
X212903000Y-94197291D01*
X212906870Y-94158000D01*
X212903000Y-94118709D01*
X212903000Y-93915016D01*
X212966579Y-94010169D01*
X213321763Y-94365353D01*
X213739415Y-94644419D01*
X214203486Y-94836644D01*
X214696140Y-94934639D01*
X215198446Y-94934639D01*
X215691100Y-94836644D01*
X216155171Y-94644419D01*
X216572823Y-94365353D01*
X216928007Y-94010169D01*
X217207073Y-93592517D01*
X217399298Y-93128446D01*
X217497293Y-92635792D01*
X217497293Y-92133486D01*
X217399298Y-91640832D01*
X217207073Y-91176761D01*
X216928007Y-90759109D01*
X216572823Y-90403925D01*
X216155171Y-90124859D01*
X215691100Y-89932634D01*
X215198446Y-89834639D01*
X214696140Y-89834639D01*
X214203486Y-89932634D01*
X213739415Y-90124859D01*
X213321763Y-90403925D01*
X212966579Y-90759109D01*
X212903000Y-90854262D01*
X212903000Y-84075370D01*
X216323904Y-80654467D01*
X216354422Y-80629422D01*
X216409934Y-80561780D01*
X216454393Y-80507607D01*
X216528679Y-80368628D01*
X216539921Y-80331568D01*
X216574424Y-80217827D01*
X216586000Y-80100293D01*
X216586000Y-80100291D01*
X216589870Y-80061000D01*
X216586000Y-80021709D01*
X216586000Y-76924784D01*
X216589869Y-76884989D01*
X216582115Y-76807262D01*
X216574424Y-76729173D01*
X216574276Y-76728687D01*
X216574226Y-76728181D01*
X216551453Y-76653446D01*
X216528679Y-76578372D01*
X216528439Y-76577922D01*
X216528291Y-76577438D01*
X216491299Y-76508439D01*
X216454393Y-76439394D01*
X216429026Y-76408485D01*
X209431118Y-65963846D01*
X209401759Y-65914518D01*
X209361002Y-65869271D01*
X209322317Y-65822253D01*
X209308361Y-65810829D01*
X209296291Y-65797429D01*
X209247497Y-65761007D01*
X209200375Y-65722434D01*
X209184459Y-65713952D01*
X209170007Y-65703165D01*
X209115038Y-65676959D01*
X209061303Y-65648324D01*
X209044041Y-65643111D01*
X209027759Y-65635349D01*
X208968732Y-65620370D01*
X208910446Y-65602769D01*
X208853326Y-65597216D01*
X207331914Y-65366738D01*
X207326799Y-65354390D01*
X207179058Y-65133280D01*
X206991020Y-64945242D01*
X206769910Y-64797501D01*
X206524225Y-64695735D01*
X206263408Y-64643855D01*
X205997482Y-64643855D01*
X205736665Y-64695735D01*
X205490980Y-64797501D01*
X205269870Y-64945242D01*
X205081832Y-65133280D01*
X204934091Y-65354390D01*
X204832325Y-65600075D01*
X204780445Y-65860892D01*
X204780445Y-66126818D01*
X204832325Y-66387635D01*
X204934091Y-66633320D01*
X205081832Y-66854430D01*
X205269870Y-67042468D01*
X205490980Y-67190209D01*
X205736665Y-67291975D01*
X205997482Y-67343855D01*
X206263408Y-67343855D01*
X206524225Y-67291975D01*
X206769910Y-67190209D01*
X206991020Y-67042468D01*
X207085782Y-66947706D01*
X208286224Y-67129560D01*
X208539556Y-67507668D01*
X208376020Y-67344132D01*
X208154910Y-67196391D01*
X207909225Y-67094625D01*
X207648408Y-67042745D01*
X207382482Y-67042745D01*
X207121665Y-67094625D01*
X206875980Y-67196391D01*
X206654870Y-67344132D01*
X206466832Y-67532170D01*
X206319091Y-67753280D01*
X206217325Y-67998965D01*
X206165445Y-68259782D01*
X206165445Y-68307686D01*
X205713433Y-68569370D01*
X205713433Y-68480337D01*
X205661553Y-68219520D01*
X205559787Y-67973835D01*
X205412046Y-67752725D01*
X205224008Y-67564687D01*
X205002898Y-67416946D01*
X204757213Y-67315180D01*
X204496396Y-67263300D01*
X204230470Y-67263300D01*
X203969653Y-67315180D01*
X203723968Y-67416946D01*
X203502858Y-67564687D01*
X203314820Y-67752725D01*
X203167079Y-67973835D01*
X203065313Y-68219520D01*
X203024863Y-68422877D01*
X202240559Y-68843080D01*
X202178330Y-68874642D01*
X202140189Y-68904596D01*
X202099900Y-68931573D01*
X202078368Y-68953147D01*
X202054395Y-68971974D01*
X202022832Y-69008791D01*
X201988578Y-69043112D01*
X201971671Y-69068469D01*
X201951830Y-69091613D01*
X201928050Y-69133892D01*
X201901157Y-69174226D01*
X201889524Y-69202387D01*
X201874576Y-69228964D01*
X201859502Y-69275066D01*
X201840993Y-69319875D01*
X201827451Y-69388305D01*
X201174400Y-72338663D01*
X201166974Y-72358264D01*
X201157412Y-72415409D01*
X201153414Y-72433473D01*
X201150922Y-72454196D01*
X201140968Y-72513689D01*
X201141536Y-72532268D01*
X201139316Y-72550731D01*
X201143939Y-72610895D01*
X201145782Y-72671200D01*
X201149965Y-72689315D01*
X201151389Y-72707853D01*
X201167658Y-72765947D01*
X201181234Y-72824747D01*
X201188873Y-72841705D01*
X201193885Y-72859601D01*
X201221170Y-72913396D01*
X201229743Y-72932428D01*
X201238957Y-72948468D01*
X201265167Y-73000144D01*
X201278115Y-73016631D01*
X204572001Y-78750433D01*
X204572000Y-82942709D01*
X204568130Y-82982000D01*
X204572000Y-83021291D01*
X204572000Y-83021292D01*
X204583576Y-83138826D01*
X204616010Y-83245745D01*
X204629321Y-83289627D01*
X204703607Y-83428606D01*
X204730793Y-83461732D01*
X204803578Y-83550422D01*
X204834103Y-83575473D01*
X206604001Y-85345372D01*
X206604000Y-88746629D01*
X206134080Y-89216549D01*
X206109650Y-89093726D01*
X206030498Y-88902638D01*
X205915589Y-88730664D01*
X205769336Y-88584411D01*
X205597362Y-88469502D01*
X205406274Y-88390350D01*
X205203416Y-88350000D01*
X204996584Y-88350000D01*
X204793726Y-88390350D01*
X204602638Y-88469502D01*
X204430664Y-88584411D01*
X204415075Y-88600000D01*
X203839282Y-88600000D01*
X203799999Y-88596131D01*
X203760716Y-88600000D01*
X203760707Y-88600000D01*
X203643173Y-88611576D01*
X203492372Y-88657321D01*
X203353393Y-88731607D01*
X203306157Y-88770373D01*
X203231578Y-88831578D01*
X203206531Y-88862098D01*
X202362098Y-89706532D01*
X202331579Y-89731578D01*
X202306532Y-89762098D01*
X202306531Y-89762099D01*
X202231607Y-89853394D01*
X202178130Y-89953441D01*
X201730272Y-87798508D01*
X201726486Y-87782481D01*
X201722766Y-87766480D01*
X201722198Y-87764323D01*
X201722189Y-87764286D01*
X201722179Y-87764252D01*
X200994732Y-85018851D01*
X200990115Y-85003153D01*
X200985505Y-84987276D01*
X200984810Y-84985116D01*
X200109947Y-82283039D01*
X200104453Y-82267518D01*
X200099025Y-82252009D01*
X200098214Y-82249890D01*
X199078507Y-79599078D01*
X199072192Y-79583899D01*
X199065924Y-79568685D01*
X199064999Y-79566612D01*
X197903432Y-76974824D01*
X197896288Y-76959975D01*
X197889223Y-76945155D01*
X197888188Y-76943136D01*
X196588159Y-74417957D01*
X196580170Y-74403418D01*
X196572366Y-74389100D01*
X196571234Y-74387157D01*
X196571224Y-74387139D01*
X196571214Y-74387123D01*
X195136539Y-71935959D01*
X195127775Y-71921875D01*
X195119209Y-71907999D01*
X195117973Y-71906121D01*
X195117962Y-71906103D01*
X195117950Y-71906086D01*
X193552819Y-69536096D01*
X193543331Y-69522540D01*
X193534002Y-69509113D01*
X193532655Y-69507288D01*
X191981271Y-67413817D01*
X202760580Y-67413817D01*
X202936475Y-67570293D01*
X203201801Y-67552426D01*
X203458543Y-67483140D01*
X203696834Y-67365097D01*
X203907518Y-67202834D01*
X204082498Y-67002586D01*
X204173641Y-66856015D01*
X204126077Y-66625448D01*
X203049144Y-66336884D01*
X202760580Y-67413817D01*
X191981271Y-67413817D01*
X191841635Y-67225390D01*
X191831476Y-67212430D01*
X191821386Y-67199464D01*
X191819942Y-67197715D01*
X190970547Y-66172452D01*
X201622550Y-66172452D01*
X201640417Y-66437778D01*
X201709703Y-66694520D01*
X201827746Y-66932811D01*
X201990009Y-67143495D01*
X202190257Y-67318475D01*
X202336828Y-67409618D01*
X202567395Y-67362054D01*
X202855959Y-66285121D01*
X202328167Y-66143699D01*
X203100907Y-66143699D01*
X204177840Y-66432263D01*
X204334316Y-66256368D01*
X204316449Y-65991042D01*
X204247163Y-65734300D01*
X204129120Y-65496009D01*
X203966857Y-65285325D01*
X203766609Y-65110345D01*
X203620038Y-65019202D01*
X203389471Y-65066766D01*
X203100907Y-66143699D01*
X202328167Y-66143699D01*
X201779026Y-65996557D01*
X201622550Y-66172452D01*
X190970547Y-66172452D01*
X190473760Y-65572805D01*
X201783225Y-65572805D01*
X201830789Y-65803372D01*
X202907722Y-66091936D01*
X203196286Y-65015003D01*
X203020391Y-64858527D01*
X202755065Y-64876394D01*
X202498323Y-64945680D01*
X202260032Y-65063723D01*
X202049348Y-65225986D01*
X201874368Y-65426234D01*
X201783225Y-65572805D01*
X190473760Y-65572805D01*
X190007995Y-65010604D01*
X189997191Y-64998259D01*
X189986374Y-64985811D01*
X189984837Y-64984142D01*
X189718754Y-64696200D01*
X200543049Y-64696200D01*
X200821994Y-65184670D01*
X200885100Y-65272734D01*
X200964174Y-65346794D01*
X201056177Y-65404006D01*
X201157574Y-65442168D01*
X201264467Y-65459817D01*
X201372750Y-65456272D01*
X201478260Y-65431671D01*
X201576943Y-65386958D01*
X202062752Y-65103403D01*
X202113080Y-64915575D01*
X201556830Y-63952122D01*
X200593377Y-64508372D01*
X200543049Y-64696200D01*
X189718754Y-64696200D01*
X188600936Y-63486553D01*
X199949135Y-63486553D01*
X199952680Y-63594836D01*
X199977281Y-63700346D01*
X200021994Y-63799029D01*
X200305549Y-64284838D01*
X200493377Y-64335166D01*
X201330033Y-63852122D01*
X201730036Y-63852122D01*
X202286286Y-64815575D01*
X202474114Y-64865903D01*
X202962584Y-64586958D01*
X203050648Y-64523852D01*
X203124708Y-64444778D01*
X203181920Y-64352775D01*
X203220082Y-64251378D01*
X203237731Y-64144485D01*
X203234186Y-64036202D01*
X203209585Y-63930692D01*
X203164872Y-63832009D01*
X202948908Y-63462001D01*
X203395445Y-63462001D01*
X203395445Y-63727927D01*
X203447325Y-63988744D01*
X203549091Y-64234429D01*
X203696832Y-64455539D01*
X203884870Y-64643577D01*
X204105980Y-64791318D01*
X204351665Y-64893084D01*
X204612482Y-64944964D01*
X204878408Y-64944964D01*
X205139225Y-64893084D01*
X205384910Y-64791318D01*
X205606020Y-64643577D01*
X205794058Y-64455539D01*
X205941799Y-64234429D01*
X206043565Y-63988744D01*
X206095445Y-63727927D01*
X206095445Y-63462001D01*
X206043565Y-63201184D01*
X205941799Y-62955499D01*
X205794058Y-62734389D01*
X205606020Y-62546351D01*
X205384910Y-62398610D01*
X205139225Y-62296844D01*
X204878408Y-62244964D01*
X204612482Y-62244964D01*
X204351665Y-62296844D01*
X204105980Y-62398610D01*
X203884870Y-62546351D01*
X203696832Y-62734389D01*
X203549091Y-62955499D01*
X203447325Y-63201184D01*
X203395445Y-63462001D01*
X202948908Y-63462001D01*
X202881317Y-63346200D01*
X202693489Y-63295872D01*
X201730036Y-63852122D01*
X201330033Y-63852122D01*
X201456830Y-63778916D01*
X200900580Y-62815463D01*
X200712752Y-62765135D01*
X200224282Y-63044080D01*
X200136218Y-63107186D01*
X200062158Y-63186260D01*
X200004946Y-63278263D01*
X199966784Y-63379660D01*
X199949135Y-63486553D01*
X188600936Y-63486553D01*
X188057265Y-62898220D01*
X188045688Y-62886353D01*
X188034335Y-62874633D01*
X188032710Y-62873049D01*
X187870431Y-62715463D01*
X201073786Y-62715463D01*
X201630036Y-63678916D01*
X202593489Y-63122666D01*
X202643817Y-62934838D01*
X202364872Y-62446368D01*
X202301766Y-62358304D01*
X202222692Y-62284244D01*
X202130689Y-62227032D01*
X202029292Y-62188870D01*
X201922399Y-62171221D01*
X201814116Y-62174766D01*
X201708606Y-62199367D01*
X201609923Y-62244080D01*
X201124114Y-62527635D01*
X201073786Y-62715463D01*
X187870431Y-62715463D01*
X185995155Y-60894420D01*
X185983026Y-60883263D01*
X185970983Y-60872107D01*
X185969275Y-60870614D01*
X183827699Y-59005069D01*
X183814961Y-58994566D01*
X183802355Y-58984096D01*
X183800569Y-58982697D01*
X181561240Y-57235697D01*
X181548009Y-57225939D01*
X181534799Y-57216125D01*
X181532940Y-57214825D01*
X180975920Y-56826829D01*
X196793189Y-56826829D01*
X196793189Y-57329135D01*
X196891184Y-57821789D01*
X197083409Y-58285860D01*
X197362475Y-58703512D01*
X197717659Y-59058696D01*
X198135311Y-59337762D01*
X198599382Y-59529987D01*
X199092036Y-59627982D01*
X199594342Y-59627982D01*
X200086996Y-59529987D01*
X200551067Y-59337762D01*
X200968719Y-59058696D01*
X201323903Y-58703512D01*
X201602969Y-58285860D01*
X201795194Y-57821789D01*
X201893189Y-57329135D01*
X201893189Y-56826829D01*
X201795194Y-56334175D01*
X201602969Y-55870104D01*
X201323903Y-55452452D01*
X200968719Y-55097268D01*
X200551067Y-54818202D01*
X200086996Y-54625977D01*
X199594342Y-54527982D01*
X199092036Y-54527982D01*
X198599382Y-54625977D01*
X198135311Y-54818202D01*
X197717659Y-55097268D01*
X197362475Y-55452452D01*
X197083409Y-55870104D01*
X196891184Y-56334175D01*
X196793189Y-56826829D01*
X180975920Y-56826829D01*
X179202413Y-55591481D01*
X179188602Y-55582405D01*
X179174953Y-55573368D01*
X179173043Y-55572181D01*
X179173026Y-55572170D01*
X179173009Y-55572160D01*
X176758120Y-54077233D01*
X176743812Y-54068903D01*
X176729720Y-54060632D01*
X176727731Y-54059540D01*
X174235515Y-52697386D01*
X174220707Y-52689805D01*
X174206259Y-52682345D01*
X174204230Y-52681370D01*
X174204215Y-52681362D01*
X174204200Y-52681356D01*
X171641981Y-51455977D01*
X171626861Y-51449242D01*
X171611955Y-51442540D01*
X171609860Y-51441669D01*
X168985110Y-50356640D01*
X168969640Y-50350729D01*
X168954401Y-50344846D01*
X168952274Y-50344095D01*
X168952262Y-50344090D01*
X168952250Y-50344086D01*
X166272674Y-49402592D01*
X166256733Y-49397471D01*
X166241372Y-49392477D01*
X166239207Y-49391840D01*
X166239196Y-49391837D01*
X166239186Y-49391834D01*
X163512614Y-48596626D01*
X163496651Y-48592436D01*
X163480811Y-48588218D01*
X163478603Y-48587698D01*
X160713006Y-47941101D01*
X160696848Y-47937781D01*
X160680795Y-47934425D01*
X160678569Y-47934025D01*
X160678562Y-47934024D01*
X160678556Y-47934023D01*
X158506580Y-47548723D01*
X158542841Y-47310565D01*
X186518738Y-47310565D01*
X186518738Y-47812871D01*
X186616733Y-48305525D01*
X186808958Y-48769596D01*
X187088024Y-49187248D01*
X187443208Y-49542432D01*
X187860860Y-49821498D01*
X188324931Y-50013723D01*
X188817585Y-50111718D01*
X189319891Y-50111718D01*
X189812545Y-50013723D01*
X190276616Y-49821498D01*
X190694268Y-49542432D01*
X191049452Y-49187248D01*
X191328518Y-48769596D01*
X191520743Y-48305525D01*
X191618738Y-47812871D01*
X191618738Y-47310565D01*
X191520743Y-46817911D01*
X191328518Y-46353840D01*
X191049452Y-45936188D01*
X190694268Y-45581004D01*
X190276616Y-45301938D01*
X189812545Y-45109713D01*
X189319891Y-45011718D01*
X188817585Y-45011718D01*
X188324931Y-45109713D01*
X187860860Y-45301938D01*
X187443208Y-45581004D01*
X187088024Y-45936188D01*
X186808958Y-46353840D01*
X186616733Y-46817911D01*
X186518738Y-47310565D01*
X158542841Y-47310565D01*
X159448691Y-41361120D01*
X170577925Y-41361120D01*
X170582509Y-41469364D01*
X170608122Y-41574633D01*
X170653780Y-41672883D01*
X170717728Y-41760337D01*
X170797509Y-41833636D01*
X170890057Y-41889961D01*
X172331780Y-42583816D01*
X172433539Y-42621004D01*
X172540596Y-42637625D01*
X172648840Y-42633041D01*
X172754109Y-42607428D01*
X172852359Y-42561770D01*
X172939813Y-42497822D01*
X173013112Y-42418041D01*
X173069437Y-42325493D01*
X173184548Y-42086310D01*
X173343496Y-42086310D01*
X173343496Y-42352236D01*
X173395376Y-42613053D01*
X173497142Y-42858738D01*
X173644883Y-43079848D01*
X173832921Y-43267886D01*
X174054031Y-43415627D01*
X174299716Y-43517393D01*
X174560533Y-43569273D01*
X174826459Y-43569273D01*
X175087276Y-43517393D01*
X175332961Y-43415627D01*
X175524647Y-43287546D01*
X175839480Y-43287546D01*
X175839480Y-43553472D01*
X175891360Y-43814289D01*
X175993126Y-44059974D01*
X176140867Y-44281084D01*
X176328905Y-44469122D01*
X176550015Y-44616863D01*
X176795700Y-44718629D01*
X177056517Y-44770509D01*
X177322443Y-44770509D01*
X177583260Y-44718629D01*
X177828945Y-44616863D01*
X178020633Y-44488781D01*
X178335463Y-44488781D01*
X178335463Y-44754707D01*
X178387343Y-45015524D01*
X178489109Y-45261209D01*
X178636850Y-45482319D01*
X178824888Y-45670357D01*
X179045998Y-45818098D01*
X179291683Y-45919864D01*
X179552500Y-45971744D01*
X179818426Y-45971744D01*
X180079243Y-45919864D01*
X180324928Y-45818098D01*
X180516614Y-45690017D01*
X180831446Y-45690017D01*
X180831446Y-45955943D01*
X180883326Y-46216760D01*
X180985092Y-46462445D01*
X181132833Y-46683555D01*
X181320871Y-46871593D01*
X181541981Y-47019334D01*
X181787666Y-47121100D01*
X182048483Y-47172980D01*
X182314409Y-47172980D01*
X182575226Y-47121100D01*
X182820911Y-47019334D01*
X183042021Y-46871593D01*
X183230059Y-46683555D01*
X183377800Y-46462445D01*
X183479566Y-46216760D01*
X183531446Y-45955943D01*
X183531446Y-45690017D01*
X183479566Y-45429200D01*
X183377800Y-45183515D01*
X183230059Y-44962405D01*
X183042021Y-44774367D01*
X182820911Y-44626626D01*
X182575226Y-44524860D01*
X182314409Y-44472980D01*
X182048483Y-44472980D01*
X181787666Y-44524860D01*
X181541981Y-44626626D01*
X181320871Y-44774367D01*
X181132833Y-44962405D01*
X180985092Y-45183515D01*
X180883326Y-45429200D01*
X180831446Y-45690017D01*
X180516614Y-45690017D01*
X180546038Y-45670357D01*
X180734076Y-45482319D01*
X180881817Y-45261209D01*
X180983583Y-45015524D01*
X181035463Y-44754707D01*
X181035463Y-44488781D01*
X180983583Y-44227964D01*
X180881817Y-43982279D01*
X180734076Y-43761169D01*
X180546038Y-43573131D01*
X180324928Y-43425390D01*
X180079243Y-43323624D01*
X179818426Y-43271744D01*
X179552500Y-43271744D01*
X179291683Y-43323624D01*
X179045998Y-43425390D01*
X178824888Y-43573131D01*
X178636850Y-43761169D01*
X178489109Y-43982279D01*
X178387343Y-44227964D01*
X178335463Y-44488781D01*
X178020633Y-44488781D01*
X178050055Y-44469122D01*
X178238093Y-44281084D01*
X178385834Y-44059974D01*
X178487600Y-43814289D01*
X178539480Y-43553472D01*
X178539480Y-43287546D01*
X178487600Y-43026729D01*
X178385834Y-42781044D01*
X178238093Y-42559934D01*
X178050055Y-42371896D01*
X177828945Y-42224155D01*
X177583260Y-42122389D01*
X177322443Y-42070509D01*
X177056517Y-42070509D01*
X176795700Y-42122389D01*
X176550015Y-42224155D01*
X176328905Y-42371896D01*
X176140867Y-42559934D01*
X175993126Y-42781044D01*
X175891360Y-43026729D01*
X175839480Y-43287546D01*
X175524647Y-43287546D01*
X175554071Y-43267886D01*
X175742109Y-43079848D01*
X175889850Y-42858738D01*
X175991616Y-42613053D01*
X176043496Y-42352236D01*
X176043496Y-42086310D01*
X175991616Y-41825493D01*
X175889850Y-41579808D01*
X175742109Y-41358698D01*
X175554071Y-41170660D01*
X175332961Y-41022919D01*
X175087276Y-40921153D01*
X174826459Y-40869273D01*
X174560533Y-40869273D01*
X174299716Y-40921153D01*
X174054031Y-41022919D01*
X173832921Y-41170660D01*
X173644883Y-41358698D01*
X173497142Y-41579808D01*
X173395376Y-41825493D01*
X173343496Y-42086310D01*
X173184548Y-42086310D01*
X173763292Y-40883770D01*
X173800480Y-40782011D01*
X173817101Y-40674954D01*
X173812517Y-40566710D01*
X173786904Y-40461441D01*
X173741246Y-40363191D01*
X173677298Y-40275737D01*
X173597517Y-40202438D01*
X173504969Y-40146113D01*
X172063246Y-39452258D01*
X171961487Y-39415070D01*
X171854430Y-39398449D01*
X171746186Y-39403033D01*
X171640917Y-39428646D01*
X171542667Y-39474304D01*
X171455213Y-39538252D01*
X171381914Y-39618033D01*
X171325589Y-39710581D01*
X170631734Y-41152304D01*
X170594546Y-41254063D01*
X170577925Y-41361120D01*
X159448691Y-41361120D01*
X160193542Y-36469088D01*
X163991813Y-36469088D01*
X163991813Y-36971394D01*
X164089808Y-37464048D01*
X164282033Y-37928119D01*
X164561099Y-38345771D01*
X164916283Y-38700955D01*
X165333935Y-38980021D01*
X165798006Y-39172246D01*
X166290660Y-39270241D01*
X166792966Y-39270241D01*
X167285620Y-39172246D01*
X167749691Y-38980021D01*
X167829591Y-38926633D01*
X173327096Y-38926633D01*
X173327096Y-39192559D01*
X173378976Y-39453376D01*
X173480742Y-39699061D01*
X173628483Y-39920171D01*
X173816521Y-40108209D01*
X174037631Y-40255950D01*
X174283316Y-40357716D01*
X174544133Y-40409596D01*
X174810059Y-40409596D01*
X175070876Y-40357716D01*
X175316561Y-40255950D01*
X175508247Y-40127869D01*
X175823080Y-40127869D01*
X175823080Y-40393795D01*
X175874960Y-40654612D01*
X175976726Y-40900297D01*
X176124467Y-41121407D01*
X176312505Y-41309445D01*
X176533615Y-41457186D01*
X176779300Y-41558952D01*
X177040117Y-41610832D01*
X177306043Y-41610832D01*
X177566860Y-41558952D01*
X177812545Y-41457186D01*
X178004231Y-41329105D01*
X178319063Y-41329105D01*
X178319063Y-41595031D01*
X178370943Y-41855848D01*
X178472709Y-42101533D01*
X178620450Y-42322643D01*
X178808488Y-42510681D01*
X179029598Y-42658422D01*
X179275283Y-42760188D01*
X179536100Y-42812068D01*
X179802026Y-42812068D01*
X180062843Y-42760188D01*
X180308528Y-42658422D01*
X180500216Y-42530340D01*
X180815046Y-42530340D01*
X180815046Y-42796266D01*
X180866926Y-43057083D01*
X180968692Y-43302768D01*
X181116433Y-43523878D01*
X181304471Y-43711916D01*
X181525581Y-43859657D01*
X181771266Y-43961423D01*
X182032083Y-44013303D01*
X182298009Y-44013303D01*
X182558826Y-43961423D01*
X182804511Y-43859657D01*
X183025621Y-43711916D01*
X183213659Y-43523878D01*
X183361400Y-43302768D01*
X183463166Y-43057083D01*
X183515046Y-42796266D01*
X183515046Y-42530340D01*
X183463166Y-42269523D01*
X183361400Y-42023838D01*
X183213659Y-41802728D01*
X183025621Y-41614690D01*
X182804511Y-41466949D01*
X182558826Y-41365183D01*
X182298009Y-41313303D01*
X182032083Y-41313303D01*
X181771266Y-41365183D01*
X181525581Y-41466949D01*
X181304471Y-41614690D01*
X181116433Y-41802728D01*
X180968692Y-42023838D01*
X180866926Y-42269523D01*
X180815046Y-42530340D01*
X180500216Y-42530340D01*
X180529638Y-42510681D01*
X180717676Y-42322643D01*
X180865417Y-42101533D01*
X180967183Y-41855848D01*
X181019063Y-41595031D01*
X181019063Y-41329105D01*
X180967183Y-41068288D01*
X180865417Y-40822603D01*
X180717676Y-40601493D01*
X180529638Y-40413455D01*
X180308528Y-40265714D01*
X180062843Y-40163948D01*
X179802026Y-40112068D01*
X179536100Y-40112068D01*
X179275283Y-40163948D01*
X179029598Y-40265714D01*
X178808488Y-40413455D01*
X178620450Y-40601493D01*
X178472709Y-40822603D01*
X178370943Y-41068288D01*
X178319063Y-41329105D01*
X178004231Y-41329105D01*
X178033655Y-41309445D01*
X178221693Y-41121407D01*
X178369434Y-40900297D01*
X178471200Y-40654612D01*
X178523080Y-40393795D01*
X178523080Y-40127869D01*
X178471200Y-39867052D01*
X178369434Y-39621367D01*
X178221693Y-39400257D01*
X178033655Y-39212219D01*
X177812545Y-39064478D01*
X177566860Y-38962712D01*
X177306043Y-38910832D01*
X177040117Y-38910832D01*
X176779300Y-38962712D01*
X176533615Y-39064478D01*
X176312505Y-39212219D01*
X176124467Y-39400257D01*
X175976726Y-39621367D01*
X175874960Y-39867052D01*
X175823080Y-40127869D01*
X175508247Y-40127869D01*
X175537671Y-40108209D01*
X175725709Y-39920171D01*
X175873450Y-39699061D01*
X175975216Y-39453376D01*
X176027096Y-39192559D01*
X176027096Y-38926633D01*
X175975216Y-38665816D01*
X175873450Y-38420131D01*
X175725709Y-38199021D01*
X175537671Y-38010983D01*
X175316561Y-37863242D01*
X175070876Y-37761476D01*
X174810059Y-37709596D01*
X174544133Y-37709596D01*
X174283316Y-37761476D01*
X174037631Y-37863242D01*
X173816521Y-38010983D01*
X173628483Y-38199021D01*
X173480742Y-38420131D01*
X173378976Y-38665816D01*
X173327096Y-38926633D01*
X167829591Y-38926633D01*
X168167343Y-38700955D01*
X168522527Y-38345771D01*
X168801593Y-37928119D01*
X168993818Y-37464048D01*
X169091813Y-36971394D01*
X169091813Y-36469088D01*
X168993818Y-35976434D01*
X168801593Y-35512363D01*
X168522527Y-35094711D01*
X168167343Y-34739527D01*
X167749691Y-34460461D01*
X167285620Y-34268236D01*
X166792966Y-34170241D01*
X166290660Y-34170241D01*
X165798006Y-34268236D01*
X165333935Y-34460461D01*
X164916283Y-34739527D01*
X164561099Y-35094711D01*
X164282033Y-35512363D01*
X164089808Y-35976434D01*
X163991813Y-36469088D01*
X160193542Y-36469088D01*
X161697980Y-26588237D01*
X164383540Y-27054708D01*
G36*
X204475000Y-105000000D02*
G01*
X204495000Y-105000000D01*
X204495000Y-105038000D01*
X204255000Y-105038000D01*
X204255000Y-105000000D01*
X204275000Y-105000000D01*
X204275000Y-104980000D01*
X204475000Y-104980000D01*
X204475000Y-105000000D01*
G37*
X204475000Y-105000000D02*
X204495000Y-105000000D01*
X204495000Y-105038000D01*
X204255000Y-105038000D01*
X204255000Y-105000000D01*
X204275000Y-105000000D01*
X204275000Y-104980000D01*
X204475000Y-104980000D01*
X204475000Y-105000000D01*
G36*
X206987500Y-101000000D02*
G01*
X208125000Y-101000000D01*
X208125000Y-100980000D01*
X208325000Y-100980000D01*
X208325000Y-101000000D01*
X208345000Y-101000000D01*
X208345000Y-101200000D01*
X208325000Y-101200000D01*
X208325000Y-101220000D01*
X208125000Y-101220000D01*
X208125000Y-101200000D01*
X206987500Y-101200000D01*
X206887500Y-101300000D01*
X205712500Y-101300000D01*
X205612500Y-101200000D01*
X204475000Y-101200000D01*
X204475000Y-101220000D01*
X204275000Y-101220000D01*
X204275000Y-101200000D01*
X204255000Y-101200000D01*
X204255000Y-101000000D01*
X204275000Y-101000000D01*
X204275000Y-100980000D01*
X204475000Y-100980000D01*
X204475000Y-101000000D01*
X205612500Y-101000000D01*
X205712500Y-100900000D01*
X206887500Y-100900000D01*
X206987500Y-101000000D01*
G37*
X206987500Y-101000000D02*
X208125000Y-101000000D01*
X208125000Y-100980000D01*
X208325000Y-100980000D01*
X208325000Y-101000000D01*
X208345000Y-101000000D01*
X208345000Y-101200000D01*
X208325000Y-101200000D01*
X208325000Y-101220000D01*
X208125000Y-101220000D01*
X208125000Y-101200000D01*
X206987500Y-101200000D01*
X206887500Y-101300000D01*
X205712500Y-101300000D01*
X205612500Y-101200000D01*
X204475000Y-101200000D01*
X204475000Y-101220000D01*
X204275000Y-101220000D01*
X204275000Y-101200000D01*
X204255000Y-101200000D01*
X204255000Y-101000000D01*
X204275000Y-101000000D01*
X204275000Y-100980000D01*
X204475000Y-100980000D01*
X204475000Y-101000000D01*
X205612500Y-101000000D01*
X205712500Y-100900000D01*
X206887500Y-100900000D01*
X206987500Y-101000000D01*
G36*
X206130664Y-97915589D02*
G01*
X206302638Y-98030498D01*
X206470429Y-98100000D01*
X206302638Y-98169502D01*
X206130664Y-98284411D01*
X206065075Y-98350000D01*
X205750532Y-98350000D01*
X205750000Y-98337500D01*
X205612500Y-98200000D01*
X204475000Y-98200000D01*
X204475000Y-98220000D01*
X204275000Y-98220000D01*
X204275000Y-98200000D01*
X204255000Y-98200000D01*
X204255000Y-98000000D01*
X204275000Y-98000000D01*
X204275000Y-97980000D01*
X204475000Y-97980000D01*
X204475000Y-98000000D01*
X205612500Y-98000000D01*
X205750000Y-97862500D01*
X205750532Y-97850000D01*
X206065075Y-97850000D01*
X206130664Y-97915589D01*
G37*
X206130664Y-97915589D02*
X206302638Y-98030498D01*
X206470429Y-98100000D01*
X206302638Y-98169502D01*
X206130664Y-98284411D01*
X206065075Y-98350000D01*
X205750532Y-98350000D01*
X205750000Y-98337500D01*
X205612500Y-98200000D01*
X204475000Y-98200000D01*
X204475000Y-98220000D01*
X204275000Y-98220000D01*
X204275000Y-98200000D01*
X204255000Y-98200000D01*
X204255000Y-98000000D01*
X204275000Y-98000000D01*
X204275000Y-97980000D01*
X204475000Y-97980000D01*
X204475000Y-98000000D01*
X205612500Y-98000000D01*
X205750000Y-97862500D01*
X205750532Y-97850000D01*
X206065075Y-97850000D01*
X206130664Y-97915589D01*
G36*
X208325000Y-98000000D02*
G01*
X208345000Y-98000000D01*
X208345000Y-98200000D01*
X208325000Y-98200000D01*
X208325000Y-98220000D01*
X208125000Y-98220000D01*
X208125000Y-98200000D01*
X208105000Y-98200000D01*
X208105000Y-98000000D01*
X208125000Y-98000000D01*
X208125000Y-97980000D01*
X208325000Y-97980000D01*
X208325000Y-98000000D01*
G37*
X208325000Y-98000000D02*
X208345000Y-98000000D01*
X208345000Y-98200000D01*
X208325000Y-98200000D01*
X208325000Y-98220000D01*
X208125000Y-98220000D01*
X208125000Y-98200000D01*
X208105000Y-98200000D01*
X208105000Y-98000000D01*
X208125000Y-98000000D01*
X208125000Y-97980000D01*
X208325000Y-97980000D01*
X208325000Y-98000000D01*
G36*
X214986001Y-77129228D02*
G01*
X214986000Y-79729629D01*
X211672198Y-83043432D01*
X211641614Y-83006166D01*
X211604748Y-82961245D01*
X211604745Y-82961242D01*
X211575001Y-82924999D01*
X211538757Y-82895254D01*
X209624000Y-80980498D01*
X209624000Y-79997245D01*
X209862475Y-80354148D01*
X210217659Y-80709332D01*
X210635311Y-80988398D01*
X211099382Y-81180623D01*
X211592036Y-81278618D01*
X212094342Y-81278618D01*
X212586996Y-81180623D01*
X213051067Y-80988398D01*
X213468719Y-80709332D01*
X213823903Y-80354148D01*
X214102969Y-79936496D01*
X214295194Y-79472425D01*
X214393189Y-78979771D01*
X214393189Y-78477465D01*
X214295194Y-77984811D01*
X214102969Y-77520740D01*
X213823903Y-77103088D01*
X213468719Y-76747904D01*
X213051067Y-76468838D01*
X212586996Y-76276613D01*
X212094342Y-76178618D01*
X211592036Y-76178618D01*
X211099382Y-76276613D01*
X210635311Y-76468838D01*
X210217659Y-76747904D01*
X209862475Y-77103088D01*
X209624000Y-77459991D01*
X209624000Y-75882502D01*
X210582757Y-74923746D01*
X210619001Y-74894001D01*
X210671418Y-74830132D01*
X210728086Y-74761081D01*
X210737718Y-74749345D01*
X210825932Y-74584308D01*
X210880254Y-74405232D01*
X210894000Y-74265665D01*
X210894000Y-74265655D01*
X210898595Y-74219001D01*
X210894000Y-74172346D01*
X210894000Y-71881848D01*
X210898595Y-71835191D01*
X210894000Y-71788534D01*
X210894000Y-71788526D01*
X210880254Y-71648959D01*
X210878850Y-71644329D01*
X210825932Y-71469882D01*
X210775935Y-71376345D01*
X210737718Y-71304846D01*
X210619001Y-71160190D01*
X210582757Y-71130445D01*
X210250445Y-70798133D01*
X210250445Y-70658673D01*
X210198565Y-70397856D01*
X210096799Y-70152171D01*
X209949058Y-69931061D01*
X209761020Y-69743023D01*
X209539910Y-69595282D01*
X209294225Y-69493516D01*
X209033408Y-69441636D01*
X208767482Y-69441636D01*
X208506665Y-69493516D01*
X208260980Y-69595282D01*
X208039870Y-69743023D01*
X207851832Y-69931061D01*
X207704091Y-70152171D01*
X207602325Y-70397856D01*
X207550445Y-70658673D01*
X207550445Y-70924599D01*
X207602325Y-71185416D01*
X207704091Y-71431101D01*
X207851832Y-71652211D01*
X208039870Y-71840249D01*
X208260980Y-71987990D01*
X208506665Y-72089756D01*
X208767482Y-72141636D01*
X208906942Y-72141636D01*
X208994001Y-72228695D01*
X208994000Y-73825497D01*
X208035243Y-74784255D01*
X207999000Y-74813999D01*
X207969256Y-74850242D01*
X207969252Y-74850246D01*
X207880283Y-74958655D01*
X207792069Y-75123692D01*
X207737747Y-75302768D01*
X207719405Y-75489000D01*
X207724001Y-75535664D01*
X207724000Y-81327345D01*
X207719405Y-81374000D01*
X207724000Y-81420654D01*
X207724000Y-81420664D01*
X207737746Y-81560231D01*
X207792068Y-81739307D01*
X207880282Y-81904345D01*
X207998999Y-82049001D01*
X208035248Y-82078750D01*
X209950001Y-83993504D01*
X209950000Y-88918630D01*
X209150000Y-88118630D01*
X209150000Y-84221290D01*
X209153870Y-84181999D01*
X209150000Y-84142707D01*
X209138424Y-84025173D01*
X209092679Y-83874372D01*
X209045567Y-83786232D01*
X209018393Y-83735393D01*
X208943469Y-83644098D01*
X208918422Y-83613578D01*
X208887903Y-83588532D01*
X207188000Y-81888630D01*
X207188000Y-77966369D01*
X207190304Y-77952146D01*
X207188000Y-77887731D01*
X207188000Y-77862707D01*
X207186594Y-77848436D01*
X207184671Y-77794661D01*
X207178889Y-77770197D01*
X207176424Y-77745173D01*
X207160799Y-77693665D01*
X207148422Y-77641300D01*
X207137978Y-77618434D01*
X207130679Y-77594372D01*
X207105311Y-77546913D01*
X207099355Y-77533872D01*
X207086776Y-77512237D01*
X207056393Y-77455394D01*
X207047253Y-77444257D01*
X204625079Y-73278118D01*
X205783433Y-73278118D01*
X205783433Y-73544044D01*
X205835313Y-73804861D01*
X205937079Y-74050546D01*
X206084820Y-74271656D01*
X206272858Y-74459694D01*
X206493968Y-74607435D01*
X206739653Y-74709201D01*
X207000470Y-74761081D01*
X207266396Y-74761081D01*
X207527213Y-74709201D01*
X207772898Y-74607435D01*
X207994008Y-74459694D01*
X208182046Y-74271656D01*
X208329787Y-74050546D01*
X208431553Y-73804861D01*
X208483433Y-73544044D01*
X208483433Y-73278118D01*
X208431553Y-73017301D01*
X208329787Y-72771616D01*
X208182046Y-72550506D01*
X207994008Y-72362468D01*
X207772898Y-72214727D01*
X207527213Y-72112961D01*
X207266396Y-72061081D01*
X207000470Y-72061081D01*
X206739653Y-72112961D01*
X206493968Y-72214727D01*
X206272858Y-72362468D01*
X206084820Y-72550506D01*
X205937079Y-72771616D01*
X205835313Y-73017301D01*
X205783433Y-73278118D01*
X204625079Y-73278118D01*
X204060036Y-72306245D01*
X204316029Y-71111613D01*
X204398433Y-71063907D01*
X204398433Y-71145153D01*
X204450313Y-71405970D01*
X204552079Y-71651655D01*
X204699820Y-71872765D01*
X204887858Y-72060803D01*
X205108968Y-72208544D01*
X205354653Y-72310310D01*
X205615470Y-72362190D01*
X205881396Y-72362190D01*
X206142213Y-72310310D01*
X206387898Y-72208544D01*
X206609008Y-72060803D01*
X206797046Y-71872765D01*
X206944787Y-71651655D01*
X207046553Y-71405970D01*
X207098433Y-71145153D01*
X207098433Y-70879227D01*
X207046553Y-70618410D01*
X206944787Y-70372725D01*
X206797046Y-70151615D01*
X206609008Y-69963577D01*
X206465119Y-69867433D01*
X206916733Y-69605979D01*
X207121665Y-69690865D01*
X207382482Y-69742745D01*
X207648408Y-69742745D01*
X207909225Y-69690865D01*
X208154910Y-69589099D01*
X208376020Y-69441358D01*
X208564058Y-69253320D01*
X208711799Y-69032210D01*
X208813565Y-68786525D01*
X208865445Y-68525708D01*
X208865445Y-68259782D01*
X208813565Y-67998965D01*
X208724240Y-67783316D01*
X214986001Y-77129228D01*
G37*
X214986001Y-77129228D02*
X214986000Y-79729629D01*
X211672198Y-83043432D01*
X211641614Y-83006166D01*
X211604748Y-82961245D01*
X211604745Y-82961242D01*
X211575001Y-82924999D01*
X211538757Y-82895254D01*
X209624000Y-80980498D01*
X209624000Y-79997245D01*
X209862475Y-80354148D01*
X210217659Y-80709332D01*
X210635311Y-80988398D01*
X211099382Y-81180623D01*
X211592036Y-81278618D01*
X212094342Y-81278618D01*
X212586996Y-81180623D01*
X213051067Y-80988398D01*
X213468719Y-80709332D01*
X213823903Y-80354148D01*
X214102969Y-79936496D01*
X214295194Y-79472425D01*
X214393189Y-78979771D01*
X214393189Y-78477465D01*
X214295194Y-77984811D01*
X214102969Y-77520740D01*
X213823903Y-77103088D01*
X213468719Y-76747904D01*
X213051067Y-76468838D01*
X212586996Y-76276613D01*
X212094342Y-76178618D01*
X211592036Y-76178618D01*
X211099382Y-76276613D01*
X210635311Y-76468838D01*
X210217659Y-76747904D01*
X209862475Y-77103088D01*
X209624000Y-77459991D01*
X209624000Y-75882502D01*
X210582757Y-74923746D01*
X210619001Y-74894001D01*
X210671418Y-74830132D01*
X210728086Y-74761081D01*
X210737718Y-74749345D01*
X210825932Y-74584308D01*
X210880254Y-74405232D01*
X210894000Y-74265665D01*
X210894000Y-74265655D01*
X210898595Y-74219001D01*
X210894000Y-74172346D01*
X210894000Y-71881848D01*
X210898595Y-71835191D01*
X210894000Y-71788534D01*
X210894000Y-71788526D01*
X210880254Y-71648959D01*
X210878850Y-71644329D01*
X210825932Y-71469882D01*
X210775935Y-71376345D01*
X210737718Y-71304846D01*
X210619001Y-71160190D01*
X210582757Y-71130445D01*
X210250445Y-70798133D01*
X210250445Y-70658673D01*
X210198565Y-70397856D01*
X210096799Y-70152171D01*
X209949058Y-69931061D01*
X209761020Y-69743023D01*
X209539910Y-69595282D01*
X209294225Y-69493516D01*
X209033408Y-69441636D01*
X208767482Y-69441636D01*
X208506665Y-69493516D01*
X208260980Y-69595282D01*
X208039870Y-69743023D01*
X207851832Y-69931061D01*
X207704091Y-70152171D01*
X207602325Y-70397856D01*
X207550445Y-70658673D01*
X207550445Y-70924599D01*
X207602325Y-71185416D01*
X207704091Y-71431101D01*
X207851832Y-71652211D01*
X208039870Y-71840249D01*
X208260980Y-71987990D01*
X208506665Y-72089756D01*
X208767482Y-72141636D01*
X208906942Y-72141636D01*
X208994001Y-72228695D01*
X208994000Y-73825497D01*
X208035243Y-74784255D01*
X207999000Y-74813999D01*
X207969256Y-74850242D01*
X207969252Y-74850246D01*
X207880283Y-74958655D01*
X207792069Y-75123692D01*
X207737747Y-75302768D01*
X207719405Y-75489000D01*
X207724001Y-75535664D01*
X207724000Y-81327345D01*
X207719405Y-81374000D01*
X207724000Y-81420654D01*
X207724000Y-81420664D01*
X207737746Y-81560231D01*
X207792068Y-81739307D01*
X207880282Y-81904345D01*
X207998999Y-82049001D01*
X208035248Y-82078750D01*
X209950001Y-83993504D01*
X209950000Y-88918630D01*
X209150000Y-88118630D01*
X209150000Y-84221290D01*
X209153870Y-84181999D01*
X209150000Y-84142707D01*
X209138424Y-84025173D01*
X209092679Y-83874372D01*
X209045567Y-83786232D01*
X209018393Y-83735393D01*
X208943469Y-83644098D01*
X208918422Y-83613578D01*
X208887903Y-83588532D01*
X207188000Y-81888630D01*
X207188000Y-77966369D01*
X207190304Y-77952146D01*
X207188000Y-77887731D01*
X207188000Y-77862707D01*
X207186594Y-77848436D01*
X207184671Y-77794661D01*
X207178889Y-77770197D01*
X207176424Y-77745173D01*
X207160799Y-77693665D01*
X207148422Y-77641300D01*
X207137978Y-77618434D01*
X207130679Y-77594372D01*
X207105311Y-77546913D01*
X207099355Y-77533872D01*
X207086776Y-77512237D01*
X207056393Y-77455394D01*
X207047253Y-77444257D01*
X204625079Y-73278118D01*
X205783433Y-73278118D01*
X205783433Y-73544044D01*
X205835313Y-73804861D01*
X205937079Y-74050546D01*
X206084820Y-74271656D01*
X206272858Y-74459694D01*
X206493968Y-74607435D01*
X206739653Y-74709201D01*
X207000470Y-74761081D01*
X207266396Y-74761081D01*
X207527213Y-74709201D01*
X207772898Y-74607435D01*
X207994008Y-74459694D01*
X208182046Y-74271656D01*
X208329787Y-74050546D01*
X208431553Y-73804861D01*
X208483433Y-73544044D01*
X208483433Y-73278118D01*
X208431553Y-73017301D01*
X208329787Y-72771616D01*
X208182046Y-72550506D01*
X207994008Y-72362468D01*
X207772898Y-72214727D01*
X207527213Y-72112961D01*
X207266396Y-72061081D01*
X207000470Y-72061081D01*
X206739653Y-72112961D01*
X206493968Y-72214727D01*
X206272858Y-72362468D01*
X206084820Y-72550506D01*
X205937079Y-72771616D01*
X205835313Y-73017301D01*
X205783433Y-73278118D01*
X204625079Y-73278118D01*
X204060036Y-72306245D01*
X204316029Y-71111613D01*
X204398433Y-71063907D01*
X204398433Y-71145153D01*
X204450313Y-71405970D01*
X204552079Y-71651655D01*
X204699820Y-71872765D01*
X204887858Y-72060803D01*
X205108968Y-72208544D01*
X205354653Y-72310310D01*
X205615470Y-72362190D01*
X205881396Y-72362190D01*
X206142213Y-72310310D01*
X206387898Y-72208544D01*
X206609008Y-72060803D01*
X206797046Y-71872765D01*
X206944787Y-71651655D01*
X207046553Y-71405970D01*
X207098433Y-71145153D01*
X207098433Y-70879227D01*
X207046553Y-70618410D01*
X206944787Y-70372725D01*
X206797046Y-70151615D01*
X206609008Y-69963577D01*
X206465119Y-69867433D01*
X206916733Y-69605979D01*
X207121665Y-69690865D01*
X207382482Y-69742745D01*
X207648408Y-69742745D01*
X207909225Y-69690865D01*
X208154910Y-69589099D01*
X208376020Y-69441358D01*
X208564058Y-69253320D01*
X208711799Y-69032210D01*
X208813565Y-68786525D01*
X208865445Y-68525708D01*
X208865445Y-68259782D01*
X208813565Y-67998965D01*
X208724240Y-67783316D01*
X214986001Y-77129228D01*
%TO.N,/piezo_gnd*%
G36*
X218811000Y-100316132D02*
G01*
X218811000Y-110478868D01*
X215850868Y-113439000D01*
X210341154Y-113439000D01*
X201853227Y-111589067D01*
X202077518Y-110622131D01*
X202080830Y-110605866D01*
X202084137Y-110589908D01*
X202084534Y-110587674D01*
X202575744Y-107790297D01*
X202578187Y-107773775D01*
X202580611Y-107757763D01*
X202580881Y-107755550D01*
X202580887Y-107755511D01*
X202580890Y-107755474D01*
X202743946Y-106400000D01*
X202997339Y-106400000D01*
X203007958Y-106507819D01*
X203035921Y-106600000D01*
X203007958Y-106692181D01*
X202997339Y-106800000D01*
X202997339Y-107400000D01*
X203007958Y-107507819D01*
X203035921Y-107600000D01*
X203007958Y-107692181D01*
X202997339Y-107800000D01*
X202997339Y-108400000D01*
X203007958Y-108507819D01*
X203035921Y-108600000D01*
X203007958Y-108692181D01*
X202997339Y-108800000D01*
X202997339Y-109400000D01*
X203007958Y-109507819D01*
X203035921Y-109600000D01*
X203007958Y-109692181D01*
X202997339Y-109800000D01*
X202997339Y-110400000D01*
X203007958Y-110507819D01*
X203039408Y-110611494D01*
X203090479Y-110707042D01*
X203159210Y-110790790D01*
X203242958Y-110859521D01*
X203338506Y-110910592D01*
X203442181Y-110942042D01*
X203550000Y-110952661D01*
X205200000Y-110952661D01*
X205307819Y-110942042D01*
X205411494Y-110910592D01*
X205431310Y-110900000D01*
X205915075Y-110900000D01*
X205930664Y-110915589D01*
X206102638Y-111030498D01*
X206293726Y-111109650D01*
X206496584Y-111150000D01*
X206703416Y-111150000D01*
X206906274Y-111109650D01*
X207097362Y-111030498D01*
X207249241Y-110929016D01*
X207292181Y-110942042D01*
X207400000Y-110952661D01*
X208692002Y-110952661D01*
X210443630Y-112704291D01*
X210467105Y-112732895D01*
X210495708Y-112756369D01*
X210495715Y-112756376D01*
X210534659Y-112788336D01*
X210581307Y-112826619D01*
X210711599Y-112896261D01*
X210852974Y-112939147D01*
X210963165Y-112950000D01*
X210963182Y-112950000D01*
X210999999Y-112953626D01*
X211036816Y-112950000D01*
X215063173Y-112950000D01*
X215100000Y-112953627D01*
X215136827Y-112950000D01*
X215136835Y-112950000D01*
X215247026Y-112939147D01*
X215388401Y-112896261D01*
X215518693Y-112826619D01*
X215632895Y-112732895D01*
X215656379Y-112704280D01*
X217804286Y-110556374D01*
X217832895Y-110532895D01*
X217926619Y-110418693D01*
X217996261Y-110288401D01*
X218039147Y-110147026D01*
X218050000Y-110036835D01*
X218050000Y-110036828D01*
X218053627Y-110000000D01*
X218050000Y-109963173D01*
X218050000Y-107136827D01*
X218053627Y-107099999D01*
X218050000Y-107063172D01*
X218050000Y-107063165D01*
X218039147Y-106952974D01*
X217996261Y-106811599D01*
X217926619Y-106681307D01*
X217874529Y-106617835D01*
X217856376Y-106595716D01*
X217856374Y-106595714D01*
X217832895Y-106567105D01*
X217804287Y-106543627D01*
X217093402Y-105832743D01*
X217069919Y-105804129D01*
X216955717Y-105710405D01*
X216825425Y-105640763D01*
X216684050Y-105597877D01*
X216573859Y-105587024D01*
X216573851Y-105587024D01*
X216537024Y-105583397D01*
X216500197Y-105587024D01*
X216444713Y-105587024D01*
X216370829Y-105476449D01*
X216182791Y-105288411D01*
X215961681Y-105140670D01*
X215715996Y-105038904D01*
X215455179Y-104987024D01*
X215189253Y-104987024D01*
X214928436Y-105038904D01*
X214682751Y-105140670D01*
X214461641Y-105288411D01*
X214273603Y-105476449D01*
X214125862Y-105697559D01*
X214024096Y-105943244D01*
X213972216Y-106204061D01*
X213972216Y-106469987D01*
X214024096Y-106730804D01*
X214125862Y-106976489D01*
X214273603Y-107197599D01*
X214461641Y-107385637D01*
X214682751Y-107533378D01*
X214928436Y-107635144D01*
X215189253Y-107687024D01*
X215455179Y-107687024D01*
X215715996Y-107635144D01*
X215961681Y-107533378D01*
X216182791Y-107385637D01*
X216353884Y-107214544D01*
X216550000Y-107410660D01*
X216550001Y-109689339D01*
X214789341Y-111450000D01*
X212813211Y-111450000D01*
X212895110Y-111253674D01*
X212168070Y-110408412D01*
X211322809Y-111135452D01*
X211379937Y-111363837D01*
X211526520Y-111450000D01*
X211310661Y-111450000D01*
X209710659Y-109850000D01*
X210663173Y-109850000D01*
X210700000Y-109853627D01*
X210736827Y-109850000D01*
X210736835Y-109850000D01*
X210847026Y-109839147D01*
X210904343Y-109821760D01*
X210860024Y-109949045D01*
X210823256Y-110212417D01*
X210838575Y-110477902D01*
X210905394Y-110735298D01*
X210975114Y-110893187D01*
X211192389Y-110983825D01*
X212037651Y-110256785D01*
X212029291Y-110247066D01*
X212164533Y-110111824D01*
X211652114Y-109599405D01*
X211741619Y-109605914D01*
X212189278Y-110126366D01*
X212198997Y-110118006D01*
X212334239Y-110253248D01*
X212897511Y-109689976D01*
X212995081Y-109697072D01*
X212319697Y-110277993D01*
X213046737Y-111123254D01*
X213275122Y-111066126D01*
X213409880Y-110836872D01*
X213497324Y-110585733D01*
X213534092Y-110322361D01*
X213518773Y-110056876D01*
X213451954Y-109799480D01*
X213420391Y-109728002D01*
X213936088Y-109765506D01*
X214065912Y-109959802D01*
X214253950Y-110147840D01*
X214475060Y-110295581D01*
X214720745Y-110397347D01*
X214981562Y-110449227D01*
X215247488Y-110449227D01*
X215508305Y-110397347D01*
X215753990Y-110295581D01*
X215975100Y-110147840D01*
X216163138Y-109959802D01*
X216310879Y-109738692D01*
X216412645Y-109493007D01*
X216464525Y-109232190D01*
X216464525Y-108966264D01*
X216412645Y-108705447D01*
X216310879Y-108459762D01*
X216163138Y-108238652D01*
X215975100Y-108050614D01*
X215753990Y-107902873D01*
X215508305Y-107801107D01*
X215247488Y-107749227D01*
X214981562Y-107749227D01*
X214720745Y-107801107D01*
X214475060Y-107902873D01*
X214253950Y-108050614D01*
X214065912Y-108238652D01*
X214045308Y-108269489D01*
X213525284Y-108231670D01*
X213617571Y-108074669D01*
X213705015Y-107823530D01*
X213741783Y-107560158D01*
X213726464Y-107294673D01*
X213659645Y-107037277D01*
X213589925Y-106879388D01*
X213372650Y-106788750D01*
X212527388Y-107515790D01*
X212535748Y-107525509D01*
X212400506Y-107660751D01*
X212927987Y-108188232D01*
X212836235Y-108181559D01*
X212375761Y-107646209D01*
X212366042Y-107654569D01*
X212230800Y-107519327D01*
X211654508Y-108095619D01*
X211554987Y-108088381D01*
X212245342Y-107494582D01*
X212236982Y-107484863D01*
X212372224Y-107349621D01*
X211633988Y-106611385D01*
X211695640Y-106548793D01*
X212396969Y-107364163D01*
X213242230Y-106637123D01*
X213185102Y-106408738D01*
X212955848Y-106273980D01*
X212704709Y-106186536D01*
X212441337Y-106149768D01*
X212175852Y-106165087D01*
X211918456Y-106231906D01*
X211918380Y-106231940D01*
X211925461Y-106207945D01*
X211941729Y-106164867D01*
X211946317Y-106137269D01*
X211954239Y-106110425D01*
X211958406Y-106064557D01*
X211959888Y-106055642D01*
X211961742Y-106027836D01*
X211967605Y-105963294D01*
X211966647Y-105954264D01*
X211967553Y-105940672D01*
X212024573Y-105974189D01*
X212275712Y-106061633D01*
X212539084Y-106098401D01*
X212804569Y-106083082D01*
X213061965Y-106016263D01*
X213219854Y-105946543D01*
X213310492Y-105729268D01*
X212583452Y-104884006D01*
X212573733Y-104892366D01*
X212438491Y-104757124D01*
X212018454Y-105177161D01*
X212023474Y-105101858D01*
X212453033Y-104732379D01*
X212444673Y-104722660D01*
X212579915Y-104587418D01*
X212258980Y-104266483D01*
X212291919Y-104238365D01*
X212604660Y-104601960D01*
X212614379Y-104593600D01*
X212749621Y-104728842D01*
X213318892Y-104159571D01*
X213417047Y-104167002D01*
X212735079Y-104753587D01*
X213462119Y-105598848D01*
X213690504Y-105541720D01*
X213825262Y-105312466D01*
X213912706Y-105061327D01*
X213949474Y-104797955D01*
X213934155Y-104532470D01*
X213867336Y-104275074D01*
X213833538Y-104198535D01*
X214349110Y-104237569D01*
X214481294Y-104435397D01*
X214669332Y-104623435D01*
X214890442Y-104771176D01*
X215136127Y-104872942D01*
X215396944Y-104924822D01*
X215662870Y-104924822D01*
X215923687Y-104872942D01*
X216169372Y-104771176D01*
X216390482Y-104623435D01*
X216578520Y-104435397D01*
X216726261Y-104214287D01*
X216828027Y-103968602D01*
X216879907Y-103707785D01*
X216879907Y-103441859D01*
X216828027Y-103181042D01*
X216726261Y-102935357D01*
X216578520Y-102714247D01*
X216390482Y-102526209D01*
X216169372Y-102378468D01*
X215923687Y-102276702D01*
X215662870Y-102224822D01*
X215396944Y-102224822D01*
X215136127Y-102276702D01*
X214890442Y-102378468D01*
X214669332Y-102526209D01*
X214481294Y-102714247D01*
X214462825Y-102741887D01*
X213943430Y-102702563D01*
X214032953Y-102550264D01*
X214120397Y-102299125D01*
X214157165Y-102035753D01*
X214141846Y-101770268D01*
X214075027Y-101512872D01*
X214005307Y-101354983D01*
X213788032Y-101264345D01*
X212942770Y-101991385D01*
X212951130Y-102001104D01*
X212815888Y-102136346D01*
X213336127Y-102656585D01*
X213245206Y-102649701D01*
X212791143Y-102121804D01*
X212781424Y-102130164D01*
X212646182Y-101994922D01*
X212051003Y-102590101D01*
X212046913Y-102591011D01*
X211975938Y-102606564D01*
X211974815Y-102607055D01*
X211973619Y-102607321D01*
X211907212Y-102636604D01*
X211863945Y-102655515D01*
X212660724Y-101970177D01*
X211933684Y-101124916D01*
X211705299Y-101182044D01*
X211570541Y-101411298D01*
X211483097Y-101662437D01*
X211446329Y-101925809D01*
X211461648Y-102191294D01*
X211528467Y-102448690D01*
X211598187Y-102606579D01*
X211802793Y-102691932D01*
X211779155Y-102708512D01*
X211749713Y-102729020D01*
X211748780Y-102729816D01*
X211717490Y-102751763D01*
X211692762Y-102777635D01*
X210878584Y-103472638D01*
X210844733Y-103496838D01*
X210797287Y-103547381D01*
X210749287Y-103597278D01*
X210746793Y-103601172D01*
X210743620Y-103604552D01*
X210706931Y-103663407D01*
X210669604Y-103721684D01*
X210667917Y-103725992D01*
X210665466Y-103729923D01*
X210640991Y-103794732D01*
X210615721Y-103859244D01*
X210614905Y-103863804D01*
X210613271Y-103868132D01*
X210601909Y-103936474D01*
X210589712Y-104004673D01*
X210590518Y-104046271D01*
X210484191Y-105641162D01*
X209786009Y-106350000D01*
X209600532Y-106350000D01*
X209600000Y-106337500D01*
X209462500Y-106200000D01*
X208325000Y-106200000D01*
X208325000Y-106220000D01*
X208125000Y-106220000D01*
X208125000Y-106200000D01*
X206987500Y-106200000D01*
X206887500Y-106300000D01*
X205712500Y-106300000D01*
X205612500Y-106200000D01*
X204475000Y-106200000D01*
X204475000Y-106220000D01*
X204275000Y-106220000D01*
X204275000Y-106200000D01*
X203137500Y-106200000D01*
X203000000Y-106337500D01*
X202997339Y-106400000D01*
X202743946Y-106400000D01*
X202823581Y-105738000D01*
X203003445Y-105738000D01*
X202997339Y-105800000D01*
X203000000Y-105862500D01*
X203137500Y-106000000D01*
X204275000Y-106000000D01*
X204275000Y-105980000D01*
X204475000Y-105980000D01*
X204475000Y-106000000D01*
X205612500Y-106000000D01*
X205666744Y-105945756D01*
X205763638Y-106010498D01*
X205954726Y-106089650D01*
X206157584Y-106130000D01*
X206364416Y-106130000D01*
X206567274Y-106089650D01*
X206758362Y-106010498D01*
X206902013Y-105914513D01*
X206987500Y-106000000D01*
X208125000Y-106000000D01*
X208125000Y-105980000D01*
X208325000Y-105980000D01*
X208325000Y-106000000D01*
X209462500Y-106000000D01*
X209600000Y-105862500D01*
X209602661Y-105800000D01*
X209592042Y-105692181D01*
X209564079Y-105600000D01*
X209592042Y-105507819D01*
X209602661Y-105400000D01*
X209602661Y-104800000D01*
X209592042Y-104692181D01*
X209568076Y-104613178D01*
X209575378Y-104604281D01*
X210126287Y-104053373D01*
X210154895Y-104029895D01*
X210182821Y-103995868D01*
X210248619Y-103915693D01*
X210318261Y-103785401D01*
X210361147Y-103644026D01*
X210370742Y-103546606D01*
X210372000Y-103533835D01*
X210372000Y-103533828D01*
X210375627Y-103497000D01*
X210372000Y-103460172D01*
X210372000Y-102481370D01*
X211751903Y-101101468D01*
X211782422Y-101076422D01*
X211847943Y-100996584D01*
X211849656Y-100994496D01*
X212085311Y-100994496D01*
X212812351Y-101839758D01*
X213657612Y-101112718D01*
X213600484Y-100884333D01*
X213371230Y-100749575D01*
X213170423Y-100679656D01*
X214387598Y-100679656D01*
X214387598Y-100945582D01*
X214439478Y-101206399D01*
X214541244Y-101452084D01*
X214688985Y-101673194D01*
X214877023Y-101861232D01*
X215098133Y-102008973D01*
X215343818Y-102110739D01*
X215604635Y-102162619D01*
X215870561Y-102162619D01*
X216131378Y-102110739D01*
X216377063Y-102008973D01*
X216598173Y-101861232D01*
X216786211Y-101673194D01*
X216933952Y-101452084D01*
X217035718Y-101206399D01*
X217087598Y-100945582D01*
X217087598Y-100679656D01*
X217035718Y-100418839D01*
X216933952Y-100173154D01*
X216786211Y-99952044D01*
X216598173Y-99764006D01*
X216377063Y-99616265D01*
X216131378Y-99514499D01*
X215870561Y-99462619D01*
X215604635Y-99462619D01*
X215343818Y-99514499D01*
X215098133Y-99616265D01*
X214877023Y-99764006D01*
X214688985Y-99952044D01*
X214541244Y-100173154D01*
X214439478Y-100418839D01*
X214387598Y-100679656D01*
X213170423Y-100679656D01*
X213120091Y-100662131D01*
X212856719Y-100625363D01*
X212591234Y-100640682D01*
X212333838Y-100707501D01*
X212175949Y-100777221D01*
X212085311Y-100994496D01*
X211849656Y-100994496D01*
X211882393Y-100954607D01*
X211956679Y-100815628D01*
X211963734Y-100792372D01*
X212002424Y-100664827D01*
X212014000Y-100547293D01*
X212014000Y-100547291D01*
X212017870Y-100508000D01*
X212016194Y-100490987D01*
X212110269Y-100507448D01*
X212671385Y-100546970D01*
X212801373Y-100435163D01*
X213018245Y-100435163D01*
X213145048Y-100582585D01*
X213705765Y-100627414D01*
X213814077Y-100624909D01*
X213919818Y-100601321D01*
X214018927Y-100557558D01*
X214107592Y-100495300D01*
X214182409Y-100416941D01*
X214240500Y-100325491D01*
X214279635Y-100224466D01*
X214298308Y-100117747D01*
X214337830Y-99556631D01*
X214211027Y-99409208D01*
X213101659Y-99325794D01*
X213018245Y-100435163D01*
X212801373Y-100435163D01*
X212818808Y-100420167D01*
X212902222Y-99310799D01*
X212882278Y-99309299D01*
X212896033Y-99126357D01*
X213116654Y-99126357D01*
X214226023Y-99209771D01*
X214373445Y-99082968D01*
X214418274Y-98522251D01*
X214415769Y-98413939D01*
X214392181Y-98308198D01*
X214348418Y-98209089D01*
X214286160Y-98120424D01*
X214207801Y-98045607D01*
X214116351Y-97987516D01*
X214015326Y-97948381D01*
X213908607Y-97929708D01*
X213347491Y-97890186D01*
X213200068Y-98016989D01*
X213116654Y-99126357D01*
X212896033Y-99126357D01*
X212897274Y-99109862D01*
X212917217Y-99111362D01*
X213000631Y-98001993D01*
X212881938Y-97864000D01*
X216358868Y-97864000D01*
X218811000Y-100316132D01*
G37*
X218811000Y-100316132D02*
X218811000Y-110478868D01*
X215850868Y-113439000D01*
X210341154Y-113439000D01*
X201853227Y-111589067D01*
X202077518Y-110622131D01*
X202080830Y-110605866D01*
X202084137Y-110589908D01*
X202084534Y-110587674D01*
X202575744Y-107790297D01*
X202578187Y-107773775D01*
X202580611Y-107757763D01*
X202580881Y-107755550D01*
X202580887Y-107755511D01*
X202580890Y-107755474D01*
X202743946Y-106400000D01*
X202997339Y-106400000D01*
X203007958Y-106507819D01*
X203035921Y-106600000D01*
X203007958Y-106692181D01*
X202997339Y-106800000D01*
X202997339Y-107400000D01*
X203007958Y-107507819D01*
X203035921Y-107600000D01*
X203007958Y-107692181D01*
X202997339Y-107800000D01*
X202997339Y-108400000D01*
X203007958Y-108507819D01*
X203035921Y-108600000D01*
X203007958Y-108692181D01*
X202997339Y-108800000D01*
X202997339Y-109400000D01*
X203007958Y-109507819D01*
X203035921Y-109600000D01*
X203007958Y-109692181D01*
X202997339Y-109800000D01*
X202997339Y-110400000D01*
X203007958Y-110507819D01*
X203039408Y-110611494D01*
X203090479Y-110707042D01*
X203159210Y-110790790D01*
X203242958Y-110859521D01*
X203338506Y-110910592D01*
X203442181Y-110942042D01*
X203550000Y-110952661D01*
X205200000Y-110952661D01*
X205307819Y-110942042D01*
X205411494Y-110910592D01*
X205431310Y-110900000D01*
X205915075Y-110900000D01*
X205930664Y-110915589D01*
X206102638Y-111030498D01*
X206293726Y-111109650D01*
X206496584Y-111150000D01*
X206703416Y-111150000D01*
X206906274Y-111109650D01*
X207097362Y-111030498D01*
X207249241Y-110929016D01*
X207292181Y-110942042D01*
X207400000Y-110952661D01*
X208692002Y-110952661D01*
X210443630Y-112704291D01*
X210467105Y-112732895D01*
X210495708Y-112756369D01*
X210495715Y-112756376D01*
X210534659Y-112788336D01*
X210581307Y-112826619D01*
X210711599Y-112896261D01*
X210852974Y-112939147D01*
X210963165Y-112950000D01*
X210963182Y-112950000D01*
X210999999Y-112953626D01*
X211036816Y-112950000D01*
X215063173Y-112950000D01*
X215100000Y-112953627D01*
X215136827Y-112950000D01*
X215136835Y-112950000D01*
X215247026Y-112939147D01*
X215388401Y-112896261D01*
X215518693Y-112826619D01*
X215632895Y-112732895D01*
X215656379Y-112704280D01*
X217804286Y-110556374D01*
X217832895Y-110532895D01*
X217926619Y-110418693D01*
X217996261Y-110288401D01*
X218039147Y-110147026D01*
X218050000Y-110036835D01*
X218050000Y-110036828D01*
X218053627Y-110000000D01*
X218050000Y-109963173D01*
X218050000Y-107136827D01*
X218053627Y-107099999D01*
X218050000Y-107063172D01*
X218050000Y-107063165D01*
X218039147Y-106952974D01*
X217996261Y-106811599D01*
X217926619Y-106681307D01*
X217874529Y-106617835D01*
X217856376Y-106595716D01*
X217856374Y-106595714D01*
X217832895Y-106567105D01*
X217804287Y-106543627D01*
X217093402Y-105832743D01*
X217069919Y-105804129D01*
X216955717Y-105710405D01*
X216825425Y-105640763D01*
X216684050Y-105597877D01*
X216573859Y-105587024D01*
X216573851Y-105587024D01*
X216537024Y-105583397D01*
X216500197Y-105587024D01*
X216444713Y-105587024D01*
X216370829Y-105476449D01*
X216182791Y-105288411D01*
X215961681Y-105140670D01*
X215715996Y-105038904D01*
X215455179Y-104987024D01*
X215189253Y-104987024D01*
X214928436Y-105038904D01*
X214682751Y-105140670D01*
X214461641Y-105288411D01*
X214273603Y-105476449D01*
X214125862Y-105697559D01*
X214024096Y-105943244D01*
X213972216Y-106204061D01*
X213972216Y-106469987D01*
X214024096Y-106730804D01*
X214125862Y-106976489D01*
X214273603Y-107197599D01*
X214461641Y-107385637D01*
X214682751Y-107533378D01*
X214928436Y-107635144D01*
X215189253Y-107687024D01*
X215455179Y-107687024D01*
X215715996Y-107635144D01*
X215961681Y-107533378D01*
X216182791Y-107385637D01*
X216353884Y-107214544D01*
X216550000Y-107410660D01*
X216550001Y-109689339D01*
X214789341Y-111450000D01*
X212813211Y-111450000D01*
X212895110Y-111253674D01*
X212168070Y-110408412D01*
X211322809Y-111135452D01*
X211379937Y-111363837D01*
X211526520Y-111450000D01*
X211310661Y-111450000D01*
X209710659Y-109850000D01*
X210663173Y-109850000D01*
X210700000Y-109853627D01*
X210736827Y-109850000D01*
X210736835Y-109850000D01*
X210847026Y-109839147D01*
X210904343Y-109821760D01*
X210860024Y-109949045D01*
X210823256Y-110212417D01*
X210838575Y-110477902D01*
X210905394Y-110735298D01*
X210975114Y-110893187D01*
X211192389Y-110983825D01*
X212037651Y-110256785D01*
X212029291Y-110247066D01*
X212164533Y-110111824D01*
X211652114Y-109599405D01*
X211741619Y-109605914D01*
X212189278Y-110126366D01*
X212198997Y-110118006D01*
X212334239Y-110253248D01*
X212897511Y-109689976D01*
X212995081Y-109697072D01*
X212319697Y-110277993D01*
X213046737Y-111123254D01*
X213275122Y-111066126D01*
X213409880Y-110836872D01*
X213497324Y-110585733D01*
X213534092Y-110322361D01*
X213518773Y-110056876D01*
X213451954Y-109799480D01*
X213420391Y-109728002D01*
X213936088Y-109765506D01*
X214065912Y-109959802D01*
X214253950Y-110147840D01*
X214475060Y-110295581D01*
X214720745Y-110397347D01*
X214981562Y-110449227D01*
X215247488Y-110449227D01*
X215508305Y-110397347D01*
X215753990Y-110295581D01*
X215975100Y-110147840D01*
X216163138Y-109959802D01*
X216310879Y-109738692D01*
X216412645Y-109493007D01*
X216464525Y-109232190D01*
X216464525Y-108966264D01*
X216412645Y-108705447D01*
X216310879Y-108459762D01*
X216163138Y-108238652D01*
X215975100Y-108050614D01*
X215753990Y-107902873D01*
X215508305Y-107801107D01*
X215247488Y-107749227D01*
X214981562Y-107749227D01*
X214720745Y-107801107D01*
X214475060Y-107902873D01*
X214253950Y-108050614D01*
X214065912Y-108238652D01*
X214045308Y-108269489D01*
X213525284Y-108231670D01*
X213617571Y-108074669D01*
X213705015Y-107823530D01*
X213741783Y-107560158D01*
X213726464Y-107294673D01*
X213659645Y-107037277D01*
X213589925Y-106879388D01*
X213372650Y-106788750D01*
X212527388Y-107515790D01*
X212535748Y-107525509D01*
X212400506Y-107660751D01*
X212927987Y-108188232D01*
X212836235Y-108181559D01*
X212375761Y-107646209D01*
X212366042Y-107654569D01*
X212230800Y-107519327D01*
X211654508Y-108095619D01*
X211554987Y-108088381D01*
X212245342Y-107494582D01*
X212236982Y-107484863D01*
X212372224Y-107349621D01*
X211633988Y-106611385D01*
X211695640Y-106548793D01*
X212396969Y-107364163D01*
X213242230Y-106637123D01*
X213185102Y-106408738D01*
X212955848Y-106273980D01*
X212704709Y-106186536D01*
X212441337Y-106149768D01*
X212175852Y-106165087D01*
X211918456Y-106231906D01*
X211918380Y-106231940D01*
X211925461Y-106207945D01*
X211941729Y-106164867D01*
X211946317Y-106137269D01*
X211954239Y-106110425D01*
X211958406Y-106064557D01*
X211959888Y-106055642D01*
X211961742Y-106027836D01*
X211967605Y-105963294D01*
X211966647Y-105954264D01*
X211967553Y-105940672D01*
X212024573Y-105974189D01*
X212275712Y-106061633D01*
X212539084Y-106098401D01*
X212804569Y-106083082D01*
X213061965Y-106016263D01*
X213219854Y-105946543D01*
X213310492Y-105729268D01*
X212583452Y-104884006D01*
X212573733Y-104892366D01*
X212438491Y-104757124D01*
X212018454Y-105177161D01*
X212023474Y-105101858D01*
X212453033Y-104732379D01*
X212444673Y-104722660D01*
X212579915Y-104587418D01*
X212258980Y-104266483D01*
X212291919Y-104238365D01*
X212604660Y-104601960D01*
X212614379Y-104593600D01*
X212749621Y-104728842D01*
X213318892Y-104159571D01*
X213417047Y-104167002D01*
X212735079Y-104753587D01*
X213462119Y-105598848D01*
X213690504Y-105541720D01*
X213825262Y-105312466D01*
X213912706Y-105061327D01*
X213949474Y-104797955D01*
X213934155Y-104532470D01*
X213867336Y-104275074D01*
X213833538Y-104198535D01*
X214349110Y-104237569D01*
X214481294Y-104435397D01*
X214669332Y-104623435D01*
X214890442Y-104771176D01*
X215136127Y-104872942D01*
X215396944Y-104924822D01*
X215662870Y-104924822D01*
X215923687Y-104872942D01*
X216169372Y-104771176D01*
X216390482Y-104623435D01*
X216578520Y-104435397D01*
X216726261Y-104214287D01*
X216828027Y-103968602D01*
X216879907Y-103707785D01*
X216879907Y-103441859D01*
X216828027Y-103181042D01*
X216726261Y-102935357D01*
X216578520Y-102714247D01*
X216390482Y-102526209D01*
X216169372Y-102378468D01*
X215923687Y-102276702D01*
X215662870Y-102224822D01*
X215396944Y-102224822D01*
X215136127Y-102276702D01*
X214890442Y-102378468D01*
X214669332Y-102526209D01*
X214481294Y-102714247D01*
X214462825Y-102741887D01*
X213943430Y-102702563D01*
X214032953Y-102550264D01*
X214120397Y-102299125D01*
X214157165Y-102035753D01*
X214141846Y-101770268D01*
X214075027Y-101512872D01*
X214005307Y-101354983D01*
X213788032Y-101264345D01*
X212942770Y-101991385D01*
X212951130Y-102001104D01*
X212815888Y-102136346D01*
X213336127Y-102656585D01*
X213245206Y-102649701D01*
X212791143Y-102121804D01*
X212781424Y-102130164D01*
X212646182Y-101994922D01*
X212051003Y-102590101D01*
X212046913Y-102591011D01*
X211975938Y-102606564D01*
X211974815Y-102607055D01*
X211973619Y-102607321D01*
X211907212Y-102636604D01*
X211863945Y-102655515D01*
X212660724Y-101970177D01*
X211933684Y-101124916D01*
X211705299Y-101182044D01*
X211570541Y-101411298D01*
X211483097Y-101662437D01*
X211446329Y-101925809D01*
X211461648Y-102191294D01*
X211528467Y-102448690D01*
X211598187Y-102606579D01*
X211802793Y-102691932D01*
X211779155Y-102708512D01*
X211749713Y-102729020D01*
X211748780Y-102729816D01*
X211717490Y-102751763D01*
X211692762Y-102777635D01*
X210878584Y-103472638D01*
X210844733Y-103496838D01*
X210797287Y-103547381D01*
X210749287Y-103597278D01*
X210746793Y-103601172D01*
X210743620Y-103604552D01*
X210706931Y-103663407D01*
X210669604Y-103721684D01*
X210667917Y-103725992D01*
X210665466Y-103729923D01*
X210640991Y-103794732D01*
X210615721Y-103859244D01*
X210614905Y-103863804D01*
X210613271Y-103868132D01*
X210601909Y-103936474D01*
X210589712Y-104004673D01*
X210590518Y-104046271D01*
X210484191Y-105641162D01*
X209786009Y-106350000D01*
X209600532Y-106350000D01*
X209600000Y-106337500D01*
X209462500Y-106200000D01*
X208325000Y-106200000D01*
X208325000Y-106220000D01*
X208125000Y-106220000D01*
X208125000Y-106200000D01*
X206987500Y-106200000D01*
X206887500Y-106300000D01*
X205712500Y-106300000D01*
X205612500Y-106200000D01*
X204475000Y-106200000D01*
X204475000Y-106220000D01*
X204275000Y-106220000D01*
X204275000Y-106200000D01*
X203137500Y-106200000D01*
X203000000Y-106337500D01*
X202997339Y-106400000D01*
X202743946Y-106400000D01*
X202823581Y-105738000D01*
X203003445Y-105738000D01*
X202997339Y-105800000D01*
X203000000Y-105862500D01*
X203137500Y-106000000D01*
X204275000Y-106000000D01*
X204275000Y-105980000D01*
X204475000Y-105980000D01*
X204475000Y-106000000D01*
X205612500Y-106000000D01*
X205666744Y-105945756D01*
X205763638Y-106010498D01*
X205954726Y-106089650D01*
X206157584Y-106130000D01*
X206364416Y-106130000D01*
X206567274Y-106089650D01*
X206758362Y-106010498D01*
X206902013Y-105914513D01*
X206987500Y-106000000D01*
X208125000Y-106000000D01*
X208125000Y-105980000D01*
X208325000Y-105980000D01*
X208325000Y-106000000D01*
X209462500Y-106000000D01*
X209600000Y-105862500D01*
X209602661Y-105800000D01*
X209592042Y-105692181D01*
X209564079Y-105600000D01*
X209592042Y-105507819D01*
X209602661Y-105400000D01*
X209602661Y-104800000D01*
X209592042Y-104692181D01*
X209568076Y-104613178D01*
X209575378Y-104604281D01*
X210126287Y-104053373D01*
X210154895Y-104029895D01*
X210182821Y-103995868D01*
X210248619Y-103915693D01*
X210318261Y-103785401D01*
X210361147Y-103644026D01*
X210370742Y-103546606D01*
X210372000Y-103533835D01*
X210372000Y-103533828D01*
X210375627Y-103497000D01*
X210372000Y-103460172D01*
X210372000Y-102481370D01*
X211751903Y-101101468D01*
X211782422Y-101076422D01*
X211847943Y-100996584D01*
X211849656Y-100994496D01*
X212085311Y-100994496D01*
X212812351Y-101839758D01*
X213657612Y-101112718D01*
X213600484Y-100884333D01*
X213371230Y-100749575D01*
X213170423Y-100679656D01*
X214387598Y-100679656D01*
X214387598Y-100945582D01*
X214439478Y-101206399D01*
X214541244Y-101452084D01*
X214688985Y-101673194D01*
X214877023Y-101861232D01*
X215098133Y-102008973D01*
X215343818Y-102110739D01*
X215604635Y-102162619D01*
X215870561Y-102162619D01*
X216131378Y-102110739D01*
X216377063Y-102008973D01*
X216598173Y-101861232D01*
X216786211Y-101673194D01*
X216933952Y-101452084D01*
X217035718Y-101206399D01*
X217087598Y-100945582D01*
X217087598Y-100679656D01*
X217035718Y-100418839D01*
X216933952Y-100173154D01*
X216786211Y-99952044D01*
X216598173Y-99764006D01*
X216377063Y-99616265D01*
X216131378Y-99514499D01*
X215870561Y-99462619D01*
X215604635Y-99462619D01*
X215343818Y-99514499D01*
X215098133Y-99616265D01*
X214877023Y-99764006D01*
X214688985Y-99952044D01*
X214541244Y-100173154D01*
X214439478Y-100418839D01*
X214387598Y-100679656D01*
X213170423Y-100679656D01*
X213120091Y-100662131D01*
X212856719Y-100625363D01*
X212591234Y-100640682D01*
X212333838Y-100707501D01*
X212175949Y-100777221D01*
X212085311Y-100994496D01*
X211849656Y-100994496D01*
X211882393Y-100954607D01*
X211956679Y-100815628D01*
X211963734Y-100792372D01*
X212002424Y-100664827D01*
X212014000Y-100547293D01*
X212014000Y-100547291D01*
X212017870Y-100508000D01*
X212016194Y-100490987D01*
X212110269Y-100507448D01*
X212671385Y-100546970D01*
X212801373Y-100435163D01*
X213018245Y-100435163D01*
X213145048Y-100582585D01*
X213705765Y-100627414D01*
X213814077Y-100624909D01*
X213919818Y-100601321D01*
X214018927Y-100557558D01*
X214107592Y-100495300D01*
X214182409Y-100416941D01*
X214240500Y-100325491D01*
X214279635Y-100224466D01*
X214298308Y-100117747D01*
X214337830Y-99556631D01*
X214211027Y-99409208D01*
X213101659Y-99325794D01*
X213018245Y-100435163D01*
X212801373Y-100435163D01*
X212818808Y-100420167D01*
X212902222Y-99310799D01*
X212882278Y-99309299D01*
X212896033Y-99126357D01*
X213116654Y-99126357D01*
X214226023Y-99209771D01*
X214373445Y-99082968D01*
X214418274Y-98522251D01*
X214415769Y-98413939D01*
X214392181Y-98308198D01*
X214348418Y-98209089D01*
X214286160Y-98120424D01*
X214207801Y-98045607D01*
X214116351Y-97987516D01*
X214015326Y-97948381D01*
X213908607Y-97929708D01*
X213347491Y-97890186D01*
X213200068Y-98016989D01*
X213116654Y-99126357D01*
X212896033Y-99126357D01*
X212897274Y-99109862D01*
X212917217Y-99111362D01*
X213000631Y-98001993D01*
X212881938Y-97864000D01*
X216358868Y-97864000D01*
X218811000Y-100316132D01*
%TD*%
M02*
