%TF.GenerationSoftware,KiCad,Pcbnew,5.1.6*%
%TF.CreationDate,2020-07-16T12:24:58+02:00*%
%TF.ProjectId,Base-Interconnect,42617365-2d49-46e7-9465-72636f6e6e65,rev?*%
%TF.SameCoordinates,Original*%
%TF.FileFunction,Legend,Top*%
%TF.FilePolarity,Positive*%
%FSLAX46Y46*%
G04 Gerber Fmt 4.6, Leading zero omitted, Abs format (unit mm)*
G04 Created by KiCad (PCBNEW 5.1.6) date 2020-07-16 12:24:58*
%MOMM*%
%LPD*%
G01*
G04 APERTURE LIST*
%ADD10C,0.200000*%
%ADD11C,0.010000*%
%ADD12C,0.150000*%
%ADD13C,0.120000*%
G04 APERTURE END LIST*
D10*
X196358884Y-66015483D02*
X196409392Y-66167006D01*
X196611422Y-66369037D01*
X196762945Y-66419544D01*
X196964976Y-66419544D01*
X197116499Y-66369037D01*
X197318529Y-66167006D01*
X197369037Y-66015483D01*
X197369037Y-65813453D01*
X197318529Y-65661930D01*
X197116499Y-65459900D01*
X196964976Y-65409392D01*
X196156854Y-66621575D02*
X196459900Y-66823605D01*
X196863961Y-66924621D01*
X197268022Y-66823605D01*
X197571067Y-66621575D01*
X197773098Y-66318529D01*
X197874113Y-65914468D01*
X197773098Y-65510407D01*
X197571067Y-65207361D01*
X197268022Y-65005331D01*
X196863961Y-64904316D01*
X196459900Y-65005331D01*
X196156854Y-65207361D01*
X195954823Y-65510407D01*
X195853808Y-65914468D01*
X195954823Y-66318529D01*
X196156854Y-66621575D01*
X196207361Y-64247716D02*
X195500255Y-64954823D01*
X195601270Y-64853808D02*
X195500255Y-64853808D01*
X195348732Y-64803300D01*
X195197209Y-64651777D01*
X195146701Y-64500255D01*
X195197209Y-64348732D01*
X195752793Y-63793148D01*
X195197209Y-64348732D02*
X195045686Y-64399239D01*
X194894163Y-64348732D01*
X194742640Y-64197209D01*
X194692133Y-64045686D01*
X194742640Y-63894163D01*
X195298224Y-63338579D01*
X194793148Y-62833503D02*
X194086041Y-63540610D01*
X194288072Y-63338579D02*
X194136549Y-63389087D01*
X194035533Y-63389087D01*
X193884011Y-63338579D01*
X193782995Y-63237564D01*
X194136549Y-62176904D02*
X193075888Y-63237564D01*
X193631472Y-62479950D02*
X193732488Y-61772843D01*
X193025381Y-62479950D02*
X193833503Y-62479950D01*
X192823350Y-60964721D02*
X192974873Y-61015228D01*
X193176904Y-61217259D01*
X193227411Y-61368782D01*
X193176904Y-61520305D01*
X192772843Y-61924366D01*
X192621320Y-61974873D01*
X192469797Y-61924366D01*
X192267766Y-61722335D01*
X192217259Y-61570812D01*
X192267766Y-61419289D01*
X192368782Y-61318274D01*
X192974873Y-61722335D01*
X191661675Y-61116244D02*
X192368782Y-60409137D01*
X191762690Y-61015228D02*
X191661675Y-61015228D01*
X191510152Y-60964721D01*
X191358629Y-60813198D01*
X191308122Y-60661675D01*
X191358629Y-60510152D01*
X191914213Y-59954568D01*
X191409137Y-59449492D02*
X190348477Y-60510152D01*
X190954568Y-58994923D02*
X190398984Y-59550507D01*
X190348477Y-59702030D01*
X190398984Y-59853553D01*
X190550507Y-60005076D01*
X190702030Y-60055583D01*
X190803045Y-60055583D01*
X190297969Y-58338324D02*
X190348477Y-58489847D01*
X190348477Y-58590862D01*
X190297969Y-58742385D01*
X189994923Y-59045431D01*
X189843400Y-59095938D01*
X189742385Y-59095938D01*
X189590862Y-59045431D01*
X189439339Y-58893908D01*
X189388832Y-58742385D01*
X189388832Y-58641370D01*
X189439339Y-58489847D01*
X189742385Y-58186801D01*
X189893908Y-58136294D01*
X189994923Y-58136294D01*
X190146446Y-58186801D01*
X190297969Y-58338324D01*
X188934263Y-58388832D02*
X188530202Y-57984771D01*
X189489847Y-57530202D02*
X188580710Y-58439339D01*
X188429187Y-58489847D01*
X188277664Y-58439339D01*
X188176649Y-58338324D01*
X188328172Y-57782740D02*
X187924111Y-57378679D01*
X188883755Y-56924111D02*
X187974618Y-57833248D01*
X187823095Y-57883755D01*
X187671572Y-57833248D01*
X187570557Y-57732233D01*
X186560405Y-56520049D02*
X186459389Y-56520049D01*
X186307866Y-56469542D01*
X186055328Y-56217004D01*
X186004821Y-56065481D01*
X186004821Y-55964466D01*
X186055328Y-55812943D01*
X186156344Y-55711927D01*
X186358374Y-55610912D01*
X187570557Y-55610912D01*
X186913958Y-54954313D01*
X185196699Y-55358374D02*
X185095683Y-55257359D01*
X185045176Y-55105836D01*
X185045176Y-55004821D01*
X185095683Y-54853298D01*
X185247206Y-54600760D01*
X185499744Y-54348222D01*
X185752283Y-54196699D01*
X185903805Y-54146191D01*
X186004821Y-54146191D01*
X186156344Y-54196699D01*
X186257359Y-54297714D01*
X186307866Y-54449237D01*
X186307866Y-54550252D01*
X186257359Y-54701775D01*
X186105836Y-54954313D01*
X185853298Y-55206851D01*
X185600760Y-55358374D01*
X185449237Y-55408882D01*
X185348222Y-55408882D01*
X185196699Y-55358374D01*
X184540099Y-54499744D02*
X184439084Y-54499744D01*
X184287561Y-54449237D01*
X184035023Y-54196699D01*
X183984516Y-54045176D01*
X183984516Y-53944161D01*
X184035023Y-53792638D01*
X184136038Y-53691622D01*
X184338069Y-53590607D01*
X185550252Y-53590607D01*
X184893653Y-52934008D01*
X183176394Y-53338069D02*
X183075378Y-53237054D01*
X183024871Y-53085531D01*
X183024871Y-52984516D01*
X183075378Y-52832993D01*
X183226901Y-52580455D01*
X183479439Y-52327916D01*
X183731977Y-52176394D01*
X183883500Y-52125886D01*
X183984516Y-52125886D01*
X184136038Y-52176394D01*
X184237054Y-52277409D01*
X184287561Y-52428932D01*
X184287561Y-52529947D01*
X184237054Y-52681470D01*
X184085531Y-52934008D01*
X183832993Y-53186546D01*
X183580455Y-53338069D01*
X183428932Y-53388577D01*
X183327916Y-53388577D01*
X183176394Y-53338069D01*
X199232870Y-71374241D02*
X199131855Y-71172210D01*
X198879317Y-70919672D01*
X198727794Y-70869164D01*
X198626779Y-70869164D01*
X198475256Y-70919672D01*
X198374241Y-71020687D01*
X198323733Y-71172210D01*
X198323733Y-71273225D01*
X198374241Y-71424748D01*
X198525764Y-71677286D01*
X198576271Y-71828809D01*
X198576271Y-71929825D01*
X198525764Y-72081347D01*
X198424748Y-72182363D01*
X198273225Y-72232870D01*
X198172210Y-72232870D01*
X198020687Y-72182363D01*
X197768149Y-71929825D01*
X197667134Y-71727794D01*
X197313580Y-71475256D02*
X196707489Y-70869164D01*
X198071195Y-70111550D02*
X197010535Y-71172210D01*
X197414596Y-69454951D02*
X196353936Y-70515611D01*
X196757997Y-69404443D01*
X195646829Y-69808504D01*
X196707489Y-68747844D01*
X194485153Y-67636676D02*
X194384138Y-67434646D01*
X194384138Y-67333630D01*
X194434646Y-67182108D01*
X194586169Y-67030585D01*
X194737691Y-66980077D01*
X194838707Y-66980077D01*
X194990230Y-67030585D01*
X195394291Y-67434646D01*
X194333630Y-68495306D01*
X193980077Y-68141752D01*
X193929569Y-67990230D01*
X193929569Y-67889214D01*
X193980077Y-67737691D01*
X194081092Y-67636676D01*
X194232615Y-67586169D01*
X194333630Y-67586169D01*
X194485153Y-67636676D01*
X194838707Y-67990230D01*
X193879062Y-65919417D02*
X193323478Y-66475001D01*
X193272970Y-66626524D01*
X193323478Y-66778047D01*
X193525508Y-66980077D01*
X193677031Y-67030585D01*
X193828554Y-65969925D02*
X193980077Y-66020432D01*
X194232615Y-66272970D01*
X194283123Y-66424493D01*
X194232615Y-66576016D01*
X194131600Y-66677031D01*
X193980077Y-66727539D01*
X193828554Y-66677031D01*
X193576016Y-66424493D01*
X193424493Y-66373986D01*
X193373986Y-65515356D02*
X193323478Y-65363833D01*
X193121447Y-65161802D01*
X192969925Y-65111295D01*
X192818402Y-65161802D01*
X192767894Y-65212310D01*
X192717386Y-65363833D01*
X192767894Y-65515356D01*
X192919417Y-65666879D01*
X192969925Y-65818402D01*
X192919417Y-65969925D01*
X192868909Y-66020432D01*
X192717386Y-66070940D01*
X192565863Y-66020432D01*
X192414341Y-65868909D01*
X192363833Y-65717386D01*
X192060787Y-64202158D02*
X192212310Y-64252665D01*
X192414341Y-64454696D01*
X192464848Y-64606219D01*
X192414341Y-64757741D01*
X192010280Y-65161802D01*
X191858757Y-65212310D01*
X191707234Y-65161802D01*
X191505203Y-64959772D01*
X191454696Y-64808249D01*
X191505203Y-64656726D01*
X191606219Y-64555711D01*
X192212310Y-64959772D01*
X190798097Y-62838452D02*
X189737436Y-63899112D01*
X189585913Y-63040482D02*
X190293020Y-62333375D01*
X189686929Y-62939467D02*
X189585913Y-62939467D01*
X189434391Y-62888959D01*
X189282868Y-62737436D01*
X189232360Y-62585913D01*
X189282868Y-62434391D01*
X189838452Y-61878807D01*
X188777791Y-62232360D02*
X188373730Y-61828299D01*
X188272715Y-62434391D02*
X189181852Y-61525253D01*
X189232360Y-61373730D01*
X189181852Y-61222208D01*
X189080837Y-61121192D01*
X188272715Y-60414086D02*
X188424238Y-60464593D01*
X188626269Y-60666624D01*
X188676776Y-60818147D01*
X188626269Y-60969669D01*
X188222208Y-61373730D01*
X188070685Y-61424238D01*
X187919162Y-61373730D01*
X187717131Y-61171700D01*
X187666624Y-61020177D01*
X187717131Y-60868654D01*
X187818147Y-60767639D01*
X188424238Y-61171700D01*
X187818147Y-59858502D02*
X187111040Y-60565608D01*
X187313070Y-60363578D02*
X187161547Y-60414086D01*
X187060532Y-60414086D01*
X186909009Y-60363578D01*
X186807994Y-60262563D01*
X186656471Y-58797841D02*
X186807994Y-58848349D01*
X187010024Y-59050380D01*
X187060532Y-59201902D01*
X187060532Y-59302918D01*
X187010024Y-59454441D01*
X186706979Y-59757486D01*
X186555456Y-59807994D01*
X186454441Y-59807994D01*
X186302918Y-59757486D01*
X186100887Y-59555456D01*
X186050380Y-59403933D01*
X186100887Y-58141242D02*
X186151395Y-58292765D01*
X186151395Y-58393780D01*
X186100887Y-58545303D01*
X185797841Y-58848349D01*
X185646319Y-58898857D01*
X185545303Y-58898857D01*
X185393780Y-58848349D01*
X185242258Y-58696826D01*
X185191750Y-58545303D01*
X185191750Y-58444288D01*
X185242258Y-58292765D01*
X185545303Y-57989719D01*
X185696826Y-57939212D01*
X185797841Y-57939212D01*
X185949364Y-57989719D01*
X186100887Y-58141242D01*
X184585658Y-58040227D02*
X185292765Y-57333120D01*
X184686674Y-57939212D02*
X184585658Y-57939212D01*
X184434136Y-57888704D01*
X184282613Y-57737181D01*
X184232105Y-57585658D01*
X184282613Y-57434136D01*
X184838197Y-56878552D01*
X183626013Y-57080582D02*
X184333120Y-56373475D01*
X183727029Y-56979567D02*
X183626013Y-56979567D01*
X183474491Y-56929059D01*
X183322968Y-56777536D01*
X183272460Y-56626013D01*
X183322968Y-56474491D01*
X183878552Y-55918907D01*
X182918907Y-55060277D02*
X183070430Y-55110785D01*
X183272460Y-55312815D01*
X183322968Y-55464338D01*
X183272460Y-55615861D01*
X182868399Y-56019922D01*
X182716876Y-56070430D01*
X182565353Y-56019922D01*
X182363323Y-55817891D01*
X182312815Y-55666369D01*
X182363323Y-55514846D01*
X182464338Y-55413830D01*
X183070430Y-55817891D01*
X181959262Y-54100632D02*
X182110785Y-54151140D01*
X182312815Y-54353170D01*
X182363323Y-54504693D01*
X182363323Y-54605708D01*
X182312815Y-54757231D01*
X182009769Y-55060277D01*
X181858247Y-55110785D01*
X181757231Y-55110785D01*
X181605708Y-55060277D01*
X181403678Y-54858247D01*
X181353170Y-54706724D01*
X180999617Y-54454186D02*
X180595556Y-54050124D01*
X180494541Y-54656216D02*
X181403678Y-53747079D01*
X181454186Y-53595556D01*
X181403678Y-53444033D01*
X181302663Y-53343018D01*
X179231850Y-53393525D02*
X179938957Y-51979312D01*
X178524743Y-52686419D01*
X178676266Y-50716621D02*
X179282358Y-51322713D01*
X178979312Y-51019667D02*
X177918652Y-52080327D01*
X178171190Y-52029819D01*
X178373220Y-52029819D01*
X178524743Y-52080327D01*
D11*
%TO.C,REF\u002A\u002A*%
G36*
X172817244Y-50396716D02*
G01*
X173072370Y-50023049D01*
X172943828Y-49714197D01*
X172815284Y-49405344D01*
X172374513Y-49321386D01*
X172251362Y-49297584D01*
X172140591Y-49275518D01*
X172047324Y-49256263D01*
X171976685Y-49240892D01*
X171933798Y-49230481D01*
X171923040Y-49226725D01*
X171918970Y-49204647D01*
X171915927Y-49151814D01*
X171913861Y-49074540D01*
X171912723Y-48979137D01*
X171912466Y-48871915D01*
X171913040Y-48759185D01*
X171914397Y-48647260D01*
X171916489Y-48542452D01*
X171919267Y-48451070D01*
X171922682Y-48379428D01*
X171926686Y-48333837D01*
X171930012Y-48320567D01*
X171952467Y-48312421D01*
X172006041Y-48298959D01*
X172085351Y-48281352D01*
X172185006Y-48260767D01*
X172299621Y-48238376D01*
X172365413Y-48226023D01*
X172485461Y-48203380D01*
X172593121Y-48182274D01*
X172683088Y-48163812D01*
X172750057Y-48149099D01*
X172788725Y-48139238D01*
X172795988Y-48136304D01*
X172805573Y-48116906D01*
X172825973Y-48069756D01*
X172854458Y-48001623D01*
X172888295Y-47919272D01*
X172924755Y-47829470D01*
X172961108Y-47738985D01*
X172994623Y-47654582D01*
X173022567Y-47583029D01*
X173042213Y-47531092D01*
X173050828Y-47505538D01*
X173051000Y-47504366D01*
X173040964Y-47487805D01*
X173012825Y-47445110D01*
X172969539Y-47380669D01*
X172914060Y-47298867D01*
X172849346Y-47204089D01*
X172811488Y-47148893D01*
X172742499Y-47047458D01*
X172680971Y-46955053D01*
X172629952Y-46876418D01*
X172592490Y-46816292D01*
X172571636Y-46779414D01*
X172568375Y-46771069D01*
X172579897Y-46748180D01*
X172614169Y-46704737D01*
X172666645Y-46645279D01*
X172732777Y-46574348D01*
X172808018Y-46496485D01*
X172887820Y-46416230D01*
X172967639Y-46338123D01*
X173042925Y-46266708D01*
X173109133Y-46206524D01*
X173161714Y-46162111D01*
X173196121Y-46138011D01*
X173205303Y-46135012D01*
X173231080Y-46146190D01*
X173280669Y-46174907D01*
X173347665Y-46217210D01*
X173425662Y-46269147D01*
X173452555Y-46287610D01*
X173581927Y-46376924D01*
X173684429Y-46447167D01*
X173763558Y-46500552D01*
X173822808Y-46539292D01*
X173865674Y-46565599D01*
X173895653Y-46581686D01*
X173916237Y-46589767D01*
X173930924Y-46592054D01*
X173933336Y-46592016D01*
X173964928Y-46584131D01*
X174021421Y-46563799D01*
X174096310Y-46533919D01*
X174183083Y-46497390D01*
X174275233Y-46457109D01*
X174366249Y-46415975D01*
X174449624Y-46376886D01*
X174518847Y-46342740D01*
X174567409Y-46316436D01*
X174588803Y-46300872D01*
X174589206Y-46299982D01*
X174594435Y-46275004D01*
X174605266Y-46219369D01*
X174620592Y-46138892D01*
X174639308Y-46039386D01*
X174660312Y-45926663D01*
X174666253Y-45894601D01*
X174688573Y-45779147D01*
X174710449Y-45675316D01*
X174730503Y-45588952D01*
X174747360Y-45525895D01*
X174759641Y-45491986D01*
X174761954Y-45488625D01*
X174785953Y-45482797D01*
X174840601Y-45478359D01*
X174919497Y-45475258D01*
X175016238Y-45473442D01*
X175124421Y-45472858D01*
X175237644Y-45473456D01*
X175349504Y-45475180D01*
X175453600Y-45477982D01*
X175543528Y-45481808D01*
X175612886Y-45486606D01*
X175655272Y-45492323D01*
X175664919Y-45495983D01*
X175673356Y-45518521D01*
X175686049Y-45569245D01*
X175701036Y-45639788D01*
X175711581Y-45695049D01*
X175730175Y-45795694D01*
X175752473Y-45914603D01*
X175775064Y-46033650D01*
X175787327Y-46097537D01*
X175829032Y-46313580D01*
X175995705Y-46363269D01*
X176070614Y-46386929D01*
X176132440Y-46408920D01*
X176172157Y-46425918D01*
X176180955Y-46431556D01*
X176177964Y-46451905D01*
X176162108Y-46502007D01*
X176135151Y-46577543D01*
X176098857Y-46674189D01*
X176054989Y-46787627D01*
X176005311Y-46913536D01*
X175951588Y-47047596D01*
X175895583Y-47185487D01*
X175839059Y-47322888D01*
X175783781Y-47455479D01*
X175731512Y-47578940D01*
X175684016Y-47688950D01*
X175643057Y-47781190D01*
X175610399Y-47851338D01*
X175587806Y-47895076D01*
X175578116Y-47908166D01*
X175550111Y-47909219D01*
X175497023Y-47903299D01*
X175429918Y-47891675D01*
X175424420Y-47890566D01*
X175241236Y-47870265D01*
X175064184Y-47883241D01*
X174897013Y-47927168D01*
X174743472Y-47999718D01*
X174607309Y-48098564D01*
X174492274Y-48221379D01*
X174402116Y-48365835D01*
X174340585Y-48529606D01*
X174330979Y-48569292D01*
X174309681Y-48747045D01*
X174322176Y-48919379D01*
X174365682Y-49082684D01*
X174437416Y-49233344D01*
X174534594Y-49367744D01*
X174654435Y-49482273D01*
X174794153Y-49573314D01*
X174950968Y-49637253D01*
X175122095Y-49670477D01*
X175181687Y-49674098D01*
X175349729Y-49666933D01*
X175500565Y-49633326D01*
X175644145Y-49570161D01*
X175768909Y-49490184D01*
X175889534Y-49380615D01*
X175986769Y-49246513D01*
X176058576Y-49093661D01*
X176102918Y-48927840D01*
X176117758Y-48754831D01*
X176101059Y-48580418D01*
X176096813Y-48559547D01*
X176084248Y-48492539D01*
X176077588Y-48438709D01*
X176078188Y-48409190D01*
X176078454Y-48408504D01*
X176097848Y-48395318D01*
X176147126Y-48370652D01*
X176221967Y-48336269D01*
X176318049Y-48293931D01*
X176431055Y-48245400D01*
X176556664Y-48192441D01*
X176690554Y-48136814D01*
X176828408Y-48080283D01*
X176965903Y-48024611D01*
X177098721Y-47971559D01*
X177222541Y-47922890D01*
X177333042Y-47880368D01*
X177425905Y-47845754D01*
X177496810Y-47820812D01*
X177541436Y-47807304D01*
X177555335Y-47805936D01*
X177568536Y-47831026D01*
X177588417Y-47882793D01*
X177611649Y-47952212D01*
X177623621Y-47991186D01*
X177673311Y-48157858D01*
X177889354Y-48199564D01*
X177999797Y-48220695D01*
X178120966Y-48243578D01*
X178234733Y-48264802D01*
X178291842Y-48275310D01*
X178371321Y-48290929D01*
X178436888Y-48305889D01*
X178480085Y-48318143D01*
X178492361Y-48323877D01*
X178496644Y-48345807D01*
X178501022Y-48399446D01*
X178505237Y-48479426D01*
X178509035Y-48580374D01*
X178512161Y-48696923D01*
X178513593Y-48771180D01*
X178514749Y-48902443D01*
X178513783Y-49017849D01*
X178510871Y-49112594D01*
X178506190Y-49181878D01*
X178499915Y-49220897D01*
X178496889Y-49227063D01*
X178472119Y-49237256D01*
X178416630Y-49252461D01*
X178336235Y-49271335D01*
X178236747Y-49292531D01*
X178123981Y-49314708D01*
X178092289Y-49320637D01*
X177976986Y-49342070D01*
X177873325Y-49361516D01*
X177787117Y-49377870D01*
X177724177Y-49390027D01*
X177690318Y-49396883D01*
X177686908Y-49397684D01*
X177672635Y-49415859D01*
X177647319Y-49461884D01*
X177613858Y-49529250D01*
X177575151Y-49611449D01*
X177534095Y-49701971D01*
X177493589Y-49794306D01*
X177456531Y-49881947D01*
X177425820Y-49958384D01*
X177404353Y-50017107D01*
X177395031Y-50051608D01*
X177394875Y-50053554D01*
X177396311Y-50067514D01*
X177403120Y-50086709D01*
X177417515Y-50114633D01*
X177441710Y-50154781D01*
X177477916Y-50210649D01*
X177528348Y-50285731D01*
X177595217Y-50383522D01*
X177680736Y-50507517D01*
X177699280Y-50534335D01*
X177753516Y-50614545D01*
X177799415Y-50685856D01*
X177833023Y-50741859D01*
X177850388Y-50776152D01*
X177851879Y-50781588D01*
X177840094Y-50804788D01*
X177805642Y-50848516D01*
X177753065Y-50908229D01*
X177686903Y-50979378D01*
X177611698Y-51057414D01*
X177531991Y-51137793D01*
X177452321Y-51215966D01*
X177377230Y-51287386D01*
X177311259Y-51347508D01*
X177258948Y-51391782D01*
X177224839Y-51415664D01*
X177215822Y-51418515D01*
X177192672Y-51407338D01*
X177143849Y-51377994D01*
X177074094Y-51333532D01*
X176988144Y-51277000D01*
X176890737Y-51211448D01*
X176837997Y-51175403D01*
X176738025Y-51106921D01*
X176648651Y-51046074D01*
X176574262Y-50995817D01*
X176519244Y-50959108D01*
X176487985Y-50938900D01*
X176482524Y-50935890D01*
X176461555Y-50942543D01*
X176413156Y-50960679D01*
X176344098Y-50987561D01*
X176261150Y-51020454D01*
X176171082Y-51056623D01*
X176080663Y-51093332D01*
X175996663Y-51127843D01*
X175925852Y-51157425D01*
X175875000Y-51179338D01*
X175850876Y-51190847D01*
X175849980Y-51191508D01*
X175843075Y-51212714D01*
X175830776Y-51265103D01*
X175814191Y-51343356D01*
X175794427Y-51442150D01*
X175772594Y-51556163D01*
X175760372Y-51621972D01*
X175737658Y-51742333D01*
X175716073Y-51850644D01*
X175696788Y-51941507D01*
X175680972Y-52009519D01*
X175669795Y-52049278D01*
X175666150Y-52057052D01*
X175643988Y-52061468D01*
X175591085Y-52065312D01*
X175513753Y-52068539D01*
X175418302Y-52071105D01*
X175311047Y-52072962D01*
X175198300Y-52074068D01*
X175086370Y-52074373D01*
X174981573Y-52073836D01*
X174890219Y-52072409D01*
X174818620Y-52070047D01*
X174773089Y-52066707D01*
X174759881Y-52063566D01*
X174753649Y-52043176D01*
X174741700Y-51991453D01*
X174725106Y-51913515D01*
X174704936Y-51814484D01*
X174682262Y-51699478D01*
X174665505Y-51612378D01*
X174581547Y-51171607D01*
X173963841Y-50914520D01*
X173590175Y-51169647D01*
X173216508Y-51424773D01*
X172562117Y-50770383D01*
X172817244Y-50396716D01*
G37*
X172817244Y-50396716D02*
X173072370Y-50023049D01*
X172943828Y-49714197D01*
X172815284Y-49405344D01*
X172374513Y-49321386D01*
X172251362Y-49297584D01*
X172140591Y-49275518D01*
X172047324Y-49256263D01*
X171976685Y-49240892D01*
X171933798Y-49230481D01*
X171923040Y-49226725D01*
X171918970Y-49204647D01*
X171915927Y-49151814D01*
X171913861Y-49074540D01*
X171912723Y-48979137D01*
X171912466Y-48871915D01*
X171913040Y-48759185D01*
X171914397Y-48647260D01*
X171916489Y-48542452D01*
X171919267Y-48451070D01*
X171922682Y-48379428D01*
X171926686Y-48333837D01*
X171930012Y-48320567D01*
X171952467Y-48312421D01*
X172006041Y-48298959D01*
X172085351Y-48281352D01*
X172185006Y-48260767D01*
X172299621Y-48238376D01*
X172365413Y-48226023D01*
X172485461Y-48203380D01*
X172593121Y-48182274D01*
X172683088Y-48163812D01*
X172750057Y-48149099D01*
X172788725Y-48139238D01*
X172795988Y-48136304D01*
X172805573Y-48116906D01*
X172825973Y-48069756D01*
X172854458Y-48001623D01*
X172888295Y-47919272D01*
X172924755Y-47829470D01*
X172961108Y-47738985D01*
X172994623Y-47654582D01*
X173022567Y-47583029D01*
X173042213Y-47531092D01*
X173050828Y-47505538D01*
X173051000Y-47504366D01*
X173040964Y-47487805D01*
X173012825Y-47445110D01*
X172969539Y-47380669D01*
X172914060Y-47298867D01*
X172849346Y-47204089D01*
X172811488Y-47148893D01*
X172742499Y-47047458D01*
X172680971Y-46955053D01*
X172629952Y-46876418D01*
X172592490Y-46816292D01*
X172571636Y-46779414D01*
X172568375Y-46771069D01*
X172579897Y-46748180D01*
X172614169Y-46704737D01*
X172666645Y-46645279D01*
X172732777Y-46574348D01*
X172808018Y-46496485D01*
X172887820Y-46416230D01*
X172967639Y-46338123D01*
X173042925Y-46266708D01*
X173109133Y-46206524D01*
X173161714Y-46162111D01*
X173196121Y-46138011D01*
X173205303Y-46135012D01*
X173231080Y-46146190D01*
X173280669Y-46174907D01*
X173347665Y-46217210D01*
X173425662Y-46269147D01*
X173452555Y-46287610D01*
X173581927Y-46376924D01*
X173684429Y-46447167D01*
X173763558Y-46500552D01*
X173822808Y-46539292D01*
X173865674Y-46565599D01*
X173895653Y-46581686D01*
X173916237Y-46589767D01*
X173930924Y-46592054D01*
X173933336Y-46592016D01*
X173964928Y-46584131D01*
X174021421Y-46563799D01*
X174096310Y-46533919D01*
X174183083Y-46497390D01*
X174275233Y-46457109D01*
X174366249Y-46415975D01*
X174449624Y-46376886D01*
X174518847Y-46342740D01*
X174567409Y-46316436D01*
X174588803Y-46300872D01*
X174589206Y-46299982D01*
X174594435Y-46275004D01*
X174605266Y-46219369D01*
X174620592Y-46138892D01*
X174639308Y-46039386D01*
X174660312Y-45926663D01*
X174666253Y-45894601D01*
X174688573Y-45779147D01*
X174710449Y-45675316D01*
X174730503Y-45588952D01*
X174747360Y-45525895D01*
X174759641Y-45491986D01*
X174761954Y-45488625D01*
X174785953Y-45482797D01*
X174840601Y-45478359D01*
X174919497Y-45475258D01*
X175016238Y-45473442D01*
X175124421Y-45472858D01*
X175237644Y-45473456D01*
X175349504Y-45475180D01*
X175453600Y-45477982D01*
X175543528Y-45481808D01*
X175612886Y-45486606D01*
X175655272Y-45492323D01*
X175664919Y-45495983D01*
X175673356Y-45518521D01*
X175686049Y-45569245D01*
X175701036Y-45639788D01*
X175711581Y-45695049D01*
X175730175Y-45795694D01*
X175752473Y-45914603D01*
X175775064Y-46033650D01*
X175787327Y-46097537D01*
X175829032Y-46313580D01*
X175995705Y-46363269D01*
X176070614Y-46386929D01*
X176132440Y-46408920D01*
X176172157Y-46425918D01*
X176180955Y-46431556D01*
X176177964Y-46451905D01*
X176162108Y-46502007D01*
X176135151Y-46577543D01*
X176098857Y-46674189D01*
X176054989Y-46787627D01*
X176005311Y-46913536D01*
X175951588Y-47047596D01*
X175895583Y-47185487D01*
X175839059Y-47322888D01*
X175783781Y-47455479D01*
X175731512Y-47578940D01*
X175684016Y-47688950D01*
X175643057Y-47781190D01*
X175610399Y-47851338D01*
X175587806Y-47895076D01*
X175578116Y-47908166D01*
X175550111Y-47909219D01*
X175497023Y-47903299D01*
X175429918Y-47891675D01*
X175424420Y-47890566D01*
X175241236Y-47870265D01*
X175064184Y-47883241D01*
X174897013Y-47927168D01*
X174743472Y-47999718D01*
X174607309Y-48098564D01*
X174492274Y-48221379D01*
X174402116Y-48365835D01*
X174340585Y-48529606D01*
X174330979Y-48569292D01*
X174309681Y-48747045D01*
X174322176Y-48919379D01*
X174365682Y-49082684D01*
X174437416Y-49233344D01*
X174534594Y-49367744D01*
X174654435Y-49482273D01*
X174794153Y-49573314D01*
X174950968Y-49637253D01*
X175122095Y-49670477D01*
X175181687Y-49674098D01*
X175349729Y-49666933D01*
X175500565Y-49633326D01*
X175644145Y-49570161D01*
X175768909Y-49490184D01*
X175889534Y-49380615D01*
X175986769Y-49246513D01*
X176058576Y-49093661D01*
X176102918Y-48927840D01*
X176117758Y-48754831D01*
X176101059Y-48580418D01*
X176096813Y-48559547D01*
X176084248Y-48492539D01*
X176077588Y-48438709D01*
X176078188Y-48409190D01*
X176078454Y-48408504D01*
X176097848Y-48395318D01*
X176147126Y-48370652D01*
X176221967Y-48336269D01*
X176318049Y-48293931D01*
X176431055Y-48245400D01*
X176556664Y-48192441D01*
X176690554Y-48136814D01*
X176828408Y-48080283D01*
X176965903Y-48024611D01*
X177098721Y-47971559D01*
X177222541Y-47922890D01*
X177333042Y-47880368D01*
X177425905Y-47845754D01*
X177496810Y-47820812D01*
X177541436Y-47807304D01*
X177555335Y-47805936D01*
X177568536Y-47831026D01*
X177588417Y-47882793D01*
X177611649Y-47952212D01*
X177623621Y-47991186D01*
X177673311Y-48157858D01*
X177889354Y-48199564D01*
X177999797Y-48220695D01*
X178120966Y-48243578D01*
X178234733Y-48264802D01*
X178291842Y-48275310D01*
X178371321Y-48290929D01*
X178436888Y-48305889D01*
X178480085Y-48318143D01*
X178492361Y-48323877D01*
X178496644Y-48345807D01*
X178501022Y-48399446D01*
X178505237Y-48479426D01*
X178509035Y-48580374D01*
X178512161Y-48696923D01*
X178513593Y-48771180D01*
X178514749Y-48902443D01*
X178513783Y-49017849D01*
X178510871Y-49112594D01*
X178506190Y-49181878D01*
X178499915Y-49220897D01*
X178496889Y-49227063D01*
X178472119Y-49237256D01*
X178416630Y-49252461D01*
X178336235Y-49271335D01*
X178236747Y-49292531D01*
X178123981Y-49314708D01*
X178092289Y-49320637D01*
X177976986Y-49342070D01*
X177873325Y-49361516D01*
X177787117Y-49377870D01*
X177724177Y-49390027D01*
X177690318Y-49396883D01*
X177686908Y-49397684D01*
X177672635Y-49415859D01*
X177647319Y-49461884D01*
X177613858Y-49529250D01*
X177575151Y-49611449D01*
X177534095Y-49701971D01*
X177493589Y-49794306D01*
X177456531Y-49881947D01*
X177425820Y-49958384D01*
X177404353Y-50017107D01*
X177395031Y-50051608D01*
X177394875Y-50053554D01*
X177396311Y-50067514D01*
X177403120Y-50086709D01*
X177417515Y-50114633D01*
X177441710Y-50154781D01*
X177477916Y-50210649D01*
X177528348Y-50285731D01*
X177595217Y-50383522D01*
X177680736Y-50507517D01*
X177699280Y-50534335D01*
X177753516Y-50614545D01*
X177799415Y-50685856D01*
X177833023Y-50741859D01*
X177850388Y-50776152D01*
X177851879Y-50781588D01*
X177840094Y-50804788D01*
X177805642Y-50848516D01*
X177753065Y-50908229D01*
X177686903Y-50979378D01*
X177611698Y-51057414D01*
X177531991Y-51137793D01*
X177452321Y-51215966D01*
X177377230Y-51287386D01*
X177311259Y-51347508D01*
X177258948Y-51391782D01*
X177224839Y-51415664D01*
X177215822Y-51418515D01*
X177192672Y-51407338D01*
X177143849Y-51377994D01*
X177074094Y-51333532D01*
X176988144Y-51277000D01*
X176890737Y-51211448D01*
X176837997Y-51175403D01*
X176738025Y-51106921D01*
X176648651Y-51046074D01*
X176574262Y-50995817D01*
X176519244Y-50959108D01*
X176487985Y-50938900D01*
X176482524Y-50935890D01*
X176461555Y-50942543D01*
X176413156Y-50960679D01*
X176344098Y-50987561D01*
X176261150Y-51020454D01*
X176171082Y-51056623D01*
X176080663Y-51093332D01*
X175996663Y-51127843D01*
X175925852Y-51157425D01*
X175875000Y-51179338D01*
X175850876Y-51190847D01*
X175849980Y-51191508D01*
X175843075Y-51212714D01*
X175830776Y-51265103D01*
X175814191Y-51343356D01*
X175794427Y-51442150D01*
X175772594Y-51556163D01*
X175760372Y-51621972D01*
X175737658Y-51742333D01*
X175716073Y-51850644D01*
X175696788Y-51941507D01*
X175680972Y-52009519D01*
X175669795Y-52049278D01*
X175666150Y-52057052D01*
X175643988Y-52061468D01*
X175591085Y-52065312D01*
X175513753Y-52068539D01*
X175418302Y-52071105D01*
X175311047Y-52072962D01*
X175198300Y-52074068D01*
X175086370Y-52074373D01*
X174981573Y-52073836D01*
X174890219Y-52072409D01*
X174818620Y-52070047D01*
X174773089Y-52066707D01*
X174759881Y-52063566D01*
X174753649Y-52043176D01*
X174741700Y-51991453D01*
X174725106Y-51913515D01*
X174704936Y-51814484D01*
X174682262Y-51699478D01*
X174665505Y-51612378D01*
X174581547Y-51171607D01*
X173963841Y-50914520D01*
X173590175Y-51169647D01*
X173216508Y-51424773D01*
X172562117Y-50770383D01*
X172817244Y-50396716D01*
D12*
%TO.C,J4*%
X204800000Y-111900000D02*
X204300000Y-111400000D01*
X204300000Y-112400000D02*
X204800000Y-111900000D01*
X207900000Y-87800000D02*
X208300000Y-88200000D01*
X207900000Y-113400000D02*
X208300000Y-113000000D01*
X208300000Y-88200000D02*
X208300000Y-90400000D01*
X204300000Y-87800000D02*
X204300000Y-90400000D01*
X207900000Y-87800000D02*
X204300000Y-87800000D01*
X208300000Y-113000000D02*
X208300000Y-110800000D01*
X204300000Y-113400000D02*
X207900000Y-113400000D01*
X204300000Y-110800000D02*
X204300000Y-113400000D01*
D13*
%TO.C,J3*%
X210694647Y-99044528D02*
X210244109Y-99261357D01*
X210281598Y-98762765D02*
X210694647Y-99044528D01*
X210244109Y-99261357D02*
X210281598Y-98762765D01*
X211900337Y-89162111D02*
X224205602Y-90087349D01*
X209578246Y-120044935D02*
X211900337Y-89162111D01*
X221883511Y-120970172D02*
X209578246Y-120044935D01*
%TO.C,J2*%
X199583107Y-64976182D02*
X199333107Y-65409195D01*
X199083107Y-64976182D02*
X199583107Y-64976182D01*
X199333107Y-65409195D02*
X199083107Y-64976182D01*
X195010126Y-56132897D02*
X205696879Y-49962897D01*
X210495126Y-82953703D02*
X195010126Y-56132897D01*
X221181879Y-76783703D02*
X210495126Y-82953703D01*
%TO.C,J1*%
X171190849Y-43109730D02*
X171228338Y-43608323D01*
X170777800Y-43391493D02*
X171190849Y-43109730D01*
X171228338Y-43608323D02*
X170777800Y-43391493D01*
X162429696Y-38381301D02*
X167781049Y-27262011D01*
X190336051Y-51811723D02*
X162429696Y-38381301D01*
X195687404Y-40692432D02*
X190336051Y-51811723D01*
%TO.C,J4*%
D12*
X205766666Y-85752380D02*
X205766666Y-86466666D01*
X205719047Y-86609523D01*
X205623809Y-86704761D01*
X205480952Y-86752380D01*
X205385714Y-86752380D01*
X206671428Y-86085714D02*
X206671428Y-86752380D01*
X206433333Y-85704761D02*
X206195238Y-86419047D01*
X206814285Y-86419047D01*
%TO.C,J3*%
X212408664Y-87328929D02*
X212355108Y-88041204D01*
X212296912Y-88180089D01*
X212194801Y-88267918D01*
X212048775Y-88304692D01*
X211953805Y-88297551D01*
X212788544Y-87357492D02*
X213405849Y-87403908D01*
X213044891Y-87758795D01*
X213187346Y-87769506D01*
X213278746Y-87824132D01*
X213322660Y-87875187D01*
X213363004Y-87973728D01*
X213345152Y-88211153D01*
X213290526Y-88302552D01*
X213239471Y-88346467D01*
X213140931Y-88386811D01*
X212856021Y-88365389D01*
X212764621Y-88310763D01*
X212720706Y-88259707D01*
%TO.C,J2*%
X194937515Y-53692414D02*
X195294658Y-54311004D01*
X195324847Y-54458531D01*
X195289987Y-54588629D01*
X195190079Y-54701297D01*
X195107600Y-54748916D01*
X195356288Y-53560607D02*
X195373717Y-53495558D01*
X195432387Y-53406700D01*
X195638583Y-53287652D01*
X195744871Y-53281273D01*
X195809920Y-53298702D01*
X195898778Y-53357371D01*
X195946397Y-53439850D01*
X195976587Y-53587377D01*
X195767429Y-54367963D01*
X196303540Y-54058440D01*
%TO.C,J1*%
X161862000Y-35562879D02*
X162505626Y-35872635D01*
X162613701Y-35977495D01*
X162658217Y-36104612D01*
X162639174Y-36253988D01*
X162597873Y-36339805D01*
X163196736Y-35095461D02*
X162948930Y-35610362D01*
X163072833Y-35352911D02*
X162171756Y-34919252D01*
X162259180Y-35067020D01*
X162303696Y-35194138D01*
X162305304Y-35300605D01*
%TD*%
M02*
