M48
; DRILL file {KiCad 5.1.6} date Thu Jul 16 12:25:07 2020
; FORMAT={-:-/ absolute / inch / decimal}
; #@! TF.CreationDate,2020-07-16T12:25:07+02:00
; #@! TF.GenerationSoftware,Kicad,Pcbnew,5.1.6
; #@! TF.FileFunction,Plated,1,2,PTH
FMAT,2
INCH
T1C0.0197
T2C0.0394
T3C0.1260
%
G90
G05
T1
X6.374Y-1.5157
X6.4646Y-1.1732
X6.6378Y-1.8346
X6.8307Y-1.3386
X6.8504Y-2.0157
X7.3307Y-2.3031
X7.3937Y-1.6181
X7.5118Y-2.5354
X7.9567Y-3.3701
X8.0748Y-3.5197
X8.1024Y-3.7835
X8.1024Y-3.8622
X8.1024Y-4.0591
X8.1142Y-3.5748
X8.1142Y-3.6654
X8.122Y-3.9803
X8.122Y-4.1575
X8.1339Y-2.2913
X8.1339Y-4.2559
X8.1339Y-4.3346
X8.1417Y-3.7441
X8.1417Y-3.8228
X8.1417Y-3.9016
X8.2638Y-4.0591
X8.3425Y-2.9646
X8.5394Y-4.8228
X8.6496Y-4.4646
X8.6969Y-3.8189
X7.9089Y-4.6149
X7.9366Y-4.5481
X7.9366Y-4.6817
X8.0034Y-4.5204
X8.0034Y-4.7094
X8.0702Y-4.5481
X8.0702Y-4.6817
X8.0979Y-4.6149
X7.6931Y-1.9071
X7.7208Y-1.8403
X7.7208Y-1.9739
X7.7876Y-1.8126
X7.7876Y-2.0016
X7.8544Y-1.8403
X7.8544Y-1.9739
X7.8821Y-1.9071
X6.2729Y-1.7812
X6.3006Y-1.7144
X6.3006Y-1.848
X6.3674Y-1.6867
X6.3674Y-1.8757
X6.4342Y-1.7144
X6.4342Y-1.848
X6.4619Y-1.7812
X8.51Y-3.322
X8.5377Y-3.2552
X8.5377Y-3.3889
X8.6045Y-3.2276
X8.6045Y-3.4165
X8.6713Y-3.2552
X8.6713Y-3.3889
X8.699Y-3.322
T2
X8.3535Y-4.3412
X8.3617Y-4.2325
X8.3698Y-4.1237
X8.378Y-4.015
X8.3862Y-3.9062
X8.4691Y-4.2952
X8.4773Y-4.1865
X8.4854Y-4.0777
X8.4936Y-3.969
X7.9367Y-2.5124
X7.9913Y-2.6069
X8.0458Y-2.7013
X8.0608Y-2.5037
X8.1003Y-2.7958
X8.1154Y-2.5982
X8.1549Y-2.8902
X8.1699Y-2.6926
X8.2244Y-2.7871
X6.7794Y-1.6149
X6.8771Y-1.5378
X6.8777Y-1.6622
X6.9753Y-1.5851
X6.976Y-1.7095
X7.0736Y-1.6324
X7.0742Y-1.7568
X7.1719Y-1.6797
X7.1725Y-1.8041
T3
X8.6045Y-3.322
X8.3887Y-4.6187
X8.4625Y-3.6372
X7.8482Y-2.2472
X8.3403Y-3.0996
X8.0034Y-4.6149
X6.5568Y-1.4457
X7.4437Y-1.8725
X7.7876Y-1.9071
X6.3674Y-1.7812
T0
M30
