%TF.GenerationSoftware,KiCad,Pcbnew,5.1.6*%
%TF.CreationDate,2020-07-16T12:24:58+02:00*%
%TF.ProjectId,Base-Interconnect,42617365-2d49-46e7-9465-72636f6e6e65,rev?*%
%TF.SameCoordinates,Original*%
%TF.FileFunction,Soldermask,Bot*%
%TF.FilePolarity,Negative*%
%FSLAX46Y46*%
G04 Gerber Fmt 4.6, Leading zero omitted, Abs format (unit mm)*
G04 Created by KiCad (PCBNEW 5.1.6) date 2020-07-16 12:24:58*
%MOMM*%
%LPD*%
G01*
G04 APERTURE LIST*
%ADD10C,0.900000*%
%ADD11C,6.500000*%
%ADD12C,4.100000*%
%ADD13C,1.700000*%
%ADD14C,0.100000*%
G04 APERTURE END LIST*
D10*
%TO.C,H4*%
X204984156Y-115521744D03*
X203287100Y-114818800D03*
X201590044Y-115521744D03*
X200887100Y-117218800D03*
X201590044Y-118915856D03*
X203287100Y-119618800D03*
X204984156Y-118915856D03*
X205687100Y-117218800D03*
D11*
X203287100Y-117218800D03*
%TD*%
D10*
%TO.C,H3*%
X220250856Y-82682844D03*
X218553800Y-81979900D03*
X216856744Y-82682844D03*
X216153800Y-84379900D03*
X216856744Y-86076956D03*
X218553800Y-86779900D03*
X220250856Y-86076956D03*
X220953800Y-84379900D03*
D11*
X218553800Y-84379900D03*
%TD*%
D10*
%TO.C,H2*%
X199501356Y-46743644D03*
X197804300Y-46040700D03*
X196107244Y-46743644D03*
X195404300Y-48440700D03*
X196107244Y-50137756D03*
X197804300Y-50840700D03*
X199501356Y-50137756D03*
X200204300Y-48440700D03*
D11*
X197804300Y-48440700D03*
%TD*%
D12*
%TO.C,J3*%
X214947293Y-92384639D03*
X213072825Y-117314267D03*
D13*
X215114525Y-109099227D03*
X215322216Y-106337024D03*
X215529907Y-103574822D03*
X215737598Y-100812619D03*
X212178674Y-110267389D03*
X212386365Y-107505186D03*
X212594056Y-104742983D03*
X212801747Y-101980781D03*
D14*
G36*
X213793313Y-100129917D02*
G01*
X212098099Y-100002453D01*
X212225563Y-98307239D01*
X213920777Y-98434703D01*
X213793313Y-100129917D01*
G37*
%TD*%
D12*
%TO.C,J2*%
X199343189Y-57077982D03*
X211843189Y-78728618D03*
D13*
X208900445Y-70791636D03*
X207515445Y-68392745D03*
X206130445Y-65993855D03*
X204745445Y-63594964D03*
X207133433Y-73411081D03*
X205748433Y-71012190D03*
X204363433Y-68613300D03*
X202978433Y-66214410D03*
D14*
G36*
X202754555Y-64126641D02*
G01*
X201282311Y-64976641D01*
X200432311Y-63504397D01*
X201904555Y-62654397D01*
X202754555Y-64126641D01*
G37*
%TD*%
D12*
%TO.C,J1*%
X166541813Y-36720241D03*
X189068738Y-47561718D03*
D13*
X182165046Y-42663303D03*
X179669063Y-41462068D03*
X177173080Y-40260832D03*
X174677096Y-39059596D03*
X182181446Y-45822980D03*
X179685463Y-44621744D03*
X177189480Y-43420509D03*
X174693496Y-42219273D03*
D14*
G36*
X173332039Y-40620732D02*
G01*
X172594818Y-42152563D01*
X171062987Y-41415342D01*
X171800208Y-39883511D01*
X173332039Y-40620732D01*
G37*
%TD*%
D10*
%TO.C,H1*%
X163428656Y-43545544D03*
X161731600Y-42842600D03*
X160034544Y-43545544D03*
X159331600Y-45242600D03*
X160034544Y-46939656D03*
X161731600Y-47642600D03*
X163428656Y-46939656D03*
X164131600Y-45242600D03*
D11*
X161731600Y-45242600D03*
%TD*%
M02*
