M48
; DRILL file {KiCad 5.1.6} date Thu Jul 16 12:21:43 2020
; FORMAT={-:-/ absolute / inch / decimal}
; #@! TF.CreationDate,2020-07-16T12:21:43+02:00
; #@! TF.GenerationSoftware,Kicad,Pcbnew,5.1.6
; #@! TF.FileFunction,Plated,1,2,PTH
FMAT,2
INCH
T1C0.0197
T2C0.0331
T3C0.0394
T4C0.1260
%
G90
G05
T1
X4.7362Y-4.5866
X4.7795Y-3.7953
X4.9764Y-4.2323
X5.2323Y-3.8937
X5.2323Y-3.9331
X5.2323Y-3.9724
X5.2362Y-3.7992
X5.2874Y-4.5866
X5.311Y-4.0512
X5.3819Y-3.7992
X5.4134Y-3.9646
X5.4134Y-4.0039
X5.437Y-4.2874
X5.4528Y-3.9646
X5.4528Y-4.0039
X5.563Y-3.7835
X5.563Y-3.8858
X5.6181Y-4.1299
X5.6181Y-4.1693
X5.6181Y-4.2087
X5.6811Y-4.2874
X5.7913Y-4.2165
X5.7913Y-4.2559
X5.8307Y-4.2165
X5.8307Y-4.2559
X5.9567Y-3.8858
X6.0984Y-4.1339
X6.3371Y-4.4323
X6.3371Y-4.5723
X6.3504Y-4.2323
X6.3871Y-4.4323
X6.3871Y-4.5723
X6.7559Y-4.1417
X6.8976Y-3.9646
X6.8976Y-4.0433
X6.8976Y-4.1614
X6.8976Y-4.3976
X6.9094Y-4.4764
X6.9252Y-4.3504
X6.9409Y-3.9252
X6.9409Y-4.0039
X6.9409Y-4.437
X4.8819Y-4.4724
X4.9096Y-4.4056
X4.9096Y-4.5393
X4.9764Y-4.378
X4.9764Y-4.5669
X5.0432Y-4.4056
X5.0432Y-4.5393
X5.0709Y-4.4724
X6.5433Y-4.4724
X6.571Y-4.4056
X6.571Y-4.5393
X6.6378Y-4.378
X6.6378Y-4.5669
X6.7046Y-4.4056
X6.7046Y-4.5393
X6.7323Y-4.4724
X4.8819Y-3.9921
X4.9096Y-3.9253
X4.9096Y-4.0589
X4.9764Y-3.8976
X4.9764Y-4.0866
X5.0432Y-3.9253
X5.0432Y-4.0589
X5.0709Y-3.9921
X5.185Y-4.4213
X5.5118Y-4.2717
X6.5433Y-3.9921
X6.571Y-3.9253
X6.571Y-4.0589
X6.6378Y-3.8976
X6.6378Y-4.0866
X6.7046Y-3.9253
X6.7046Y-4.0589
X6.7323Y-3.9921
X5.311Y-3.7992
T2
X6.3004Y-4.0839
X6.3004Y-4.1839
X6.3504Y-4.1339
X6.4004Y-4.0839
X6.4004Y-4.1839
X6.4579Y-3.5642
X6.4579Y-3.6642
X6.5079Y-3.6142
X6.5579Y-3.5642
X6.5579Y-3.6642
T3
X6.0346Y-3.8346
X6.1346Y-3.8346
X6.2346Y-3.8346
X6.3346Y-3.8346
T4
X4.9764Y-4.4724
X6.6378Y-4.4724
X4.9764Y-3.9921
X6.6378Y-3.9921
T0
M30
