G04 #@! TF.GenerationSoftware,KiCad,Pcbnew,5.1.6*
G04 #@! TF.CreationDate,2020-07-16T12:21:26+02:00*
G04 #@! TF.ProjectId,Head-Interconnect,48656164-2d49-46e7-9465-72636f6e6e65,rev?*
G04 #@! TF.SameCoordinates,Original*
G04 #@! TF.FileFunction,Copper,L1,Top*
G04 #@! TF.FilePolarity,Positive*
%FSLAX46Y46*%
G04 Gerber Fmt 4.6, Leading zero omitted, Abs format (unit mm)*
G04 Created by KiCad (PCBNEW 5.1.6) date 2020-07-16 12:21:26*
%MOMM*%
%LPD*%
G01*
G04 APERTURE LIST*
G04 #@! TA.AperFunction,SMDPad,CuDef*
%ADD10C,0.100000*%
G04 #@! TD*
G04 #@! TA.AperFunction,SMDPad,CuDef*
%ADD11R,3.600000X2.680000*%
G04 #@! TD*
G04 #@! TA.AperFunction,SMDPad,CuDef*
%ADD12R,2.000000X0.610000*%
G04 #@! TD*
G04 #@! TA.AperFunction,ComponentPad*
%ADD13O,1.700000X1.700000*%
G04 #@! TD*
G04 #@! TA.AperFunction,ComponentPad*
%ADD14R,1.700000X1.700000*%
G04 #@! TD*
G04 #@! TA.AperFunction,SMDPad,CuDef*
%ADD15R,0.750000X2.100000*%
G04 #@! TD*
G04 #@! TA.AperFunction,ComponentPad*
%ADD16C,1.000000*%
G04 #@! TD*
G04 #@! TA.AperFunction,ComponentPad*
%ADD17C,1.240000*%
G04 #@! TD*
G04 #@! TA.AperFunction,ComponentPad*
%ADD18C,0.800000*%
G04 #@! TD*
G04 #@! TA.AperFunction,ComponentPad*
%ADD19C,6.400000*%
G04 #@! TD*
G04 #@! TA.AperFunction,ViaPad*
%ADD20C,1.000000*%
G04 #@! TD*
G04 #@! TA.AperFunction,Conductor*
%ADD21C,0.800000*%
G04 #@! TD*
G04 #@! TA.AperFunction,Conductor*
%ADD22C,0.500000*%
G04 #@! TD*
G04 #@! TA.AperFunction,Conductor*
%ADD23C,0.400000*%
G04 #@! TD*
G04 #@! TA.AperFunction,Conductor*
%ADD24C,0.300000*%
G04 #@! TD*
G04 APERTURE END LIST*
G04 #@! TA.AperFunction,SMDPad,CuDef*
G36*
G01*
X164445590Y-86512900D02*
X163612899Y-86854412D01*
G75*
G02*
X163286733Y-86717974I-94864J231302D01*
G01*
X163040086Y-86116586D01*
G75*
G02*
X163176524Y-85790420I231302J94864D01*
G01*
X164009215Y-85448908D01*
G75*
G02*
X164335381Y-85585346I94864J-231302D01*
G01*
X164582028Y-86186734D01*
G75*
G02*
X164445590Y-86512900I-231302J-94864D01*
G01*
G37*
G04 #@! TD.AperFunction*
G04 #@! TA.AperFunction,SMDPad,CuDef*
G36*
G01*
X165223476Y-88409580D02*
X164390785Y-88751092D01*
G75*
G02*
X164064619Y-88614654I-94864J231302D01*
G01*
X163817972Y-88013266D01*
G75*
G02*
X163954410Y-87687100I231302J94864D01*
G01*
X164787101Y-87345588D01*
G75*
G02*
X165113267Y-87482026I94864J-231302D01*
G01*
X165359914Y-88083414D01*
G75*
G02*
X165223476Y-88409580I-231302J-94864D01*
G01*
G37*
G04 #@! TD.AperFunction*
G04 #@! TA.AperFunction,SMDPad,CuDef*
G36*
G01*
X170850001Y-94150000D02*
X169949999Y-94150000D01*
G75*
G02*
X169700000Y-93900001I0J249999D01*
G01*
X169700000Y-93249999D01*
G75*
G02*
X169949999Y-93000000I249999J0D01*
G01*
X170850001Y-93000000D01*
G75*
G02*
X171100000Y-93249999I0J-249999D01*
G01*
X171100000Y-93900001D01*
G75*
G02*
X170850001Y-94150000I-249999J0D01*
G01*
G37*
G04 #@! TD.AperFunction*
G04 #@! TA.AperFunction,SMDPad,CuDef*
G36*
G01*
X170850001Y-96200000D02*
X169949999Y-96200000D01*
G75*
G02*
X169700000Y-95950001I0J249999D01*
G01*
X169700000Y-95299999D01*
G75*
G02*
X169949999Y-95050000I249999J0D01*
G01*
X170850001Y-95050000D01*
G75*
G02*
X171100000Y-95299999I0J-249999D01*
G01*
X171100000Y-95950001D01*
G75*
G02*
X170850001Y-96200000I-249999J0D01*
G01*
G37*
G04 #@! TD.AperFunction*
G04 #@! TA.AperFunction,SMDPad,CuDef*
D10*
G36*
X169895301Y-81923112D02*
G01*
X166564546Y-83289154D01*
X165547603Y-80809592D01*
X168878358Y-79443550D01*
X169895301Y-81923112D01*
G37*
G04 #@! TD.AperFunction*
G04 #@! TA.AperFunction,SMDPad,CuDef*
G36*
X173302817Y-90231495D02*
G01*
X169972062Y-91597537D01*
X168955119Y-89117975D01*
X172285874Y-87751933D01*
X173302817Y-90231495D01*
G37*
G04 #@! TD.AperFunction*
G04 #@! TA.AperFunction,SMDPad,CuDef*
G36*
X167306382Y-85097940D02*
G01*
X165455962Y-85856852D01*
X165224494Y-85292474D01*
X167074914Y-84533562D01*
X167306382Y-85097940D01*
G37*
G04 #@! TD.AperFunction*
G04 #@! TA.AperFunction,SMDPad,CuDef*
G36*
X167685838Y-86023149D02*
G01*
X165835418Y-86782061D01*
X165603950Y-86217683D01*
X167454370Y-85458771D01*
X167685838Y-86023149D01*
G37*
G04 #@! TD.AperFunction*
G04 #@! TA.AperFunction,SMDPad,CuDef*
G36*
X168065295Y-86948359D02*
G01*
X166214875Y-87707271D01*
X165983407Y-87142893D01*
X167833827Y-86383981D01*
X168065295Y-86948359D01*
G37*
G04 #@! TD.AperFunction*
G04 #@! TA.AperFunction,SMDPad,CuDef*
G36*
X168444751Y-87873569D02*
G01*
X166594331Y-88632481D01*
X166362863Y-88068103D01*
X168213283Y-87309191D01*
X168444751Y-87873569D01*
G37*
G04 #@! TD.AperFunction*
D11*
X176300000Y-93710000D03*
X176300000Y-118690000D03*
D12*
X173500000Y-96700000D03*
X173500000Y-97700000D03*
X173500000Y-98700000D03*
X173500000Y-99700000D03*
X173500000Y-100700000D03*
X173500000Y-101700000D03*
X173500000Y-102700000D03*
X173500000Y-103700000D03*
X173500000Y-104700000D03*
X173500000Y-105700000D03*
X173500000Y-106700000D03*
X173500000Y-107700000D03*
X173500000Y-108700000D03*
X173500000Y-109700000D03*
X173500000Y-110700000D03*
X173500000Y-111700000D03*
X173500000Y-112700000D03*
X173500000Y-113700000D03*
X173500000Y-114700000D03*
X173500000Y-115700000D03*
G04 #@! TA.AperFunction,SMDPad,CuDef*
D10*
G36*
X161597000Y-110273000D02*
G01*
X162347000Y-110773000D01*
X162347000Y-111773000D01*
X160847000Y-111773000D01*
X160847000Y-110773000D01*
X161597000Y-110273000D01*
G37*
G04 #@! TD.AperFunction*
G04 #@! TA.AperFunction,SMDPad,CuDef*
G36*
X162347000Y-109323000D02*
G01*
X162347000Y-110473000D01*
X161597000Y-109973000D01*
X160847000Y-110473000D01*
X160847000Y-109323000D01*
X162347000Y-109323000D01*
G37*
G04 #@! TD.AperFunction*
G04 #@! TA.AperFunction,SMDPad,CuDef*
G36*
X166205545Y-96894455D02*
G01*
X166028769Y-96010571D01*
X166735875Y-95303465D01*
X167796535Y-96364125D01*
X167089429Y-97071231D01*
X166205545Y-96894455D01*
G37*
G04 #@! TD.AperFunction*
G04 #@! TA.AperFunction,SMDPad,CuDef*
G36*
X165003465Y-97035875D02*
G01*
X165816637Y-96222703D01*
X165993414Y-97106586D01*
X166877297Y-97283363D01*
X166064125Y-98096535D01*
X165003465Y-97035875D01*
G37*
G04 #@! TD.AperFunction*
D13*
X153280000Y-97400000D03*
X155820000Y-97400000D03*
X158360000Y-97400000D03*
D14*
X160900000Y-97400000D03*
D15*
X160962000Y-114336000D03*
X160962000Y-117936000D03*
X162232000Y-114336000D03*
X162232000Y-117936000D03*
X163502000Y-114336000D03*
X163502000Y-117936000D03*
D16*
X134900000Y-96500000D03*
X131700000Y-112300000D03*
X140000000Y-108500000D03*
D17*
X164030000Y-93070000D03*
X166570000Y-90530000D03*
X166570000Y-93070000D03*
X164030000Y-90530000D03*
X165300000Y-91800000D03*
G04 #@! TA.AperFunction,SMDPad,CuDef*
D10*
G36*
X169375000Y-108200000D02*
G01*
X168875000Y-108950000D01*
X167875000Y-108950000D01*
X167875000Y-107450000D01*
X168875000Y-107450000D01*
X169375000Y-108200000D01*
G37*
G04 #@! TD.AperFunction*
G04 #@! TA.AperFunction,SMDPad,CuDef*
G36*
X170325000Y-108950000D02*
G01*
X169175000Y-108950000D01*
X169675000Y-108200000D01*
X169175000Y-107450000D01*
X170325000Y-107450000D01*
X170325000Y-108950000D01*
G37*
G04 #@! TD.AperFunction*
G04 #@! TA.AperFunction,SMDPad,CuDef*
G36*
X165875000Y-106300000D02*
G01*
X165375000Y-107050000D01*
X164375000Y-107050000D01*
X164375000Y-105550000D01*
X165375000Y-105550000D01*
X165875000Y-106300000D01*
G37*
G04 #@! TD.AperFunction*
G04 #@! TA.AperFunction,SMDPad,CuDef*
G36*
X166825000Y-107050000D02*
G01*
X165675000Y-107050000D01*
X166175000Y-106300000D01*
X165675000Y-105550000D01*
X166825000Y-105550000D01*
X166825000Y-107050000D01*
G37*
G04 #@! TD.AperFunction*
D17*
X160030000Y-106270000D03*
X162570000Y-103730000D03*
X162570000Y-106270000D03*
X160030000Y-103730000D03*
X161300000Y-105000000D03*
D18*
X170297056Y-111902944D03*
X168600000Y-111200000D03*
X166902944Y-111902944D03*
X166200000Y-113600000D03*
X166902944Y-115297056D03*
X168600000Y-116000000D03*
X170297056Y-115297056D03*
X171000000Y-113600000D03*
D19*
X168600000Y-113600000D03*
D18*
X170297056Y-99702944D03*
X168600000Y-99000000D03*
X166902944Y-99702944D03*
X166200000Y-101400000D03*
X166902944Y-103097056D03*
X168600000Y-103800000D03*
X170297056Y-103097056D03*
X171000000Y-101400000D03*
D19*
X168600000Y-101400000D03*
D18*
X128097056Y-111902944D03*
X126400000Y-111200000D03*
X124702944Y-111902944D03*
X124000000Y-113600000D03*
X124702944Y-115297056D03*
X126400000Y-116000000D03*
X128097056Y-115297056D03*
X128800000Y-113600000D03*
D19*
X126400000Y-113600000D03*
D18*
X128097056Y-99702944D03*
X126400000Y-99000000D03*
X124702944Y-99702944D03*
X124000000Y-101400000D03*
X124702944Y-103097056D03*
X126400000Y-103800000D03*
X128097056Y-103097056D03*
X128800000Y-101400000D03*
D19*
X126400000Y-101400000D03*
G04 #@! TA.AperFunction,SMDPad,CuDef*
G36*
G01*
X156650000Y-104549999D02*
X156650000Y-105450001D01*
G75*
G02*
X156400001Y-105700000I-249999J0D01*
G01*
X155749999Y-105700000D01*
G75*
G02*
X155500000Y-105450001I0J249999D01*
G01*
X155500000Y-104549999D01*
G75*
G02*
X155749999Y-104300000I249999J0D01*
G01*
X156400001Y-104300000D01*
G75*
G02*
X156650000Y-104549999I0J-249999D01*
G01*
G37*
G04 #@! TD.AperFunction*
G04 #@! TA.AperFunction,SMDPad,CuDef*
G36*
G01*
X158700000Y-104549999D02*
X158700000Y-105450001D01*
G75*
G02*
X158450001Y-105700000I-249999J0D01*
G01*
X157799999Y-105700000D01*
G75*
G02*
X157550000Y-105450001I0J249999D01*
G01*
X157550000Y-104549999D01*
G75*
G02*
X157799999Y-104300000I249999J0D01*
G01*
X158450001Y-104300000D01*
G75*
G02*
X158700000Y-104549999I0J-249999D01*
G01*
G37*
G04 #@! TD.AperFunction*
G04 #@! TA.AperFunction,SMDPad,CuDef*
G36*
G01*
X136000000Y-101950000D02*
X134000000Y-101950000D01*
G75*
G02*
X133750000Y-101700000I0J250000D01*
G01*
X133750000Y-98200000D01*
G75*
G02*
X134000000Y-97950000I250000J0D01*
G01*
X136000000Y-97950000D01*
G75*
G02*
X136250000Y-98200000I0J-250000D01*
G01*
X136250000Y-101700000D01*
G75*
G02*
X136000000Y-101950000I-250000J0D01*
G01*
G37*
G04 #@! TD.AperFunction*
G04 #@! TA.AperFunction,SMDPad,CuDef*
G36*
G01*
X136000000Y-108050000D02*
X134000000Y-108050000D01*
G75*
G02*
X133750000Y-107800000I0J250000D01*
G01*
X133750000Y-104300000D01*
G75*
G02*
X134000000Y-104050000I250000J0D01*
G01*
X136000000Y-104050000D01*
G75*
G02*
X136250000Y-104300000I0J-250000D01*
G01*
X136250000Y-107800000D01*
G75*
G02*
X136000000Y-108050000I-250000J0D01*
G01*
G37*
G04 #@! TD.AperFunction*
G04 #@! TA.AperFunction,SMDPad,CuDef*
G36*
G01*
X145600000Y-101950000D02*
X143600000Y-101950000D01*
G75*
G02*
X143350000Y-101700000I0J250000D01*
G01*
X143350000Y-98200000D01*
G75*
G02*
X143600000Y-97950000I250000J0D01*
G01*
X145600000Y-97950000D01*
G75*
G02*
X145850000Y-98200000I0J-250000D01*
G01*
X145850000Y-101700000D01*
G75*
G02*
X145600000Y-101950000I-250000J0D01*
G01*
G37*
G04 #@! TD.AperFunction*
G04 #@! TA.AperFunction,SMDPad,CuDef*
G36*
G01*
X145600000Y-108050000D02*
X143600000Y-108050000D01*
G75*
G02*
X143350000Y-107800000I0J250000D01*
G01*
X143350000Y-104300000D01*
G75*
G02*
X143600000Y-104050000I250000J0D01*
G01*
X145600000Y-104050000D01*
G75*
G02*
X145850000Y-104300000I0J-250000D01*
G01*
X145850000Y-107800000D01*
G75*
G02*
X145600000Y-108050000I-250000J0D01*
G01*
G37*
G04 #@! TD.AperFunction*
D20*
X154900000Y-105000000D03*
X175200000Y-102700000D03*
X175200000Y-100700000D03*
X176300000Y-101700000D03*
X176300000Y-99700000D03*
X175900000Y-110500000D03*
X161300000Y-107500000D03*
X151300000Y-98700000D03*
X141300000Y-98700000D03*
X144300000Y-108900000D03*
X138100000Y-108900000D03*
X134900000Y-102900000D03*
X134300000Y-116500000D03*
X120300000Y-116500000D03*
X121400000Y-96400000D03*
X126400000Y-107500000D03*
X141300000Y-96100000D03*
X136700000Y-96500000D03*
X133000000Y-96500000D03*
X137500000Y-101700000D03*
X138500000Y-100700000D03*
X138500000Y-101700000D03*
X137500000Y-100700000D03*
X132900000Y-100900000D03*
X132900000Y-99900000D03*
X132900000Y-98900000D03*
X171600000Y-105200000D03*
X147100000Y-107100000D03*
X147100000Y-108100000D03*
X148100000Y-107100000D03*
X148100000Y-108100000D03*
X142700000Y-104900000D03*
X142700000Y-105900000D03*
X142700000Y-106900000D03*
X175200000Y-105700000D03*
X160962000Y-112580000D03*
X162232000Y-112580000D03*
X175200000Y-111700000D03*
X176300000Y-112700000D03*
X160962000Y-116136000D03*
X175500000Y-113700000D03*
X162232000Y-116136000D03*
D21*
X156075000Y-105000000D02*
X154900000Y-105000000D01*
D22*
X164100000Y-107800000D02*
X162570000Y-106270000D01*
X167975000Y-107800000D02*
X164100000Y-107800000D01*
X168375000Y-108200000D02*
X167975000Y-107800000D01*
X162570000Y-106270000D02*
X160030000Y-106270000D01*
X160030000Y-103730000D02*
X162570000Y-103730000D01*
X158125000Y-105000000D02*
X161300000Y-105000000D01*
X163575000Y-105000000D02*
X164875000Y-106300000D01*
X161300000Y-105000000D02*
X163575000Y-105000000D01*
X173500000Y-102700000D02*
X175200000Y-102700000D01*
X173500000Y-100700000D02*
X175200000Y-100700000D01*
X173500000Y-101700000D02*
X176300000Y-101700000D01*
X173500000Y-99700000D02*
X176300000Y-99700000D01*
X174800000Y-107700000D02*
X173500000Y-107700000D01*
X175200000Y-108100000D02*
X174800000Y-107700000D01*
X175200000Y-109300000D02*
X175200000Y-108100000D01*
X174800000Y-109700000D02*
X175200000Y-109300000D01*
X173500000Y-109700000D02*
X174800000Y-109700000D01*
D23*
X171325000Y-109700000D02*
X169825000Y-108200000D01*
X173500000Y-109700000D02*
X171325000Y-109700000D01*
D22*
X173500000Y-108700000D02*
X172000000Y-108700000D01*
X172000000Y-108700000D02*
X171400000Y-108100000D01*
X171400000Y-108100000D02*
X171400000Y-107000000D01*
X171400000Y-107000000D02*
X170700000Y-106300000D01*
X170700000Y-106300000D02*
X166325000Y-106300000D01*
D23*
X161597000Y-109823000D02*
X161597000Y-108803000D01*
D21*
X134900000Y-99850000D02*
X135000000Y-99950000D01*
X134900000Y-96500000D02*
X134900000Y-99850000D01*
D22*
X172100000Y-104700000D02*
X171600000Y-105200000D01*
X173500000Y-104700000D02*
X172100000Y-104700000D01*
D21*
X141600000Y-106900000D02*
X140000000Y-108500000D01*
X142700000Y-106900000D02*
X141600000Y-106900000D01*
D22*
X173500000Y-105700000D02*
X175200000Y-105700000D01*
X160962000Y-114336000D02*
X160962000Y-112580000D01*
X162232000Y-114336000D02*
X162232000Y-112580000D01*
D23*
X160962000Y-111908000D02*
X161597000Y-111273000D01*
X160962000Y-112580000D02*
X160962000Y-111908000D01*
X162232000Y-111908000D02*
X161597000Y-111273000D01*
X162232000Y-112580000D02*
X162232000Y-111908000D01*
D22*
X175200000Y-111700000D02*
X173500000Y-111700000D01*
X173500000Y-112700000D02*
X176300000Y-112700000D01*
X160962000Y-117936000D02*
X160962000Y-116136000D01*
X173500000Y-113700000D02*
X175500000Y-113700000D01*
X162232000Y-117936000D02*
X162232000Y-116136000D01*
X164736000Y-117936000D02*
X163502000Y-117936000D01*
X173900000Y-116700000D02*
X171700000Y-118900000D01*
X175000000Y-116700000D02*
X173900000Y-116700000D01*
X175400000Y-116300000D02*
X175000000Y-116700000D01*
X175400000Y-115200000D02*
X175400000Y-116300000D01*
X165700000Y-118900000D02*
X164736000Y-117936000D01*
X171700000Y-118900000D02*
X165700000Y-118900000D01*
X174900000Y-114700000D02*
X175400000Y-115200000D01*
X173500000Y-114700000D02*
X174900000Y-114700000D01*
X163502000Y-114802000D02*
X163502000Y-114336000D01*
X170600000Y-117700000D02*
X166400000Y-117700000D01*
X166400000Y-117700000D02*
X163502000Y-114802000D01*
X172600000Y-115700000D02*
X170600000Y-117700000D01*
X173500000Y-115700000D02*
X172600000Y-115700000D01*
X167024351Y-87045626D02*
X164588943Y-88048340D01*
X165300000Y-91800000D02*
X165300000Y-90000000D01*
X165300000Y-90000000D02*
X164588943Y-88048340D01*
X170400000Y-96500000D02*
X170400000Y-95625000D01*
X171600000Y-97700000D02*
X170400000Y-96500000D01*
X173500000Y-97700000D02*
X171600000Y-97700000D01*
X167500000Y-91800000D02*
X165300000Y-91800000D01*
X168700000Y-93000000D02*
X167500000Y-91800000D01*
X168700000Y-95100000D02*
X168700000Y-93000000D01*
X169225000Y-95625000D02*
X168700000Y-95100000D01*
X170400000Y-95625000D02*
X169225000Y-95625000D01*
D24*
G36*
X165337892Y-80298265D02*
G01*
X165242167Y-80349002D01*
X165158179Y-80417440D01*
X165089157Y-80500948D01*
X165037752Y-80596317D01*
X165005941Y-80699882D01*
X164994945Y-80807663D01*
X165005188Y-80915518D01*
X165036276Y-81019303D01*
X166053219Y-83498865D01*
X166103956Y-83594590D01*
X166172394Y-83678578D01*
X166255902Y-83747600D01*
X166351271Y-83799005D01*
X166454836Y-83830816D01*
X166562617Y-83841812D01*
X166670472Y-83831569D01*
X166774257Y-83800481D01*
X170105012Y-82434439D01*
X170200737Y-82383702D01*
X170284725Y-82315264D01*
X170353747Y-82231756D01*
X170405152Y-82136387D01*
X170436963Y-82032822D01*
X170447959Y-81925041D01*
X170437716Y-81817186D01*
X170406628Y-81713401D01*
X169389685Y-79233839D01*
X169338948Y-79138114D01*
X169270510Y-79054126D01*
X169187002Y-78985104D01*
X169168257Y-78975000D01*
X170214927Y-78975000D01*
X175110868Y-90865144D01*
X175115338Y-91817339D01*
X174500000Y-91817339D01*
X174392181Y-91827958D01*
X174288506Y-91859408D01*
X174192958Y-91910479D01*
X174109210Y-91979210D01*
X174040479Y-92062958D01*
X173989408Y-92158506D01*
X173957958Y-92262181D01*
X173947339Y-92370000D01*
X173947339Y-95050000D01*
X173957958Y-95157819D01*
X173989408Y-95261494D01*
X174040479Y-95357042D01*
X174109210Y-95440790D01*
X174192958Y-95509521D01*
X174288506Y-95560592D01*
X174392181Y-95592042D01*
X174500000Y-95602661D01*
X175133109Y-95602661D01*
X175148590Y-98900000D01*
X175050283Y-98900000D01*
X175050000Y-98887500D01*
X174912500Y-98750000D01*
X173550000Y-98750000D01*
X173550000Y-98770000D01*
X173450000Y-98770000D01*
X173450000Y-98750000D01*
X172087500Y-98750000D01*
X171950000Y-98887500D01*
X171947339Y-99005000D01*
X171951771Y-99050000D01*
X171539867Y-99050000D01*
X171512815Y-99009514D01*
X170990486Y-98487185D01*
X170376291Y-98076793D01*
X169693835Y-97794110D01*
X168969343Y-97650000D01*
X168230657Y-97650000D01*
X167506229Y-97794097D01*
X167321397Y-97609265D01*
X167336496Y-97590886D01*
X167387668Y-97495391D01*
X167419226Y-97391749D01*
X167429958Y-97283941D01*
X167419451Y-97176111D01*
X167388110Y-97072403D01*
X167337139Y-96976802D01*
X167268496Y-96892982D01*
X167184820Y-96824164D01*
X167089325Y-96772992D01*
X166985683Y-96741434D01*
X166463086Y-96636914D01*
X166358566Y-96114317D01*
X166327229Y-96011209D01*
X166276158Y-95915661D01*
X166207427Y-95831913D01*
X166123679Y-95763182D01*
X166028131Y-95712111D01*
X165924456Y-95680661D01*
X165816637Y-95670042D01*
X165708818Y-95680661D01*
X165605143Y-95712111D01*
X165509595Y-95763182D01*
X165490766Y-95778634D01*
X163949785Y-94237653D01*
X164033847Y-94245655D01*
X164263132Y-94222315D01*
X164483458Y-94154691D01*
X164679960Y-94049658D01*
X164727883Y-93838594D01*
X165872117Y-93838594D01*
X165920040Y-94049658D01*
X166123651Y-94157636D01*
X166344415Y-94223816D01*
X166573847Y-94245655D01*
X166803132Y-94222315D01*
X167023458Y-94154691D01*
X167219960Y-94049658D01*
X167267883Y-93838594D01*
X166570000Y-93140711D01*
X165872117Y-93838594D01*
X164727883Y-93838594D01*
X164030000Y-93140711D01*
X164015858Y-93154853D01*
X163945147Y-93084142D01*
X163959289Y-93070000D01*
X163261406Y-92372117D01*
X163075000Y-92414441D01*
X163075000Y-91185559D01*
X163261406Y-91227883D01*
X163959289Y-90530000D01*
X163261406Y-89832117D01*
X163075000Y-89874441D01*
X163075000Y-87408824D01*
X163168322Y-87459125D01*
X163271887Y-87490937D01*
X163367008Y-87500640D01*
X163308790Y-87608650D01*
X163262588Y-87759064D01*
X163246619Y-87915600D01*
X163261495Y-88072244D01*
X163306645Y-88222976D01*
X163553292Y-88824364D01*
X163626981Y-88963392D01*
X163726377Y-89085372D01*
X163847660Y-89185617D01*
X163986170Y-89260275D01*
X164136583Y-89306476D01*
X164198173Y-89312759D01*
X164220049Y-89372801D01*
X164026153Y-89354345D01*
X163796868Y-89377685D01*
X163576542Y-89445309D01*
X163380040Y-89550342D01*
X163332117Y-89761406D01*
X164030000Y-90459289D01*
X164044142Y-90445147D01*
X164114853Y-90515858D01*
X164100711Y-90530000D01*
X164114853Y-90544142D01*
X164044142Y-90614853D01*
X164030000Y-90600711D01*
X163332117Y-91298594D01*
X163380040Y-91509658D01*
X163583651Y-91617636D01*
X163804415Y-91683816D01*
X164033847Y-91705655D01*
X164130000Y-91695867D01*
X164130000Y-91904230D01*
X164026153Y-91894345D01*
X163796868Y-91917685D01*
X163576542Y-91985309D01*
X163380040Y-92090342D01*
X163332117Y-92301406D01*
X164030000Y-92999289D01*
X164044142Y-92985147D01*
X164114853Y-93055858D01*
X164100711Y-93070000D01*
X164798594Y-93767883D01*
X165009658Y-93719960D01*
X165117636Y-93516349D01*
X165183816Y-93295585D01*
X165205655Y-93066153D01*
X165195867Y-92970000D01*
X165404230Y-92970000D01*
X165394345Y-93073847D01*
X165417685Y-93303132D01*
X165485309Y-93523458D01*
X165590342Y-93719960D01*
X165801406Y-93767883D01*
X166499289Y-93070000D01*
X166485147Y-93055858D01*
X166555858Y-92985147D01*
X166570000Y-92999289D01*
X166584142Y-92985147D01*
X166654853Y-93055858D01*
X166640711Y-93070000D01*
X167338594Y-93767883D01*
X167549658Y-93719960D01*
X167657636Y-93516349D01*
X167723816Y-93295585D01*
X167736019Y-93167389D01*
X167900001Y-93331372D01*
X167900000Y-95060709D01*
X167896130Y-95100000D01*
X167900000Y-95139291D01*
X167900000Y-95139292D01*
X167911576Y-95256826D01*
X167941976Y-95357042D01*
X167957321Y-95407627D01*
X168031607Y-95546606D01*
X168077151Y-95602101D01*
X168131578Y-95668422D01*
X168162103Y-95693473D01*
X168631527Y-96162897D01*
X168656578Y-96193422D01*
X168730233Y-96253869D01*
X168778393Y-96293393D01*
X168871525Y-96343173D01*
X168917372Y-96367679D01*
X169068173Y-96413424D01*
X169185707Y-96425000D01*
X169185708Y-96425000D01*
X169224999Y-96428870D01*
X169264290Y-96425000D01*
X169306465Y-96425000D01*
X169382433Y-96517567D01*
X169504065Y-96617388D01*
X169618103Y-96678343D01*
X169633419Y-96728833D01*
X169657321Y-96807627D01*
X169731607Y-96946606D01*
X169777151Y-97002101D01*
X169831578Y-97068422D01*
X169862103Y-97093473D01*
X171006531Y-98237902D01*
X171031578Y-98268422D01*
X171062098Y-98293469D01*
X171153393Y-98368393D01*
X171292372Y-98442679D01*
X171443173Y-98488424D01*
X171560707Y-98500000D01*
X171560716Y-98500000D01*
X171599999Y-98503869D01*
X171639282Y-98500000D01*
X171949717Y-98500000D01*
X171950000Y-98512500D01*
X172087500Y-98650000D01*
X173450000Y-98650000D01*
X173450000Y-98630000D01*
X173550000Y-98630000D01*
X173550000Y-98650000D01*
X174912500Y-98650000D01*
X175050000Y-98512500D01*
X175052661Y-98395000D01*
X175042042Y-98287181D01*
X175015595Y-98200000D01*
X175042042Y-98112819D01*
X175052661Y-98005000D01*
X175052661Y-97395000D01*
X175042042Y-97287181D01*
X175015595Y-97200000D01*
X175042042Y-97112819D01*
X175052661Y-97005000D01*
X175050000Y-96887500D01*
X174912500Y-96750000D01*
X173550000Y-96750000D01*
X173550000Y-96770000D01*
X173450000Y-96770000D01*
X173450000Y-96750000D01*
X172087500Y-96750000D01*
X171950000Y-96887500D01*
X171949717Y-96900000D01*
X171931371Y-96900000D01*
X171476783Y-96445412D01*
X171517388Y-96395935D01*
X171517887Y-96395000D01*
X171947339Y-96395000D01*
X171950000Y-96512500D01*
X172087500Y-96650000D01*
X173450000Y-96650000D01*
X173450000Y-95982500D01*
X173550000Y-95982500D01*
X173550000Y-96650000D01*
X174912500Y-96650000D01*
X175050000Y-96512500D01*
X175052661Y-96395000D01*
X175042042Y-96287181D01*
X175010592Y-96183506D01*
X174959521Y-96087958D01*
X174890790Y-96004210D01*
X174807042Y-95935479D01*
X174711494Y-95884408D01*
X174607819Y-95852958D01*
X174500000Y-95842339D01*
X173687500Y-95845000D01*
X173550000Y-95982500D01*
X173450000Y-95982500D01*
X173312500Y-95845000D01*
X172500000Y-95842339D01*
X172392181Y-95852958D01*
X172288506Y-95884408D01*
X172192958Y-95935479D01*
X172109210Y-96004210D01*
X172040479Y-96087958D01*
X171989408Y-96183506D01*
X171957958Y-96287181D01*
X171947339Y-96395000D01*
X171517887Y-96395000D01*
X171591562Y-96257166D01*
X171637238Y-96106592D01*
X171652661Y-95950001D01*
X171652661Y-95299999D01*
X171637238Y-95143408D01*
X171591562Y-94992834D01*
X171517388Y-94854065D01*
X171417567Y-94732433D01*
X171322718Y-94654593D01*
X171407042Y-94609521D01*
X171490790Y-94540790D01*
X171559521Y-94457042D01*
X171610592Y-94361494D01*
X171642042Y-94257819D01*
X171652661Y-94150000D01*
X171650000Y-93762500D01*
X171512500Y-93625000D01*
X170450000Y-93625000D01*
X170450000Y-93645000D01*
X170350000Y-93645000D01*
X170350000Y-93625000D01*
X170330000Y-93625000D01*
X170330000Y-93525000D01*
X170350000Y-93525000D01*
X170350000Y-92587500D01*
X170450000Y-92587500D01*
X170450000Y-93525000D01*
X171512500Y-93525000D01*
X171650000Y-93387500D01*
X171652661Y-93000000D01*
X171642042Y-92892181D01*
X171610592Y-92788506D01*
X171559521Y-92692958D01*
X171490790Y-92609210D01*
X171407042Y-92540479D01*
X171311494Y-92489408D01*
X171207819Y-92457958D01*
X171100000Y-92447339D01*
X170587500Y-92450000D01*
X170450000Y-92587500D01*
X170350000Y-92587500D01*
X170212500Y-92450000D01*
X169700000Y-92447339D01*
X169592181Y-92457958D01*
X169488506Y-92489408D01*
X169392958Y-92540479D01*
X169371085Y-92558430D01*
X169368393Y-92553393D01*
X169293469Y-92462098D01*
X169268422Y-92431578D01*
X169237902Y-92406531D01*
X168093473Y-91262103D01*
X168068422Y-91231578D01*
X167946606Y-91131607D01*
X167807628Y-91057321D01*
X167656827Y-91011576D01*
X167639842Y-91009903D01*
X167657636Y-90976349D01*
X167723816Y-90755585D01*
X167745655Y-90526153D01*
X167722315Y-90296868D01*
X167654691Y-90076542D01*
X167549658Y-89880040D01*
X167338594Y-89832117D01*
X166640711Y-90530000D01*
X166654853Y-90544142D01*
X166584142Y-90614853D01*
X166570000Y-90600711D01*
X166555858Y-90614853D01*
X166485147Y-90544142D01*
X166499289Y-90530000D01*
X166485147Y-90515858D01*
X166555858Y-90445147D01*
X166570000Y-90459289D01*
X167267883Y-89761406D01*
X167219960Y-89550342D01*
X167016349Y-89442364D01*
X166795585Y-89376184D01*
X166566153Y-89354345D01*
X166336868Y-89377685D01*
X166116542Y-89445309D01*
X165976601Y-89520110D01*
X165694913Y-88746952D01*
X165706882Y-88732470D01*
X166040880Y-88732470D01*
X166083004Y-88842192D01*
X166133741Y-88937917D01*
X166202179Y-89021905D01*
X166285687Y-89090927D01*
X166381056Y-89142332D01*
X166484621Y-89174143D01*
X166592402Y-89185139D01*
X166700257Y-89174896D01*
X166804042Y-89143808D01*
X166871106Y-89116046D01*
X168402461Y-89116046D01*
X168412704Y-89223901D01*
X168443792Y-89327686D01*
X169460735Y-91807248D01*
X169511472Y-91902973D01*
X169579910Y-91986961D01*
X169663418Y-92055983D01*
X169758787Y-92107388D01*
X169862352Y-92139199D01*
X169970133Y-92150195D01*
X170077988Y-92139952D01*
X170181773Y-92108864D01*
X173512528Y-90742822D01*
X173608253Y-90692085D01*
X173692241Y-90623647D01*
X173761263Y-90540139D01*
X173812668Y-90444770D01*
X173844479Y-90341205D01*
X173855475Y-90233424D01*
X173845232Y-90125569D01*
X173814144Y-90021784D01*
X172797201Y-87542222D01*
X172746464Y-87446497D01*
X172678026Y-87362509D01*
X172594518Y-87293487D01*
X172499149Y-87242082D01*
X172395584Y-87210271D01*
X172287803Y-87199275D01*
X172179948Y-87209518D01*
X172076163Y-87240606D01*
X168745408Y-88606648D01*
X168649683Y-88657385D01*
X168565695Y-88725823D01*
X168496673Y-88809331D01*
X168445268Y-88904700D01*
X168413457Y-89008265D01*
X168402461Y-89116046D01*
X166871106Y-89116046D01*
X167554765Y-88833038D01*
X167629806Y-88653647D01*
X167376519Y-88036069D01*
X166115921Y-88553078D01*
X166040880Y-88732470D01*
X165706882Y-88732470D01*
X165794439Y-88626539D01*
X165869096Y-88488030D01*
X165900357Y-88386258D01*
X166077975Y-88460557D01*
X167205503Y-87998124D01*
X167469040Y-87998124D01*
X167722327Y-88615701D01*
X167901719Y-88690742D01*
X168654461Y-88384896D01*
X168750187Y-88334159D01*
X168834174Y-88265721D01*
X168903197Y-88182213D01*
X168954601Y-88086844D01*
X168986413Y-87983279D01*
X168997408Y-87875498D01*
X168987166Y-87767643D01*
X168956078Y-87663858D01*
X168909030Y-87556156D01*
X168729639Y-87481115D01*
X167469040Y-87998124D01*
X167205503Y-87998124D01*
X167338574Y-87943548D01*
X167330985Y-87925044D01*
X167423506Y-87887099D01*
X167431095Y-87905603D01*
X168691693Y-87388594D01*
X168766734Y-87209202D01*
X168724610Y-87099480D01*
X168673873Y-87003755D01*
X168616323Y-86933129D01*
X168607710Y-86842433D01*
X168576622Y-86738649D01*
X168345154Y-86174271D01*
X168294417Y-86078545D01*
X168236865Y-86007917D01*
X168228253Y-85917223D01*
X168197165Y-85813438D01*
X168150117Y-85705736D01*
X167970726Y-85630695D01*
X166710127Y-86147704D01*
X166717716Y-86166208D01*
X166625195Y-86204153D01*
X166617606Y-86185649D01*
X165357008Y-86702658D01*
X165281967Y-86882050D01*
X165283420Y-86885834D01*
X165191716Y-86836405D01*
X165074424Y-86800377D01*
X165135337Y-86726681D01*
X165186741Y-86631311D01*
X165207571Y-86563499D01*
X165319062Y-86610137D01*
X166579661Y-86093128D01*
X166326374Y-85475551D01*
X166326373Y-85475551D01*
X166238150Y-85260440D01*
X164977552Y-85777449D01*
X164960541Y-85818115D01*
X164859326Y-85775776D01*
X163876290Y-86178948D01*
X163883879Y-86197452D01*
X163791358Y-86235397D01*
X163783769Y-86216893D01*
X163765265Y-86224482D01*
X163727320Y-86131961D01*
X163745824Y-86124372D01*
X163390084Y-85256988D01*
X163299374Y-85219043D01*
X163482605Y-85219043D01*
X163838345Y-86086427D01*
X164821380Y-85683255D01*
X164838391Y-85642589D01*
X164939606Y-85684928D01*
X166067134Y-85222495D01*
X166330671Y-85222495D01*
X166583958Y-85840072D01*
X166583959Y-85840072D01*
X166672182Y-86055183D01*
X167932780Y-85538174D01*
X168007821Y-85358782D01*
X167965697Y-85249060D01*
X167914960Y-85153335D01*
X167857409Y-85082708D01*
X167848797Y-84992014D01*
X167817709Y-84888229D01*
X167770661Y-84780527D01*
X167591270Y-84705486D01*
X166330671Y-85222495D01*
X166067134Y-85222495D01*
X166200205Y-85167919D01*
X165946918Y-84550342D01*
X165856205Y-84512396D01*
X166039439Y-84512396D01*
X166292726Y-85129974D01*
X167553324Y-84612965D01*
X167628365Y-84433573D01*
X167586241Y-84323851D01*
X167535504Y-84228126D01*
X167467066Y-84144138D01*
X167383558Y-84075116D01*
X167288189Y-84023711D01*
X167184624Y-83991900D01*
X167076843Y-83980904D01*
X166968988Y-83991147D01*
X166865203Y-84022235D01*
X166114480Y-84333005D01*
X166039439Y-84512396D01*
X165856205Y-84512396D01*
X165767526Y-84475301D01*
X165014784Y-84781147D01*
X164919058Y-84831884D01*
X164835071Y-84900322D01*
X164766048Y-84983830D01*
X164715993Y-85076696D01*
X164701106Y-85048609D01*
X164632668Y-84964622D01*
X164549161Y-84895599D01*
X164453792Y-84844195D01*
X164350227Y-84812383D01*
X164242446Y-84801388D01*
X164134591Y-84811630D01*
X164030806Y-84842718D01*
X163557646Y-85039651D01*
X163482605Y-85219043D01*
X163299374Y-85219043D01*
X163210692Y-85181947D01*
X163075000Y-85236777D01*
X163075000Y-78975000D01*
X168564346Y-78975000D01*
X165337892Y-80298265D01*
G37*
X165337892Y-80298265D02*
X165242167Y-80349002D01*
X165158179Y-80417440D01*
X165089157Y-80500948D01*
X165037752Y-80596317D01*
X165005941Y-80699882D01*
X164994945Y-80807663D01*
X165005188Y-80915518D01*
X165036276Y-81019303D01*
X166053219Y-83498865D01*
X166103956Y-83594590D01*
X166172394Y-83678578D01*
X166255902Y-83747600D01*
X166351271Y-83799005D01*
X166454836Y-83830816D01*
X166562617Y-83841812D01*
X166670472Y-83831569D01*
X166774257Y-83800481D01*
X170105012Y-82434439D01*
X170200737Y-82383702D01*
X170284725Y-82315264D01*
X170353747Y-82231756D01*
X170405152Y-82136387D01*
X170436963Y-82032822D01*
X170447959Y-81925041D01*
X170437716Y-81817186D01*
X170406628Y-81713401D01*
X169389685Y-79233839D01*
X169338948Y-79138114D01*
X169270510Y-79054126D01*
X169187002Y-78985104D01*
X169168257Y-78975000D01*
X170214927Y-78975000D01*
X175110868Y-90865144D01*
X175115338Y-91817339D01*
X174500000Y-91817339D01*
X174392181Y-91827958D01*
X174288506Y-91859408D01*
X174192958Y-91910479D01*
X174109210Y-91979210D01*
X174040479Y-92062958D01*
X173989408Y-92158506D01*
X173957958Y-92262181D01*
X173947339Y-92370000D01*
X173947339Y-95050000D01*
X173957958Y-95157819D01*
X173989408Y-95261494D01*
X174040479Y-95357042D01*
X174109210Y-95440790D01*
X174192958Y-95509521D01*
X174288506Y-95560592D01*
X174392181Y-95592042D01*
X174500000Y-95602661D01*
X175133109Y-95602661D01*
X175148590Y-98900000D01*
X175050283Y-98900000D01*
X175050000Y-98887500D01*
X174912500Y-98750000D01*
X173550000Y-98750000D01*
X173550000Y-98770000D01*
X173450000Y-98770000D01*
X173450000Y-98750000D01*
X172087500Y-98750000D01*
X171950000Y-98887500D01*
X171947339Y-99005000D01*
X171951771Y-99050000D01*
X171539867Y-99050000D01*
X171512815Y-99009514D01*
X170990486Y-98487185D01*
X170376291Y-98076793D01*
X169693835Y-97794110D01*
X168969343Y-97650000D01*
X168230657Y-97650000D01*
X167506229Y-97794097D01*
X167321397Y-97609265D01*
X167336496Y-97590886D01*
X167387668Y-97495391D01*
X167419226Y-97391749D01*
X167429958Y-97283941D01*
X167419451Y-97176111D01*
X167388110Y-97072403D01*
X167337139Y-96976802D01*
X167268496Y-96892982D01*
X167184820Y-96824164D01*
X167089325Y-96772992D01*
X166985683Y-96741434D01*
X166463086Y-96636914D01*
X166358566Y-96114317D01*
X166327229Y-96011209D01*
X166276158Y-95915661D01*
X166207427Y-95831913D01*
X166123679Y-95763182D01*
X166028131Y-95712111D01*
X165924456Y-95680661D01*
X165816637Y-95670042D01*
X165708818Y-95680661D01*
X165605143Y-95712111D01*
X165509595Y-95763182D01*
X165490766Y-95778634D01*
X163949785Y-94237653D01*
X164033847Y-94245655D01*
X164263132Y-94222315D01*
X164483458Y-94154691D01*
X164679960Y-94049658D01*
X164727883Y-93838594D01*
X165872117Y-93838594D01*
X165920040Y-94049658D01*
X166123651Y-94157636D01*
X166344415Y-94223816D01*
X166573847Y-94245655D01*
X166803132Y-94222315D01*
X167023458Y-94154691D01*
X167219960Y-94049658D01*
X167267883Y-93838594D01*
X166570000Y-93140711D01*
X165872117Y-93838594D01*
X164727883Y-93838594D01*
X164030000Y-93140711D01*
X164015858Y-93154853D01*
X163945147Y-93084142D01*
X163959289Y-93070000D01*
X163261406Y-92372117D01*
X163075000Y-92414441D01*
X163075000Y-91185559D01*
X163261406Y-91227883D01*
X163959289Y-90530000D01*
X163261406Y-89832117D01*
X163075000Y-89874441D01*
X163075000Y-87408824D01*
X163168322Y-87459125D01*
X163271887Y-87490937D01*
X163367008Y-87500640D01*
X163308790Y-87608650D01*
X163262588Y-87759064D01*
X163246619Y-87915600D01*
X163261495Y-88072244D01*
X163306645Y-88222976D01*
X163553292Y-88824364D01*
X163626981Y-88963392D01*
X163726377Y-89085372D01*
X163847660Y-89185617D01*
X163986170Y-89260275D01*
X164136583Y-89306476D01*
X164198173Y-89312759D01*
X164220049Y-89372801D01*
X164026153Y-89354345D01*
X163796868Y-89377685D01*
X163576542Y-89445309D01*
X163380040Y-89550342D01*
X163332117Y-89761406D01*
X164030000Y-90459289D01*
X164044142Y-90445147D01*
X164114853Y-90515858D01*
X164100711Y-90530000D01*
X164114853Y-90544142D01*
X164044142Y-90614853D01*
X164030000Y-90600711D01*
X163332117Y-91298594D01*
X163380040Y-91509658D01*
X163583651Y-91617636D01*
X163804415Y-91683816D01*
X164033847Y-91705655D01*
X164130000Y-91695867D01*
X164130000Y-91904230D01*
X164026153Y-91894345D01*
X163796868Y-91917685D01*
X163576542Y-91985309D01*
X163380040Y-92090342D01*
X163332117Y-92301406D01*
X164030000Y-92999289D01*
X164044142Y-92985147D01*
X164114853Y-93055858D01*
X164100711Y-93070000D01*
X164798594Y-93767883D01*
X165009658Y-93719960D01*
X165117636Y-93516349D01*
X165183816Y-93295585D01*
X165205655Y-93066153D01*
X165195867Y-92970000D01*
X165404230Y-92970000D01*
X165394345Y-93073847D01*
X165417685Y-93303132D01*
X165485309Y-93523458D01*
X165590342Y-93719960D01*
X165801406Y-93767883D01*
X166499289Y-93070000D01*
X166485147Y-93055858D01*
X166555858Y-92985147D01*
X166570000Y-92999289D01*
X166584142Y-92985147D01*
X166654853Y-93055858D01*
X166640711Y-93070000D01*
X167338594Y-93767883D01*
X167549658Y-93719960D01*
X167657636Y-93516349D01*
X167723816Y-93295585D01*
X167736019Y-93167389D01*
X167900001Y-93331372D01*
X167900000Y-95060709D01*
X167896130Y-95100000D01*
X167900000Y-95139291D01*
X167900000Y-95139292D01*
X167911576Y-95256826D01*
X167941976Y-95357042D01*
X167957321Y-95407627D01*
X168031607Y-95546606D01*
X168077151Y-95602101D01*
X168131578Y-95668422D01*
X168162103Y-95693473D01*
X168631527Y-96162897D01*
X168656578Y-96193422D01*
X168730233Y-96253869D01*
X168778393Y-96293393D01*
X168871525Y-96343173D01*
X168917372Y-96367679D01*
X169068173Y-96413424D01*
X169185707Y-96425000D01*
X169185708Y-96425000D01*
X169224999Y-96428870D01*
X169264290Y-96425000D01*
X169306465Y-96425000D01*
X169382433Y-96517567D01*
X169504065Y-96617388D01*
X169618103Y-96678343D01*
X169633419Y-96728833D01*
X169657321Y-96807627D01*
X169731607Y-96946606D01*
X169777151Y-97002101D01*
X169831578Y-97068422D01*
X169862103Y-97093473D01*
X171006531Y-98237902D01*
X171031578Y-98268422D01*
X171062098Y-98293469D01*
X171153393Y-98368393D01*
X171292372Y-98442679D01*
X171443173Y-98488424D01*
X171560707Y-98500000D01*
X171560716Y-98500000D01*
X171599999Y-98503869D01*
X171639282Y-98500000D01*
X171949717Y-98500000D01*
X171950000Y-98512500D01*
X172087500Y-98650000D01*
X173450000Y-98650000D01*
X173450000Y-98630000D01*
X173550000Y-98630000D01*
X173550000Y-98650000D01*
X174912500Y-98650000D01*
X175050000Y-98512500D01*
X175052661Y-98395000D01*
X175042042Y-98287181D01*
X175015595Y-98200000D01*
X175042042Y-98112819D01*
X175052661Y-98005000D01*
X175052661Y-97395000D01*
X175042042Y-97287181D01*
X175015595Y-97200000D01*
X175042042Y-97112819D01*
X175052661Y-97005000D01*
X175050000Y-96887500D01*
X174912500Y-96750000D01*
X173550000Y-96750000D01*
X173550000Y-96770000D01*
X173450000Y-96770000D01*
X173450000Y-96750000D01*
X172087500Y-96750000D01*
X171950000Y-96887500D01*
X171949717Y-96900000D01*
X171931371Y-96900000D01*
X171476783Y-96445412D01*
X171517388Y-96395935D01*
X171517887Y-96395000D01*
X171947339Y-96395000D01*
X171950000Y-96512500D01*
X172087500Y-96650000D01*
X173450000Y-96650000D01*
X173450000Y-95982500D01*
X173550000Y-95982500D01*
X173550000Y-96650000D01*
X174912500Y-96650000D01*
X175050000Y-96512500D01*
X175052661Y-96395000D01*
X175042042Y-96287181D01*
X175010592Y-96183506D01*
X174959521Y-96087958D01*
X174890790Y-96004210D01*
X174807042Y-95935479D01*
X174711494Y-95884408D01*
X174607819Y-95852958D01*
X174500000Y-95842339D01*
X173687500Y-95845000D01*
X173550000Y-95982500D01*
X173450000Y-95982500D01*
X173312500Y-95845000D01*
X172500000Y-95842339D01*
X172392181Y-95852958D01*
X172288506Y-95884408D01*
X172192958Y-95935479D01*
X172109210Y-96004210D01*
X172040479Y-96087958D01*
X171989408Y-96183506D01*
X171957958Y-96287181D01*
X171947339Y-96395000D01*
X171517887Y-96395000D01*
X171591562Y-96257166D01*
X171637238Y-96106592D01*
X171652661Y-95950001D01*
X171652661Y-95299999D01*
X171637238Y-95143408D01*
X171591562Y-94992834D01*
X171517388Y-94854065D01*
X171417567Y-94732433D01*
X171322718Y-94654593D01*
X171407042Y-94609521D01*
X171490790Y-94540790D01*
X171559521Y-94457042D01*
X171610592Y-94361494D01*
X171642042Y-94257819D01*
X171652661Y-94150000D01*
X171650000Y-93762500D01*
X171512500Y-93625000D01*
X170450000Y-93625000D01*
X170450000Y-93645000D01*
X170350000Y-93645000D01*
X170350000Y-93625000D01*
X170330000Y-93625000D01*
X170330000Y-93525000D01*
X170350000Y-93525000D01*
X170350000Y-92587500D01*
X170450000Y-92587500D01*
X170450000Y-93525000D01*
X171512500Y-93525000D01*
X171650000Y-93387500D01*
X171652661Y-93000000D01*
X171642042Y-92892181D01*
X171610592Y-92788506D01*
X171559521Y-92692958D01*
X171490790Y-92609210D01*
X171407042Y-92540479D01*
X171311494Y-92489408D01*
X171207819Y-92457958D01*
X171100000Y-92447339D01*
X170587500Y-92450000D01*
X170450000Y-92587500D01*
X170350000Y-92587500D01*
X170212500Y-92450000D01*
X169700000Y-92447339D01*
X169592181Y-92457958D01*
X169488506Y-92489408D01*
X169392958Y-92540479D01*
X169371085Y-92558430D01*
X169368393Y-92553393D01*
X169293469Y-92462098D01*
X169268422Y-92431578D01*
X169237902Y-92406531D01*
X168093473Y-91262103D01*
X168068422Y-91231578D01*
X167946606Y-91131607D01*
X167807628Y-91057321D01*
X167656827Y-91011576D01*
X167639842Y-91009903D01*
X167657636Y-90976349D01*
X167723816Y-90755585D01*
X167745655Y-90526153D01*
X167722315Y-90296868D01*
X167654691Y-90076542D01*
X167549658Y-89880040D01*
X167338594Y-89832117D01*
X166640711Y-90530000D01*
X166654853Y-90544142D01*
X166584142Y-90614853D01*
X166570000Y-90600711D01*
X166555858Y-90614853D01*
X166485147Y-90544142D01*
X166499289Y-90530000D01*
X166485147Y-90515858D01*
X166555858Y-90445147D01*
X166570000Y-90459289D01*
X167267883Y-89761406D01*
X167219960Y-89550342D01*
X167016349Y-89442364D01*
X166795585Y-89376184D01*
X166566153Y-89354345D01*
X166336868Y-89377685D01*
X166116542Y-89445309D01*
X165976601Y-89520110D01*
X165694913Y-88746952D01*
X165706882Y-88732470D01*
X166040880Y-88732470D01*
X166083004Y-88842192D01*
X166133741Y-88937917D01*
X166202179Y-89021905D01*
X166285687Y-89090927D01*
X166381056Y-89142332D01*
X166484621Y-89174143D01*
X166592402Y-89185139D01*
X166700257Y-89174896D01*
X166804042Y-89143808D01*
X166871106Y-89116046D01*
X168402461Y-89116046D01*
X168412704Y-89223901D01*
X168443792Y-89327686D01*
X169460735Y-91807248D01*
X169511472Y-91902973D01*
X169579910Y-91986961D01*
X169663418Y-92055983D01*
X169758787Y-92107388D01*
X169862352Y-92139199D01*
X169970133Y-92150195D01*
X170077988Y-92139952D01*
X170181773Y-92108864D01*
X173512528Y-90742822D01*
X173608253Y-90692085D01*
X173692241Y-90623647D01*
X173761263Y-90540139D01*
X173812668Y-90444770D01*
X173844479Y-90341205D01*
X173855475Y-90233424D01*
X173845232Y-90125569D01*
X173814144Y-90021784D01*
X172797201Y-87542222D01*
X172746464Y-87446497D01*
X172678026Y-87362509D01*
X172594518Y-87293487D01*
X172499149Y-87242082D01*
X172395584Y-87210271D01*
X172287803Y-87199275D01*
X172179948Y-87209518D01*
X172076163Y-87240606D01*
X168745408Y-88606648D01*
X168649683Y-88657385D01*
X168565695Y-88725823D01*
X168496673Y-88809331D01*
X168445268Y-88904700D01*
X168413457Y-89008265D01*
X168402461Y-89116046D01*
X166871106Y-89116046D01*
X167554765Y-88833038D01*
X167629806Y-88653647D01*
X167376519Y-88036069D01*
X166115921Y-88553078D01*
X166040880Y-88732470D01*
X165706882Y-88732470D01*
X165794439Y-88626539D01*
X165869096Y-88488030D01*
X165900357Y-88386258D01*
X166077975Y-88460557D01*
X167205503Y-87998124D01*
X167469040Y-87998124D01*
X167722327Y-88615701D01*
X167901719Y-88690742D01*
X168654461Y-88384896D01*
X168750187Y-88334159D01*
X168834174Y-88265721D01*
X168903197Y-88182213D01*
X168954601Y-88086844D01*
X168986413Y-87983279D01*
X168997408Y-87875498D01*
X168987166Y-87767643D01*
X168956078Y-87663858D01*
X168909030Y-87556156D01*
X168729639Y-87481115D01*
X167469040Y-87998124D01*
X167205503Y-87998124D01*
X167338574Y-87943548D01*
X167330985Y-87925044D01*
X167423506Y-87887099D01*
X167431095Y-87905603D01*
X168691693Y-87388594D01*
X168766734Y-87209202D01*
X168724610Y-87099480D01*
X168673873Y-87003755D01*
X168616323Y-86933129D01*
X168607710Y-86842433D01*
X168576622Y-86738649D01*
X168345154Y-86174271D01*
X168294417Y-86078545D01*
X168236865Y-86007917D01*
X168228253Y-85917223D01*
X168197165Y-85813438D01*
X168150117Y-85705736D01*
X167970726Y-85630695D01*
X166710127Y-86147704D01*
X166717716Y-86166208D01*
X166625195Y-86204153D01*
X166617606Y-86185649D01*
X165357008Y-86702658D01*
X165281967Y-86882050D01*
X165283420Y-86885834D01*
X165191716Y-86836405D01*
X165074424Y-86800377D01*
X165135337Y-86726681D01*
X165186741Y-86631311D01*
X165207571Y-86563499D01*
X165319062Y-86610137D01*
X166579661Y-86093128D01*
X166326374Y-85475551D01*
X166326373Y-85475551D01*
X166238150Y-85260440D01*
X164977552Y-85777449D01*
X164960541Y-85818115D01*
X164859326Y-85775776D01*
X163876290Y-86178948D01*
X163883879Y-86197452D01*
X163791358Y-86235397D01*
X163783769Y-86216893D01*
X163765265Y-86224482D01*
X163727320Y-86131961D01*
X163745824Y-86124372D01*
X163390084Y-85256988D01*
X163299374Y-85219043D01*
X163482605Y-85219043D01*
X163838345Y-86086427D01*
X164821380Y-85683255D01*
X164838391Y-85642589D01*
X164939606Y-85684928D01*
X166067134Y-85222495D01*
X166330671Y-85222495D01*
X166583958Y-85840072D01*
X166583959Y-85840072D01*
X166672182Y-86055183D01*
X167932780Y-85538174D01*
X168007821Y-85358782D01*
X167965697Y-85249060D01*
X167914960Y-85153335D01*
X167857409Y-85082708D01*
X167848797Y-84992014D01*
X167817709Y-84888229D01*
X167770661Y-84780527D01*
X167591270Y-84705486D01*
X166330671Y-85222495D01*
X166067134Y-85222495D01*
X166200205Y-85167919D01*
X165946918Y-84550342D01*
X165856205Y-84512396D01*
X166039439Y-84512396D01*
X166292726Y-85129974D01*
X167553324Y-84612965D01*
X167628365Y-84433573D01*
X167586241Y-84323851D01*
X167535504Y-84228126D01*
X167467066Y-84144138D01*
X167383558Y-84075116D01*
X167288189Y-84023711D01*
X167184624Y-83991900D01*
X167076843Y-83980904D01*
X166968988Y-83991147D01*
X166865203Y-84022235D01*
X166114480Y-84333005D01*
X166039439Y-84512396D01*
X165856205Y-84512396D01*
X165767526Y-84475301D01*
X165014784Y-84781147D01*
X164919058Y-84831884D01*
X164835071Y-84900322D01*
X164766048Y-84983830D01*
X164715993Y-85076696D01*
X164701106Y-85048609D01*
X164632668Y-84964622D01*
X164549161Y-84895599D01*
X164453792Y-84844195D01*
X164350227Y-84812383D01*
X164242446Y-84801388D01*
X164134591Y-84811630D01*
X164030806Y-84842718D01*
X163557646Y-85039651D01*
X163482605Y-85219043D01*
X163299374Y-85219043D01*
X163210692Y-85181947D01*
X163075000Y-85236777D01*
X163075000Y-78975000D01*
X168564346Y-78975000D01*
X165337892Y-80298265D01*
D23*
G36*
X165601896Y-96950424D02*
G01*
X165614350Y-97012693D01*
X165648294Y-97124594D01*
X165703900Y-97228886D01*
X165778783Y-97320326D01*
X165870066Y-97395400D01*
X165974242Y-97451223D01*
X166087307Y-97485650D01*
X166149576Y-97498104D01*
X168275736Y-99624264D01*
X168366658Y-99698882D01*
X168470390Y-99754328D01*
X168582946Y-99788471D01*
X168700000Y-99800000D01*
X171897097Y-99800000D01*
X171897097Y-100005000D01*
X171908682Y-100122621D01*
X171932154Y-100200000D01*
X171908682Y-100277379D01*
X171897097Y-100395000D01*
X171897097Y-101005000D01*
X171908682Y-101122621D01*
X171932154Y-101200000D01*
X171908682Y-101277379D01*
X171897097Y-101395000D01*
X171897097Y-102005000D01*
X171908682Y-102122621D01*
X171932154Y-102200000D01*
X171908682Y-102277379D01*
X171897097Y-102395000D01*
X171897097Y-103005000D01*
X171908682Y-103122621D01*
X171942990Y-103235721D01*
X171998704Y-103339955D01*
X172073683Y-103431317D01*
X172165045Y-103506296D01*
X172269279Y-103562010D01*
X172382379Y-103596318D01*
X172500000Y-103607903D01*
X174500000Y-103607903D01*
X174568700Y-103601136D01*
X174678955Y-103674807D01*
X174879142Y-103757727D01*
X175091659Y-103800000D01*
X175308341Y-103800000D01*
X175520858Y-103757727D01*
X175721045Y-103674807D01*
X175901209Y-103554425D01*
X176054425Y-103401209D01*
X176174807Y-103221045D01*
X176257727Y-103020858D01*
X176300000Y-102808341D01*
X176300000Y-102800000D01*
X176408341Y-102800000D01*
X176620858Y-102757727D01*
X176821045Y-102674807D01*
X177001209Y-102554425D01*
X177154425Y-102401209D01*
X177274807Y-102221045D01*
X177300000Y-102160224D01*
X177300000Y-112239776D01*
X177274807Y-112178955D01*
X177154425Y-111998791D01*
X177001209Y-111845575D01*
X176821045Y-111725193D01*
X176620858Y-111642273D01*
X176408341Y-111600000D01*
X176300000Y-111600000D01*
X176300000Y-111591659D01*
X176257727Y-111379142D01*
X176174807Y-111178955D01*
X176054425Y-110998791D01*
X175901209Y-110845575D01*
X175721045Y-110725193D01*
X175520858Y-110642273D01*
X175308341Y-110600000D01*
X175091659Y-110600000D01*
X174879142Y-110642273D01*
X174678955Y-110725193D01*
X174568700Y-110798864D01*
X174500000Y-110792097D01*
X172500000Y-110792097D01*
X172382379Y-110803682D01*
X172269279Y-110837990D01*
X172165045Y-110893704D01*
X172073683Y-110968683D01*
X171998704Y-111060045D01*
X171942990Y-111164279D01*
X171908682Y-111277379D01*
X171897097Y-111395000D01*
X171897097Y-112005000D01*
X171908682Y-112122621D01*
X171932154Y-112200000D01*
X171908682Y-112277379D01*
X171897097Y-112395000D01*
X171897097Y-113005000D01*
X171908682Y-113122621D01*
X171932154Y-113200000D01*
X171908682Y-113277379D01*
X171897097Y-113395000D01*
X171897097Y-114005000D01*
X171908682Y-114122621D01*
X171932154Y-114200000D01*
X171908682Y-114277379D01*
X171897097Y-114395000D01*
X171897097Y-115005000D01*
X171908682Y-115122621D01*
X171924186Y-115173733D01*
X170247920Y-116850000D01*
X166752081Y-116850000D01*
X164479903Y-114577823D01*
X164479903Y-113286000D01*
X164468318Y-113168379D01*
X164434010Y-113055279D01*
X164378296Y-112951045D01*
X164303317Y-112859683D01*
X164211955Y-112784704D01*
X164107721Y-112728990D01*
X163994621Y-112694682D01*
X163877000Y-112683097D01*
X163332000Y-112683097D01*
X163332000Y-112471659D01*
X163289727Y-112259142D01*
X163206807Y-112058955D01*
X163086425Y-111878791D01*
X163027156Y-111819522D01*
X163020424Y-111751173D01*
X162974679Y-111600372D01*
X162964125Y-111580627D01*
X162949903Y-111554019D01*
X162949903Y-110773000D01*
X162938195Y-110654761D01*
X162903768Y-110541696D01*
X162847945Y-110437521D01*
X162772871Y-110346237D01*
X162681430Y-110271354D01*
X161931430Y-109771354D01*
X161828304Y-109716232D01*
X161715239Y-109681805D01*
X161597631Y-109670097D01*
X161479998Y-109681559D01*
X161366862Y-109715749D01*
X161262570Y-109771354D01*
X160512570Y-110271354D01*
X160420683Y-110346683D01*
X160345704Y-110438045D01*
X160289990Y-110542279D01*
X160255682Y-110655379D01*
X160244097Y-110773000D01*
X160244097Y-111554020D01*
X160219321Y-111600373D01*
X160209431Y-111632977D01*
X160173576Y-111751173D01*
X160166844Y-111819522D01*
X160107575Y-111878791D01*
X159987193Y-112058955D01*
X159904273Y-112259142D01*
X159862000Y-112471659D01*
X159862000Y-112688341D01*
X159874686Y-112752114D01*
X159668237Y-112234647D01*
X159645981Y-112190967D01*
X159624861Y-112146687D01*
X159616311Y-112132736D01*
X159157341Y-111405312D01*
X159127485Y-111366402D01*
X159098661Y-111326730D01*
X159087712Y-111314570D01*
X158503866Y-110682968D01*
X158467408Y-110650142D01*
X158431848Y-110616396D01*
X158418866Y-110606435D01*
X157729696Y-110091807D01*
X157687872Y-110066177D01*
X157646752Y-110039474D01*
X157632173Y-110032045D01*
X156860759Y-109651626D01*
X156814968Y-109634049D01*
X156769668Y-109615285D01*
X156753979Y-109610638D01*
X155926157Y-109377167D01*
X155877924Y-109368228D01*
X155829968Y-109358034D01*
X155813697Y-109356324D01*
X155813695Y-109356324D01*
X154959235Y-109277810D01*
X154930704Y-109275000D01*
X148861463Y-109275000D01*
X148929610Y-109254328D01*
X149033342Y-109198882D01*
X149124264Y-109124264D01*
X149198882Y-109033342D01*
X149254328Y-108929610D01*
X149288471Y-108817054D01*
X149300000Y-108700000D01*
X149300000Y-106500000D01*
X149288471Y-106382946D01*
X149254328Y-106270390D01*
X149198882Y-106166658D01*
X149124264Y-106075736D01*
X149033342Y-106001118D01*
X148929610Y-105945672D01*
X148817054Y-105911529D01*
X148700000Y-105900000D01*
X146452903Y-105900000D01*
X146452903Y-104891659D01*
X153800000Y-104891659D01*
X153800000Y-105108341D01*
X153842273Y-105320858D01*
X153925193Y-105521045D01*
X154045575Y-105701209D01*
X154198791Y-105854425D01*
X154378955Y-105974807D01*
X154579142Y-106057727D01*
X154791659Y-106100000D01*
X155008341Y-106100000D01*
X155165878Y-106068663D01*
X155276152Y-106159163D01*
X155423608Y-106237980D01*
X155583606Y-106286515D01*
X155749999Y-106302903D01*
X156400001Y-106302903D01*
X156566394Y-106286515D01*
X156726392Y-106237980D01*
X156873848Y-106159163D01*
X157003094Y-106053094D01*
X157100000Y-105935013D01*
X157196906Y-106053094D01*
X157326152Y-106159163D01*
X157473608Y-106237980D01*
X157633606Y-106286515D01*
X157799999Y-106302903D01*
X158450001Y-106302903D01*
X158616394Y-106286515D01*
X158776392Y-106237980D01*
X158810000Y-106220016D01*
X158810000Y-106390160D01*
X158856884Y-106625861D01*
X158948850Y-106847887D01*
X159082364Y-107047705D01*
X159252295Y-107217636D01*
X159452113Y-107351150D01*
X159674139Y-107443116D01*
X159909840Y-107490000D01*
X160150160Y-107490000D01*
X160385861Y-107443116D01*
X160607887Y-107351150D01*
X160807705Y-107217636D01*
X160905341Y-107120000D01*
X161694659Y-107120000D01*
X161792295Y-107217636D01*
X161992113Y-107351150D01*
X162214139Y-107443116D01*
X162449840Y-107490000D01*
X162587920Y-107490000D01*
X163469438Y-108371519D01*
X163496052Y-108403948D01*
X163625481Y-108510168D01*
X163773145Y-108589097D01*
X163933371Y-108637700D01*
X164058251Y-108650000D01*
X164058259Y-108650000D01*
X164100000Y-108654111D01*
X164141741Y-108650000D01*
X167272097Y-108650000D01*
X167272097Y-108950000D01*
X167283682Y-109067621D01*
X167317990Y-109180721D01*
X167373704Y-109284955D01*
X167448683Y-109376317D01*
X167540045Y-109451296D01*
X167644279Y-109507010D01*
X167757379Y-109541318D01*
X167875000Y-109552903D01*
X168875000Y-109552903D01*
X168993239Y-109541195D01*
X169025046Y-109531510D01*
X169057379Y-109541318D01*
X169175000Y-109552903D01*
X170046532Y-109552903D01*
X170731531Y-110237902D01*
X170756578Y-110268422D01*
X170787098Y-110293469D01*
X170878393Y-110368393D01*
X170908898Y-110384698D01*
X171017372Y-110442679D01*
X171168173Y-110488424D01*
X171285707Y-110500000D01*
X171285716Y-110500000D01*
X171324999Y-110503869D01*
X171364282Y-110500000D01*
X172157373Y-110500000D01*
X172165045Y-110506296D01*
X172269279Y-110562010D01*
X172382379Y-110596318D01*
X172500000Y-110607903D01*
X174500000Y-110607903D01*
X174617621Y-110596318D01*
X174730721Y-110562010D01*
X174753190Y-110550000D01*
X174758259Y-110550000D01*
X174800000Y-110554111D01*
X174841741Y-110550000D01*
X174841749Y-110550000D01*
X174966629Y-110537700D01*
X175126855Y-110489097D01*
X175274519Y-110410168D01*
X175403948Y-110303948D01*
X175430565Y-110271515D01*
X175771520Y-109930561D01*
X175803948Y-109903948D01*
X175910168Y-109774519D01*
X175989097Y-109626855D01*
X176037700Y-109466629D01*
X176050000Y-109341749D01*
X176050000Y-109341739D01*
X176054111Y-109300001D01*
X176050000Y-109258263D01*
X176050000Y-108141737D01*
X176054111Y-108099999D01*
X176050000Y-108058261D01*
X176050000Y-108058251D01*
X176037700Y-107933371D01*
X175989097Y-107773145D01*
X175910168Y-107625481D01*
X175803948Y-107496052D01*
X175771519Y-107469438D01*
X175430565Y-107128485D01*
X175403948Y-107096052D01*
X175274519Y-106989832D01*
X175126855Y-106910903D01*
X174966629Y-106862300D01*
X174841749Y-106850000D01*
X174841741Y-106850000D01*
X174800000Y-106845889D01*
X174758259Y-106850000D01*
X174753190Y-106850000D01*
X174730721Y-106837990D01*
X174617621Y-106803682D01*
X174500000Y-106792097D01*
X172500000Y-106792097D01*
X172382379Y-106803682D01*
X172269279Y-106837990D01*
X172239712Y-106853794D01*
X172237700Y-106833371D01*
X172189097Y-106673145D01*
X172110168Y-106525481D01*
X172080308Y-106489097D01*
X172030561Y-106428479D01*
X172030557Y-106428475D01*
X172003948Y-106396052D01*
X171971524Y-106369443D01*
X171869937Y-106267856D01*
X171920858Y-106257727D01*
X171948608Y-106246232D01*
X171998704Y-106339955D01*
X172073683Y-106431317D01*
X172165045Y-106506296D01*
X172269279Y-106562010D01*
X172382379Y-106596318D01*
X172500000Y-106607903D01*
X174500000Y-106607903D01*
X174568700Y-106601136D01*
X174678955Y-106674807D01*
X174879142Y-106757727D01*
X175091659Y-106800000D01*
X175308341Y-106800000D01*
X175520858Y-106757727D01*
X175721045Y-106674807D01*
X175901209Y-106554425D01*
X176054425Y-106401209D01*
X176174807Y-106221045D01*
X176257727Y-106020858D01*
X176300000Y-105808341D01*
X176300000Y-105591659D01*
X176257727Y-105379142D01*
X176174807Y-105178955D01*
X176054425Y-104998791D01*
X175901209Y-104845575D01*
X175721045Y-104725193D01*
X175520858Y-104642273D01*
X175308341Y-104600000D01*
X175102903Y-104600000D01*
X175102903Y-104395000D01*
X175091318Y-104277379D01*
X175057010Y-104164279D01*
X175001296Y-104060045D01*
X174926317Y-103968683D01*
X174834955Y-103893704D01*
X174730721Y-103837990D01*
X174617621Y-103803682D01*
X174500000Y-103792097D01*
X172500000Y-103792097D01*
X172382379Y-103803682D01*
X172269279Y-103837990D01*
X172246810Y-103850000D01*
X172141741Y-103850000D01*
X172100000Y-103845889D01*
X172058259Y-103850000D01*
X172058251Y-103850000D01*
X171933371Y-103862300D01*
X171773145Y-103910903D01*
X171625481Y-103989832D01*
X171496052Y-104096052D01*
X171492812Y-104100000D01*
X171491659Y-104100000D01*
X171279142Y-104142273D01*
X171078955Y-104225193D01*
X170898791Y-104345575D01*
X170745575Y-104498791D01*
X170625193Y-104678955D01*
X170542273Y-104879142D01*
X170500000Y-105091659D01*
X170500000Y-105308341D01*
X170528178Y-105450000D01*
X167418054Y-105450000D01*
X167416318Y-105432379D01*
X167382010Y-105319279D01*
X167326296Y-105215045D01*
X167251317Y-105123683D01*
X167159955Y-105048704D01*
X167055721Y-104992990D01*
X166942621Y-104958682D01*
X166825000Y-104947097D01*
X165675000Y-104947097D01*
X165557998Y-104958559D01*
X165525045Y-104968518D01*
X165492621Y-104958682D01*
X165375000Y-104947097D01*
X164724178Y-104947097D01*
X164205566Y-104428485D01*
X164178948Y-104396052D01*
X164049519Y-104289832D01*
X163901855Y-104210903D01*
X163741629Y-104162300D01*
X163712637Y-104159444D01*
X163743116Y-104085861D01*
X163790000Y-103850160D01*
X163790000Y-103609840D01*
X163743116Y-103374139D01*
X163651150Y-103152113D01*
X163517636Y-102952295D01*
X163347705Y-102782364D01*
X163147887Y-102648850D01*
X162925861Y-102556884D01*
X162690160Y-102510000D01*
X162449840Y-102510000D01*
X162214139Y-102556884D01*
X161992113Y-102648850D01*
X161792295Y-102782364D01*
X161694659Y-102880000D01*
X160905341Y-102880000D01*
X160807705Y-102782364D01*
X160607887Y-102648850D01*
X160385861Y-102556884D01*
X160150160Y-102510000D01*
X159909840Y-102510000D01*
X159674139Y-102556884D01*
X159452113Y-102648850D01*
X159252295Y-102782364D01*
X159082364Y-102952295D01*
X158948850Y-103152113D01*
X158856884Y-103374139D01*
X158810000Y-103609840D01*
X158810000Y-103779984D01*
X158776392Y-103762020D01*
X158616394Y-103713485D01*
X158450001Y-103697097D01*
X157799999Y-103697097D01*
X157633606Y-103713485D01*
X157473608Y-103762020D01*
X157326152Y-103840837D01*
X157196906Y-103946906D01*
X157100000Y-104064987D01*
X157003094Y-103946906D01*
X156873848Y-103840837D01*
X156726392Y-103762020D01*
X156566394Y-103713485D01*
X156400001Y-103697097D01*
X155749999Y-103697097D01*
X155583606Y-103713485D01*
X155423608Y-103762020D01*
X155276152Y-103840837D01*
X155165878Y-103931337D01*
X155008341Y-103900000D01*
X154791659Y-103900000D01*
X154579142Y-103942273D01*
X154378955Y-104025193D01*
X154198791Y-104145575D01*
X154045575Y-104298791D01*
X153925193Y-104478955D01*
X153842273Y-104679142D01*
X153800000Y-104891659D01*
X146452903Y-104891659D01*
X146452903Y-104300000D01*
X146436515Y-104133607D01*
X146387980Y-103973608D01*
X146309163Y-103826152D01*
X146203093Y-103696907D01*
X146073848Y-103590837D01*
X145926392Y-103512020D01*
X145766393Y-103463485D01*
X145600000Y-103447097D01*
X143600000Y-103447097D01*
X143433607Y-103463485D01*
X143273608Y-103512020D01*
X143126152Y-103590837D01*
X142996907Y-103696907D01*
X142994369Y-103700000D01*
X142100000Y-103700000D01*
X141982946Y-103711529D01*
X141870390Y-103745672D01*
X141766658Y-103801118D01*
X141675736Y-103875736D01*
X141601118Y-103966658D01*
X141545672Y-104070390D01*
X141511529Y-104182946D01*
X141500000Y-104300000D01*
X141500000Y-105905011D01*
X141403966Y-105914470D01*
X141215465Y-105971651D01*
X141041742Y-106064508D01*
X140889472Y-106189472D01*
X140858160Y-106227626D01*
X139618322Y-107467465D01*
X139478955Y-107525193D01*
X139298791Y-107645575D01*
X139145575Y-107798791D01*
X139025193Y-107978955D01*
X138942273Y-108179142D01*
X138900000Y-108391659D01*
X138900000Y-108608341D01*
X138942273Y-108820858D01*
X139025193Y-109021045D01*
X139145575Y-109201209D01*
X139295226Y-109350860D01*
X138643197Y-109480556D01*
X138596173Y-109494485D01*
X138548805Y-109507177D01*
X138533530Y-109513041D01*
X137734647Y-109831763D01*
X137690967Y-109854019D01*
X137646687Y-109875139D01*
X137632736Y-109883689D01*
X136905312Y-110342659D01*
X136866402Y-110372515D01*
X136826730Y-110401339D01*
X136814570Y-110412288D01*
X136182968Y-110996134D01*
X136150142Y-111032592D01*
X136116396Y-111068152D01*
X136106435Y-111081134D01*
X135591807Y-111770304D01*
X135566177Y-111812128D01*
X135539474Y-111853248D01*
X135532045Y-111867827D01*
X135151626Y-112639241D01*
X135134049Y-112685032D01*
X135115285Y-112730332D01*
X135110638Y-112746021D01*
X134877167Y-113573843D01*
X134868228Y-113622076D01*
X134858034Y-113670032D01*
X134856324Y-113686305D01*
X134777796Y-114540916D01*
X134775001Y-114569296D01*
X134775000Y-116975000D01*
X118625000Y-116975000D01*
X118625000Y-108050000D01*
X133046613Y-108050000D01*
X133060128Y-108187224D01*
X133100155Y-108319175D01*
X133165155Y-108440781D01*
X133252630Y-108547370D01*
X133359219Y-108634845D01*
X133480825Y-108699845D01*
X133612776Y-108739872D01*
X133750000Y-108753387D01*
X134725000Y-108750000D01*
X134900000Y-108575000D01*
X134900000Y-106150000D01*
X135100000Y-106150000D01*
X135100000Y-108575000D01*
X135275000Y-108750000D01*
X136250000Y-108753387D01*
X136387224Y-108739872D01*
X136519175Y-108699845D01*
X136640781Y-108634845D01*
X136747370Y-108547370D01*
X136834845Y-108440781D01*
X136899845Y-108319175D01*
X136939872Y-108187224D01*
X136953387Y-108050000D01*
X136950000Y-106325000D01*
X136775000Y-106150000D01*
X135100000Y-106150000D01*
X134900000Y-106150000D01*
X133225000Y-106150000D01*
X133050000Y-106325000D01*
X133046613Y-108050000D01*
X118625000Y-108050000D01*
X118625000Y-104050000D01*
X133046613Y-104050000D01*
X133050000Y-105775000D01*
X133225000Y-105950000D01*
X134900000Y-105950000D01*
X134900000Y-103525000D01*
X135100000Y-103525000D01*
X135100000Y-105950000D01*
X136775000Y-105950000D01*
X136950000Y-105775000D01*
X136953387Y-104050000D01*
X136939872Y-103912776D01*
X136899845Y-103780825D01*
X136834845Y-103659219D01*
X136747370Y-103552630D01*
X136640781Y-103465155D01*
X136519175Y-103400155D01*
X136387224Y-103360128D01*
X136250000Y-103346613D01*
X135275000Y-103350000D01*
X135100000Y-103525000D01*
X134900000Y-103525000D01*
X134725000Y-103350000D01*
X133750000Y-103346613D01*
X133612776Y-103360128D01*
X133480825Y-103400155D01*
X133359219Y-103465155D01*
X133252630Y-103552630D01*
X133165155Y-103659219D01*
X133100155Y-103780825D01*
X133060128Y-103912776D01*
X133046613Y-104050000D01*
X118625000Y-104050000D01*
X118625000Y-95625000D01*
X134229584Y-95625000D01*
X134198791Y-95645575D01*
X134045575Y-95798791D01*
X133925193Y-95978955D01*
X133842273Y-96179142D01*
X133800000Y-96391659D01*
X133800000Y-96608341D01*
X133842273Y-96820858D01*
X133900000Y-96960224D01*
X133900000Y-97356946D01*
X133833607Y-97363485D01*
X133673608Y-97412020D01*
X133526152Y-97490837D01*
X133514987Y-97500000D01*
X132300000Y-97500000D01*
X132143928Y-97515372D01*
X131993853Y-97560896D01*
X131855544Y-97634824D01*
X131734315Y-97734315D01*
X131634824Y-97855544D01*
X131560896Y-97993853D01*
X131515372Y-98143928D01*
X131500000Y-98300000D01*
X131500000Y-101500000D01*
X131515372Y-101656072D01*
X131560896Y-101806147D01*
X131634824Y-101944456D01*
X131734315Y-102065685D01*
X131855544Y-102165176D01*
X131993853Y-102239104D01*
X132143928Y-102284628D01*
X132300000Y-102300000D01*
X133394369Y-102300000D01*
X133396907Y-102303093D01*
X133526152Y-102409163D01*
X133673608Y-102487980D01*
X133833607Y-102536515D01*
X134000000Y-102552903D01*
X136000000Y-102552903D01*
X136019602Y-102550972D01*
X136334315Y-102865685D01*
X136455544Y-102965176D01*
X136593853Y-103039104D01*
X136743928Y-103084628D01*
X136900000Y-103100000D01*
X139100000Y-103100000D01*
X139256072Y-103084628D01*
X139406147Y-103039104D01*
X139544456Y-102965176D01*
X139665685Y-102865685D01*
X139765176Y-102744456D01*
X139839104Y-102606147D01*
X139884628Y-102456072D01*
X139900000Y-102300000D01*
X139900000Y-101950000D01*
X142646613Y-101950000D01*
X142660128Y-102087224D01*
X142700155Y-102219175D01*
X142765155Y-102340781D01*
X142852630Y-102447370D01*
X142959219Y-102534845D01*
X143080825Y-102599845D01*
X143212776Y-102639872D01*
X143350000Y-102653387D01*
X144325000Y-102650000D01*
X144500000Y-102475000D01*
X144500000Y-100050000D01*
X144700000Y-100050000D01*
X144700000Y-102475000D01*
X144875000Y-102650000D01*
X145850000Y-102653387D01*
X145987224Y-102639872D01*
X146119175Y-102599845D01*
X146240781Y-102534845D01*
X146347370Y-102447370D01*
X146434845Y-102340781D01*
X146499845Y-102219175D01*
X146539872Y-102087224D01*
X146553387Y-101950000D01*
X146550000Y-100225000D01*
X146375000Y-100050000D01*
X144700000Y-100050000D01*
X144500000Y-100050000D01*
X142825000Y-100050000D01*
X142650000Y-100225000D01*
X142646613Y-101950000D01*
X139900000Y-101950000D01*
X139900000Y-98300000D01*
X139884628Y-98143928D01*
X139839104Y-97993853D01*
X139815664Y-97950000D01*
X142646613Y-97950000D01*
X142650000Y-99675000D01*
X142825000Y-99850000D01*
X144500000Y-99850000D01*
X144500000Y-97425000D01*
X144700000Y-97425000D01*
X144700000Y-99850000D01*
X146375000Y-99850000D01*
X146550000Y-99675000D01*
X146553387Y-97950000D01*
X146539872Y-97812776D01*
X146499845Y-97680825D01*
X146434845Y-97559219D01*
X146347370Y-97452630D01*
X146240781Y-97365155D01*
X146119175Y-97300155D01*
X145987224Y-97260128D01*
X145957363Y-97257187D01*
X151830000Y-97257187D01*
X151830000Y-97542813D01*
X151885723Y-97822949D01*
X151995027Y-98086833D01*
X152153711Y-98324321D01*
X152355679Y-98526289D01*
X152593167Y-98684973D01*
X152857051Y-98794277D01*
X153137187Y-98850000D01*
X153422813Y-98850000D01*
X153702949Y-98794277D01*
X153966833Y-98684973D01*
X154204321Y-98526289D01*
X154406289Y-98324321D01*
X154550000Y-98109242D01*
X154693711Y-98324321D01*
X154895679Y-98526289D01*
X155133167Y-98684973D01*
X155397051Y-98794277D01*
X155677187Y-98850000D01*
X155962813Y-98850000D01*
X156242949Y-98794277D01*
X156506833Y-98684973D01*
X156744321Y-98526289D01*
X156946289Y-98324321D01*
X157090000Y-98109242D01*
X157233711Y-98324321D01*
X157435679Y-98526289D01*
X157673167Y-98684973D01*
X157937051Y-98794277D01*
X158217187Y-98850000D01*
X158502813Y-98850000D01*
X158782949Y-98794277D01*
X159046833Y-98684973D01*
X159284321Y-98526289D01*
X159457275Y-98353335D01*
X159458682Y-98367621D01*
X159492990Y-98480721D01*
X159548704Y-98584955D01*
X159623683Y-98676317D01*
X159715045Y-98751296D01*
X159819279Y-98807010D01*
X159932379Y-98841318D01*
X160050000Y-98852903D01*
X161750000Y-98852903D01*
X161867621Y-98841318D01*
X161980721Y-98807010D01*
X162084955Y-98751296D01*
X162176317Y-98676317D01*
X162251296Y-98584955D01*
X162307010Y-98480721D01*
X162341318Y-98367621D01*
X162352903Y-98250000D01*
X162352903Y-96550000D01*
X162341318Y-96432379D01*
X162307010Y-96319279D01*
X162251296Y-96215045D01*
X162176317Y-96123683D01*
X162084955Y-96048704D01*
X161980721Y-95992990D01*
X161867621Y-95958682D01*
X161750000Y-95947097D01*
X160050000Y-95947097D01*
X159932379Y-95958682D01*
X159819279Y-95992990D01*
X159715045Y-96048704D01*
X159623683Y-96123683D01*
X159548704Y-96215045D01*
X159492990Y-96319279D01*
X159458682Y-96432379D01*
X159457275Y-96446665D01*
X159284321Y-96273711D01*
X159046833Y-96115027D01*
X158782949Y-96005723D01*
X158502813Y-95950000D01*
X158217187Y-95950000D01*
X157937051Y-96005723D01*
X157673167Y-96115027D01*
X157435679Y-96273711D01*
X157233711Y-96475679D01*
X157090000Y-96690758D01*
X156946289Y-96475679D01*
X156744321Y-96273711D01*
X156506833Y-96115027D01*
X156242949Y-96005723D01*
X155962813Y-95950000D01*
X155677187Y-95950000D01*
X155397051Y-96005723D01*
X155133167Y-96115027D01*
X154895679Y-96273711D01*
X154693711Y-96475679D01*
X154550000Y-96690758D01*
X154406289Y-96475679D01*
X154204321Y-96273711D01*
X153966833Y-96115027D01*
X153702949Y-96005723D01*
X153422813Y-95950000D01*
X153137187Y-95950000D01*
X152857051Y-96005723D01*
X152593167Y-96115027D01*
X152355679Y-96273711D01*
X152153711Y-96475679D01*
X151995027Y-96713167D01*
X151885723Y-96977051D01*
X151830000Y-97257187D01*
X145957363Y-97257187D01*
X145850000Y-97246613D01*
X144875000Y-97250000D01*
X144700000Y-97425000D01*
X144500000Y-97425000D01*
X144325000Y-97250000D01*
X143350000Y-97246613D01*
X143212776Y-97260128D01*
X143080825Y-97300155D01*
X142959219Y-97365155D01*
X142852630Y-97452630D01*
X142765155Y-97559219D01*
X142700155Y-97680825D01*
X142660128Y-97812776D01*
X142646613Y-97950000D01*
X139815664Y-97950000D01*
X139765176Y-97855544D01*
X139665685Y-97734315D01*
X139544456Y-97634824D01*
X139406147Y-97560896D01*
X139256072Y-97515372D01*
X139100000Y-97500000D01*
X136485013Y-97500000D01*
X136473848Y-97490837D01*
X136326392Y-97412020D01*
X136166393Y-97363485D01*
X136000000Y-97347097D01*
X135900000Y-97347097D01*
X135900000Y-96960224D01*
X135957727Y-96820858D01*
X136000000Y-96608341D01*
X136000000Y-96391659D01*
X135957727Y-96179142D01*
X135874807Y-95978955D01*
X135754425Y-95798791D01*
X135601209Y-95645575D01*
X135570416Y-95625000D01*
X160169306Y-95625000D01*
X160200000Y-95628023D01*
X160230694Y-95625000D01*
X160230704Y-95625000D01*
X160322521Y-95615957D01*
X160440334Y-95580219D01*
X160548911Y-95522183D01*
X160644080Y-95444080D01*
X160663658Y-95420224D01*
X162367677Y-93716205D01*
X165601896Y-96950424D01*
G37*
X165601896Y-96950424D02*
X165614350Y-97012693D01*
X165648294Y-97124594D01*
X165703900Y-97228886D01*
X165778783Y-97320326D01*
X165870066Y-97395400D01*
X165974242Y-97451223D01*
X166087307Y-97485650D01*
X166149576Y-97498104D01*
X168275736Y-99624264D01*
X168366658Y-99698882D01*
X168470390Y-99754328D01*
X168582946Y-99788471D01*
X168700000Y-99800000D01*
X171897097Y-99800000D01*
X171897097Y-100005000D01*
X171908682Y-100122621D01*
X171932154Y-100200000D01*
X171908682Y-100277379D01*
X171897097Y-100395000D01*
X171897097Y-101005000D01*
X171908682Y-101122621D01*
X171932154Y-101200000D01*
X171908682Y-101277379D01*
X171897097Y-101395000D01*
X171897097Y-102005000D01*
X171908682Y-102122621D01*
X171932154Y-102200000D01*
X171908682Y-102277379D01*
X171897097Y-102395000D01*
X171897097Y-103005000D01*
X171908682Y-103122621D01*
X171942990Y-103235721D01*
X171998704Y-103339955D01*
X172073683Y-103431317D01*
X172165045Y-103506296D01*
X172269279Y-103562010D01*
X172382379Y-103596318D01*
X172500000Y-103607903D01*
X174500000Y-103607903D01*
X174568700Y-103601136D01*
X174678955Y-103674807D01*
X174879142Y-103757727D01*
X175091659Y-103800000D01*
X175308341Y-103800000D01*
X175520858Y-103757727D01*
X175721045Y-103674807D01*
X175901209Y-103554425D01*
X176054425Y-103401209D01*
X176174807Y-103221045D01*
X176257727Y-103020858D01*
X176300000Y-102808341D01*
X176300000Y-102800000D01*
X176408341Y-102800000D01*
X176620858Y-102757727D01*
X176821045Y-102674807D01*
X177001209Y-102554425D01*
X177154425Y-102401209D01*
X177274807Y-102221045D01*
X177300000Y-102160224D01*
X177300000Y-112239776D01*
X177274807Y-112178955D01*
X177154425Y-111998791D01*
X177001209Y-111845575D01*
X176821045Y-111725193D01*
X176620858Y-111642273D01*
X176408341Y-111600000D01*
X176300000Y-111600000D01*
X176300000Y-111591659D01*
X176257727Y-111379142D01*
X176174807Y-111178955D01*
X176054425Y-110998791D01*
X175901209Y-110845575D01*
X175721045Y-110725193D01*
X175520858Y-110642273D01*
X175308341Y-110600000D01*
X175091659Y-110600000D01*
X174879142Y-110642273D01*
X174678955Y-110725193D01*
X174568700Y-110798864D01*
X174500000Y-110792097D01*
X172500000Y-110792097D01*
X172382379Y-110803682D01*
X172269279Y-110837990D01*
X172165045Y-110893704D01*
X172073683Y-110968683D01*
X171998704Y-111060045D01*
X171942990Y-111164279D01*
X171908682Y-111277379D01*
X171897097Y-111395000D01*
X171897097Y-112005000D01*
X171908682Y-112122621D01*
X171932154Y-112200000D01*
X171908682Y-112277379D01*
X171897097Y-112395000D01*
X171897097Y-113005000D01*
X171908682Y-113122621D01*
X171932154Y-113200000D01*
X171908682Y-113277379D01*
X171897097Y-113395000D01*
X171897097Y-114005000D01*
X171908682Y-114122621D01*
X171932154Y-114200000D01*
X171908682Y-114277379D01*
X171897097Y-114395000D01*
X171897097Y-115005000D01*
X171908682Y-115122621D01*
X171924186Y-115173733D01*
X170247920Y-116850000D01*
X166752081Y-116850000D01*
X164479903Y-114577823D01*
X164479903Y-113286000D01*
X164468318Y-113168379D01*
X164434010Y-113055279D01*
X164378296Y-112951045D01*
X164303317Y-112859683D01*
X164211955Y-112784704D01*
X164107721Y-112728990D01*
X163994621Y-112694682D01*
X163877000Y-112683097D01*
X163332000Y-112683097D01*
X163332000Y-112471659D01*
X163289727Y-112259142D01*
X163206807Y-112058955D01*
X163086425Y-111878791D01*
X163027156Y-111819522D01*
X163020424Y-111751173D01*
X162974679Y-111600372D01*
X162964125Y-111580627D01*
X162949903Y-111554019D01*
X162949903Y-110773000D01*
X162938195Y-110654761D01*
X162903768Y-110541696D01*
X162847945Y-110437521D01*
X162772871Y-110346237D01*
X162681430Y-110271354D01*
X161931430Y-109771354D01*
X161828304Y-109716232D01*
X161715239Y-109681805D01*
X161597631Y-109670097D01*
X161479998Y-109681559D01*
X161366862Y-109715749D01*
X161262570Y-109771354D01*
X160512570Y-110271354D01*
X160420683Y-110346683D01*
X160345704Y-110438045D01*
X160289990Y-110542279D01*
X160255682Y-110655379D01*
X160244097Y-110773000D01*
X160244097Y-111554020D01*
X160219321Y-111600373D01*
X160209431Y-111632977D01*
X160173576Y-111751173D01*
X160166844Y-111819522D01*
X160107575Y-111878791D01*
X159987193Y-112058955D01*
X159904273Y-112259142D01*
X159862000Y-112471659D01*
X159862000Y-112688341D01*
X159874686Y-112752114D01*
X159668237Y-112234647D01*
X159645981Y-112190967D01*
X159624861Y-112146687D01*
X159616311Y-112132736D01*
X159157341Y-111405312D01*
X159127485Y-111366402D01*
X159098661Y-111326730D01*
X159087712Y-111314570D01*
X158503866Y-110682968D01*
X158467408Y-110650142D01*
X158431848Y-110616396D01*
X158418866Y-110606435D01*
X157729696Y-110091807D01*
X157687872Y-110066177D01*
X157646752Y-110039474D01*
X157632173Y-110032045D01*
X156860759Y-109651626D01*
X156814968Y-109634049D01*
X156769668Y-109615285D01*
X156753979Y-109610638D01*
X155926157Y-109377167D01*
X155877924Y-109368228D01*
X155829968Y-109358034D01*
X155813697Y-109356324D01*
X155813695Y-109356324D01*
X154959235Y-109277810D01*
X154930704Y-109275000D01*
X148861463Y-109275000D01*
X148929610Y-109254328D01*
X149033342Y-109198882D01*
X149124264Y-109124264D01*
X149198882Y-109033342D01*
X149254328Y-108929610D01*
X149288471Y-108817054D01*
X149300000Y-108700000D01*
X149300000Y-106500000D01*
X149288471Y-106382946D01*
X149254328Y-106270390D01*
X149198882Y-106166658D01*
X149124264Y-106075736D01*
X149033342Y-106001118D01*
X148929610Y-105945672D01*
X148817054Y-105911529D01*
X148700000Y-105900000D01*
X146452903Y-105900000D01*
X146452903Y-104891659D01*
X153800000Y-104891659D01*
X153800000Y-105108341D01*
X153842273Y-105320858D01*
X153925193Y-105521045D01*
X154045575Y-105701209D01*
X154198791Y-105854425D01*
X154378955Y-105974807D01*
X154579142Y-106057727D01*
X154791659Y-106100000D01*
X155008341Y-106100000D01*
X155165878Y-106068663D01*
X155276152Y-106159163D01*
X155423608Y-106237980D01*
X155583606Y-106286515D01*
X155749999Y-106302903D01*
X156400001Y-106302903D01*
X156566394Y-106286515D01*
X156726392Y-106237980D01*
X156873848Y-106159163D01*
X157003094Y-106053094D01*
X157100000Y-105935013D01*
X157196906Y-106053094D01*
X157326152Y-106159163D01*
X157473608Y-106237980D01*
X157633606Y-106286515D01*
X157799999Y-106302903D01*
X158450001Y-106302903D01*
X158616394Y-106286515D01*
X158776392Y-106237980D01*
X158810000Y-106220016D01*
X158810000Y-106390160D01*
X158856884Y-106625861D01*
X158948850Y-106847887D01*
X159082364Y-107047705D01*
X159252295Y-107217636D01*
X159452113Y-107351150D01*
X159674139Y-107443116D01*
X159909840Y-107490000D01*
X160150160Y-107490000D01*
X160385861Y-107443116D01*
X160607887Y-107351150D01*
X160807705Y-107217636D01*
X160905341Y-107120000D01*
X161694659Y-107120000D01*
X161792295Y-107217636D01*
X161992113Y-107351150D01*
X162214139Y-107443116D01*
X162449840Y-107490000D01*
X162587920Y-107490000D01*
X163469438Y-108371519D01*
X163496052Y-108403948D01*
X163625481Y-108510168D01*
X163773145Y-108589097D01*
X163933371Y-108637700D01*
X164058251Y-108650000D01*
X164058259Y-108650000D01*
X164100000Y-108654111D01*
X164141741Y-108650000D01*
X167272097Y-108650000D01*
X167272097Y-108950000D01*
X167283682Y-109067621D01*
X167317990Y-109180721D01*
X167373704Y-109284955D01*
X167448683Y-109376317D01*
X167540045Y-109451296D01*
X167644279Y-109507010D01*
X167757379Y-109541318D01*
X167875000Y-109552903D01*
X168875000Y-109552903D01*
X168993239Y-109541195D01*
X169025046Y-109531510D01*
X169057379Y-109541318D01*
X169175000Y-109552903D01*
X170046532Y-109552903D01*
X170731531Y-110237902D01*
X170756578Y-110268422D01*
X170787098Y-110293469D01*
X170878393Y-110368393D01*
X170908898Y-110384698D01*
X171017372Y-110442679D01*
X171168173Y-110488424D01*
X171285707Y-110500000D01*
X171285716Y-110500000D01*
X171324999Y-110503869D01*
X171364282Y-110500000D01*
X172157373Y-110500000D01*
X172165045Y-110506296D01*
X172269279Y-110562010D01*
X172382379Y-110596318D01*
X172500000Y-110607903D01*
X174500000Y-110607903D01*
X174617621Y-110596318D01*
X174730721Y-110562010D01*
X174753190Y-110550000D01*
X174758259Y-110550000D01*
X174800000Y-110554111D01*
X174841741Y-110550000D01*
X174841749Y-110550000D01*
X174966629Y-110537700D01*
X175126855Y-110489097D01*
X175274519Y-110410168D01*
X175403948Y-110303948D01*
X175430565Y-110271515D01*
X175771520Y-109930561D01*
X175803948Y-109903948D01*
X175910168Y-109774519D01*
X175989097Y-109626855D01*
X176037700Y-109466629D01*
X176050000Y-109341749D01*
X176050000Y-109341739D01*
X176054111Y-109300001D01*
X176050000Y-109258263D01*
X176050000Y-108141737D01*
X176054111Y-108099999D01*
X176050000Y-108058261D01*
X176050000Y-108058251D01*
X176037700Y-107933371D01*
X175989097Y-107773145D01*
X175910168Y-107625481D01*
X175803948Y-107496052D01*
X175771519Y-107469438D01*
X175430565Y-107128485D01*
X175403948Y-107096052D01*
X175274519Y-106989832D01*
X175126855Y-106910903D01*
X174966629Y-106862300D01*
X174841749Y-106850000D01*
X174841741Y-106850000D01*
X174800000Y-106845889D01*
X174758259Y-106850000D01*
X174753190Y-106850000D01*
X174730721Y-106837990D01*
X174617621Y-106803682D01*
X174500000Y-106792097D01*
X172500000Y-106792097D01*
X172382379Y-106803682D01*
X172269279Y-106837990D01*
X172239712Y-106853794D01*
X172237700Y-106833371D01*
X172189097Y-106673145D01*
X172110168Y-106525481D01*
X172080308Y-106489097D01*
X172030561Y-106428479D01*
X172030557Y-106428475D01*
X172003948Y-106396052D01*
X171971524Y-106369443D01*
X171869937Y-106267856D01*
X171920858Y-106257727D01*
X171948608Y-106246232D01*
X171998704Y-106339955D01*
X172073683Y-106431317D01*
X172165045Y-106506296D01*
X172269279Y-106562010D01*
X172382379Y-106596318D01*
X172500000Y-106607903D01*
X174500000Y-106607903D01*
X174568700Y-106601136D01*
X174678955Y-106674807D01*
X174879142Y-106757727D01*
X175091659Y-106800000D01*
X175308341Y-106800000D01*
X175520858Y-106757727D01*
X175721045Y-106674807D01*
X175901209Y-106554425D01*
X176054425Y-106401209D01*
X176174807Y-106221045D01*
X176257727Y-106020858D01*
X176300000Y-105808341D01*
X176300000Y-105591659D01*
X176257727Y-105379142D01*
X176174807Y-105178955D01*
X176054425Y-104998791D01*
X175901209Y-104845575D01*
X175721045Y-104725193D01*
X175520858Y-104642273D01*
X175308341Y-104600000D01*
X175102903Y-104600000D01*
X175102903Y-104395000D01*
X175091318Y-104277379D01*
X175057010Y-104164279D01*
X175001296Y-104060045D01*
X174926317Y-103968683D01*
X174834955Y-103893704D01*
X174730721Y-103837990D01*
X174617621Y-103803682D01*
X174500000Y-103792097D01*
X172500000Y-103792097D01*
X172382379Y-103803682D01*
X172269279Y-103837990D01*
X172246810Y-103850000D01*
X172141741Y-103850000D01*
X172100000Y-103845889D01*
X172058259Y-103850000D01*
X172058251Y-103850000D01*
X171933371Y-103862300D01*
X171773145Y-103910903D01*
X171625481Y-103989832D01*
X171496052Y-104096052D01*
X171492812Y-104100000D01*
X171491659Y-104100000D01*
X171279142Y-104142273D01*
X171078955Y-104225193D01*
X170898791Y-104345575D01*
X170745575Y-104498791D01*
X170625193Y-104678955D01*
X170542273Y-104879142D01*
X170500000Y-105091659D01*
X170500000Y-105308341D01*
X170528178Y-105450000D01*
X167418054Y-105450000D01*
X167416318Y-105432379D01*
X167382010Y-105319279D01*
X167326296Y-105215045D01*
X167251317Y-105123683D01*
X167159955Y-105048704D01*
X167055721Y-104992990D01*
X166942621Y-104958682D01*
X166825000Y-104947097D01*
X165675000Y-104947097D01*
X165557998Y-104958559D01*
X165525045Y-104968518D01*
X165492621Y-104958682D01*
X165375000Y-104947097D01*
X164724178Y-104947097D01*
X164205566Y-104428485D01*
X164178948Y-104396052D01*
X164049519Y-104289832D01*
X163901855Y-104210903D01*
X163741629Y-104162300D01*
X163712637Y-104159444D01*
X163743116Y-104085861D01*
X163790000Y-103850160D01*
X163790000Y-103609840D01*
X163743116Y-103374139D01*
X163651150Y-103152113D01*
X163517636Y-102952295D01*
X163347705Y-102782364D01*
X163147887Y-102648850D01*
X162925861Y-102556884D01*
X162690160Y-102510000D01*
X162449840Y-102510000D01*
X162214139Y-102556884D01*
X161992113Y-102648850D01*
X161792295Y-102782364D01*
X161694659Y-102880000D01*
X160905341Y-102880000D01*
X160807705Y-102782364D01*
X160607887Y-102648850D01*
X160385861Y-102556884D01*
X160150160Y-102510000D01*
X159909840Y-102510000D01*
X159674139Y-102556884D01*
X159452113Y-102648850D01*
X159252295Y-102782364D01*
X159082364Y-102952295D01*
X158948850Y-103152113D01*
X158856884Y-103374139D01*
X158810000Y-103609840D01*
X158810000Y-103779984D01*
X158776392Y-103762020D01*
X158616394Y-103713485D01*
X158450001Y-103697097D01*
X157799999Y-103697097D01*
X157633606Y-103713485D01*
X157473608Y-103762020D01*
X157326152Y-103840837D01*
X157196906Y-103946906D01*
X157100000Y-104064987D01*
X157003094Y-103946906D01*
X156873848Y-103840837D01*
X156726392Y-103762020D01*
X156566394Y-103713485D01*
X156400001Y-103697097D01*
X155749999Y-103697097D01*
X155583606Y-103713485D01*
X155423608Y-103762020D01*
X155276152Y-103840837D01*
X155165878Y-103931337D01*
X155008341Y-103900000D01*
X154791659Y-103900000D01*
X154579142Y-103942273D01*
X154378955Y-104025193D01*
X154198791Y-104145575D01*
X154045575Y-104298791D01*
X153925193Y-104478955D01*
X153842273Y-104679142D01*
X153800000Y-104891659D01*
X146452903Y-104891659D01*
X146452903Y-104300000D01*
X146436515Y-104133607D01*
X146387980Y-103973608D01*
X146309163Y-103826152D01*
X146203093Y-103696907D01*
X146073848Y-103590837D01*
X145926392Y-103512020D01*
X145766393Y-103463485D01*
X145600000Y-103447097D01*
X143600000Y-103447097D01*
X143433607Y-103463485D01*
X143273608Y-103512020D01*
X143126152Y-103590837D01*
X142996907Y-103696907D01*
X142994369Y-103700000D01*
X142100000Y-103700000D01*
X141982946Y-103711529D01*
X141870390Y-103745672D01*
X141766658Y-103801118D01*
X141675736Y-103875736D01*
X141601118Y-103966658D01*
X141545672Y-104070390D01*
X141511529Y-104182946D01*
X141500000Y-104300000D01*
X141500000Y-105905011D01*
X141403966Y-105914470D01*
X141215465Y-105971651D01*
X141041742Y-106064508D01*
X140889472Y-106189472D01*
X140858160Y-106227626D01*
X139618322Y-107467465D01*
X139478955Y-107525193D01*
X139298791Y-107645575D01*
X139145575Y-107798791D01*
X139025193Y-107978955D01*
X138942273Y-108179142D01*
X138900000Y-108391659D01*
X138900000Y-108608341D01*
X138942273Y-108820858D01*
X139025193Y-109021045D01*
X139145575Y-109201209D01*
X139295226Y-109350860D01*
X138643197Y-109480556D01*
X138596173Y-109494485D01*
X138548805Y-109507177D01*
X138533530Y-109513041D01*
X137734647Y-109831763D01*
X137690967Y-109854019D01*
X137646687Y-109875139D01*
X137632736Y-109883689D01*
X136905312Y-110342659D01*
X136866402Y-110372515D01*
X136826730Y-110401339D01*
X136814570Y-110412288D01*
X136182968Y-110996134D01*
X136150142Y-111032592D01*
X136116396Y-111068152D01*
X136106435Y-111081134D01*
X135591807Y-111770304D01*
X135566177Y-111812128D01*
X135539474Y-111853248D01*
X135532045Y-111867827D01*
X135151626Y-112639241D01*
X135134049Y-112685032D01*
X135115285Y-112730332D01*
X135110638Y-112746021D01*
X134877167Y-113573843D01*
X134868228Y-113622076D01*
X134858034Y-113670032D01*
X134856324Y-113686305D01*
X134777796Y-114540916D01*
X134775001Y-114569296D01*
X134775000Y-116975000D01*
X118625000Y-116975000D01*
X118625000Y-108050000D01*
X133046613Y-108050000D01*
X133060128Y-108187224D01*
X133100155Y-108319175D01*
X133165155Y-108440781D01*
X133252630Y-108547370D01*
X133359219Y-108634845D01*
X133480825Y-108699845D01*
X133612776Y-108739872D01*
X133750000Y-108753387D01*
X134725000Y-108750000D01*
X134900000Y-108575000D01*
X134900000Y-106150000D01*
X135100000Y-106150000D01*
X135100000Y-108575000D01*
X135275000Y-108750000D01*
X136250000Y-108753387D01*
X136387224Y-108739872D01*
X136519175Y-108699845D01*
X136640781Y-108634845D01*
X136747370Y-108547370D01*
X136834845Y-108440781D01*
X136899845Y-108319175D01*
X136939872Y-108187224D01*
X136953387Y-108050000D01*
X136950000Y-106325000D01*
X136775000Y-106150000D01*
X135100000Y-106150000D01*
X134900000Y-106150000D01*
X133225000Y-106150000D01*
X133050000Y-106325000D01*
X133046613Y-108050000D01*
X118625000Y-108050000D01*
X118625000Y-104050000D01*
X133046613Y-104050000D01*
X133050000Y-105775000D01*
X133225000Y-105950000D01*
X134900000Y-105950000D01*
X134900000Y-103525000D01*
X135100000Y-103525000D01*
X135100000Y-105950000D01*
X136775000Y-105950000D01*
X136950000Y-105775000D01*
X136953387Y-104050000D01*
X136939872Y-103912776D01*
X136899845Y-103780825D01*
X136834845Y-103659219D01*
X136747370Y-103552630D01*
X136640781Y-103465155D01*
X136519175Y-103400155D01*
X136387224Y-103360128D01*
X136250000Y-103346613D01*
X135275000Y-103350000D01*
X135100000Y-103525000D01*
X134900000Y-103525000D01*
X134725000Y-103350000D01*
X133750000Y-103346613D01*
X133612776Y-103360128D01*
X133480825Y-103400155D01*
X133359219Y-103465155D01*
X133252630Y-103552630D01*
X133165155Y-103659219D01*
X133100155Y-103780825D01*
X133060128Y-103912776D01*
X133046613Y-104050000D01*
X118625000Y-104050000D01*
X118625000Y-95625000D01*
X134229584Y-95625000D01*
X134198791Y-95645575D01*
X134045575Y-95798791D01*
X133925193Y-95978955D01*
X133842273Y-96179142D01*
X133800000Y-96391659D01*
X133800000Y-96608341D01*
X133842273Y-96820858D01*
X133900000Y-96960224D01*
X133900000Y-97356946D01*
X133833607Y-97363485D01*
X133673608Y-97412020D01*
X133526152Y-97490837D01*
X133514987Y-97500000D01*
X132300000Y-97500000D01*
X132143928Y-97515372D01*
X131993853Y-97560896D01*
X131855544Y-97634824D01*
X131734315Y-97734315D01*
X131634824Y-97855544D01*
X131560896Y-97993853D01*
X131515372Y-98143928D01*
X131500000Y-98300000D01*
X131500000Y-101500000D01*
X131515372Y-101656072D01*
X131560896Y-101806147D01*
X131634824Y-101944456D01*
X131734315Y-102065685D01*
X131855544Y-102165176D01*
X131993853Y-102239104D01*
X132143928Y-102284628D01*
X132300000Y-102300000D01*
X133394369Y-102300000D01*
X133396907Y-102303093D01*
X133526152Y-102409163D01*
X133673608Y-102487980D01*
X133833607Y-102536515D01*
X134000000Y-102552903D01*
X136000000Y-102552903D01*
X136019602Y-102550972D01*
X136334315Y-102865685D01*
X136455544Y-102965176D01*
X136593853Y-103039104D01*
X136743928Y-103084628D01*
X136900000Y-103100000D01*
X139100000Y-103100000D01*
X139256072Y-103084628D01*
X139406147Y-103039104D01*
X139544456Y-102965176D01*
X139665685Y-102865685D01*
X139765176Y-102744456D01*
X139839104Y-102606147D01*
X139884628Y-102456072D01*
X139900000Y-102300000D01*
X139900000Y-101950000D01*
X142646613Y-101950000D01*
X142660128Y-102087224D01*
X142700155Y-102219175D01*
X142765155Y-102340781D01*
X142852630Y-102447370D01*
X142959219Y-102534845D01*
X143080825Y-102599845D01*
X143212776Y-102639872D01*
X143350000Y-102653387D01*
X144325000Y-102650000D01*
X144500000Y-102475000D01*
X144500000Y-100050000D01*
X144700000Y-100050000D01*
X144700000Y-102475000D01*
X144875000Y-102650000D01*
X145850000Y-102653387D01*
X145987224Y-102639872D01*
X146119175Y-102599845D01*
X146240781Y-102534845D01*
X146347370Y-102447370D01*
X146434845Y-102340781D01*
X146499845Y-102219175D01*
X146539872Y-102087224D01*
X146553387Y-101950000D01*
X146550000Y-100225000D01*
X146375000Y-100050000D01*
X144700000Y-100050000D01*
X144500000Y-100050000D01*
X142825000Y-100050000D01*
X142650000Y-100225000D01*
X142646613Y-101950000D01*
X139900000Y-101950000D01*
X139900000Y-98300000D01*
X139884628Y-98143928D01*
X139839104Y-97993853D01*
X139815664Y-97950000D01*
X142646613Y-97950000D01*
X142650000Y-99675000D01*
X142825000Y-99850000D01*
X144500000Y-99850000D01*
X144500000Y-97425000D01*
X144700000Y-97425000D01*
X144700000Y-99850000D01*
X146375000Y-99850000D01*
X146550000Y-99675000D01*
X146553387Y-97950000D01*
X146539872Y-97812776D01*
X146499845Y-97680825D01*
X146434845Y-97559219D01*
X146347370Y-97452630D01*
X146240781Y-97365155D01*
X146119175Y-97300155D01*
X145987224Y-97260128D01*
X145957363Y-97257187D01*
X151830000Y-97257187D01*
X151830000Y-97542813D01*
X151885723Y-97822949D01*
X151995027Y-98086833D01*
X152153711Y-98324321D01*
X152355679Y-98526289D01*
X152593167Y-98684973D01*
X152857051Y-98794277D01*
X153137187Y-98850000D01*
X153422813Y-98850000D01*
X153702949Y-98794277D01*
X153966833Y-98684973D01*
X154204321Y-98526289D01*
X154406289Y-98324321D01*
X154550000Y-98109242D01*
X154693711Y-98324321D01*
X154895679Y-98526289D01*
X155133167Y-98684973D01*
X155397051Y-98794277D01*
X155677187Y-98850000D01*
X155962813Y-98850000D01*
X156242949Y-98794277D01*
X156506833Y-98684973D01*
X156744321Y-98526289D01*
X156946289Y-98324321D01*
X157090000Y-98109242D01*
X157233711Y-98324321D01*
X157435679Y-98526289D01*
X157673167Y-98684973D01*
X157937051Y-98794277D01*
X158217187Y-98850000D01*
X158502813Y-98850000D01*
X158782949Y-98794277D01*
X159046833Y-98684973D01*
X159284321Y-98526289D01*
X159457275Y-98353335D01*
X159458682Y-98367621D01*
X159492990Y-98480721D01*
X159548704Y-98584955D01*
X159623683Y-98676317D01*
X159715045Y-98751296D01*
X159819279Y-98807010D01*
X159932379Y-98841318D01*
X160050000Y-98852903D01*
X161750000Y-98852903D01*
X161867621Y-98841318D01*
X161980721Y-98807010D01*
X162084955Y-98751296D01*
X162176317Y-98676317D01*
X162251296Y-98584955D01*
X162307010Y-98480721D01*
X162341318Y-98367621D01*
X162352903Y-98250000D01*
X162352903Y-96550000D01*
X162341318Y-96432379D01*
X162307010Y-96319279D01*
X162251296Y-96215045D01*
X162176317Y-96123683D01*
X162084955Y-96048704D01*
X161980721Y-95992990D01*
X161867621Y-95958682D01*
X161750000Y-95947097D01*
X160050000Y-95947097D01*
X159932379Y-95958682D01*
X159819279Y-95992990D01*
X159715045Y-96048704D01*
X159623683Y-96123683D01*
X159548704Y-96215045D01*
X159492990Y-96319279D01*
X159458682Y-96432379D01*
X159457275Y-96446665D01*
X159284321Y-96273711D01*
X159046833Y-96115027D01*
X158782949Y-96005723D01*
X158502813Y-95950000D01*
X158217187Y-95950000D01*
X157937051Y-96005723D01*
X157673167Y-96115027D01*
X157435679Y-96273711D01*
X157233711Y-96475679D01*
X157090000Y-96690758D01*
X156946289Y-96475679D01*
X156744321Y-96273711D01*
X156506833Y-96115027D01*
X156242949Y-96005723D01*
X155962813Y-95950000D01*
X155677187Y-95950000D01*
X155397051Y-96005723D01*
X155133167Y-96115027D01*
X154895679Y-96273711D01*
X154693711Y-96475679D01*
X154550000Y-96690758D01*
X154406289Y-96475679D01*
X154204321Y-96273711D01*
X153966833Y-96115027D01*
X153702949Y-96005723D01*
X153422813Y-95950000D01*
X153137187Y-95950000D01*
X152857051Y-96005723D01*
X152593167Y-96115027D01*
X152355679Y-96273711D01*
X152153711Y-96475679D01*
X151995027Y-96713167D01*
X151885723Y-96977051D01*
X151830000Y-97257187D01*
X145957363Y-97257187D01*
X145850000Y-97246613D01*
X144875000Y-97250000D01*
X144700000Y-97425000D01*
X144500000Y-97425000D01*
X144325000Y-97250000D01*
X143350000Y-97246613D01*
X143212776Y-97260128D01*
X143080825Y-97300155D01*
X142959219Y-97365155D01*
X142852630Y-97452630D01*
X142765155Y-97559219D01*
X142700155Y-97680825D01*
X142660128Y-97812776D01*
X142646613Y-97950000D01*
X139815664Y-97950000D01*
X139765176Y-97855544D01*
X139665685Y-97734315D01*
X139544456Y-97634824D01*
X139406147Y-97560896D01*
X139256072Y-97515372D01*
X139100000Y-97500000D01*
X136485013Y-97500000D01*
X136473848Y-97490837D01*
X136326392Y-97412020D01*
X136166393Y-97363485D01*
X136000000Y-97347097D01*
X135900000Y-97347097D01*
X135900000Y-96960224D01*
X135957727Y-96820858D01*
X136000000Y-96608341D01*
X136000000Y-96391659D01*
X135957727Y-96179142D01*
X135874807Y-95978955D01*
X135754425Y-95798791D01*
X135601209Y-95645575D01*
X135570416Y-95625000D01*
X160169306Y-95625000D01*
X160200000Y-95628023D01*
X160230694Y-95625000D01*
X160230704Y-95625000D01*
X160322521Y-95615957D01*
X160440334Y-95580219D01*
X160548911Y-95522183D01*
X160644080Y-95444080D01*
X160663658Y-95420224D01*
X162367677Y-93716205D01*
X165601896Y-96950424D01*
G36*
X141870390Y-108054328D02*
G01*
X141982946Y-108088471D01*
X142100000Y-108100000D01*
X142804014Y-108100000D01*
X142812020Y-108126392D01*
X142890837Y-108273848D01*
X142996907Y-108403093D01*
X143126152Y-108509163D01*
X143273608Y-108587980D01*
X143433607Y-108636515D01*
X143600000Y-108652903D01*
X145264388Y-108652903D01*
X145793032Y-109140882D01*
X145866658Y-109198882D01*
X145970390Y-109254328D01*
X146038537Y-109275000D01*
X140780634Y-109275000D01*
X140854425Y-109201209D01*
X140974807Y-109021045D01*
X141032535Y-108881678D01*
X141863544Y-108050669D01*
X141870390Y-108054328D01*
G37*
X141870390Y-108054328D02*
X141982946Y-108088471D01*
X142100000Y-108100000D01*
X142804014Y-108100000D01*
X142812020Y-108126392D01*
X142890837Y-108273848D01*
X142996907Y-108403093D01*
X143126152Y-108509163D01*
X143273608Y-108587980D01*
X143433607Y-108636515D01*
X143600000Y-108652903D01*
X145264388Y-108652903D01*
X145793032Y-109140882D01*
X145866658Y-109198882D01*
X145970390Y-109254328D01*
X146038537Y-109275000D01*
X140780634Y-109275000D01*
X140854425Y-109201209D01*
X140974807Y-109021045D01*
X141032535Y-108881678D01*
X141863544Y-108050669D01*
X141870390Y-108054328D01*
G36*
X138900000Y-102100000D02*
G01*
X136982842Y-102100000D01*
X136241421Y-101358579D01*
X136211114Y-101333706D01*
X136176537Y-101315224D01*
X136139018Y-101303843D01*
X136100000Y-101300000D01*
X132500000Y-101300000D01*
X132500000Y-98500000D01*
X138900000Y-98500000D01*
X138900000Y-102100000D01*
G37*
X138900000Y-102100000D02*
X136982842Y-102100000D01*
X136241421Y-101358579D01*
X136211114Y-101333706D01*
X136176537Y-101315224D01*
X136139018Y-101303843D01*
X136100000Y-101300000D01*
X132500000Y-101300000D01*
X132500000Y-98500000D01*
X138900000Y-98500000D01*
X138900000Y-102100000D01*
G36*
X144900000Y-106500000D02*
G01*
X144903843Y-106539018D01*
X144915224Y-106576537D01*
X144933706Y-106611114D01*
X144958579Y-106641421D01*
X144988886Y-106666294D01*
X145023463Y-106684776D01*
X145060982Y-106696157D01*
X145100000Y-106700000D01*
X148500000Y-106700000D01*
X148500000Y-108500000D01*
X146278197Y-108500000D01*
X145035656Y-107353039D01*
X145004379Y-107329398D01*
X144969090Y-107312313D01*
X144931147Y-107302440D01*
X144900000Y-107300000D01*
X142300000Y-107300000D01*
X142300000Y-104500000D01*
X144900000Y-104500000D01*
X144900000Y-106500000D01*
G37*
X144900000Y-106500000D02*
X144903843Y-106539018D01*
X144915224Y-106576537D01*
X144933706Y-106611114D01*
X144958579Y-106641421D01*
X144988886Y-106666294D01*
X145023463Y-106684776D01*
X145060982Y-106696157D01*
X145100000Y-106700000D01*
X148500000Y-106700000D01*
X148500000Y-108500000D01*
X146278197Y-108500000D01*
X145035656Y-107353039D01*
X145004379Y-107329398D01*
X144969090Y-107312313D01*
X144931147Y-107302440D01*
X144900000Y-107300000D01*
X142300000Y-107300000D01*
X142300000Y-104500000D01*
X144900000Y-104500000D01*
X144900000Y-106500000D01*
M02*
