G04 #@! TF.GenerationSoftware,KiCad,Pcbnew,5.1.6*
G04 #@! TF.CreationDate,2020-07-16T12:21:26+02:00*
G04 #@! TF.ProjectId,Head-Interconnect,48656164-2d49-46e7-9465-72636f6e6e65,rev?*
G04 #@! TF.SameCoordinates,Original*
G04 #@! TF.FileFunction,Legend,Top*
G04 #@! TF.FilePolarity,Positive*
%FSLAX46Y46*%
G04 Gerber Fmt 4.6, Leading zero omitted, Abs format (unit mm)*
G04 Created by KiCad (PCBNEW 5.1.6) date 2020-07-16 12:21:26*
%MOMM*%
%LPD*%
G01*
G04 APERTURE LIST*
%ADD10C,0.150000*%
%ADD11C,0.120000*%
%ADD12C,0.010000*%
G04 APERTURE END LIST*
D10*
X120790476Y-114554880D02*
X120742857Y-114650119D01*
X120742857Y-114840595D01*
X120790476Y-114935833D01*
X120885714Y-115031071D01*
X120980952Y-115078690D01*
X121171428Y-115078690D01*
X121266666Y-115031071D01*
X121361904Y-114935833D01*
X121409523Y-114840595D01*
X121409523Y-114650119D01*
X121361904Y-114554880D01*
X120409523Y-114745357D02*
X120457142Y-114983452D01*
X120600000Y-115221547D01*
X120838095Y-115364404D01*
X121076190Y-115412023D01*
X121314285Y-115364404D01*
X121552380Y-115221547D01*
X121695238Y-114983452D01*
X121742857Y-114745357D01*
X121695238Y-114507261D01*
X121552380Y-114269166D01*
X121314285Y-114126309D01*
X121076190Y-114078690D01*
X120838095Y-114126309D01*
X120600000Y-114269166D01*
X120457142Y-114507261D01*
X120409523Y-114745357D01*
X121552380Y-113650119D02*
X120885714Y-113650119D01*
X120980952Y-113650119D02*
X120933333Y-113602500D01*
X120885714Y-113507261D01*
X120885714Y-113364404D01*
X120933333Y-113269166D01*
X121028571Y-113221547D01*
X121552380Y-113221547D01*
X121028571Y-113221547D02*
X120933333Y-113173928D01*
X120885714Y-113078690D01*
X120885714Y-112935833D01*
X120933333Y-112840595D01*
X121028571Y-112792976D01*
X121552380Y-112792976D01*
X121552380Y-112316785D02*
X120885714Y-112316785D01*
X121076190Y-112316785D02*
X120980952Y-112269166D01*
X120933333Y-112221547D01*
X120885714Y-112126309D01*
X120885714Y-112031071D01*
X121552380Y-111697738D02*
X120552380Y-111697738D01*
X121171428Y-111602500D02*
X121552380Y-111316785D01*
X120885714Y-111316785D02*
X121266666Y-111697738D01*
X121504761Y-110507261D02*
X121552380Y-110602500D01*
X121552380Y-110792976D01*
X121504761Y-110888214D01*
X121409523Y-110935833D01*
X121028571Y-110935833D01*
X120933333Y-110888214D01*
X120885714Y-110792976D01*
X120885714Y-110602500D01*
X120933333Y-110507261D01*
X121028571Y-110459642D01*
X121123809Y-110459642D01*
X121219047Y-110935833D01*
X120885714Y-110031071D02*
X121552380Y-110031071D01*
X120980952Y-110031071D02*
X120933333Y-109983452D01*
X120885714Y-109888214D01*
X120885714Y-109745357D01*
X120933333Y-109650119D01*
X121028571Y-109602500D01*
X121552380Y-109602500D01*
X121552380Y-109126309D02*
X120552380Y-109126309D01*
X121552380Y-108697738D02*
X121028571Y-108697738D01*
X120933333Y-108745357D01*
X120885714Y-108840595D01*
X120885714Y-108983452D01*
X120933333Y-109078690D01*
X120980952Y-109126309D01*
X121552380Y-108078690D02*
X121504761Y-108173928D01*
X121457142Y-108221547D01*
X121361904Y-108269166D01*
X121076190Y-108269166D01*
X120980952Y-108221547D01*
X120933333Y-108173928D01*
X120885714Y-108078690D01*
X120885714Y-107935833D01*
X120933333Y-107840595D01*
X120980952Y-107792976D01*
X121076190Y-107745357D01*
X121361904Y-107745357D01*
X121457142Y-107792976D01*
X121504761Y-107840595D01*
X121552380Y-107935833D01*
X121552380Y-108078690D01*
X120885714Y-107459642D02*
X120885714Y-107078690D01*
X121552380Y-107316785D02*
X120695238Y-107316785D01*
X120600000Y-107269166D01*
X120552380Y-107173928D01*
X120552380Y-107078690D01*
X120885714Y-106888214D02*
X120885714Y-106507261D01*
X121552380Y-106745357D02*
X120695238Y-106745357D01*
X120600000Y-106697738D01*
X120552380Y-106602500D01*
X120552380Y-106507261D01*
X120647619Y-105459642D02*
X120600000Y-105412023D01*
X120552380Y-105316785D01*
X120552380Y-105078690D01*
X120600000Y-104983452D01*
X120647619Y-104935833D01*
X120742857Y-104888214D01*
X120838095Y-104888214D01*
X120980952Y-104935833D01*
X121552380Y-105507261D01*
X121552380Y-104888214D01*
X120552380Y-104269166D02*
X120552380Y-104173928D01*
X120600000Y-104078690D01*
X120647619Y-104031071D01*
X120742857Y-103983452D01*
X120933333Y-103935833D01*
X121171428Y-103935833D01*
X121361904Y-103983452D01*
X121457142Y-104031071D01*
X121504761Y-104078690D01*
X121552380Y-104173928D01*
X121552380Y-104269166D01*
X121504761Y-104364404D01*
X121457142Y-104412023D01*
X121361904Y-104459642D01*
X121171428Y-104507261D01*
X120933333Y-104507261D01*
X120742857Y-104459642D01*
X120647619Y-104412023D01*
X120600000Y-104364404D01*
X120552380Y-104269166D01*
X120647619Y-103554880D02*
X120600000Y-103507261D01*
X120552380Y-103412023D01*
X120552380Y-103173928D01*
X120600000Y-103078690D01*
X120647619Y-103031071D01*
X120742857Y-102983452D01*
X120838095Y-102983452D01*
X120980952Y-103031071D01*
X121552380Y-103602500D01*
X121552380Y-102983452D01*
X120552380Y-102364404D02*
X120552380Y-102269166D01*
X120600000Y-102173928D01*
X120647619Y-102126309D01*
X120742857Y-102078690D01*
X120933333Y-102031071D01*
X121171428Y-102031071D01*
X121361904Y-102078690D01*
X121457142Y-102126309D01*
X121504761Y-102173928D01*
X121552380Y-102269166D01*
X121552380Y-102364404D01*
X121504761Y-102459642D01*
X121457142Y-102507261D01*
X121361904Y-102554880D01*
X121171428Y-102602500D01*
X120933333Y-102602500D01*
X120742857Y-102554880D01*
X120647619Y-102507261D01*
X120600000Y-102459642D01*
X120552380Y-102364404D01*
X119704761Y-115512023D02*
X119752380Y-115369166D01*
X119752380Y-115131071D01*
X119704761Y-115035833D01*
X119657142Y-114988214D01*
X119561904Y-114940595D01*
X119466666Y-114940595D01*
X119371428Y-114988214D01*
X119323809Y-115035833D01*
X119276190Y-115131071D01*
X119228571Y-115321547D01*
X119180952Y-115416785D01*
X119133333Y-115464404D01*
X119038095Y-115512023D01*
X118942857Y-115512023D01*
X118847619Y-115464404D01*
X118800000Y-115416785D01*
X118752380Y-115321547D01*
X118752380Y-115083452D01*
X118800000Y-114940595D01*
X118752380Y-114654880D02*
X118752380Y-114083452D01*
X119752380Y-114369166D02*
X118752380Y-114369166D01*
X119752380Y-113750119D02*
X118752380Y-113750119D01*
X119466666Y-113416785D01*
X118752380Y-113083452D01*
X119752380Y-113083452D01*
X119752380Y-111845357D02*
X118752380Y-111845357D01*
X119228571Y-111845357D02*
X119228571Y-111273928D01*
X119752380Y-111273928D02*
X118752380Y-111273928D01*
X119704761Y-110416785D02*
X119752380Y-110512023D01*
X119752380Y-110702500D01*
X119704761Y-110797738D01*
X119609523Y-110845357D01*
X119228571Y-110845357D01*
X119133333Y-110797738D01*
X119085714Y-110702500D01*
X119085714Y-110512023D01*
X119133333Y-110416785D01*
X119228571Y-110369166D01*
X119323809Y-110369166D01*
X119419047Y-110845357D01*
X119752380Y-109512023D02*
X119228571Y-109512023D01*
X119133333Y-109559642D01*
X119085714Y-109654880D01*
X119085714Y-109845357D01*
X119133333Y-109940595D01*
X119704761Y-109512023D02*
X119752380Y-109607261D01*
X119752380Y-109845357D01*
X119704761Y-109940595D01*
X119609523Y-109988214D01*
X119514285Y-109988214D01*
X119419047Y-109940595D01*
X119371428Y-109845357D01*
X119371428Y-109607261D01*
X119323809Y-109512023D01*
X119752380Y-108607261D02*
X118752380Y-108607261D01*
X119704761Y-108607261D02*
X119752380Y-108702500D01*
X119752380Y-108892976D01*
X119704761Y-108988214D01*
X119657142Y-109035833D01*
X119561904Y-109083452D01*
X119276190Y-109083452D01*
X119180952Y-109035833D01*
X119133333Y-108988214D01*
X119085714Y-108892976D01*
X119085714Y-108702500D01*
X119133333Y-108607261D01*
X119752380Y-107369166D02*
X118752380Y-107369166D01*
X119085714Y-106892976D02*
X119752380Y-106892976D01*
X119180952Y-106892976D02*
X119133333Y-106845357D01*
X119085714Y-106750119D01*
X119085714Y-106607261D01*
X119133333Y-106512023D01*
X119228571Y-106464404D01*
X119752380Y-106464404D01*
X119085714Y-106131071D02*
X119085714Y-105750119D01*
X118752380Y-105988214D02*
X119609523Y-105988214D01*
X119704761Y-105940595D01*
X119752380Y-105845357D01*
X119752380Y-105750119D01*
X119704761Y-105035833D02*
X119752380Y-105131071D01*
X119752380Y-105321547D01*
X119704761Y-105416785D01*
X119609523Y-105464404D01*
X119228571Y-105464404D01*
X119133333Y-105416785D01*
X119085714Y-105321547D01*
X119085714Y-105131071D01*
X119133333Y-105035833D01*
X119228571Y-104988214D01*
X119323809Y-104988214D01*
X119419047Y-105464404D01*
X119752380Y-104559642D02*
X119085714Y-104559642D01*
X119276190Y-104559642D02*
X119180952Y-104512023D01*
X119133333Y-104464404D01*
X119085714Y-104369166D01*
X119085714Y-104273928D01*
X119704761Y-103512023D02*
X119752380Y-103607261D01*
X119752380Y-103797738D01*
X119704761Y-103892976D01*
X119657142Y-103940595D01*
X119561904Y-103988214D01*
X119276190Y-103988214D01*
X119180952Y-103940595D01*
X119133333Y-103892976D01*
X119085714Y-103797738D01*
X119085714Y-103607261D01*
X119133333Y-103512023D01*
X119752380Y-102940595D02*
X119704761Y-103035833D01*
X119657142Y-103083452D01*
X119561904Y-103131071D01*
X119276190Y-103131071D01*
X119180952Y-103083452D01*
X119133333Y-103035833D01*
X119085714Y-102940595D01*
X119085714Y-102797738D01*
X119133333Y-102702500D01*
X119180952Y-102654880D01*
X119276190Y-102607261D01*
X119561904Y-102607261D01*
X119657142Y-102654880D01*
X119704761Y-102702500D01*
X119752380Y-102797738D01*
X119752380Y-102940595D01*
X119085714Y-102178690D02*
X119752380Y-102178690D01*
X119180952Y-102178690D02*
X119133333Y-102131071D01*
X119085714Y-102035833D01*
X119085714Y-101892976D01*
X119133333Y-101797738D01*
X119228571Y-101750119D01*
X119752380Y-101750119D01*
X119085714Y-101273928D02*
X119752380Y-101273928D01*
X119180952Y-101273928D02*
X119133333Y-101226309D01*
X119085714Y-101131071D01*
X119085714Y-100988214D01*
X119133333Y-100892976D01*
X119228571Y-100845357D01*
X119752380Y-100845357D01*
X119704761Y-99988214D02*
X119752380Y-100083452D01*
X119752380Y-100273928D01*
X119704761Y-100369166D01*
X119609523Y-100416785D01*
X119228571Y-100416785D01*
X119133333Y-100369166D01*
X119085714Y-100273928D01*
X119085714Y-100083452D01*
X119133333Y-99988214D01*
X119228571Y-99940595D01*
X119323809Y-99940595D01*
X119419047Y-100416785D01*
X119704761Y-99083452D02*
X119752380Y-99178690D01*
X119752380Y-99369166D01*
X119704761Y-99464404D01*
X119657142Y-99512023D01*
X119561904Y-99559642D01*
X119276190Y-99559642D01*
X119180952Y-99512023D01*
X119133333Y-99464404D01*
X119085714Y-99369166D01*
X119085714Y-99178690D01*
X119133333Y-99083452D01*
X119085714Y-98797738D02*
X119085714Y-98416785D01*
X118752380Y-98654880D02*
X119609523Y-98654880D01*
X119704761Y-98607261D01*
X119752380Y-98512023D01*
X119752380Y-98416785D01*
X118752380Y-97464404D02*
X119752380Y-97131071D01*
X118752380Y-96797738D01*
X119752380Y-95940595D02*
X119752380Y-96512023D01*
X119752380Y-96226309D02*
X118752380Y-96226309D01*
X118895238Y-96321547D01*
X118990476Y-96416785D01*
X119038095Y-96512023D01*
X128738095Y-96371428D02*
X129500000Y-96371428D01*
X130500000Y-96752380D02*
X129928571Y-96752380D01*
X130214285Y-96752380D02*
X130214285Y-95752380D01*
X130119047Y-95895238D01*
X130023809Y-95990476D01*
X129928571Y-96038095D01*
X131404761Y-95752380D02*
X130928571Y-95752380D01*
X130880952Y-96228571D01*
X130928571Y-96180952D01*
X131023809Y-96133333D01*
X131261904Y-96133333D01*
X131357142Y-96180952D01*
X131404761Y-96228571D01*
X131452380Y-96323809D01*
X131452380Y-96561904D01*
X131404761Y-96657142D01*
X131357142Y-96704761D01*
X131261904Y-96752380D01*
X131023809Y-96752380D01*
X130928571Y-96704761D01*
X130880952Y-96657142D01*
X131738095Y-95752380D02*
X132071428Y-96752380D01*
X132404761Y-95752380D01*
X133938095Y-109871428D02*
X134700000Y-109871428D01*
X134319047Y-110252380D02*
X134319047Y-109490476D01*
X135700000Y-110252380D02*
X135128571Y-110252380D01*
X135414285Y-110252380D02*
X135414285Y-109252380D01*
X135319047Y-109395238D01*
X135223809Y-109490476D01*
X135128571Y-109538095D01*
X136604761Y-109252380D02*
X136128571Y-109252380D01*
X136080952Y-109728571D01*
X136128571Y-109680952D01*
X136223809Y-109633333D01*
X136461904Y-109633333D01*
X136557142Y-109680952D01*
X136604761Y-109728571D01*
X136652380Y-109823809D01*
X136652380Y-110061904D01*
X136604761Y-110157142D01*
X136557142Y-110204761D01*
X136461904Y-110252380D01*
X136223809Y-110252380D01*
X136128571Y-110204761D01*
X136080952Y-110157142D01*
X136938095Y-109252380D02*
X137271428Y-110252380D01*
X137604761Y-109252380D01*
X131938095Y-113600000D02*
X131842857Y-113552380D01*
X131700000Y-113552380D01*
X131557142Y-113600000D01*
X131461904Y-113695238D01*
X131414285Y-113790476D01*
X131366666Y-113980952D01*
X131366666Y-114123809D01*
X131414285Y-114314285D01*
X131461904Y-114409523D01*
X131557142Y-114504761D01*
X131700000Y-114552380D01*
X131795238Y-114552380D01*
X131938095Y-114504761D01*
X131985714Y-114457142D01*
X131985714Y-114123809D01*
X131795238Y-114123809D01*
X132414285Y-114552380D02*
X132414285Y-113552380D01*
X132985714Y-114552380D01*
X132985714Y-113552380D01*
X133461904Y-114552380D02*
X133461904Y-113552380D01*
X133700000Y-113552380D01*
X133842857Y-113600000D01*
X133938095Y-113695238D01*
X133985714Y-113790476D01*
X134033333Y-113980952D01*
X134033333Y-114123809D01*
X133985714Y-114314285D01*
X133938095Y-114409523D01*
X133842857Y-114504761D01*
X133700000Y-114552380D01*
X133461904Y-114552380D01*
X163628571Y-82523809D02*
X163676190Y-82380952D01*
X163723809Y-82333333D01*
X163819047Y-82285714D01*
X163961904Y-82285714D01*
X164057142Y-82333333D01*
X164104761Y-82380952D01*
X164152380Y-82476190D01*
X164152380Y-82857142D01*
X163152380Y-82857142D01*
X163152380Y-82523809D01*
X163200000Y-82428571D01*
X163247619Y-82380952D01*
X163342857Y-82333333D01*
X163438095Y-82333333D01*
X163533333Y-82380952D01*
X163580952Y-82428571D01*
X163628571Y-82523809D01*
X163628571Y-82857142D01*
X164152380Y-81857142D02*
X163485714Y-81857142D01*
X163152380Y-81857142D02*
X163200000Y-81904761D01*
X163247619Y-81857142D01*
X163200000Y-81809523D01*
X163152380Y-81857142D01*
X163247619Y-81857142D01*
X164152380Y-80952380D02*
X163628571Y-80952380D01*
X163533333Y-81000000D01*
X163485714Y-81095238D01*
X163485714Y-81285714D01*
X163533333Y-81380952D01*
X164104761Y-80952380D02*
X164152380Y-81047619D01*
X164152380Y-81285714D01*
X164104761Y-81380952D01*
X164009523Y-81428571D01*
X163914285Y-81428571D01*
X163819047Y-81380952D01*
X163771428Y-81285714D01*
X163771428Y-81047619D01*
X163723809Y-80952380D01*
X164104761Y-80523809D02*
X164152380Y-80428571D01*
X164152380Y-80238095D01*
X164104761Y-80142857D01*
X164009523Y-80095238D01*
X163961904Y-80095238D01*
X163866666Y-80142857D01*
X163819047Y-80238095D01*
X163819047Y-80380952D01*
X163771428Y-80476190D01*
X163676190Y-80523809D01*
X163628571Y-80523809D01*
X163533333Y-80476190D01*
X163485714Y-80380952D01*
X163485714Y-80238095D01*
X163533333Y-80142857D01*
X156557142Y-100204761D02*
X156700000Y-100252380D01*
X156938095Y-100252380D01*
X157033333Y-100204761D01*
X157080952Y-100157142D01*
X157128571Y-100061904D01*
X157128571Y-99966666D01*
X157080952Y-99871428D01*
X157033333Y-99823809D01*
X156938095Y-99776190D01*
X156747619Y-99728571D01*
X156652380Y-99680952D01*
X156604761Y-99633333D01*
X156557142Y-99538095D01*
X156557142Y-99442857D01*
X156604761Y-99347619D01*
X156652380Y-99300000D01*
X156747619Y-99252380D01*
X156985714Y-99252380D01*
X157128571Y-99300000D01*
X157414285Y-99585714D02*
X157795238Y-99585714D01*
X157557142Y-99252380D02*
X157557142Y-100109523D01*
X157604761Y-100204761D01*
X157700000Y-100252380D01*
X157795238Y-100252380D01*
X158509523Y-100204761D02*
X158414285Y-100252380D01*
X158223809Y-100252380D01*
X158128571Y-100204761D01*
X158080952Y-100109523D01*
X158080952Y-99728571D01*
X158128571Y-99633333D01*
X158223809Y-99585714D01*
X158414285Y-99585714D01*
X158509523Y-99633333D01*
X158557142Y-99728571D01*
X158557142Y-99823809D01*
X158080952Y-99919047D01*
X158985714Y-99585714D02*
X158985714Y-100585714D01*
X158985714Y-99633333D02*
X159080952Y-99585714D01*
X159271428Y-99585714D01*
X159366666Y-99633333D01*
X159414285Y-99680952D01*
X159461904Y-99776190D01*
X159461904Y-100061904D01*
X159414285Y-100157142D01*
X159366666Y-100204761D01*
X159271428Y-100252380D01*
X159080952Y-100252380D01*
X158985714Y-100204761D01*
X159890476Y-99585714D02*
X159890476Y-100585714D01*
X159890476Y-99633333D02*
X159985714Y-99585714D01*
X160176190Y-99585714D01*
X160271428Y-99633333D01*
X160319047Y-99680952D01*
X160366666Y-99776190D01*
X160366666Y-100061904D01*
X160319047Y-100157142D01*
X160271428Y-100204761D01*
X160176190Y-100252380D01*
X159985714Y-100252380D01*
X159890476Y-100204761D01*
X161176190Y-100204761D02*
X161080952Y-100252380D01*
X160890476Y-100252380D01*
X160795238Y-100204761D01*
X160747619Y-100109523D01*
X160747619Y-99728571D01*
X160795238Y-99633333D01*
X160890476Y-99585714D01*
X161080952Y-99585714D01*
X161176190Y-99633333D01*
X161223809Y-99728571D01*
X161223809Y-99823809D01*
X160747619Y-99919047D01*
X161652380Y-100252380D02*
X161652380Y-99585714D01*
X161652380Y-99776190D02*
X161700000Y-99680952D01*
X161747619Y-99633333D01*
X161842857Y-99585714D01*
X161938095Y-99585714D01*
X154466666Y-106327380D02*
X155038095Y-106327380D01*
X154752380Y-107327380D02*
X154752380Y-106327380D01*
X155800000Y-106660714D02*
X155800000Y-107327380D01*
X155371428Y-106660714D02*
X155371428Y-107184523D01*
X155419047Y-107279761D01*
X155514285Y-107327380D01*
X155657142Y-107327380D01*
X155752380Y-107279761D01*
X155800000Y-107232142D01*
X156276190Y-106660714D02*
X156276190Y-107327380D01*
X156276190Y-106755952D02*
X156323809Y-106708333D01*
X156419047Y-106660714D01*
X156561904Y-106660714D01*
X156657142Y-106708333D01*
X156704761Y-106803571D01*
X156704761Y-107327380D01*
X157180952Y-106660714D02*
X157180952Y-107327380D01*
X157180952Y-106755952D02*
X157228571Y-106708333D01*
X157323809Y-106660714D01*
X157466666Y-106660714D01*
X157561904Y-106708333D01*
X157609523Y-106803571D01*
X157609523Y-107327380D01*
X158466666Y-107279761D02*
X158371428Y-107327380D01*
X158180952Y-107327380D01*
X158085714Y-107279761D01*
X158038095Y-107184523D01*
X158038095Y-106803571D01*
X158085714Y-106708333D01*
X158180952Y-106660714D01*
X158371428Y-106660714D01*
X158466666Y-106708333D01*
X158514285Y-106803571D01*
X158514285Y-106898809D01*
X158038095Y-106994047D01*
X159085714Y-107327380D02*
X158990476Y-107279761D01*
X158942857Y-107184523D01*
X158942857Y-106327380D01*
X154871428Y-108882142D02*
X154823809Y-108929761D01*
X154680952Y-108977380D01*
X154585714Y-108977380D01*
X154442857Y-108929761D01*
X154347619Y-108834523D01*
X154300000Y-108739285D01*
X154252380Y-108548809D01*
X154252380Y-108405952D01*
X154300000Y-108215476D01*
X154347619Y-108120238D01*
X154442857Y-108025000D01*
X154585714Y-107977380D01*
X154680952Y-107977380D01*
X154823809Y-108025000D01*
X154871428Y-108072619D01*
X155728571Y-108310714D02*
X155728571Y-108977380D01*
X155300000Y-108310714D02*
X155300000Y-108834523D01*
X155347619Y-108929761D01*
X155442857Y-108977380D01*
X155585714Y-108977380D01*
X155680952Y-108929761D01*
X155728571Y-108882142D01*
X156204761Y-108977380D02*
X156204761Y-108310714D01*
X156204761Y-108501190D02*
X156252380Y-108405952D01*
X156300000Y-108358333D01*
X156395238Y-108310714D01*
X156490476Y-108310714D01*
X156823809Y-108977380D02*
X156823809Y-108310714D01*
X156823809Y-108501190D02*
X156871428Y-108405952D01*
X156919047Y-108358333D01*
X157014285Y-108310714D01*
X157109523Y-108310714D01*
X157823809Y-108929761D02*
X157728571Y-108977380D01*
X157538095Y-108977380D01*
X157442857Y-108929761D01*
X157395238Y-108834523D01*
X157395238Y-108453571D01*
X157442857Y-108358333D01*
X157538095Y-108310714D01*
X157728571Y-108310714D01*
X157823809Y-108358333D01*
X157871428Y-108453571D01*
X157871428Y-108548809D01*
X157395238Y-108644047D01*
X158300000Y-108310714D02*
X158300000Y-108977380D01*
X158300000Y-108405952D02*
X158347619Y-108358333D01*
X158442857Y-108310714D01*
X158585714Y-108310714D01*
X158680952Y-108358333D01*
X158728571Y-108453571D01*
X158728571Y-108977380D01*
X159061904Y-108310714D02*
X159442857Y-108310714D01*
X159204761Y-107977380D02*
X159204761Y-108834523D01*
X159252380Y-108929761D01*
X159347619Y-108977380D01*
X159442857Y-108977380D01*
X165214285Y-119252380D02*
X165214285Y-118252380D01*
X165595238Y-118252380D01*
X165690476Y-118300000D01*
X165738095Y-118347619D01*
X165785714Y-118442857D01*
X165785714Y-118585714D01*
X165738095Y-118680952D01*
X165690476Y-118728571D01*
X165595238Y-118776190D01*
X165214285Y-118776190D01*
X166214285Y-119252380D02*
X166214285Y-118585714D01*
X166214285Y-118252380D02*
X166166666Y-118300000D01*
X166214285Y-118347619D01*
X166261904Y-118300000D01*
X166214285Y-118252380D01*
X166214285Y-118347619D01*
X167071428Y-119204761D02*
X166976190Y-119252380D01*
X166785714Y-119252380D01*
X166690476Y-119204761D01*
X166642857Y-119109523D01*
X166642857Y-118728571D01*
X166690476Y-118633333D01*
X166785714Y-118585714D01*
X166976190Y-118585714D01*
X167071428Y-118633333D01*
X167119047Y-118728571D01*
X167119047Y-118823809D01*
X166642857Y-118919047D01*
X167452380Y-118585714D02*
X167976190Y-118585714D01*
X167452380Y-119252380D01*
X167976190Y-119252380D01*
X168500000Y-119252380D02*
X168404761Y-119204761D01*
X168357142Y-119157142D01*
X168309523Y-119061904D01*
X168309523Y-118776190D01*
X168357142Y-118680952D01*
X168404761Y-118633333D01*
X168500000Y-118585714D01*
X168642857Y-118585714D01*
X168738095Y-118633333D01*
X168785714Y-118680952D01*
X168833333Y-118776190D01*
X168833333Y-119061904D01*
X168785714Y-119157142D01*
X168738095Y-119204761D01*
X168642857Y-119252380D01*
X168500000Y-119252380D01*
D11*
X171500000Y-80000000D02*
X172000000Y-80000000D01*
X163642235Y-87611127D02*
X163443967Y-87127701D01*
X164956033Y-87072299D02*
X164757765Y-86588873D01*
X169690000Y-94861252D02*
X169690000Y-94338748D01*
X171110000Y-94861252D02*
X171110000Y-94338748D01*
X166874482Y-84334747D02*
X166561431Y-83571449D01*
X168441636Y-88155863D02*
X166776259Y-88838884D01*
X168754687Y-88919161D02*
X168441636Y-88155863D01*
X173745111Y-89201641D02*
X173245498Y-89406547D01*
X174134054Y-90149981D02*
X173745111Y-89201641D01*
X175161037Y-89728784D02*
X174134054Y-90149981D01*
X170554439Y-78496738D02*
X175161037Y-89728784D01*
X169527456Y-78917935D02*
X170554439Y-78496738D01*
X169916399Y-79866275D02*
X169527456Y-78917935D01*
X169416785Y-80071181D02*
X169916399Y-79866275D01*
X174390000Y-96135000D02*
X174390000Y-95310000D01*
X174390000Y-116265000D02*
X172590000Y-116265000D01*
X174390000Y-117090000D02*
X174390000Y-116265000D01*
X178900000Y-119245000D02*
X178360000Y-119245000D01*
X178900000Y-120270000D02*
X178900000Y-119245000D01*
X180010000Y-120270000D02*
X178900000Y-120270000D01*
X180010000Y-92130000D02*
X180010000Y-120270000D01*
X178900000Y-92130000D02*
X180010000Y-92130000D01*
X178900000Y-93155000D02*
X178900000Y-92130000D01*
X178360000Y-93155000D02*
X178900000Y-93155000D01*
D12*
G36*
X153255814Y-99668931D02*
G01*
X153339635Y-100113555D01*
X153648920Y-100241053D01*
X153958206Y-100368551D01*
X154329246Y-100116246D01*
X154433157Y-100045996D01*
X154527087Y-99983272D01*
X154606652Y-99930938D01*
X154667470Y-99891857D01*
X154705157Y-99868893D01*
X154715421Y-99863942D01*
X154733910Y-99876676D01*
X154773420Y-99911882D01*
X154829522Y-99965062D01*
X154897787Y-100031718D01*
X154973786Y-100107354D01*
X155053092Y-100187472D01*
X155131275Y-100267574D01*
X155203907Y-100343164D01*
X155266559Y-100409745D01*
X155314803Y-100462818D01*
X155344210Y-100497887D01*
X155351241Y-100509623D01*
X155341123Y-100531260D01*
X155312759Y-100578662D01*
X155269129Y-100647193D01*
X155213218Y-100732215D01*
X155148006Y-100829093D01*
X155110219Y-100884350D01*
X155041343Y-100985248D01*
X154980140Y-101076299D01*
X154929578Y-101152970D01*
X154892628Y-101210728D01*
X154872258Y-101245043D01*
X154869197Y-101252254D01*
X154876136Y-101272748D01*
X154895051Y-101320513D01*
X154923087Y-101388832D01*
X154957391Y-101470989D01*
X154995109Y-101560270D01*
X155033387Y-101649958D01*
X155069370Y-101733338D01*
X155100206Y-101803694D01*
X155123039Y-101854310D01*
X155135017Y-101878471D01*
X155135724Y-101879422D01*
X155154531Y-101884036D01*
X155204618Y-101894328D01*
X155280793Y-101909287D01*
X155377865Y-101927901D01*
X155490643Y-101949159D01*
X155556442Y-101961418D01*
X155676950Y-101984362D01*
X155785797Y-102006195D01*
X155877476Y-102025722D01*
X155946481Y-102041748D01*
X155987304Y-102053079D01*
X155995511Y-102056674D01*
X156003548Y-102081006D01*
X156010033Y-102135959D01*
X156014970Y-102215108D01*
X156018364Y-102312026D01*
X156020218Y-102420287D01*
X156020538Y-102533465D01*
X156019327Y-102645135D01*
X156016590Y-102748868D01*
X156012331Y-102838241D01*
X156006555Y-102906826D01*
X155999267Y-102948197D01*
X155994895Y-102956810D01*
X155968764Y-102967133D01*
X155913393Y-102981892D01*
X155836107Y-102999352D01*
X155744230Y-103017780D01*
X155712158Y-103023741D01*
X155557524Y-103052066D01*
X155435375Y-103074876D01*
X155341673Y-103093080D01*
X155272384Y-103107583D01*
X155223471Y-103119292D01*
X155190897Y-103129115D01*
X155170628Y-103137956D01*
X155158626Y-103146724D01*
X155156947Y-103148457D01*
X155140184Y-103176371D01*
X155114614Y-103230695D01*
X155082788Y-103304777D01*
X155047260Y-103391965D01*
X155010583Y-103485608D01*
X154975311Y-103579052D01*
X154943996Y-103665647D01*
X154919193Y-103738740D01*
X154903454Y-103791678D01*
X154899332Y-103817811D01*
X154899676Y-103818726D01*
X154913641Y-103840086D01*
X154945322Y-103887084D01*
X154991391Y-103954827D01*
X155048518Y-104038423D01*
X155113373Y-104132982D01*
X155131843Y-104159854D01*
X155197699Y-104257275D01*
X155255650Y-104346163D01*
X155302538Y-104421412D01*
X155335207Y-104477920D01*
X155350500Y-104510581D01*
X155351241Y-104514593D01*
X155338392Y-104535684D01*
X155302888Y-104577464D01*
X155249293Y-104635445D01*
X155182171Y-104705135D01*
X155106087Y-104782045D01*
X155025604Y-104861683D01*
X154945287Y-104939561D01*
X154869699Y-105011186D01*
X154803405Y-105072070D01*
X154750969Y-105117721D01*
X154716955Y-105143650D01*
X154707545Y-105147883D01*
X154685643Y-105137912D01*
X154640800Y-105111020D01*
X154580321Y-105071736D01*
X154533789Y-105040117D01*
X154449475Y-104982098D01*
X154349626Y-104913784D01*
X154249473Y-104845579D01*
X154195627Y-104809075D01*
X154013371Y-104685800D01*
X153860381Y-104768520D01*
X153790682Y-104804759D01*
X153731414Y-104832926D01*
X153691311Y-104848991D01*
X153681103Y-104851226D01*
X153668829Y-104834722D01*
X153644613Y-104788082D01*
X153610263Y-104715609D01*
X153567588Y-104621606D01*
X153518394Y-104510374D01*
X153464490Y-104386215D01*
X153407684Y-104253432D01*
X153349782Y-104116327D01*
X153292593Y-103979202D01*
X153237924Y-103846358D01*
X153187584Y-103722098D01*
X153143380Y-103610725D01*
X153107119Y-103516539D01*
X153080609Y-103443844D01*
X153065658Y-103396941D01*
X153063254Y-103380833D01*
X153082311Y-103360286D01*
X153124036Y-103326933D01*
X153179706Y-103287702D01*
X153184378Y-103284599D01*
X153328264Y-103169423D01*
X153444283Y-103035053D01*
X153531430Y-102885784D01*
X153588699Y-102725913D01*
X153615086Y-102559737D01*
X153609585Y-102391552D01*
X153571190Y-102225655D01*
X153498895Y-102066342D01*
X153477626Y-102031487D01*
X153366996Y-101890737D01*
X153236302Y-101777714D01*
X153090064Y-101693003D01*
X152932808Y-101637194D01*
X152769057Y-101610874D01*
X152603333Y-101614630D01*
X152440162Y-101649050D01*
X152284065Y-101714723D01*
X152139567Y-101812235D01*
X152094869Y-101851813D01*
X151981112Y-101975703D01*
X151898218Y-102106124D01*
X151841356Y-102252315D01*
X151809687Y-102397088D01*
X151801869Y-102559860D01*
X151827938Y-102723440D01*
X151885245Y-102882298D01*
X151971144Y-103030906D01*
X152082986Y-103163735D01*
X152218123Y-103275256D01*
X152235883Y-103287011D01*
X152292150Y-103325508D01*
X152334923Y-103358863D01*
X152355372Y-103380160D01*
X152355669Y-103380833D01*
X152351279Y-103403871D01*
X152333876Y-103456157D01*
X152305268Y-103533390D01*
X152267265Y-103631268D01*
X152221674Y-103745491D01*
X152170303Y-103871758D01*
X152114962Y-104005767D01*
X152057458Y-104143218D01*
X151999601Y-104279808D01*
X151943198Y-104411237D01*
X151890058Y-104533205D01*
X151841990Y-104641409D01*
X151800801Y-104731549D01*
X151768301Y-104799323D01*
X151746297Y-104840430D01*
X151737436Y-104851226D01*
X151710360Y-104842819D01*
X151659697Y-104820272D01*
X151594183Y-104787613D01*
X151558159Y-104768520D01*
X151405168Y-104685800D01*
X151222912Y-104809075D01*
X151129875Y-104872228D01*
X151028015Y-104941727D01*
X150932562Y-105007165D01*
X150884750Y-105040117D01*
X150817505Y-105085273D01*
X150760564Y-105121057D01*
X150721354Y-105142938D01*
X150708619Y-105147563D01*
X150690083Y-105135085D01*
X150649059Y-105100252D01*
X150589525Y-105046678D01*
X150515458Y-104977983D01*
X150430835Y-104897781D01*
X150377315Y-104846286D01*
X150283681Y-104754286D01*
X150202759Y-104671999D01*
X150137823Y-104602945D01*
X150092142Y-104550644D01*
X150068989Y-104518616D01*
X150066768Y-104512116D01*
X150077076Y-104487394D01*
X150105561Y-104437405D01*
X150149063Y-104367212D01*
X150204423Y-104281875D01*
X150268480Y-104186456D01*
X150286697Y-104159854D01*
X150353073Y-104063167D01*
X150412622Y-103976117D01*
X150462016Y-103903595D01*
X150497925Y-103850493D01*
X150517019Y-103821703D01*
X150518864Y-103818726D01*
X150516105Y-103795782D01*
X150501462Y-103745336D01*
X150477487Y-103674041D01*
X150446734Y-103588547D01*
X150411756Y-103495507D01*
X150375107Y-103401574D01*
X150339339Y-103313399D01*
X150307006Y-103237634D01*
X150280662Y-103180931D01*
X150262858Y-103149943D01*
X150261593Y-103148457D01*
X150250706Y-103139601D01*
X150232318Y-103130843D01*
X150202394Y-103121277D01*
X150156897Y-103109996D01*
X150091791Y-103096093D01*
X150003039Y-103078663D01*
X149886607Y-103056798D01*
X149738458Y-103029591D01*
X149706382Y-103023741D01*
X149611314Y-103005374D01*
X149528435Y-102987405D01*
X149465070Y-102971569D01*
X149428542Y-102959600D01*
X149423644Y-102956810D01*
X149415573Y-102932072D01*
X149409013Y-102876790D01*
X149403967Y-102797389D01*
X149400441Y-102700296D01*
X149398439Y-102591938D01*
X149397964Y-102478740D01*
X149399023Y-102367128D01*
X149401618Y-102263529D01*
X149405754Y-102174368D01*
X149411437Y-102106072D01*
X149418669Y-102065066D01*
X149423029Y-102056674D01*
X149447302Y-102048208D01*
X149502574Y-102034435D01*
X149583338Y-102016550D01*
X149684088Y-101995748D01*
X149799317Y-101973223D01*
X149862098Y-101961418D01*
X149981213Y-101939151D01*
X150087435Y-101918979D01*
X150175573Y-101901915D01*
X150240434Y-101888969D01*
X150276826Y-101881155D01*
X150282816Y-101879422D01*
X150292939Y-101859890D01*
X150314338Y-101812843D01*
X150344161Y-101745003D01*
X150379555Y-101663091D01*
X150417668Y-101573828D01*
X150455647Y-101483935D01*
X150490640Y-101400135D01*
X150519794Y-101329147D01*
X150540257Y-101277694D01*
X150549177Y-101252497D01*
X150549343Y-101251396D01*
X150539231Y-101231519D01*
X150510883Y-101185777D01*
X150467277Y-101118717D01*
X150411394Y-101034884D01*
X150346213Y-100938826D01*
X150308321Y-100883650D01*
X150239275Y-100782481D01*
X150177950Y-100690630D01*
X150127337Y-100612744D01*
X150090429Y-100553469D01*
X150070218Y-100517451D01*
X150067299Y-100509377D01*
X150079847Y-100490584D01*
X150114537Y-100450457D01*
X150166937Y-100393493D01*
X150232616Y-100324185D01*
X150307144Y-100247031D01*
X150386087Y-100166525D01*
X150465017Y-100087163D01*
X150539500Y-100013440D01*
X150605106Y-99949852D01*
X150657404Y-99900894D01*
X150691961Y-99871061D01*
X150703522Y-99863942D01*
X150722346Y-99873953D01*
X150767369Y-99902078D01*
X150834213Y-99945454D01*
X150918501Y-100001218D01*
X151015856Y-100066506D01*
X151089293Y-100116246D01*
X151460333Y-100368551D01*
X152078905Y-100113555D01*
X152162725Y-99668931D01*
X152246546Y-99224307D01*
X153171994Y-99224307D01*
X153255814Y-99668931D01*
G37*
X153255814Y-99668931D02*
X153339635Y-100113555D01*
X153648920Y-100241053D01*
X153958206Y-100368551D01*
X154329246Y-100116246D01*
X154433157Y-100045996D01*
X154527087Y-99983272D01*
X154606652Y-99930938D01*
X154667470Y-99891857D01*
X154705157Y-99868893D01*
X154715421Y-99863942D01*
X154733910Y-99876676D01*
X154773420Y-99911882D01*
X154829522Y-99965062D01*
X154897787Y-100031718D01*
X154973786Y-100107354D01*
X155053092Y-100187472D01*
X155131275Y-100267574D01*
X155203907Y-100343164D01*
X155266559Y-100409745D01*
X155314803Y-100462818D01*
X155344210Y-100497887D01*
X155351241Y-100509623D01*
X155341123Y-100531260D01*
X155312759Y-100578662D01*
X155269129Y-100647193D01*
X155213218Y-100732215D01*
X155148006Y-100829093D01*
X155110219Y-100884350D01*
X155041343Y-100985248D01*
X154980140Y-101076299D01*
X154929578Y-101152970D01*
X154892628Y-101210728D01*
X154872258Y-101245043D01*
X154869197Y-101252254D01*
X154876136Y-101272748D01*
X154895051Y-101320513D01*
X154923087Y-101388832D01*
X154957391Y-101470989D01*
X154995109Y-101560270D01*
X155033387Y-101649958D01*
X155069370Y-101733338D01*
X155100206Y-101803694D01*
X155123039Y-101854310D01*
X155135017Y-101878471D01*
X155135724Y-101879422D01*
X155154531Y-101884036D01*
X155204618Y-101894328D01*
X155280793Y-101909287D01*
X155377865Y-101927901D01*
X155490643Y-101949159D01*
X155556442Y-101961418D01*
X155676950Y-101984362D01*
X155785797Y-102006195D01*
X155877476Y-102025722D01*
X155946481Y-102041748D01*
X155987304Y-102053079D01*
X155995511Y-102056674D01*
X156003548Y-102081006D01*
X156010033Y-102135959D01*
X156014970Y-102215108D01*
X156018364Y-102312026D01*
X156020218Y-102420287D01*
X156020538Y-102533465D01*
X156019327Y-102645135D01*
X156016590Y-102748868D01*
X156012331Y-102838241D01*
X156006555Y-102906826D01*
X155999267Y-102948197D01*
X155994895Y-102956810D01*
X155968764Y-102967133D01*
X155913393Y-102981892D01*
X155836107Y-102999352D01*
X155744230Y-103017780D01*
X155712158Y-103023741D01*
X155557524Y-103052066D01*
X155435375Y-103074876D01*
X155341673Y-103093080D01*
X155272384Y-103107583D01*
X155223471Y-103119292D01*
X155190897Y-103129115D01*
X155170628Y-103137956D01*
X155158626Y-103146724D01*
X155156947Y-103148457D01*
X155140184Y-103176371D01*
X155114614Y-103230695D01*
X155082788Y-103304777D01*
X155047260Y-103391965D01*
X155010583Y-103485608D01*
X154975311Y-103579052D01*
X154943996Y-103665647D01*
X154919193Y-103738740D01*
X154903454Y-103791678D01*
X154899332Y-103817811D01*
X154899676Y-103818726D01*
X154913641Y-103840086D01*
X154945322Y-103887084D01*
X154991391Y-103954827D01*
X155048518Y-104038423D01*
X155113373Y-104132982D01*
X155131843Y-104159854D01*
X155197699Y-104257275D01*
X155255650Y-104346163D01*
X155302538Y-104421412D01*
X155335207Y-104477920D01*
X155350500Y-104510581D01*
X155351241Y-104514593D01*
X155338392Y-104535684D01*
X155302888Y-104577464D01*
X155249293Y-104635445D01*
X155182171Y-104705135D01*
X155106087Y-104782045D01*
X155025604Y-104861683D01*
X154945287Y-104939561D01*
X154869699Y-105011186D01*
X154803405Y-105072070D01*
X154750969Y-105117721D01*
X154716955Y-105143650D01*
X154707545Y-105147883D01*
X154685643Y-105137912D01*
X154640800Y-105111020D01*
X154580321Y-105071736D01*
X154533789Y-105040117D01*
X154449475Y-104982098D01*
X154349626Y-104913784D01*
X154249473Y-104845579D01*
X154195627Y-104809075D01*
X154013371Y-104685800D01*
X153860381Y-104768520D01*
X153790682Y-104804759D01*
X153731414Y-104832926D01*
X153691311Y-104848991D01*
X153681103Y-104851226D01*
X153668829Y-104834722D01*
X153644613Y-104788082D01*
X153610263Y-104715609D01*
X153567588Y-104621606D01*
X153518394Y-104510374D01*
X153464490Y-104386215D01*
X153407684Y-104253432D01*
X153349782Y-104116327D01*
X153292593Y-103979202D01*
X153237924Y-103846358D01*
X153187584Y-103722098D01*
X153143380Y-103610725D01*
X153107119Y-103516539D01*
X153080609Y-103443844D01*
X153065658Y-103396941D01*
X153063254Y-103380833D01*
X153082311Y-103360286D01*
X153124036Y-103326933D01*
X153179706Y-103287702D01*
X153184378Y-103284599D01*
X153328264Y-103169423D01*
X153444283Y-103035053D01*
X153531430Y-102885784D01*
X153588699Y-102725913D01*
X153615086Y-102559737D01*
X153609585Y-102391552D01*
X153571190Y-102225655D01*
X153498895Y-102066342D01*
X153477626Y-102031487D01*
X153366996Y-101890737D01*
X153236302Y-101777714D01*
X153090064Y-101693003D01*
X152932808Y-101637194D01*
X152769057Y-101610874D01*
X152603333Y-101614630D01*
X152440162Y-101649050D01*
X152284065Y-101714723D01*
X152139567Y-101812235D01*
X152094869Y-101851813D01*
X151981112Y-101975703D01*
X151898218Y-102106124D01*
X151841356Y-102252315D01*
X151809687Y-102397088D01*
X151801869Y-102559860D01*
X151827938Y-102723440D01*
X151885245Y-102882298D01*
X151971144Y-103030906D01*
X152082986Y-103163735D01*
X152218123Y-103275256D01*
X152235883Y-103287011D01*
X152292150Y-103325508D01*
X152334923Y-103358863D01*
X152355372Y-103380160D01*
X152355669Y-103380833D01*
X152351279Y-103403871D01*
X152333876Y-103456157D01*
X152305268Y-103533390D01*
X152267265Y-103631268D01*
X152221674Y-103745491D01*
X152170303Y-103871758D01*
X152114962Y-104005767D01*
X152057458Y-104143218D01*
X151999601Y-104279808D01*
X151943198Y-104411237D01*
X151890058Y-104533205D01*
X151841990Y-104641409D01*
X151800801Y-104731549D01*
X151768301Y-104799323D01*
X151746297Y-104840430D01*
X151737436Y-104851226D01*
X151710360Y-104842819D01*
X151659697Y-104820272D01*
X151594183Y-104787613D01*
X151558159Y-104768520D01*
X151405168Y-104685800D01*
X151222912Y-104809075D01*
X151129875Y-104872228D01*
X151028015Y-104941727D01*
X150932562Y-105007165D01*
X150884750Y-105040117D01*
X150817505Y-105085273D01*
X150760564Y-105121057D01*
X150721354Y-105142938D01*
X150708619Y-105147563D01*
X150690083Y-105135085D01*
X150649059Y-105100252D01*
X150589525Y-105046678D01*
X150515458Y-104977983D01*
X150430835Y-104897781D01*
X150377315Y-104846286D01*
X150283681Y-104754286D01*
X150202759Y-104671999D01*
X150137823Y-104602945D01*
X150092142Y-104550644D01*
X150068989Y-104518616D01*
X150066768Y-104512116D01*
X150077076Y-104487394D01*
X150105561Y-104437405D01*
X150149063Y-104367212D01*
X150204423Y-104281875D01*
X150268480Y-104186456D01*
X150286697Y-104159854D01*
X150353073Y-104063167D01*
X150412622Y-103976117D01*
X150462016Y-103903595D01*
X150497925Y-103850493D01*
X150517019Y-103821703D01*
X150518864Y-103818726D01*
X150516105Y-103795782D01*
X150501462Y-103745336D01*
X150477487Y-103674041D01*
X150446734Y-103588547D01*
X150411756Y-103495507D01*
X150375107Y-103401574D01*
X150339339Y-103313399D01*
X150307006Y-103237634D01*
X150280662Y-103180931D01*
X150262858Y-103149943D01*
X150261593Y-103148457D01*
X150250706Y-103139601D01*
X150232318Y-103130843D01*
X150202394Y-103121277D01*
X150156897Y-103109996D01*
X150091791Y-103096093D01*
X150003039Y-103078663D01*
X149886607Y-103056798D01*
X149738458Y-103029591D01*
X149706382Y-103023741D01*
X149611314Y-103005374D01*
X149528435Y-102987405D01*
X149465070Y-102971569D01*
X149428542Y-102959600D01*
X149423644Y-102956810D01*
X149415573Y-102932072D01*
X149409013Y-102876790D01*
X149403967Y-102797389D01*
X149400441Y-102700296D01*
X149398439Y-102591938D01*
X149397964Y-102478740D01*
X149399023Y-102367128D01*
X149401618Y-102263529D01*
X149405754Y-102174368D01*
X149411437Y-102106072D01*
X149418669Y-102065066D01*
X149423029Y-102056674D01*
X149447302Y-102048208D01*
X149502574Y-102034435D01*
X149583338Y-102016550D01*
X149684088Y-101995748D01*
X149799317Y-101973223D01*
X149862098Y-101961418D01*
X149981213Y-101939151D01*
X150087435Y-101918979D01*
X150175573Y-101901915D01*
X150240434Y-101888969D01*
X150276826Y-101881155D01*
X150282816Y-101879422D01*
X150292939Y-101859890D01*
X150314338Y-101812843D01*
X150344161Y-101745003D01*
X150379555Y-101663091D01*
X150417668Y-101573828D01*
X150455647Y-101483935D01*
X150490640Y-101400135D01*
X150519794Y-101329147D01*
X150540257Y-101277694D01*
X150549177Y-101252497D01*
X150549343Y-101251396D01*
X150539231Y-101231519D01*
X150510883Y-101185777D01*
X150467277Y-101118717D01*
X150411394Y-101034884D01*
X150346213Y-100938826D01*
X150308321Y-100883650D01*
X150239275Y-100782481D01*
X150177950Y-100690630D01*
X150127337Y-100612744D01*
X150090429Y-100553469D01*
X150070218Y-100517451D01*
X150067299Y-100509377D01*
X150079847Y-100490584D01*
X150114537Y-100450457D01*
X150166937Y-100393493D01*
X150232616Y-100324185D01*
X150307144Y-100247031D01*
X150386087Y-100166525D01*
X150465017Y-100087163D01*
X150539500Y-100013440D01*
X150605106Y-99949852D01*
X150657404Y-99900894D01*
X150691961Y-99871061D01*
X150703522Y-99863942D01*
X150722346Y-99873953D01*
X150767369Y-99902078D01*
X150834213Y-99945454D01*
X150918501Y-100001218D01*
X151015856Y-100066506D01*
X151089293Y-100116246D01*
X151460333Y-100368551D01*
X152078905Y-100113555D01*
X152162725Y-99668931D01*
X152246546Y-99224307D01*
X153171994Y-99224307D01*
X153255814Y-99668931D01*
D11*
X162597000Y-111948000D02*
X160597000Y-111948000D01*
X162597000Y-109148000D02*
X162597000Y-111948000D01*
X160597000Y-109148000D02*
X162597000Y-109148000D01*
X160597000Y-111948000D02*
X160597000Y-109148000D01*
X166682843Y-95002944D02*
X168097056Y-96417157D01*
X164702944Y-96982843D02*
X166682843Y-95002944D01*
X166117157Y-98397056D02*
X164702944Y-96982843D01*
X168097056Y-96417157D02*
X166117157Y-98397056D01*
X159630000Y-96070000D02*
X159630000Y-98730000D01*
X159630000Y-96070000D02*
X151950000Y-96070000D01*
X151950000Y-96070000D02*
X151950000Y-98730000D01*
X159630000Y-98730000D02*
X151950000Y-98730000D01*
X162230000Y-98730000D02*
X160900000Y-98730000D01*
X162230000Y-97400000D02*
X162230000Y-98730000D01*
X164197000Y-114806000D02*
X164197000Y-117466000D01*
X164197000Y-117466000D02*
X164137000Y-117466000D01*
X160327000Y-117466000D02*
X160267000Y-117466000D01*
X160267000Y-114806000D02*
X160267000Y-117466000D01*
X164197000Y-114806000D02*
X164137000Y-114806000D01*
X160327000Y-114806000D02*
X160267000Y-114806000D01*
X164137000Y-117466000D02*
X164137000Y-118926000D01*
X135600000Y-96500000D02*
G75*
G03*
X135600000Y-96500000I-700000J0D01*
G01*
X132400000Y-112300000D02*
G75*
G03*
X132400000Y-112300000I-700000J0D01*
G01*
X140700000Y-108500000D02*
G75*
G03*
X140700000Y-108500000I-700000J0D01*
G01*
X167170000Y-92420000D02*
X167170000Y-91180000D01*
X163430000Y-92420000D02*
X163430000Y-91180000D01*
X165920000Y-89930000D02*
X164680000Y-89930000D01*
X165920000Y-93670000D02*
X164680000Y-93670000D01*
X167700000Y-109200000D02*
X167700000Y-107200000D01*
X170500000Y-109200000D02*
X167700000Y-109200000D01*
X170500000Y-107200000D02*
X170500000Y-109200000D01*
X167700000Y-107200000D02*
X170500000Y-107200000D01*
X164200000Y-107300000D02*
X164200000Y-105300000D01*
X167000000Y-107300000D02*
X164200000Y-107300000D01*
X167000000Y-105300000D02*
X167000000Y-107300000D01*
X164200000Y-105300000D02*
X167000000Y-105300000D01*
X163170000Y-105620000D02*
X163170000Y-104380000D01*
X159430000Y-105620000D02*
X159430000Y-104380000D01*
X161920000Y-103130000D02*
X160680000Y-103130000D01*
X161920000Y-106870000D02*
X160680000Y-106870000D01*
X157361252Y-105710000D02*
X156838748Y-105710000D01*
X157361252Y-104290000D02*
X156838748Y-104290000D01*
X139260000Y-98740000D02*
X136510000Y-98740000D01*
X130740000Y-98740000D02*
X133490000Y-98740000D01*
X130740000Y-106195563D02*
X130740000Y-98740000D01*
X139260000Y-106195563D02*
X139260000Y-98740000D01*
X138195563Y-107260000D02*
X136510000Y-107260000D01*
X131804437Y-107260000D02*
X133490000Y-107260000D01*
X131804437Y-107260000D02*
X130740000Y-106195563D01*
X138195563Y-107260000D02*
X139260000Y-106195563D01*
X132490000Y-108500000D02*
X132490000Y-107500000D01*
X131990000Y-108000000D02*
X132990000Y-108000000D01*
X148860000Y-98740000D02*
X146110000Y-98740000D01*
X140340000Y-98740000D02*
X143090000Y-98740000D01*
X140340000Y-106195563D02*
X140340000Y-98740000D01*
X148860000Y-106195563D02*
X148860000Y-98740000D01*
X147795563Y-107260000D02*
X146110000Y-107260000D01*
X141404437Y-107260000D02*
X143090000Y-107260000D01*
X141404437Y-107260000D02*
X140340000Y-106195563D01*
X147795563Y-107260000D02*
X148860000Y-106195563D01*
X142090000Y-108500000D02*
X142090000Y-107500000D01*
X141590000Y-108000000D02*
X142590000Y-108000000D01*
D10*
X164117457Y-84881789D02*
X163628360Y-84567699D01*
X163588765Y-85098622D02*
X163209309Y-84173412D01*
X163561770Y-84028857D01*
X163667955Y-84036776D01*
X163730082Y-84062764D01*
X163810278Y-84132810D01*
X163864486Y-84264983D01*
X163856567Y-84371168D01*
X163830579Y-84433294D01*
X163760533Y-84513491D01*
X163408072Y-84658045D01*
X164998609Y-84520403D02*
X164469917Y-84737235D01*
X164734263Y-84628819D02*
X164354807Y-83703609D01*
X164320900Y-83871920D01*
X164268923Y-83996174D01*
X164198877Y-84076371D01*
X169057142Y-94666666D02*
X169104761Y-94714285D01*
X169152380Y-94857142D01*
X169152380Y-94952380D01*
X169104761Y-95095238D01*
X169009523Y-95190476D01*
X168914285Y-95238095D01*
X168723809Y-95285714D01*
X168580952Y-95285714D01*
X168390476Y-95238095D01*
X168295238Y-95190476D01*
X168200000Y-95095238D01*
X168152380Y-94952380D01*
X168152380Y-94857142D01*
X168200000Y-94714285D01*
X168247619Y-94666666D01*
X168152380Y-94333333D02*
X168152380Y-93714285D01*
X168533333Y-94047619D01*
X168533333Y-93904761D01*
X168580952Y-93809523D01*
X168628571Y-93761904D01*
X168723809Y-93714285D01*
X168961904Y-93714285D01*
X169057142Y-93761904D01*
X169104761Y-93809523D01*
X169152380Y-93904761D01*
X169152380Y-94190476D01*
X169104761Y-94285714D01*
X169057142Y-94333333D01*
X164783799Y-79319822D02*
X165054839Y-79980687D01*
X165064989Y-80130929D01*
X165013013Y-80255183D01*
X164898909Y-80353448D01*
X164810794Y-80389587D01*
X165747379Y-79284908D02*
X166000350Y-79901715D01*
X165382536Y-79022794D02*
X165433288Y-79774005D01*
X166006037Y-79539103D01*
X172452380Y-93733333D02*
X173166666Y-93733333D01*
X173309523Y-93780952D01*
X173404761Y-93876190D01*
X173452380Y-94019047D01*
X173452380Y-94114285D01*
X172452380Y-93352380D02*
X172452380Y-92685714D01*
X173452380Y-93114285D01*
X163208380Y-111381333D02*
X163922666Y-111381333D01*
X164065523Y-111428952D01*
X164160761Y-111524190D01*
X164208380Y-111667047D01*
X164208380Y-111762285D01*
X164208380Y-110905142D02*
X163208380Y-110905142D01*
X163208380Y-110524190D01*
X163256000Y-110428952D01*
X163303619Y-110381333D01*
X163398857Y-110333714D01*
X163541714Y-110333714D01*
X163636952Y-110381333D01*
X163684571Y-110428952D01*
X163732190Y-110524190D01*
X163732190Y-110905142D01*
X163541714Y-109476571D02*
X164208380Y-109476571D01*
X163160761Y-109714666D02*
X163875047Y-109952761D01*
X163875047Y-109333714D01*
X163523519Y-99402030D02*
X164028595Y-99907106D01*
X164095938Y-100041793D01*
X164095938Y-100176480D01*
X164028595Y-100311167D01*
X163961251Y-100378511D01*
X164567343Y-99772419D02*
X163860236Y-99065312D01*
X164129610Y-98795938D01*
X164230625Y-98762267D01*
X164297969Y-98762267D01*
X164398984Y-98795938D01*
X164500000Y-98896954D01*
X164533671Y-98997969D01*
X164533671Y-99065312D01*
X164500000Y-99166328D01*
X164230625Y-99435702D01*
X164500000Y-98425549D02*
X164937732Y-97987816D01*
X164971404Y-98492893D01*
X165072419Y-98391877D01*
X165173435Y-98358206D01*
X165240778Y-98358206D01*
X165341793Y-98391877D01*
X165510152Y-98560236D01*
X165543824Y-98661251D01*
X165543824Y-98728595D01*
X165510152Y-98829610D01*
X165308122Y-99031641D01*
X165207106Y-99065312D01*
X165139763Y-99065312D01*
X150508380Y-97673333D02*
X151222666Y-97673333D01*
X151365523Y-97720952D01*
X151460761Y-97816190D01*
X151508380Y-97959047D01*
X151508380Y-98054285D01*
X150508380Y-96768571D02*
X150508380Y-96959047D01*
X150556000Y-97054285D01*
X150603619Y-97101904D01*
X150746476Y-97197142D01*
X150936952Y-97244761D01*
X151317904Y-97244761D01*
X151413142Y-97197142D01*
X151460761Y-97149523D01*
X151508380Y-97054285D01*
X151508380Y-96863809D01*
X151460761Y-96768571D01*
X151413142Y-96720952D01*
X151317904Y-96673333D01*
X151079809Y-96673333D01*
X150984571Y-96720952D01*
X150936952Y-96768571D01*
X150889333Y-96863809D01*
X150889333Y-97054285D01*
X150936952Y-97149523D01*
X150984571Y-97197142D01*
X151079809Y-97244761D01*
X164652380Y-117433333D02*
X165366666Y-117433333D01*
X165509523Y-117480952D01*
X165604761Y-117576190D01*
X165652380Y-117719047D01*
X165652380Y-117814285D01*
X164747619Y-117004761D02*
X164700000Y-116957142D01*
X164652380Y-116861904D01*
X164652380Y-116623809D01*
X164700000Y-116528571D01*
X164747619Y-116480952D01*
X164842857Y-116433333D01*
X164938095Y-116433333D01*
X165080952Y-116480952D01*
X165652380Y-117052380D01*
X165652380Y-116433333D01*
X163666666Y-94452380D02*
X163666666Y-95166666D01*
X163619047Y-95309523D01*
X163523809Y-95404761D01*
X163380952Y-95452380D01*
X163285714Y-95452380D01*
X164619047Y-94452380D02*
X164142857Y-94452380D01*
X164095238Y-94928571D01*
X164142857Y-94880952D01*
X164238095Y-94833333D01*
X164476190Y-94833333D01*
X164571428Y-94880952D01*
X164619047Y-94928571D01*
X164666666Y-95023809D01*
X164666666Y-95261904D01*
X164619047Y-95357142D01*
X164571428Y-95404761D01*
X164476190Y-95452380D01*
X164238095Y-95452380D01*
X164142857Y-95404761D01*
X164095238Y-95357142D01*
X168266666Y-105682380D02*
X168266666Y-106396666D01*
X168219047Y-106539523D01*
X168123809Y-106634761D01*
X167980952Y-106682380D01*
X167885714Y-106682380D01*
X168742857Y-106682380D02*
X168742857Y-105682380D01*
X169123809Y-105682380D01*
X169219047Y-105730000D01*
X169266666Y-105777619D01*
X169314285Y-105872857D01*
X169314285Y-106015714D01*
X169266666Y-106110952D01*
X169219047Y-106158571D01*
X169123809Y-106206190D01*
X168742857Y-106206190D01*
X169695238Y-105777619D02*
X169742857Y-105730000D01*
X169838095Y-105682380D01*
X170076190Y-105682380D01*
X170171428Y-105730000D01*
X170219047Y-105777619D01*
X170266666Y-105872857D01*
X170266666Y-105968095D01*
X170219047Y-106110952D01*
X169647619Y-106682380D01*
X170266666Y-106682380D01*
X164065666Y-103777380D02*
X164065666Y-104491666D01*
X164018047Y-104634523D01*
X163922809Y-104729761D01*
X163779952Y-104777380D01*
X163684714Y-104777380D01*
X164541857Y-104777380D02*
X164541857Y-103777380D01*
X164922809Y-103777380D01*
X165018047Y-103825000D01*
X165065666Y-103872619D01*
X165113285Y-103967857D01*
X165113285Y-104110714D01*
X165065666Y-104205952D01*
X165018047Y-104253571D01*
X164922809Y-104301190D01*
X164541857Y-104301190D01*
X166065666Y-104777380D02*
X165494238Y-104777380D01*
X165779952Y-104777380D02*
X165779952Y-103777380D01*
X165684714Y-103920238D01*
X165589476Y-104015476D01*
X165494238Y-104063095D01*
X160966666Y-101552380D02*
X160966666Y-102266666D01*
X160919047Y-102409523D01*
X160823809Y-102504761D01*
X160680952Y-102552380D01*
X160585714Y-102552380D01*
X161347619Y-101552380D02*
X161966666Y-101552380D01*
X161633333Y-101933333D01*
X161776190Y-101933333D01*
X161871428Y-101980952D01*
X161919047Y-102028571D01*
X161966666Y-102123809D01*
X161966666Y-102361904D01*
X161919047Y-102457142D01*
X161871428Y-102504761D01*
X161776190Y-102552380D01*
X161490476Y-102552380D01*
X161395238Y-102504761D01*
X161347619Y-102457142D01*
X157833333Y-103752380D02*
X157500000Y-103276190D01*
X157261904Y-103752380D02*
X157261904Y-102752380D01*
X157642857Y-102752380D01*
X157738095Y-102800000D01*
X157785714Y-102847619D01*
X157833333Y-102942857D01*
X157833333Y-103085714D01*
X157785714Y-103180952D01*
X157738095Y-103228571D01*
X157642857Y-103276190D01*
X157261904Y-103276190D01*
X158166666Y-102752380D02*
X158785714Y-102752380D01*
X158452380Y-103133333D01*
X158595238Y-103133333D01*
X158690476Y-103180952D01*
X158738095Y-103228571D01*
X158785714Y-103323809D01*
X158785714Y-103561904D01*
X158738095Y-103657142D01*
X158690476Y-103704761D01*
X158595238Y-103752380D01*
X158309523Y-103752380D01*
X158214285Y-103704761D01*
X158166666Y-103657142D01*
X138333333Y-98257142D02*
X138285714Y-98304761D01*
X138142857Y-98352380D01*
X138047619Y-98352380D01*
X137904761Y-98304761D01*
X137809523Y-98209523D01*
X137761904Y-98114285D01*
X137714285Y-97923809D01*
X137714285Y-97780952D01*
X137761904Y-97590476D01*
X137809523Y-97495238D01*
X137904761Y-97400000D01*
X138047619Y-97352380D01*
X138142857Y-97352380D01*
X138285714Y-97400000D01*
X138333333Y-97447619D01*
X138714285Y-97447619D02*
X138761904Y-97400000D01*
X138857142Y-97352380D01*
X139095238Y-97352380D01*
X139190476Y-97400000D01*
X139238095Y-97447619D01*
X139285714Y-97542857D01*
X139285714Y-97638095D01*
X139238095Y-97780952D01*
X138666666Y-98352380D01*
X139285714Y-98352380D01*
X147633333Y-98257142D02*
X147585714Y-98304761D01*
X147442857Y-98352380D01*
X147347619Y-98352380D01*
X147204761Y-98304761D01*
X147109523Y-98209523D01*
X147061904Y-98114285D01*
X147014285Y-97923809D01*
X147014285Y-97780952D01*
X147061904Y-97590476D01*
X147109523Y-97495238D01*
X147204761Y-97400000D01*
X147347619Y-97352380D01*
X147442857Y-97352380D01*
X147585714Y-97400000D01*
X147633333Y-97447619D01*
X148585714Y-98352380D02*
X148014285Y-98352380D01*
X148300000Y-98352380D02*
X148300000Y-97352380D01*
X148204761Y-97495238D01*
X148109523Y-97590476D01*
X148014285Y-97638095D01*
M02*
